<?xml version="1.0" standalone="no"?>
<!DOCTYPE svg PUBLIC "-//W3C//DTD SVG 1.1//EN" "http://www.w3.org/Graphics/SVG/1.1/DTD/svg11.dtd" >
<svg xmlns="http://www.w3.org/2000/svg">
<metadata></metadata>
<defs>
<font id="ff4akloe250" horiz-adv-x="1105" >
<font-face units-per-em="2048" ascent="1638" descent="-410" />
<missing-glyph horiz-adv-x="500" />
<glyph unicode="!" horiz-adv-x="491" d="M236 0h20v10v2v11h-20v-11v-2v-10zM236 367h20v10v964v11h-20v-11v-964v-10z" />
<glyph unicode="&#x22;" horiz-adv-x="614" d="M82 999h20v11v331v11h-20v-11v-331v-11zM348 999h21v11v331v11h-21v-11v-331v-11z" />
<glyph unicode="#" horiz-adv-x="1146" d="M41 334h10h212l-40 -324l-2 -12h21l2 8l40 328h495l-40 -324l-2 -12h21l2 8l40 328h296h10v20h-10h-293l79 647h214h10v21h-10h-211l39 317l2 13h-21l-2 -9l-39 -321h-495l39 317l2 13h-21l-2 -9l-39 -321h-297h-10v-21h10h294l-79 -647h-215h-10v-20zM286 354l80 647 h495l-79 -647h-496z" />
<glyph unicode="$" d="M109 930q1 -119 45 -192.5t90 -71.5h299v-521h-299h-11v-20h11h299v-115v-10h20v10v115h283q57 -3 102 68.5t45 207.5q1 135 -44.5 209t-102.5 76h-283v478l285 -1h10l-2 23h-10h-283v155v11h-20v-11v-155h-299q-48 -2 -91.5 -71t-43.5 -185zM129 930q1 110 37 172.5 t78 62.5l299 -1v-478h-299q-39 -2 -77 65.5t-38 178.5zM563 145v521h283q50 -2 88.5 -68.5t38.5 -196.5q1 -130 -37.5 -194.5t-89.5 -61.5h-283z" />
<glyph unicode="%" horiz-adv-x="1433" d="M86 1038q1 -127 96 -215t228 -88q132 -1 225.5 87t93.5 214q2 128 -93.5 222t-225.5 94q-132 0 -228 -92.5t-96 -221.5zM106 1038q2 122 90 207.5t214 85.5q125 0 212 -86t87 -209q1 -120 -86 -200t-213 -80q-125 -2 -214.5 80.5t-89.5 201.5zM152 0h26l4 4l1086 1335 l14 17h-27l-4 -4l-1085 -1336zM705 317q1 -130 95.5 -220.5t225.5 -90.5q133 -1 227.5 89.5t94.5 219.5q1 82 -42.5 153t-118.5 113t-161 42q-131 0 -226 -90t-95 -216zM725 317q2 119 89.5 202t211.5 83q126 0 213.5 -83.5t87.5 -203.5q1 -123 -86.5 -205.5t-214.5 -82.5 q-124 -2 -212.5 83t-88.5 207z" />
<glyph unicode="&#x26;" horiz-adv-x="1310" d="M46 457q-9 -67 2 -132t46.5 -124.5t90 -104.5t138 -71.5t185.5 -26.5q134 1 235.5 68t189.5 181q151 -145 279 -247l2 -2h33l-22 18q-127 100 -280 247q30 39 76 107t71.5 103.5t60.5 65t66 30.5h10v21h-10q-28 -1 -56 -17.5t-57 -51.5t-53 -68t-61 -87t-63 -88 q-305 295 -501 564q176 101 219 131q116 81 117 145q1 74 -42 130t-100 80.5t-114 23.5q-41 -1 -81.5 -14.5t-78.5 -40.5t-61.5 -74t-24.5 -107q0 -78 137 -268q-120 -69 -200 -131.5t-115 -132.5q-29 -60 -38 -127zM58.5 429q6.5 77 41.5 146q34 66 112 126.5t199 130.5 q198 -272 506 -570q-87 -112 -184.5 -177.5t-224.5 -66.5q-117 -1 -208.5 35t-144 94.5t-78 131.5t-19 150zM283 1116q1 55 22.5 98t55 67t71 36.5t76.5 13.5q54 1 106 -20.5t90.5 -72.5t38.5 -120q0 -14 -5 -27.5t-17.5 -28.5t-24.5 -27.5t-35 -28.5t-39.5 -27.5t-47.5 -30 t-49.5 -29t-54.5 -31t-54 -30.5q-134 186 -133 258z" />
<glyph unicode="'" horiz-adv-x="327" d="M92 1032h21v10v299v11h-21v-11v-299v-10z" />
<glyph unicode="(" horiz-adv-x="573" d="M82 569q-1 -136 30.5 -261t88 -227t124 -183t150.5 -150l2 -2h33l-23 18q-81 67 -148 147t-122.5 180t-85.5 222.5t-29 255.5q2 133 29.5 246.5t81.5 211t118.5 177t157.5 170.5l17 19h-29l-4 -2q-94 -93 -158.5 -173.5t-120 -180t-83.5 -215.5t-29 -253z" />
<glyph unicode=")" horiz-adv-x="573" d="M68 -254h28l2 2q76 73 142.5 160.5t125 192.5t92.5 226.5t34 241.5q3 431 -392 822l-4 2h-28l16 -19q121 -118 203.5 -235.5t133 -264.5t50.5 -305q1 -118 -32 -237.5t-90.5 -222.5t-123 -188t-139.5 -157z" />
<glyph unicode="*" horiz-adv-x="942" d="M102 1133h350l7 -12l-178 -285l16 -13l174 279l174 -279l17 13l-179 285l7 12h350v20h-337l159 254l-17 12l-166 -266h-16l-166 266l-16 -12l158 -254h-337v-20z" />
<glyph unicode="+" horiz-adv-x="942" d="M82 666h10h369v-322v-10h20v10v322h369h10v20h-10h-369v326v10h-20v-10v-326h-369h-10v-20z" />
<glyph unicode="," horiz-adv-x="307" d="M88 -266l14 -15l7 7q31 27 51.5 58t31.5 56t16 65.5t6 66.5t1 79v10h-20v-10q0 -52 -1 -78t-6 -64t-15 -62t-29 -52t-48 -53z" />
<glyph unicode="-" horiz-adv-x="778" d="M82 666h10h594h10v20h-10h-594h-10v-20z" />
<glyph unicode="." horiz-adv-x="409" d="M123 -2h61v31v2v30h-61v-30v-2v-31z" />
<glyph unicode="/" horiz-adv-x="614" d="M37 -2h20l4 6l512 1333l5 15h-21l-4 -6l-512 -1334z" />
<glyph unicode="0" horiz-adv-x="1187" d="M123 717q0 -271 52 -434t154 -233.5t265 -69.5q165 0 266.5 70.5t153 233t51.5 433.5q1 269 -51.5 432.5t-154.5 234t-265 70.5q-122 -1 -208 -39.5t-146 -125t-88.5 -228t-28.5 -344.5zM143 717q0 267 49 425t145.5 225t256.5 67q161 -1 257 -68t144.5 -224t48.5 -425 q1 -268 -48 -425.5t-145.5 -224t-256.5 -67.5q-158 -2 -255 65t-146.5 226t-49.5 426z" />
<glyph unicode="1" horiz-adv-x="737" d="M72 815h24l4 4l453 574v-1385v-10h20v10v1413v11h-14l-4 -5l-471 -596z" />
<glyph unicode="2" horiz-adv-x="1146" d="M123 -2h891h10v20h-10h-871q0 64 30 129t81 123.5t117 117t139.5 114.5t146.5 111.5t139 112t117 111.5t81 115t30 117q2 178 -113 281.5t-338 103.5q-58 -1 -113.5 -13t-111.5 -37t-90 -43.5t-90 -51.5l-8 -4l10 -19l10 6q54 32 70.5 41.5t67 35.5t81.5 35.5t79 19.5 t95 10q219 -1 325 -96t106 -269q0 -55 -30 -113t-80.5 -111.5t-117 -109t-139.5 -111t-146 -112t-139 -117t-117.5 -121t-81.5 -129.5t-30 -137v-10z" />
<glyph unicode="3" horiz-adv-x="1187" d="M162 86l8 -4q105 -37 156 -53t125.5 -31t142.5 -16q218 0 344.5 118t126.5 349q3 224 -131 339q-116 105 -324 105l287 526l8 15h-6h-10h-610h-11v-21h11h593l-286 -526l-8 -15h6h10q217 0 328 -100q122 -104 122 -323q1 -226 -118.5 -336.5t-331.5 -110.5 q-66 1 -139.5 16.5t-120 30.5t-156.5 53l-10 2z" />
<glyph unicode="4" horiz-adv-x="1187" d="M76 356h6h10l811 -3v-345v-10h21v10v345l131 -1h10v21h-10h-131v686v10h-21v-10v-686q-133 1 -397.5 2.5t-396.5 1.5l477 1042l6 15h-23l-4 -7l-483 -1056z" />
<glyph unicode="5" horiz-adv-x="1187" d="M143 840l2 -2l5 -2l59 -43l6 -5l6 5q157 129 373 129q238 -2 344 -105.5t106 -347.5q1 -245 -107 -356t-343 -111q-30 0 -58.5 1.5t-60.5 8t-52.5 10.5t-59 16.5t-55 18t-65 22.5t-65.5 23l-10 2l-6 -18l8 -4q15 -5 58 -20.5t57.5 -20t50.5 -16t52.5 -16t47.5 -11.5 t52.5 -9.5t49.5 -4.5t56 -2q240 0 355.5 118.5t115.5 368.5q1 249 -113.5 361t-357.5 112q-227 -3 -379 -129l-47 35l143 565h598h11v21h-11h-606h-8l-2 -9l-148 -579z" />
<glyph unicode="6" horiz-adv-x="1187" d="M123 459q4 -248 118.5 -362.5t352.5 -114.5q241 -1 356 117.5t115 369.5q1 245 -113.5 354t-357.5 109q-174 -1 -281.5 -55.5t-153.5 -173.5q16 116 46.5 220t81 204.5t130 180.5t181.5 126l10 6l-10 18l-8 -4q-106 -50 -189.5 -136.5t-134.5 -186t-84.5 -218.5t-46 -226 t-12.5 -216v-2v-10zM143 470v1q0 3 0.5 11t0.5 12q5 226 112 321.5t338 95.5q239 -2 344.5 -101.5t105.5 -340.5q1 -245 -107 -356t-343 -111q-233 -2 -342 109.5t-109 358.5z" />
<glyph unicode="7" horiz-adv-x="1064" d="M82 1413h10h862q-123 -219 -178.5 -318t-134.5 -244t-107.5 -201t-74 -150.5t-59.5 -134.5t-37.5 -110t-34 -120t-25.5 -125l-2 -12h21l2 8q20 101 34.5 162.5t49.5 156t67.5 164t113.5 223t159.5 294t232.5 413.5l10 15h-8h-891h-10v-21z" />
<glyph unicode="8" horiz-adv-x="1187" d="M123 406q0 -218 115.5 -321t355.5 -103q241 -1 356 102.5t115 321.5q3 217 -107 313q-70 63 -210 83q114 19 178 68q90 79 90 242q1 80 -20 140.5t-69 107t-131.5 70.5t-201.5 24q-227 -1 -324.5 -89t-97.5 -253t90 -244q64 -50 176 -68q-135 -19 -207 -83 q-108 -90 -108 -311zM143 406q0 211 101 294q101 88 350 91q250 0 352 -89q53 -45 75.5 -116t22.5 -180q1 -212 -107 -308t-343 -96q-233 -2 -342 95.5t-109 308.5zM193 1112q0 78 19.5 135t64.5 100t124 65t193 22q114 -1 193.5 -22.5t124 -65t64 -100t19.5 -134.5 q3 -152 -82 -225q-99 -76 -319 -76q-221 -3 -320 74q-81 70 -81 227z" />
<glyph unicode="9" horiz-adv-x="1187" d="M123 975q1 -244 114.5 -349.5t356.5 -105.5q179 -1 286 53.5t151 175.5q-12 -96 -32.5 -185t-57 -181t-84 -165t-116 -131.5t-151.5 -86.5l-8 -4l6 -19l10 3q106 36 190 121.5t134.5 190t84 230.5t46 236.5t12.5 216.5q1 244 -115 361.5t-356 117.5q-239 -2 -355 -118 t-116 -361zM143 975q2 238 110 348.5t341 110.5q235 -2 342.5 -111t107.5 -348q0 -237 -106 -335.5t-344 -98.5q-236 -2 -343.5 98t-107.5 336z" />
<glyph unicode=":" horiz-adv-x="409" d="M178 10h62v31v2v31h-62v-31v-2v-31zM178 934h62v31v2v30h-62v-30v-2v-31z" />
<glyph unicode=";" horiz-adv-x="307" d="M88 -266l14 -15l9 9q47 53 75.5 140t28.5 181v10h-20v-10q0 -91 -27.5 -173.5t-73.5 -135.5zM125 938h61v31v2v30h-61v-30v-2v-31z" />
<glyph unicode="&#x3c;" d="M82 668l6 -2l922 -334l14 -4v22l-6 2l-895 324l895 323l6 2v23l-14 -4l-922 -334l-6 -2v-16z" />
<glyph unicode="=" d="M82 395h10h922h10v21h-10h-922h-10v-21zM82 881h10h922h10v20h-10h-922h-10v-20z" />
<glyph unicode="&#x3e;" d="M82 328l14 4l922 334l6 2v16l-6 2l-922 334l-14 4v-23l6 -2l895 -323l-895 -324l-6 -2v-22z" />
<glyph unicode="?" horiz-adv-x="1024" d="M82 1077h20v10q0 105 57 183t149 116t204 37q110 -1 202 -40t150 -117t58 -181q0 -23 -5 -45t-10.5 -38.5t-22 -38t-24 -31.5t-33 -33t-32.5 -29t-39 -31.5t-37 -29.5q-39 -29 -64 -50t-56.5 -54t-50 -64t-31.5 -73.5t-13 -88.5q-1 -31 -1 -53.5t0.5 -37.5t0.5 -19v-11 h20v11q0 4 -0.5 19t-0.5 37.5t1 53.5q0 54 16 100t49.5 85.5t62.5 65.5t79 63q6 5 30 24t31.5 25.5t28.5 24t29 26t24.5 26t23 29.5t17.5 29.5t15.5 33.5t8 35t3.5 39q1 160 -127 258.5t-303 100.5q-114 1 -211 -39.5t-158 -124t-61 -193.5v-10zM483 6h62v31v4v31h-62v-31 v-4v-31z" />
<glyph unicode="@" horiz-adv-x="2068" d="M123 467q1 -172 68 -328.5t180 -270t268.5 -180.5t325.5 -67q149 -1 280 24.5t227.5 70.5t165.5 94.5t121 107.5l6 6l-14 15l-8 -9q-50 -56 -117.5 -104t-162 -91t-223 -68t-275.5 -25q-166 -1 -318 64t-262.5 175.5t-176 264t-65.5 321.5q1 134 42.5 260t117.5 228 t177 178.5t226 118.5t259 42q164 -1 312 -60t255 -158.5t170 -237t63 -289.5q1 -146 -82 -286t-188 -210q-65 -47 -126.5 -70.5t-106.5 -20.5t-77 22.5t-44 57.5t-2 85q20 88 44 198t25 113l9 27q11 41 16 86q28 130 72 332l2 10l-21 4l-2 -10q-25 -115 -53 -245 q-15 114 -91 183.5t-175 69.5q-137 0 -251.5 -106.5t-174.5 -319.5q-41 -135 -14 -232.5t103 -151t179 -52.5q113 4 202 80t151 203q-6 -25 -20 -86.5t-22 -98.5q-11 -52 3 -94t50.5 -64.5t86.5 -27.5t116 18.5t133 73.5q106 69 192.5 215t86.5 297q1 154 -64.5 295.5 t-175.5 244.5t-262.5 164.5t-318.5 61.5q-169 -1 -324.5 -68.5t-269 -181t-181 -270.5t-67.5 -328zM543.5 241.5q-24.5 91.5 15.5 221.5v2q57 206 166 307.5t240 101.5q114 0 187.5 -89.5t59.5 -232.5q-5 -21 -12.5 -57t-11.5 -52q-57 -172 -153.5 -279t-227.5 -111 q-99 -1 -169 48t-94.5 140.5z" />
<glyph unicode="A" horiz-adv-x="1228" d="M37 0h20l4 6l122 326h1h820h1l121 -326l4 -6h21l-4 14l-500 1332l-4 6h-6h-43h-43h-6l-4 -6l-500 -1332zM191 352l366 979h37h37l366 -979h-806z" />
<glyph unicode="B" horiz-adv-x="1263" d="M164 0h10h610h5q195 0 273 75q79 76 79 267v10q0 161 -61 238q-63 79 -213 93q101 27 144.5 102.5t43.5 225.5q1 187 -79 263q-80 78 -280 78l-520 -2h-10v-11l-2 -1329v-10zM184 1331h512q99 -1 162 -16.5t103.5 -53.5t56.5 -98.5t16 -156.5v-5q0 -182 -72 -248 q-72 -67 -266 -67q-85 0 -255.5 -1t-255.5 -1zM185 666h511h18h70q194 -2 265 -70t71 -254v-5q0 -181 -71 -249q-72 -68 -265 -68l-598 -2z" />
<glyph unicode="C" horiz-adv-x="1210" d="M82 676q1 -342 143.5 -519t401.5 -177h7q157 0 294 47q140 48 237 110l-12 17q-89 -59 -228.5 -106.5t-297.5 -47.5h-6q-247 0 -382 170q-137 172 -137 506q1 334 137 505t388 171q111 -1 220.5 -36.5t179 -77t124.5 -89.5l12 16q-91 79 -233 143t-303 64 q-258 -2 -401.5 -179t-143.5 -517z" />
<glyph unicode="D" horiz-adv-x="1339" d="M164 0h10h518h7q129 0 223 34q96 35 163 114t99.5 209.5t32.5 318.5v11q0 179 -32 305q-33 130 -100.5 209.5t-163 115t-227.5 35.5l-518 -2h-10v-11l-2 -1329v-10zM184 20v1311h510q131 -1 222 -34t155 -109t94.5 -202t30.5 -310v-12q0 -177 -30 -300q-30 -127 -95 -203 t-156.5 -108.5t-222.5 -32.5h-508z" />
<glyph unicode="E" horiz-adv-x="1230" d="M164 0h10h924h10v20h-10h-914v646h695h10v20h-10h-695v645h914h10v21h-10h-924h-10v-11v-655v-20v-656v-10z" />
<glyph unicode="F" horiz-adv-x="1054" d="M164 0h20v10v656h580h10v20h-10h-580v645h799h10v21h-10h-809h-10v-11v-655v-20v-656v-10z" />
<glyph unicode="G" horiz-adv-x="1392" d="M82 676q1 -343 151 -519.5t424 -176.5h12q313 0 556 159l4 2v535v10h-10h-560v-20h549v-512q-238 -154 -551 -154h-6q-262 0 -405 170q-144 171 -144 506q1 335 144.5 505.5t410.5 170.5q114 -1 230 -36.5t190 -77t135 -89.5l13 16q-61 48 -138 91t-196 79.5t-234 36.5 q-273 -2 -424 -179t-151 -517z" />
<glyph unicode="H" horiz-adv-x="1349" d="M164 0h20v10v656h940v-656v-10h21v10v656v20v655v11h-21v-11v-655h-940v655v11h-20v-11v-655v-20v-656v-10z" />
<glyph unicode="I" horiz-adv-x="354" d="M156 0h20v10v1331v11h-20v-11v-1331v-10z" />
<glyph unicode="J" horiz-adv-x="686" d="M-12 -227l4 -21l10 2q238 31 358.5 157t120.5 343l2 1067l2 10l-22 2l-2 -10v-1069q1 -212 -113.5 -330t-349.5 -149z" />
<glyph unicode="K" horiz-adv-x="1251" d="M164 0h20v10v656h293l613 -662l4 -4h26l-14 16l-610 660l610 659l14 17h-26l-4 -4l-613 -662h-293v655v11h-20v-11v-655v-20v-656v-10z" />
<glyph unicode="L" horiz-adv-x="1024" d="M164 0h10h758h10v20h-10h-748v1321v11h-20v-11v-1331v-10z" />
<glyph unicode="M" horiz-adv-x="1679" d="M164 0h20v10v1321h45l539 -1325l4 -6h6h41h41h6l4 6l539 1325h45v-1321v-10h21v10v1331v11h-11h-61h-6l-4 -6l-539 -1326h-35h-35l-538 1326l-4 6h-6h-62h-10v-11v-1331v-10z" />
<glyph unicode="N" horiz-adv-x="1349" d="M164 0h20v10v1321h49l828 -1327l2 -4h6h66h10v10v1331v11h-21v-11v-1321h-49l-827 1328l-2 4h-6h-66h-10v-11v-1331v-10z" />
<glyph unicode="O" horiz-adv-x="1435" d="M82 676q0 -345 156.5 -520.5t459.5 -175.5h7q298 0 452 174q156 176 156 522q1 343 -156 519.5t-459 176.5q-302 -2 -459 -177t-157 -519zM102 676q0 676 596 676q594 -3 594 -676v-7q0 -669 -594 -669h-7q-291 0 -439 168q-150 170 -150 508z" />
<glyph unicode="P" horiz-adv-x="1267" d="M164 0h20v10v574h557h12q111 0 183 18q76 20 123.5 67t66.5 118t19 180v10q1 207 -85 290q-88 85 -319 85l-565 -2h-10v-11l-2 -1329v-10zM184 602v729h557q155 -1 236.5 -35.5t114 -110t32.5 -218.5v-10q0 -201 -78 -276q-80 -77 -305 -77q-93 0 -278.5 -1t-278.5 -1z " />
<glyph unicode="Q" horiz-adv-x="1435" d="M82 676q0 -345 156.5 -520.5t459.5 -175.5h7q284 0 437 158l154 -136l7 -6l14 14l-8 8l-153 135q157 177 157 523q1 343 -156 519.5t-459 176.5q-302 -2 -459 -177t-157 -519zM102 676q0 676 596 676q594 -3 594 -676q1 -343 -150 -511l-210 185l-6 6l-15 -14l9 -8 l208 -183q-148 -151 -430 -151h-7q-291 0 -439 168q-150 169 -150 508z" />
<glyph unicode="R" horiz-adv-x="1267" d="M164 0h20v10v574h504h10q43 0 77.5 -6.5t63.5 -21.5t52 -33t44 -49t37.5 -61t34.5 -76.5t33 -88t36 -103.5q30 -89 48 -139l2 -6h23l-4 14q-17 47 -40 113.5t-36 104.5t-33 89.5t-34.5 81t-36 64t-42.5 55.5t-49 39t-61 28q160 18 224.5 105t64.5 273v10q0 207 -86 290 q-88 85 -318 85l-522 -2h-10v-11l-2 -1329v-10zM184 602v729h514q155 -1 236.5 -35.5t114 -110t32.5 -218.5v-10q1 -199 -79 -275q-82 -78 -304 -78h-10z" />
<glyph unicode="S" horiz-adv-x="1103" d="M6 145q143 -81 253.5 -122.5t232.5 -42.5q253 0 371 97t118 265q1 56 -25.5 104.5t-64.5 82.5t-103 68t-117 54.5t-132 48.5q-199 73 -264 106q-151 77 -167 177q-2 13 -2 27q2 158 98 250t288 92q39 0 76.5 -5.5t65.5 -11.5t61 -20.5t51 -23t49.5 -29.5t43 -29.5 t43.5 -33t40 -30.5l12 17q-7 6 -40 31t-44.5 33.5t-44 30t-51.5 30t-53 23.5t-63 21t-67.5 11.5t-78.5 5.5q-198 -1 -302 -99.5t-104 -262.5q1 -49 27.5 -92t54.5 -70t99.5 -61.5t104.5 -47.5t126 -47q21 -8 32 -12q57 -20 93.5 -33.5t87 -35t82 -39.5t67 -44t55.5 -53 t33 -61t13 -72v-6q1 -158 -109 -246q-112 -90 -360 -90q-119 1 -228 41.5t-250 120.5z" />
<glyph unicode="T" horiz-adv-x="1146" d="M41 1331h10h494v-1321v-10h20v10v1321h490h10v21h-10h-490h-20h-494h-10v-21z" />
<glyph unicode="U" horiz-adv-x="1392" d="M164 508q1 -130 39.5 -231.5t107 -166t161 -97.5t204.5 -33h6q158 0 290 55q136 56 214 133l2 4v336v833v11h-21v-11v-833v-328q-72 -72 -203 -126t-288 -54h-7q-105 0 -191 30q-90 32 -155.5 94t-102 160t-36.5 224l2 831l2 11l-22 2l-2 -11v-833z" />
<glyph unicode="V" horiz-adv-x="1228" d="M37 1352l4 -15l498 -1331l4 -6h6h45h43h6l4 6l500 1331l4 15h-21l-4 -6l-495 -1326h-37h-39l-494 1326l-4 6h-20z" />
<glyph unicode="W" horiz-adv-x="1681" d="M39 1352l2 -13l307 -1331l2 -8h8l76 2h8l2 8l332 1319l45 2l43 -2l332 -1319l2 -8h8l76 -2h8l2 8l307 1331l3 13h-21l-2 -9l-305 -1323l-60 3l-331 1318l-2 9h-9l-51 2l-53 -2h-8l-2 -9l-332 -1318l-59 -3l-306 1323l-2 9h-20z" />
<glyph unicode="X" horiz-adv-x="1228" d="M72 0h26l2 4l494 686l493 -686l3 -4h26l-12 16l-497 691l452 628l12 17h-27l-2 -4l-448 -623l-449 623l-2 4h-26l12 -17l452 -628l-497 -691z" />
<glyph unicode="Y" horiz-adv-x="1228" d="M74 1352l10 -17l504 -871v-454v-10h20v10v456l496 871l10 15h-24l-3 -6l-489 -859l-498 861l-2 4h-24z" />
<glyph unicode="Z" horiz-adv-x="1144" d="M74 0h8h10h961h10v20h-10h-942l854 1315l10 17h-8h-11h-815h-10v-21h10h797l-854 -1315z" />
<glyph unicode="[" horiz-adv-x="614" d="M82 -244v-10h10h430h10v21h-10h-420v1460h420h10v20h-10h-430h-10v-10v-1481z" />
<glyph unicode="\" horiz-adv-x="737" d="M78 1352l4 -15l553 -1333l4 -6h20l-4 14l-553 1334l-4 6h-20z" />
<glyph unicode="]" horiz-adv-x="614" d="M82 -233v-21h10h430h10v10v1481v10h-10h-430h-10v-20h10h420v-1460h-420h-10z" />
<glyph unicode="^" horiz-adv-x="942" d="M74 666h24l2 6l373 649l369 -649l2 -6h24l-10 14l-377 666l-2 6h-12l-2 -6l-381 -666z" />
<glyph unicode="_" horiz-adv-x="1064" d="M-41 -233v-21h10h1127h10v21h-10h-1127h-10z" />
<glyph unicode="`" horiz-adv-x="450" d="M72 1352l12 -17l266 -329l4 -5h25l-12 17l-267 330l-4 4h-24z" />
<glyph unicode="a" horiz-adv-x="1146" d="M82 510q0 -250 115 -390t313 -140h5q183 0 449 199q10 -100 37 -173l5 -6h20l-4 14q-14 34 -26.5 94t-12.5 91l2 813l2 10h-24v-8v-126q-221 156 -453 156q-198 -2 -313 -142t-115 -392zM102 510q0 247 108 380.5t300 133.5q133 -1 250.5 -49t202.5 -113v-350v-309 q-132 -99 -242.5 -151t-210.5 -52h-6q-188 0 -294 132q-108 134 -108 378z" />
<glyph unicode="b" horiz-adv-x="1157" d="M154 0h20v10v163q90 -91 218.5 -142t242.5 -51h5q183 0 288 138q106 140 106 394q1 250 -106 391t-293 141q-108 -1 -217.5 -54t-243.5 -145v507v10h-20v-10v-521v-632v-4v-185v-10zM174 203v616q64 45 111.5 74.5t110 62.5t123 50t116.5 18q180 0 279.5 -133t99.5 -384 q0 -243 -99 -375q-100 -132 -280 -132h-8q-111 0 -237 52q-131 54 -216 151z" />
<glyph unicode="c" horiz-adv-x="983" d="M82 514q1 -261 115.5 -397.5t314.5 -136.5h5q123 0 225 44q104 44 176 103l-13 16q-70 -57 -170.5 -100t-222.5 -43h-6q-190 0 -296 130q-108 132 -108 384q1 253 108.5 381.5t301.5 128.5q126 -1 226.5 -43.5t166.5 -101.5l13 16q-67 60 -173 104.5t-233 44.5 q-200 -2 -315 -136.5t-115 -393.5z" />
<glyph unicode="d" horiz-adv-x="1130" d="M82 512q0 -251 112.5 -391.5t307.5 -140.5h5q176 0 437 198v-168v-10h21v10v185v317v356v4v480v10h-21v-10v-463q-88 64 -203 109.5t-239 45.5q-194 -2 -307 -141.5t-113 -390.5zM102 512q0 246 105.5 379t294.5 133q128 -1 243 -48.5t199 -111.5v-352v-309 q-265 -203 -442 -203h-6q-184 0 -288 132q-106 134 -106 380z" />
<glyph unicode="e" d="M82 512q1 -253 115.5 -392.5t314.5 -139.5h14q248 0 451 106l-8 16q-212 -102 -457 -102h-6q-186 0 -293 130q-109 132 -111 372h830h10v10v356v4l-4 5q-80 67 -192 117t-234 50q-199 -2 -314.5 -141.5t-115.5 -390.5zM103 522q4 240 111.5 371t297.5 131 q120 -1 226.5 -49t183.5 -111v-342h-819z" />
<glyph unicode="f" horiz-adv-x="573" d="M41 1004h10h158l2 -996l2 -10l18 4l-2 8v994h256h11v20h-11h-255q1 65 11.5 114t33.5 82t50 55t70.5 35t85 19.5t103.5 11.5h10v21h-10q-54 -4 -92.5 -9.5t-80.5 -16t-69.5 -26t-54.5 -40.5t-42.5 -58.5t-25 -80.5t-10.5 -107h-158h-10v-20z" />
<glyph unicode="g" horiz-adv-x="1079" d="M82 657q0 -260 215 -323q-58 -4 -91.5 -54t-33.5 -112q2 -96 58 -142q-76 -37 -76 -149q0 -52 15.5 -88t56 -66.5t119 -45.5t196.5 -15h8q141 0 275 34q139 34 186 71l4 4v116v4l-4 5q-48 40 -181.5 82t-285.5 42q-118 28 -199 28q-55 0 -93 -13q-58 36 -58 133 q2 60 30.5 102.5t81.5 42.5h10v16q67 -16 144 -16h4q79 0 183 41q105 41 177 92l4 3v208v209v4l-2 2q-1 1 -3 3.5t-3 3.5l4 4q7 6 35.5 35t43.5 43t40 28.5t45 14.5h10v20h-10q-23 0 -51 -16t-44.5 -30t-46.5 -44.5t-34 -34.5l-7 -7q-70 63 -168.5 107.5t-176.5 44.5 q-182 -2 -279.5 -99.5t-97.5 -287.5zM102 657q0 367 357 367q84 -1 185 -49.5t163 -112.5v-205v-196q-65 -47 -167.5 -87t-180.5 -40h-9q-170 0 -258 76q-90 77 -90 247zM174 -123q0 106 75 137q25 -14 56 -14h10v20h-10q-13 0 -24 3q26 5 59 5q78 0 199 -28q151 0 280 -40 t174 -77v-104q-41 -31 -177 -63.5t-275 -32.5h-18q-80 0 -139 8q-66 9 -106 24.5t-63.5 41.5t-32 54t-8.5 66z" />
<glyph unicode="h" horiz-adv-x="1136" d="M154 0h20v10v576v10v266q257 162 432 162q178 -1 262 -106t84 -320l2 -590l2 -10l19 4l-2 8v588v9q0 211 -91 323q-93 114 -276 114q-172 -2 -432 -158v466v10h-20v-10v-478v-278v-10v-576v-10z" />
<glyph unicode="i" horiz-adv-x="368" d="M133 1239h31h2h31v61h-31h-2h-31v-61zM154 0h20v10v1024v10h-20v-10v-1024v-10z" />
<glyph unicode="j" horiz-adv-x="399" d="M-135 -360l4 -21l10 2q52 11 93.5 25t84.5 38.5t72 56.5t47.5 80t18.5 107l2 1084l2 10l-23 2l-2 -10v-1086v-6q0 -53 -16 -96q-17 -44 -43.5 -73.5t-68 -52t-80.5 -35t-91 -23.5zM154 1239h30h2h31v61h-31h-2h-30v-61z" />
<glyph unicode="k" horiz-adv-x="985" d="M123 0h20v10v492h258l443 -498l4 -4h26l-14 16l-440 496l440 496l14 16h-26l-4 -4l-443 -498h-258v871v10h-20v-10v-871v-20v-492v-10z" />
<glyph unicode="l" horiz-adv-x="368" d="M154 0h20v10v1383v10h-20v-10v-1383v-10z" />
<glyph unicode="m" horiz-adv-x="1710" d="M154 0h20v10v613v10v229q9 4 78.5 37.5t109.5 50.5t101.5 35.5t105.5 18.5q270 -3 273 -371v-623v-10h20v10v623q-1 191 -78.5 291t-214.5 100q-42 -1 -102.5 -18.5t-98.5 -33t-111 -49.5t-83 -38v129v10h-20v-10v-140v-241v-10v-613v-10zM838 872l10 -18l8 6 q1 1 37.5 20.5t52 27t53 26t62 27.5t58 21t61.5 17t53 5q143 -2 218 -94t75 -277l2 -625l2 -10l18 4l-2 8v623q1 189 -82 290t-231 101q-20 0 -42 -3.5t-47 -11.5t-46.5 -14.5t-50 -19t-46 -20.5t-46.5 -22.5l-40 -20t-38 -20t-29 -15.5z" />
<glyph unicode="n" horiz-adv-x="1136" d="M154 0h20v10v578v10v264q257 162 434 162q175 -2 259.5 -105.5t84.5 -320.5l2 -590l2 -10l19 4l-2 8v588q1 222 -91.5 334t-273.5 112q-174 -2 -434 -158v128v10h-20v-10v-140v-276v-10v-578v-10z" />
<glyph unicode="o" horiz-adv-x="1146" d="M82 512q0 -251 126 -391.5t345 -140.5h6q215 0 339 139q126 141 126 393q1 250 -125.5 391t-345.5 141q-218 -2 -344.5 -141.5t-126.5 -390.5zM102 512q0 246 119 379t332 133q214 -2 332.5 -134t118.5 -382q0 -243 -118 -375q-120 -133 -333 -133h-6q-207 0 -325 132 q-120 134 -120 380z" />
<glyph unicode="p" horiz-adv-x="1169" d="M166 195v-523v-10h20v10v501q90 -91 218.5 -142t242.5 -51h5q182 0 288 139q107 141 107 393q1 249 -107 390.5t-293 141.5q-132 -1 -250.5 -58t-210.5 -138v166v10h-20v-10v-185v-630v-4zM186 203v618q54 50 117.5 92t157.5 76t186 35q179 0 279 -133.5t100 -383.5 q0 -242 -100 -374q-100 -133 -279 -133h-8q-111 0 -237 52q-131 55 -216 151z" />
<glyph unicode="q" horiz-adv-x="1187" d="M82 512q0 -251 115 -391.5t313 -140.5h5q185 0 448 198v-506v-10h20v10v523v317v356v6v140v10h-20v-10v-126q-221 156 -453 156q-198 -2 -313 -142t-115 -390zM102 512q0 245 108 378.5t300 133.5q133 -1 250.5 -49t202.5 -113v-350v-309q-267 -203 -453 -203h-6 q-187 0 -294 132q-108 135 -108 380z" />
<glyph unicode="r" horiz-adv-x="727" d="M154 0h20v10v492v10q0 78 11.5 140t30 107.5t52.5 81.5t67.5 59.5t86.5 43.5t99.5 32.5t115.5 27.5l10 2l-4 20l-10 -2q-80 -17 -131.5 -32t-111 -40.5t-97.5 -57.5t-70 -81.5t-49 -114.5v316v10h-20v-10v-502v-10v-492v-10z" />
<glyph unicode="s" horiz-adv-x="972" d="M37 98q102 -46 151 -65.5t117.5 -36t136.5 -16.5h9q175 0 285 75q114 77 114 207q1 54 -26.5 97t-81 73.5t-114.5 51t-143 38.5q-70 14 -114.5 25.5t-93 31t-75.5 42.5t-45 59t-18 82q1 121 83 191.5t220 70.5q81 -1 189.5 -41.5t159.5 -79.5l12 17q-54 40 -167 82 t-194 42q-144 -2 -233.5 -78t-89.5 -204q0 -43 12.5 -77.5t38.5 -59.5t54.5 -43.5t74.5 -33.5t84.5 -24.5t97.5 -21.5q65 -14 114 -28t95 -35t75 -45t46.5 -57.5t17.5 -76.5q0 -120 -105 -190q-106 -70 -282 -70h-7q-61 0 -127 16q-70 18 -110.5 35.5t-152.5 67.5z" />
<glyph unicode="t" horiz-adv-x="614" d="M41 1004h10h166v-492q1 -135 19 -227t58.5 -149t93 -87t132.5 -49l10 -2l5 20l-11 2q-62 15 -104.5 35.5t-79 56t-58 88t-33 129.5t-11.5 183l1 492h283h10v20h-10h-283l1 203l2 10l-23 2l-2 -10v-205h-166h-10v-20z" />
<glyph unicode="u" d="M123 369q2 -182 107 -285.5t305 -103.5h7q122 0 228 36q108 37 168 90l4 5v258v645v10h-20v-10v-645v-250q-56 -49 -160.5 -84t-226.5 -35h-4q-189 0 -288 97q-100 98 -100 272l2 643l2 10l-22 2l-2 -10v-645z" />
<glyph unicode="v" horiz-adv-x="983" d="M37 1024l4 -14l379 -1004l4 -6h6h41h43h6l4 6l377 1004l4 14h-20l-4 -6l-373 -998h-37h-35l-375 998l-4 6h-20z" />
<glyph unicode="w" horiz-adv-x="1433" d="M39 1024l2 -12l266 -1004l2 -8h8h58h8l2 8l281 1016h30h31l283 -1016l2 -8h8h55h8l2 8l267 1004l2 12h-21l-2 -8l-264 -996h-39l-283 1016l-2 8h-8h-39h-39h-8l-2 -8l-280 -1016h-41l-265 996l-2 8h-20z" />
<glyph unicode="x" horiz-adv-x="1024" d="M72 0h24l4 4l392 521l391 -521l4 -4h24l-12 16l-395 526l350 466l12 16h-24l-4 -4l-346 -461l-347 461l-4 4h-24l12 -16l350 -466l-395 -526z" />
<glyph unicode="y" horiz-adv-x="942" d="M37 1024l4 -12l307 -998l2 -6l6 -2l122 -24q-69 -164 -149.5 -237.5t-187.5 -102.5l-8 -2v-23l12 4q110 29 197 108.5t159 249.5l1 1l2 6l356 1024l4 14h-22l-2 -6l-354 -1016l-119 23l-306 991l-2 8h-22z" />
<glyph unicode="z" horiz-adv-x="983" d="M72 0h10h10h799h10v20h-10h-778l696 988l12 16h-10h-10h-664h-10v-20h10h643l-696 -988z" />
<glyph unicode="{" horiz-adv-x="655" d="M82 565q185 -144 188 -399q1 -76 16 -147t44 -133t79 -100.5t113 -39.5h10v21h-10q-58 1 -103 37t-72 94t-41 126.5t-15 141.5q-3 262 -182 403q78 66 129.5 173t52.5 239q1 70 14.5 136t40 125t72 94.5t104.5 35.5h10v21h-10q-64 0 -114.5 -38.5t-79 -101t-43 -131.5 t-15.5 -141q-1 -130 -51.5 -232.5t-132.5 -170.5l-4 -5v-8z" />
<glyph unicode="|" horiz-adv-x="491" d="M164 -424v-10h20v10v1806v11h-20v-11v-1806z" />
<glyph unicode="}" horiz-adv-x="614" d="M82 -233v-21h10q42 0 75 13t55.5 33.5t39.5 54t26.5 66.5t15.5 79.5t8 84.5t3 89q9 235 213 395l4 4v10q-82 60 -146.5 169.5t-70.5 236.5q-1 62 -6 112t-19.5 108.5t-37.5 98t-64 66t-96 27.5h-10v-21h10q42 0 75 -16.5t54 -47t36 -65.5t22.5 -82.5t11 -88.5t4.5 -91 q6 -133 71 -247t140 -165q-36 -29 -68 -63t-65 -83.5t-54 -116t-24 -140.5q-1 -59 -4 -102t-10.5 -92.5t-22 -83.5t-35.5 -63t-54.5 -43.5t-76.5 -14.5h-10z" />
<glyph unicode="~" d="M82 666h20v10q2 78 57.5 142t166.5 67q44 -1 92.5 -24t92.5 -55t87.5 -64t92 -54t91.5 -22q112 -1 177 70.5t65 160.5v10h-20v-10q0 -82 -60 -146.5t-162 -64.5q-39 -1 -84.5 21t-89 54t-88 64.5t-96 55.5t-98.5 24q-62 -1 -110.5 -24t-76.5 -58t-42 -72.5t-15 -74.5v-10 z" />
<glyph unicode="&#xa1;" horiz-adv-x="491" d="M215 993h31h2h31v62h-31h-2h-31v-62zM236 -287v-10h20v10v928v10h-20v-10v-928z" />
<glyph unicode="&#xa8;" horiz-adv-x="532" d="M61 1362h62v31v2v30h-62v-30v-2v-31zM410 1362h61v31v2v30h-61v-30v-2v-31z" />
<glyph unicode="&#xab;" horiz-adv-x="1064" d="M160 537l6 -7l399 -444l4 -4h27l-14 16l-394 439l394 438l14 16h-27l-4 -4l-399 -444zM559 537l6 -7l400 -444l4 -4h26l-14 16l-393 439l393 438l14 16h-26l-4 -4l-400 -444z" />
<glyph unicode="&#xaf;" horiz-adv-x="1024" d="M-72 1577h1168v20h-1168v-20z" />
<glyph unicode="&#xb4;" horiz-adv-x="348" d="M33 1116h24l2 4l144 215l10 17h-25l-2 -4l-143 -215z" />
<glyph unicode="&#xb8;" horiz-adv-x="575" d="M92 -373h195q86 -1 146.5 41t60.5 101q1 51 -63 76.5t-161 25.5q27 72 27 113h-21q0 -15 -3.5 -33t-7.5 -30t-10.5 -31t-8.5 -25l-4 -15h4q227 0 227 -81q1 -51 -52.5 -86t-133.5 -35l-193 -2z" />
<glyph unicode="&#xbb;" horiz-adv-x="1064" d="M70 82h26l4 4l400 444l6 7l-6 6l-400 444l-4 4h-26l14 -16l393 -438l-393 -439zM469 82h27l4 4l399 444l6 7l-6 6l-399 444l-4 4h-27l14 -16l394 -438l-394 -439z" />
<glyph unicode="&#xbf;" horiz-adv-x="1064" d="M82 0q1 -103 62 -181.5t157.5 -117.5t210.5 -39q115 -1 212 38t157.5 117.5t60.5 182.5v10h-20v-10q0 -98 -57 -171.5t-149 -109.5t-204 -36q-111 -1 -203.5 36t-149.5 111t-57 170q0 26 7.5 51t14.5 43t27.5 42.5t30 35.5t40 36.5t39 31.5t44.5 34q41 32 64.5 52t56 55 t50.5 65.5t31 73.5t13 90l2 84l2 11l-22 2l-2 -11v-86q1 -45 -12 -86t-28 -68.5t-49 -62t-54 -51t-64 -51.5q-98 -75 -129 -106q-82 -85 -82 -185zM481 993h31h2h31v62h-31h-2h-31v-62z" />
<glyph unicode="&#xc0;" horiz-adv-x="1228" d="M37 0h20l4 6l122 326h1h820h1l121 -326l4 -6h21l-4 14l-500 1332l-4 6h-6h-43h-43h-6l-4 -6l-500 -1332zM191 352l366 979h37h37l366 -979h-806zM477 1682l17 -16l184 -189l4 -4h29l-17 17l-184 188l-4 4h-29z" />
<glyph unicode="&#xc1;" horiz-adv-x="1228" d="M37 0h20l4 6l122 326h1h820h1l121 -326l4 -6h21l-4 14l-500 1332l-4 6h-6h-43h-43h-6l-4 -6l-500 -1332zM191 352l366 979h37h37l366 -979h-806zM477 1473h29l4 4l184 189l17 16h-29l-4 -4l-184 -188z" />
<glyph unicode="&#xc2;" horiz-adv-x="1228" d="M37 0h20l4 6l122 326h1h820h1l121 -326l4 -6h21l-4 14l-500 1332l-4 6h-6h-43h-43h-6l-4 -6l-500 -1332zM191 352l366 979h37h37l366 -979h-806zM393 1473h31l2 2l168 144l168 -144l2 -2h31l-21 19l-174 149l-6 6l-6 -6l-174 -149z" />
<glyph unicode="&#xc3;" horiz-adv-x="1228" d="M37 0h20l4 6l122 326h1h820h1l121 -326l4 -6h21l-4 14l-500 1332l-4 6h-6h-43h-43h-6l-4 -6l-500 -1332zM191 352l366 979h37h37l366 -979h-806zM348 1484h21q0 54 31 90.5t77 36.5q27 -1 48.5 -11.5t31 -20t29.5 -32.5q27 -35 55.5 -54.5t69.5 -19.5q53 -1 91 43.5 t38 104.5h-21q0 -53 -31.5 -90t-76.5 -37q-35 -1 -59 15.5t-50 49.5q-21 23 -32.5 34.5t-37.5 24.5t-55 13q-52 -2 -90.5 -45t-38.5 -102z" />
<glyph unicode="&#xc4;" horiz-adv-x="1228" d="M37 0h20l4 6l122 326h1h820h1l121 -326l4 -6h21l-4 14l-500 1332l-4 6h-6h-43h-43h-6l-4 -6l-500 -1332zM191 352l366 979h37h37l366 -979h-806zM389 1473h62v31v2v31h-62v-31v-2v-31zM737 1473h62v31v2v31h-62v-31v-2v-31z" />
<glyph unicode="&#xc5;" horiz-adv-x="1228" d="M37 0h20l4 6l122 326h1h820h1l121 -326l4 -6h21l-4 14l-500 1332l-4 6h-6h-43h-43h-6l-4 -6l-500 -1332zM191 352l366 979h37h37l366 -979h-806zM420 1615q0 -142 174 -142q174 -3 174 142q2 68 -42 104.5t-132 36.5q-174 -3 -174 -141zM440 1615q0 64 36 92.5t118 28.5 q84 -1 118.5 -29t34.5 -92q2 -65 -34 -93t-119 -28q-81 -1 -117.5 28t-36.5 93z" />
<glyph unicode="&#xc6;" horiz-adv-x="1718" d="M37 0h20l4 6l482 1325h385v-645v-20v-314h-680h-10v-20h10h680v-322v-10h10h688h10v20h-10h-678v312v20v314h492h10v20h-10h-492v645h678h10v21h-10h-678h-20h-391h-7l-4 -6l-485 -1332z" />
<glyph unicode="&#xc7;" horiz-adv-x="1210" d="M82 676q1 -343 143.5 -520t401.5 -177h-20q0 -19 -4.5 -39t-15 -48t-11.5 -31l-4 -15h4q228 0 228 -82q1 -51 -53 -85.5t-134 -34.5l-192 -2l-2 -19h194q86 -1 146.5 40.5t60.5 100.5q1 51 -62.5 77t-160.5 26q27 72 27 112q160 -1 299.5 47.5t237.5 110.5l-12 17 q-89 -59 -228.5 -106.5t-297.5 -47.5q-251 -2 -388 169.5t-137 506.5q1 334 137 505t388 171q111 -1 220.5 -36.5t179 -77t124.5 -89.5l12 16q-91 79 -233 143t-303 64q-258 -2 -401.5 -179t-143.5 -517z" />
<glyph unicode="&#xc8;" horiz-adv-x="1230" d="M164 0h10h924h10v20h-10h-914v646h695h10v20h-10h-695v645h914h10v21h-10h-924h-10v-11v-655v-20v-656v-10zM519 1682l17 -16l184 -189l4 -4h29l-17 17l-184 188l-4 4h-29z" />
<glyph unicode="&#xc9;" horiz-adv-x="1230" d="M164 0h10h924h10v20h-10h-914v646h695h10v20h-10h-695v645h914h10v21h-10h-924h-10v-11v-655v-20v-656v-10zM519 1473h29l4 4l184 189l17 16h-29l-4 -4l-184 -188z" />
<glyph unicode="&#xca;" horiz-adv-x="1230" d="M164 0h10h924h10v20h-10h-914v646h695h10v20h-10h-695v645h914h10v21h-10h-924h-10v-11v-655v-20v-656v-10zM435 1473h31l2 2l168 144l168 -144l2 -2h31l-21 19l-174 149l-6 6l-6 -6l-174 -149z" />
<glyph unicode="&#xcb;" horiz-adv-x="1230" d="M164 0h10h924h10v20h-10h-914v646h695h10v20h-10h-695v645h914h10v21h-10h-924h-10v-11v-655v-20v-656v-10zM431 1473h62v31v2v31h-62v-31v-2v-31zM779 1473h62v31v2v31h-62v-31v-2v-31z" />
<glyph unicode="&#xcc;" horiz-adv-x="354" d="M49 1682l17 -16l184 -189l4 -4h29l-17 17l-184 188l-4 4h-29zM156 0h20v10v1331v11h-20v-11v-1331v-10z" />
<glyph unicode="&#xcd;" horiz-adv-x="354" d="M49 1473h29l4 4l184 189l17 16h-29l-4 -4l-184 -188zM156 0h20v10v1331v11h-20v-11v-1331v-10z" />
<glyph unicode="&#xce;" horiz-adv-x="354" d="M-35 1473h31l2 2l168 144l168 -144l2 -2h31l-21 19l-174 149l-6 6l-6 -6l-174 -149zM156 0h20v10v1331v11h-20v-11v-1331v-10z" />
<glyph unicode="&#xcf;" horiz-adv-x="354" d="M-39 1473h62v31v2v31h-62v-31v-2v-31zM156 0h20v10v1331v11h-20v-11v-1331v-10zM309 1473h62v31v2v31h-62v-31v-2v-31z" />
<glyph unicode="&#xd0;" horiz-adv-x="1339" d="M6 666h10h149l-1 -656v-10h10h518q134 -1 229.5 34t163 114t100 209.5t32.5 318.5q1 186 -32 316.5t-100.5 209.5t-163 114.5t-227.5 35.5l-518 -2h-10v-11l-1 -653h-149h-10v-20zM184 20v646h406h10v20h-10h-406v645h510q131 -1 222 -34t155 -109t94.5 -202t30.5 -310 q1 -185 -29.5 -312t-95.5 -203t-156.5 -108.5t-222.5 -32.5h-508z" />
<glyph unicode="&#xd1;" horiz-adv-x="1349" d="M164 0h20v10v1321h49l828 -1327l2 -4h6h66h10v10v1331v11h-21v-11v-1321h-49l-827 1328l-2 4h-6h-66h-10v-11v-1331v-10zM409 1484h20q0 54 31.5 90.5t77.5 36.5q27 -1 48.5 -12t30 -19.5t29.5 -32.5q27 -35 55.5 -54.5t69.5 -19.5q53 -1 91 43.5t38 104.5h-20 q0 -53 -31.5 -90t-77.5 -37q-35 -1 -58.5 15t-49.5 50q-21 23 -32.5 34.5t-37.5 24.5t-55 13q-52 -2 -90.5 -45t-38.5 -102z" />
<glyph unicode="&#xd2;" horiz-adv-x="1435" d="M82 676q0 -345 156.5 -520.5t459.5 -175.5q303 -2 459 174.5t156 521.5q1 343 -156 519.5t-459 176.5q-302 -2 -459 -177t-157 -519zM102 676q0 676 596 676q594 -3 594 -676q3 -676 -594 -676q-296 -2 -446 167.5t-150 508.5zM581 1706l16 -16l184 -188l4 -5h29l-16 17 l-185 188l-4 4h-28z" />
<glyph unicode="&#xd3;" horiz-adv-x="1435" d="M82 676q0 -345 156.5 -520.5t459.5 -175.5q303 -2 459 174.5t156 521.5q1 343 -156 519.5t-459 176.5q-302 -2 -459 -177t-157 -519zM102 676q0 676 596 676q594 -3 594 -676q3 -676 -594 -676q-296 -2 -446 167.5t-150 508.5zM581 1497h28l4 5l185 188l16 16h-29l-4 -4 l-184 -188z" />
<glyph unicode="&#xd4;" horiz-adv-x="1435" d="M82 676q0 -345 156.5 -520.5t459.5 -175.5q303 -2 459 174.5t156 521.5q1 343 -156 519.5t-459 176.5q-302 -2 -459 -177t-157 -519zM102 676q0 676 596 676q594 -3 594 -676q3 -676 -594 -676q-296 -2 -446 167.5t-150 508.5zM497 1498h30l2 2l168 143l168 -143l2 -2h31 l-20 18l-175 149l-6 7l-6 -7l-174 -149z" />
<glyph unicode="&#xd5;" horiz-adv-x="1435" d="M82 676q0 -345 156.5 -520.5t459.5 -175.5q303 -2 459 174.5t156 521.5q1 343 -156 519.5t-459 176.5q-302 -2 -459 -177t-157 -519zM102 676q0 676 596 676q594 -3 594 -676q3 -676 -594 -676q-296 -2 -446 167.5t-150 508.5zM452 1508h20q0 54 31.5 90.5t77.5 36.5 q27 -1 48.5 -12t30 -19.5t29.5 -32.5q57 -73 125 -73q53 -1 91 43t38 104h-20q0 -53 -31.5 -90t-77.5 -37q-35 -1 -58 15.5t-50 50.5q-20 23 -32 34.5t-38 24t-55 12.5q-52 -2 -90.5 -45t-38.5 -102z" />
<glyph unicode="&#xd6;" horiz-adv-x="1435" d="M82 676q0 -345 156.5 -520.5t459.5 -175.5q303 -2 459 174.5t156 521.5q1 343 -156 519.5t-459 176.5q-302 -2 -459 -177t-157 -519zM102 676q0 676 596 676q594 -3 594 -676q3 -676 -594 -676q-296 -2 -446 167.5t-150 508.5zM493 1498h61v30v2v31h-61v-31v-2v-30z M841 1498h61v30v2v31h-61v-31v-2v-30z" />
<glyph unicode="&#xd8;" horiz-adv-x="1435" d="M82 676q0 -330 143 -505l-131 -144l-6 -7l14 -14l9 8l128 141q156 -175 459 -175q303 -2 459 174.5t156 521.5q1 329 -143 505l130 144l7 6l-15 15l-8 -9l-128 -140q-157 175 -458 175q-302 -2 -459 -177t-157 -519zM102 676q0 676 596 676q298 -2 446 -169l-906 -998 q-136 169 -136 491zM251 169l906 998q135 -168 135 -491q3 -676 -594 -676q-297 -2 -447 169z" />
<glyph unicode="&#xd9;" horiz-adv-x="1392" d="M164 508q1 -130 39.5 -231.5t107 -166t161 -97.5t204.5 -33q161 -1 296.5 55t213.5 133l2 4v336v833v11h-21v-11v-833v-328q-72 -72 -203 -126t-288 -54q-108 -1 -197.5 30.5t-155.5 93.5t-102.5 160t-36.5 224l2 831l2 11l-22 2l-2 -11v-833zM559 1684l16 -16l185 -189 l4 -4h29l-17 17l-184 188l-4 4h-29z" />
<glyph unicode="&#xda;" horiz-adv-x="1392" d="M164 508q1 -130 39.5 -231.5t107 -166t161 -97.5t204.5 -33q161 -1 296.5 55t213.5 133l2 4v336v833v11h-21v-11v-833v-328q-72 -72 -203 -126t-288 -54q-108 -1 -197.5 30.5t-155.5 93.5t-102.5 160t-36.5 224l2 831l2 11l-22 2l-2 -11v-833zM559 1475h29l4 4l184 189 l17 16h-29l-4 -4l-185 -188z" />
<glyph unicode="&#xdb;" horiz-adv-x="1392" d="M164 508q1 -130 39.5 -231.5t107 -166t161 -97.5t204.5 -33q161 -1 296.5 55t213.5 133l2 4v336v833v11h-21v-11v-833v-328q-72 -72 -203 -126t-288 -54q-108 -1 -197.5 30.5t-155.5 93.5t-102.5 160t-36.5 224l2 831l2 11l-22 2l-2 -11v-833zM475 1475h31l2 2l168 144 l168 -144l2 -2h31l-21 19l-174 149l-6 6l-6 -6l-174 -149z" />
<glyph unicode="&#xdc;" horiz-adv-x="1392" d="M164 508q1 -130 39.5 -231.5t107 -166t161 -97.5t204.5 -33q161 -1 296.5 55t213.5 133l2 4v336v833v11h-21v-11v-833v-328q-72 -72 -203 -126t-288 -54q-108 -1 -197.5 30.5t-155.5 93.5t-102.5 160t-36.5 224l2 831l2 11l-22 2l-2 -11v-833zM471 1475h61v31v2v31h-61 v-31v-2v-31zM819 1475h62v31v2v31h-62v-31v-2v-31z" />
<glyph unicode="&#xdd;" horiz-adv-x="1228" d="M74 1352l10 -17l504 -871v-454v-10h20v10v456l496 871l10 15h-24l-3 -6l-489 -859l-498 861l-2 4h-24zM477 1473h29l4 4l184 189l17 16h-29l-4 -4l-184 -188z" />
<glyph unicode="&#xde;" horiz-adv-x="1267" d="M164 0h20v10v281h557q201 -1 302.5 96.5t101.5 288.5q2 189 -100.5 287t-303.5 98q-93 -1 -278.5 -1t-278.5 -1v282v11h-20v-11v-1331v-10zM184 309v731h557q196 -1 289.5 -90t93.5 -274q1 -186 -93.5 -275.5t-289.5 -89.5q-93 -1 -278.5 -1t-278.5 -1z" />
<glyph unicode="&#xdf;" horiz-adv-x="1218" d="M154 1096l2 -1088l2 -10l18 4l-2 8v1086q2 124 96 205t262 81q53 0 100.5 -14.5t81 -37.5t58.5 -52.5t36 -60t9.5 -61t-16.5 -54.5q-21 -36 -74 -114.5t-83 -133t-30 -88.5q0 -57 24.5 -104t63.5 -79t86.5 -60t95.5 -52.5t89 -50.5t69 -62t33 -79q9 -80 -14 -141.5 t-68 -96.5t-105 -52t-127 -13t-132 26l-11 2l-6 -18l9 -4q68 -22 138 -25.5t134.5 15t113 56t73.5 103.5t16 152q-6 46 -34.5 84.5t-69.5 66t-89.5 53.5t-95.5 52.5t-85.5 56.5t-62.5 73.5t-24 96.5q1 29 30 81t80 129t72 114q18 34 19.5 75t-23 83t-61 76.5t-95 56.5 t-125.5 22q-175 -1 -276.5 -88.5t-101.5 -218.5z" />
<glyph unicode="&#xe0;" horiz-adv-x="1146" d="M82 510q0 -250 115 -390t313 -140q184 -3 454 199q10 -100 37 -173l5 -6h20l-4 14q-14 34 -26.5 94t-12.5 91l2 813l2 10h-24v-8v-126q-221 156 -453 156q-198 -2 -313 -142t-115 -392zM102 510q0 247 108 380.5t300 133.5q133 -1 250.5 -49t202.5 -113v-350v-309 q-132 -99 -242.5 -151t-210.5 -52q-191 -2 -299.5 132t-108.5 378zM437 1395l17 -17l184 -188l4 -4h29l-17 16l-184 189l-4 4h-29z" />
<glyph unicode="&#xe1;" horiz-adv-x="1146" d="M82 510q0 -250 115 -390t313 -140q184 -3 454 199q10 -100 37 -173l5 -6h20l-4 14q-14 34 -26.5 94t-12.5 91l2 813l2 10h-24v-8v-126q-221 156 -453 156q-198 -2 -313 -142t-115 -392zM102 510q0 247 108 380.5t300 133.5q133 -1 250.5 -49t202.5 -113v-350v-309 q-132 -99 -242.5 -151t-210.5 -52q-191 -2 -299.5 132t-108.5 378zM437 1186h29l4 4l184 188l17 17h-29l-4 -4l-184 -189z" />
<glyph unicode="&#xe2;" horiz-adv-x="1146" d="M82 510q0 -250 115 -390t313 -140q184 -3 454 199q10 -100 37 -173l5 -6h20l-4 14q-14 34 -26.5 94t-12.5 91l2 813l2 10h-24v-8v-126q-221 156 -453 156q-198 -2 -313 -142t-115 -392zM102 510q0 247 108 380.5t300 133.5q133 -1 250.5 -49t202.5 -113v-350v-309 q-132 -99 -242.5 -151t-210.5 -52q-191 -2 -299.5 132t-108.5 378zM353 1186h31l2 2l168 143l168 -143l2 -2h31l-21 18l-174 150l-6 6l-6 -6l-174 -150z" />
<glyph unicode="&#xe3;" horiz-adv-x="1146" d="M82 510q0 -250 115 -390t313 -140q184 -3 454 199q10 -100 37 -173l5 -6h20l-4 14q-14 34 -26.5 94t-12.5 91l2 813l2 10h-24v-8v-126q-221 156 -453 156q-198 -2 -313 -142t-115 -392zM102 510q0 247 108 380.5t300 133.5q133 -1 250.5 -49t202.5 -113v-350v-309 q-132 -99 -242.5 -151t-210.5 -52q-191 -2 -299.5 132t-108.5 378zM308 1196h21q0 54 31 90.5t77 36.5q27 -1 48.5 -11.5t31 -20t29.5 -31.5q27 -35 55.5 -54.5t69.5 -19.5q53 -1 91 43t38 104h-21q0 -53 -31.5 -90t-76.5 -37q-35 -1 -59 15.5t-50 50.5q-21 23 -32.5 34.5 t-37.5 24.5t-55 13q-52 -2 -90.5 -45.5t-38.5 -102.5z" />
<glyph unicode="&#xe4;" horiz-adv-x="1146" d="M82 510q0 -250 115 -390t313 -140q184 -3 454 199q10 -100 37 -173l5 -6h20l-4 14q-14 34 -26.5 94t-12.5 91l2 813l2 10h-24v-8v-126q-221 156 -453 156q-198 -2 -313 -142t-115 -392zM102 510q0 247 108 380.5t300 133.5q133 -1 250.5 -49t202.5 -113v-350v-309 q-132 -99 -242.5 -151t-210.5 -52q-191 -2 -299.5 132t-108.5 378zM349 1186h62v31v2v30h-62v-30v-2v-31zM697 1186h62v31v2v30h-62v-30v-2v-31z" />
<glyph unicode="&#xe5;" horiz-adv-x="1146" d="M82 510q0 -250 115 -390t313 -140q184 -3 454 199q10 -100 37 -173l5 -6h20l-4 14q-14 34 -26.5 94t-12.5 91l2 813l2 10h-24v-8v-126q-221 156 -453 156q-198 -2 -313 -142t-115 -392zM102 510q0 247 108 380.5t300 133.5q133 -1 250.5 -49t202.5 -113v-350v-309 q-132 -99 -242.5 -151t-210.5 -52q-191 -2 -299.5 132t-108.5 378zM380 1327q0 -141 174 -141q174 -3 174 141q2 68 -42 104.5t-132 36.5q-174 -3 -174 -141zM400 1327q0 64 36 92.5t118 28.5q84 -1 119 -29t35 -92q1 -64 -35 -92.5t-119 -28.5q-81 -1 -117.5 28t-36.5 93z " />
<glyph unicode="&#xe6;" horiz-adv-x="1802" d="M123 176l2 -2q72 -79 168 -136.5t203 -57.5q331 4 385 379q55 -375 385 -379q113 0 189.5 26t176.5 82l-8 16q-97 -55 -172 -79.5t-186 -24.5q-371 4 -375 502h737h10v10v334v4l-2 2q-70 78 -166.5 135t-203.5 57q-330 -4 -385 -375q-54 371 -385 375q-78 0 -146.5 -16 t-110 -35t-110.5 -57l8 -16q100 55 174.5 79.5t184.5 24.5q370 -4 374 -502h-737h-10v-10v-332v-4zM143 184v318h727q0 -142 -29 -242.5t-82.5 -155.5t-117 -79t-145.5 -25q-102 0 -194 55t-159 129zM891 522q6 498 375 502q102 0 194.5 -55t157.5 -127v-320h-727z" />
<glyph unicode="&#xe7;" horiz-adv-x="983" d="M82 514q1 -261 115.5 -398t314.5 -137q125 -1 229.5 44t176.5 104l-13 16q-70 -57 -170.5 -100t-222.5 -43q-193 -2 -301.5 129.5t-108.5 384.5q1 253 108.5 381.5t301.5 128.5q126 -1 226.5 -43.5t166.5 -101.5l13 16q-67 60 -173 104.5t-233 44.5q-200 -2 -315 -136.5 t-115 -393.5zM299 -377h195q86 -1 146 40.5t60 100.5q1 51 -62.5 77t-160.5 26q27 72 27 112h-21q0 -15 -3.5 -33t-7.5 -30t-10.5 -30.5t-8.5 -24.5l-5 -15h5q227 0 227 -82q1 -51 -52.5 -85.5t-133.5 -34.5l-193 -2z" />
<glyph unicode="&#xe8;" d="M82 512q1 -253 115.5 -392.5t314.5 -139.5q256 -3 465 106l-8 16q-212 -102 -457 -102q-190 -2 -299 130t-111 372h830h10v10v356v4l-4 5q-80 67 -192 117t-234 50q-199 -2 -314.5 -141.5t-115.5 -390.5zM103 522q4 240 111.5 371t297.5 131q120 -1 226.5 -49t183.5 -111 v-342h-819zM413 1395l16 -17l184 -188l4 -4h29l-16 16l-185 189l-4 4h-28z" />
<glyph unicode="&#xe9;" d="M82 512q1 -253 115.5 -392.5t314.5 -139.5q256 -3 465 106l-8 16q-212 -102 -457 -102q-190 -2 -299 130t-111 372h830h10v10v356v4l-4 5q-80 67 -192 117t-234 50q-199 -2 -314.5 -141.5t-115.5 -390.5zM103 522q4 240 111.5 371t297.5 131q120 -1 226.5 -49t183.5 -111 v-342h-819zM413 1186h28l4 4l185 188l16 17h-29l-4 -4l-184 -189z" />
<glyph unicode="&#xea;" d="M82 512q1 -253 115.5 -392.5t314.5 -139.5q256 -3 465 106l-8 16q-212 -102 -457 -102q-190 -2 -299 130t-111 372h830h10v10v356v4l-4 5q-80 67 -192 117t-234 50q-199 -2 -314.5 -141.5t-115.5 -390.5zM103 522q4 240 111.5 371t297.5 131q120 -1 226.5 -49t183.5 -111 v-342h-819zM329 1186h30l2 2l168 143l168 -143l2 -2h31l-20 18l-174 150l-7 6l-6 -6l-174 -150z" />
<glyph unicode="&#xeb;" d="M82 512q1 -253 115.5 -392.5t314.5 -139.5q256 -3 465 106l-8 16q-212 -102 -457 -102q-190 -2 -299 130t-111 372h830h10v10v356v4l-4 5q-80 67 -192 117t-234 50q-199 -2 -314.5 -141.5t-115.5 -390.5zM103 522q4 240 111.5 371t297.5 131q120 -1 226.5 -49t183.5 -111 v-342h-819zM325 1186h61v31v2v30h-61v-30v-2v-31zM673 1186h61v31v2v30h-61v-30v-2v-31z" />
<glyph unicode="&#xec;" horiz-adv-x="393" d="M80 1411l16 -17l185 -188l4 -4h28l-16 16l-184 189l-4 4h-29zM186 0h21v10v1041v10h-21v-10v-1041v-10z" />
<glyph unicode="&#xed;" horiz-adv-x="393" d="M80 1202h29l4 4l184 188l16 17h-28l-4 -4l-185 -189zM186 0h21v10v1041v10h-21v-10v-1041v-10z" />
<glyph unicode="&#xee;" horiz-adv-x="393" d="M-4 1202h31l2 2l168 143l168 -143l2 -2h30l-20 18l-174 150l-6 6l-7 -6l-174 -150zM186 0h21v10v1041v10h-21v-10v-1041v-10z" />
<glyph unicode="&#xef;" horiz-adv-x="393" d="M-8 1202h61v31v2v30h-61v-30v-2v-31zM186 0h21v10v1041v10h-21v-10v-1041v-10zM340 1202h61v31v2v30h-61v-30v-2v-31z" />
<glyph unicode="&#xf0;" d="M102 471q1 -224 116.5 -347.5t313.5 -123.5q197 -2 312 120.5t118 340.5h1v10q0 143 -22 259.5t-63 199.5t-87 140t-105 105l229 85l9 4l-6 18l-11 -2l-241 -89q-33 25 -68 47t-78.5 47t-58.5 34l-10 6l-11 -18l9 -4q16 -10 56.5 -33.5t74 -44.5t63.5 -43l-289 -107 l-8 -4l6 -18l10 2l302 111q215 -168 263 -481q-46 124 -149 190.5t-246 66.5q-198 -2 -314 -126t-116 -345zM123 471q1 216 109 333.5t300 117.5q194 -2 302 -118.5t108 -332.5v-10q-1 -212 -110 -326.5t-300 -114.5q-191 -2 -300 116.5t-109 334.5z" />
<glyph unicode="&#xf1;" horiz-adv-x="1136" d="M154 0h20v10v578v10v264q257 162 434 162q175 -2 259.5 -105.5t84.5 -320.5l2 -590l2 -10l19 4l-2 8v588q1 222 -91.5 334t-273.5 112q-174 -2 -434 -158v128v10h-20v-10v-140v-276v-10v-578v-10zM339 1194h20q0 54 31.5 90.5t77.5 36.5q27 -1 48.5 -11.5t31 -20 t29.5 -31.5q27 -35 55 -54.5t69 -19.5q53 -1 91 43.5t38 104.5h-20q0 -53 -31.5 -90t-77.5 -37q-35 -1 -58.5 15t-49.5 50q-21 23 -32.5 34.5t-37.5 24.5t-55 13q-52 -2 -90.5 -45.5t-38.5 -102.5z" />
<glyph unicode="&#xf2;" horiz-adv-x="1146" d="M82 512q0 -251 126 -391.5t345 -140.5q219 -2 345 139t126 393q1 250 -125.5 391t-345.5 141q-218 -2 -344.5 -141.5t-126.5 -390.5zM102 512q0 246 119 379t332 133q214 -2 332.5 -134t118.5 -378q1 -246 -118.5 -379t-332.5 -133q-211 -2 -331 132.5t-120 379.5z M436 1395l17 -17l184 -188l4 -4h29l-17 16l-184 189l-4 4h-29z" />
<glyph unicode="&#xf3;" horiz-adv-x="1146" d="M82 512q0 -251 126 -391.5t345 -140.5q219 -2 345 139t126 393q1 250 -125.5 391t-345.5 141q-218 -2 -344.5 -141.5t-126.5 -390.5zM102 512q0 246 119 379t332 133q214 -2 332.5 -134t118.5 -378q1 -246 -118.5 -379t-332.5 -133q-211 -2 -331 132.5t-120 379.5z M436 1186h29l4 4l184 188l17 17h-29l-4 -4l-184 -189z" />
<glyph unicode="&#xf4;" horiz-adv-x="1146" d="M82 512q0 -251 126 -391.5t345 -140.5q219 -2 345 139t126 393q1 250 -125.5 391t-345.5 141q-218 -2 -344.5 -141.5t-126.5 -390.5zM102 512q0 246 119 379t332 133q214 -2 332.5 -134t118.5 -378q1 -246 -118.5 -379t-332.5 -133q-211 -2 -331 132.5t-120 379.5z M352 1186h31l2 2l168 143l168 -143l2 -2h31l-21 18l-174 150l-6 6l-6 -6l-174 -150z" />
<glyph unicode="&#xf5;" horiz-adv-x="1146" d="M82 512q0 -251 126 -391.5t345 -140.5q219 -2 345 139t126 393q1 250 -125.5 391t-345.5 141q-218 -2 -344.5 -141.5t-126.5 -390.5zM102 512q0 246 119 379t332 133q214 -2 332.5 -134t118.5 -378q1 -246 -118.5 -379t-332.5 -133q-211 -2 -331 132.5t-120 379.5z M307 1196h21q0 54 31 90.5t77 36.5q27 -1 48.5 -11.5t31 -20t29.5 -31.5q27 -35 55.5 -54.5t69.5 -19.5q53 -1 91 43t38 104h-21q0 -53 -31.5 -90t-76.5 -37q-35 -1 -59 15.5t-50 50.5q-21 23 -32.5 34.5t-37.5 24.5t-55 13q-52 -2 -90.5 -45.5t-38.5 -102.5z" />
<glyph unicode="&#xf6;" horiz-adv-x="1146" d="M82 512q0 -251 126 -391.5t345 -140.5q219 -2 345 139t126 393q1 250 -125.5 391t-345.5 141q-218 -2 -344.5 -141.5t-126.5 -390.5zM102 512q0 246 119 379t332 133q214 -2 332.5 -134t118.5 -378q1 -246 -118.5 -379t-332.5 -133q-211 -2 -331 132.5t-120 379.5z M348 1186h62v31v2v30h-62v-30v-2v-31zM696 1186h62v31v2v30h-62v-30v-2v-31z" />
<glyph unicode="&#xf8;" horiz-adv-x="1146" d="M78 10l14 -14l8 8l108 117q126 -141 345 -141q219 -2 345 139t126 393q1 236 -112 376l110 120l6 6l-14 14l-8 -8l-108 -117q-126 141 -345 141q-218 -2 -344.5 -141.5t-126.5 -390.5q0 -235 112 -375l-110 -121zM102 512q0 246 119 379t332 133q216 -2 333 -135 l-679 -738q-105 133 -105 361zM220 135l679 739q105 -133 105 -362q1 -246 -118.5 -379t-332.5 -133q-213 -2 -333 135z" />
<glyph unicode="&#xf9;" d="M123 369q2 -182 107 -285.5t305 -103.5q126 -1 234.5 36t168.5 90l4 5v258v645v10h-20v-10v-645v-250q-56 -49 -160.5 -84t-226.5 -35q-192 -1 -292 97t-100 272l2 643l2 10l-22 2l-2 -10v-645zM416 1372l16 -16l184 -188l5 -5h28l-16 17l-184 188l-5 4h-28z" />
<glyph unicode="&#xfa;" d="M123 369q2 -182 107 -285.5t305 -103.5q126 -1 234.5 36t168.5 90l4 5v258v645v10h-20v-10v-645v-250q-56 -49 -160.5 -84t-226.5 -35q-192 -1 -292 97t-100 272l2 643l2 10l-22 2l-2 -10v-645zM416 1163h28l5 5l184 188l16 16h-28l-5 -4l-184 -188z" />
<glyph unicode="&#xfb;" d="M123 369q2 -182 107 -285.5t305 -103.5q126 -1 234.5 36t168.5 90l4 5v258v645v10h-20v-10v-645v-250q-56 -49 -160.5 -84t-226.5 -35q-192 -1 -292 97t-100 272l2 643l2 10l-22 2l-2 -10v-645zM332 1163h30l3 3l167 143l168 -143l2 -3h31l-20 19l-174 149l-7 7l-6 -7 l-174 -149z" />
<glyph unicode="&#xfc;" d="M123 369q2 -182 107 -285.5t305 -103.5q126 -1 234.5 36t168.5 90l4 5v258v645v10h-20v-10v-645v-250q-56 -49 -160.5 -84t-226.5 -35q-192 -1 -292 97t-100 272l2 643l2 10l-22 2l-2 -10v-645zM328 1163h61v31v2v31h-61v-31v-2v-31zM676 1163h61v31v2v31h-61v-31v-2v-31 z" />
<glyph unicode="&#xfd;" horiz-adv-x="942" d="M37 1024l4 -12l307 -998l2 -6l6 -2l122 -24q-69 -164 -149.5 -237.5t-187.5 -102.5l-8 -2v-23l12 4q110 29 197 108.5t159 249.5l1 1l2 6l356 1024l4 14h-22l-2 -6l-354 -1016l-119 23l-306 991l-2 8h-22zM334 1196h28l5 4l184 189l16 16h-28l-4 -4l-185 -189z" />
<glyph unicode="&#xfe;" horiz-adv-x="1157" d="M154 195v-564v-10h20v10v542q90 -91 218.5 -142t242.5 -51q186 -2 292.5 139t106.5 393q1 250 -106.5 391t-292.5 141q-26 0 -57.5 -7t-60 -16.5t-66 -26.5t-63.5 -29.5t-64.5 -34.5t-56 -32.5t-52.5 -31t-41 -24.5v549v10h-20v-10v-560v-632v-4zM174 203v616 q4 2 83.5 49t129 73.5t124 54.5t124.5 28q180 -2 279.5 -134t99.5 -378q1 -246 -99.5 -379t-279.5 -133q-114 -2 -245 52.5t-216 150.5z" />
<glyph unicode="&#xff;" horiz-adv-x="942" d="M37 1024l4 -12l307 -998l2 -6l6 -2l122 -24q-69 -164 -149.5 -237.5t-187.5 -102.5l-8 -2v-23l12 4q110 29 197 108.5t159 249.5l1 1l2 6l356 1024l4 14h-22l-2 -6l-354 -1016l-119 23l-306 991l-2 8h-22zM246 1196h61v31v2v31h-61v-31v-2v-31zM594 1196h61v31v2v31h-61 v-31v-2v-31z" />
<glyph unicode="&#x100;" horiz-adv-x="1228" d="M37 0h20l4 6l122 326h1h820h1l121 -326l4 -6h21l-4 14l-500 1332l-4 6h-6h-43h-43h-6l-4 -6l-500 -1332zM191 352l366 979h37h37l366 -979h-806zM379 1473h10h410h10v21h-10h-410h-10v-21z" />
<glyph unicode="&#x101;" horiz-adv-x="1146" d="M82 510q0 -250 115 -390t313 -140q184 -3 454 199q10 -100 37 -173l5 -6h20l-4 14q-14 34 -26.5 94t-12.5 91l2 813l2 10h-24v-8v-126q-221 156 -453 156q-198 -2 -313 -142t-115 -392zM102 510q0 247 108 380.5t300 133.5q133 -1 250.5 -49t202.5 -113v-350v-309 q-132 -99 -242.5 -151t-210.5 -52q-191 -2 -299.5 132t-108.5 378zM339 1186h10h410h10v20h-10h-410h-10v-20z" />
<glyph unicode="&#x102;" horiz-adv-x="1228" d="M37 0h20l4 6l122 326h1h820h1l121 -326l4 -6h21l-4 14l-500 1332l-4 6h-6h-43h-43h-6l-4 -6l-500 -1332zM191 352l366 979h37h37l366 -979h-806zM389 1627q0 -64 60.5 -109t144.5 -45q85 -1 145 44.5t60 109.5h-21q0 -56 -53 -94.5t-131 -38.5q-75 -1 -129.5 38t-54.5 95 h-21z" />
<glyph unicode="&#x103;" horiz-adv-x="1146" d="M82 510q0 -250 115 -390t313 -140q184 -3 454 199q10 -100 37 -173l5 -6h20l-4 14q-14 34 -26.5 94t-12.5 91l2 813l2 10h-24v-8v-126q-221 156 -453 156q-198 -2 -313 -142t-115 -392zM102 510q0 247 108 380.5t300 133.5q133 -1 250.5 -49t202.5 -113v-350v-309 q-132 -99 -242.5 -151t-210.5 -52q-191 -2 -299.5 132t-108.5 378zM349 1339q0 -64 60.5 -108.5t144.5 -44.5q85 -1 145 44t60 109h-21q0 -56 -53 -94.5t-131 -38.5q-75 -1 -129.5 38t-54.5 95h-21z" />
<glyph unicode="&#x104;" horiz-adv-x="1228" d="M37 0h20l4 6l122 326h1h820h1l119 -321l-4 -4q-5 -4 -12.5 -11.5t-27.5 -31t-35.5 -47t-28 -55.5t-12.5 -61q1 -41 35.5 -72t87.5 -36t116 28l11 4l-11 18l-8 -6q-59 -29 -106 -25t-76 29.5t-29 59.5q1 26 12 55t27 52t32 42.5t27 29.5l11 11l8 8l-1 1h11l-4 14 l-500 1332l-4 6h-6h-43h-43h-6l-4 -6l-500 -1332zM191 352l366 979h37h37l366 -979h-806z" />
<glyph unicode="&#x105;" horiz-adv-x="1146" d="M82 510q0 -250 115 -390t313 -140q184 -3 454 199q10 -91 35 -166l-1 -2q-5 -4 -13 -11.5t-28 -31t-35.5 -47t-28 -55.5t-12.5 -61q1 -41 35.5 -72t87.5 -36t116 28l11 4l-11 18l-8 -6q-59 -29 -106 -25t-76 29.5t-29 59.5q1 26 12 55t27 52t32 42.5t27 29.5l11 11l5 5 h11l-4 14q-14 34 -26.5 94t-12.5 91l2 813l2 10h-24v-8v-126q-221 156 -453 156q-198 -2 -313 -142t-115 -392zM102 510q0 247 108 380.5t300 133.5q133 -1 250.5 -49t202.5 -113v-350v-309q-132 -99 -242.5 -151t-210.5 -52q-191 -2 -299.5 132t-108.5 378z" />
<glyph unicode="&#x106;" horiz-adv-x="1210" d="M82 676q1 -342 143.5 -519t401.5 -177q161 -1 301 47t237 110l-12 17q-89 -59 -228.5 -106.5t-297.5 -47.5q-251 -2 -388 169.5t-137 506.5q1 334 137 505t388 171q111 -1 220.5 -36.5t179 -77t124.5 -89.5l12 16q-91 79 -233 143t-303 64q-258 -2 -401.5 -179 t-143.5 -517zM507 1498h29l4 4l184 188l16 16h-28l-4 -4l-185 -188z" />
<glyph unicode="&#x107;" horiz-adv-x="983" d="M82 514q1 -261 115.5 -397.5t314.5 -136.5q125 -1 229.5 43.5t176.5 103.5l-13 16q-70 -57 -170.5 -100t-222.5 -43q-193 -2 -301.5 129.5t-108.5 384.5q1 253 108.5 381.5t301.5 128.5q126 -1 226.5 -43.5t166.5 -101.5l13 16q-67 60 -173 104.5t-233 44.5 q-200 -2 -315 -136.5t-115 -393.5zM383 1186h29l4 4l184 188l16 17h-28l-4 -4l-185 -189z" />
<glyph unicode="&#x108;" horiz-adv-x="1210" d="M82 676q1 -342 143.5 -519t401.5 -177q161 -1 301 47t237 110l-12 17q-89 -59 -228.5 -106.5t-297.5 -47.5q-251 -2 -388 169.5t-137 506.5q1 334 137 505t388 171q111 -1 220.5 -36.5t179 -77t124.5 -89.5l12 16q-91 79 -233 143t-303 64q-258 -2 -401.5 -179 t-143.5 -517zM423 1498h31l2 2l168 143l168 -143l2 -2h30l-20 18l-174 149l-6 7l-7 -7l-174 -149z" />
<glyph unicode="&#x109;" horiz-adv-x="983" d="M82 514q1 -261 115.5 -397.5t314.5 -136.5q125 -1 229.5 43.5t176.5 103.5l-13 16q-70 -57 -170.5 -100t-222.5 -43q-193 -2 -301.5 129.5t-108.5 384.5q1 253 108.5 381.5t301.5 128.5q126 -1 226.5 -43.5t166.5 -101.5l13 16q-67 60 -173 104.5t-233 44.5 q-200 -2 -315 -136.5t-115 -393.5zM299 1186h31l2 2l168 143l168 -143l2 -2h30l-20 18l-174 150l-6 6l-6 -6l-175 -150z" />
<glyph unicode="&#x10a;" horiz-adv-x="1210" d="M82 676q1 -342 143.5 -519t401.5 -177q161 -1 301 47t237 110l-12 17q-89 -59 -228.5 -106.5t-297.5 -47.5q-251 -2 -388 169.5t-137 506.5q1 334 137 505t388 171q111 -1 220.5 -36.5t179 -77t124.5 -89.5l12 16q-91 79 -233 143t-303 64q-258 -2 -401.5 -179 t-143.5 -517zM593 1498h61v30v2v31h-61v-31v-2v-30z" />
<glyph unicode="&#x10b;" horiz-adv-x="983" d="M82 514q1 -261 115.5 -397.5t314.5 -136.5q125 -1 229.5 43.5t176.5 103.5l-13 16q-70 -57 -170.5 -100t-222.5 -43q-193 -2 -301.5 129.5t-108.5 384.5q1 253 108.5 381.5t301.5 128.5q126 -1 226.5 -43.5t166.5 -101.5l13 16q-67 60 -173 104.5t-233 44.5 q-200 -2 -315 -136.5t-115 -393.5zM469 1186h61v31v2v30h-61v-30v-2v-31z" />
<glyph unicode="&#x10c;" horiz-adv-x="1210" d="M82 676q1 -342 143.5 -519t401.5 -177q161 -1 301 47t237 110l-12 17q-89 -59 -228.5 -106.5t-297.5 -47.5q-251 -2 -388 169.5t-137 506.5q1 334 137 505t388 171q111 -1 220.5 -36.5t179 -77t124.5 -89.5l12 16q-91 79 -233 143t-303 64q-258 -2 -401.5 -179 t-143.5 -517zM423 1672l20 -19l174 -149l7 -6l6 6l174 149l20 19h-30l-2 -2l-168 -144l-168 144l-2 2h-31z" />
<glyph unicode="&#x10d;" horiz-adv-x="983" d="M82 514q1 -261 115.5 -397.5t314.5 -136.5q125 -1 229.5 43.5t176.5 103.5l-13 16q-70 -57 -170.5 -100t-222.5 -43q-193 -2 -301.5 129.5t-108.5 384.5q1 253 108.5 381.5t301.5 128.5q126 -1 226.5 -43.5t166.5 -101.5l13 16q-67 60 -173 104.5t-233 44.5 q-200 -2 -315 -136.5t-115 -393.5zM299 1360l20 -19l175 -149l6 -6l6 6l174 149l20 19h-30l-2 -2l-168 -144l-168 144l-2 2h-31z" />
<glyph unicode="&#x10e;" horiz-adv-x="1339" d="M164 0h10h518q134 -1 229.5 34t163 114t100 209.5t32.5 318.5q1 186 -32 316.5t-100.5 209.5t-163 114.5t-227.5 35.5l-518 -2h-10v-11l-2 -1329v-10zM184 20v1311h510q131 -1 222 -34t155 -109t94.5 -202t30.5 -310q1 -185 -29.5 -312t-95.5 -203t-156.5 -108.5 t-222.5 -32.5h-508zM489 1647l21 -18l174 -150l6 -6l6 6l174 150l21 18h-31l-2 -2l-168 -143l-168 143l-2 2h-31z" />
<glyph unicode="&#x10f;" horiz-adv-x="1048" d="M82 512q0 -251 112.5 -391.5t307.5 -140.5q177 -3 442 198v-168v-10h21v10v185v317v356v4v480v10h-21v-10v-463q-88 64 -203 109.5t-239 45.5q-194 -2 -307 -141.5t-113 -390.5zM102 512q0 246 105.5 379t294.5 133q128 -1 243 -48.5t199 -111.5v-352v-309 q-265 -203 -442 -203q-188 -2 -294 132t-106 380zM1059 1080l14 -15l6 7q38 34 61 68.5t32.5 80t11.5 78.5t2 98v10h-21v-10q0 -53 -1 -78t-5.5 -64t-14.5 -62t-29 -51.5t-48 -53.5z" />
<glyph unicode="&#x110;" horiz-adv-x="1339" d="M6 666h10h149l-1 -656v-10h10h518q134 -1 229.5 34t163 114t100 209.5t32.5 318.5q1 186 -32 316.5t-100.5 209.5t-163 114.5t-227.5 35.5l-518 -2h-10v-11l-1 -653h-149h-10v-20zM184 20v646h406h10v20h-10h-406v645h510q131 -1 222 -34t155 -109t94.5 -202t30.5 -310 q1 -185 -29.5 -312t-95.5 -203t-156.5 -108.5t-222.5 -32.5h-508z" />
<glyph unicode="&#x111;" horiz-adv-x="1130" d="M82 512q0 -251 112.5 -391.5t307.5 -140.5q177 -3 442 198v-168v-10h21v10v185v317v356v4v330h100h10v21h-10h-100v129v10h-21v-10v-129h-452h-11v-21h11h452v-313q-88 64 -203 109.5t-239 45.5q-194 -2 -307 -141.5t-113 -390.5zM102 512q0 246 105.5 379t294.5 133 q128 -1 243 -48.5t199 -111.5v-352v-309q-265 -203 -442 -203q-188 -2 -294 132t-106 380z" />
<glyph unicode="&#x112;" horiz-adv-x="1230" d="M164 0h10h924h10v20h-10h-914v646h695h10v20h-10h-695v645h914h10v21h-10h-924h-10v-11v-655v-20v-656v-10zM421 1473h10h410h10v21h-10h-410h-10v-21z" />
<glyph unicode="&#x113;" d="M82 512q1 -253 115.5 -392.5t314.5 -139.5q256 -3 465 106l-8 16q-212 -102 -457 -102q-190 -2 -299 130t-111 372h830h10v10v356v4l-4 5q-80 67 -192 117t-234 50q-199 -2 -314.5 -141.5t-115.5 -390.5zM103 522q4 240 111.5 371t297.5 131q120 -1 226.5 -49t183.5 -111 v-342h-819zM314 1186h11h409h10v20h-10h-409h-11v-20z" />
<glyph unicode="&#x114;" horiz-adv-x="1230" d="M164 0h10h924h10v20h-10h-914v646h695h10v20h-10h-695v645h914h10v21h-10h-924h-10v-11v-655v-20v-656v-10zM431 1627q0 -64 60.5 -109t144.5 -45q85 -1 145 44.5t60 109.5h-21q0 -56 -53 -94.5t-131 -38.5q-75 -1 -129.5 38t-54.5 95h-21z" />
<glyph unicode="&#x115;" d="M82 512q1 -253 115.5 -392.5t314.5 -139.5q256 -3 465 106l-8 16q-212 -102 -457 -102q-190 -2 -299 130t-111 372h830h10v10v356v4l-4 5q-80 67 -192 117t-234 50q-199 -2 -314.5 -141.5t-115.5 -390.5zM103 522q4 240 111.5 371t297.5 131q120 -1 226.5 -49t183.5 -111 v-342h-819zM325 1339q0 -64 60 -108.5t144 -44.5q85 -1 145 44t60 109h-20q0 -56 -53.5 -94.5t-131.5 -38.5q-75 -1 -129.5 38t-54.5 95h-20z" />
<glyph unicode="&#x116;" horiz-adv-x="1230" d="M164 0h10h924h10v20h-10h-914v646h695h10v20h-10h-695v645h914h10v21h-10h-924h-10v-11v-655v-20v-656v-10zM605 1473h62v31v2v31h-62v-31v-2v-31z" />
<glyph unicode="&#x117;" d="M82 512q1 -253 115.5 -392.5t314.5 -139.5q256 -3 465 106l-8 16q-212 -102 -457 -102q-190 -2 -299 130t-111 372h830h10v10v356v4l-4 5q-80 67 -192 117t-234 50q-199 -2 -314.5 -141.5t-115.5 -390.5zM103 522q4 240 111.5 371t297.5 131q120 -1 226.5 -49t183.5 -111 v-342h-819zM499 1186h61v31v2v30h-61v-30v-2v-31z" />
<glyph unicode="&#x118;" horiz-adv-x="1230" d="M164 0h10h810q-105 -105 -105 -195q1 -41 35.5 -72t87.5 -36t116 28l11 4l-11 18l-8 -6q-59 -29 -106 -25t-76 29.5t-29 59.5q1 26 12 55t27 52t32 42.5t27 29.5l11 11l5 5h85h10v20h-10h-914v646h695h10v20h-10h-695v645h914h10v21h-10h-924h-10v-11v-655v-20v-656v-10z " />
<glyph unicode="&#x119;" d="M82 512q1 -253 115.5 -392.5t314.5 -139.5q58 0 85 2q-108 -108 -108 -198q1 -41 36 -72t88 -36t116 28l10 4l-10 19l-8 -7q-59 -29 -106 -25t-76 29.5t-29 59.5q1 41 28 88.5t54 74.5l26 27l9 9l-2 1q185 16 352 102l-8 16q-212 -102 -457 -102q-190 -2 -299 130 t-111 372h830h10v10v356v4l-4 5q-80 67 -192 117t-234 50q-199 -2 -314.5 -141.5t-115.5 -390.5zM103 522q4 240 111.5 371t297.5 131q120 -1 226.5 -49t183.5 -111v-342h-819z" />
<glyph unicode="&#x11a;" horiz-adv-x="1230" d="M164 0h10h924h10v20h-10h-914v646h695h10v20h-10h-695v645h914h10v21h-10h-924h-10v-11v-655v-20v-656v-10zM435 1647l21 -18l174 -150l6 -6l6 6l174 150l21 18h-31l-2 -2l-168 -143l-168 143l-2 2h-31z" />
<glyph unicode="&#x11b;" d="M82 512q1 -253 115.5 -392.5t314.5 -139.5q256 -3 465 106l-8 16q-212 -102 -457 -102q-190 -2 -299 130t-111 372h830h10v10v356v4l-4 5q-80 67 -192 117t-234 50q-199 -2 -314.5 -141.5t-115.5 -390.5zM103 522q4 240 111.5 371t297.5 131q120 -1 226.5 -49t183.5 -111 v-342h-819zM329 1360l20 -19l174 -149l6 -6l7 6l174 149l20 19h-31l-2 -2l-168 -144l-168 144l-2 2h-30z" />
<glyph unicode="&#x11c;" horiz-adv-x="1392" d="M82 676q1 -343 151 -519.5t424 -176.5q320 -3 568 159l4 2v535v10h-10h-560v-20h549v-512q-238 -154 -551 -154q-266 -2 -410.5 169.5t-144.5 506.5q1 335 144.5 505.5t410.5 170.5q114 -1 230 -36.5t190 -77t135 -89.5l13 16q-61 48 -138 91t-196 79.5t-234 36.5 q-273 -2 -424 -179t-151 -517zM455 1498h30l2 2l168 143l168 -143l2 -2h31l-20 18l-174 149l-7 7l-6 -7l-174 -149z" />
<glyph unicode="&#x11d;" horiz-adv-x="1079" d="M82 657q0 -260 215 -323q-58 -4 -91.5 -54t-33.5 -112q2 -96 58 -142q-76 -37 -76 -149q0 -52 15.5 -88t56 -66.5t119 -45.5t196.5 -15q145 -1 283.5 33.5t185.5 71.5l4 4v116v4l-4 5q-48 40 -181.5 82t-285.5 42q-198 47 -292 15q-58 36 -58 133q2 60 30.5 102.5 t81.5 42.5h10v16q67 -16 144 -16q81 -1 186.5 40.5t177.5 92.5l4 3v208v209v4l-2 2q-1 1 -3 3.5t-3 3.5l4 4q7 6 35.5 35t43.5 43t40 28.5t45 14.5h10v20h-10q-23 0 -51 -16t-44.5 -30t-46.5 -44.5t-34 -34.5l-7 -7q-70 63 -168.5 107.5t-176.5 44.5q-182 -2 -279.5 -99.5 t-97.5 -287.5zM102 657q0 367 357 367q84 -1 185 -49.5t163 -112.5v-205v-196q-65 -47 -167.5 -87t-180.5 -40q-177 -2 -267 75.5t-90 247.5zM174 -123q0 106 75 137q25 -14 56 -14h10v20h-10q-13 0 -24 3q86 17 258 -23q151 0 280 -40t174 -77v-104q-41 -31 -177 -63.5 t-275 -32.5q-91 -1 -157 8t-106 24.5t-63.5 41.5t-32 54t-8.5 66zM347 1214h31l2 2l168 144l168 -144l2 -2h31l-21 19l-174 149l-6 6l-6 -6l-174 -149z" />
<glyph unicode="&#x11e;" horiz-adv-x="1392" d="M82 676q1 -343 151 -519.5t424 -176.5q320 -3 568 159l4 2v535v10h-10h-560v-20h549v-512q-238 -154 -551 -154q-266 -2 -410.5 169.5t-144.5 506.5q1 335 144.5 505.5t410.5 170.5q114 -1 230 -36.5t190 -77t135 -89.5l13 16q-61 48 -138 91t-196 79.5t-234 36.5 q-273 -2 -424 -179t-151 -517zM451 1651q0 -64 60 -108.5t144 -44.5q85 -1 145 44t60 109h-20q0 -56 -53.5 -94.5t-131.5 -38.5q-75 -1 -129.5 38t-54.5 95h-20z" />
<glyph unicode="&#x11f;" horiz-adv-x="1079" d="M82 657q0 -260 215 -323q-58 -4 -91.5 -54t-33.5 -112q2 -96 58 -142q-76 -37 -76 -149q0 -52 15.5 -88t56 -66.5t119 -45.5t196.5 -15q145 -1 283.5 33.5t185.5 71.5l4 4v116v4l-4 5q-48 40 -181.5 82t-285.5 42q-198 47 -292 15q-58 36 -58 133q2 60 30.5 102.5 t81.5 42.5h10v16q67 -16 144 -16q81 -1 186.5 40.5t177.5 92.5l4 3v208v209v4l-2 2q-1 1 -3 3.5t-3 3.5l4 4q7 6 35.5 35t43.5 43t40 28.5t45 14.5h10v20h-10q-23 0 -51 -16t-44.5 -30t-46.5 -44.5t-34 -34.5l-7 -7q-70 63 -168.5 107.5t-176.5 44.5q-182 -2 -279.5 -99.5 t-97.5 -287.5zM102 657q0 367 357 367q84 -1 185 -49.5t163 -112.5v-205v-196q-65 -47 -167.5 -87t-180.5 -40q-177 -2 -267 75.5t-90 247.5zM174 -123q0 106 75 137q25 -14 56 -14h10v20h-10q-13 0 -24 3q86 17 258 -23q151 0 280 -40t174 -77v-104q-41 -31 -177 -63.5 t-275 -32.5q-91 -1 -157 8t-106 24.5t-63.5 41.5t-32 54t-8.5 66zM343 1368q0 -64 60.5 -109t144.5 -45q85 -1 145 44.5t60 109.5h-21q0 -56 -53 -94.5t-131 -38.5q-75 -1 -129.5 38t-54.5 95h-21z" />
<glyph unicode="&#x120;" horiz-adv-x="1392" d="M82 676q1 -343 151 -519.5t424 -176.5q320 -3 568 159l4 2v535v10h-10h-560v-20h549v-512q-238 -154 -551 -154q-266 -2 -410.5 169.5t-144.5 506.5q1 335 144.5 505.5t410.5 170.5q114 -1 230 -36.5t190 -77t135 -89.5l13 16q-61 48 -138 91t-196 79.5t-234 36.5 q-273 -2 -424 -179t-151 -517zM625 1498h61v30v2v31h-61v-31v-2v-30z" />
<glyph unicode="&#x121;" horiz-adv-x="1079" d="M82 657q0 -260 215 -323q-58 -4 -91.5 -54t-33.5 -112q2 -96 58 -142q-76 -37 -76 -149q0 -52 15.5 -88t56 -66.5t119 -45.5t196.5 -15q145 -1 283.5 33.5t185.5 71.5l4 4v116v4l-4 5q-48 40 -181.5 82t-285.5 42q-198 47 -292 15q-58 36 -58 133q2 60 30.5 102.5 t81.5 42.5h10v16q67 -16 144 -16q81 -1 186.5 40.5t177.5 92.5l4 3v208v209v4l-2 2q-1 1 -3 3.5t-3 3.5l4 4q7 6 35.5 35t43.5 43t40 28.5t45 14.5h10v20h-10q-23 0 -51 -16t-44.5 -30t-46.5 -44.5t-34 -34.5l-7 -7q-70 63 -168.5 107.5t-176.5 44.5q-182 -2 -279.5 -99.5 t-97.5 -287.5zM102 657q0 367 357 367q84 -1 185 -49.5t163 -112.5v-205v-196q-65 -47 -167.5 -87t-180.5 -40q-177 -2 -267 75.5t-90 247.5zM174 -123q0 106 75 137q25 -14 56 -14h10v20h-10q-13 0 -24 3q86 17 258 -23q151 0 280 -40t174 -77v-104q-41 -31 -177 -63.5 t-275 -32.5q-91 -1 -157 8t-106 24.5t-63.5 41.5t-32 54t-8.5 66zM517 1214h62v31v2v31h-62v-31v-2v-31z" />
<glyph unicode="&#x122;" horiz-adv-x="1392" d="M82 676q1 -343 151 -520t424 -177h-18q0 -19 -4.5 -39t-15 -48t-11.5 -31l-4 -15h4q228 0 228 -82q1 -51 -53 -85.5t-134 -34.5l-192 -2l-2 -19h194q86 -1 146.5 40.5t60.5 100.5q1 51 -62.5 77t-160.5 26q26 69 26 112q317 -3 566 160l4 2v535v10h-10h-560v-20h549v-512 q-238 -154 -551 -154q-266 -2 -410.5 169.5t-144.5 506.5q1 335 144.5 505.5t410.5 170.5q114 -1 230 -36.5t190 -77t135 -89.5l13 16q-61 48 -138 91t-196 79.5t-234 36.5q-273 -2 -424 -179t-151 -517z" />
<glyph unicode="&#x123;" horiz-adv-x="1079" d="M82 657q0 -260 215 -323q-58 -4 -91.5 -54t-33.5 -112q2 -96 58 -142q-76 -37 -76 -149q0 -52 15.5 -88t56 -66.5t119 -45.5t196.5 -15q145 -1 283.5 33.5t185.5 71.5l4 4v116v4l-4 5q-48 40 -181.5 82t-285.5 42q-198 47 -292 15q-58 36 -58 133q2 60 30.5 102.5 t81.5 42.5h10v16q67 -16 144 -16q81 -1 186.5 40.5t177.5 92.5l4 3v208v209v4l-2 2q-1 1 -3 3.5t-3 3.5l4 4q7 6 35.5 35t43.5 43t40 28.5t45 14.5h10v20h-10q-23 0 -51 -16t-44.5 -30t-46.5 -44.5t-34 -34.5l-7 -7q-70 63 -168.5 107.5t-176.5 44.5q-182 -2 -279.5 -99.5 t-97.5 -287.5zM102 657q0 367 357 367q84 -1 185 -49.5t163 -112.5v-205v-196q-65 -47 -167.5 -87t-180.5 -40q-177 -2 -267 75.5t-90 247.5zM174 -123q0 106 75 137q25 -14 56 -14h10v20h-10q-13 0 -24 3q86 17 258 -23q151 0 280 -40t174 -77v-104q-41 -31 -177 -63.5 t-275 -32.5q-91 -1 -157 8t-106 24.5t-63.5 41.5t-32 54t-8.5 66z" />
<glyph unicode="&#x124;" horiz-adv-x="1349" d="M164 0h20v10v656h940v-656v-10h21v10v656v20v655v11h-21v-11v-655h-940v655v11h-20v-11v-655v-20v-656v-10zM454 1473h30l2 2l168 144l168 -144l2 -2h31l-20 19l-175 149l-6 6l-6 -6l-174 -149z" />
<glyph unicode="&#x125;" horiz-adv-x="1136" d="M154 0h20v10v576v10v266q257 162 432 162q178 -1 262 -106t84 -320l2 -590l2 -10l19 4l-2 8v588q2 219 -91 332.5t-276 113.5q-172 -2 -432 -158v466v10h-20v-10v-478v-278v-10v-576v-10zM332 1433h30l3 2l167 143l168 -143l2 -2h31l-20 18l-174 150l-7 6l-6 -6 l-174 -150z" />
<glyph unicode="&#x126;" horiz-adv-x="1349" d="M10 1102h154v-416v-20v-656v-10h20v10v656h940v-656v-10h21v10v656v20v416h155v20h-155v219v11h-21v-11v-219h-940v219v11h-20v-11v-219h-154v-20zM184 686v416h940v-416h-940z" />
<glyph unicode="&#x127;" horiz-adv-x="1136" d="M4 1236h11h139v-362v-278v-10v-576v-10h20v10v576v10v266q257 162 432 162q178 -1 262 -106t84 -320l2 -590l2 -10l19 4l-2 8v588q2 219 -91 332.5t-276 113.5q-172 -2 -432 -158v350h414h10v20h-10h-414v96v10h-20v-10v-96h-139h-11v-20z" />
<glyph unicode="&#x128;" horiz-adv-x="354" d="M-80 1484h21q0 54 31 90.5t77 36.5q27 -1 48.5 -11.5t31 -20t29.5 -32.5q27 -35 55.5 -54.5t69.5 -19.5q53 -1 91 43.5t38 104.5h-21q0 -53 -31.5 -90t-76.5 -37q-35 -1 -59 15.5t-50 49.5q-21 23 -32.5 34.5t-37.5 24.5t-55 13q-52 -2 -90.5 -45t-38.5 -102zM156 0h20 v10v1331v11h-20v-11v-1331v-10z" />
<glyph unicode="&#x129;" horiz-adv-x="393" d="M-49 1212h20q0 54 31.5 90.5t77.5 36.5q27 -1 48 -11.5t30.5 -19.5t29.5 -32q27 -35 55.5 -54.5t69.5 -19.5q53 -1 91 43t38 104h-20q0 -53 -31.5 -90t-77.5 -37q-35 -1 -58 15.5t-50 50.5q-21 23 -32.5 34.5t-37.5 24.5t-55 13q-52 -2 -90.5 -45.5t-38.5 -102.5zM186 0 h21v10v1041v10h-21v-10v-1041v-10z" />
<glyph unicode="&#x12a;" horiz-adv-x="354" d="M-49 1473h10h410h10v21h-10h-410h-10v-21zM156 0h20v10v1331v11h-20v-11v-1331v-10z" />
<glyph unicode="&#x12b;" horiz-adv-x="393" d="M-18 1202h10h409h11v20h-11h-409h-10v-20zM186 0h21v10v1041v10h-21v-10v-1041v-10z" />
<glyph unicode="&#x12c;" horiz-adv-x="354" d="M-39 1627q0 -64 60.5 -109t144.5 -45q85 -1 145 44.5t60 109.5h-21q0 -56 -53 -94.5t-131 -38.5q-75 -1 -129.5 38t-54.5 95h-21zM156 0h20v10v1331v11h-20v-11v-1331v-10z" />
<glyph unicode="&#x12d;" horiz-adv-x="393" d="M-8 1355q0 -64 60.5 -108.5t144.5 -44.5q85 -1 144.5 44t59.5 109h-20q0 -56 -53 -94.5t-131 -38.5q-75 -2 -130 38t-55 95h-20zM186 0h21v10v1041v10h-21v-10v-1041v-10z" />
<glyph unicode="&#x12e;" horiz-adv-x="354" d="M39 -195q1 -41 36 -72t88 -36t116 28l10 4l-10 18l-9 -6q-59 -29 -106 -25t-76 29.5t-29 59.5q1 26 12 55t27 52t32 42.5t27 29.5l11 11l5 5h3v3v7v1331v11h-20v-11v-1330q-5 -4 -13 -11.5t-28 -31t-35.5 -47t-28 -55.5t-12.5 -61z" />
<glyph unicode="&#x12f;" horiz-adv-x="368" d="M39 -197q1 -41 36 -72t88 -36t116 28l10 4l-10 18l-9 -6q-59 -29 -106 -25t-76 29.5t-29 59.5q1 26 12 55t27 52t32 42.5t27 29.5l11 11l8 8l-2 2v7v1024v10h-20v-10v-1024v-2q-18 -17 -38.5 -39.5t-48.5 -73t-28 -92.5zM133 1239h31h2h31v61h-31h-2h-31v-61z" />
<glyph unicode="&#x130;" horiz-adv-x="354" d="M135 1473h62v31v2v31h-62v-31v-2v-31zM156 0h20v10v1331v11h-20v-11v-1331v-10z" />
<glyph unicode="&#x131;" horiz-adv-x="393" d="M186 0h21v10v1041v10h-21v-10v-1041v-10z" />
<glyph unicode="&#x132;" horiz-adv-x="737" d="M154 -227v-21l12 2q377 61 377 500l2 1067l2 10h-25v-8v-1069q1 -212 -88 -330t-272 -149zM154 246h20v10v1067v10h-20v-10v-1067v-10z" />
<glyph unicode="&#x133;" horiz-adv-x="727" d="M133 1239h31h2h31v61h-31h-2h-31v-61zM154 0h20v10v1004v10h-20v-10v-1004v-10zM154 -360v-21l12 2q65 14 117.5 31.5t106.5 48.5t90.5 71.5t59.5 101.5t23 136l2 1002l2 10h-24v-8v-1004q1 -72 -20.5 -130t-55.5 -96t-86.5 -67t-103 -45t-115.5 -30zM522 1239h31h2h31 v61h-31h-2h-31v-61z" />
<glyph unicode="&#x134;" horiz-adv-x="686" d="M-12 -227l4 -21l10 2q238 31 358.5 157t120.5 343l2 1067l2 10l-22 2l-2 -10v-1069q1 -212 -113.5 -330t-349.5 -149zM36 1476h31l2 2l168 143l167 -143l3 -2h30l-20 18l-174 149l-6 7l-7 -7l-174 -149z" />
<glyph unicode="&#x135;" horiz-adv-x="481" d="M-12 -360l4 -21l10 2q52 11 93.5 25t84.5 38.5t71.5 56.5t47 80t18.5 107l2 1084l3 10l-23 2l-2 -10v-1086q1 -57 -16 -101.5t-43.5 -74t-68 -52t-80.5 -35t-91 -23.5zM66 1126h24l4 4l135 170l136 -170l4 -4h24l-12 17l-143 180l-5 4h-8l-4 -4l-143 -180z" />
<glyph unicode="&#x136;" horiz-adv-x="1251" d="M164 0h20v10v656h293l613 -662l4 -4h26l-14 16l-610 660l610 659l14 17h-26l-4 -4l-613 -662h-293v655v11h-20v-11v-655v-20v-656v-10zM441 -356h195q86 -1 146.5 40.5t60.5 100.5q1 51 -62.5 76.5t-160.5 25.5q26 69 26 113h-20q0 -15 -3.5 -33t-8 -30.5t-11 -30.5 t-8.5 -25l-4 -14h4q227 0 227 -82q1 -51 -52.5 -86t-133.5 -35l-193 -2z" />
<glyph unicode="&#x137;" horiz-adv-x="985" d="M123 0h20v10v492h258l443 -498l4 -4h26l-14 16l-440 496l440 496l14 16h-26l-4 -4l-443 -498h-258v871v10h-20v-10v-871v-20v-492v-10zM298 -356h195q86 -1 146 40.5t60 100.5q1 51 -62.5 76.5t-160.5 25.5q27 72 27 113h-21q0 -15 -3.5 -33t-7.5 -30t-10.5 -31t-8.5 -25 l-5 -14h5q227 0 227 -82q1 -51 -52.5 -86t-133.5 -35l-193 -2z" />
<glyph unicode="&#x138;" horiz-adv-x="1015" d="M154 0h20v10v492h256l444 -498l5 -4h26l-14 16l-442 496l442 496l14 16h-26l-5 -4l-444 -498h-256v492v10h-20v-10v-492v-20v-492v-10z" />
<glyph unicode="&#x139;" horiz-adv-x="1024" d="M164 0h10h758h10v20h-10h-748v1321v11h-20v-11v-1331v-10zM436 1473h29l4 4l184 189l17 16h-29l-4 -4l-184 -188z" />
<glyph unicode="&#x13a;" horiz-adv-x="368" d="M47 1575h29l4 4l184 188l17 16h-29l-4 -4l-185 -188zM154 0h20v10v1383v10h-20v-10v-1383v-10z" />
<glyph unicode="&#x13b;" horiz-adv-x="1024" d="M164 0h10h363q0 -15 -3.5 -33t-8 -30.5t-11 -30.5t-8.5 -25l-4 -14h4q227 0 227 -82q1 -51 -52.5 -86t-133.5 -35l-193 -2l-2 -18h195q86 -1 146.5 40.5t60.5 100.5q1 51 -63 76.5t-161 25.5q27 72 27 113h375h10v20h-10h-748v1321v11h-20v-11v-1331v-10z" />
<glyph unicode="&#x13c;" horiz-adv-x="368" d="M-37 -356h195q86 -1 146.5 40.5t60.5 100.5q1 51 -63 76.5t-161 25.5q27 72 27 113h6v10v1383v10h-20v-10v-1383v-10h-7q0 -15 -3.5 -33t-7.5 -30t-10.5 -31t-8.5 -25l-4 -14h4q227 0 227 -82q1 -51 -52.5 -86t-133.5 -35l-193 -2z" />
<glyph unicode="&#x13d;" horiz-adv-x="1024" d="M164 0h10h758h10v20h-10h-748v1321v11h-20v-11v-1331v-10zM676 1024l14 -14l6 6q38 34 61 68.5t32.5 80t11.5 78.5t2 98v11h-21v-11q0 -53 -1 -78t-5.5 -64t-14.5 -62t-29 -51.5t-48 -53.5z" />
<glyph unicode="&#x13e;" horiz-adv-x="475" d="M154 0h20v10v1383v10h-20v-10v-1383v-10zM268 1121l15 -15l6 6q31 27 51.5 58t31.5 56.5t16 66t6 66.5t1 79v10h-20v-10q0 -52 -1 -78t-6 -64t-15 -62t-29 -52t-48 -53z" />
<glyph unicode="&#x13f;" horiz-adv-x="1024" d="M164 0h10h758h10v20h-10h-748v1321v11h-20v-11v-1331v-10zM522 644h62v31v2v31h-62v-31v-2v-31z" />
<glyph unicode="&#x140;" horiz-adv-x="561" d="M154 0h20v10v1383v10h-20v-10v-1383v-10zM338 665h61v30v2v31h-61v-31v-2v-30z" />
<glyph unicode="&#x141;" horiz-adv-x="1024" d="M164 0h10h758h10v20h-10h-748v1321v11h-20v-11v-1331v-10z" />
<glyph unicode="&#x142;" horiz-adv-x="368" d="M-37 596l12 -16l179 139v-709v-10h20v10v725l272 213l-12 17l-260 -204v632v10h-20v-10v-648z" />
<glyph unicode="&#x143;" horiz-adv-x="1349" d="M164 0h20v10v1321h49l828 -1327l2 -4h6h66h10v10v1331v11h-21v-11v-1321h-49l-827 1328l-2 4h-6h-66h-10v-11v-1331v-10zM538 1473h28l4 4l185 189l16 16h-29l-4 -4l-184 -188z" />
<glyph unicode="&#x144;" horiz-adv-x="1136" d="M154 0h20v10v578v10v264q257 162 434 162q175 -2 259.5 -105.5t84.5 -320.5l2 -590l2 -10l19 4l-2 8v588q1 222 -91.5 334t-273.5 112q-174 -2 -434 -158v128v10h-20v-10v-140v-276v-10v-578v-10zM468 1184h29l4 4l184 189l16 16h-28l-4 -4l-185 -188z" />
<glyph unicode="&#x145;" horiz-adv-x="1349" d="M164 0h20v10v1321h49l828 -1327l2 -4h6h66h10v10v1331v11h-21v-11v-1321h-49l-827 1328l-2 4h-6h-66h-10v-11v-1331v-10zM454 -356h194q86 -1 146.5 40.5t60.5 100.5q1 51 -62.5 76.5t-160.5 25.5q26 69 26 113h-20q0 -15 -3.5 -33t-8 -30.5t-11 -30.5t-8.5 -25l-4 -14h4 q228 0 228 -82q1 -51 -53 -86t-134 -35l-192 -2z" />
<glyph unicode="&#x146;" horiz-adv-x="1136" d="M154 0h20v10v578v10v264q257 162 434 162q175 -2 259.5 -105.5t84.5 -320.5l2 -590l2 -10l19 4l-2 8v588q1 222 -91.5 334t-273.5 112q-174 -2 -434 -158v128v10h-20v-10v-140v-276v-10v-578v-10zM384 -313h195q86 -1 146 40.5t60 100.5q1 51 -62.5 77t-160.5 26 q27 72 27 112h-21q0 -15 -3.5 -33t-7.5 -30t-10.5 -30.5t-8.5 -24.5l-5 -15h5q227 0 227 -82q1 -51 -52.5 -85.5t-133.5 -34.5l-193 -3z" />
<glyph unicode="&#x147;" horiz-adv-x="1349" d="M164 0h20v10v1321h49l828 -1327l2 -4h6h66h10v10v1331v11h-21v-11v-1321h-49l-827 1328l-2 4h-6h-66h-10v-11v-1331v-10zM454 1647l20 -18l174 -150l6 -6l6 6l175 150l20 18h-31l-2 -2l-168 -143l-168 143l-2 2h-30z" />
<glyph unicode="&#x148;" horiz-adv-x="1136" d="M154 0h20v10v578v10v264q257 162 434 162q175 -2 259.5 -105.5t84.5 -320.5l2 -590l2 -10l19 4l-2 8v588q1 222 -91.5 334t-273.5 112q-174 -2 -434 -158v128v10h-20v-10v-140v-276v-10v-578v-10zM384 1358l20 -18l175 -150l6 -6l6 6l174 150l20 18h-30l-2 -2l-168 -143 l-168 143l-2 2h-31z" />
<glyph unicode="&#x14a;" horiz-adv-x="1351" d="M164 0h20v10v1138q251 204 514 204q226 2 347.5 -169t121.5 -507q1 -174 -27.5 -312.5t-86 -233t-145.5 -124t-206 13.5l-8 -20q126 -44 219 -12.5t154 130.5t91 240.5t30 317.5q1 339 -128.5 518.5t-361.5 177.5q-263 0 -514 -198v167v11h-20v-11v-1331v-10z" />
<glyph unicode="&#x14b;" horiz-adv-x="1136" d="M154 0h20v10v578v10v264q257 162 434 162q175 -2 259.5 -105.5t84.5 -320.5l2 -590q0 -213 -39 -291t-149 -47l-8 2l-6 -18l10 -4q36 -12 64.5 -9.5t50.5 12t38.5 32.5t27.5 52.5t17.5 72.5t9.5 91t3 109l2 586q0 223 -93 335.5t-274 112.5q-174 -2 -434 -158v128v10h-20 v-10v-140v-276v-10v-578v-10z" />
<glyph unicode="&#x14c;" horiz-adv-x="1435" d="M82 676q0 -345 156.5 -520.5t459.5 -175.5q303 -2 459 174.5t156 521.5q1 343 -156 519.5t-459 176.5q-302 -2 -459 -177t-157 -519zM102 676q0 676 596 676q594 -3 594 -676q3 -676 -594 -676q-296 -2 -446 167.5t-150 508.5zM482 1498h11h409h10v20h-10h-409h-11v-20z " />
<glyph unicode="&#x14d;" horiz-adv-x="1146" d="M82 512q0 -251 126 -391.5t345 -140.5q219 -2 345 139t126 393q1 250 -125.5 391t-345.5 141q-218 -2 -344.5 -141.5t-126.5 -390.5zM102 512q0 246 119 379t332 133q214 -2 332.5 -134t118.5 -378q1 -246 -118.5 -379t-332.5 -133q-211 -2 -331 132.5t-120 379.5z M338 1186h10h410h10v20h-10h-410h-10v-20z" />
<glyph unicode="&#x14e;" horiz-adv-x="1435" d="M82 676q0 -345 156.5 -520.5t459.5 -175.5q303 -2 459 174.5t156 521.5q1 343 -156 519.5t-459 176.5q-302 -2 -459 -177t-157 -519zM102 676q0 676 596 676q594 -3 594 -676q3 -676 -594 -676q-296 -2 -446 167.5t-150 508.5zM493 1651q0 -64 60 -108.5t144 -44.5 q85 -1 145 44t60 109h-20q0 -56 -53.5 -94.5t-131.5 -38.5q-75 -1 -129.5 38t-54.5 95h-20z" />
<glyph unicode="&#x14f;" horiz-adv-x="1146" d="M82 512q0 -251 126 -391.5t345 -140.5q219 -2 345 139t126 393q1 250 -125.5 391t-345.5 141q-218 -2 -344.5 -141.5t-126.5 -390.5zM102 512q0 246 119 379t332 133q214 -2 332.5 -134t118.5 -378q1 -246 -118.5 -379t-332.5 -133q-211 -2 -331 132.5t-120 379.5z M348 1339q0 -64 60.5 -108.5t144.5 -44.5q85 -1 145 44t60 109h-21q0 -56 -53 -94.5t-131 -38.5q-75 -1 -129.5 38t-54.5 95h-21z" />
<glyph unicode="&#x150;" horiz-adv-x="1435" d="M82 676q0 -345 156.5 -520.5t459.5 -175.5q303 -2 459 174.5t156 521.5q1 343 -156 519.5t-459 176.5q-302 -2 -459 -177t-157 -519zM102 676q0 676 596 676q594 -3 594 -676q3 -676 -594 -676q-296 -2 -446 167.5t-150 508.5zM507 1497h22l2 7l101 188l8 14h-23l-2 -6 l-100 -188zM755 1497h22l2 7l101 188l8 14h-23l-2 -6l-100 -188z" />
<glyph unicode="&#x151;" horiz-adv-x="1146" d="M82 512q0 -251 126 -391.5t345 -140.5q219 -2 345 139t126 393q1 250 -125.5 391t-345.5 141q-218 -2 -344.5 -141.5t-126.5 -390.5zM102 512q0 246 119 379t332 133q214 -2 332.5 -134t118.5 -378q1 -246 -118.5 -379t-332.5 -133q-211 -2 -331 132.5t-120 379.5z M363 1186h22l2 6l100 188l9 15h-23l-2 -6l-100 -189zM610 1186h23l2 6l100 188l8 15h-22l-2 -6l-100 -189z" />
<glyph unicode="&#x152;" horiz-adv-x="2007" d="M82 676q0 -249 61.5 -399t179.5 -213.5t308 -63.5q206 -2 323 92t156 310v-392v-10h10h795h10v20h-10h-785v637q0 1 0.5 4t0.5 5h567h10v20h-10h-567q0 2 -0.5 4t-0.5 4v637h785h10v21h-10h-795h-10v-11v-394q-40 216 -157 310.5t-322 94.5q-141 -1 -241 -36t-170.5 -114 t-104 -209t-33.5 -317zM102 676q0 185 31.5 311t98.5 202t163.5 109t235.5 33q167 -1 269.5 -60t155.5 -199t54 -377v-9v-10v-10v-10q-1 -238 -54.5 -378.5t-155.5 -199t-269 -58.5q-138 -1 -234.5 32t-164 109t-99 203t-31.5 312z" />
<glyph unicode="&#x153;" horiz-adv-x="1802" d="M82 512q0 -251 113.5 -391.5t308.5 -140.5q169 -1 277 101t138 290q27 -189 124.5 -290t250.5 -101q118 -1 198.5 24.5t180.5 81.5l-8 16q-96 -53 -176 -77.5t-195 -24.5q-170 -2 -266 129.5t-98 372.5h739h10v10v356v4l-4 5q-71 67 -170.5 117t-210.5 50 q-151 -2 -249 -102.5t-126 -286.5q-30 185 -139 287t-276 102q-195 -2 -308.5 -142t-113.5 -390zM102 512q0 245 106.5 378.5t295.5 133.5q193 -2 299 -134t106 -378q1 -247 -106 -379.5t-299 -132.5q-188 -2 -295 132.5t-107 379.5zM930 522q4 240 99.5 371t264.5 131 q107 -1 202.5 -49t162.5 -111v-342h-729z" />
<glyph unicode="&#x154;" horiz-adv-x="1267" d="M164 0h20v10v574h504h10q43 0 77.5 -6.5t63.5 -21.5t52 -33t44 -49t37.5 -61t34.5 -76.5t33 -88t36 -103.5q30 -89 48 -139l2 -6h23l-4 14q-17 47 -40 113.5t-36 104.5t-33 89.5t-34.5 81t-36 64t-42.5 55.5t-49 39t-61 28q160 18 224.5 105t64.5 273q2 215 -85.5 300 t-318.5 85l-522 -2h-10v-11l-2 -1329v-10zM184 602v729h514q155 -1 236.5 -35.5t114 -110t32.5 -218.5q2 -208 -79.5 -285.5t-303.5 -77.5h-10zM540 1473h28l4 4l185 189l16 16h-29l-4 -4l-184 -188z" />
<glyph unicode="&#x155;" horiz-adv-x="727" d="M154 0h20v10v492v10q0 78 11.5 140t30 107.5t52.5 81.5t67.5 59.5t86.5 43.5t99.5 32.5t115.5 27.5l10 2l-4 20l-10 -2q-80 -17 -131.5 -32t-111 -40.5t-97.5 -57.5t-70 -81.5t-49 -114.5v316v10h-20v-10v-502v-10v-492v-10zM284 1164h28l4 4l185 188l16 17h-29l-4 -4 l-184 -189z" />
<glyph unicode="&#x156;" horiz-adv-x="1267" d="M164 0h20v10v574h504h10q43 0 77.5 -6.5t63.5 -21.5t52 -33t44 -49t37.5 -61t34.5 -76.5t33 -88t36 -103.5q30 -89 48 -139l2 -6h23l-4 14q-17 47 -40 113.5t-36 104.5t-33 89.5t-34.5 81t-36 64t-42.5 55.5t-49 39t-61 28q160 18 224.5 105t64.5 273q2 215 -85.5 300 t-318.5 85l-522 -2h-10v-11l-2 -1329v-10zM184 602v729h514q155 -1 236.5 -35.5t114 -110t32.5 -218.5q2 -208 -79.5 -285.5t-303.5 -77.5h-10zM456 -356h194q86 -1 146.5 40.5t60.5 100.5q1 51 -62.5 76.5t-160.5 25.5q26 69 26 113h-20q0 -15 -3.5 -33t-8 -30.5t-11 -30.5 t-8.5 -25l-4 -14h4q228 0 228 -82q1 -51 -53 -86t-134 -35l-192 -2z" />
<glyph unicode="&#x157;" horiz-adv-x="727" d="M-31 -342h195q86 -1 146.5 40.5t60.5 100.5q1 51 -63 77t-161 26q23 58 26 98h1v10v4v488v10q0 78 11.5 140t30 107.5t52.5 81.5t67.5 59.5t86.5 43.5t99.5 32.5t115.5 27.5l10 2l-4 20l-10 -2q-80 -17 -131.5 -32t-111 -40.5t-97.5 -57.5t-70 -81.5t-49 -114.5v316v10 h-20v-10v-502v-10v-488q0 -19 -4.5 -39t-15 -48t-11.5 -31l-4 -15h4q227 0 227 -82q1 -51 -52.5 -86t-133.5 -35l-193 -2z" />
<glyph unicode="&#x158;" horiz-adv-x="1267" d="M164 0h20v10v574h504h10q43 0 77.5 -6.5t63.5 -21.5t52 -33t44 -49t37.5 -61t34.5 -76.5t33 -88t36 -103.5q30 -89 48 -139l2 -6h23l-4 14q-17 47 -40 113.5t-36 104.5t-33 89.5t-34.5 81t-36 64t-42.5 55.5t-49 39t-61 28q160 18 224.5 105t64.5 273q2 215 -85.5 300 t-318.5 85l-522 -2h-10v-11l-2 -1329v-10zM184 602v729h514q155 -1 236.5 -35.5t114 -110t32.5 -218.5q2 -208 -79.5 -285.5t-303.5 -77.5h-10zM456 1647l20 -18l174 -150l6 -6l7 6l174 150l20 18h-31l-2 -2l-168 -143l-168 143l-2 2h-30z" />
<glyph unicode="&#x159;" horiz-adv-x="727" d="M154 0h20v10v492v10q0 78 11.5 140t30 107.5t52.5 81.5t67.5 59.5t86.5 43.5t99.5 32.5t115.5 27.5l10 2l-4 20l-10 -2q-80 -17 -131.5 -32t-111 -40.5t-97.5 -57.5t-70 -81.5t-49 -114.5v316v10h-20v-10v-502v-10v-492v-10zM200 1338l20 -18l174 -150l6 -6l7 6l174 150 l20 18h-31l-2 -2l-168 -143l-168 143l-2 2h-30z" />
<glyph unicode="&#x15a;" horiz-adv-x="1103" d="M6 145q143 -81 253.5 -122.5t232.5 -42.5q253 0 371 97t118 265q1 56 -25.5 104.5t-64.5 82.5t-103 68t-117 54.5t-132 48.5q-199 73 -264 106q-151 77 -167 177q-2 13 -2 27q2 158 98 250t288 92q39 0 76.5 -5.5t65.5 -11.5t61 -20.5t51 -23t49.5 -29.5t43 -29.5 t43.5 -33t40 -30.5l12 17q-7 6 -40 31t-44.5 33.5t-44 30t-51.5 30t-53 23.5t-63 21t-67.5 11.5t-78.5 5.5q-198 -1 -302 -99.5t-104 -262.5q1 -49 27.5 -92t54.5 -70t99.5 -61.5t104.5 -47.5t126 -47q21 -8 32 -12q57 -20 93.5 -33.5t87 -35t82 -39.5t67 -44t55.5 -53 t33 -61t13 -72q2 -163 -109.5 -252.5t-359.5 -89.5q-119 1 -228 41.5t-250 120.5zM377 1497h29l4 5l184 188l16 16h-28l-4 -4l-185 -188z" />
<glyph unicode="&#x15b;" horiz-adv-x="972" d="M37 98q102 -46 151 -65.5t117.5 -36t136.5 -16.5q181 -2 294.5 75t113.5 207q1 54 -26.5 97t-81 73.5t-114.5 51t-143 38.5q-70 14 -114.5 25.5t-93 31t-75.5 42.5t-45 59t-18 82q1 121 83 191.5t220 70.5q81 -1 189.5 -41.5t159.5 -79.5l12 17q-54 40 -167 82t-194 42 q-144 -2 -233.5 -78t-89.5 -204q0 -43 12.5 -77.5t38.5 -59.5t54.5 -43.5t74.5 -33.5t84.5 -24.5t97.5 -21.5q65 -14 114 -28t95 -35t75 -45t46.5 -57.5t17.5 -74.5q1 -123 -105 -192.5t-282 -69.5q-65 -1 -134.5 16.5t-110 35t-152.5 67.5zM327 1186h28l4 4l185 188l16 17 h-29l-4 -4l-184 -189z" />
<glyph unicode="&#x15c;" horiz-adv-x="1103" d="M6 145q143 -81 253.5 -122.5t232.5 -42.5q253 0 371 97t118 265q1 56 -25.5 104.5t-64.5 82.5t-103 68t-117 54.5t-132 48.5q-199 73 -264 106q-151 77 -167 177q-2 13 -2 27q2 158 98 250t288 92q39 0 76.5 -5.5t65.5 -11.5t61 -20.5t51 -23t49.5 -29.5t43 -29.5 t43.5 -33t40 -30.5l12 17q-7 6 -40 31t-44.5 33.5t-44 30t-51.5 30t-53 23.5t-63 21t-67.5 11.5t-78.5 5.5q-198 -1 -302 -99.5t-104 -262.5q1 -49 27.5 -92t54.5 -70t99.5 -61.5t104.5 -47.5t126 -47q21 -8 32 -12q57 -20 93.5 -33.5t87 -35t82 -39.5t67 -44t55.5 -53 t33 -61t13 -72q2 -163 -109.5 -252.5t-359.5 -89.5q-119 1 -228 41.5t-250 120.5zM293 1497h31l2 3l168 143l168 -143l2 -3h30l-20 19l-174 149l-6 7l-7 -7l-174 -149z" />
<glyph unicode="&#x15d;" horiz-adv-x="972" d="M37 98q102 -46 151 -65.5t117.5 -36t136.5 -16.5q181 -2 294.5 75t113.5 207q1 54 -26.5 97t-81 73.5t-114.5 51t-143 38.5q-70 14 -114.5 25.5t-93 31t-75.5 42.5t-45 59t-18 82q1 121 83 191.5t220 70.5q81 -1 189.5 -41.5t159.5 -79.5l12 17q-54 40 -167 82t-194 42 q-144 -2 -233.5 -78t-89.5 -204q0 -43 12.5 -77.5t38.5 -59.5t54.5 -43.5t74.5 -33.5t84.5 -24.5t97.5 -21.5q65 -14 114 -28t95 -35t75 -45t46.5 -57.5t17.5 -74.5q1 -123 -105 -192.5t-282 -69.5q-65 -1 -134.5 16.5t-110 35t-152.5 67.5zM243 1186h30l2 2l168 143 l168 -143l2 -2h31l-20 18l-174 150l-7 6l-6 -6l-174 -150z" />
<glyph unicode="&#x15e;" horiz-adv-x="1103" d="M6 145q143 -81 253.5 -122.5t232.5 -42.5h-15q0 -15 -3.5 -33t-8 -30.5t-11 -30.5t-8.5 -25l-4 -15h4q228 0 228 -82q1 -51 -53 -85.5t-134 -34.5l-192 -2l-2 -19h194q86 -1 146.5 40.5t60.5 100.5q1 51 -62.5 77t-160.5 26q27 72 27 113h-6q253 0 371 97t118 265 q1 56 -25.5 104.5t-64.5 82.5t-103 68t-117 54.5t-132 48.5q-199 73 -264 106q-151 77 -167 177q-2 13 -2 27q2 158 98 250t288 92q39 0 76.5 -5.5t65.5 -11.5t61 -20.5t51 -23t49.5 -29.5t43 -29.5t43.5 -33t40 -30.5l12 17q-7 6 -40 31t-44.5 33.5t-44 30t-51.5 30 t-53 23.5t-63 21t-67.5 11.5t-78.5 5.5q-198 -1 -302 -99.5t-104 -262.5q1 -49 27.5 -92t54.5 -70t99.5 -61.5t104.5 -47.5t126 -47q21 -8 32 -12q57 -20 93.5 -33.5t87 -35t82 -39.5t67 -44t55.5 -53t33 -61t13 -72q2 -163 -109.5 -252.5t-359.5 -89.5q-119 1 -228 41.5 t-250 120.5z" />
<glyph unicode="&#x15f;" horiz-adv-x="972" d="M37 98q80 -36 116 -51t91.5 -34.5t100.5 -26.5t97 -7h-15q0 -19 -4.5 -39t-15 -48t-11.5 -31l-4 -15h4q228 0 228 -82q1 -51 -53 -85.5t-134 -34.5l-192 -2l-2 -19h194q86 -1 146.5 40.5t60.5 100.5q1 51 -62.5 77t-160.5 26q26 69 26 112q179 0 291 77t112 206 q1 54 -26.5 97t-81 73.5t-114.5 51t-143 38.5q-70 14 -114.5 25.5t-93 31t-75.5 42.5t-45 59t-18 82q1 121 83 191.5t220 70.5q81 -1 189.5 -41.5t159.5 -79.5l12 17q-54 40 -167 82t-194 42q-144 -2 -233.5 -78t-89.5 -204q0 -43 12.5 -77.5t38.5 -59.5t54.5 -43.5 t74.5 -33.5t84.5 -24.5t97.5 -21.5q65 -14 114 -28t95 -35t75 -45t46.5 -57.5t17.5 -74.5q1 -123 -105 -192.5t-282 -69.5q-65 -1 -134.5 16.5t-110 35t-152.5 67.5z" />
<glyph unicode="&#x160;" horiz-adv-x="1103" d="M6 145q143 -81 253.5 -122.5t232.5 -42.5q253 0 371 97t118 265q1 56 -25.5 104.5t-64.5 82.5t-103 68t-117 54.5t-132 48.5q-199 73 -264 106q-151 77 -167 177q-2 13 -2 27q2 158 98 250t288 92q39 0 76.5 -5.5t65.5 -11.5t61 -20.5t51 -23t49.5 -29.5t43 -29.5 t43.5 -33t40 -30.5l12 17q-7 6 -40 31t-44.5 33.5t-44 30t-51.5 30t-53 23.5t-63 21t-67.5 11.5t-78.5 5.5q-198 -1 -302 -99.5t-104 -262.5q1 -49 27.5 -92t54.5 -70t99.5 -61.5t104.5 -47.5t126 -47q21 -8 32 -12q57 -20 93.5 -33.5t87 -35t82 -39.5t67 -44t55.5 -53 t33 -61t13 -72q2 -163 -109.5 -252.5t-359.5 -89.5q-119 1 -228 41.5t-250 120.5zM293 1672l20 -19l174 -149l7 -7l6 7l174 149l20 19h-30l-2 -2l-168 -144l-168 144l-2 2h-31z" />
<glyph unicode="&#x161;" horiz-adv-x="972" d="M37 98q102 -46 151 -65.5t117.5 -36t136.5 -16.5q181 -2 294.5 75t113.5 207q1 54 -26.5 97t-81 73.5t-114.5 51t-143 38.5q-70 14 -114.5 25.5t-93 31t-75.5 42.5t-45 59t-18 82q1 121 83 191.5t220 70.5q81 -1 189.5 -41.5t159.5 -79.5l12 17q-54 40 -167 82t-194 42 q-144 -2 -233.5 -78t-89.5 -204q0 -43 12.5 -77.5t38.5 -59.5t54.5 -43.5t74.5 -33.5t84.5 -24.5t97.5 -21.5q65 -14 114 -28t95 -35t75 -45t46.5 -57.5t17.5 -74.5q1 -123 -105 -192.5t-282 -69.5q-65 -1 -134.5 16.5t-110 35t-152.5 67.5zM243 1360l20 -19l174 -149l6 -6 l7 6l174 149l20 19h-31l-2 -2l-168 -144l-168 144l-2 2h-30z" />
<glyph unicode="&#x162;" horiz-adv-x="1146" d="M41 1331h10h494v-1321v-10h-8q0 -15 -3.5 -33t-8 -30.5t-11 -30.5t-8.5 -25l-4 -14h4q227 0 227 -82q1 -51 -52.5 -86t-133.5 -35l-193 -2l-2 -18h195q86 -1 146.5 40.5t60.5 100.5q1 51 -63 76.5t-161 25.5q27 72 27 113h8v10v1321h490h10v21h-10h-490h-20h-494h-10v-21 z" />
<glyph unicode="&#x163;" horiz-adv-x="614" d="M41 1004h10h166v-492q1 -223 53 -332t164 -154q0 -19 -4.5 -39t-15 -48t-11.5 -31l-4 -14h4q228 0 228 -82q1 -51 -53 -86t-134 -35l-192 -2l-2 -18h194q86 -1 146.5 40.5t60.5 100.5q1 51 -62.5 76.5t-160.5 25.5q24 60 26 105q40 -13 66 -19l10 -2l5 20l-11 2 q-62 15 -104.5 35.5t-79 56t-58 88t-33 129.5t-11.5 183l1 492h283h10v20h-10h-283l1 203l2 10l-23 2l-2 -10v-205h-166h-10v-20z" />
<glyph unicode="&#x164;" horiz-adv-x="1146" d="M41 1331h10h494v-1321v-10h20v10v1321h490h10v21h-10h-490h-20h-494h-10v-21zM352 1647l21 -18l174 -150l6 -6l6 6l174 150l21 18h-31l-2 -2l-168 -143l-168 143l-2 2h-31z" />
<glyph unicode="&#x165;" horiz-adv-x="669" d="M41 1004h10h166v-492q1 -135 19 -227t58.5 -149t93 -87t132.5 -49l10 -2l5 20l-11 2q-62 15 -104.5 35.5t-79 56t-58 88t-33 129.5t-11.5 183l1 492h283h10v20h-10h-283l1 203l2 10l-23 2l-2 -10v-205h-166h-10v-20zM545 965h20v10v299v11h-20v-11v-299v-10z" />
<glyph unicode="&#x166;" horiz-adv-x="1146" d="M41 1331h10h494v-645h-279h-10v-20h10h279v-656v-10h20v10v656h275h10v20h-10h-275v645h490h10v21h-10h-490h-20h-494h-10v-21z" />
<glyph unicode="&#x167;" horiz-adv-x="614" d="M41 1004h10h166v-492q1 -135 19 -227t58.5 -149t93 -87t132.5 -49l10 -2l5 20l-11 2q-62 15 -104.5 35.5t-79 56t-58 88t-33 129.5t-11.5 183l1 492h283h10v20h-10h-283l1 203l2 10l-23 2l-2 -10v-205h-166h-10v-20z" />
<glyph unicode="&#x168;" horiz-adv-x="1392" d="M164 508q1 -130 39.5 -231.5t107 -166t161 -97.5t204.5 -33q161 -1 296.5 55t213.5 133l2 4v336v833v11h-21v-11v-833v-328q-72 -72 -203 -126t-288 -54q-108 -1 -197.5 30.5t-155.5 93.5t-102.5 160t-36.5 224l2 831l2 11l-22 2l-2 -11v-833zM430 1485h21q0 54 31 90.5 t77 36.5q27 -1 48.5 -11.5t31 -20t29.5 -31.5q27 -35 55.5 -54.5t69.5 -19.5q53 -1 91 43.5t38 104.5h-21q0 -53 -31.5 -90t-76.5 -37q-35 -1 -59 15.5t-50 49.5q-21 23 -32.5 34.5t-37.5 24.5t-55 13q-52 -2 -90.5 -45.5t-38.5 -102.5z" />
<glyph unicode="&#x169;" d="M123 369q2 -182 107 -285.5t305 -103.5q126 -1 234.5 36t168.5 90l4 5v258v645v10h-20v-10v-645v-250q-56 -49 -160.5 -84t-226.5 -35q-192 -1 -292 97t-100 272l2 643l2 10l-22 2l-2 -10v-645zM287 1174h20q0 54 31.5 90.5t77.5 36.5q27 -1 48.5 -12t30 -19.5 t29.5 -32.5q57 -73 125 -73q53 -1 91 43t38 104h-20q0 -53 -31.5 -90t-77.5 -37q-35 -1 -58 15.5t-50 50.5q-20 23 -32 34.5t-38 24t-55 12.5q-52 -2 -90.5 -45t-38.5 -102z" />
<glyph unicode="&#x16a;" horiz-adv-x="1392" d="M164 508q1 -130 39.5 -231.5t107 -166t161 -97.5t204.5 -33q161 -1 296.5 55t213.5 133l2 4v336v833v11h-21v-11v-833v-328q-72 -72 -203 -126t-288 -54q-108 -1 -197.5 30.5t-155.5 93.5t-102.5 160t-36.5 224l2 831l2 11l-22 2l-2 -11v-833zM461 1475h10h410h10v21h-10 h-410h-10v-21z" />
<glyph unicode="&#x16b;" d="M123 369q2 -182 107 -285.5t305 -103.5q126 -1 234.5 36t168.5 90l4 5v258v645v10h-20v-10v-645v-250q-56 -49 -160.5 -84t-226.5 -35q-192 -1 -292 97t-100 272l2 643l2 10l-22 2l-2 -10v-645zM317 1163h11h409h11v21h-11h-409h-11v-21z" />
<glyph unicode="&#x16c;" horiz-adv-x="1392" d="M164 508q1 -130 39.5 -231.5t107 -166t161 -97.5t204.5 -33q161 -1 296.5 55t213.5 133l2 4v336v833v11h-21v-11v-833v-328q-72 -72 -203 -126t-288 -54q-108 -1 -197.5 30.5t-155.5 93.5t-102.5 160t-36.5 224l2 831l2 11l-22 2l-2 -11v-833zM471 1629q0 -64 60.5 -109 t144.5 -45q85 -1 145 44.5t60 109.5h-21q0 -56 -53 -94.5t-131 -38.5q-75 -1 -129.5 38t-54.5 95h-21z" />
<glyph unicode="&#x16d;" d="M123 369q2 -182 107 -285.5t305 -103.5q126 -1 234.5 36t168.5 90l4 5v258v645v10h-20v-10v-645v-250q-56 -49 -160.5 -84t-226.5 -35q-192 -1 -292 97t-100 272l2 643l2 10l-22 2l-2 -10v-645zM328 1317q0 -64 60 -108.5t144 -44.5q85 -1 145 44t60 109h-20 q0 -56 -53.5 -94.5t-131.5 -38.5q-75 -1 -129.5 38t-54.5 95h-20z" />
<glyph unicode="&#x16e;" horiz-adv-x="1392" d="M164 508q1 -130 39.5 -231.5t107 -166t161 -97.5t204.5 -33q161 -1 296.5 55t213.5 133l2 4v336v833v11h-21v-11v-833v-328q-72 -72 -203 -126t-288 -54q-108 -1 -197.5 30.5t-155.5 93.5t-102.5 160t-36.5 224l2 831l2 11l-22 2l-2 -11v-833zM502 1617q0 -142 174 -142 q174 -3 174 142q2 68 -42 104.5t-132 36.5q-174 -3 -174 -141zM522 1617q0 63 35.5 91.5t118.5 28.5q84 -1 118.5 -28.5t34.5 -91.5q2 -65 -34 -93t-119 -28q-81 -1 -117.5 28t-36.5 93z" />
<glyph unicode="&#x16f;" d="M123 369q2 -182 107 -285.5t305 -103.5q126 -1 234.5 36t168.5 90l4 5v258v645v10h-20v-10v-645v-250q-56 -49 -160.5 -84t-226.5 -35q-192 -1 -292 97t-100 272l2 643l2 10l-22 2l-2 -10v-645zM358 1305q0 -141 174 -141q175 -3 175 141q2 68 -42.5 104.5t-132.5 36.5 q-174 -3 -174 -141zM379 1305q0 64 35.5 92.5t117.5 28.5q84 -1 119 -29t35 -92q1 -64 -35 -92.5t-119 -28.5q-81 -1 -117 28t-36 93z" />
<glyph unicode="&#x170;" horiz-adv-x="1392" d="M164 508q1 -130 39.5 -231.5t107 -166t161 -97.5t204.5 -33q161 -1 296.5 55t213.5 133l2 4v336v833v11h-21v-11v-833v-328q-72 -72 -203 -126t-288 -54q-108 -1 -197.5 30.5t-155.5 93.5t-102.5 160t-36.5 224l2 831l2 11l-22 2l-2 -11v-833zM485 1475h23l2 6l100 189 l8 14h-22l-2 -6l-100 -188zM733 1475h23l2 6l100 189l8 14h-22l-2 -6l-101 -188z" />
<glyph unicode="&#x171;" d="M123 369q2 -182 107 -285.5t305 -103.5q126 -1 234.5 36t168.5 90l4 5v258v645v10h-20v-10v-645v-250q-56 -49 -160.5 -84t-226.5 -35q-192 -1 -292 97t-100 272l2 643l2 10l-22 2l-2 -10v-645zM342 1163h23l2 7l100 188l8 14h-22l-2 -6l-101 -188zM590 1163h22l2 7 l101 188l8 14h-23l-2 -6l-100 -188z" />
<glyph unicode="&#x172;" horiz-adv-x="1392" d="M164 508q1 -130 39.5 -231.5t107 -166t161 -97.5t204.5 -33q37 0 55 1q-106 -106 -106 -197q1 -41 35.5 -72t87.5 -36t116 28l11 4l-11 19l-8 -7q-59 -29 -106 -25t-76 29.5t-29 59.5q1 26 12 55t27 52t32 42.5t27 30.5l11 10l8 9h-1q134 13 246 66t179 119l2 4v336v833 v11h-21v-11v-833v-328q-72 -72 -203 -126t-288 -54q-108 -1 -197.5 30.5t-155.5 93.5t-102.5 160t-36.5 224l2 831l2 11l-22 2l-2 -11v-833z" />
<glyph unicode="&#x173;" d="M123 369q2 -182 107 -285.5t305 -103.5q39 0 77 3q-20 -20 -41 -44.5t-44 -70t-23 -84.5q1 -41 36 -72t88 -36t116 28l10 4l-10 19l-9 -7q-59 -29 -105.5 -25t-75.5 29.5t-29 59.5q1 41 28 88.5t53 74.5l27 27l8 9l-3 3q96 13 175 46t125 74l4 5v258v645v10h-20v-10v-645 v-250q-56 -49 -160.5 -84t-226.5 -35q-192 -1 -292 97t-100 272l2 643l2 10l-22 2l-2 -10v-645z" />
<glyph unicode="&#x174;" horiz-adv-x="1681" d="M39 1352l2 -13l307 -1331l2 -8h8l76 2h8l2 8l332 1319l45 2l43 -2l332 -1319l2 -8h8l76 -2h8l2 8l307 1331l3 13h-21l-2 -9l-305 -1323l-60 3l-331 1318l-2 9h-9l-51 2l-53 -2h-8l-2 -9l-332 -1318l-59 -3l-306 1323l-2 9h-20zM620 1473h30l2 2l168 144l168 -144l2 -2h31 l-21 19l-174 149l-6 6l-6 -6l-174 -149z" />
<glyph unicode="&#x175;" horiz-adv-x="1433" d="M39 1024l2 -12l266 -1004l2 -8h8h58h8l2 8l281 1016h30h31l283 -1016l2 -8h8h55h8l2 8l267 1004l2 12h-21l-2 -8l-264 -996h-39l-283 1016l-2 8h-8h-39h-39h-8l-2 -8l-280 -1016h-41l-265 996l-2 8h-20zM496 1184h30l2 2l168 143l168 -143l2 -2h31l-20 18l-175 150l-6 6 l-6 -6l-174 -150z" />
<glyph unicode="&#x176;" horiz-adv-x="1228" d="M74 1352l10 -17l504 -871v-454v-10h20v10v456l496 871l10 15h-24l-3 -6l-489 -859l-498 861l-2 4h-24zM393 1473h31l2 2l168 144l168 -144l2 -2h31l-21 19l-174 149l-6 6l-6 -6l-174 -149z" />
<glyph unicode="&#x177;" horiz-adv-x="942" d="M37 1024l4 -12l307 -998l2 -6l6 -2l122 -24q-69 -164 -149.5 -237.5t-187.5 -102.5l-8 -2v-23l12 4q110 29 197 108.5t159 249.5l1 1l2 6l356 1024l4 14h-22l-2 -6l-354 -1016l-119 23l-306 991l-2 8h-22zM250 1196h31l2 2l168 143l167 -143l3 -2h30l-20 19l-174 149 l-6 6l-7 -6l-174 -149z" />
<glyph unicode="&#x178;" horiz-adv-x="1228" d="M74 1352l10 -17l504 -871v-454v-10h20v10v456l496 871l10 15h-24l-3 -6l-489 -859l-498 861l-2 4h-24zM389 1473h62v31v2v31h-62v-31v-2v-31zM737 1473h62v31v2v31h-62v-31v-2v-31z" />
<glyph unicode="&#x179;" horiz-adv-x="1144" d="M74 0h8h10h961h10v20h-10h-942l854 1315l10 17h-8h-11h-815h-10v-21h10h797l-854 -1315zM452 1473h28l4 4l185 189l16 16h-29l-4 -4l-184 -188z" />
<glyph unicode="&#x17a;" horiz-adv-x="983" d="M72 0h10h10h799h10v20h-10h-778l696 988l12 16h-10h-10h-664h-10v-20h10h643l-696 -988zM370 1162h28l4 4l185 188l16 17h-29l-4 -5l-184 -188z" />
<glyph unicode="&#x17b;" horiz-adv-x="1144" d="M74 0h8h10h961h10v20h-10h-942l854 1315l10 17h-8h-11h-815h-10v-21h10h797l-854 -1315zM538 1473h61v31v2v31h-61v-31v-2v-31z" />
<glyph unicode="&#x17c;" horiz-adv-x="983" d="M72 0h10h10h799h10v20h-10h-778l696 988l12 16h-10h-10h-664h-10v-20h10h643l-696 -988zM456 1162h61v30v2v31h-61v-31v-2v-30z" />
<glyph unicode="&#x17d;" horiz-adv-x="1144" d="M74 0h8h10h961h10v20h-10h-942l854 1315l10 17h-8h-11h-815h-10v-21h10h797l-854 -1315zM368 1647l20 -18l174 -150l6 -6l6 6l175 150l20 18h-31l-2 -2l-168 -143l-168 143l-2 2h-30z" />
<glyph unicode="&#x17e;" horiz-adv-x="983" d="M72 0h10h10h799h10v20h-10h-778l696 988l12 16h-10h-10h-664h-10v-20h10h643l-696 -988zM286 1336l20 -19l174 -149l6 -6l7 6l174 149l20 19h-31l-2 -2l-168 -144l-168 144l-2 2h-30z" />
<glyph unicode="&#x17f;" horiz-adv-x="440" d="M160 1014l2 -1006l2 -10l18 4l-2 8v1004q1 81 13.5 137.5t32.5 90.5t57 55t74 29.5t96 14.5l8 2l-2 19h-10q-60 -6 -98 -15t-78 -31t-62 -58t-36.5 -97t-14.5 -147z" />
<glyph unicode="&#x192;" horiz-adv-x="757" d="M-2 -332l4 -20l10 2q116 16 172 97.5t99 260.5l169 996h181h10v20h-10h-177l1 6q44 164 110 232.5t201 78.5h10v21h-10q-141 -10 -214.5 -85.5t-117.5 -242.5l-2 -10h-162h-10v-20h10h159l-169 -992q-43 -176 -93.5 -251t-160.5 -91z" />
<glyph unicode="&#x2c6;" horiz-adv-x="532" d="M66 1202h30l2 2l168 144l168 -144l2 -2h31l-21 19l-174 149l-6 6l-6 -6l-174 -149z" />
<glyph unicode="&#x2c7;" horiz-adv-x="532" d="M66 1372l20 -18l174 -150l6 -6l6 6l174 150l21 18h-31l-2 -2l-168 -143l-168 143l-2 2h-30z" />
<glyph unicode="&#x2c9;" horiz-adv-x="563" d="M51 1184h10h410h10v20h-10h-410h-10v-20z" />
<glyph unicode="&#x2ca;" horiz-adv-x="348" d="M47 1184h29l4 4l184 188l17 17h-29l-4 -4l-185 -189z" />
<glyph unicode="&#x2cb;" horiz-adv-x="348" d="M47 1393l16 -17l185 -188l4 -4h29l-17 16l-184 189l-4 4h-29z" />
<glyph unicode="&#x2cd;" horiz-adv-x="604" d="M82 -236v-20h10h430h10v20h-10h-430h-10z" />
<glyph unicode="&#x2d7;" horiz-adv-x="696" d="M51 362h10h574h10v21h-10h-574h-10v-21z" />
<glyph unicode="&#x2d8;" horiz-adv-x="573" d="M82 1382q0 -64 60.5 -108.5t144.5 -44.5q85 -1 145 44t60 109h-21q0 -56 -53 -94.5t-131 -38.5q-75 -2 -130 38t-55 95h-20z" />
<glyph unicode="&#x2d9;" horiz-adv-x="573" d="M256 1362h61v31v2v30h-61v-30v-2v-31z" />
<glyph unicode="&#x2da;" horiz-adv-x="552" d="M113 1221q0 -142 174 -142q174 -3 174 142q2 68 -42 104.5t-132 36.5q-174 -3 -174 -141zM133 1221q0 63 35.5 91.5t118.5 28.5q84 -1 118.5 -28.5t34.5 -91.5q2 -65 -34 -93t-119 -28q-81 -1 -117.5 28t-36.5 93z" />
<glyph unicode="&#x2db;" horiz-adv-x="378" d="M51 -205q1 -41 36 -72t88 -36t116 28l10 4l-10 19l-8 -6q-59 -29 -106 -25.5t-76 29t-29 59.5q1 41 28 88.5t54 74.5l26 28l8 8l-14 14l-6 -6q-5 -4 -13 -12t-28 -31.5t-35.5 -47t-28 -55.5t-12.5 -61z" />
<glyph unicode="&#x2dc;" horiz-adv-x="665" d="M92 1266h21q0 54 31 90.5t77 36.5q27 -1 48.5 -11.5t31 -20t29.5 -32.5q27 -35 55.5 -54.5t69.5 -19.5q53 -1 91 43.5t38 104.5h-21q0 -53 -31.5 -90t-76.5 -37q-35 -1 -59 15.5t-50 49.5q-21 23 -32.5 34.5t-37.5 24.5t-55 13q-52 -2 -90.5 -45t-38.5 -102z" />
<glyph unicode="&#x2dd;" horiz-adv-x="532" d="M76 1184h22l2 6l101 188l8 15h-23l-2 -7l-100 -188zM324 1184h22l2 6l101 188l8 15h-23l-2 -7l-100 -188z" />
<glyph unicode="&#x2000;" horiz-adv-x="891" />
<glyph unicode="&#x2001;" horiz-adv-x="1783" />
<glyph unicode="&#x2002;" horiz-adv-x="891" />
<glyph unicode="&#x2003;" horiz-adv-x="1783" />
<glyph unicode="&#x2004;" horiz-adv-x="594" />
<glyph unicode="&#x2005;" horiz-adv-x="445" />
<glyph unicode="&#x2006;" horiz-adv-x="297" />
<glyph unicode="&#x2007;" horiz-adv-x="297" />
<glyph unicode="&#x2008;" horiz-adv-x="222" />
<glyph unicode="&#x2009;" horiz-adv-x="356" />
<glyph unicode="&#x200a;" horiz-adv-x="99" />
<glyph unicode="&#x2013;" horiz-adv-x="1064" d="M-72 459h1209v20h-1209v-20z" />
<glyph unicode="&#x2014;" horiz-adv-x="1884" d="M-72 459h2028v20h-2028v-20z" />
<glyph unicode="&#x2018;" horiz-adv-x="266" d="M92 1006h21v10q0 67 1.5 98t10.5 74t29.5 73.5t56.5 61.5l8 6l-12 17l-8 -7q-31 -27 -52 -56.5t-31.5 -55t-16 -65t-6.5 -66.5t-1 -80v-10z" />
<glyph unicode="&#x2019;" horiz-adv-x="266" d="M88 1016l14 -15l7 7q31 29 51.5 60.5t31.5 57t16 65.5t6 64.5t1 75.5v10h-20v-10q0 -81 -3.5 -121t-26 -91t-69.5 -95z" />
<glyph unicode="&#x201a;" horiz-adv-x="307" d="M88 -264l12 -17l9 7q32 26 52 51.5t31 47t16 61.5t6 68.5t1 94.5v10h-20v-10q0 -64 -1 -93.5t-5.5 -66.5t-15.5 -57.5t-29 -43t-48 -46.5z" />
<glyph unicode="&#x201c;" horiz-adv-x="491" d="M113 1006h20v10q0 64 1.5 95t8.5 74.5t24 75.5t46 64l6 6l-14 15l-8 -9q-30 -33 -48 -67.5t-25.5 -79.5t-9 -77t-1.5 -97v-10zM317 1006h21v10q0 64 1.5 95t8.5 74.5t24 75.5t46 64l6 6l-14 15l-9 -9q-30 -33 -48 -67.5t-25.5 -79.5t-9 -77t-1.5 -97v-10z" />
<glyph unicode="&#x201d;" horiz-adv-x="501" d="M68 1016l14 -15l8 9q30 33 48 67.5t25.5 79.5t9 77t1.5 97v10h-20v-10q0 -64 -1.5 -95t-8.5 -74.5t-24 -75.5t-46 -64zM272 1016l15 -15l8 9q30 33 48 67.5t25.5 79.5t9 77t1.5 97v10h-21v-10q0 -54 -0.5 -77.5t-4.5 -63t-12 -62.5t-23.5 -51.5t-38.5 -54.5z" />
<glyph unicode="&#x201e;" horiz-adv-x="501" d="M109 -266l14 -15l8 9q30 33 48 67.5t25.5 79.5t9 77t1.5 97v10h-20v-10q0 -64 -1.5 -95t-8.5 -74.5t-24 -75.5t-46 -64zM313 -266l15 -15l8 9q30 33 48 67.5t25.5 79.5t9 77t1.5 97v10h-21v-10q0 -64 -1.5 -95t-8.5 -74.5t-24 -75.5t-46 -64z" />
<glyph unicode="&#x2020;" horiz-adv-x="1024" d="M41 963h10h451v-1209v-10h20v10v1209h451h10v20h-10h-451v287v10h-20v-10v-287h-451h-10v-20z" />
<glyph unicode="&#x2021;" horiz-adv-x="1024" d="M41 47h10h451v-293v-10h20v10v293h451h10v21h-10h-451v895h451h10v20h-10h-451v287v10h-20v-10v-287h-451h-10v-20h10h451v-895h-451h-10v-21z" />
<glyph unicode="&#x202f;" horiz-adv-x="356" />
<glyph unicode="&#x2039;" horiz-adv-x="737" d="M123 532l4 -4l471 -444l2 -2h31l-21 18l-463 437l463 436l21 18h-31l-2 -2l-471 -444l-4 -4v-9z" />
<glyph unicode="&#x203a;" horiz-adv-x="737" d="M106 82h31l2 2l471 444l4 4v9l-4 4l-471 444l-2 2h-31l21 -18l463 -436l-463 -437z" />
<glyph unicode="&#x205f;" horiz-adv-x="445" />
<glyph unicode="&#x25fc;" horiz-adv-x="1024" d="M0 0v1024h1024v-1024h-1024z" />
</font>
</defs>
</svg>
