<?xml version="1.0" standalone="no"?>
<!DOCTYPE svg PUBLIC "-//W3C//DTD SVG 1.1//EN" "http://www.w3.org/Graphics/SVG/1.1/DTD/svg11.dtd" >
<svg xmlns="http://www.w3.org/2000/svg">
<metadata></metadata>
<defs>
<font id="ff4akloecond400" horiz-adv-x="368" >
<font-face units-per-em="2048" ascent="1638" descent="-410" />
<missing-glyph horiz-adv-x="500" />
<glyph unicode="!" horiz-adv-x="491" d="M164 0h164v82v2v82h-164v-82v-2v-82zM164 328h164v82v860v82h-164v-82v-860v-82z" />
<glyph unicode="&#x22;" horiz-adv-x="614" d="M82 891h164v82v297v82h-164v-82v-297v-82zM369 891h163v82v297v82h-163v-82v-297v-82z" />
<glyph unicode="#" horiz-adv-x="1146" d="M41 297h82h92l-29 -207l-12 -92h166l10 72l32 227h279l-28 -207l-12 -92h165l11 72l31 227h196h82v164h-82h-173l59 432h114h82v164h-82h-91l28 203l12 92h-166l-10 -72l-31 -223h-280l28 203l12 92h-166l-10 -72l-31 -223h-196h-82v-164h82h174l-60 -432h-114h-82v-164z M404 461l60 432h279l-59 -432h-280z" />
<glyph unicode="$" horiz-adv-x="1105" d="M82 903q1 -130 70 -221t139 -88h180v-320h-182h-82v-163h82h182v-29v-82h164v82v29h168q80 -3 150.5 86t70.5 233q1 142 -69 233.5t-148 94.5h-172v281l172 -1h82l-2 166h-82h-170v66v82h-164v-82v-66h-182h-2h-2q-69 -3 -136 -89.5t-67 -211.5zM246 903q1 51 8.5 84 t16.5 43t18 10h182v-282h-182h-2h-2q-3 0 -7.5 3.5t-10.5 14t-10.5 26t-7.5 42t-3 59.5zM635 274v320h168q17 0 29 -11.5t20 -49.5t8 -103q1 -64 -6.5 -100.5t-18.5 -46.5t-28 -9h-172z" />
<glyph unicode="%" horiz-adv-x="1433" d="M86 1008q1 -97 51.5 -184t133 -139t173.5 -52q116 -1 214 79l-465 -589l-87 -109h173l20 27l377 477q-43 -83 -43 -170q1 -90 52 -169.5t133 -126t173 -46.5q91 -1 174 46t133 126.5t50 167.5q1 95 -49 183t-133.5 142t-174.5 54q-120 0 -221 -88l471 596l86 108h-172 l-20 -26l-373 -471q39 81 39 162q1 133 -109 239.5t-248 106.5q-139 0 -248.5 -105t-109.5 -239zM250 1008q2 82 53.5 131t140.5 49t141 -49.5t52 -132.5q1 -98 -51.5 -153.5t-141.5 -55.5q-87 -2 -140.5 55.5t-53.5 155.5zM797 348q1 97 54.5 155t139.5 58q87 0 140 -58.5 t53 -156.5q1 -83 -50.5 -129.5t-142.5 -46.5q-89 -1 -141.5 47.5t-52.5 130.5z" />
<glyph unicode="&#x26;" horiz-adv-x="1310" d="M50 468q-5 -85 23.5 -168t84 -151t151.5 -110t217 -41q221 1 383 183q91 -86 187 -165l22 -18h260l-180 145q-84 68 -191 170q16 25 36 59.5t32.5 55t26 41t25 30t22.5 9.5l80 2v164l-84 -2q-30 -1 -60.5 -16t-52 -32t-53.5 -55.5t-48 -60t-51 -71.5q-189 193 -319 362 q60 37 99.5 64.5t80.5 63t61.5 71.5t20.5 73q1 65 -29.5 121t-77 90t-97.5 52.5t-95 17.5q-42 -1 -89 -18.5t-91.5 -50t-73.5 -88.5t-30 -124q-1 -69 91 -214q-184 -114 -241 -230v-2q-35 -72 -40 -157zM204.5 444q6.5 55 33.5 109q34 68 189 165q151 -202 355 -411 q-124 -144 -256 -145q-88 -1 -154.5 22.5t-103.5 63t-53.5 90.5t-10 106zM403 1067q1 66 34 92.5t91 28.5q59 2 95 -26.5t36 -90.5q1 -22 -40.5 -50t-129.5 -75l-9 -4.5t-7.5 -4t-8.5 -4.5q-61 95 -61 134z" />
<glyph unicode="'" horiz-adv-x="327" d="M92 913h144v72v285v71h-144v-71v-285v-72z" />
<glyph unicode="(" horiz-adv-x="573" d="M82 569q0 -250 74.5 -452t189.5 -342l25 -29h213l-111 135q-230 276 -227 688q3 223 58.5 377t172.5 318l90 129h-200l-25 -35q-60 -86 -103 -163.5t-80.5 -174t-56.5 -209.5t-20 -242z" />
<glyph unicode=")" horiz-adv-x="573" d="M4 -254h203l24 35q107 150 184 359t77 429q3 418 -261 789l-24 35h-201l90 -129q114 -160 173 -326t59 -369q1 -196 -65.5 -375.5t-166.5 -318.5z" />
<glyph unicode="*" horiz-adv-x="942" d="M164 1034h197l-103 -180l123 -70l90 159l90 -159l123 70l-103 180h197v144h-173l79 139l-123 69l-90 -158l-90 158l-123 -69l79 -139h-173v-144z" />
<glyph unicode="+" horiz-adv-x="942" d="M82 594h82h225v-215v-82h164v82v215h225h82v164h-82h-225v217v82h-164v-82v-217h-225h-82v-164z" />
<glyph unicode="," d="M68 -238l129 -63l30 63q23 46 34.5 103t13 98t1.5 121v72h-143v-72q0 -77 -1 -111t-8.5 -73.5t-23.5 -71.5z" />
<glyph unicode="-" horiz-adv-x="778" d="M82 594h82h450h82v164h-82h-450h-82v-164z" />
<glyph unicode="." horiz-adv-x="409" d="M123 -2h164v82v2v82h-164v-82v-2v-82z" />
<glyph unicode="/" horiz-adv-x="614" d="M12 -2h170l19 57l368 1190l33 107h-170l-18 -58l-369 -1190z" />
<glyph unicode="0" horiz-adv-x="901" d="M82 717q0 -378 92 -558.5t279 -178.5q185 2 275.5 181t90.5 556q1 376 -90 556.5t-276 180.5q-187 -2 -279 -181t-92 -556zM246 717q0 233 21.5 357t64 170t121.5 46q77 -1 118.5 -46.5t62.5 -169.5t21 -357q1 -232 -20.5 -357.5t-63 -170.5t-118.5 -46q-79 -1 -121.5 45 t-64 171t-21.5 358z" />
<glyph unicode="1" horiz-adv-x="614" d="M-16 745h159l185 361v-1026v-82h164v82v1270v82h-132l-22 -43l-287 -523z" />
<glyph unicode="2" horiz-adv-x="860" d="M82 -2h629h82v164h-82h-465q0 53 61.5 141t184.5 234q56 63 83.5 96t73.5 94.5t69 105.5t41.5 101.5t18.5 109.5q1 185 -95.5 298.5t-252.5 111.5h-2q-192 -5 -295 -184l-41 -72l144 -82l40 72q36 64 67.5 82t88.5 20q100 2 141 -52.5t41 -193.5q0 -20 -3 -40 t-12.5 -42.5t-17 -40.5t-25.5 -43.5t-29 -42t-35.5 -46.5t-37 -45t-42.5 -50t-43 -51h-2q-52 -63 -81.5 -100t-74 -102.5t-68.5 -116t-42.5 -116.5t-18.5 -128v-82z" />
<glyph unicode="3" horiz-adv-x="901" d="M92 135l72 -41q65 -39 95.5 -56t85.5 -36t106 -20h2q160 0 263 132t103 361q1 109 -24.5 199.5t-69.5 148.5l-2 2q-41 53 -139 111q-12 10 -13 12l140 375l43 111h-37h-82h-379h-82v-164h82h260l-139 -375l-43 -111h37h82q52 0 83 -13t60 -48q59 -77 59 -248 q1 -183 -48 -256.5t-154 -73.5q-29 1 -62 13t-58 25.5t-87 49.5l-70 43z" />
<glyph unicode="4" horiz-adv-x="886" d="M10 319h31h82l430 -2v-237v-82h164v82v235h6h82v164h-82h-6v342v82h-164v-82v-340l-317 2l268 844l35 107h-172l-19 -58l-303 -950z" />
<glyph unicode="5" horiz-adv-x="901" d="M92 135l72 -41q10 -6 38 -23t40 -24t36.5 -20.5t41 -19t40 -13t46.5 -10t47 -2.5q177 0 271.5 134t94.5 378q1 243 -94 370t-272 127q-80 -1 -159 -48l46 327h305h82v164h-82h-377h-71l-11 -70l-77 -553l-9 -66l9 -4l53 -20l55 -21l59 -20l13 16l24 35q37 54 67 75t73 21 q81 -1 122.5 -28t60.5 -97t19 -208q1 -201 -42.5 -275t-159.5 -74q-12 0 -23.5 1.5t-20.5 3t-23.5 7.5t-21.5 9t-25.5 13t-26 14.5t-32 19t-34.5 20.5l-70 43z" />
<glyph unicode="6" horiz-adv-x="901" d="M82 412h3q17 -209 110.5 -319.5t257.5 -110.5q179 -1 272.5 133t93.5 379q1 240 -94 364.5t-272 124.5q-89 -2 -157 -31q65 262 202 353l67 45l-90 135l-67 -45q-92 -61 -159.5 -174t-102 -249.5t-49.5 -264.5t-15 -256v-1v-1v-82zM246 495v1q0 47 1 72q5 102 26.5 156 t63 74.5t116.5 20.5q83 -1 124 -27t59.5 -94t18.5 -204q1 -201 -42.5 -275t-159.5 -74q-117 -2 -162 72t-45 278z" />
<glyph unicode="7" horiz-adv-x="792" d="M41 1270h82h428q-224 -580 -270 -718q-64 -192 -93 -391q-5 -32 -10 -71l-12 -92h166l10 72q30 230 87 406t316 847l43 111h-36h-629h-82v-164z" />
<glyph unicode="8" horiz-adv-x="901" d="M82 436q0 -216 96.5 -335t274.5 -119q177 -1 271.5 118.5t94.5 335.5q3 218 -80 326q-17 20 -36 36q1 2 5 5.5t5 5.5q75 86 75 262q1 79 -17.5 146t-57 121t-105.5 85t-155 31q-89 -1 -156.5 -31.5t-106.5 -84.5t-58 -120.5t-19 -146.5q0 -175 73 -266h2q5 -6 11 -11 q-15 -13 -33 -34q-84 -100 -84 -324zM246 436q0 91 10 140.5t35 78.5l2 2q24 30 57 41.5t103 12.5q67 0 99.5 -11t59.5 -41q43 -57 43 -223q1 -117 -17.5 -179t-61.5 -87t-123 -25q-119 -2 -163 59t-44 232zM276 1071q0 127 35 173t142 46q106 -1 139 -46t33 -173 q1 -63 -6.5 -97t-28.5 -59q-21 -23 -49.5 -32t-87.5 -9h-6q-59 -1 -88 7.5t-48 29.5q-20 24 -27.5 60t-7.5 100z" />
<glyph unicode="9" horiz-adv-x="901" d="M82 948q1 -241 96 -361t275 -120q89 -1 160 31q-63 -295 -197 -363l-74 -39l76 -145l71 37q76 39 135.5 124t95 186.5t59 223.5t32 225.5t8.5 200.5v15v67h-2q-15 201 -109 312.5t-255 111.5q-179 -1 -275 -133.5t-96 -372.5zM246 948q1 198 45 270t162 72 q79 -1 121.5 -31t61.5 -102.5t19 -208.5q0 -133 -19 -200t-60 -92t-123 -25q-82 -1 -125 24t-62.5 93t-19.5 200z" />
<glyph unicode=":" horiz-adv-x="409" d="M127 -18h164v81v3v81h-164v-81v-3v-81zM127 860h164v82v2v82h-164v-82v-2v-82z" />
<glyph unicode=";" d="M72 -246l133 -51l26 66q45 120 45 313v72h-143v-72q0 -172 -37 -260zM104 860h164v82v2v82h-164v-82v-2v-82z" />
<glyph unicode="&#x3c;" horiz-adv-x="1105" d="M82 621l53 -21l778 -299l111 -43v174l-53 21l-578 223l578 221l53 18v177l-111 -43l-778 -297l-53 -19v-112z" />
<glyph unicode="=" horiz-adv-x="1105" d="M82 352h82h778h82v164h-82h-778h-82v-164zM82 786h82h778h82v164h-82h-778h-82v-164z" />
<glyph unicode="&#x3e;" horiz-adv-x="1105" d="M82 258l111 43l778 299l53 21v112l-53 19l-778 297l-111 43v-177l53 -18l578 -221l-578 -223l-53 -21v-174z" />
<glyph unicode="?" horiz-adv-x="1024" d="M82 924h164v82q0 112 71 168.5t195 54.5q123 -2 194.5 -59t71.5 -166q0 -14 -2.5 -27.5t-6 -23.5t-13 -23t-15 -20.5t-22 -22.5t-23.5 -21.5t-28.5 -25t-30.5 -25.5q-43 -34 -71.5 -62t-63 -72t-52.5 -97.5t-18 -114.5q-1 -24 -1 -41.5t0.5 -27.5t0.5 -11v-82h164v82 q0 4 -0.5 15.5t-0.5 26t1 32.5v2q0 69 32.5 113.5t110.5 109.5q88 73 118 108q85 96 85 208q1 112 -63.5 202.5t-162.5 138t-204 48.5t-203.5 -44.5t-162 -136.5t-64.5 -206v-82zM432 -6h164v82v4v82h-164v-82v-4v-82z" />
<glyph unicode="@" horiz-adv-x="2068" d="M123 467q1 -169 69.5 -325.5t182 -270.5t268.5 -182t322 -68q143 -1 271 24t223 68.5t164 91t118 101.5l53 61l-121 109l-55 -60q-90 -101 -250 -166t-403 -65q-141 -1 -267 51.5t-216 143t-142.5 217.5t-52.5 270q1 143 53.5 270t142.5 217.5t215.5 143.5t266.5 53 q186 -1 336.5 -79.5t235.5 -216t85 -306.5q1 -114 -63 -219t-150 -164h-2q-154 -112 -201 -74q-22 17 -12 64q74 317 152 675l18 82l-162 35l-16 -80l-9 -39q-92 103 -212 103q-143 0 -271.5 -116t-187.5 -327q-39 -144 -6.5 -253.5t117 -174t190.5 -63.5h2q124 3 228 89 q17 -54 63.5 -89.5t108.5 -47t140 8.5t152 72q105 71 195 219.5t90 298.5q1 121 -41.5 237t-120 210.5t-179 166.5t-226 112t-254.5 40q-166 -1 -321.5 -70t-269.5 -183t-182.5 -270.5t-68.5 -324.5zM660.5 230q-40.5 70 1.5 214q50 173 126 248.5t177 75.5q87 0 128.5 -73 t6.5 -206q-98 -321 -295 -327q-104 -2 -144.5 68z" />
<glyph unicode="A" horiz-adv-x="942" d="M16 0h170l17 61l54 201h62h299h64l57 -203l19 -59h170l-29 104l-334 1188l-18 60h-62h-14h-29h-63l-17 -62l-319 -1188zM301 426l164 610l171 -610h-18h-299h-18z" />
<glyph unicode="B" horiz-adv-x="890" d="M100 0h82h373h5q292 0 292 379v8q0 227 -115 316q60 95 61 268q0 4 -1 8q0 373 -293 373l-320 -2h-82v-82l-2 -1186v-82zM264 1188h240q28 0 44.5 -2.5t32 -6.5t23.5 -15t15 -24.5t9.5 -39t3.5 -54.5t1 -75q0 -28 1 -49q0 -20 -1 -36q-1 -30 -6 -57.5t-12 -39t-24 -20 t-35 -10t-52 -1.5l-239 -2zM265 594h239h9h42q33 -1 51.5 -3t35.5 -10.5t24.5 -21t13 -39t7 -58t1.5 -83.5v-29q0 -42 -2 -68q-3 -36 -9.5 -62.5t-23.5 -37t-38 -14.5t-60 -4l-289 -2z" />
<glyph unicode="C" horiz-adv-x="858" d="M59 676q2 -326 112.5 -511t303.5 -185h7q60 0 118 17q62 18 113 48t84.5 55t62.5 52l-110 118q-142 -127 -275 -127h-4q-123 0 -185 124q-62 126 -63 409q1 282 63.5 407t188.5 125q145 -2 270 -127l115 115q-28 28 -63.5 55t-85.5 56t-112 47t-124 18 q-191 -2 -303.5 -188t-112.5 -508z" />
<glyph unicode="D" horiz-adv-x="968" d="M100 0h82h324h5q195 0 295 163q102 165 101 513v10q0 666 -399 666l-324 -2h-82v-82l-2 -1186v-82zM264 164v1024h244q89 -1 137.5 -41.5t73 -151.5t24.5 -319v-16q1 -198 -23 -305q-24 -111 -73.5 -151t-140.5 -40h-242z" />
<glyph unicode="E" horiz-adv-x="860" d="M100 0h82h568h81v164h-81h-486v430h350h82v164h-82h-350v430h486h81v164h-81h-568h-82v-82v-512v-164v-512v-82z" />
<glyph unicode="F" horiz-adv-x="778" d="M100 0h164v82v512h273h81v164h-81h-273v430h404h82v164h-82h-486h-82v-82v-512v-164v-512v-82z" />
<glyph unicode="G" horiz-adv-x="1036" d="M59 676q1 -326 119 -511t322 -185h10q66 0 124 12q61 13 111 39.5t86.5 54.5t77.5 68l25 24v498v82h-82h-350v-164h268v-346q-55 -53 -112.5 -79t-157.5 -26h-4q-136 0 -204 125q-69 126 -69 408q1 281 68.5 406.5t204.5 125.5q53 -1 99 -12t85 -33t62.5 -39.5 t56.5 -46.5l106 123q-36 32 -66 53.5t-84 53t-120 48.5t-139 17q-201 -2 -319 -187.5t-118 -508.5z" />
<glyph unicode="H" horiz-adv-x="956" d="M100 0h164v82v512h426v-512v-82h164v82v512v164v512v82h-164v-82v-512h-426v512v82h-164v-82v-512v-164v-512v-82z" />
<glyph unicode="I" d="M104 0h164v82v1188v82h-164v-82v-1188v-82z" />
<glyph unicode="J" horiz-adv-x="552" d="M4 -100l33 -160l80 16q160 32 247 172.5t87 356.5l2 983l2 82l-166 2l-2 -82v-985v-7q0 -173 -46 -254q-47 -84 -157 -108z" />
<glyph unicode="K" horiz-adv-x="880" d="M100 0h164v82v512h125l289 -551l22 -43h185l-64 121l-291 555l291 555l64 121h-185l-22 -43l-289 -551h-125v512v82h-164v-82v-512v-164v-512v-82z" />
<glyph unicode="L" horiz-adv-x="737" d="M100 0h82h451h82v164h-82h-369v1106v82h-164v-82v-1188v-82z" />
<glyph unicode="M" horiz-adv-x="1185" d="M100 0h164l-39 1147l279 -1147h63h25h24h64l283 1147l-43 -1147h163v1270v82h-82h-61h-63l-17 -60l-268 -1108l-268 1108l-17 60h-63h-62h-82v-82v-1270z" />
<glyph unicode="N" horiz-adv-x="968" d="M100 0h164l-18 1167l399 -1116l21 -51h55h63h82v82v1188v82h-164l15 -1168l-395 1116l-21 52h-55h-64h-82v-82v-1188v-82z" />
<glyph unicode="O" horiz-adv-x="1048" d="M59 676q0 -328 122 -512t345 -184h2q217 0 338 184q121 185 121 512v10q0 318 -120 500q-122 186 -341 186q-222 -1 -344.5 -185t-122.5 -511zM223 676q0 285 72 408.5t231 123.5q156 -2 226.5 -124.5t70.5 -407.5v-8q-1 -279 -71 -401q-72 -124 -226 -124h-5 q-153 0 -225 123q-73 125 -73 410z" />
<glyph unicode="P" horiz-adv-x="886" d="M100 0h164v82v436h268h3q167 0 243 104t76 314v10q0 200 -76 302q-78 104 -246 104l-348 -2h-82v-82l-2 -1186v-82zM264 680v508h268q38 -1 61 -3.5t42.5 -13t28.5 -25.5t16 -45.5t8.5 -67t1.5 -97.5v-31q0 -51 -2 -83q-4 -42 -12 -73t-27.5 -43.5t-45 -18t-71.5 -5.5z " />
<glyph unicode="Q" horiz-adv-x="1048" d="M100 676q0 -307 112 -481.5t314 -174.5h3q137 0 235 87l41 -41l57 -60l119 115l-57 59l-60 62q82 167 82 434v11q0 296 -110 469q-112 175 -310 175q-202 -1 -314 -174.5t-112 -480.5zM264 676q0 180 28 288t84.5 155.5t149.5 47.5q135 -2 195.5 -114t60.5 -377v-11 q0 -196 -34 -305l-84 86l-58 60l-119 -115l58 -59l110 -113q-51 -35 -129 -35h-5q-133 0 -195 112q-62 114 -62 380z" />
<glyph unicode="R" horiz-adv-x="921" d="M100 0h164v82v436h160h82q53 0 79 -59.5t72 -252.5q22 -91 35 -145l17 -61h168l-25 102q-9 35 -27 113t-27 114t-25 89.5t-32 90t-35 66.5q121 94 121 361v11q0 200 -74 301q-76 104 -247 104l-322 -2h-82v-82l-2 -1186v-82zM264 680v508h242q39 -1 61.5 -3.5t42.5 -13 t29 -24.5t15.5 -45.5t8 -67.5t1.5 -98v-38q0 -36 -1 -60q-2 -38 -8.5 -68t-16.5 -45.5t-29.5 -26t-42.5 -13.5t-60 -3h-82v-1z" />
<glyph unicode="S" horiz-adv-x="798" d="M45 166q5 -4 35 -32t38 -35t35.5 -30t41.5 -30t42 -22.5t49.5 -21t51.5 -10.5t61 -5h3q156 0 264 107q110 108 110 259q0 41 -16 83.5t-38 75t-61 73t-67 64t-75 62.5t-66 56q-25 22 -62 53.5t-56 48t-43 41.5t-35.5 44.5t-19.5 46.5t-8 57q2 87 36 122t132 35 q24 0 45 -6.5t35.5 -14t34 -26t29 -29t33 -38.5t34.5 -41l123 106q-4 5 -32.5 40.5t-41 49.5t-45 43.5t-59.5 42.5t-68.5 25t-87.5 12q-155 -1 -243 -95t-88 -226q1 -65 16.5 -118.5t50 -98t60.5 -70t79 -68t72 -59.5h2q28 -24 77 -65t75.5 -64.5t56.5 -54.5t43.5 -56.5 t13.5 -50.5v-6q0 -197 -213 -197q-14 0 -27.5 1.5t-24.5 3.5t-24.5 8t-21.5 9t-22.5 14t-21 15.5t-23.5 19.5t-23 20.5t-26.5 24.5t-28.5 26z" />
<glyph unicode="T" horiz-adv-x="839" d="M41 1188h82h217v-1106v-82h164v82v1106h213h82v164h-82h-213h-164h-217h-82v-164z" />
<glyph unicode="U" horiz-adv-x="991" d="M100 526q1 -127 32 -231t84.5 -172.5t125.5 -105.5t154 -37h4q114 0 215 56q103 57 157 128l17 20v342v744v82h-164v-82v-744v-284q-27 -36 -89 -67.5t-140 -31.5h-5q-109 1 -167 89q-60 90 -60 294l2 742l2 82l-166 2l-2 -82v-744z" />
<glyph unicode="V" horiz-adv-x="942" d="M16 1352l27 -103l319 -1188l17 -61h63h29h29h63l17 61l319 1188l27 103h-170l-17 -62l-268 -997l-268 997l-17 62h-170z" />
<glyph unicode="W" horiz-adv-x="1226" d="M27 1352l14 -95l184 -1187l13 -70h69h74h70l12 70l151 1097l146 -1097l12 -70h70h80h69l13 70l184 1187l14 95h-166l-12 -70l-156 -1015l-127 1015l-12 70h-70h-41h-49h-69l-13 -70l-129 -1043l-153 1043l-12 70h-166z" />
<glyph unicode="X" horiz-adv-x="880" d="M14 0h181l22 47l223 469l224 -469l22 -47h180l-55 117l-280 589l251 529l56 117h-181l-22 -47l-195 -409l-194 409l-23 47h-180l55 -117l252 -529l-280 -589z" />
<glyph unicode="Y" horiz-adv-x="858" d="M0 1352l45 -113l305 -765v-392v-82h164v82v395l297 764l43 111h-174l-21 -54l-227 -585l-235 587l-21 52h-176z" />
<glyph unicode="Z" horiz-adv-x="819" d="M-2 0h43h82h594h82v164h-82h-469l461 1073l49 115h-43h-82h-479h-82v-164h82h354l-461 -1073z" />
<glyph unicode="[" horiz-adv-x="614" d="M82 -172v-82h82h287h81v164h-81h-205v1173h205h81v164h-81h-287h-82v-82v-1337z" />
<glyph unicode="\" horiz-adv-x="737" d="M49 1352l37 -109l410 -1190l18 -55h174l-37 108l-409 1190l-19 56h-174z" />
<glyph unicode="]" horiz-adv-x="614" d="M82 -90v-164h82h287h81v82v1337v82h-81h-287h-82v-164h82h205v-1173h-205h-82z" />
<glyph unicode="^" horiz-adv-x="942" d="M29 594h184l23 45l237 453l232 -453l24 -45h184l-61 119l-305 594l-25 45h-98l-23 -45l-309 -594z" />
<glyph unicode="_" horiz-adv-x="1064" d="M-41 -90v-164h82h983h82v164h-82h-983h-82z" />
<glyph unicode="`" horiz-adv-x="450" d="M41 1352l47 -113l123 -295l20 -51h179l-48 113l-122 294l-21 52h-178z" />
<glyph unicode="a" horiz-adv-x="864" d="M61 510q0 -235 92.5 -382.5t245.5 -147.5h2q104 0 232 104q6 -18 14 -35l21 -49h180l-53 115q-11 27 -21 68t-10 59l2 698l2 82h-166l-1 -37q-102 59 -202 59q-101 -1 -178 -69t-118.5 -188.5t-41.5 -276.5zM225 510q0 196 43.5 283.5t130.5 87.5q61 -1 115.5 -31.5 t85.5 -63.5v-274v-238q-128 -131 -201 -131h-4q-85 -1 -127 85q-44 88 -43 282z" />
<glyph unicode="b" horiz-adv-x="860" d="M102 0h164v54q118 -74 230 -74h2q144 0 227 147q84 148 84 385v11q1 227 -83 372q-86 149 -230 149q-104 -1 -230 -90v398v82h-164v-82v-535v-575v-25v-135v-82zM266 266v477q147 136 230 138q74 0 111.5 -87t37.5 -282v-10q-1 -188 -37 -272q-38 -86 -112 -87h-7 q-59 -1 -119 31q-64 34 -104 92z" />
<glyph unicode="c" horiz-adv-x="716" d="M59 514q1 -245 94.5 -389.5t247.5 -144.5h5q159 0 307 129l-107 122q-102 -88 -205 -88h-4q-85 0 -129 84q-44 86 -45 287q1 199 45 283t133 84q117 -2 199 -88l119 114q-50 52 -136 94.5t-182 42.5q-153 -2 -247.5 -144.5t-94.5 -385.5z" />
<glyph unicode="d" horiz-adv-x="845" d="M59 512q0 -235 90 -383.5t238 -148.5h2q97 0 213 81v-61h164v82v127v303v307v33v500v82h-164v-82v-369q-110 61 -215 61q-147 -1 -237.5 -149.5t-90.5 -382.5zM223 512q0 194 41.5 281.5t122.5 87.5q67 -1 125.5 -31.5t89.5 -63.5v-274v-238q-128 -131 -215 -131h-3 q-76 0 -118 87q-42 89 -43 282z" />
<glyph unicode="e" horiz-adv-x="798" d="M59 512q2 -237 93 -384.5t243 -147.5h9q171 0 329 106l-90 135q-60 -40 -116.5 -59t-131.5 -19h-4q-73 0 -115 67q-42 69 -51 220h422h82v82v305v29l-18 22q-51 65 -138 120.5t-178 55.5q-151 -1 -243.5 -149t-92.5 -383zM226 594q10 150 52 218.5t117 68.5 q51 -1 96.5 -30t73.5 -63v-194h-339z" />
<glyph unicode="f" horiz-adv-x="471" d="M20 860h82h11l2 -780l2 -82l162 4l-3 80v778h64h82v164h-82h-62q2 67 7 108.5t12.5 67.5t25 40t34.5 20t51 12l79 14l-28 160l-80 -14q-43 -8 -76 -20.5t-67.5 -41t-58 -71t-40.5 -112.5t-22 -163h-13h-82v-164z" />
<glyph unicode="g" horiz-adv-x="757" d="M59 242q2 -100 66 -175q-64 -67 -64 -169q0 -121 92 -183.5t244 -62.5h4q93 0 191 44q100 45 135 91l16 23v149v27l-14 20q-37 51 -131 104.5t-201 53.5q-25 0 -51 -3v3h-82q-25 0 -33 15.5t-8 60.5q2 44 10.5 61.5t30.5 17.5h49h9h24v2q62 8 133.5 42t120.5 71l31 25 v192v126q16 29 20 45t-6 18h82v164h-82q-55 0 -108 -70q-53 40 -113 65t-109 25q-115 -1 -184.5 -104.5t-69.5 -268.5q0 -144 65 -234q-32 -37 -49.5 -85t-17.5 -90zM225 -102q0 63 32 82.5t140 19.5q47 -1 91.5 -16.5t66 -30t25.5 -21.5v-69q-4 -4 -27.5 -14t-68.5 -21.5 t-87 -11.5h-21q-62 0 -92 5q-34 6 -46.5 22.5t-12.5 54.5zM225 651q0 124 19.5 166.5t68.5 42.5q33 -1 72.5 -20t66.5 -43l-16 -27l31 -18v-101v-110q-19 -15 -68.5 -36.5t-83.5 -21.5h-14q-31 1 -46.5 15t-22.5 49t-7 104z" />
<glyph unicode="h" horiz-adv-x="884" d="M102 0h164v82v346v82v246q129 125 213 125q52 -1 82 -34.5t45 -114t15 -220.5l2 -432l2 -82l161 4l-2 80v430v12q0 234 -78 375q-80 145 -227 145q-95 -1 -213 -81v389v82h-164v-82v-527v-315v-82v-346v-82z" />
<glyph unicode="i" d="M104 0h164v82v881v81h-164v-81v-881v-82zM104 1188h82h2h82v164h-82h-2h-82v-164z" />
<glyph unicode="j" horiz-adv-x="366" d="M-90 -332l74 -147l73 37q40 20 73 50.5t66 81.5t51.5 130.5t18.5 179.5l2 940l2 82l-166 2l-2 -82v-942v-12q0 -94 -15 -152q-16 -61 -39 -86t-64 -45zM102 1188h82h2h82v164h-82h-2h-82v-164z" />
<glyph unicode="k" horiz-adv-x="778" d="M102 0h164v82v348h93l200 -385l25 -45h184l-61 119l-205 393l205 393l61 119h-184l-25 -45l-200 -385h-93v799v82h-164v-82v-799v-164v-348v-82z" />
<glyph unicode="l" d="M100 0h164v82v1311v82h-164v-82v-1311v-82z" />
<glyph unicode="m" horiz-adv-x="1239" d="M100 0h164v82v453v81v154q3 2 22 15t36 24t39.5 23.5t43 20t35.5 7.5q36 -1 56.5 -21t32 -73.5t12.5 -149.5v-534v-82h164v82v534q0 76 -16 148q130 96 173 96q43 -1 66.5 -21.5t35 -73.5t11.5 -149l2 -536l2 -82l162 4l-2 80v534v9q0 175 -74 285q-76 114 -203 114h-2 q-87 -2 -235 -104q-72 104 -185 104h-2q-68 -1 -174 -61v61h-164v-82v-78v-248v-81v-453v-82z" />
<glyph unicode="n" horiz-adv-x="882" d="M100 0h164v82v348v82v244q133 125 215 125q50 -1 79.5 -34t44.5 -114t15 -221l3 -432l2 -82l161 4l-2 80v430v12q0 236 -78 376q-80 144 -225 144q-97 -1 -215 -81v61h-164v-82v-117v-313v-82v-348v-82z" />
<glyph unicode="o" horiz-adv-x="847" d="M59 512q0 -236 101.5 -384t265.5 -148h2q160 0 260 147q100 148 100 385v9q0 228 -100 374q-102 149 -262 149q-163 -2 -265 -149.5t-102 -382.5zM223 512q0 194 50.5 281.5t152.5 87.5q100 -2 149.5 -89t49.5 -280v-8q0 -188 -49 -274q-50 -88 -150 -87h-4 q-98 1 -148 87q-51 88 -51 282z" />
<glyph unicode="p" horiz-adv-x="854" d="M100 217v-545v-82h164v82v382q118 -74 230 -74h2q142 0 226 148q85 148 85 384v10q0 225 -85 372q-88 150 -228 150q-114 -1 -230 -79v59h-164v-82v-133v-567v-25zM264 266v486q42 50 102 89t128 40q149 0 149 -369v-14q0 -355 -149 -355h-7q-58 0 -119 31 q-64 34 -104 92z" />
<glyph unicode="q" horiz-adv-x="847" d="M41 512q0 -235 90 -383.5t238 -148.5h2q100 0 213 80v-388v-82h164v82v537v303v307v33v90v82h-164v-41q-110 61 -215 61q-147 -1 -237.5 -149.5t-90.5 -382.5zM205 512q0 194 41.5 281.5t122.5 87.5q67 -1 125.5 -31.5t89.5 -63.5v-274v-238q-128 -131 -215 -131h-3 q-77 0 -118 87q-43 89 -43 282z" />
<glyph unicode="r" horiz-adv-x="573" d="M100 0h164v82v348v82q0 58 4.5 101.5t11.5 76t23 57t31 41t43.5 31t52 23.5t64.5 22l77 25l-49 155l-78 -24q-119 -39 -180 -83v5v82h-164v-82v-430v-82v-348v-82z" />
<glyph unicode="s" horiz-adv-x="657" d="M35 76q61 -43 116.5 -66t82 -26.5t59.5 -3.5h3q144 0 241 94q98 95 98 223q0 38 -9.5 72t-31.5 63.5t-41.5 51t-54.5 46t-53 36t-54 32.5h-2q-101 60 -121 76q-43 37 -43 88q2 67 25.5 93t87.5 26q11 0 20.5 -2.5t20 -9t17.5 -11t18.5 -16.5t16.5 -16.5t18.5 -20 t17.5 -19.5l123 107q-23 27 -40 45t-51 46.5t-75.5 44t-85.5 15.5q-119 -1 -198 -84t-79 -198q0 -27 5 -51.5t11 -44t19.5 -40t22 -33t29 -30t29 -25.5t33.5 -23.5t31.5 -19.5t34.5 -19t31 -17q101 -62 124 -83q40 -36 40 -79v-7q0 -73 -41 -109q-43 -38 -137 -38h-2h-10 q-29 -1 -56 9q-32 12 -96 59z" />
<glyph unicode="t" horiz-adv-x="450" d="M20 860h82h13v-348q2 -250 43.5 -357.5t165.5 -150.5l77 -27l54 156l-78 27q-25 9 -39 16t-26.5 24t-17.5 36t-9 61t-5 88t-1 127l1 348h70h82v164h-82h-70l1 203l2 82l-166 2l-2 -82v-205h-13h-82v-164z" />
<glyph unicode="u" horiz-adv-x="839" d="M100 389q2 -178 88 -293.5t236 -115.5h4q88 0 168 42q82 42 127 97l16 22v248v553v82h-164v-82v-553v-190q-14 -21 -55 -38.5t-96 -17.5h-3q-84 -1 -120 55q-37 56 -37 191l2 551l2 82l-166 2l-2 -82v-553z" />
<glyph unicode="v" horiz-adv-x="757" d="M16 1024l27 -102l229 -861l17 -61h63h29h25h63l16 61l230 861l26 102h-170l-16 -61l-213 -799l-139 799l-17 61h-170z" />
<glyph unicode="w" horiz-adv-x="1064" d="M23 1024l20 -98l170 -860l12 -66h68h35h67l13 66l124 835l125 -835l13 -66h67h35h68l12 66l170 860l20 98h-168l-12 -66l-108 -686l-117 707l-12 65h-68h-25h-24h-68l-12 -65l-120 -691l-105 670l-13 66h-167z" />
<glyph unicode="x" horiz-adv-x="757" d="M8 0h185l24 45l162 313l162 -313l24 -45h185l-62 119l-216 419l190 367l61 119h-184l-25 -45l-135 -262l-135 262l-25 45h-184l61 -119l190 -367l-216 -419z" />
<glyph unicode="y" horiz-adv-x="696" d="M2 1024l21 -98l170 -858l10 -56l55 -8l45 -8q-39 -144 -79.5 -204.5t-96.5 -86.5l-74 -35l70 -147l74 35q178 81 268 410l2 -1l2 13l8 34q2 9 6 29l191 883l18 80l4 18h-168l-14 -66l-173 -797l-159 797l-12 66h-168z" />
<glyph unicode="z" horiz-adv-x="696" d="M-4 0h45h82h469h82v164h-82h-342l334 745l53 115h-45h-82h-360h-82v-164h82h233l-334 -745z" />
<glyph unicode="{" horiz-adv-x="655" d="M53 567q87 -91 120.5 -170.5t33.5 -195.5q1 -73 14.5 -147.5t40.5 -145t75.5 -115.5t111.5 -47l83 -2v164l-79 2q-36 1 -58 83.5t-24 207.5q0 126 -32.5 231.5t-64.5 138.5q29 33 63 141t34 232q2 121 23.5 203t56.5 82h81v164h-81q-64 0 -113 -44.5t-76 -115.5 t-40.5 -144.5t-14.5 -144.5q0 -196 -105 -321z" />
<glyph unicode="|" horiz-adv-x="491" d="M164 -352v-82h164v82v1663v82h-164v-82v-1663z" />
<glyph unicode="}" horiz-adv-x="614" d="M82 -90v-164h82q42 0 75.5 15.5t56.5 40.5t39.5 63t26 75.5t15.5 86t8 87t2 85.5q4 112 37 185t86 130l55 57l-33 33q-137 130 -145 342q-5 443 -221 447l-84 2v-164l80 -2q33 0 46 -75t15 -210v-2q3 -87 29 -178t49.5 -138.5t34.5 -58.5q-8 -9 -22.5 -34.5t-35.5 -71.5 t-37 -115t-18 -143q-2 -155 -13.5 -224t-45.5 -69h-82z" />
<glyph unicode="~" horiz-adv-x="1105" d="M80 594h164l2 80q2 53 27 83t87 31q25 -1 58.5 -21t69 -48.5t74.5 -56.5t88 -48t98 -20q82 -1 147.5 45.5t97 109.5t31.5 123v82h-164v-82q0 -114 -112 -114q-22 -1 -53 19t-65.5 48t-74 57t-90.5 49t-103 21h-2q-69 -1 -124.5 -30t-87.5 -72.5t-48.5 -88t-17.5 -83.5z " />
<glyph unicode="&#xa1;" horiz-adv-x="491" d="M164 -287v-82h164v82v903v82h-164v-82v-903zM164 860h82h2h82v164h-82h-2h-82v-164z" />
<glyph unicode="&#xa8;" horiz-adv-x="563" d="M41 1239h164v82v2v82h-164v-82v-2v-82zM328 1239h164v82v2v82h-164v-82v-2v-82z" />
<glyph unicode="&#xab;" horiz-adv-x="1064" d="M137 537l47 -54l328 -372l25 -29h217l-119 135l-281 320l281 319l119 135h-217l-25 -28l-328 -373zM465 537l47 -54l328 -372l24 -29h217l-118 135l-281 320l281 319l118 135h-217l-24 -28l-328 -373z" />
<glyph unicode="&#xaf;" horiz-adv-x="1024" d="M0 1434h1024v163h-1024v-163z" />
<glyph unicode="&#xb4;" horiz-adv-x="348" d="M-4 956h160l20 39l92 181l54 104h-160l-21 -39l-92 -180z" />
<glyph unicode="&#xb8;" horiz-adv-x="575" d="M143 -373h144q82 -2 149.5 42.5t67.5 109.5q2 46 -31 79.5t-72 46.5t-73 13l41 123h-123l-68 -186q62 4 118.5 -10t61.5 -35q5 -23 -12.5 -41.5t-58.5 -18.5l-142 -2z" />
<glyph unicode="&#xbb;" horiz-adv-x="1064" d="M-16 82h217l24 29l328 372l47 54l-47 53l-328 373l-24 28h-217l118 -135l281 -319l-281 -320zM311 82h217l25 29l328 372l47 54l-47 53l-328 373l-25 28h-217l119 -135l281 -319l-281 -320z" />
<glyph unicode="&#xbf;" horiz-adv-x="1064" d="M82 0q1 -119 65 -215t161 -145.5t204 -49.5q108 -1 205.5 48.5t161 145.5t63.5 216v82h-164v-82q0 -122 -71.5 -184t-194.5 -62q-121 -2 -193.5 62t-72.5 184q1 27 9.5 49t31.5 47t40.5 40.5t59.5 49.5q45 38 72 64.5t62.5 72t53 99t17.5 115.5l2 73l2 82l-166 4l-2 -82 v-75v-2q1 -30 -7 -56.5t-16.5 -44t-32.5 -43t-37.5 -37.5t-49.5 -43q-87 -71 -119 -106q-84 -95 -84 -207zM430 860h82h2h82v164h-82h-2h-82v-164z" />
<glyph unicode="&#xc0;" horiz-adv-x="942" d="M16 0h170l17 61l54 201h62h299h64l57 -203l19 -59h170l-29 104l-334 1188l-18 60h-62h-14h-29h-63l-17 -62l-319 -1188zM301 426l164 610l171 -610h-18h-299h-18zM335 1770l41 -88l82 -174l16 -35h135l-41 88l-82 174l-16 35h-135z" />
<glyph unicode="&#xc1;" horiz-adv-x="942" d="M16 0h170l17 61l54 201h62h299h64l57 -203l19 -59h170l-29 104l-334 1188l-18 60h-62h-14h-29h-63l-17 -62l-319 -1188zM301 426l164 610l171 -610h-18h-299h-18zM335 1473h135l16 35l82 174l41 88h-135l-16 -35l-82 -174z" />
<glyph unicode="&#xc2;" horiz-adv-x="942" d="M16 0h170l17 61l54 201h62h299h64l57 -203l19 -59h170l-29 104l-334 1188l-18 60h-62h-14h-29h-63l-17 -62l-319 -1188zM181 1473h183l16 17l92 84l92 -84l17 -17h182l-117 107l-133 123l-41 39l-41 -39l-133 -123zM301 426l164 610l171 -610h-18h-299h-18z" />
<glyph unicode="&#xc3;" horiz-adv-x="942" d="M16 0h170l17 61l54 201h62h299h64l57 -203l19 -59h170l-29 104l-334 1188l-18 60h-62h-14h-29h-63l-17 -62l-319 -1188zM175 1535h123q0 65 57 65q23 -1 35.5 -9.5t36.5 -33.5q70 -84 162 -84q70 -1 125 59t55 130h-123q0 -66 -57 -66h-2q-20 -1 -32.5 7.5t-35.5 35.5h-2 q-18 20 -26.5 27.5t-30.5 24.5t-48 24.5t-57 7.5q-68 -2 -124 -60t-56 -128zM301 426l164 610l171 -610h-18h-299h-18z" />
<glyph unicode="&#xc4;" horiz-adv-x="942" d="M16 0h170l17 61l54 201h62h299h64l57 -203l19 -59h170l-29 104l-334 1188l-18 60h-62h-14h-29h-63l-17 -62l-319 -1188zM247 1473h164v82v2v82h-164v-82v-2v-82zM301 426l164 610l171 -610h-18h-299h-18zM534 1473h163v82v2v82h-163v-82v-2v-82z" />
<glyph unicode="&#xc5;" horiz-adv-x="942" d="M16 0h170l17 61l54 201h62h299h64l57 -203l19 -59h170l-29 104l-334 1188l-18 60h-62h-14h-29h-63l-17 -62l-319 -1188zM298 1647q0 -78 46.5 -126t127.5 -48q82 -1 128 47.5t46 126.5q2 75 -46 125t-128 50q-79 -1 -126.5 -49.5t-47.5 -125.5zM301 426l164 610l171 -610 h-18h-299h-18zM400 1647q0 46 12.5 59t59.5 13q49 -1 60.5 -13.5t11.5 -58.5q2 -47 -10.5 -59t-61.5 -12q-46 -1 -59 12t-13 59z" />
<glyph unicode="&#xc6;" horiz-adv-x="1228" d="M-4 0h170l16 61l54 203h63h297v-182v-82h82h448h82v164h-82h-366v100v164v166h246h81v164h-81h-246v430h366h82v164h-82h-366h-164h-178h-64l-16 -62l-315 -1188zM280 428l201 760h115v-430v-164v-166h-297h-19z" />
<glyph unicode="&#xc7;" horiz-adv-x="858" d="M59 676q1 -282 85.5 -460.5t234.5 -222.5l-65 -179q62 4 119 -10.5t62 -34.5q5 -23 -13 -41.5t-59 -18.5l-141 -2l-2 -121h143q82 -2 149.5 42.5t67.5 109.5q2 46 -31 79.5t-72 46.5t-73 13l34 103q187 9 362 172l-110 118q-142 -127 -275 -127q-127 -2 -189.5 124 t-62.5 409q1 282 63.5 407t188.5 125q145 -2 270 -127l115 115q-28 28 -63.5 55t-85.5 56t-112 47t-124 18q-191 -2 -303.5 -188t-112.5 -508z" />
<glyph unicode="&#xc8;" horiz-adv-x="860" d="M100 0h82h568h81v164h-81h-486v430h350h82v164h-82h-350v430h486h81v164h-81h-568h-82v-82v-512v-164v-512v-82zM329 1770l41 -88l82 -174l16 -35h135l-41 88l-82 174l-16 35h-135z" />
<glyph unicode="&#xc9;" horiz-adv-x="860" d="M100 0h82h568h81v164h-81h-486v430h350h82v164h-82h-350v430h486h81v164h-81h-568h-82v-82v-512v-164v-512v-82zM329 1473h135l16 35l82 174l41 88h-135l-16 -35l-82 -174z" />
<glyph unicode="&#xca;" horiz-adv-x="860" d="M100 0h82h568h81v164h-81h-486v430h350h82v164h-82h-350v430h486h81v164h-81h-568h-82v-82v-512v-164v-512v-82zM175 1473h182l17 17l92 84l92 -84l16 -17h183l-117 107l-133 123l-41 39l-41 -39l-133 -123z" />
<glyph unicode="&#xcb;" horiz-adv-x="860" d="M100 0h82h568h81v164h-81h-486v430h350h82v164h-82h-350v430h486h81v164h-81h-568h-82v-82v-512v-164v-512v-82zM241 1473h163v82v2v82h-163v-82v-2v-82zM527 1473h164v82v2v82h-164v-82v-2v-82z" />
<glyph unicode="&#xcc;" d="M49 1770l41 -88l82 -174l16 -35h136l-41 88l-82 174l-17 35h-135zM104 0h164v82v1188v82h-164v-82v-1188v-82z" />
<glyph unicode="&#xcd;" d="M49 1473h135l17 35l82 174l41 88h-136l-16 -35l-82 -174zM104 0h164v82v1188v82h-164v-82v-1188v-82z" />
<glyph unicode="&#xce;" d="M-104 1473h182l16 17l92 84l93 -84l16 -17h182l-117 107l-133 123l-41 39l-41 -39l-133 -123zM104 0h164v82v1188v82h-164v-82v-1188v-82z" />
<glyph unicode="&#xcf;" d="M-39 1473h164v82v2v82h-164v-82v-2v-82zM104 0h164v82v1188v82h-164v-82v-1188v-82zM248 1473h164v82v2v82h-164v-82v-2v-82z" />
<glyph unicode="&#xd0;" horiz-adv-x="968" d="M-21 604h72h50l-1 -522v-82h82h324q198 -2 299.5 163t101.5 513q3 676 -399 676l-324 -2h-82v-82v-520h-51h-72v-144zM264 164v440h238h71v144h-71h-238v440h244q89 -1 137.5 -41.5t73 -151.5t24.5 -319q1 -210 -23.5 -321t-73.5 -151t-140 -40h-242z" />
<glyph unicode="&#xd1;" horiz-adv-x="968" d="M100 0h164l-18 1167l399 -1116l21 -51h55h63h82v82v1188v82h-164l15 -1168l-395 1116l-21 52h-55h-64h-82v-82v-1188v-82zM186 1535h123q0 65 58 65q23 -1 35 -9t36 -34q70 -84 162 -84q70 -1 125 59t55 130h-123q0 -66 -57 -66h-2q-20 -1 -32.5 7.5t-35.5 35.5h-2 q-25 26 -37 38t-48 29t-76 17q-68 -2 -124.5 -60t-56.5 -128z" />
<glyph unicode="&#xd2;" horiz-adv-x="1048" d="M59 676q0 -328 122 -512t345 -184q219 -1 340 184t121 512q2 325 -120 510.5t-341 185.5q-222 -1 -344.5 -185t-122.5 -511zM223 676q0 285 72 408.5t231 123.5q156 -2 226.5 -124.5t70.5 -407.5q1 -285 -70.5 -409t-226.5 -124q-157 -2 -230 123t-73 410zM386 1794 l41 -88l82 -174l16 -34h135l-40 88l-82 174l-17 34h-135z" />
<glyph unicode="&#xd3;" horiz-adv-x="1048" d="M59 676q0 -328 122 -512t345 -184q219 -1 340 184t121 512q2 325 -120 510.5t-341 185.5q-222 -1 -344.5 -185t-122.5 -511zM223 676q0 285 72 408.5t231 123.5q156 -2 226.5 -124.5t70.5 -407.5q1 -285 -70.5 -409t-226.5 -124q-157 -2 -230 123t-73 410zM386 1498h135 l17 34l82 174l40 88h-135l-16 -34l-82 -174z" />
<glyph unicode="&#xd4;" horiz-adv-x="1048" d="M59 676q0 -328 122 -512t345 -184q219 -1 340 184t121 512q2 325 -120 510.5t-341 185.5q-222 -1 -344.5 -185t-122.5 -511zM223 676q0 285 72 408.5t231 123.5q156 -2 226.5 -124.5t70.5 -407.5q1 -285 -70.5 -409t-226.5 -124q-157 -2 -230 123t-73 410zM232 1498h183 l16 16l92 84l92 -84l17 -16h182l-117 106l-133 123l-41 39l-41 -39l-133 -123z" />
<glyph unicode="&#xd5;" horiz-adv-x="1048" d="M59 676q0 -328 122 -512t345 -184q219 -1 340 184t121 512q2 325 -120 510.5t-341 185.5q-222 -1 -344.5 -185t-122.5 -511zM223 676q0 285 72 408.5t231 123.5q156 -2 226.5 -124.5t70.5 -407.5q1 -285 -70.5 -409t-226.5 -124q-157 -2 -230 123t-73 410zM226 1559h123 q0 66 58 66q16 -1 27.5 -6.5t18.5 -12t25 -25.5q69 -83 162 -83q70 -1 125 58.5t55 129.5h-123q0 -66 -57 -66h-2q-20 -1 -32.5 7.5t-35.5 35.5h-2q-25 26 -37 38t-48 29t-76 17q-68 -2 -124.5 -60t-56.5 -128z" />
<glyph unicode="&#xd6;" horiz-adv-x="1048" d="M59 676q0 -328 122 -512t345 -184q219 -1 340 184t121 512q2 325 -120 510.5t-341 185.5q-222 -1 -344.5 -185t-122.5 -511zM223 676q0 285 72 408.5t231 123.5q156 -2 226.5 -124.5t70.5 -407.5q1 -285 -70.5 -409t-226.5 -124q-157 -2 -230 123t-73 410zM298 1498h164 v81v2v82h-164v-82v-2v-81zM585 1498h164v81v2v82h-164v-82v-2v-81z" />
<glyph unicode="&#xd8;" horiz-adv-x="1048" d="M43 59l121 -75l37 59l34 54q115 -117 291 -117q219 -1 340 184t121 512q2 277 -87 454l65 101l39 61l-121 76l-37 -59l-34 -53q-113 116 -286 116q-222 -1 -344.5 -185t-122.5 -511q0 -279 88 -453l-65 -102zM223 676q0 285 72 408.5t231 123.5q132 -2 200 -85l-475 -739 q-28 112 -28 292zM321 230l475 739q27 -114 27 -293q1 -285 -70.5 -409t-226.5 -124q-134 -2 -205 87z" />
<glyph unicode="&#xd9;" horiz-adv-x="991" d="M100 526q1 -127 32 -231t84.5 -172.5t125.5 -105.5t154 -37q116 -1 219 56t157 128l17 20v342v744v82h-164v-82v-744v-284q-27 -36 -89 -67.5t-140 -31.5q-113 -2 -172.5 88.5t-59.5 294.5l2 742l2 82l-166 2l-2 -82v-744zM357 1772l41 -88l82 -174l17 -35h135l-41 88 l-82 174l-16 35h-136z" />
<glyph unicode="&#xda;" horiz-adv-x="991" d="M100 526q1 -127 32 -231t84.5 -172.5t125.5 -105.5t154 -37q116 -1 219 56t157 128l17 20v342v744v82h-164v-82v-744v-284q-27 -36 -89 -67.5t-140 -31.5q-113 -2 -172.5 88.5t-59.5 294.5l2 742l2 82l-166 2l-2 -82v-744zM357 1475h136l16 35l82 174l41 88h-135l-17 -35 l-82 -174z" />
<glyph unicode="&#xdb;" horiz-adv-x="991" d="M100 526q1 -127 32 -231t84.5 -172.5t125.5 -105.5t154 -37q116 -1 219 56t157 128l17 20v342v744v82h-164v-82v-744v-284q-27 -36 -89 -67.5t-140 -31.5q-113 -2 -172.5 88.5t-59.5 294.5l2 742l2 82l-166 2l-2 -82v-744zM204 1475h182l16 17l93 84l92 -84l16 -17h182 l-116 107l-133 123l-41 38l-41 -38l-133 -123z" />
<glyph unicode="&#xdc;" horiz-adv-x="991" d="M100 526q1 -127 32 -231t84.5 -172.5t125.5 -105.5t154 -37q116 -1 219 56t157 128l17 20v342v744v82h-164v-82v-744v-284q-27 -36 -89 -67.5t-140 -31.5q-113 -2 -172.5 88.5t-59.5 294.5l2 742l2 82l-166 2l-2 -82v-744zM269 1475h164v82v2v82h-164v-82v-2v-82z M556 1475h164v82v2v82h-164v-82v-2v-82z" />
<glyph unicode="&#xdd;" horiz-adv-x="858" d="M0 1352l45 -113l305 -765v-392v-82h164v82v395l297 764l43 111h-174l-21 -54l-227 -585l-235 587l-21 52h-176zM290 1473h135l16 35l82 174l41 88h-135l-16 -35l-82 -174z" />
<glyph unicode="&#xde;" horiz-adv-x="917" d="M102 0h164v82v178h269q152 -1 236.5 113t84.5 303q2 186 -84 301t-237 115l-269 -2v180v82h-164v-82v-1188v-82zM266 422v506h269q62 -1 95 -23.5t47.5 -75.5t14.5 -153q1 -147 -32 -199.5t-125 -52.5z" />
<glyph unicode="&#xdf;" horiz-adv-x="860" d="M82 983l2 -903l2 -82l162 4l-2 80v901q2 63 35 93t112 30q66 -1 91 -27t10 -63l-2 -2q-7 -18 -38 -88.5t-46.5 -119t-14.5 -83.5q0 -166 142 -285q9 -8 29 -26t28 -25t22 -21.5t20.5 -24.5t13.5 -24.5t11 -29.5q27 -97 -24 -143t-123 -9l-72 37l-75 -145l73 -39 q52 -27 114 -23.5t115 33t96 79t57.5 114t-1.5 137.5q-6 22 -15 43.5t-17 36.5t-23 34.5t-22.5 28.5t-27 27t-24.5 22.5t-26.5 22t-22.5 18.5q-47 42 -65.5 74t-18.5 90v2q-1 17 11.5 49.5t37.5 88t37 87.5q13 36 12 78t-23 84.5t-54.5 77t-81.5 56.5t-103 22 q-133 -1 -222 -88t-89 -199z" />
<glyph unicode="&#xe0;" horiz-adv-x="864" d="M61 510q0 -235 92.5 -382.5t245.5 -147.5q105 -1 234 104q6 -18 14 -35l21 -49h180l-53 115q-11 27 -21 68t-10 59l2 698l2 82h-166l-1 -37q-102 59 -202 59q-101 -1 -178 -69t-118.5 -188.5t-41.5 -276.5zM225 510q0 196 43.5 283.5t130.5 87.5q61 -1 115.5 -31.5 t85.5 -63.5v-274v-238q-128 -131 -201 -131q-87 -2 -130.5 85.5t-43.5 281.5zM317 1437l41 -88l82 -174l17 -35h135l-41 88l-82 174l-16 35h-136z" />
<glyph unicode="&#xe1;" horiz-adv-x="864" d="M61 510q0 -235 92.5 -382.5t245.5 -147.5q105 -1 234 104q6 -18 14 -35l21 -49h180l-53 115q-11 27 -21 68t-10 59l2 698l2 82h-166l-1 -37q-102 59 -202 59q-101 -1 -178 -69t-118.5 -188.5t-41.5 -276.5zM225 510q0 196 43.5 283.5t130.5 87.5q61 -1 115.5 -31.5 t85.5 -63.5v-274v-238q-128 -131 -201 -131q-87 -2 -130.5 85.5t-43.5 281.5zM317 1140h136l16 35l82 174l41 88h-135l-17 -35l-82 -174z" />
<glyph unicode="&#xe2;" horiz-adv-x="864" d="M61 510q0 -235 92.5 -382.5t245.5 -147.5q105 -1 234 104q6 -18 14 -35l21 -49h180l-53 115q-11 27 -21 68t-10 59l2 698l2 82h-166l-1 -37q-102 59 -202 59q-101 -1 -178 -69t-118.5 -188.5t-41.5 -276.5zM164 1140h182l16 17l93 84l92 -84l16 -17h182l-116 107 l-133 123l-41 39l-41 -39l-133 -123zM225 510q0 196 43.5 283.5t130.5 87.5q61 -1 115.5 -31.5t85.5 -63.5v-274v-238q-128 -131 -201 -131q-87 -2 -130.5 85.5t-43.5 281.5z" />
<glyph unicode="&#xe3;" horiz-adv-x="864" d="M61 510q0 -235 92.5 -382.5t245.5 -147.5q105 -1 234 104q6 -18 14 -35l21 -49h180l-53 115q-11 27 -21 68t-10 59l2 698l2 82h-166l-1 -37q-102 59 -202 59q-101 -1 -178 -69t-118.5 -188.5t-41.5 -276.5zM158 1202h123q0 65 57 65q23 -1 35.5 -9.5t36.5 -33.5 q70 -84 161 -84q70 -1 125.5 59t55.5 130h-123q0 -66 -58 -66h-2q-14 -1 -25 4.5t-18 12t-24 26.5h-2q-18 20 -26.5 27.5t-30.5 24.5t-48 24.5t-57 7.5q-68 -2 -124 -60t-56 -128zM225 510q0 196 43.5 283.5t130.5 87.5q61 -1 115.5 -31.5t85.5 -63.5v-274v-238 q-128 -131 -201 -131q-87 -2 -130.5 85.5t-43.5 281.5z" />
<glyph unicode="&#xe4;" horiz-adv-x="864" d="M61 510q0 -235 92.5 -382.5t245.5 -147.5q105 -1 234 104q6 -18 14 -35l21 -49h180l-53 115q-11 27 -21 68t-10 59l2 698l2 82h-166l-1 -37q-102 59 -202 59q-101 -1 -178 -69t-118.5 -188.5t-41.5 -276.5zM225 510q0 196 43.5 283.5t130.5 87.5q61 -1 115.5 -31.5 t85.5 -63.5v-274v-238q-128 -131 -201 -131q-87 -2 -130.5 85.5t-43.5 281.5zM229 1140h164v82v2v82h-164v-82v-2v-82zM516 1140h164v82v2v82h-164v-82v-2v-82z" />
<glyph unicode="&#xe5;" horiz-adv-x="864" d="M61 510q0 -235 92.5 -382.5t245.5 -147.5q105 -1 234 104q6 -18 14 -35l21 -49h180l-53 115q-11 27 -21 68t-10 59l2 698l2 82h-166l-1 -37q-102 59 -202 59q-101 -1 -178 -69t-118.5 -188.5t-41.5 -276.5zM225 510q0 196 43.5 283.5t130.5 87.5q61 -1 115.5 -31.5 t85.5 -63.5v-274v-238q-128 -131 -201 -131q-87 -2 -130.5 85.5t-43.5 281.5zM281 1314q0 -78 46.5 -126t127.5 -48q82 -1 128 47.5t46 126.5q2 75 -46 125t-128 50q-79 -1 -126.5 -49.5t-47.5 -125.5zM383 1314q0 46 12.5 59t59.5 13q49 -1 60 -13t11 -59q2 -47 -10 -59 t-61 -12q-46 -1 -59 12t-13 59z" />
<glyph unicode="&#xe6;" horiz-adv-x="1329" d="M102 201l15 -21q49 -74 130 -137t169 -63q159 2 249 154q88 -152 246 -154h2q59 0 113.5 14.5t86.5 31t77 44.5l-86 139q-61 -38 -97.5 -52t-93.5 -14q-51 1 -82.5 21.5t-54 85t-27.5 180.5h398h82v82v287v24l-15 21q-49 75 -130.5 137.5t-170.5 62.5q-156 -2 -247 -155 q-46 78 -111 116t-137 39h-2q-27 0 -51 -2.5t-48.5 -9.5t-39.5 -11.5t-39.5 -16.5t-32 -16t-34 -19.5t-28.5 -16.5l82 -143q7 4 34 19.5t33.5 19t27 13t31.5 12t28.5 5.5t36.5 3q39 -1 65 -12.5t49 -41.5t35.5 -87.5t16.5 -145.5h-398h-82v-82v-287v-24zM266 250v180h316 q-3 -88 -15.5 -146t-35.5 -87.5t-49.5 -41t-65.5 -12.5q-41 0 -82.5 33t-67.5 74zM750 594q4 87 17 144.5t35.5 88t48 42t62.5 12.5q43 0 84.5 -33t67.5 -74v-180h-315z" />
<glyph unicode="&#xe7;" horiz-adv-x="716" d="M59 514q1 -213 73 -352t195 -173l-63 -173q62 4 118.5 -10t61.5 -35q5 -23 -12.5 -41.5t-58.5 -18.5l-142 -2l-2 -120h144q82 -2 149.5 42t67.5 109q2 46 -31 79.5t-72 46.5t-73 13l34 103q136 15 265 127l-107 122q-102 -88 -205 -88q-89 -2 -133.5 84t-44.5 287 q1 199 45 283t133 84q117 -2 199 -88l119 114q-50 52 -136 94.5t-182 42.5q-153 -2 -247.5 -144.5t-94.5 -385.5z" />
<glyph unicode="&#xe8;" horiz-adv-x="798" d="M59 512q2 -237 93 -384.5t243 -147.5q176 -3 338 106l-90 135q-60 -40 -116.5 -59t-131.5 -19q-76 -2 -118.5 67t-51.5 220h422h82v82v305v29l-18 22q-51 65 -138 120.5t-178 55.5q-151 -1 -243.5 -149t-92.5 -383zM226 594q10 150 52 218.5t117 68.5q51 -1 96.5 -30 t73.5 -63v-194h-339zM259 1437l41 -88l82 -174l16 -35h136l-41 88l-82 174l-17 35h-135z" />
<glyph unicode="&#xe9;" horiz-adv-x="798" d="M59 512q2 -237 93 -384.5t243 -147.5q176 -3 338 106l-90 135q-60 -40 -116.5 -59t-131.5 -19q-76 -2 -118.5 67t-51.5 220h422h82v82v305v29l-18 22q-51 65 -138 120.5t-178 55.5q-151 -1 -243.5 -149t-92.5 -383zM226 594q10 150 52 218.5t117 68.5q51 -1 96.5 -30 t73.5 -63v-194h-339zM259 1140h135l17 35l82 174l41 88h-136l-16 -35l-82 -174z" />
<glyph unicode="&#xea;" horiz-adv-x="798" d="M59 512q2 -237 93 -384.5t243 -147.5q176 -3 338 106l-90 135q-60 -40 -116.5 -59t-131.5 -19q-76 -2 -118.5 67t-51.5 220h422h82v82v305v29l-18 22q-51 65 -138 120.5t-178 55.5q-151 -1 -243.5 -149t-92.5 -383zM105 1140h183l16 17l92 84l92 -84l17 -17h182l-117 107 l-133 123l-41 39l-41 -39l-133 -123zM226 594q10 150 52 218.5t117 68.5q51 -1 96.5 -30t73.5 -63v-194h-339z" />
<glyph unicode="&#xeb;" horiz-adv-x="798" d="M59 512q2 -237 93 -384.5t243 -147.5q176 -3 338 106l-90 135q-60 -40 -116.5 -59t-131.5 -19q-76 -2 -118.5 67t-51.5 220h422h82v82v305v29l-18 22q-51 65 -138 120.5t-178 55.5q-151 -1 -243.5 -149t-92.5 -383zM171 1140h164v82v2v82h-164v-82v-2v-82zM226 594 q10 150 52 218.5t117 68.5q51 -1 96.5 -30t73.5 -63v-194h-339zM458 1140h164v82v2v82h-164v-82v-2v-82z" />
<glyph unicode="&#xec;" horiz-adv-x="380" d="M55 1413l41 -88l82 -174l17 -35h135l-41 88l-82 174l-17 35h-135zM111 0h163v82v860v82h-163v-82v-860v-82z" />
<glyph unicode="&#xed;" horiz-adv-x="380" d="M55 1116h135l17 35l82 174l41 88h-135l-17 -35l-82 -174zM111 0h163v82v860v82h-163v-82v-860v-82z" />
<glyph unicode="&#xee;" horiz-adv-x="380" d="M-98 1116h182l16 17l93 84l92 -84l16 -17h182l-116 107l-134 123l-40 38l-41 -38l-134 -123zM111 0h163v82v860v82h-163v-82v-860v-82z" />
<glyph unicode="&#xef;" horiz-adv-x="380" d="M-33 1116h164v82v2v82h-164v-82v-2v-82zM111 0h163v82v860v82h-163v-82v-860v-82zM254 1116h164v82v2v82h-164v-82v-2v-82z" />
<glyph unicode="&#xf0;" horiz-adv-x="849" d="M61 471q2 -219 103.5 -355t263.5 -136q161 -1 262 136.5t101 354.5q1 440 -185 677l105 52l-86 139l-123 -85q-28 24 -58.5 46t-64 44t-47.5 32l-94 -131q15 -11 57.5 -40.5t66.5 -48.5l-129 -89l54 -78l166 83q50 -57 87 -130q-57 21 -112 21q-162 -2 -264.5 -139 t-102.5 -353zM225 471q1 172 51 250t152 78q102 -2 150.5 -78.5t48.5 -249.5q1 -174 -48.5 -251t-150.5 -77q-102 -2 -152.5 76.5t-50.5 251.5z" />
<glyph unicode="&#xf1;" horiz-adv-x="882" d="M100 0h164v82v348v82v244q133 125 215 125q50 -1 79.5 -34t44.5 -114t15 -221l3 -432l2 -82l161 4l-2 80v430q2 245 -78 388.5t-225 143.5q-97 -1 -215 -81v61h-164v-82v-117v-313v-82v-348v-82zM145 1200h123q0 66 58 66q23 -1 35 -9t36 -34q70 -84 162 -84 q70 -1 125 58.5t55 129.5h-123q0 -65 -57 -65h-2q-20 -1 -32.5 7.5t-35.5 35.5h-2q-25 26 -37 38t-48 29t-76 17q-68 -2 -124.5 -60.5t-56.5 -128.5z" />
<glyph unicode="&#xf2;" horiz-adv-x="847" d="M59 512q0 -236 101.5 -384t265.5 -148q163 -1 262.5 147t99.5 385q2 234 -99.5 383t-262.5 149q-163 -2 -265 -149.5t-102 -382.5zM223 512q0 194 50.5 281.5t152.5 87.5q100 -2 149.5 -89t49.5 -280q1 -194 -49 -281.5t-150 -87.5q-101 -2 -152 86.5t-51 282.5z M287 1437l41 -88l82 -174l16 -35h135l-41 88l-82 174l-16 35h-135z" />
<glyph unicode="&#xf3;" horiz-adv-x="847" d="M59 512q0 -236 101.5 -384t265.5 -148q163 -1 262.5 147t99.5 385q2 234 -99.5 383t-262.5 149q-163 -2 -265 -149.5t-102 -382.5zM223 512q0 194 50.5 281.5t152.5 87.5q100 -2 149.5 -89t49.5 -280q1 -194 -49 -281.5t-150 -87.5q-101 -2 -152 86.5t-51 282.5z M287 1140h135l16 35l82 174l41 88h-135l-16 -35l-82 -174z" />
<glyph unicode="&#xf4;" horiz-adv-x="847" d="M59 512q0 -236 101.5 -384t265.5 -148q163 -1 262.5 147t99.5 385q2 234 -99.5 383t-262.5 149q-163 -2 -265 -149.5t-102 -382.5zM133 1140h182l17 17l92 84l92 -84l16 -17h183l-117 107l-133 123l-41 39l-41 -39l-133 -123zM223 512q0 194 50.5 281.5t152.5 87.5 q100 -2 149.5 -89t49.5 -280q1 -194 -49 -281.5t-150 -87.5q-101 -2 -152 86.5t-51 282.5z" />
<glyph unicode="&#xf5;" horiz-adv-x="847" d="M59 512q0 -236 101.5 -384t265.5 -148q163 -1 262.5 147t99.5 385q2 234 -99.5 383t-262.5 149q-163 -2 -265 -149.5t-102 -382.5zM127 1202h123q0 65 57 65q23 -1 35.5 -9.5t36.5 -33.5q70 -84 162 -84q70 -1 125 59t55 130h-123q0 -66 -57 -66h-2q-20 -1 -32.5 7.5 t-35.5 35.5h-2q-18 20 -26.5 27.5t-30.5 24.5t-48 24.5t-57 7.5q-68 -2 -124 -60t-56 -128zM223 512q0 194 50.5 281.5t152.5 87.5q100 -2 149.5 -89t49.5 -280q1 -194 -49 -281.5t-150 -87.5q-101 -2 -152 86.5t-51 282.5z" />
<glyph unicode="&#xf6;" horiz-adv-x="847" d="M59 512q0 -236 101.5 -384t265.5 -148q163 -1 262.5 147t99.5 385q2 234 -99.5 383t-262.5 149q-163 -2 -265 -149.5t-102 -382.5zM199 1140h164v82v2v82h-164v-82v-2v-82zM223 512q0 194 50.5 281.5t152.5 87.5q100 -2 149.5 -89t49.5 -280q1 -194 -49 -281.5 t-150 -87.5q-101 -2 -152 86.5t-51 282.5zM485 1140h164v82v2v82h-164v-82v-2v-82z" />
<glyph unicode="&#xf8;" horiz-adv-x="847" d="M43 61l119 -77l39 59l14 21q90 -84 211 -84q163 -1 262.5 147t99.5 385q1 187 -66 325l44 66l39 60l-119 77l-39 -59l-14 -21q-89 84 -207 84q-163 -2 -265 -149.5t-102 -382.5q0 -188 67 -324l-44 -67zM223 512q0 194 50.5 281.5t152.5 87.5q77 -2 122 -51l-313 -477 q-12 67 -12 159zM300 194l313 477q12 -77 12 -159q1 -194 -49 -281.5t-150 -87.5q-79 -2 -126 51z" />
<glyph unicode="&#xf9;" horiz-adv-x="839" d="M100 389q2 -178 88 -293.5t236 -115.5q89 -1 171.5 41.5t127.5 97.5l16 22v248v553v82h-164v-82v-553v-190q-14 -21 -55 -38.5t-96 -17.5q-86 -1 -123 55.5t-37 190.5l2 551l2 82l-166 2l-2 -82v-553zM283 1415l41 -88l82 -174l16 -35h135l-41 88l-82 174l-16 35h-135z " />
<glyph unicode="&#xfa;" horiz-adv-x="839" d="M100 389q2 -178 88 -293.5t236 -115.5q89 -1 171.5 41.5t127.5 97.5l16 22v248v553v82h-164v-82v-553v-190q-14 -21 -55 -38.5t-96 -17.5q-86 -1 -123 55.5t-37 190.5l2 551l2 82l-166 2l-2 -82v-553zM283 1118h135l16 35l82 174l41 88h-135l-16 -35l-82 -174z" />
<glyph unicode="&#xfb;" horiz-adv-x="839" d="M100 389q2 -178 88 -293.5t236 -115.5q89 -1 171.5 41.5t127.5 97.5l16 22v248v553v82h-164v-82v-553v-190q-14 -21 -55 -38.5t-96 -17.5q-86 -1 -123 55.5t-37 190.5l2 551l2 82l-166 2l-2 -82v-553zM129 1118h182l17 16l92 84l92 -84l16 -16h183l-117 107l-133 122 l-41 39l-41 -39l-133 -122z" />
<glyph unicode="&#xfc;" horiz-adv-x="839" d="M100 389q2 -178 88 -293.5t236 -115.5q89 -1 171.5 41.5t127.5 97.5l16 22v248v553v82h-164v-82v-553v-190q-14 -21 -55 -38.5t-96 -17.5q-86 -1 -123 55.5t-37 190.5l2 551l2 82l-166 2l-2 -82v-553zM195 1118h163v82v2v82h-163v-82v-2v-82zM481 1118h164v82v2v82h-164 v-82v-2v-82z" />
<glyph unicode="&#xfd;" horiz-adv-x="696" d="M2 1024l21 -98l170 -858l10 -56l55 -8l45 -8q-39 -144 -79.5 -204.5t-96.5 -86.5l-74 -35l70 -147l74 35q178 81 268 410l2 -1l2 13l8 34q2 9 6 29l191 883l18 80l4 18h-168l-14 -66l-173 -797l-159 797l-12 66h-168zM212 1159h135l17 35l81 174l41 88h-135l-16 -35 l-82 -174z" />
<glyph unicode="&#xfe;" horiz-adv-x="860" d="M100 217v-586v-82h164v82v423q118 -74 230 -74q143 -1 228 147.5t85 384.5q2 232 -85.5 382t-227.5 150q-86 -1 -230 -100v447v82h-164v-82v-570v-579v-25zM264 266v473q1 1 37 29.5t64.5 50t67 42t61.5 20.5q49 -1 81 -36.5t50 -118.5t18 -214q3 -369 -149 -369 q-61 -2 -125.5 31.5t-104.5 91.5z" />
<glyph unicode="&#xff;" horiz-adv-x="696" d="M2 1024l21 -98l170 -858l10 -56l55 -8l45 -8q-39 -144 -79.5 -204.5t-96.5 -86.5l-74 -35l70 -147l74 35q178 81 268 410l2 -1l2 13l8 34q2 9 6 29l191 883l18 80l4 18h-168l-14 -66l-173 -797l-159 797l-12 66h-168zM124 1159h164v82v2v82h-164v-82v-2v-82zM411 1159 h163v82v2v82h-163v-82v-2v-82z" />
<glyph unicode="&#x100;" horiz-adv-x="942" d="M16 0h170l17 61l54 201h62h299h64l57 -203l19 -59h170l-29 104l-334 1188l-18 60h-62h-14h-29h-63l-17 -62l-319 -1188zM257 1473h61h308h61v123h-61h-308h-61v-123zM301 426l164 610l171 -610h-18h-299h-18z" />
<glyph unicode="&#x101;" horiz-adv-x="864" d="M61 510q0 -235 92.5 -382.5t245.5 -147.5q105 -1 234 104q6 -18 14 -35l21 -49h180l-53 115q-11 27 -21 68t-10 59l2 698l2 82h-166l-1 -37q-102 59 -202 59q-101 -1 -178 -69t-118.5 -188.5t-41.5 -276.5zM225 510q0 196 43.5 283.5t130.5 87.5q61 -1 115.5 -31.5 t85.5 -63.5v-274v-238q-128 -131 -201 -131q-87 -2 -130.5 85.5t-43.5 281.5zM240 1140h61h307h62v123h-62h-307h-61v-123z" />
<glyph unicode="&#x102;" horiz-adv-x="942" d="M16 0h170l17 61l54 201h62h299h64l57 -203l19 -59h170l-29 104l-334 1188l-18 60h-62h-14h-29h-63l-17 -62l-319 -1188zM247 1668q0 -76 69.5 -135.5t155.5 -59.5q87 -1 156 58.5t69 136.5h-123q0 -72 -102 -72q-50 -1 -76 18t-26 54h-123zM301 426l164 610l171 -610h-18 h-299h-18z" />
<glyph unicode="&#x103;" horiz-adv-x="864" d="M61 510q0 -235 92.5 -382.5t245.5 -147.5q105 -1 234 104q6 -18 14 -35l21 -49h180l-53 115q-11 27 -21 68t-10 59l2 698l2 82h-166l-1 -37q-102 59 -202 59q-101 -1 -178 -69t-118.5 -188.5t-41.5 -276.5zM225 510q0 196 43.5 283.5t130.5 87.5q61 -1 115.5 -31.5 t85.5 -63.5v-274v-238q-128 -131 -201 -131q-87 -2 -130.5 85.5t-43.5 281.5zM229 1335q0 -76 70 -135.5t156 -59.5q87 -1 156 58.5t69 136.5h-123q0 -72 -102 -72q-50 -1 -76.5 18t-26.5 54h-123z" />
<glyph unicode="&#x104;" horiz-adv-x="942" d="M16 0h170l17 61l54 201h62h299h64l57 -203l19 -59h21l-22 -17q-6 -4 -15 -11.5t-32.5 -31.5t-41.5 -48t-33 -58t-15 -66q1 -59 44.5 -110t114 -64.5t160.5 39.5l51 31l-63 104l-53 -33q-40 -25 -69 -16.5t-44.5 33.5t-15.5 55q0 31 46 88.5t93 104.5h44l-29 104 l-334 1188l-18 60h-62h-14h-29h-63l-17 -62l-319 -1188zM301 426l164 610l171 -610h-18h-299h-18z" />
<glyph unicode="&#x105;" horiz-adv-x="864" d="M61 510q0 -235 92.5 -382.5t245.5 -147.5q105 -1 234 104q6 -18 14 -35l21 -49h13l-46 -35q-6 -4 -15 -11.5t-32.5 -31.5t-41.5 -48t-33 -58t-15 -66q1 -59 44.5 -110t114 -64.5t160.5 39.5l51 31l-63 104l-53 -32q-40 -25 -69 -17t-44.5 33t-15.5 55q0 25 37.5 76.5 t75.5 90.5l38 38l-65 6h139l-53 115q-11 27 -21 68t-10 59l2 698l2 82h-166l-1 -37q-102 59 -202 59q-101 -1 -178 -69t-118.5 -188.5t-41.5 -276.5zM225 510q0 196 43.5 283.5t130.5 87.5q61 -1 115.5 -31.5t85.5 -63.5v-274v-238q-128 -131 -201 -131q-87 -2 -130.5 85.5 t-43.5 281.5z" />
<glyph unicode="&#x106;" horiz-adv-x="858" d="M59 676q2 -326 112.5 -511t303.5 -185q63 -1 125 17t113 48t84.5 55t62.5 52l-110 118q-142 -127 -275 -127q-127 -2 -189.5 124t-62.5 409q1 282 63.5 407t188.5 125q145 -2 270 -127l115 115q-28 28 -63.5 55t-85.5 56t-112 47t-124 18q-191 -2 -303.5 -188 t-112.5 -508zM323 1498h135l16 34l82 174l41 88h-135l-17 -34l-81 -174z" />
<glyph unicode="&#x107;" horiz-adv-x="716" d="M59 514q1 -245 94.5 -389.5t247.5 -144.5q162 -2 312 129l-107 122q-102 -88 -205 -88q-89 -2 -133.5 84t-44.5 287q1 199 45 283t133 84q117 -2 199 -88l119 114q-50 52 -136 94.5t-182 42.5q-153 -2 -247.5 -144.5t-94.5 -385.5zM252 1140h135l16 35l82 174l41 88h-135 l-16 -35l-82 -174z" />
<glyph unicode="&#x108;" horiz-adv-x="858" d="M59 676q2 -326 112.5 -511t303.5 -185q63 -1 125 17t113 48t84.5 55t62.5 52l-110 118q-142 -127 -275 -127q-127 -2 -189.5 124t-62.5 409q1 282 63.5 407t188.5 125q145 -2 270 -127l115 115q-28 28 -63.5 55t-85.5 56t-112 47t-124 18q-191 -2 -303.5 -188 t-112.5 -508zM169 1498h182l17 16l92 84l92 -84l16 -16h183l-117 106l-133 123l-41 39l-41 -39l-133 -123z" />
<glyph unicode="&#x109;" horiz-adv-x="716" d="M59 514q1 -245 94.5 -389.5t247.5 -144.5q162 -2 312 129l-107 122q-102 -88 -205 -88q-89 -2 -133.5 84t-44.5 287q1 199 45 283t133 84q117 -2 199 -88l119 114q-50 52 -136 94.5t-182 42.5q-153 -2 -247.5 -144.5t-94.5 -385.5zM98 1140h183l16 17l92 84l92 -84 l17 -17h182l-117 107l-133 123l-41 39l-41 -39l-133 -123z" />
<glyph unicode="&#x10a;" horiz-adv-x="858" d="M59 676q2 -326 112.5 -511t303.5 -185q63 -1 125 17t113 48t84.5 55t62.5 52l-110 118q-142 -127 -275 -127q-127 -2 -189.5 124t-62.5 409q1 282 63.5 407t188.5 125q145 -2 270 -127l115 115q-28 28 -63.5 55t-85.5 56t-112 47t-124 18q-191 -2 -303.5 -188 t-112.5 -508zM378 1498h164v81v2v82h-164v-82v-2v-81z" />
<glyph unicode="&#x10b;" horiz-adv-x="716" d="M59 514q1 -245 94.5 -389.5t247.5 -144.5q162 -2 312 129l-107 122q-102 -88 -205 -88q-89 -2 -133.5 84t-44.5 287q1 199 45 283t133 84q117 -2 199 -88l119 114q-50 52 -136 94.5t-182 42.5q-153 -2 -247.5 -144.5t-94.5 -385.5zM307 1140h164v82v2v82h-164v-82v-2v-82 z" />
<glyph unicode="&#x10c;" horiz-adv-x="858" d="M59 676q2 -326 112.5 -511t303.5 -185q63 -1 125 17t113 48t84.5 55t62.5 52l-110 118q-142 -127 -275 -127q-127 -2 -189.5 124t-62.5 409q1 282 63.5 407t188.5 125q145 -2 270 -127l115 115q-28 28 -63.5 55t-85.5 56t-112 47t-124 18q-191 -2 -303.5 -188 t-112.5 -508zM169 1766l117 -107l133 -123l41 -38l41 38l133 123l117 107h-183l-16 -17l-92 -84l-92 84l-17 17h-182z" />
<glyph unicode="&#x10d;" horiz-adv-x="716" d="M59 514q1 -245 94.5 -389.5t247.5 -144.5q162 -2 312 129l-107 122q-102 -88 -205 -88q-89 -2 -133.5 84t-44.5 287q1 199 45 283t133 84q117 -2 199 -88l119 114q-50 52 -136 94.5t-182 42.5q-153 -2 -247.5 -144.5t-94.5 -385.5zM98 1409l117 -107l133 -123l41 -39 l41 39l133 123l117 107h-182l-17 -17l-92 -84l-92 84l-16 17h-183z" />
<glyph unicode="&#x10e;" horiz-adv-x="968" d="M100 0h82h324q198 -2 299.5 163t101.5 513q3 676 -399 676l-324 -2h-82v-82l-2 -1186v-82zM213 1742l117 -107l133 -123l41 -39l41 39l133 123l117 107h-183l-16 -17l-92 -84l-92 84l-17 17h-182zM264 164v1024h244q89 -1 137.5 -41.5t73 -151.5t24.5 -319 q1 -210 -23.5 -321t-73.5 -151t-140 -40h-242z" />
<glyph unicode="&#x10f;" horiz-adv-x="1044" d="M59 512q0 -235 90 -383.5t238 -148.5q98 -1 215 81v-61h164v82v127v303v307v33v500v82h-164v-82v-369q-110 61 -215 61q-147 -1 -237.5 -149.5t-90.5 -382.5zM223 512q0 194 41.5 281.5t122.5 87.5q67 -1 125.5 -31.5t89.5 -63.5v-274v-238q-128 -131 -215 -131 q-79 -2 -121.5 87t-42.5 282zM813 1043l129 -63l31 63q23 46 34.5 103t13 98t1.5 121v72h-143v-72q0 -77 -1 -111t-8.5 -73.5t-23.5 -71.5z" />
<glyph unicode="&#x110;" horiz-adv-x="968" d="M-21 604h72h50l-1 -522v-82h82h324q198 -2 299.5 163t101.5 513q3 676 -399 676l-324 -2h-82v-82v-520h-51h-72v-144zM264 164v440h238h71v144h-71h-238v440h244q89 -1 137.5 -41.5t73 -151.5t24.5 -319q1 -210 -23.5 -321t-73.5 -151t-140 -40h-242z" />
<glyph unicode="&#x111;" horiz-adv-x="845" d="M59 512q0 -235 90 -383.5t238 -148.5q98 -1 215 81v-61h164v82v127v303v307v33v283h79h71v143h-71h-79v74v82h-164v-82v-74h-208h-71v-143h71h208v-152q-110 61 -215 61q-147 -1 -237.5 -149.5t-90.5 -382.5zM223 512q0 194 41.5 281.5t122.5 87.5q67 -1 125.5 -31.5 t89.5 -63.5v-274v-238q-128 -131 -215 -131q-79 -2 -121.5 87t-42.5 282z" />
<glyph unicode="&#x112;" horiz-adv-x="860" d="M100 0h82h568h81v164h-81h-486v430h350h82v164h-82h-350v430h486h81v164h-81h-568h-82v-82v-512v-164v-512v-82zM251 1473h61h308h61v123h-61h-308h-61v-123z" />
<glyph unicode="&#x113;" horiz-adv-x="798" d="M59 512q2 -237 93 -384.5t243 -147.5q176 -3 338 106l-90 135q-60 -40 -116.5 -59t-131.5 -19q-76 -2 -118.5 67t-51.5 220h422h82v82v305v29l-18 22q-51 65 -138 120.5t-178 55.5q-151 -1 -243.5 -149t-92.5 -383zM181 1140h62h307h61v123h-61h-307h-62v-123zM226 594 q10 150 52 218.5t117 68.5q51 -1 96.5 -30t73.5 -63v-194h-339z" />
<glyph unicode="&#x114;" horiz-adv-x="860" d="M100 0h82h568h81v164h-81h-486v430h350h82v164h-82h-350v430h486h81v164h-81h-568h-82v-82v-512v-164v-512v-82zM241 1668q0 -76 69.5 -135.5t155.5 -59.5q87 -1 156 58.5t69 136.5h-123q0 -72 -102 -72q-50 -1 -76 18t-26 54h-123z" />
<glyph unicode="&#x115;" horiz-adv-x="798" d="M59 512q2 -237 93 -384.5t243 -147.5q176 -3 338 106l-90 135q-60 -40 -116.5 -59t-131.5 -19q-76 -2 -118.5 67t-51.5 220h422h82v82v305v29l-18 22q-51 65 -138 120.5t-178 55.5q-151 -1 -243.5 -149t-92.5 -383zM171 1335q0 -76 69.5 -135.5t155.5 -59.5 q88 -1 157 58.5t69 136.5h-123q0 -72 -103 -72q-50 -1 -76 18t-26 54h-123zM226 594q10 150 52 218.5t117 68.5q51 -1 96.5 -30t73.5 -63v-194h-339z" />
<glyph unicode="&#x116;" horiz-adv-x="860" d="M100 0h82h568h81v164h-81h-486v430h350h82v164h-82h-350v430h486h81v164h-81h-568h-82v-82v-512v-164v-512v-82zM384 1473h164v82v2v82h-164v-82v-2v-82z" />
<glyph unicode="&#x117;" horiz-adv-x="798" d="M59 512q2 -237 93 -384.5t243 -147.5q176 -3 338 106l-90 135q-60 -40 -116.5 -59t-131.5 -19q-76 -2 -118.5 67t-51.5 220h422h82v82v305v29l-18 22q-51 65 -138 120.5t-178 55.5q-151 -1 -243.5 -149t-92.5 -383zM226 594q10 150 52 218.5t117 68.5q51 -1 96.5 -30 t73.5 -63v-194h-339zM314 1140h164v82v2v82h-164v-82v-2v-82z" />
<glyph unicode="&#x118;" horiz-adv-x="860" d="M100 0h82h438l-22 -16q-6 -4 -15 -11.5t-32.5 -31.5t-41.5 -48t-33 -58t-15 -66q1 -59 44.5 -110t114 -65t160.5 39l51 31l-63 105l-53 -33q-40 -25 -69 -17t-44.5 33t-15.5 55q0 50 139 193h25h81v164h-81h-486v430h350h82v164h-82h-350v430h486h81v164h-81h-568h-82 v-82v-512v-164v-512v-82z" />
<glyph unicode="&#x119;" horiz-adv-x="798" d="M59 512q2 -234 91 -381t238 -151l-19 -15q-6 -4 -15 -11.5t-33 -31.5t-42 -48t-33 -58t-15 -66q1 -59 44.5 -110t114.5 -64.5t161 39.5l51 31l-63 104l-54 -32q-40 -25 -69 -17t-44.5 33t-15.5 55q0 53 146 199q118 22 231 98l-90 135q-60 -40 -116.5 -59t-131.5 -19 q-76 -2 -118.5 67t-51.5 220h422h82v82v305v29l-18 22q-51 65 -138 120.5t-178 55.5q-151 -1 -243.5 -149t-92.5 -383zM226 594q10 150 52 218.5t117 68.5q51 -1 96.5 -30t73.5 -63v-194h-339z" />
<glyph unicode="&#x11a;" horiz-adv-x="860" d="M100 0h82h568h81v164h-81h-486v430h350h82v164h-82h-350v430h486h81v164h-81h-568h-82v-82v-512v-164v-512v-82zM175 1742l117 -107l133 -123l41 -39l41 39l133 123l117 107h-183l-16 -17l-92 -84l-92 84l-17 17h-182z" />
<glyph unicode="&#x11b;" horiz-adv-x="798" d="M59 512q2 -237 93 -384.5t243 -147.5q176 -3 338 106l-90 135q-60 -40 -116.5 -59t-131.5 -19q-76 -2 -118.5 67t-51.5 220h422h82v82v305v29l-18 22q-51 65 -138 120.5t-178 55.5q-151 -1 -243.5 -149t-92.5 -383zM105 1409l117 -107l133 -123l41 -39l41 39l133 123 l117 107h-182l-17 -17l-92 -84l-92 84l-16 17h-183zM226 594q10 150 52 218.5t117 68.5q51 -1 96.5 -30t73.5 -63v-194h-339z" />
<glyph unicode="&#x11c;" horiz-adv-x="1036" d="M59 676q1 -326 119 -511t322 -185q72 -1 133.5 12t111.5 39.5t86.5 54.5t77.5 68l25 24v498v82h-82h-350v-164h268v-346q-55 -53 -112.5 -79t-157.5 -26q-139 -2 -208 124.5t-69 408.5q1 281 68.5 406.5t204.5 125.5q53 -1 99 -12t85 -33t62.5 -39.5t56.5 -46.5l106 123 q-36 32 -66 53.5t-84 53t-120 48.5t-139 17q-201 -2 -319 -187.5t-118 -508.5zM206 1498h182l16 16l93 84l92 -84l16 -16h182l-116 106l-133 123l-41 39l-41 -39l-133 -123z" />
<glyph unicode="&#x11d;" horiz-adv-x="757" d="M59 242q2 -100 66 -175q-64 -67 -64 -169q0 -121 92 -183.5t244 -62.5q95 -1 195 44t135 91l16 23v149v27l-14 20q-37 51 -131 104.5t-201 53.5q-25 0 -51 -3v3h-82q-25 0 -33 15.5t-8 60.5q2 44 10.5 61.5t30.5 17.5h49h9h24v2q62 8 133.5 42t120.5 71l31 25v192v126 q16 29 20 45t-6 18h82v164h-82q-55 0 -108 -70q-53 40 -113 65t-109 25q-115 -1 -184.5 -104.5t-69.5 -268.5q0 -144 65 -234q-32 -37 -49.5 -85t-17.5 -90zM111 1153h182l16 16l92 84l93 -84l16 -16h182l-117 107l-133 122l-41 39l-41 -39l-133 -122zM225 -102 q0 63 32 82.5t140 19.5q47 -1 91.5 -16.5t66 -30t25.5 -21.5v-69q-4 -4 -27.5 -14t-68.5 -21.5t-87 -11.5q-78 -1 -112.5 5t-47 22.5t-12.5 54.5zM225 651q0 124 19.5 166.5t68.5 42.5q33 -1 72.5 -20t66.5 -43l-16 -27l31 -18v-101v-110q-19 -15 -68.5 -36.5t-83.5 -21.5 h-14q-31 1 -46.5 15t-22.5 49t-7 104z" />
<glyph unicode="&#x11e;" horiz-adv-x="1036" d="M59 676q1 -326 119 -511t322 -185q72 -1 133.5 12t111.5 39.5t86.5 54.5t77.5 68l25 24v498v82h-82h-350v-164h268v-346q-55 -53 -112.5 -79t-157.5 -26q-139 -2 -208 124.5t-69 408.5q1 281 68.5 406.5t204.5 125.5q53 -1 99 -12t85 -33t62.5 -39.5t56.5 -46.5l106 123 q-36 32 -66 53.5t-84 53t-120 48.5t-139 17q-201 -2 -319 -187.5t-118 -508.5zM271 1692q0 -76 70 -135t156 -59q88 -1 156.5 58t68.5 136h-123q0 -72 -102 -72q-50 -1 -76.5 18t-26.5 54h-123z" />
<glyph unicode="&#x11f;" horiz-adv-x="757" d="M59 242q2 -100 66 -175q-64 -67 -64 -169q0 -121 92 -183.5t244 -62.5q95 -1 195 44t135 91l16 23v149v27l-14 20q-37 51 -131 104.5t-201 53.5q-25 0 -51 -3v3h-82q-25 0 -33 15.5t-8 60.5q2 44 10.5 61.5t30.5 17.5h49h9h24v2q62 8 133.5 42t120.5 71l31 25v192v126 q16 29 20 45t-6 18h82v164h-82q-55 0 -108 -70q-53 40 -113 65t-109 25q-115 -1 -184.5 -104.5t-69.5 -268.5q0 -144 65 -234q-32 -37 -49.5 -85t-17.5 -90zM176 1348q0 -76 69.5 -135.5t155.5 -59.5q88 -1 157 58.5t69 136.5h-123q0 -72 -103 -72q-50 -1 -76 18t-26 54 h-123zM225 -102q0 63 32 82.5t140 19.5q47 -1 91.5 -16.5t66 -30t25.5 -21.5v-69q-4 -4 -27.5 -14t-68.5 -21.5t-87 -11.5q-78 -1 -112.5 5t-47 22.5t-12.5 54.5zM225 651q0 124 19.5 166.5t68.5 42.5q33 -1 72.5 -20t66.5 -43l-16 -27l31 -18v-101v-110 q-19 -15 -68.5 -36.5t-83.5 -21.5h-14q-31 1 -46.5 15t-22.5 49t-7 104z" />
<glyph unicode="&#x120;" horiz-adv-x="1036" d="M59 676q1 -326 119 -511t322 -185q72 -1 133.5 12t111.5 39.5t86.5 54.5t77.5 68l25 24v498v82h-82h-350v-164h268v-346q-55 -53 -112.5 -79t-157.5 -26q-139 -2 -208 124.5t-69 408.5q1 281 68.5 406.5t204.5 125.5q53 -1 99 -12t85 -33t62.5 -39.5t56.5 -46.5l106 123 q-36 32 -66 53.5t-84 53t-120 48.5t-139 17q-201 -2 -319 -187.5t-118 -508.5zM415 1498h164v81v2v82h-164v-82v-2v-81z" />
<glyph unicode="&#x121;" horiz-adv-x="757" d="M59 242q2 -100 66 -175q-64 -67 -64 -169q0 -121 92 -183.5t244 -62.5q95 -1 195 44t135 91l16 23v149v27l-14 20q-37 51 -131 104.5t-201 53.5q-25 0 -51 -3v3h-82q-25 0 -33 15.5t-8 60.5q2 44 10.5 61.5t30.5 17.5h49h9h24v2q62 8 133.5 42t120.5 71l31 25v192v126 q16 29 20 45t-6 18h82v164h-82q-55 0 -108 -70q-53 40 -113 65t-109 25q-115 -1 -184.5 -104.5t-69.5 -268.5q0 -144 65 -234q-32 -37 -49.5 -85t-17.5 -90zM225 -102q0 63 32 82.5t140 19.5q47 -1 91.5 -16.5t66 -30t25.5 -21.5v-69q-4 -4 -27.5 -14t-68.5 -21.5t-87 -11.5 q-78 -1 -112.5 5t-47 22.5t-12.5 54.5zM225 651q0 124 19.5 166.5t68.5 42.5q33 -1 72.5 -20t66.5 -43l-16 -27l31 -18v-101v-110q-19 -15 -68.5 -36.5t-83.5 -21.5h-14q-31 1 -46.5 15t-22.5 49t-7 104zM319 1153h164v82v2v82h-164v-82v-2v-82z" />
<glyph unicode="&#x122;" horiz-adv-x="1036" d="M59 676q1 -290 95 -469.5t261 -217.5l-64 -175q62 4 118.5 -10t61.5 -35q5 -23 -12.5 -41.5t-58.5 -18.5l-142 -2l-2 -121h144q82 -2 149.5 42.5t67.5 109.5q2 46 -31 79.5t-72 46.5t-73 13l34 103q123 5 208.5 50t165.5 124l25 24v498v82h-82h-350v-164h268v-346 q-55 -53 -112.5 -79t-157.5 -26q-139 -2 -208 124.5t-69 408.5q1 281 68.5 406.5t204.5 125.5q53 -1 99 -12t85 -33t62.5 -39.5t56.5 -46.5l106 123q-36 32 -66 53.5t-84 53t-120 48.5t-139 17q-201 -2 -319 -187.5t-118 -508.5z" />
<glyph unicode="&#x123;" horiz-adv-x="757" d="M59 242q2 -100 66 -175q-64 -67 -64 -169q0 -121 92 -183.5t244 -62.5q95 -1 195 44t135 91l16 23v149v27l-14 20q-37 51 -131 104.5t-201 53.5q-25 0 -51 -3v3h-82q-25 0 -33 15.5t-8 60.5q2 44 10.5 61.5t30.5 17.5h49h9h24v2q62 8 133.5 42t120.5 71l31 25v192v126 q16 29 20 45t-6 18h82v164h-82q-55 0 -108 -70q-53 40 -113 65t-109 25q-115 -1 -184.5 -104.5t-69.5 -268.5q0 -144 65 -234q-32 -37 -49.5 -85t-17.5 -90zM225 -102q0 63 32 82.5t140 19.5q47 -1 91.5 -16.5t66 -30t25.5 -21.5v-69q-4 -4 -27.5 -14t-68.5 -21.5t-87 -11.5 q-78 -1 -112.5 5t-47 22.5t-12.5 54.5zM225 651q0 124 19.5 166.5t68.5 42.5q33 -1 72.5 -20t66.5 -43l-16 -27l31 -18v-101v-110q-19 -15 -68.5 -36.5t-83.5 -21.5h-14q-31 1 -46.5 15t-22.5 49t-7 104zM246 1208l2 -61l121 2v59q-1 83 6 117.5t33 77.5l30 51l-104 64 l-33 -54q-32 -53 -44 -107t-11 -149z" />
<glyph unicode="&#x124;" horiz-adv-x="956" d="M100 0h164v82v512h426v-512v-82h164v82v512v164v512v82h-164v-82v-512h-426v512v82h-164v-82v-512v-164v-512v-82zM186 1473h183l16 17l92 84l92 -84l17 -17h182l-117 107l-133 123l-41 39l-41 -39l-133 -123z" />
<glyph unicode="&#x125;" horiz-adv-x="884" d="M102 0h164v82v346v82v246q129 125 213 125q52 -1 82 -34.5t45 -114t15 -220.5l2 -432l2 -82l161 4l-2 80v430q2 242 -78 387t-227 145q-95 -1 -213 -81v389v82h-164v-82v-527v-315v-82v-346v-82zM154 1563h182l16 16l92 84l93 -84l16 -16h182l-117 106l-133 123l-41 39 l-41 -39l-133 -123z" />
<glyph unicode="&#x126;" horiz-adv-x="956" d="M0 952h100v-194v-164v-512v-82h164v82v512h426v-512v-82h164v82v512v164v194h68v144h-68v174v82h-164v-82v-174h-426v174v82h-164v-82v-174h-100v-144zM264 758v194h426v-194h-426z" />
<glyph unicode="&#x127;" horiz-adv-x="884" d="M0 1147h71h31v-322v-315v-82v-346v-82h164v82v346v82v246q129 125 213 125q52 -1 82 -34.5t45 -114t15 -220.5l2 -432l2 -82l161 4l-2 80v430q2 242 -78 387t-227 145q-95 -1 -213 -81v184h256h72v143h-72h-256v62v82h-164v-82v-62h-31h-71v-143z" />
<glyph unicode="&#x128;" d="M-111 1535h123q0 65 58 65q23 -1 35 -9t36 -34q70 -84 162 -84q70 -1 125 59t55 130h-123q0 -66 -57 -66h-2q-20 -1 -32.5 7.5t-35.5 35.5h-2q-25 26 -37 38t-48 29t-76 17q-68 -2 -124.5 -60t-56.5 -128zM104 0h164v82v1188v82h-164v-82v-1188v-82z" />
<glyph unicode="&#x129;" horiz-adv-x="380" d="M-104 1178h122q0 65 58 65q23 -1 35 -9t36 -34q70 -84 162 -84q70 -1 125 59t55 130h-122q0 -66 -58 -66h-2q-14 -1 -25 4.5t-18 12t-24 26.5h-2q-18 20 -26.5 27.5t-30.5 24.5t-48 24.5t-57 7.5q-68 -2 -124 -60t-56 -128zM111 0h163v82v860v82h-163v-82v-860v-82z" />
<glyph unicode="&#x12a;" d="M-29 1473h62h307h61v123h-61h-307h-62v-123zM104 0h164v82v1188v82h-164v-82v-1188v-82z" />
<glyph unicode="&#x12b;" horiz-adv-x="380" d="M-23 1116h62h307h62v123h-62h-307h-62v-123zM111 0h163v82v860v82h-163v-82v-860v-82z" />
<glyph unicode="&#x12c;" d="M-39 1668q0 -76 69.5 -135.5t155.5 -59.5q88 -1 157 58.5t69 136.5h-123q0 -72 -103 -72q-50 -1 -76 18t-26 54h-123zM104 0h164v82v1188v82h-164v-82v-1188v-82z" />
<glyph unicode="&#x12d;" horiz-adv-x="380" d="M-33 1311q0 -76 70 -135.5t156 -59.5q87 -1 156 58.5t69 136.5h-123q0 -72 -102 -72q-50 -1 -76.5 18t-26.5 54h-123zM111 0h163v82v860v82h-163v-82v-860v-82z" />
<glyph unicode="&#x12e;" d="M1 -231q1 -59 44.5 -110t114.5 -65t161 39l51 31l-64 105l-53 -33q-40 -25 -69 -17t-44.5 33t-15.5 55q0 50 139 193h3v3l10 9l-10 1v69v1188v82h-164v-82v-1188v-82h56l-22 -16q-6 -4 -15 -11.5t-32.5 -31.5t-41.5 -48t-33 -58t-15 -66z" />
<glyph unicode="&#x12f;" d="M23 -229q1 -59 44.5 -110t114 -64.5t160.5 39.5l51 30l-63 105l-54 -33q-40 -25 -69 -16.5t-44.5 33.5t-15.5 55q0 25 38 76.5t76 89.5l38 39l-31 2v65v881v81h-164v-81v-881v-82h74l-18 -14q-6 -4 -15 -11.5t-32.5 -31.5t-41.5 -48t-33 -58t-15 -66zM104 1188h82h2h82 v164h-82h-2h-82v-164z" />
<glyph unicode="&#x130;" d="M104 0h164v82v1188v82h-164v-82v-1188v-82zM104 1473h164v82v2v82h-164v-82v-2v-82z" />
<glyph unicode="&#x131;" horiz-adv-x="380" d="M111 0h163v82v860v82h-163v-82v-860v-82z" />
<glyph unicode="&#x132;" horiz-adv-x="737" d="M102 -94v-164l95 12q208 32 323 171.5t115 355.5l2 968l2 82h-166l-2 -80v-970q1 -173 -67.5 -256.5t-231.5 -106.5zM102 201h164v82v968v82h-164v-82v-968v-82z" />
<glyph unicode="&#x133;" horiz-adv-x="694" d="M102 0h164v82v860v82h-164v-82v-860v-82zM102 -307v-172l105 33q58 17 109 41t103.5 67.5t90 99t61 138t23.5 182.5l2 858l2 82h-166l-2 -80v-860q1 -93 -18 -159t-58 -107t-83 -64t-109 -43zM102 1188h82h2h82v164h-82h-2h-82v-164zM430 1188h82h2h82v164h-82h-2h-82 v-164z" />
<glyph unicode="&#x134;" horiz-adv-x="552" d="M4 -100l33 -160l80 16q160 32 247 172.5t87 356.5l2 983l2 82l-166 2l-2 -82v-985q1 -178 -46 -261.5t-157 -107.5zM76 1492h182l17 17l92 84l92 -84l16 -17h183l-117 107l-133 123l-41 39l-41 -39l-133 -123z" />
<glyph unicode="&#x135;" horiz-adv-x="366" d="M-106 1116h182l16 17l92 84l92 -84l17 -17h182l-117 107l-133 123l-41 38l-41 -38l-133 -123zM-90 -332l74 -147l73 37q40 20 73 50.5t66 81.5t51.5 130.5t18.5 179.5l2 940l2 82l-166 2l-2 -82v-942q1 -102 -15 -163.5t-39 -86.5t-64 -45z" />
<glyph unicode="&#x136;" horiz-adv-x="880" d="M100 0h164v82v512h125l289 -551l22 -43h185l-64 121l-291 555l291 555l64 121h-185l-22 -43l-289 -551h-125v512v82h-164v-82v-512v-164v-512v-82zM312 -393h144q82 -2 149.5 42t67.5 109q2 46 -31 80t-72 47t-73 13l41 122h-123l-68 -186q62 4 118.5 -10t61.5 -35 q5 -23 -12.5 -41t-58.5 -18l-142 -2z" />
<glyph unicode="&#x137;" horiz-adv-x="778" d="M102 0h164v82v348h93l200 -385l25 -45h184l-61 119l-205 393l205 393l61 119h-184l-25 -45l-200 -385h-93v799v82h-164v-82v-799v-164v-348v-82zM275 -391h144q82 -2 149.5 42.5t67.5 109.5q2 46 -31 79.5t-72 46.5t-73 13l41 123h-123l-68 -187q62 4 118.5 -10t61.5 -35 q5 -23 -12.5 -41t-58.5 -18l-142 -2z" />
<glyph unicode="&#x138;" horiz-adv-x="778" d="M102 0h164v82v348h92l203 -387l23 -43h184l-63 121l-205 391l205 391l63 121h-184l-23 -43l-203 -387h-92v348v82h-164v-82v-348v-164v-348v-82z" />
<glyph unicode="&#x139;" horiz-adv-x="737" d="M100 0h82h451h82v164h-82h-369v1106v82h-164v-82v-1188v-82zM270 1473h136l16 35l82 174l41 88h-135l-17 -35l-82 -174z" />
<glyph unicode="&#x13a;" d="M45 1607h135l17 35l82 174l40 88h-135l-16 -35l-82 -174zM100 0h164v82v1311v82h-164v-82v-1311v-82z" />
<glyph unicode="&#x13b;" horiz-adv-x="737" d="M100 0h82h140l-60 -166q62 4 118.5 -10t61.5 -35q5 -23 -12.5 -41t-58.5 -18l-142 -2l-2 -121h144q82 -2 149.5 42t67.5 109q2 46 -31 80t-72 47t-73 13l34 102h187h82v164h-82h-369v1106v82h-164v-82v-1188v-82z" />
<glyph unicode="&#x13c;" d="M22 -391h144q82 -2 149.5 42.5t67.5 109.5q2 46 -31 79.5t-72 46.5t-73 13l33 100h24v82v1311v82h-164v-82v-1311v-82h17l-60 -164q62 4 119 -10.5t62 -34.5q5 -23 -13 -41t-59 -18l-141 -2z" />
<glyph unicode="&#x13d;" horiz-adv-x="737" d="M100 0h82h451h82v164h-82h-369v1106v82h-164v-82v-1188v-82zM444 958l129 -63l31 63q23 46 34.5 103t13 98t1.5 121v72h-143v-72q0 -77 -1 -111t-8.5 -73.5t-23.5 -71.5z" />
<glyph unicode="&#x13e;" horiz-adv-x="552" d="M100 0h164v82v1311v82h-164v-82v-1311v-82zM324 1076l129 -63l31 63q23 46 34.5 103t13 98t1.5 121v72h-144v-72q0 -80 -1 -111.5t-8 -72t-23 -72.5z" />
<glyph unicode="&#x13f;" horiz-adv-x="737" d="M100 0h82h451h82v164h-82h-369v1106v82h-164v-82v-1188v-82zM361 593h164v82v2v82h-164v-82v-2v-82z" />
<glyph unicode="&#x140;" horiz-adv-x="571" d="M100 0h164v82v1311v82h-164v-82v-1311v-82zM348 613h164v82v2v82h-164v-82v-2v-82z" />
<glyph unicode="&#x141;" horiz-adv-x="737" d="M100 0h82h451h82v164h-82h-369v1106v82h-164v-82v-1188v-82z" />
<glyph unicode="&#x142;" d="M-47 586l94 -107l53 48v-445v-82h164v82v590l152 135l-94 106l-58 -51v531v82h-164v-82v-676z" />
<glyph unicode="&#x143;" horiz-adv-x="968" d="M100 0h164l-18 1167l399 -1116l21 -51h55h63h82v82v1188v82h-164l15 -1168l-395 1116l-21 52h-55h-64h-82v-82v-1188v-82zM346 1473h135l17 35l82 174l41 88h-136l-16 -35l-82 -174z" />
<glyph unicode="&#x144;" horiz-adv-x="882" d="M100 0h164v82v348v82v244q133 125 215 125q50 -1 79.5 -34t44.5 -114t15 -221l3 -432l2 -82l161 4l-2 80v430q2 245 -78 388.5t-225 143.5q-97 -1 -215 -81v61h-164v-82v-117v-313v-82v-348v-82zM305 1139h135l17 34l82 175l41 88h-136l-16 -35l-82 -174z" />
<glyph unicode="&#x145;" horiz-adv-x="968" d="M100 0h164l-18 1167l399 -1116l21 -51h55h63h82v82v1188v82h-164l15 -1168l-395 1116l-21 52h-55h-64h-82v-82v-1188v-82zM303 -414h143q82 -2 150 42.5t68 109.5q2 46 -31 79.5t-72.5 46.5t-73.5 13l41 123h-123l-67 -186q62 4 118.5 -10t61.5 -35q5 -23 -13 -41.5 t-59 -18.5l-141 -2z" />
<glyph unicode="&#x146;" horiz-adv-x="882" d="M100 0h164v82v348v82v244q133 125 215 125q50 -1 79.5 -34t44.5 -114t15 -221l3 -432l2 -82l161 4l-2 80v430q2 245 -78 388.5t-225 143.5q-97 -1 -215 -81v61h-164v-82v-117v-313v-82v-348v-82zM283 -393h143q82 -2 149.5 42.5t67.5 109.5q2 46 -31 79.5t-72 46.5 t-73 13l41 123h-123l-68 -187q62 4 119 -10.5t62 -34.5q5 -23 -13 -41t-59 -18l-141 -2z" />
<glyph unicode="&#x147;" horiz-adv-x="968" d="M100 0h164l-18 1167l399 -1116l21 -51h55h63h82v82v1188v82h-164l15 -1168l-395 1116l-21 52h-55h-64h-82v-82v-1188v-82zM193 1742l116 -107l133 -123l41 -39l41 39l133 123l117 107h-182l-17 -17l-92 -84l-92 84l-16 17h-182z" />
<glyph unicode="&#x148;" horiz-adv-x="882" d="M100 0h164v82v348v82v244q133 125 215 125q50 -1 79.5 -34t44.5 -114t15 -221l3 -432l2 -82l161 4l-2 80v430q2 245 -78 388.5t-225 143.5q-97 -1 -215 -81v61h-164v-82v-117v-313v-82v-348v-82zM152 1407l116 -107l133 -122l41 -39l41 39l133 122l117 107h-182l-16 -16 l-93 -84l-92 84l-16 16h-182z" />
<glyph unicode="&#x14a;" horiz-adv-x="962" d="M102 0h164v82v981q61 72 119.5 108.5t126.5 36.5q107 2 161 -123.5t54 -408.5q2 -480 -110 -529q-29 -13 -66 7l-78 -144q87 -48 154.5 -31.5t117.5 77t82.5 159.5t48 215.5t15.5 245.5q2 322 -100 509.5t-279 186.5q-124 0 -246 -88v68h-164v-82v-1188v-82z" />
<glyph unicode="&#x14b;" horiz-adv-x="882" d="M100 0h164v82v348v82v244q129 125 215 125q50 -1 79.5 -34t44.5 -114t15 -221l3 -432q0 -219 -17 -265q-14 -36 -51 -28q-7 1 -16 4l-78 25l-49 -156l77 -25q58 -15 102 -12.5t77 30t55 66.5t35.5 98t19.5 123t6 142l2 428q0 246 -80.5 390t-224.5 144q-97 -1 -215 -81 v61h-164v-82v-117v-313v-82v-348v-82z" />
<glyph unicode="&#x14c;" horiz-adv-x="1048" d="M59 676q0 -328 122 -512t345 -184q219 -1 340 184t121 512q2 325 -120 510.5t-341 185.5q-222 -1 -344.5 -185t-122.5 -511zM223 676q0 285 72 408.5t231 123.5q156 -2 226.5 -124.5t70.5 -407.5q1 -285 -70.5 -409t-226.5 -124q-157 -2 -230 123t-73 410zM308 1498h62 h307h61v122h-61h-307h-62v-122z" />
<glyph unicode="&#x14d;" horiz-adv-x="847" d="M59 512q0 -236 101.5 -384t265.5 -148q163 -1 262.5 147t99.5 385q2 234 -99.5 383t-262.5 149q-163 -2 -265 -149.5t-102 -382.5zM209 1140h61h308h61v123h-61h-308h-61v-123zM223 512q0 194 50.5 281.5t152.5 87.5q100 -2 149.5 -89t49.5 -280q1 -194 -49 -281.5 t-150 -87.5q-101 -2 -152 86.5t-51 282.5z" />
<glyph unicode="&#x14e;" horiz-adv-x="1048" d="M59 676q0 -328 122 -512t345 -184q219 -1 340 184t121 512q2 325 -120 510.5t-341 185.5q-222 -1 -344.5 -185t-122.5 -511zM223 676q0 285 72 408.5t231 123.5q156 -2 226.5 -124.5t70.5 -407.5q1 -285 -70.5 -409t-226.5 -124q-157 -2 -230 123t-73 410zM298 1692 q0 -76 69.5 -135t155.5 -59q88 -1 157 58t69 136h-123q0 -72 -103 -72q-50 -1 -76 18t-26 54h-123z" />
<glyph unicode="&#x14f;" horiz-adv-x="847" d="M59 512q0 -236 101.5 -384t265.5 -148q163 -1 262.5 147t99.5 385q2 234 -99.5 383t-262.5 149q-163 -2 -265 -149.5t-102 -382.5zM199 1335q0 -76 69.5 -135.5t155.5 -59.5q87 -1 156 58.5t69 136.5h-123q0 -72 -102 -72q-50 -1 -76 18t-26 54h-123zM223 512 q0 194 50.5 281.5t152.5 87.5q100 -2 149.5 -89t49.5 -280q1 -194 -49 -281.5t-150 -87.5q-101 -2 -152 86.5t-51 282.5z" />
<glyph unicode="&#x150;" horiz-adv-x="1048" d="M59 676q0 -328 122 -512t345 -184q219 -1 340 184t121 512q2 325 -120 510.5t-341 185.5q-222 -1 -344.5 -185t-122.5 -511zM223 676q0 285 72 408.5t231 123.5q156 -2 226.5 -124.5t70.5 -407.5q1 -285 -70.5 -409t-226.5 -124q-157 -2 -230 123t-73 410zM263 1498h135 l17 34l82 174l41 88h-136l-16 -34l-82 -174zM509 1498h135l16 34l82 174l41 88h-135l-16 -34l-82 -174z" />
<glyph unicode="&#x151;" horiz-adv-x="847" d="M59 512q0 -236 101.5 -384t265.5 -148q163 -1 262.5 147t99.5 385q2 234 -99.5 383t-262.5 149q-163 -2 -265 -149.5t-102 -382.5zM164 1140h135l16 35l82 174l41 88h-135l-16 -35l-82 -174zM223 512q0 194 50.5 281.5t152.5 87.5q100 -2 149.5 -89t49.5 -280 q1 -194 -49 -281.5t-150 -87.5q-101 -2 -152 86.5t-51 282.5zM410 1140h135l16 35l82 174l41 88h-135l-17 -35l-81 -174z" />
<glyph unicode="&#x152;" horiz-adv-x="1433" d="M61 676q0 -349 109.5 -512.5t323.5 -163.5q146 -2 239 86v-4v-82h82h516h82v164h-82h-434v430h291h82v164h-82h-291v430h434h82v164h-82h-516h-82v-82v-6q-94 88 -239 88q-433 -3 -433 -676zM225 676q0 158 13.5 256.5t47.5 156t82.5 78.5t125.5 21q92 -1 141.5 -42 t73.5 -151t24 -319v-37q-1 -194 -26 -297t-74 -140.5t-139 -37.5q-77 -1 -125 20t-82 78.5t-48 157t-14 256.5z" />
<glyph unicode="&#x153;" horiz-adv-x="1304" d="M59 512q0 -236 96.5 -384t252.5 -148q170 -1 267 166q89 -166 245 -166q92 -1 156 26.5t136 81.5l-98 131q-61 -45 -97 -60.5t-97 -15.5q-69 -2 -109.5 67.5t-48.5 219.5h401h82v82v305v29l-16 20q-51 67 -133.5 122.5t-175.5 55.5q-76 -1 -139 -44.5t-106 -122.5 q-99 167 -267 167q-155 -1 -252 -149t-97 -383zM223 512q0 193 46.5 281t138.5 88q96 -2 142 -88.5t46 -280.5q1 -194 -46 -281.5t-142 -87.5q-91 -2 -138 87t-47 282zM762 594q18 287 158 287q90 -2 161 -93v-194h-319z" />
<glyph unicode="&#x154;" horiz-adv-x="921" d="M100 0h164v82v436h160h82q53 0 79 -59.5t72 -252.5q22 -91 35 -145l17 -61h168l-25 102q-9 35 -27 113t-27 114t-25 89.5t-32 90t-35 66.5q121 94 121 361q2 208 -74 312t-247 104l-322 -2h-82v-82l-2 -1186v-82zM264 680v508h242q39 -1 61.5 -3.5t42.5 -13t29 -24.5 t15.5 -45.5t8 -67.5t1.5 -98q1 -60 -1 -97.5t-8.5 -68t-16.5 -46t-29.5 -26t-42.5 -13.5t-60 -3h-82v-1zM351 1473h135l17 35l82 174l41 88h-136l-16 -35l-82 -174z" />
<glyph unicode="&#x155;" horiz-adv-x="573" d="M100 0h164v82v348v82q0 58 4.5 101.5t11.5 76t23 57t31 41t43.5 31t52 23.5t64.5 22l77 25l-49 155l-78 -24q-119 -39 -180 -83v5v82h-164v-82v-430v-82v-348v-82zM199 1138h135l16 35l82 174l41 88h-135l-16 -34l-82 -174z" />
<glyph unicode="&#x156;" horiz-adv-x="921" d="M100 0h164v82v436h160h82q53 0 79 -59.5t72 -252.5q22 -91 35 -145l17 -61h168l-25 102q-9 35 -27 113t-27 114t-25 89.5t-32 90t-35 66.5q121 94 121 361q2 208 -74 312t-247 104l-322 -2h-82v-82l-2 -1186v-82zM264 680v508h242q39 -1 61.5 -3.5t42.5 -13t29 -24.5 t15.5 -45.5t8 -67.5t1.5 -98q1 -60 -1 -97.5t-8.5 -68t-16.5 -46t-29.5 -26t-42.5 -13.5t-60 -3h-82v-1zM308 -393h144q82 -2 149.5 42t67.5 109q2 46 -31 80t-72.5 47t-73.5 13l41 122h-122l-68 -186q62 4 118.5 -10t61.5 -35q5 -23 -12.5 -41t-58.5 -18l-142 -2z" />
<glyph unicode="&#x157;" horiz-adv-x="573" d="M21 -399h143q82 -2 149.5 42t67.5 109q2 46 -31 80t-72 47t-73 13l36 108h23v82v348v82q0 58 4.5 101.5t11.5 76t23 57t31 41t43.5 31t52 23.5t64.5 22l77 25l-49 155l-78 -24q-119 -39 -180 -83v5v82h-164v-82v-430v-82v-348v-82h18l-63 -172q62 4 119 -10.5t62 -34.5 q5 -23 -13 -41t-59 -18l-141 -2z" />
<glyph unicode="&#x158;" horiz-adv-x="921" d="M100 0h164v82v436h160h82q53 0 79 -59.5t72 -252.5q22 -91 35 -145l17 -61h168l-25 102q-9 35 -27 113t-27 114t-25 89.5t-32 90t-35 66.5q121 94 121 361q2 208 -74 312t-247 104l-322 -2h-82v-82l-2 -1186v-82zM198 1742l116 -107l133 -123l41 -39l41 39l134 123 l116 107h-182l-16 -17l-93 -84l-92 84l-16 17h-182zM264 680v508h242q39 -1 61.5 -3.5t42.5 -13t29 -24.5t15.5 -45.5t8 -67.5t1.5 -98q1 -60 -1 -97.5t-8.5 -68t-16.5 -46t-29.5 -26t-42.5 -13.5t-60 -3h-82v-1z" />
<glyph unicode="&#x159;" horiz-adv-x="573" d="M45 1407l117 -107l133 -123l41 -39l41 39l133 123l117 107h-183l-16 -17l-92 -84l-92 84l-17 17h-182zM100 0h164v82v348v82q0 58 4.5 101.5t11.5 76t23 57t31 41t43.5 31t52 23.5t64.5 22l77 25l-49 155l-78 -24q-119 -39 -180 -83v5v82h-164v-82v-430v-82v-348v-82z " />
<glyph unicode="&#x15a;" horiz-adv-x="798" d="M45 166q5 -4 35 -32t38 -35t35.5 -30t41.5 -30t42 -22.5t49.5 -21t51.5 -10.5t61 -5q158 -1 267.5 107t109.5 259q0 41 -16 83.5t-38 75t-61 73t-67 64t-75 62.5t-66 56q-25 22 -62 53.5t-56 48t-43 41.5t-35.5 44.5t-19.5 46.5t-8 57q2 87 36 122t132 35q24 0 45 -6.5 t35.5 -14t34 -26t29 -29t33 -38.5t34.5 -41l123 106q-4 5 -32.5 40.5t-41 49.5t-45 43.5t-59.5 42.5t-68.5 25t-87.5 12q-155 -1 -243 -95t-88 -226q1 -65 16.5 -118.5t50 -98t60.5 -70t79 -68t72 -59.5h2q28 -24 77 -65t75.5 -64.5t56.5 -54.5t43.5 -56.5t13.5 -50.5 q3 -203 -213 -203q-14 0 -27.5 1.5t-24.5 3.5t-24.5 8t-21.5 9t-22.5 14t-21 15.5t-23.5 19.5t-23 20.5t-26.5 24.5t-28.5 26zM273 1498h136l16 34l82 174l41 88h-135l-17 -34l-82 -174z" />
<glyph unicode="&#x15b;" horiz-adv-x="657" d="M35 76q61 -43 116.5 -66t82 -26.5t59.5 -3.5q146 -1 244 94t98 223q0 38 -9.5 72t-31.5 63.5t-41.5 51t-54.5 46t-53 36t-54 32.5h-2q-101 60 -121 76q-43 37 -43 88q2 67 25.5 93t87.5 26q11 0 20.5 -2.5t20 -9t17.5 -11t18.5 -16.5t16.5 -16.5t18.5 -20t17.5 -19.5 l123 107q-23 27 -40 45t-51 46.5t-75.5 44t-85.5 15.5q-119 -1 -198 -84t-79 -198q0 -27 5 -51.5t11 -44t19.5 -40t22 -33t29 -30t29 -25.5t33.5 -23.5t31.5 -19.5t34.5 -19t31 -17q101 -62 124 -83q40 -36 40 -79q2 -78 -41 -116t-137 -38h-2q-34 -2 -66 9.5t-96 58.5z M198 1140h135l16 35l82 174l41 88h-135l-16 -35l-82 -174z" />
<glyph unicode="&#x15c;" horiz-adv-x="798" d="M45 166q5 -4 35 -32t38 -35t35.5 -30t41.5 -30t42 -22.5t49.5 -21t51.5 -10.5t61 -5q158 -1 267.5 107t109.5 259q0 41 -16 83.5t-38 75t-61 73t-67 64t-75 62.5t-66 56q-25 22 -62 53.5t-56 48t-43 41.5t-35.5 44.5t-19.5 46.5t-8 57q2 87 36 122t132 35q24 0 45 -6.5 t35.5 -14t34 -26t29 -29t33 -38.5t34.5 -41l123 106q-4 5 -32.5 40.5t-41 49.5t-45 43.5t-59.5 42.5t-68.5 25t-87.5 12q-155 -1 -243 -95t-88 -226q1 -65 16.5 -118.5t50 -98t60.5 -70t79 -68t72 -59.5h2q28 -24 77 -65t75.5 -64.5t56.5 -54.5t43.5 -56.5t13.5 -50.5 q3 -203 -213 -203q-14 0 -27.5 1.5t-24.5 3.5t-24.5 8t-21.5 9t-22.5 14t-21 15.5t-23.5 19.5t-23 20.5t-26.5 24.5t-28.5 26zM120 1498h182l16 16l93 84l92 -84l16 -16h182l-116 106l-133 123l-41 39l-41 -39l-133 -123z" />
<glyph unicode="&#x15d;" horiz-adv-x="657" d="M35 76q61 -43 116.5 -66t82 -26.5t59.5 -3.5q146 -1 244 94t98 223q0 38 -9.5 72t-31.5 63.5t-41.5 51t-54.5 46t-53 36t-54 32.5h-2q-101 60 -121 76q-43 37 -43 88q2 67 25.5 93t87.5 26q11 0 20.5 -2.5t20 -9t17.5 -11t18.5 -16.5t16.5 -16.5t18.5 -20t17.5 -19.5 l123 107q-23 27 -40 45t-51 46.5t-75.5 44t-85.5 15.5q-119 -1 -198 -84t-79 -198q0 -27 5 -51.5t11 -44t19.5 -40t22 -33t29 -30t29 -25.5t33.5 -23.5t31.5 -19.5t34.5 -19t31 -17q101 -62 124 -83q40 -36 40 -79q2 -78 -41 -116t-137 -38h-2q-34 -2 -66 9.5t-96 58.5z M44 1140h182l17 17l92 84l92 -84l16 -17h183l-117 107l-133 123l-41 39l-41 -39l-133 -123z" />
<glyph unicode="&#x15e;" horiz-adv-x="798" d="M45 166q6 -5 34 -31.5t37 -34t34 -28.5t40.5 -30t40 -22.5t48 -21t49.5 -12.5l-63 -172q62 4 118.5 -10t61.5 -35q5 -23 -12.5 -41.5t-58.5 -18.5l-142 -2l-2 -121h144q82 -2 149.5 42.5t67.5 109.5q2 46 -31 79.5t-72 46.5t-73 13l35 105q140 17 233 121.5t93 242.5 q0 41 -16 83.5t-38 75t-61 73t-67 64t-75 62.5t-66 56q-25 22 -62 53.5t-56 48t-43 41.5t-35.5 44.5t-19.5 46.5t-8 57q2 87 36 122t132 35q24 0 45 -6.5t35.5 -14t34 -26t29 -29t33 -38.5t34.5 -41l123 106q-4 5 -32.5 40.5t-41 49.5t-45 43.5t-59.5 42.5t-68.5 25 t-87.5 12q-155 -1 -243 -95t-88 -226q1 -65 16.5 -118.5t50 -98t60.5 -70t79 -68t72 -59.5h2q28 -24 77 -65t75.5 -64.5t56.5 -54.5t43.5 -56.5t13.5 -50.5q3 -203 -213 -203q-14 0 -27.5 1.5t-24.5 3.5t-24.5 8t-21.5 9t-22.5 14t-21 15.5t-23.5 19.5t-23 20.5t-26.5 24.5 t-28.5 26z" />
<glyph unicode="&#x15f;" horiz-adv-x="657" d="M35 76q129 -92 234 -96l-59 -164q62 4 118.5 -10t61.5 -35q5 -23 -13 -41t-59 -18l-141 -3l-2 -120h143q82 -2 150 42t68 109q2 46 -31 79.5t-72.5 46.5t-73.5 13l38 115q106 31 172 116t66 187q0 38 -9.5 72t-31.5 63.5t-41.5 51t-54.5 46t-53 36t-54 32.5h-2 q-101 60 -121 76q-43 37 -43 88q2 67 25.5 93t87.5 26q11 0 20.5 -2.5t20 -9t17.5 -11t18.5 -16.5t16.5 -16.5t18.5 -20t17.5 -19.5l123 107q-23 27 -40 45t-51 46.5t-75.5 44t-85.5 15.5q-119 -1 -198 -84t-79 -198q0 -27 5 -51.5t11 -44t19.5 -40t22 -33t29 -30t29 -25.5 t33.5 -23.5t31.5 -19.5t34.5 -19t31 -17q101 -62 124 -83q40 -36 40 -79q2 -78 -41 -116t-137 -38h-2q-34 -2 -66 9.5t-96 58.5z" />
<glyph unicode="&#x160;" horiz-adv-x="798" d="M45 166q5 -4 35 -32t38 -35t35.5 -30t41.5 -30t42 -22.5t49.5 -21t51.5 -10.5t61 -5q158 -1 267.5 107t109.5 259q0 41 -16 83.5t-38 75t-61 73t-67 64t-75 62.5t-66 56q-25 22 -62 53.5t-56 48t-43 41.5t-35.5 44.5t-19.5 46.5t-8 57q2 87 36 122t132 35q24 0 45 -6.5 t35.5 -14t34 -26t29 -29t33 -38.5t34.5 -41l123 106q-4 5 -32.5 40.5t-41 49.5t-45 43.5t-59.5 42.5t-68.5 25t-87.5 12q-155 -1 -243 -95t-88 -226q1 -65 16.5 -118.5t50 -98t60.5 -70t79 -68t72 -59.5h2q28 -24 77 -65t75.5 -64.5t56.5 -54.5t43.5 -56.5t13.5 -50.5 q3 -203 -213 -203q-14 0 -27.5 1.5t-24.5 3.5t-24.5 8t-21.5 9t-22.5 14t-21 15.5t-23.5 19.5t-23 20.5t-26.5 24.5t-28.5 26zM120 1766l117 -107l133 -123l41 -38l41 38l133 123l116 107h-182l-16 -17l-92 -84l-93 84l-16 17h-182z" />
<glyph unicode="&#x161;" horiz-adv-x="657" d="M35 76q61 -43 116.5 -66t82 -26.5t59.5 -3.5q146 -1 244 94t98 223q0 38 -9.5 72t-31.5 63.5t-41.5 51t-54.5 46t-53 36t-54 32.5h-2q-101 60 -121 76q-43 37 -43 88q2 67 25.5 93t87.5 26q11 0 20.5 -2.5t20 -9t17.5 -11t18.5 -16.5t16.5 -16.5t18.5 -20t17.5 -19.5 l123 107q-23 27 -40 45t-51 46.5t-75.5 44t-85.5 15.5q-119 -1 -198 -84t-79 -198q0 -27 5 -51.5t11 -44t19.5 -40t22 -33t29 -30t29 -25.5t33.5 -23.5t31.5 -19.5t34.5 -19t31 -17q101 -62 124 -83q40 -36 40 -79q2 -78 -41 -116t-137 -38h-2q-34 -2 -66 9.5t-96 58.5z M44 1409l117 -107l133 -123l41 -39l41 39l133 123l117 107h-183l-16 -17l-92 -84l-92 84l-17 17h-182z" />
<glyph unicode="&#x162;" horiz-adv-x="839" d="M41 1188h82h217v-1106v-67l-66 -181q62 4 119 -10.5t62 -34.5q5 -23 -13 -41t-59 -18l-141 -2l-2 -121h143q82 -2 149.5 42t67.5 109q2 46 -31 80t-72 47t-73 13l34 102h46v82v1106h213h82v164h-82h-213h-164h-217h-82v-164z" />
<glyph unicode="&#x163;" horiz-adv-x="450" d="M20 860h82h13v-348q2 -232 36.5 -339t135.5 -154l-64 -176q62 4 118.5 -10t61.5 -35q5 -23 -12.5 -41.5t-58.5 -18.5l-142 -2l-2 -121h144q82 -2 149.5 42.5t67.5 109.5q2 46 -31 79.5t-72 46.5t-73 13l24 73l4 -2l54 156l-78 27q-25 9 -39 16t-26.5 24t-17.5 36t-9 61 t-5 88t-1 127l1 348h70h82v164h-82h-70l1 203l2 82l-166 2l-2 -82v-205h-13h-82v-164z" />
<glyph unicode="&#x164;" horiz-adv-x="839" d="M41 1188h82h217v-1106v-82h164v82v1106h213h82v164h-82h-213h-164h-217h-82v-164zM129 1742l117 -107l133 -123l41 -39l41 39l133 123l117 107h-183l-16 -17l-92 -84l-92 84l-17 17h-182z" />
<glyph unicode="&#x165;" horiz-adv-x="651" d="M20 860h82h13v-348q2 -250 43.5 -357.5t165.5 -150.5l77 -27l54 156l-78 27q-25 9 -39 16t-26.5 24t-17.5 36t-9 61t-5 88t-1 127l1 348h70h82v164h-82h-70l1 203l2 82l-166 2l-2 -82v-205h-13h-82v-164zM526 883h144v71v285v72h-144v-72v-285v-71z" />
<glyph unicode="&#x166;" horiz-adv-x="839" d="M41 1188h82h217v-440h-145h-72v-144h72h145v-522v-82h164v82v522h141h72v144h-72h-141v440h213h82v164h-82h-213h-164h-217h-82v-164z" />
<glyph unicode="&#x167;" horiz-adv-x="450" d="M20 860h82h13v-348q2 -250 43.5 -357.5t165.5 -150.5l77 -27l54 156l-78 27q-25 9 -39 16t-26.5 24t-17.5 36t-9 61t-5 88t-1 127l1 348h70h82v164h-82h-70l1 203l2 82l-166 2l-2 -82v-205h-13h-82v-164z" />
<glyph unicode="&#x168;" horiz-adv-x="991" d="M100 526q1 -127 32 -231t84.5 -172.5t125.5 -105.5t154 -37q116 -1 219 56t157 128l17 20v342v744v82h-164v-82v-744v-284q-27 -36 -89 -67.5t-140 -31.5q-113 -2 -172.5 88.5t-59.5 294.5l2 742l2 82l-166 2l-2 -82v-744zM198 1537h123q0 65 57 65q23 -1 35.5 -9.5 t36.5 -33.5q70 -84 161 -84q70 -1 125.5 59t55.5 130h-123q0 -66 -58 -66h-2q-14 -1 -25 4.5t-18 12t-24 26.5h-2q-18 20 -26.5 27.5t-30.5 24.5t-48 24.5t-57 7.5q-68 -2 -124 -60t-56 -128z" />
<glyph unicode="&#x169;" horiz-adv-x="839" d="M100 389q2 -178 88 -293.5t236 -115.5q89 -1 171.5 41.5t127.5 97.5l16 22v248v553v82h-164v-82v-553v-190q-14 -21 -55 -38.5t-96 -17.5q-86 -1 -123 55.5t-37 190.5l2 551l2 82l-166 2l-2 -82v-553zM123 1179h123q0 66 57 66q23 -1 35.5 -9.5t36.5 -33.5 q70 -84 162 -84q70 -1 125 58.5t55 129.5h-123q0 -65 -57 -65h-2q-20 -1 -32.5 7.5t-35.5 35.5h-2q-18 20 -26.5 27.5t-30.5 24.5t-48 24.5t-57 7.5q-68 -2 -124 -60.5t-56 -128.5z" />
<glyph unicode="&#x16a;" horiz-adv-x="991" d="M100 526q1 -127 32 -231t84.5 -172.5t125.5 -105.5t154 -37q116 -1 219 56t157 128l17 20v342v744v82h-164v-82v-744v-284q-27 -36 -89 -67.5t-140 -31.5q-113 -2 -172.5 88.5t-59.5 294.5l2 742l2 82l-166 2l-2 -82v-744zM280 1475h61h307h62v123h-62h-307h-61v-123z " />
<glyph unicode="&#x16b;" horiz-adv-x="839" d="M100 389q2 -178 88 -293.5t236 -115.5q89 -1 171.5 41.5t127.5 97.5l16 22v248v553v82h-164v-82v-553v-190q-14 -21 -55 -38.5t-96 -17.5q-86 -1 -123 55.5t-37 190.5l2 551l2 82l-166 2l-2 -82v-553zM205 1118h61h307h62v123h-62h-307h-61v-123z" />
<glyph unicode="&#x16c;" horiz-adv-x="991" d="M100 526q1 -127 32 -231t84.5 -172.5t125.5 -105.5t154 -37q116 -1 219 56t157 128l17 20v342v744v82h-164v-82v-744v-284q-27 -36 -89 -67.5t-140 -31.5q-113 -2 -172.5 88.5t-59.5 294.5l2 742l2 82l-166 2l-2 -82v-744zM269 1670q0 -76 70 -135.5t156 -59.5 q87 -1 156 58.5t69 136.5h-123q0 -72 -102 -72q-50 -1 -76.5 18t-26.5 54h-123z" />
<glyph unicode="&#x16d;" horiz-adv-x="839" d="M100 389q2 -178 88 -293.5t236 -115.5q89 -1 171.5 41.5t127.5 97.5l16 22v248v553v82h-164v-82v-553v-190q-14 -21 -55 -38.5t-96 -17.5q-86 -1 -123 55.5t-37 190.5l2 551l2 82l-166 2l-2 -82v-553zM195 1313q0 -76 69.5 -135.5t155.5 -59.5q87 -1 156 58.5t69 136.5 h-123q0 -72 -102 -72q-50 -1 -76.5 18t-26.5 54h-122z" />
<glyph unicode="&#x16e;" horiz-adv-x="991" d="M100 526q1 -127 32 -231t84.5 -172.5t125.5 -105.5t154 -37q116 -1 219 56t157 128l17 20v342v744v82h-164v-82v-744v-284q-27 -36 -89 -67.5t-140 -31.5q-113 -2 -172.5 88.5t-59.5 294.5l2 742l2 82l-166 2l-2 -82v-744zM320 1649q0 -78 47 -126t128 -48 q82 -1 128 47.5t46 126.5q2 75 -46 124.5t-128 49.5q-79 -1 -127 -49t-48 -125zM423 1649q0 46 12.5 59t59.5 13q49 -1 60 -13t11 -59q2 -47 -10 -59t-61 -12q-46 -1 -59 12t-13 59z" />
<glyph unicode="&#x16f;" horiz-adv-x="839" d="M100 389q2 -178 88 -293.5t236 -115.5q89 -1 171.5 41.5t127.5 97.5l16 22v248v553v82h-164v-82v-553v-190q-14 -21 -55 -38.5t-96 -17.5q-86 -1 -123 55.5t-37 190.5l2 551l2 82l-166 2l-2 -82v-553zM246 1292q0 -78 46.5 -126t127.5 -48q82 -1 128 47.5t46 126.5 q2 75 -46 124.5t-128 49.5q-79 -1 -126.5 -49t-47.5 -125zM348 1292q0 46 12.5 59t59.5 13q49 -1 60 -13t11 -59q2 -48 -10 -60t-61 -12q-45 -1 -58.5 12.5t-13.5 59.5z" />
<glyph unicode="&#x170;" horiz-adv-x="991" d="M100 526q1 -127 32 -231t84.5 -172.5t125.5 -105.5t154 -37q116 -1 219 56t157 128l17 20v342v744v82h-164v-82v-744v-284q-27 -36 -89 -67.5t-140 -31.5q-113 -2 -172.5 88.5t-59.5 294.5l2 742l2 82l-166 2l-2 -82v-744zM234 1475h136l16 35l82 174l41 88h-135l-17 -35 l-82 -174zM480 1475h135l17 35l82 174l41 88h-135l-17 -35l-82 -174z" />
<glyph unicode="&#x171;" horiz-adv-x="839" d="M100 389q2 -178 88 -293.5t236 -115.5q89 -1 171.5 41.5t127.5 97.5l16 22v248v553v82h-164v-82v-553v-190q-14 -21 -55 -38.5t-96 -17.5q-86 -1 -123 55.5t-37 190.5l2 551l2 82l-166 2l-2 -82v-553zM160 1118h135l16 35l82 174l41 88h-135l-16 -35l-82 -174zM406 1118 h135l16 35l82 174l41 88h-135l-17 -35l-82 -174z" />
<glyph unicode="&#x172;" horiz-adv-x="991" d="M100 526q1 -127 32 -231t84.5 -172.5t125.5 -105.5t154 -37q23 0 34 1q-25 -22 -48.5 -47t-48 -70t-24.5 -86q1 -59 44.5 -110t114 -64.5t160.5 39.5l51 31l-63 104l-53 -33q-40 -25 -69 -16.5t-44.5 33.5t-15.5 55q0 24 36.5 74t66.5 81.5t47 47.5q117 53 188 144l17 20 v342v744v82h-164v-82v-744v-284q-27 -36 -89 -67.5t-140 -31.5q-113 -2 -172.5 88.5t-59.5 294.5l2 742l2 82l-166 2l-2 -82v-744z" />
<glyph unicode="&#x173;" horiz-adv-x="839" d="M100 389q2 -178 88 -293.5t236 -115.5h22q-99 -94 -99 -181q1 -59 44.5 -110t114.5 -65t161 39l51 31l-64 105l-53 -33q-40 -25 -69 -17t-44.5 33t-15.5 55q0 49 138 191q70 38 113 91l16 22v248v553v82h-164v-82v-553v-190q-14 -21 -55 -38.5t-96 -17.5 q-86 -1 -123 55.5t-37 190.5l2 551l2 82l-166 2l-2 -82v-553z" />
<glyph unicode="&#x174;" horiz-adv-x="1226" d="M27 1352l14 -95l184 -1187l13 -70h69h74h70l12 70l151 1097l146 -1097l12 -70h70h80h69l13 70l184 1187l14 95h-166l-12 -70l-156 -1015l-127 1015l-12 70h-70h-41h-49h-69l-13 -70l-129 -1043l-153 1043l-12 70h-166zM325 1473h182l16 17l92 84l93 -84l16 -17h182 l-116 107l-134 123l-41 39l-41 -39l-133 -123z" />
<glyph unicode="&#x175;" horiz-adv-x="1064" d="M23 1024l20 -98l170 -860l12 -66h68h35h67l13 66l124 835l125 -835l13 -66h67h35h68l12 66l170 860l20 98h-168l-12 -66l-108 -686l-117 707l-12 65h-68h-25h-24h-68l-12 -65l-120 -691l-105 670l-13 66h-167zM242 1138h182l16 17l92 84l93 -84l16 -17h182l-116 107 l-134 123l-41 39l-40 -39l-134 -123z" />
<glyph unicode="&#x176;" horiz-adv-x="858" d="M0 1352l45 -113l305 -765v-392v-82h164v82v395l297 764l43 111h-174l-21 -54l-227 -585l-235 587l-21 52h-176zM136 1473h182l17 17l92 84l92 -84l17 -17h182l-117 107l-133 123l-41 39l-41 -39l-133 -123z" />
<glyph unicode="&#x177;" horiz-adv-x="696" d="M2 1024l21 -98l170 -858l10 -56l55 -8l45 -8q-39 -144 -79.5 -204.5t-96.5 -86.5l-74 -35l70 -147l74 35q178 81 268 410l2 -1l2 13l8 34q2 9 6 29l191 883l18 80l4 18h-168l-14 -66l-173 -797l-159 797l-12 66h-168zM58 1159h183l16 16l92 84l92 -84l17 -16h182 l-117 107l-133 122l-41 39l-41 -39l-133 -122z" />
<glyph unicode="&#x178;" horiz-adv-x="858" d="M0 1352l45 -113l305 -765v-392v-82h164v82v395l297 764l43 111h-174l-21 -54l-227 -585l-235 587l-21 52h-176zM202 1473h164v82v2v82h-164v-82v-2v-82zM488 1473h164v82v2v82h-164v-82v-2v-82z" />
<glyph unicode="&#x179;" horiz-adv-x="819" d="M-2 0h43h82h594h82v164h-82h-469l461 1073l49 115h-43h-82h-479h-82v-164h82h354l-461 -1073zM261 1473h135l17 35l82 174l41 88h-136l-16 -35l-82 -174z" />
<glyph unicode="&#x17a;" horiz-adv-x="696" d="M-4 0h45h82h469h82v164h-82h-342l334 745l53 115h-45h-82h-360h-82v-164h82h233l-334 -745zM198 1116h135l16 35l82 174l41 88h-135l-16 -35l-82 -174z" />
<glyph unicode="&#x17b;" horiz-adv-x="819" d="M-2 0h43h82h594h82v164h-82h-469l461 1073l49 115h-43h-82h-479h-82v-164h82h354l-461 -1073zM316 1473h164v82v2v82h-164v-82v-2v-82z" />
<glyph unicode="&#x17c;" horiz-adv-x="696" d="M-4 0h45h82h469h82v164h-82h-342l334 745l53 115h-45h-82h-360h-82v-164h82h233l-334 -745zM253 1116h164v82v2v82h-164v-82v-2v-82z" />
<glyph unicode="&#x17d;" horiz-adv-x="819" d="M-2 0h43h82h594h82v164h-82h-469l461 1073l49 115h-43h-82h-479h-82v-164h82h354l-461 -1073zM108 1742l116 -107l133 -123l41 -39l41 39l133 123l117 107h-182l-17 -17l-92 -84l-92 84l-16 17h-182z" />
<glyph unicode="&#x17e;" horiz-adv-x="696" d="M-4 0h45h82h469h82v164h-82h-342l334 745l53 115h-45h-82h-360h-82v-164h82h233l-334 -745zM44 1384l117 -106l133 -123l41 -39l41 39l133 123l117 106h-183l-16 -16l-92 -84l-92 84l-17 16h-182z" />
<glyph unicode="&#x17f;" horiz-adv-x="432" d="M111 942l2 -862l2 -82l161 4l-2 80v860q1 93 5 147.5t10.5 90.5t24.5 53.5t36 24.5t56 14l79 14l-28 160l-80 -14q-47 -8 -81.5 -22.5t-71.5 -48.5t-60 -85t-38 -136t-15 -198z" />
<glyph unicode="&#x192;" horiz-adv-x="591" d="M0 -283l43 -157l80 22q97 27 142 144t75 346l92 788h39h82v164h-82h-19q19 142 42 191.5t69 54.5l80 12l-22 162l-82 -10q-106 -17 -165 -118.5t-88 -291.5h-28h-82v-164h82h8l-90 -768q-24 -197 -43.5 -270.5t-54.5 -83.5z" />
<glyph unicode="&#x2c6;" horiz-adv-x="552" d="M-14 1126h182l16 17l92 84l93 -84l16 -17h182l-116 107l-134 123l-41 39l-40 -39l-134 -123z" />
<glyph unicode="&#x2c7;" horiz-adv-x="552" d="M-14 1372l116 -106l134 -123l40 -39l41 39l134 123l116 106h-182l-16 -16l-93 -84l-92 84l-16 16h-182z" />
<glyph unicode="&#x2c9;" horiz-adv-x="563" d="M51 1096h62h307h61v123h-61h-307h-62v-123z" />
<glyph unicode="&#x2ca;" horiz-adv-x="348" d="M27 1096h135l16 34l82 175l41 88h-135l-16 -35l-82 -174z" />
<glyph unicode="&#x2cb;" horiz-adv-x="348" d="M27 1393l41 -88l82 -175l16 -34h135l-41 88l-82 174l-16 35h-135z" />
<glyph unicode="&#x2cd;" horiz-adv-x="604" d="M82 -113v-143h72h307h71v143h-71h-307h-72z" />
<glyph unicode="&#x2d7;" horiz-adv-x="696" d="M51 332h72h450h72v143h-72h-450h-72v-143z" />
<glyph unicode="&#x2d8;" horiz-adv-x="614" d="M82 1331q0 -76 69.5 -135t155.5 -59q88 -1 156.5 58t68.5 136h-122q0 -71 -103 -71q-50 -1 -76 17.5t-26 53.5h-123z" />
<glyph unicode="&#x2d9;" horiz-adv-x="573" d="M205 1239h164v82v2v82h-164v-82v-2v-82z" />
<glyph unicode="&#x2da;" horiz-adv-x="552" d="M113 1188q0 -78 46.5 -126t127.5 -48q82 -1 128 47.5t46 126.5q2 75 -46 124.5t-128 49.5q-79 -1 -126.5 -49t-47.5 -125zM215 1188q0 46 12.5 59t59.5 13q49 -1 60 -13t11 -59q2 -48 -10 -60t-61 -12q-45 -1 -58.5 12.5t-13.5 59.5z" />
<glyph unicode="&#x2db;" horiz-adv-x="481" d="M51 -203q1 -59 44.5 -110t114.5 -64.5t161 39.5l51 31l-64 104l-53 -33q-40 -25 -69 -16.5t-44.5 33.5t-15.5 55q0 25 38 76.5t76 89.5l38 39l-90 8l-50 -37q-6 -4 -15 -11.5t-32.5 -31.5t-41.5 -48t-33 -58t-15 -66z" />
<glyph unicode="&#x2dc;" horiz-adv-x="768" d="M92 1225h123q0 65 57 65q23 -1 35.5 -9.5t36.5 -33.5q70 -84 162 -84q70 -1 125 59t55 130h-123q0 -66 -57 -66h-2q-20 -1 -32.5 7.5t-35.5 35.5h-2q-18 20 -26.5 27.5t-30.5 24.5t-48 24.5t-57 7.5q-68 -2 -124 -60t-56 -128z" />
<glyph unicode="&#x2dd;" horiz-adv-x="634" d="M68 1096h135l16 34l82 175l41 88h-135l-17 -35l-81 -174zM313 1096h136l16 34l82 175l41 88h-135l-17 -35l-82 -174z" />
<glyph unicode="&#x2000;" horiz-adv-x="952" />
<glyph unicode="&#x2001;" horiz-adv-x="1904" />
<glyph unicode="&#x2002;" horiz-adv-x="952" />
<glyph unicode="&#x2003;" horiz-adv-x="1904" />
<glyph unicode="&#x2004;" horiz-adv-x="634" />
<glyph unicode="&#x2005;" horiz-adv-x="476" />
<glyph unicode="&#x2006;" horiz-adv-x="317" />
<glyph unicode="&#x2007;" horiz-adv-x="317" />
<glyph unicode="&#x2008;" horiz-adv-x="238" />
<glyph unicode="&#x2009;" horiz-adv-x="380" />
<glyph unicode="&#x200a;" horiz-adv-x="105" />
<glyph unicode="&#x2013;" horiz-adv-x="1064" d="M0 410h1065v163h-1065v-163z" />
<glyph unicode="&#x2014;" horiz-adv-x="1884" d="M0 410h1884v163h-1884v-163z" />
<glyph unicode="&#x2018;" d="M92 911h144v72q0 82 1 113.5t8 71t23 69.5l33 63l-127 66l-33 -63q-23 -45 -34.5 -100.5t-13 -96.5t-1.5 -123v-72z" />
<glyph unicode="&#x2019;" d="M70 948l129 -59l30 63q22 48 33 105t12.5 96.5t1.5 116.5v71h-143v-71q0 -73 -1.5 -106t-9 -73.5t-24.5 -76.5z" />
<glyph unicode="&#x201a;" d="M66 -233l127 -70l34 63q34 62 41.5 123t7.5 199v72h-143v-72q0 -129 -5 -170t-28 -82z" />
<glyph unicode="&#x201c;" horiz-adv-x="614" d="M92 911h144v72q0 79 1 110t8 71.5t23 72.5l33 66l-129 63l-31 -63q-23 -46 -34.5 -103t-13 -97.5t-1.5 -119.5v-72zM338 911h143v72q0 76 1 109.5t8.5 73t23.5 71.5l33 66l-129 63l-31 -63q-23 -46 -34.5 -103t-13 -97.5t-1.5 -119.5v-72z" />
<glyph unicode="&#x201d;" horiz-adv-x="614" d="M68 950l129 -63l30 63q23 46 34.5 103t13 97.5t1.5 119.5v71h-143v-71q0 -108 -5 -158.5t-28 -95.5zM313 950l129 -63l31 63q23 46 34.5 103t13 97.5t1.5 119.5v71h-143v-71q0 -108 -5 -158.5t-28 -95.5z" />
<glyph unicode="&#x201e;" horiz-adv-x="614" d="M68 -238l129 -63l30 63q23 46 34.5 103t13 97.5t1.5 119.5v72h-143v-72q0 -108 -5 -158.5t-28 -95.5zM313 -238l129 -63l31 63q23 46 34.5 103t13 97.5t1.5 119.5v72h-143v-72q0 -108 -5 -158.5t-28 -95.5z" />
<glyph unicode="&#x2020;" horiz-adv-x="1024" d="M41 819h82h307v-1065v-82h164v82v1065h307h82v164h-82h-307v287v82h-164v-82v-287h-307h-82v-164z" />
<glyph unicode="&#x2021;" horiz-adv-x="1024" d="M41 41h82h307v-287v-82h164v82v287h307h82v164h-82h-307v614h307h82v164h-82h-307v287v82h-164v-82v-287h-307h-82v-164h82h307v-614h-307h-82v-164z" />
<glyph unicode="&#x202f;" horiz-adv-x="380" />
<glyph unicode="&#x2039;" horiz-adv-x="737" d="M96 537l47 -54l328 -372l25 -29h217l-119 135l-281 320l281 319l119 135h-217l-25 -28l-328 -373z" />
<glyph unicode="&#x203a;" horiz-adv-x="737" d="M25 82h217l24 29l328 372l47 54l-47 53l-328 373l-24 28h-217l118 -135l281 -319l-281 -320z" />
<glyph unicode="&#x205f;" horiz-adv-x="476" />
<glyph unicode="&#x25fc;" horiz-adv-x="1024" d="M0 0v1024h1024v-1024h-1024z" />
</font>
</defs>
</svg>
