<?xml version="1.0" standalone="no"?>
<!DOCTYPE svg PUBLIC "-//W3C//DTD SVG 1.1//EN" "http://www.w3.org/Graphics/SVG/1.1/DTD/svg11.dtd" >
<svg xmlns="http://www.w3.org/2000/svg">
<metadata></metadata>
<defs>
<font id="ff4akloecond600" horiz-adv-x="952" >
<font-face units-per-em="2048" ascent="1638" descent="-410" />
<missing-glyph horiz-adv-x="500" />
<glyph unicode="!" horiz-adv-x="491" d="M164 0h164v82v2v82h-164v-82v-2v-82zM164 328h164v82v860v82h-164v-82v-860v-82z" />
<glyph unicode="&#x22;" horiz-adv-x="614" d="M82 891h164v82v297v82h-164v-82v-297v-82zM369 891h163v82v297v82h-163v-82v-297v-82z" />
<glyph unicode="#" horiz-adv-x="1146" d="M41 297h82h92l-29 -207l-12 -92h166l10 72l32 227h279l-28 -207l-12 -92h165l11 72l31 227h196h82v164h-82h-173l59 432h114h82v164h-82h-91l28 203l12 92h-166l-10 -72l-31 -223h-280l28 203l12 92h-166l-10 -72l-31 -223h-196h-82v-164h82h174l-60 -432h-114h-82v-164z M404 461l60 432h279l-59 -432h-280z" />
<glyph unicode="$" horiz-adv-x="1105" d="M82 903q1 -130 70 -221t139 -88h180v-320h-182h-82v-163h82h182v-29v-82h164v82v29h168q80 -3 150.5 86t70.5 233q1 142 -69 233.5t-148 94.5h-172v281l172 -1h82l-2 166h-82h-170v66v82h-164v-82v-66h-182h-2h-2q-69 -3 -136 -89.5t-67 -211.5zM246 903q1 51 8.5 84 t16.5 43t18 10h182v-282h-182h-2h-2q-3 0 -7.5 3.5t-10.5 14t-10.5 26t-7.5 42t-3 59.5zM635 274v320h168q17 0 29 -11.5t20 -49.5t8 -103q1 -64 -6.5 -100.5t-18.5 -46.5t-28 -9h-172z" />
<glyph unicode="%" horiz-adv-x="1433" d="M86 1008q1 -97 51.5 -184t133 -139t173.5 -52q116 -1 214 79l-465 -589l-87 -109h173l20 27l377 477q-43 -83 -43 -170q1 -90 52 -169.5t133 -126t173 -46.5q91 -1 174 46t133 126.5t50 167.5q1 95 -49 183t-133.5 142t-174.5 54q-120 0 -221 -88l471 596l86 108h-172 l-20 -26l-373 -471q39 81 39 162q1 133 -109 239.5t-248 106.5q-139 0 -248.5 -105t-109.5 -239zM250 1008q2 82 53.5 131t140.5 49t141 -49.5t52 -132.5q1 -98 -51.5 -153.5t-141.5 -55.5q-87 -2 -140.5 55.5t-53.5 155.5zM797 348q1 97 54.5 155t139.5 58q87 0 140 -58.5 t53 -156.5q1 -83 -50.5 -129.5t-142.5 -46.5q-89 -1 -141.5 47.5t-52.5 130.5z" />
<glyph unicode="&#x26;" horiz-adv-x="1310" d="M50 468q-5 -85 23.5 -168t84 -151t151.5 -110t217 -41q221 1 383 183q91 -86 187 -165l22 -18h260l-180 145q-84 68 -191 170q16 25 36 59.5t32.5 55t26 41t25 30t22.5 9.5l80 2v164l-84 -2q-30 -1 -60.5 -16t-52 -32t-53.5 -55.5t-48 -60t-51 -71.5q-189 193 -319 362 q60 37 99.5 64.5t80.5 63t61.5 71.5t20.5 73q1 65 -29.5 121t-77 90t-97.5 52.5t-95 17.5q-42 -1 -89 -18.5t-91.5 -50t-73.5 -88.5t-30 -124q-1 -69 91 -214q-184 -114 -241 -230v-2q-35 -72 -40 -157zM204.5 444q6.5 55 33.5 109q34 68 189 165q151 -202 355 -411 q-124 -144 -256 -145q-88 -1 -154.5 22.5t-103.5 63t-53.5 90.5t-10 106zM403 1067q1 66 34 92.5t91 28.5q59 2 95 -26.5t36 -90.5q1 -22 -40.5 -50t-129.5 -75l-9 -4.5t-7.5 -4t-8.5 -4.5q-61 95 -61 134z" />
<glyph unicode="'" horiz-adv-x="327" d="M92 913h144v72v285v71h-144v-71v-285v-72z" />
<glyph unicode="(" horiz-adv-x="573" d="M82 569q0 -250 74.5 -452t189.5 -342l25 -29h213l-111 135q-230 276 -227 688q3 223 58.5 377t172.5 318l90 129h-200l-25 -35q-60 -86 -103 -163.5t-80.5 -174t-56.5 -209.5t-20 -242z" />
<glyph unicode=")" horiz-adv-x="573" d="M4 -254h203l24 35q107 150 184 359t77 429q3 418 -261 789l-24 35h-201l90 -129q114 -160 173 -326t59 -369q1 -196 -65.5 -375.5t-166.5 -318.5z" />
<glyph unicode="*" horiz-adv-x="942" d="M164 1034h197l-103 -180l123 -70l90 159l90 -159l123 70l-103 180h197v144h-173l79 139l-123 69l-90 -158l-90 158l-123 -69l79 -139h-173v-144z" />
<glyph unicode="+" horiz-adv-x="942" d="M82 594h82h225v-215v-82h164v82v215h225h82v164h-82h-225v217v82h-164v-82v-217h-225h-82v-164z" />
<glyph unicode="," horiz-adv-x="368" d="M68 -238l129 -63l30 63q23 46 34.5 103t13 98t1.5 121v72h-143v-72q0 -77 -1 -111t-8.5 -73.5t-23.5 -71.5z" />
<glyph unicode="-" horiz-adv-x="778" d="M82 594h82h450h82v164h-82h-450h-82v-164z" />
<glyph unicode="." horiz-adv-x="409" d="M123 -2h164v82v2v82h-164v-82v-2v-82z" />
<glyph unicode="/" horiz-adv-x="614" d="M12 -2h170l19 57l368 1190l33 107h-170l-18 -58l-369 -1190z" />
<glyph unicode="0" horiz-adv-x="901" d="M82 717q0 -365 94 -551.5t279 -185.5q180 2 272 187.5t92 549.5q2 362 -91.5 549.5t-274.5 187.5q-183 -2 -277 -188t-94 -549zM328 717q0 214 12.5 319t37 138.5t75.5 33.5q49 -1 72.5 -34.5t35.5 -138.5t12 -318q1 -213 -11.5 -318.5t-36.5 -139t-74 -34.5 q-49 -1 -73.5 33t-37 139.5t-12.5 319.5z" />
<glyph unicode="1" horiz-adv-x="614" d="M-20 698l184 -2l82 82v-80v-577v-123h246v123v1188v123h-205l-31 -76l-205 -488z" />
<glyph unicode="2" horiz-adv-x="860" d="M82 -2h588h123v248h-121h-303q0 74 157 276q57 71 90 116t76.5 115.5t64.5 137.5t21 133q2 185 -97.5 308t-252.5 122q-33 -1 -68 -10.5t-76.5 -31.5t-81 -66.5t-67.5 -106.5l-53 -111l180 -90l66 92q61 78 104 78q41 -2 70.5 -44.5t29.5 -139.5q1 -33 -10.5 -68 t-37.5 -77t-52 -77t-70 -92q-18 -24 -28 -36l-2 -2q-44 -58 -70 -94t-65 -99.5t-60.5 -113.5t-38 -116t-16.5 -128v-123z" />
<glyph unicode="3" horiz-adv-x="901" d="M74 176l100 -72q101 -69 146 -90q65 -30 129 -32h2q158 0 263 141t105 369q1 105 -23.5 198.5t-66.5 151.5q-51 70 -147 110l198 482h-49h-123h-323h-123v-246h123h151l-100 -293l-55 -162h49h123q31 -2 57 -16.5t35 -36.5q28 -44 28 -188q1 -102 -13.5 -161.5t-39 -81 t-65.5 -22.5q-55 0 -152 60l-98 63z" />
<glyph unicode="4" horiz-adv-x="886" d="M0 301l41 -2h123l319 -3v-175v-123h246v123v174h76v246h-76v274v123h-246v-123v-273l-155 1l217 733l45 158h-256l-27 -88l-262 -889z" />
<glyph unicode="5" horiz-adv-x="901" d="M96 178l78 -74q7 -5 37.5 -27t43 -30t41.5 -24.5t49.5 -23t50 -12.5t59.5 -5q171 0 267.5 143.5t96.5 382.5q1 240 -97 376t-269 136h-2q-38 -1 -69 -19.5t-44 -42.5l29 230h249h123v246h-123h-321h-113l-10 -113l-61 -639l122 -45l91 76q78 61 129 61q29 -1 45.5 -3.5 t31.5 -12.5t22 -26t12.5 -47.5t7 -71.5t1.5 -105q1 -124 -9.5 -182.5t-34.5 -78.5t-76 -20h-2q-59 0 -168 70l-45 35z" />
<glyph unicode="6" horiz-adv-x="901" d="M82 510q2 -246 98.5 -387t272.5 -141q175 -1 270.5 142.5t95.5 383.5q1 233 -91.5 368t-242.5 136q-58 -1 -110 -47q50 211 147 305l78 63l-119 170l-100 -71q-85 -61 -147 -172.5t-93 -245.5t-45 -258t-14 -246zM328 509v1q0 78 4 143q7 73 32 93t89 20q35 -1 53.5 -5.5 t34 -17t21 -43.5t8.5 -73.5t3 -118.5q1 -124 -9.5 -182.5t-34.5 -78.5t-76 -20q-54 -1 -79 19t-35.5 78.5t-10.5 184.5zM483 1012h2h-2z" />
<glyph unicode="7" horiz-adv-x="792" d="M41 1188h123h291q-181 -517 -218 -645q-50 -175 -77 -394l-2 -14l-17 -137h248l14 108q10 81 16.5 128.5t26 129t33 128.5t60.5 187t82.5 241t123.5 350l58 164h-51h-588h-123v-246z" />
<glyph unicode="8" horiz-adv-x="901" d="M82 455q0 -214 99 -343.5t272 -129.5q170 -1 268 128.5t98 342.5q3 220 -78 329v2l-9 12q61 98 61 253q1 61 -10.5 118t-38 109.5t-65.5 91.5t-97 62.5t-129 23.5q-89 -1 -157 -35.5t-108 -93t-59.5 -128.5t-19.5 -148q0 -160 61 -256q-2 -2 -8 -11q-80 -108 -80 -327z M328 455q0 82 6.5 120t23.5 60q15 20 29.5 24.5t67.5 6.5q47 0 61 -4.5t29 -24.5q28 -41 28 -182q1 -80 -2.5 -122t-18 -67.5t-36 -32t-63.5 -6.5q-56 -1 -80.5 14.5t-34.5 62t-10 151.5zM354 1049q0 48 2 73t6 45t16.5 27t28.5 10.5t46 3.5q66 -1 80 -25.5t14 -133.5v-2 q1 -53 -3.5 -76.5t-17.5 -42.5q-10 -11 -21 -14t-52 -3h-2h-13q-35 -1 -44.5 2t-18.5 13q-21 26 -21 123z" />
<glyph unicode="9" horiz-adv-x="901" d="M82 934q1 -233 94 -365.5t246 -132.5q61 0 107 27q-48 -212 -134 -275l-94 -65l105 -189l106 60q71 39 127 124t88.5 185t54.5 219.5t29.5 219t7.5 192.5q2 234 -96 377t-270 143q-116 -1 -200.5 -66t-127.5 -181.5t-43 -272.5zM328 934q1 122 12 178.5t35.5 76 t77.5 19.5q32 -1 51 -7t34 -21t22 -47t10 -78t3 -121q0 -74 -2.5 -115.5t-8.5 -72t-21.5 -43t-34 -17t-53.5 -4.5q-30 -1 -47.5 1.5t-33 12t-23 24.5t-13 46t-7 69t-1.5 99z" />
<glyph unicode=":" horiz-adv-x="409" d="M127 -18h164v81v3v81h-164v-81v-3v-81zM127 860h164v82v2v82h-164v-82v-2v-82z" />
<glyph unicode=";" horiz-adv-x="368" d="M72 -246l133 -51l26 66q45 120 45 313v72h-143v-72q0 -172 -37 -260zM104 860h164v82v2v82h-164v-82v-2v-82z" />
<glyph unicode="&#x3c;" horiz-adv-x="1105" d="M82 621l53 -21l778 -299l111 -43v174l-53 21l-578 223l578 221l53 18v177l-111 -43l-778 -297l-53 -19v-112z" />
<glyph unicode="=" horiz-adv-x="1105" d="M82 352h82h778h82v164h-82h-778h-82v-164zM82 786h82h778h82v164h-82h-778h-82v-164z" />
<glyph unicode="&#x3e;" horiz-adv-x="1105" d="M82 258l111 43l778 299l53 21v112l-53 19l-778 297l-111 43v-177l53 -18l578 -221l-578 -223l-53 -21v-174z" />
<glyph unicode="?" horiz-adv-x="1024" d="M82 924h164v82q0 112 71 168.5t195 54.5q123 -2 194.5 -59t71.5 -166q0 -14 -2.5 -27.5t-6 -23.5t-13 -23t-15 -20.5t-22 -22.5t-23.5 -21.5t-28.5 -25t-30.5 -25.5q-43 -34 -71.5 -62t-63 -72t-52.5 -97.5t-18 -114.5q-1 -24 -1 -41.5t0.5 -27.5t0.5 -11v-82h164v82 q0 4 -0.5 15.5t-0.5 26t1 32.5v2q0 69 32.5 113.5t110.5 109.5q88 73 118 108q85 96 85 208q1 112 -63.5 202.5t-162.5 138t-204 48.5t-203.5 -44.5t-162 -136.5t-64.5 -206v-82zM432 -6h164v82v4v82h-164v-82v-4v-82z" />
<glyph unicode="@" horiz-adv-x="2068" d="M123 467q1 -169 69.5 -325.5t182 -270.5t268.5 -182t322 -68q143 -1 271 24t223 68.5t164 91t118 101.5l53 61l-121 109l-55 -60q-90 -101 -250 -166t-403 -65q-141 -1 -267 51.5t-216 143t-142.5 217.5t-52.5 270q1 143 53.5 270t142.5 217.5t215.5 143.5t266.5 53 q186 -1 336.5 -79.5t235.5 -216t85 -306.5q1 -114 -63 -219t-150 -164h-2q-154 -112 -201 -74q-22 17 -12 64q74 317 152 675l18 82l-162 35l-16 -80l-9 -39q-92 103 -212 103q-143 0 -271.5 -116t-187.5 -327q-39 -144 -6.5 -253.5t117 -174t190.5 -63.5h2q124 3 228 89 q17 -54 63.5 -89.5t108.5 -47t140 8.5t152 72q105 71 195 219.5t90 298.5q1 121 -41.5 237t-120 210.5t-179 166.5t-226 112t-254.5 40q-166 -1 -321.5 -70t-269.5 -183t-182.5 -270.5t-68.5 -324.5zM660.5 230q-40.5 70 1.5 214q50 173 126 248.5t177 75.5q87 0 128.5 -73 t6.5 -206q-98 -321 -295 -327q-104 -2 -144.5 68z" />
<glyph unicode="A" horiz-adv-x="942" d="M6 0h254l23 92l37 172h40h218h44l37 -172l23 -92h254l-39 154l-283 1106l-22 92h-96h-25h-25h-96l-22 -92l-283 -1106zM358 438l113 514l113 -514h-6h-218h-2z" />
<glyph unicode="B" horiz-adv-x="851" d="M82 0h123h321h3q149 0 227 106q79 107 78 297q0 205 -102 297q54 90 54 250v9q0 179 -77 285q-79 108 -228 108l-274 -2h-123v-123l-2 -1104v-123zM328 767v339h153h20q31 0 36 -11q4 -9 4 -59v-22v-19.5v-20v-24.5q0 -26 1 -67q1 -21 1 -38q-1 -49 -7 -61 q-8 -16 -55 -16zM329 573h152h9h36q48 -1 56 -15q7 -12 6 -78v-19v-62q0 -21 1 -54v-22q-1 -55 -5 -65q-6 -12 -40 -12h-18l-196 -2z" />
<glyph unicode="C" horiz-adv-x="819" d="M41 676q1 -208 51 -365.5t144.5 -244t220.5 -86.5h4q212 0 342 208l-146 142q-101 -105 -200 -105h-3q-56 0 -91 38q-36 39 -56 140t-20 273q1 172 20.5 271.5t55 139t94.5 39.5q107 -2 194 -102l154 133q-129 215 -348 215q-126 -1 -220.5 -88t-145 -244t-50.5 -364z " />
<glyph unicode="D" horiz-adv-x="929" d="M82 0h123h282h4q189 0 293 170q104 172 105 506v6q0 326 -104 498q-105 172 -296 172l-282 -2h-123v-123l-2 -1104v-123zM328 246v860h161q39 -1 62.5 -10t43 -33.5t29 -73.5t14.5 -123.5t5 -189.5v-24q1 -174 -13 -258q-14 -90 -45.5 -119t-97.5 -29h-159z" />
<glyph unicode="E" horiz-adv-x="854" d="M82 0h123h485h123v246h-123h-362v307h247h123v246h-123h-247v307h362h123v246h-123h-485h-123v-123v-430v-246v-430v-123z" />
<glyph unicode="F" horiz-adv-x="751" d="M82 0h246v123v430h172h123v246h-123h-172v307h280h123v246h-123h-403h-123v-123v-430v-246v-430v-123z" />
<glyph unicode="G" horiz-adv-x="997" d="M41 676q2 -317 120.5 -506.5t319.5 -189.5h5q130 0 222 48q94 49 173 134l34 35v479v123h-122h-310v-246h187v-258q-67 -70 -189 -70h-4q-99 0 -144 98q-46 100 -46 353q1 252 46 351t144 99q53 -1 98 -18t71 -36.5t61 -53.5l174 108q-52 105 -156 175.5t-248 70.5 q-197 -2 -316.5 -192.5t-119.5 -503.5z" />
<glyph unicode="H" horiz-adv-x="917" d="M82 0h246v123v430h262v-430v-123h246v123v430v246v430v123h-246v-123v-430h-262v430v123h-246v-123v-430v-246v-430v-123z" />
<glyph unicode="I" horiz-adv-x="409" d="M84 0h246v123v1106v123h-246v-123v-1106v-123z" />
<glyph unicode="J" horiz-adv-x="530" d="M-27 -35l45 -188l84 10q118 10 198 81t115.5 179t35.5 248l2 913l2 123l-248 2l-2 -123v-915v-2v-13q0 -256 -113 -284z" />
<glyph unicode="K" horiz-adv-x="874" d="M82 0h246v123v430h19l233 -483l32 -70h273l-84 176l-240 500l240 500l84 176h-273l-32 -70l-233 -483h-19v430v123h-246v-123v-430v-246v-430v-123z" />
<glyph unicode="L" horiz-adv-x="716" d="M82 0h123h368h123v246h-123h-245v983v123h-246v-123v-1106v-123z" />
<glyph unicode="M" horiz-adv-x="1146" d="M82 0h246l-41 901l170 -901h94h22h23h94l170 901l-41 -901h246v1229v123h-123h-55h-94l-25 -92l-195 -809l-194 809l-25 92h-94h-55h-123v-123v-1229z" />
<glyph unicode="N" horiz-adv-x="929" d="M82 0h246l-41 901l297 -901h86h55h123v1352h-246l53 -901l-309 901h-86h-55h-123v-123v-1229z" />
<glyph unicode="O" horiz-adv-x="1009" d="M41 676q0 -318 123.5 -507t343.5 -189h2q215 0 337 188q122 190 122 508v7q1 201 -53 357q-54 158 -160 245t-248 87q-145 -1 -251 -87.5t-161 -243t-55 -365.5zM287 676q0 174 23 272t69.5 138t128.5 40q80 -1 125 -41t67.5 -137.5t22.5 -271.5v-15q1 -164 -21 -258 q-22 -99 -68 -138.5t-126 -39.5h-5q-117 1 -166 97q-50 98 -50 354z" />
<glyph unicode="P" horiz-adv-x="876" d="M82 0h246v123v360h178h3q166 0 246 114q81 115 81 321v10q0 199 -80 310q-82 114 -250 114l-299 -2h-123v-123l-2 -1104v-123zM328 728v378h178q55 -1 63 -5q18 -9 20 -58q1 -13 1 -125v-43q0 -99 -4 -117q-6 -25 -31 -28q-8 -1 -49 -1z" />
<glyph unicode="Q" horiz-adv-x="1009" d="M41 676q0 -318 123.5 -507t343.5 -189h3q152 0 262 100l13 -14l58 -60l119 115l-58 59l-32 33q96 184 96 463v7q0 203 -53 357q-55 158 -160.5 245t-247.5 87q-145 -1 -251 -87.5t-161 -243t-55 -365.5zM287 676q0 174 23 272t69.5 138t128.5 40q80 -1 125 -41 t67.5 -137.5t22.5 -271.5v-14q0 -173 -24 -271l-54 55l-57 60l-119 -115l57 -59l83 -84q-40 -23 -101 -23h-5q-117 0 -166 97q-50 98 -50 354z" />
<glyph unicode="R" horiz-adv-x="917" d="M82 0h246v123v381h32h123q16 0 26.5 -35t36.5 -159q26 -126 46 -214l22 -96h252l-32 150q-5 22 -19 85t-19.5 86t-18 71t-22 73t-23.5 56.5t-29 54.5q110 101 111 342q0 5 -1 10q0 198 -80 310q-82 114 -250 114l-276 -2h-123v-123l-2 -1104v-123zM328 687v419h155 q55 -1 63 -5q18 -9 20 -58q1 -13 1 -125q1 -38 1 -68q0 -90 -5 -112q-9 -39 -41 -46q-14 -4 -39 -4h-123v-1h-32z" />
<glyph unicode="S" horiz-adv-x="778" d="M41 205q34 -49 61.5 -82.5t69.5 -69.5t94.5 -54.5t114.5 -18.5h6q153 0 261 110q110 112 110 277v6q0 42 -14 84q-15 45 -36 79t-57 74.5t-62 64t-67 60t-57 51.5q-21 20 -62 57.5t-53.5 50.5t-32 37.5t-25 45t-5.5 47.5q0 51 25.5 76.5t66.5 25.5q10 0 18.5 -2t17.5 -9 t16 -13t18 -20t18 -23.5t22.5 -31.5t26.5 -36l189 117q-18 40 -33 68t-44.5 68.5t-61.5 65.5t-81 43.5t-106 18.5q-78 -1 -143.5 -31.5t-107 -80t-64.5 -110.5t-23 -126q0 -58 13.5 -108.5t31 -85t48 -71t52.5 -56.5t58.5 -51t52.5 -46q25 -24 66.5 -61t61.5 -56.5 t43.5 -45.5t33 -48.5t10.5 -46.5q0 -50 -34 -86.5t-97 -36.5h-2q-37 0 -65 23t-101 102z" />
<glyph unicode="T" horiz-adv-x="847" d="M41 1106h123h139v-983v-123h246v123v983h135h123v246h-123h-135h-246h-139h-123v-246z" />
<glyph unicode="U" d="M82 537q0 -259 109 -408t286 -149h4q113 0 213 60q102 62 154 134l22 33v330v692v123h-245v-123v-692v-252q-15 -20 -55 -40t-93 -20q-149 0 -149 300v12l2 690l2 123l-248 2l-2 -123v-692z" />
<glyph unicode="V" horiz-adv-x="942" d="M6 1352l39 -154l283 -1106l22 -92h96h25h25h96l22 92l283 1106l39 154h-254l-23 -92l-188 -891l-188 891l-23 92h-254z" />
<glyph unicode="W" horiz-adv-x="1230" d="M20 1352l201 -1352h107h69h105l114 952l107 -952h104h76h107l200 1352h-249l-101 -840l-98 840h-293l-100 -840l-99 840h-250z" />
<glyph unicode="X" horiz-adv-x="929" d="M14 0h271l32 72l148 329l147 -329l33 -72h270l-77 174l-238 529l213 475l78 174h-270l-33 -72l-123 -274l-123 274l-33 72h-270l78 -174l212 -475l-237 -529z" />
<glyph unicode="Y" d="M27 1352l63 -166l266 -706v-357v-123h246v123v358l260 705l62 166h-262l-29 -80l-156 -490l-158 490l-30 80h-262z" />
<glyph unicode="Z" horiz-adv-x="876" d="M25 0h57h123h508h123v246h-123h-328l371 938l65 168h-57h-123h-410h-122v-246h122h230l-371 -938z" />
<glyph unicode="[" horiz-adv-x="614" d="M82 -172v-82h82h287h81v164h-81h-205v1173h205h81v164h-81h-287h-82v-82v-1337z" />
<glyph unicode="\" horiz-adv-x="737" d="M49 1352l37 -109l410 -1190l18 -55h174l-37 108l-409 1190l-19 56h-174z" />
<glyph unicode="]" horiz-adv-x="614" d="M82 -90v-164h82h287h81v82v1337v82h-81h-287h-82v-164h82h205v-1173h-205h-82z" />
<glyph unicode="^" horiz-adv-x="942" d="M29 594h184l23 45l237 453l232 -453l24 -45h184l-61 119l-305 594l-25 45h-98l-23 -45l-309 -594z" />
<glyph unicode="_" horiz-adv-x="1064" d="M-41 -90v-164h82h983h82v164h-82h-983h-82z" />
<glyph unicode="`" horiz-adv-x="450" d="M41 1352l47 -113l123 -295l20 -51h179l-48 113l-122 294l-21 52h-178z" />
<glyph unicode="a" horiz-adv-x="823" d="M41 510q0 -147 41 -267t119 -191.5t178 -71.5h7q81 0 175 65l23 -45h215l-8 29q-21 49 -34.5 131t-13.5 108l2 631l3 123h-248v-1q-62 23 -119 23q-151 -3 -245.5 -155t-94.5 -379zM287 510q0 113 10.5 177.5t30 88t51.5 23.5q39 -1 72 -20t47 -36v-231v-197 q-78 -90 -117 -90q-49 0 -71.5 61.5t-22.5 223.5z" />
<glyph unicode="b" horiz-adv-x="827" d="M82 0h246v54q76 -74 141 -74h5q94 0 166 71q74 73 111 193.5t37 267.5v8q0 142 -36 258q-38 120 -112 193t-171 73h-2q-71 -1 -139 -63v371v123h-246v-123v-547v-537v-35v-110v-123zM328 303v399q93 97 143 97q24 0 39 -22.5t24 -87t9 -177.5v-22q0 -99 -8 -157 q-9 -64 -24.5 -86t-41.5 -22h-2h-7q-36 0 -70 19q-38 21 -62 59z" />
<glyph unicode="c" horiz-adv-x="696" d="M41 514q2 -235 95.5 -384.5t244.5 -149.5h4q101 0 181 54q82 56 110 130l-162 125q-68 -64 -131 -64q-35 0 -54.5 22t-30.5 85.5t-11 181.5q1 117 12 180t29.5 84t52.5 21q74 -2 127 -62l168 103q-25 87 -107.5 145.5t-185.5 58.5q-151 -2 -246.5 -149.5t-95.5 -380.5z " />
<glyph unicode="d" horiz-adv-x="806" d="M41 512q0 -225 91.5 -378.5t238.5 -153.5h2q65 0 129 60v-40h246v123v96v293v279v47v514v123h-246v-123v-358q-60 50 -129 50q-97 -2 -173.5 -73.5t-117.5 -191.5t-41 -267zM287 512q0 164 20.5 225.5t63.5 61.5q44 -1 80.5 -20.5t50.5 -35.5v-231v-199q-82 -88 -129 -88 q-29 0 -47 23t-28.5 87.5t-10.5 176.5z" />
<glyph unicode="e" horiz-adv-x="790" d="M41 512q1 -148 41 -268.5t116.5 -192t176.5 -71.5h7q207 0 314 165l-141 142q-45 -34 -83.5 -48t-94.5 -14q-39 0 -60.5 40.5t-27.5 144.5h299h123v102v276v41l-25 33q-49 65 -133.5 123.5t-175.5 58.5q-99 -2 -176.5 -73.5t-118.5 -191.5t-41 -267zM289 604 q6 110 26.5 152.5t59.5 42.5q28 0 52.5 -16.5t37.5 -34.5v-144h-176z" />
<glyph unicode="f" horiz-adv-x="471" d="M35 840h72l2 -719l2 -123l243 4l-2 121v717h99v184h-99q0 88 6.5 133t17 62t34.5 32l102 60l-53 192l-119 -33q-48 -15 -78.5 -31t-61 -47t-48 -76.5t-29.5 -118t-15 -173.5h-73v-184z" />
<glyph unicode="g" horiz-adv-x="788" d="M41 -139q0 -133 95 -222.5t259 -89.5h4q98 0 201 51q105 52 141 105l23 31v182v37l-21 31q-34 51 -134.5 104t-211.5 53q-22 0 -64 -4l-59 4q-11 0 -16.5 3t-9.5 16.5t-4 40.5q1 39 8.5 51t21.5 12l3 3q18 -3 36 -3h4q71 0 159 34q91 34 140 75l43 37v417h89v195h-123 q-59 0 -111 -54q-110 74 -199 74h-2q-122 -3 -197 -122.5t-75 -296.5q0 -152 66 -248q-58 -81 -58 -172v-2q2 -88 55 -167q-63 -71 -63 -175zM266 -139q0 34 30 56t99 22q13 0 26.5 -3t24.5 -6.5t22 -9t19.5 -10.5t16 -10t12 -9t8.5 -7l4 -3v-65q-1 0 -14.5 -7t-29.5 -14.5 t-40.5 -13.5t-46.5 -6q-71 0 -102 22q-29 21 -29 59v5zM276 625q0 80 5 119.5t11.5 47t20.5 7.5q24 0 61.5 -19.5t49.5 -34.5v-120v-119q-72 -35 -109 -35h-2q-37 0 -37 154z" />
<glyph unicode="h" horiz-adv-x="843" d="M82 0h246v123v264v123v207q82 82 125 82q37 0 51 -59.5t14 -227.5l2 -391l2 -123l244 4l-2 121v389q0 262 -78 397t-233 135h-2q-60 -1 -123 -59v367v123h-246v-123v-537v-305v-123v-264v-123z" />
<glyph unicode="i" horiz-adv-x="380" d="M70 0h245v123v799v122h-245v-122v-799v-123zM70 1147h123h2h122v246h-122h-2h-123v-246z" />
<glyph unicode="j" horiz-adv-x="409" d="M-125 -317l70 -175l55 15q79 21 138 59.5t103 100t66.5 151.5t22.5 207l2 858l2 123l-248 2l-2 -123v-860v-16q0 -98 -12 -155q-12 -63 -31 -86.5t-57 -43.5zM84 1147h123h2h123v246h-123h-2h-123v-246z" />
<glyph unicode="k" horiz-adv-x="776" d="M82 0h246v123v266h8l158 -389h270l-82 174l-158 338l158 338l82 174h-270l-158 -389h-8v758v123h-246v-123v-758v-246v-266v-123z" />
<glyph unicode="l" horiz-adv-x="407" d="M82 0h246v123v1270v123h-246v-123v-1270v-123z" />
<glyph unicode="m" horiz-adv-x="1200" d="M82 0h246v123v360v123v113q79 59 108 59q10 0 16 -1.5t11.5 -7.5t8 -16t5 -30.5t3 -47t1.5 -69.5v-483v-123h246v123v483v2q0 52 -10 110q83 60 102 60q26 0 36.5 -10.5t14.5 -44t4 -117.5l3 -485l2 -123l243 4l-2 121v483v6q0 112 -36 204q-38 96 -107 152t-156 56h-2 q-45 -1 -90 -37t-79 -92q-83 129 -212 129h-2q-51 -1 -108 -48v48h-246v-123v-43v-252v-123v-360v-123z" />
<glyph unicode="n" horiz-adv-x="843" d="M82 0h246v123v266v123v205q78 82 127 82q36 0 49.5 -60t13.5 -227l2 -391l2 -123l244 4l-2 121v389q-2 261 -80 396.5t-229 135.5h-2q-64 -1 -125 -58v38h-246v-123v-86v-303v-123v-266v-123z" />
<glyph unicode="o" horiz-adv-x="808" d="M41 512q0 -148 45.5 -269t130 -192t191.5 -71h2q160 0 260 152t100 380v6q0 143 -44 262q-45 121 -129 192.5t-189 71.5q-106 -1 -190.5 -71.5t-130.5 -191.5t-46 -269zM287 512q0 112 13 175.5t38.5 87.5t69.5 24q42 -1 66 -25t37 -87t13 -175v-12q0 -156 -26 -214 q-27 -62 -90 -61h-4q-60 1 -88 61q-28 62 -29 226z" />
<glyph unicode="p" horiz-adv-x="827" d="M82 233v-561v-123h246v123v382q76 -74 141 -74h5q93 0 165 71q74 73 111.5 193.5t37.5 267.5v7q0 141 -38 259q-38 120 -112 193t-169 73h-2q-76 -1 -139 -53v33h-246v-123v-106v-527v-35zM328 303v410q24 32 62.5 58.5t80.5 27.5q23 0 38 -22.5t24.5 -88t9.5 -176.5v-22 q0 -98 -8 -156q-9 -65 -25 -87t-41 -22h-2h-7q-35 0 -70 19q-38 21 -62 59z" />
<glyph unicode="q" horiz-adv-x="827" d="M41 512q0 -225 91.5 -378.5t238.5 -153.5h2q65 0 129 59v-367v-123h246v123v549v291v279v47v63v123h-246v-30q-60 50 -129 50q-97 -2 -173.5 -73.5t-117.5 -191.5t-41 -267zM287 512q0 164 20.5 225.5t63.5 61.5q44 -1 80.5 -20.5t50.5 -35.5v-231v-197q-81 -90 -129 -90 q-29 0 -47 23t-28.5 87.5t-10.5 176.5z" />
<glyph unicode="r" horiz-adv-x="573" d="M82 0h246v123v266v123q0 59 1 94t8 65t12.5 44t24.5 29t34 21.5t49 20.5l112 48l-92 227l-47 -17q-58 -24 -102 -86v66h-246v-123v-512v-266v-123z" />
<glyph unicode="s" horiz-adv-x="655" d="M27 123q41 -58 112.5 -100.5t153.5 -42.5q79 0 145 28t108 74.5t65 104.5t24 120q-1 51 -19.5 95.5t-56.5 84t-75 68t-95 66.5q-123 75 -123 116q0 62 53 62q20 0 37.5 -13t53.5 -49l176 115q-8 28 -28 59.5t-50.5 62t-75.5 50.5t-94 20h-2q-122 -2 -208 -90 q-86 -86 -85 -216q0 -36 6.5 -66t16 -52.5t27.5 -45t31 -36.5t37 -32t36.5 -26t37 -23t31.5 -19q69 -42 96 -70t27 -55v-2q0 -34 -24 -60t-72 -26h-2q-21 0 -40 8t-75 41z" />
<glyph unicode="t" horiz-adv-x="493" d="M41 840h63v-328q1 -216 12 -282q18 -110 86 -170q30 -25 74 -48l111 -53l105 186l-82 60q-42 33 -52 83q-8 41 -8 167v57l1 328h100v186h-99v201l2 123l-248 2l-2 -123v-203h-63v-186z" />
<glyph unicode="u" horiz-adv-x="800" d="M82 399q0 -90 19.5 -165.5t58.5 -132.5t101 -89t142 -32h4q85 0 167 46q84 46 124 103l23 33v239v500v123h-246v-123v-500v-161l-7 -3q-6 -3 -23.5 -7.5t-38.5 -4.5q-39 0 -58.5 39.5t-19.5 136.5l2 498l2 123l-248 2l-2 -123v-500v-2z" />
<glyph unicode="v" horiz-adv-x="751" d="M8 1024l37 -152l191 -778l22 -94h96h23h20h97l22 94l191 778l36 152h-251l-115 -676l-117 676h-252z" />
<glyph unicode="w" horiz-adv-x="1064" d="M14 1024l29 -147l154 -779l20 -98h100h31h101l83 737l84 -737h101h31h100l20 98l154 779l29 147h-250l-53 -676l-93 676h-100h-23h-22h-100l-95 -676l-51 676h-250z" />
<glyph unicode="x" horiz-adv-x="802" d="M10 0h273l118 287l119 -287h273l-276 519l253 505h-272l-97 -287l-96 287h-272l252 -505z" />
<glyph unicode="y" horiz-adv-x="743" d="M16 1024l27 -145l143 -779l15 -82l73 -14q-30 -135 -57.5 -189.5t-64.5 -78.5l-105 -64l127 -209l105 64q179 107 257 539l3 12l161 799l25 120h-1l5 27h-250l-20 -98l-111 -547l-82 645h-250z" />
<glyph unicode="z" horiz-adv-x="761" d="M20 0h62h123h393h123v246h-123h-242l285 608l72 170h-62h-123h-301h-123v-246h123h142l-277 -608z" />
<glyph unicode="{" horiz-adv-x="655" d="M53 567q87 -91 120.5 -170.5t33.5 -195.5q1 -73 14.5 -147.5t40.5 -145t75.5 -115.5t111.5 -47l83 -2v164l-79 2q-36 1 -58 83.5t-24 207.5q0 126 -32.5 231.5t-64.5 138.5q29 33 63 141t34 232q2 121 23.5 203t56.5 82h81v164h-81q-64 0 -113 -44.5t-76 -115.5 t-40.5 -144.5t-14.5 -144.5q0 -196 -105 -321z" />
<glyph unicode="|" horiz-adv-x="491" d="M164 -352v-82h164v82v1663v82h-164v-82v-1663z" />
<glyph unicode="}" horiz-adv-x="614" d="M82 -90v-164h82q42 0 75.5 15.5t56.5 40.5t39.5 63t26 75.5t15.5 86t8 87t2 85.5q4 112 37 185t86 130l55 57l-33 33q-137 130 -145 342q-5 443 -221 447l-84 2v-164l80 -2q33 0 46 -75t15 -210v-2q3 -87 29 -178t49.5 -138.5t34.5 -58.5q-8 -9 -22.5 -34.5t-35.5 -71.5 t-37 -115t-18 -143q-2 -155 -13.5 -224t-45.5 -69h-82z" />
<glyph unicode="~" horiz-adv-x="1105" d="M80 594h164l2 80q2 53 27 83t87 31q25 -1 58.5 -21t69 -48.5t74.5 -56.5t88 -48t98 -20q82 -1 147.5 45.5t97 109.5t31.5 123v82h-164v-82q0 -114 -112 -114q-22 -1 -53 19t-65.5 48t-74 57t-90.5 49t-103 21h-2q-69 -1 -124.5 -30t-87.5 -72.5t-48.5 -88t-17.5 -83.5z " />
<glyph unicode="&#xa1;" horiz-adv-x="491" d="M164 -287v-82h164v82v903v82h-164v-82v-903zM164 860h82h2h82v164h-82h-2h-82v-164z" />
<glyph unicode="&#xa8;" horiz-adv-x="563" d="M41 1239h164v82v2v82h-164v-82v-2v-82zM328 1239h164v82v2v82h-164v-82v-2v-82z" />
<glyph unicode="&#xab;" horiz-adv-x="1064" d="M137 537l47 -54l328 -372l25 -29h217l-119 135l-281 320l281 319l119 135h-217l-25 -28l-328 -373zM465 537l47 -54l328 -372l24 -29h217l-118 135l-281 320l281 319l118 135h-217l-24 -28l-328 -373z" />
<glyph unicode="&#xaf;" horiz-adv-x="1024" d="M0 1434h1024v163h-1024v-163z" />
<glyph unicode="&#xb4;" horiz-adv-x="348" d="M-4 956h160l20 39l92 181l54 104h-160l-21 -39l-92 -180z" />
<glyph unicode="&#xb8;" horiz-adv-x="575" d="M143 -373h144q82 -2 149.5 42.5t67.5 109.5q2 46 -31 79.5t-72 46.5t-73 13l41 123h-123l-68 -186q62 4 118.5 -10t61.5 -35q5 -23 -12.5 -41.5t-58.5 -18.5l-142 -2z" />
<glyph unicode="&#xbb;" horiz-adv-x="1064" d="M-16 82h217l24 29l328 372l47 54l-47 53l-328 373l-24 28h-217l118 -135l281 -319l-281 -320zM311 82h217l25 29l328 372l47 54l-47 53l-328 373l-25 28h-217l119 -135l281 -319l-281 -320z" />
<glyph unicode="&#xbf;" horiz-adv-x="1064" d="M82 0q1 -119 65 -215t161 -145.5t204 -49.5q108 -1 205.5 48.5t161 145.5t63.5 216v82h-164v-82q0 -122 -71.5 -184t-194.5 -62q-121 -2 -193.5 62t-72.5 184q1 27 9.5 49t31.5 47t40.5 40.5t59.5 49.5q45 38 72 64.5t62.5 72t53 99t17.5 115.5l2 73l2 82l-166 4l-2 -82 v-75v-2q1 -30 -7 -56.5t-16.5 -44t-32.5 -43t-37.5 -37.5t-49.5 -43q-87 -71 -119 -106q-84 -95 -84 -207zM430 860h82h2h82v164h-82h-2h-82v-164z" />
<glyph unicode="&#xc0;" horiz-adv-x="942" d="M6 0h254l23 92l37 172h40h218h44l37 -172l23 -92h254l-39 154l-283 1106l-22 92h-96h-25h-25h-96l-22 -92l-283 -1106zM334 1770l41 -88l82 -174l16 -35h135l-41 88l-82 174l-16 35h-135zM358 438l113 514l113 -514h-6h-218h-2z" />
<glyph unicode="&#xc1;" horiz-adv-x="942" d="M6 0h254l23 92l37 172h40h218h44l37 -172l23 -92h254l-39 154l-283 1106l-22 92h-96h-25h-25h-96l-22 -92l-283 -1106zM334 1473h135l16 35l82 174l41 88h-135l-16 -35l-82 -174zM358 438l113 514l113 -514h-6h-218h-2z" />
<glyph unicode="&#xc2;" horiz-adv-x="942" d="M6 0h254l23 92l37 172h40h218h44l37 -172l23 -92h254l-39 154l-283 1106l-22 92h-96h-25h-25h-96l-22 -92l-283 -1106zM180 1473h182l17 17l92 84l92 -84l17 -17h182l-117 107l-133 123l-41 39l-41 -39l-133 -123zM358 438l113 514l113 -514h-6h-218h-2z" />
<glyph unicode="&#xc3;" horiz-adv-x="942" d="M6 0h254l23 92l37 172h40h218h44l37 -172l23 -92h254l-39 154l-283 1106l-22 92h-96h-25h-25h-96l-22 -92l-283 -1106zM174 1535h123q0 65 57 65q23 -1 35.5 -9.5t36.5 -33.5q70 -84 162 -84q70 -1 125 59t55 130h-123q0 -66 -57 -66h-2q-20 -1 -32.5 7.5t-35.5 35.5h-2 q-18 20 -26.5 27.5t-30.5 24.5t-48 24.5t-57 7.5q-68 -2 -124 -60t-56 -128zM358 438l113 514l113 -514h-6h-218h-2z" />
<glyph unicode="&#xc4;" horiz-adv-x="942" d="M6 0h254l23 92l37 172h40h218h44l37 -172l23 -92h254l-39 154l-283 1106l-22 92h-96h-25h-25h-96l-22 -92l-283 -1106zM246 1473h164v82v2v82h-164v-82v-2v-82zM358 438l113 514l113 -514h-6h-218h-2zM532 1473h164v82v2v82h-164v-82v-2v-82z" />
<glyph unicode="&#xc5;" horiz-adv-x="942" d="M6 0h254l23 92l37 172h40h218h44l37 -172l23 -92h254l-39 154l-283 1106l-22 92h-96h-25h-25h-96l-22 -92l-283 -1106zM297 1647q0 -78 46.5 -126t127.5 -48q82 -1 128 47.5t46 126.5q2 75 -46 125t-128 50q-79 -1 -126.5 -49.5t-47.5 -125.5zM358 438l113 514l113 -514 h-6h-218h-2zM399 1647q0 46 12.5 59t59.5 13q49 -1 60.5 -13.5t11.5 -58.5q2 -47 -10.5 -59t-61.5 -12q-46 -1 -59 12t-13 59z" />
<glyph unicode="&#xc6;" horiz-adv-x="1259" d="M4 0h254l25 92l45 174h32h205v-143v-123h123h408h123v246h-123h-285v307h174h123v246h-123h-174v307h285h123v246h-123h-285h-246h-114h-95l-24 -92l-287 -1106zM381 471l164 635h20v-307v-246v-82h-184z" />
<glyph unicode="&#xc7;" horiz-adv-x="819" d="M41 676q2 -279 90 -462.5t243 -223.5l-63 -174q62 4 118.5 -10t61.5 -35q5 -23 -13 -41t-59 -18l-141 -2l-2 -121h143q82 -2 149.5 42.5t67.5 109.5q2 46 -31 79.5t-72 46.5t-73 13l34 101q191 15 309 207l-146 142q-101 -105 -200 -105q-58 -1 -94 38t-56 140t-20 273 q1 172 20.5 271.5t55 139t94.5 39.5q107 -2 194 -102l154 133q-129 215 -348 215q-126 -1 -220.5 -88t-145 -244t-50.5 -364z" />
<glyph unicode="&#xc8;" horiz-adv-x="854" d="M82 0h123h485h123v246h-123h-362v307h247h123v246h-123h-247v307h362h123v246h-123h-485h-123v-123v-430v-246v-430v-123zM310 1770l41 -88l82 -174l17 -35h135l-41 88l-82 174l-17 35h-135z" />
<glyph unicode="&#xc9;" horiz-adv-x="854" d="M82 0h123h485h123v246h-123h-362v307h247h123v246h-123h-247v307h362h123v246h-123h-485h-123v-123v-430v-246v-430v-123zM310 1473h135l17 35l82 174l41 88h-135l-17 -35l-82 -174z" />
<glyph unicode="&#xca;" horiz-adv-x="854" d="M82 0h123h485h123v246h-123h-362v307h247h123v246h-123h-247v307h362h123v246h-123h-485h-123v-123v-430v-246v-430v-123zM157 1473h182l16 17l92 84l93 -84l16 -17h182l-116 107l-134 123l-41 39l-40 -39l-134 -123z" />
<glyph unicode="&#xcb;" horiz-adv-x="854" d="M82 0h123h485h123v246h-123h-362v307h247h123v246h-123h-247v307h362h123v246h-123h-485h-123v-123v-430v-246v-430v-123zM222 1473h164v82v2v82h-164v-82v-2v-82zM509 1473h164v82v2v82h-164v-82v-2v-82z" />
<glyph unicode="&#xcc;" horiz-adv-x="409" d="M70 1770l41 -88l82 -174l16 -35h135l-41 88l-82 174l-16 35h-135zM84 0h246v123v1106v123h-246v-123v-1106v-123z" />
<glyph unicode="&#xcd;" horiz-adv-x="409" d="M70 1473h135l16 35l82 174l41 88h-135l-16 -35l-82 -174zM84 0h246v123v1106v123h-246v-123v-1106v-123z" />
<glyph unicode="&#xce;" horiz-adv-x="409" d="M-84 1473h182l17 17l92 84l92 -84l16 -17h183l-117 107l-133 123l-41 39l-41 -39l-133 -123zM84 0h246v123v1106v123h-246v-123v-1106v-123z" />
<glyph unicode="&#xcf;" horiz-adv-x="409" d="M-18 1473h163v82v2v82h-163v-82v-2v-82zM84 0h246v123v1106v123h-246v-123v-1106v-123zM268 1473h164v82v2v82h-164v-82v-2v-82z" />
<glyph unicode="&#xd0;" horiz-adv-x="929" d="M-39 604h72h50l-1 -481v-123h123h282q193 -2 297.5 169.5t104.5 506.5q1 331 -104 503.5t-296 172.5l-282 -2h-123v-123l-1 -479h-50h-72v-144zM328 246v358h155h72v144h-72h-155v358h161q39 -1 62.5 -10t43 -33.5t29 -73.5t14.5 -123.5t5 -189.5q1 -191 -13.5 -281.5 t-45.5 -119.5t-97 -29h-159z" />
<glyph unicode="&#xd1;" horiz-adv-x="929" d="M82 0h246l-41 901l297 -901h86h55h123v1352h-246l53 -901l-309 901h-86h-55h-123v-123v-1229zM168 1535h123q0 65 57 65q23 -1 35.5 -9.5t36.5 -33.5q70 -84 162 -84q70 -1 125 59t55 130h-123q0 -66 -57 -66h-2q-20 -1 -32.5 7.5t-35.5 35.5h-2q-18 20 -26.5 27.5 t-30.5 24.5t-48 24.5t-57 7.5q-68 -2 -124 -60t-56 -128z" />
<glyph unicode="&#xd2;" horiz-adv-x="1009" d="M41 676q0 -318 123.5 -507t343.5 -189q217 -1 339 188.5t122 507.5q1 207 -53.5 364.5t-160 244.5t-247.5 87q-145 -1 -251 -87.5t-161 -243t-55 -365.5zM287 676q0 174 23 272t69.5 138t128.5 40q80 -1 125 -41t67.5 -137.5t22.5 -271.5q1 -174 -21.5 -273t-68 -138.5 t-125.5 -39.5q-121 -2 -171 96.5t-50 354.5zM368 1794l41 -88l82 -174l16 -35h135l-41 89l-82 174l-16 34h-135z" />
<glyph unicode="&#xd3;" horiz-adv-x="1009" d="M41 676q0 -318 123.5 -507t343.5 -189q217 -1 339 188.5t122 507.5q1 207 -53.5 364.5t-160 244.5t-247.5 87q-145 -1 -251 -87.5t-161 -243t-55 -365.5zM287 676q0 174 23 272t69.5 138t128.5 40q80 -1 125 -41t67.5 -137.5t22.5 -271.5q1 -174 -21.5 -273t-68 -138.5 t-125.5 -39.5q-121 -2 -171 96.5t-50 354.5zM368 1497h135l16 35l82 174l41 88h-135l-16 -34l-82 -174z" />
<glyph unicode="&#xd4;" horiz-adv-x="1009" d="M41 676q0 -318 123.5 -507t343.5 -189q217 -1 339 188.5t122 507.5q1 207 -53.5 364.5t-160 244.5t-247.5 87q-145 -1 -251 -87.5t-161 -243t-55 -365.5zM214 1497h182l17 17l92 84l92 -84l16 -16h183l-117 106l-133 123l-41 39l-41 -39l-133 -123zM287 676q0 174 23 272 t69.5 138t128.5 40q80 -1 125 -41t67.5 -137.5t22.5 -271.5q1 -174 -21.5 -273t-68 -138.5t-125.5 -39.5q-121 -2 -171 96.5t-50 354.5z" />
<glyph unicode="&#xd5;" horiz-adv-x="1009" d="M41 676q0 -318 123.5 -507t343.5 -189q217 -1 339 188.5t122 507.5q1 207 -53.5 364.5t-160 244.5t-247.5 87q-145 -1 -251 -87.5t-161 -243t-55 -365.5zM208 1559h123q0 66 57 66q23 -1 35.5 -9.5t36.5 -33.5q70 -84 162 -84q70 -1 125 58.5t55 129.5h-123 q0 -66 -57 -66h-2q-20 -1 -32.5 7.5t-35.5 35.5h-2q-18 20 -26.5 27.5t-30.5 24.5t-48 24.5t-57 7.5q-68 -2 -124 -60t-56 -128zM287 676q0 174 23 272t69.5 138t128.5 40q80 -1 125 -41t67.5 -137.5t22.5 -271.5q1 -174 -21.5 -273t-68 -138.5t-125.5 -39.5 q-121 -2 -171 96.5t-50 354.5z" />
<glyph unicode="&#xd6;" horiz-adv-x="1009" d="M41 676q0 -318 123.5 -507t343.5 -189q217 -1 339 188.5t122 507.5q1 207 -53.5 364.5t-160 244.5t-247.5 87q-145 -1 -251 -87.5t-161 -243t-55 -365.5zM280 1497h163v82v2v82h-163v-82v-2v-82zM287 676q0 174 23 272t69.5 138t128.5 40q80 -1 125 -41t67.5 -137.5 t22.5 -271.5q1 -174 -21.5 -273t-68 -138.5t-125.5 -39.5q-121 -2 -171 96.5t-50 354.5zM566 1497h164v82v2v82h-164v-82v-2v-82z" />
<glyph unicode="&#xd8;" horiz-adv-x="1009" d="M41 676q0 -280 96 -460l-35 -54l-36 -62l120 -75l39 59l4 6q113 -110 279 -110q217 -1 339 188.5t122 507.5q2 268 -89 447l42 67l36 61l-120 76l-39 -59l-10 -15q-114 119 -281 119q-145 -1 -251 -87.5t-161 -243t-55 -365.5zM287 676q0 174 23 272t69.5 138t128.5 40 q106 -2 154 -76l-365 -579q-10 80 -10 205zM356 291l359 570q8 -69 8 -185q1 -174 -21.5 -273t-68 -138.5t-125.5 -39.5q-103 -2 -152 66z" />
<glyph unicode="&#xd9;" d="M82 537q0 -259 109 -408t286 -149q114 -1 216.5 60.5t154.5 133.5l22 33v330v692v123h-245v-123v-692v-252q-15 -20 -55 -40t-93 -20q-152 0 -149 312l2 690l2 123l-248 2l-2 -123v-692zM339 1772l41 -88l82 -174l16 -35h135l-41 88l-82 174l-16 35h-135z" />
<glyph unicode="&#xda;" d="M82 537q0 -259 109 -408t286 -149q114 -1 216.5 60.5t154.5 133.5l22 33v330v692v123h-245v-123v-692v-252q-15 -20 -55 -40t-93 -20q-152 0 -149 312l2 690l2 123l-248 2l-2 -123v-692zM339 1475h135l16 35l82 174l41 88h-135l-16 -35l-82 -174z" />
<glyph unicode="&#xdb;" d="M82 537q0 -259 109 -408t286 -149q114 -1 216.5 60.5t154.5 133.5l22 33v330v692v123h-245v-123v-692v-252q-15 -20 -55 -40t-93 -20q-152 0 -149 312l2 690l2 123l-248 2l-2 -123v-692zM185 1475h183l16 17l92 84l92 -84l17 -17h182l-117 107l-133 123l-41 38l-41 -38 l-133 -123z" />
<glyph unicode="&#xdc;" d="M82 537q0 -259 109 -408t286 -149q114 -1 216.5 60.5t154.5 133.5l22 33v330v692v123h-245v-123v-692v-252q-15 -20 -55 -40t-93 -20q-152 0 -149 312l2 690l2 123l-248 2l-2 -123v-692zM251 1475h164v82v2v82h-164v-82v-2v-82zM538 1475h163v82v2v82h-163v-82v-2v-82z " />
<glyph unicode="&#xdd;" d="M27 1352l63 -166l266 -706v-357v-123h246v123v358l260 705l62 166h-262l-29 -80l-156 -490l-158 490l-30 80h-262zM338 1473h135l16 35l82 174l41 88h-135l-16 -35l-82 -174z" />
<glyph unicode="&#xde;" horiz-adv-x="876" d="M82 0h246v123v119h178q152 -1 241 122.5t89 311.5q2 186 -89 310t-241 124l-178 -1v120v123h-246v-123v-1106v-123zM328 486v378h178q40 -1 55.5 -13.5t22 -49t6.5 -125.5q1 -89 -5.5 -127t-22.5 -50t-56 -12z" />
<glyph unicode="&#xdf;" horiz-adv-x="860" d="M82 983l2 -862l2 -123l244 4l-2 121v840q0 19 2 31t9 25t22.5 19t39.5 6q31 0 44 -16t10 -34t-13 -31q-2 -4 -18 -34.5t-21 -44t-15.5 -43t-14.5 -59.5t-4 -65q0 -41 13 -84t40.5 -88.5t48 -75.5t57.5 -77.5t47 -61.5q20 -28 28 -57t3 -50t-19 -36.5t-37.5 -15.5 t-51.5 13l-23 15l-100 -103l39 -41q45 -40 96 -59t96.5 -16t89.5 21t74 53t50.5 79.5t19 100t-20.5 114.5q-17 48 -57 102.5t-75.5 94t-63.5 91t-27 99.5v4q0 12 10 40.5t28 74.5t28 76q43 102 15 177.5t-103.5 119t-172.5 43.5q-129 -1 -224 -90t-95 -197z" />
<glyph unicode="&#xe0;" horiz-adv-x="823" d="M41 510q0 -147 41 -267t119 -191.5t178 -71.5q84 -3 182 65l23 -45h215l-8 29q-21 49 -34.5 131t-13.5 108l2 631l3 123h-248v-1q-62 23 -119 23q-151 -3 -245.5 -155t-94.5 -379zM283 1437l41 -88l82 -174l16 -35h135l-41 88l-82 174l-16 35h-135zM287 510 q0 113 10.5 177.5t30 88t51.5 23.5q39 -1 72 -20t47 -36v-231v-197q-78 -90 -117 -90q-49 0 -71.5 61.5t-22.5 223.5z" />
<glyph unicode="&#xe1;" horiz-adv-x="823" d="M41 510q0 -147 41 -267t119 -191.5t178 -71.5q84 -3 182 65l23 -45h215l-8 29q-21 49 -34.5 131t-13.5 108l2 631l3 123h-248v-1q-62 23 -119 23q-151 -3 -245.5 -155t-94.5 -379zM283 1140h135l16 35l82 174l41 88h-135l-16 -35l-82 -174zM287 510q0 113 10.5 177.5 t30 88t51.5 23.5q39 -1 72 -20t47 -36v-231v-197q-78 -90 -117 -90q-49 0 -71.5 61.5t-22.5 223.5z" />
<glyph unicode="&#xe2;" horiz-adv-x="823" d="M41 510q0 -147 41 -267t119 -191.5t178 -71.5q84 -3 182 65l23 -45h215l-8 29q-21 49 -34.5 131t-13.5 108l2 631l3 123h-248v-1q-62 23 -119 23q-151 -3 -245.5 -155t-94.5 -379zM129 1140h182l17 17l92 84l92 -84l16 -17h183l-117 107l-133 123l-41 39l-41 -39 l-133 -123zM287 510q0 113 10.5 177.5t30 88t51.5 23.5q39 -1 72 -20t47 -36v-231v-197q-78 -90 -117 -90q-49 0 -71.5 61.5t-22.5 223.5z" />
<glyph unicode="&#xe3;" horiz-adv-x="823" d="M41 510q0 -147 41 -267t119 -191.5t178 -71.5q84 -3 182 65l23 -45h215l-8 29q-21 49 -34.5 131t-13.5 108l2 631l3 123h-248v-1q-62 23 -119 23q-151 -3 -245.5 -155t-94.5 -379zM123 1202h123q0 65 57 65q23 -1 35.5 -9.5t36.5 -33.5q70 -84 162 -84q70 -1 125 59 t55 130h-123q0 -66 -57 -66h-2q-20 -1 -32.5 7.5t-35.5 35.5h-2q-18 20 -26.5 27.5t-30.5 24.5t-48 24.5t-57 7.5q-68 -2 -124 -60t-56 -128zM287 510q0 113 10.5 177.5t30 88t51.5 23.5q39 -1 72 -20t47 -36v-231v-197q-78 -90 -117 -90q-49 0 -71.5 61.5t-22.5 223.5z" />
<glyph unicode="&#xe4;" horiz-adv-x="823" d="M41 510q0 -147 41 -267t119 -191.5t178 -71.5q84 -3 182 65l23 -45h215l-8 29q-21 49 -34.5 131t-13.5 108l2 631l3 123h-248v-1q-62 23 -119 23q-151 -3 -245.5 -155t-94.5 -379zM195 1140h163v82v2v82h-163v-82v-2v-82zM287 510q0 113 10.5 177.5t30 88t51.5 23.5 q39 -1 72 -20t47 -36v-231v-197q-78 -90 -117 -90q-49 0 -71.5 61.5t-22.5 223.5zM481 1140h164v82v2v82h-164v-82v-2v-82z" />
<glyph unicode="&#xe5;" horiz-adv-x="823" d="M41 510q0 -147 41 -267t119 -191.5t178 -71.5q84 -3 182 65l23 -45h215l-8 29q-21 49 -34.5 131t-13.5 108l2 631l3 123h-248v-1q-62 23 -119 23q-151 -3 -245.5 -155t-94.5 -379zM246 1314q0 -78 46.5 -126t127.5 -48q82 -1 128 47.5t46 126.5q2 75 -46 125t-128 50 q-79 -1 -126.5 -49.5t-47.5 -125.5zM287 510q0 113 10.5 177.5t30 88t51.5 23.5q39 -1 72 -20t47 -36v-231v-197q-78 -90 -117 -90q-49 0 -71.5 61.5t-22.5 223.5zM348 1314q0 46 12.5 59t59.5 13q49 -1 60 -13t11 -59q2 -47 -10 -59t-61 -12q-46 -1 -59 12t-13 59z" />
<glyph unicode="&#xe6;" horiz-adv-x="1284" d="M82 215l20 -31q49 -73 134.5 -138.5t179.5 -65.5q133 2 227 112q93 -110 223 -112q96 0 163 33t134 110l-141 149q-55 -29 -81.5 -38t-70.5 -9q-36 1 -54 12t-31 51.5t-17 121.5h313h123v102v260v37l-20 31q-49 74 -135 139t-181 65h-2q-130 -2 -223 -112 q-94 110 -225 112h-2q-92 0 -157 -33t-136 -104l137 -164q9 5 31.5 16.5t29 14.5t22.5 10t24.5 9t21.5 4t27 2q37 -1 55.5 -12.5t31.5 -54t16 -128.5h-314h-123v-92v-260v-37zM328 289v121h191q-3 -81 -16 -121.5t-31.5 -51.5t-55.5 -12q-24 0 -49 20t-39 44zM768 604 q4 85 16.5 127.5t30.5 54.5t55 13q24 0 49 -20t39 -44v-131h-190z" />
<glyph unicode="&#xe7;" horiz-adv-x="696" d="M41 514q2 -205 74.5 -347t193.5 -177l-65 -179q62 4 118.5 -10t61.5 -35q5 -23 -12.5 -41t-58.5 -18l-142 -2l-2 -121h144q82 -2 149.5 42t67.5 109q2 46 -31 80t-72 47t-73 13l36 107q88 12 155.5 64.5t90.5 117.5l-162 125q-68 -64 -131 -64q-35 0 -54.5 22t-30.5 85.5 t-11 181.5q1 117 12 180t29.5 84t52.5 21q74 -2 127 -62l168 103q-25 87 -107.5 145.5t-185.5 58.5q-151 -2 -246.5 -149.5t-95.5 -380.5z" />
<glyph unicode="&#xe8;" horiz-adv-x="790" d="M41 512q1 -148 41 -268.5t116.5 -192t176.5 -71.5q213 -3 321 165l-141 142q-45 -34 -83.5 -48t-94.5 -14q-39 0 -60.5 40.5t-27.5 144.5h299h123v102v276v41l-25 33q-49 65 -133.5 123.5t-175.5 58.5q-99 -2 -176.5 -73.5t-118.5 -191.5t-41 -267zM239 1437l41 -88 l81 -174l17 -35h135l-41 88l-82 174l-16 35h-135zM289 604q6 110 26.5 152.5t59.5 42.5q28 0 52.5 -16.5t37.5 -34.5v-144h-176z" />
<glyph unicode="&#xe9;" horiz-adv-x="790" d="M41 512q1 -148 41 -268.5t116.5 -192t176.5 -71.5q213 -3 321 165l-141 142q-45 -34 -83.5 -48t-94.5 -14q-39 0 -60.5 40.5t-27.5 144.5h299h123v102v276v41l-25 33q-49 65 -133.5 123.5t-175.5 58.5q-99 -2 -176.5 -73.5t-118.5 -191.5t-41 -267zM239 1140h135l16 35 l82 174l41 88h-135l-17 -35l-81 -174zM289 604q6 110 26.5 152.5t59.5 42.5q28 0 52.5 -16.5t37.5 -34.5v-144h-176z" />
<glyph unicode="&#xea;" horiz-adv-x="790" d="M41 512q1 -148 41 -268.5t116.5 -192t176.5 -71.5q213 -3 321 165l-141 142q-45 -34 -83.5 -48t-94.5 -14q-39 0 -60.5 40.5t-27.5 144.5h299h123v102v276v41l-25 33q-49 65 -133.5 123.5t-175.5 58.5q-99 -2 -176.5 -73.5t-118.5 -191.5t-41 -267zM85 1140h182l17 17 l92 84l92 -84l16 -17h183l-117 107l-133 123l-41 39l-41 -39l-133 -123zM289 604q6 110 26.5 152.5t59.5 42.5q28 0 52.5 -16.5t37.5 -34.5v-144h-176z" />
<glyph unicode="&#xeb;" horiz-adv-x="790" d="M41 512q1 -148 41 -268.5t116.5 -192t176.5 -71.5q213 -3 321 165l-141 142q-45 -34 -83.5 -48t-94.5 -14q-39 0 -60.5 40.5t-27.5 144.5h299h123v102v276v41l-25 33q-49 65 -133.5 123.5t-175.5 58.5q-99 -2 -176.5 -73.5t-118.5 -191.5t-41 -267zM151 1140h163v82v2v82 h-163v-82v-2v-82zM289 604q6 110 26.5 152.5t59.5 42.5q28 0 52.5 -16.5t37.5 -34.5v-144h-176zM437 1140h164v82v2v82h-164v-82v-2v-82z" />
<glyph unicode="&#xec;" horiz-adv-x="380" d="M55 1413l41 -88l82 -174l17 -35h135l-41 88l-82 174l-17 35h-135zM70 0h245v123v778v123h-245v-123v-778v-123z" />
<glyph unicode="&#xed;" horiz-adv-x="380" d="M55 1116h135l17 35l82 174l41 88h-135l-17 -35l-82 -174zM70 0h245v123v778v123h-245v-123v-778v-123z" />
<glyph unicode="&#xee;" horiz-adv-x="380" d="M-98 1116h182l16 17l93 84l92 -84l16 -17h182l-116 107l-134 123l-40 38l-41 -38l-134 -123zM70 0h245v123v778v123h-245v-123v-778v-123z" />
<glyph unicode="&#xef;" horiz-adv-x="380" d="M-33 1116h164v82v2v82h-164v-82v-2v-82zM70 0h245v123v778v123h-245v-123v-778v-123zM254 1116h164v82v2v82h-164v-82v-2v-82z" />
<glyph unicode="&#xf0;" horiz-adv-x="808" d="M41 471q1 -137 47 -249t130 -177t190 -65q159 -1 260.5 141t101.5 350q1 401 -130 641l97 35l-82 180l-120 -70q-29 31 -60 58t-64.5 53.5t-45.5 36.5l-119 -176q5 -7 81 -93l-122 -71l41 -96l163 59q25 -41 51 -109q-43 23 -91 23q-134 -2 -231 -136t-97 -335zM287 471 q1 144 28 195t93 51q44 -1 68 -21.5t36 -73.5t12 -151q1 -99 -11 -152.5t-36.5 -73.5t-68.5 -20q-67 -2 -94 50t-27 196z" />
<glyph unicode="&#xf1;" horiz-adv-x="843" d="M82 0h246v123v266v123v205q78 82 127 82q36 0 49.5 -60t13.5 -227l2 -391l2 -123l244 4l-2 121v389q-2 261 -80 396.5t-229 135.5h-2q-64 -1 -125 -58v38h-246v-123v-86v-303v-123v-266v-123zM127 1200h123q0 66 57 66q23 -1 35.5 -9.5t36.5 -33.5q70 -84 162 -84 q70 -1 125 58.5t55 129.5h-123q0 -65 -57 -65h-2q-20 -1 -32.5 7.5t-35.5 35.5h-2q-18 20 -26.5 27.5t-30.5 24.5t-48 24.5t-57 7.5q-68 -2 -124 -60.5t-56 -128.5z" />
<glyph unicode="&#xf2;" horiz-adv-x="808" d="M41 512q0 -148 45.5 -269t130 -192t191.5 -71q161 -1 261.5 151.5t100.5 380.5q1 147 -44 268t-129 192.5t-189 71.5q-106 -1 -190.5 -71.5t-130.5 -191.5t-46 -269zM268 1437l41 -88l82 -174l17 -35h135l-41 88l-82 174l-17 35h-135zM287 512q0 112 13 175.5t38.5 87.5 t69.5 24q42 -1 66 -25t37 -87t13 -175q1 -164 -26 -225.5t-90 -61.5q-64 -2 -92.5 60.5t-28.5 226.5z" />
<glyph unicode="&#xf3;" horiz-adv-x="808" d="M41 512q0 -148 45.5 -269t130 -192t191.5 -71q161 -1 261.5 151.5t100.5 380.5q1 147 -44 268t-129 192.5t-189 71.5q-106 -1 -190.5 -71.5t-130.5 -191.5t-46 -269zM268 1140h135l17 35l82 174l41 88h-135l-17 -35l-82 -174zM287 512q0 112 13 175.5t38.5 87.5t69.5 24 q42 -1 66 -25t37 -87t13 -175q1 -164 -26 -225.5t-90 -61.5q-64 -2 -92.5 60.5t-28.5 226.5z" />
<glyph unicode="&#xf4;" horiz-adv-x="808" d="M41 512q0 -148 45.5 -269t130 -192t191.5 -71q161 -1 261.5 151.5t100.5 380.5q1 147 -44 268t-129 192.5t-189 71.5q-106 -1 -190.5 -71.5t-130.5 -191.5t-46 -269zM115 1140h182l16 17l93 84l92 -84l16 -17h182l-116 107l-134 123l-40 39l-41 -39l-134 -123zM287 512 q0 112 13 175.5t38.5 87.5t69.5 24q42 -1 66 -25t37 -87t13 -175q1 -164 -26 -225.5t-90 -61.5q-64 -2 -92.5 60.5t-28.5 226.5z" />
<glyph unicode="&#xf5;" horiz-adv-x="808" d="M41 512q0 -148 45.5 -269t130 -192t191.5 -71q161 -1 261.5 151.5t100.5 380.5q1 147 -44 268t-129 192.5t-189 71.5q-106 -1 -190.5 -71.5t-130.5 -191.5t-46 -269zM109 1202h122q0 65 58 65q23 -1 35 -9t36 -34q70 -84 162 -84q70 -1 125 59t55 130h-122q0 -66 -58 -66 h-2q-14 -1 -25 4.5t-18 12t-24 26.5h-2q-18 20 -26.5 27.5t-30.5 24.5t-48 24.5t-57 7.5q-68 -2 -124 -60t-56 -128zM287 512q0 112 13 175.5t38.5 87.5t69.5 24q42 -1 66 -25t37 -87t13 -175q1 -164 -26 -225.5t-90 -61.5q-64 -2 -92.5 60.5t-28.5 226.5z" />
<glyph unicode="&#xf6;" horiz-adv-x="808" d="M41 512q0 -148 45.5 -269t130 -192t191.5 -71q161 -1 261.5 151.5t100.5 380.5q1 147 -44 268t-129 192.5t-189 71.5q-106 -1 -190.5 -71.5t-130.5 -191.5t-46 -269zM180 1140h164v82v2v82h-164v-82v-2v-82zM287 512q0 112 13 175.5t38.5 87.5t69.5 24q42 -1 66 -25 t37 -87t13 -175q1 -164 -26 -225.5t-90 -61.5q-64 -2 -92.5 60.5t-28.5 226.5zM467 1140h164v82v2v82h-164v-82v-2v-82z" />
<glyph unicode="&#xf8;" horiz-adv-x="808" d="M41 512q0 -191 73 -331l-12 -19l-36 -62l120 -75l22 33q87 -78 200 -78q161 -1 261.5 151.5t100.5 380.5q2 186 -71 328l14 22l37 62l-121 75l-23 -34q-87 79 -198 79q-106 -1 -190.5 -71.5t-130.5 -191.5t-46 -269zM287 512q0 112 13 175.5t38.5 87.5t69.5 24 q48 -2 73 -33l-193 -309q-1 17 -1 55zM333 256l191 304v-48q1 -164 -26 -225.5t-90 -61.5q-48 -2 -75 31z" />
<glyph unicode="&#xf9;" horiz-adv-x="800" d="M82 399q0 -90 19.5 -165.5t58.5 -132.5t101 -89t142 -32q88 -1 171.5 45.5t123.5 103.5l23 33v239v500v123h-246v-123v-500v-161l-7 -3q-6 -3 -23.5 -7.5t-38.5 -4.5q-39 0 -58.5 39.5t-19.5 136.5l2 498l2 123l-248 2l-2 -123v-500v-2zM264 1415l41 -88l82 -174l16 -35 h136l-41 88l-82 174l-17 35h-135z" />
<glyph unicode="&#xfa;" horiz-adv-x="800" d="M82 399q0 -90 19.5 -165.5t58.5 -132.5t101 -89t142 -32q88 -1 171.5 45.5t123.5 103.5l23 33v239v500v123h-246v-123v-500v-161l-7 -3q-6 -3 -23.5 -7.5t-38.5 -4.5q-39 0 -58.5 39.5t-19.5 136.5l2 498l2 123l-248 2l-2 -123v-500v-2zM264 1118h135l17 35l82 174l41 88 h-136l-16 -35l-82 -174z" />
<glyph unicode="&#xfb;" horiz-adv-x="800" d="M82 399q0 -90 19.5 -165.5t58.5 -132.5t101 -89t142 -32q88 -1 171.5 45.5t123.5 103.5l23 33v239v500v123h-246v-123v-500v-161l-7 -3q-6 -3 -23.5 -7.5t-38.5 -4.5q-39 0 -58.5 39.5t-19.5 136.5l2 498l2 123l-248 2l-2 -123v-500v-2zM111 1118h182l16 16l92 84l93 -84 l16 -16h182l-117 107l-133 122l-41 39l-41 -39l-133 -122z" />
<glyph unicode="&#xfc;" horiz-adv-x="800" d="M82 399q0 -90 19.5 -165.5t58.5 -132.5t101 -89t142 -32q88 -1 171.5 45.5t123.5 103.5l23 33v239v500v123h-246v-123v-500v-161l-7 -3q-6 -3 -23.5 -7.5t-38.5 -4.5q-39 0 -58.5 39.5t-19.5 136.5l2 498l2 123l-248 2l-2 -123v-500v-2zM176 1118h164v82v2v82h-164v-82 v-2v-82zM463 1118h164v82v2v82h-164v-82v-2v-82z" />
<glyph unicode="&#xfd;" horiz-adv-x="743" d="M16 1024l27 -145l143 -779l15 -82l73 -14q-30 -135 -57.5 -189.5t-64.5 -78.5l-105 -64l127 -209l105 64q179 107 257 539l3 12l161 799l25 120h-1l5 27h-250l-20 -98l-111 -547l-82 645h-250zM236 1164h135l16 35l82 174l41 88h-135l-17 -34l-82 -174z" />
<glyph unicode="&#xfe;" horiz-adv-x="827" d="M82 233v-602v-123h246v123v424q75 -75 141 -75q96 -2 170 71t111.5 193.5t37.5 267.5q1 145 -37.5 265.5t-112.5 193.5t-169 73h-2q-71 -3 -139 -69v416v122h-246v-122v-580v-543v-35zM328 303v393q1 1 20.5 18.5t40.5 35.5t45 33.5t35 15.5q25 0 40.5 -22.5t24.5 -87 t9 -177.5q1 -113 -8 -178t-25 -87t-41 -22h-2q-39 -2 -77 19t-62 59z" />
<glyph unicode="&#xff;" horiz-adv-x="743" d="M16 1024l27 -145l143 -779l15 -82l73 -14q-30 -135 -57.5 -189.5t-64.5 -78.5l-105 -64l127 -209l105 64q179 107 257 539l3 12l161 799l25 120h-1l5 27h-250l-20 -98l-111 -547l-82 645h-250zM147 1164h164v82v2v82h-164v-82v-2v-82zM434 1164h164v82v2v82h-164v-82v-2 v-82z" />
<glyph unicode="&#x100;" horiz-adv-x="942" d="M6 0h254l23 92l37 172h40h218h44l37 -172l23 -92h254l-39 154l-283 1106l-22 92h-96h-25h-25h-96l-22 -92l-283 -1106zM256 1473h61h308h61v123h-61h-308h-61v-123zM358 438l113 514l113 -514h-6h-218h-2z" />
<glyph unicode="&#x101;" horiz-adv-x="823" d="M41 510q0 -147 41 -267t119 -191.5t178 -71.5q84 -3 182 65l23 -45h215l-8 29q-21 49 -34.5 131t-13.5 108l2 631l3 123h-248v-1q-62 23 -119 23q-151 -3 -245.5 -155t-94.5 -379zM205 1140h61h307h62v123h-62h-307h-61v-123zM287 510q0 113 10.5 177.5t30 88t51.5 23.5 q39 -1 72 -20t47 -36v-231v-197q-78 -90 -117 -90q-49 0 -71.5 61.5t-22.5 223.5z" />
<glyph unicode="&#x102;" horiz-adv-x="942" d="M6 0h254l23 92l37 172h40h218h44l37 -172l23 -92h254l-39 154l-283 1106l-22 92h-96h-25h-25h-96l-22 -92l-283 -1106zM246 1668q0 -76 69.5 -135.5t155.5 -59.5q87 -1 156 58.5t69 136.5h-123q0 -72 -102 -72q-50 -1 -76 18t-26 54h-123zM358 438l113 514l113 -514h-6 h-218h-2z" />
<glyph unicode="&#x103;" horiz-adv-x="823" d="M41 510q0 -147 41 -267t119 -191.5t178 -71.5q84 -3 182 65l23 -45h215l-8 29q-21 49 -34.5 131t-13.5 108l2 631l3 123h-248v-1q-62 23 -119 23q-151 -3 -245.5 -155t-94.5 -379zM195 1335q0 -76 69.5 -135.5t155.5 -59.5q87 -1 156 58.5t69 136.5h-123q0 -72 -102 -72 q-50 -1 -76.5 18t-26.5 54h-122zM287 510q0 113 10.5 177.5t30 88t51.5 23.5q39 -1 72 -20t47 -36v-231v-197q-78 -90 -117 -90q-49 0 -71.5 61.5t-22.5 223.5z" />
<glyph unicode="&#x104;" horiz-adv-x="942" d="M6 0h254l23 92l37 172h40h218h44l37 -172l23 -92h55l-22 -16q-6 -4 -15 -11.5t-32.5 -31.5t-41.5 -48.5t-33 -58.5t-15 -66q1 -59 44.5 -110t114.5 -64.5t161 39.5l51 31l-64 104l-53 -32q-40 -25 -69 -17t-44.5 33t-15.5 55q0 31 46.5 89t92.5 104h94l-39 154l-283 1106 l-22 92h-96h-25h-25h-96l-22 -92l-283 -1106zM358 438l113 514l113 -514h-6h-218h-2z" />
<glyph unicode="&#x105;" horiz-adv-x="823" d="M41 510q0 -147 41 -267t119 -191.5t178 -71.5q84 -3 182 65l23 -45h58l-29 -22q-6 -4 -15 -11.5t-32.5 -31.5t-41.5 -48t-33 -58t-15 -66q1 -59 44.5 -110t114 -64.5t160.5 39.5l51 31l-63 104l-53 -32q-40 -25 -69 -17t-44.5 33t-15.5 55q0 23 32.5 68.5t59.5 75 t52 54.5h54l-8 29q-21 49 -34.5 131t-13.5 108l2 631l3 123h-248v-1q-62 23 -119 23q-151 -3 -245.5 -155t-94.5 -379zM287 510q0 113 10.5 177.5t30 88t51.5 23.5q39 -1 72 -20t47 -36v-231v-197q-78 -90 -117 -90q-49 0 -71.5 61.5t-22.5 223.5z" />
<glyph unicode="&#x106;" horiz-adv-x="819" d="M41 676q1 -208 51 -365.5t144.5 -244t220.5 -86.5q215 -2 346 208l-146 142q-101 -105 -200 -105q-58 -1 -94 38t-56 140t-20 273q1 172 20.5 271.5t55 139t94.5 39.5q107 -2 194 -102l154 133q-129 215 -348 215q-126 -1 -220.5 -88t-145 -244t-50.5 -364zM286 1498h135 l16 34l82 174l41 88h-135l-16 -34l-82 -174z" />
<glyph unicode="&#x107;" horiz-adv-x="696" d="M41 514q2 -235 95.5 -384.5t244.5 -149.5q103 -1 185.5 54.5t109.5 129.5l-162 125q-68 -64 -131 -64q-35 0 -54.5 22t-30.5 85.5t-11 181.5q1 117 12 180t29.5 84t52.5 21q74 -2 127 -62l168 103q-25 87 -107.5 145.5t-185.5 58.5q-151 -2 -246.5 -149.5t-95.5 -380.5z M221 1140h135l17 35l82 174l41 88h-136l-16 -35l-82 -174z" />
<glyph unicode="&#x108;" horiz-adv-x="819" d="M41 676q1 -208 51 -365.5t144.5 -244t220.5 -86.5q215 -2 346 208l-146 142q-101 -105 -200 -105q-58 -1 -94 38t-56 140t-20 273q1 172 20.5 271.5t55 139t94.5 39.5q107 -2 194 -102l154 133q-129 215 -348 215q-126 -1 -220.5 -88t-145 -244t-50.5 -364zM132 1498h182 l17 16l92 84l92 -84l16 -16h183l-117 106l-133 123l-41 39l-41 -39l-133 -123z" />
<glyph unicode="&#x109;" horiz-adv-x="696" d="M41 514q2 -235 95.5 -384.5t244.5 -149.5q103 -1 185.5 54.5t109.5 129.5l-162 125q-68 -64 -131 -64q-35 0 -54.5 22t-30.5 85.5t-11 181.5q1 117 12 180t29.5 84t52.5 21q74 -2 127 -62l168 103q-25 87 -107.5 145.5t-185.5 58.5q-151 -2 -246.5 -149.5t-95.5 -380.5z M68 1140h182l16 17l92 84l93 -84l16 -17h182l-117 107l-133 123l-41 39l-41 -39l-133 -123z" />
<glyph unicode="&#x10a;" horiz-adv-x="819" d="M41 676q1 -208 51 -365.5t144.5 -244t220.5 -86.5q215 -2 346 208l-146 142q-101 -105 -200 -105q-58 -1 -94 38t-56 140t-20 273q1 172 20.5 271.5t55 139t94.5 39.5q107 -2 194 -102l154 133q-129 215 -348 215q-126 -1 -220.5 -88t-145 -244t-50.5 -364zM341 1498h164 v81v2v82h-164v-82v-2v-81z" />
<glyph unicode="&#x10b;" horiz-adv-x="696" d="M41 514q2 -235 95.5 -384.5t244.5 -149.5q103 -1 185.5 54.5t109.5 129.5l-162 125q-68 -64 -131 -64q-35 0 -54.5 22t-30.5 85.5t-11 181.5q1 117 12 180t29.5 84t52.5 21q74 -2 127 -62l168 103q-25 87 -107.5 145.5t-185.5 58.5q-151 -2 -246.5 -149.5t-95.5 -380.5z M276 1140h164v82v2v82h-164v-82v-2v-82z" />
<glyph unicode="&#x10c;" horiz-adv-x="819" d="M41 676q1 -208 51 -365.5t144.5 -244t220.5 -86.5q215 -2 346 208l-146 142q-101 -105 -200 -105q-58 -1 -94 38t-56 140t-20 273q1 172 20.5 271.5t55 139t94.5 39.5q107 -2 194 -102l154 133q-129 215 -348 215q-126 -1 -220.5 -88t-145 -244t-50.5 -364zM132 1766 l117 -107l133 -123l41 -38l41 38l133 123l117 107h-183l-16 -17l-92 -84l-92 84l-17 17h-182z" />
<glyph unicode="&#x10d;" horiz-adv-x="696" d="M41 514q2 -235 95.5 -384.5t244.5 -149.5q103 -1 185.5 54.5t109.5 129.5l-162 125q-68 -64 -131 -64q-35 0 -54.5 22t-30.5 85.5t-11 181.5q1 117 12 180t29.5 84t52.5 21q74 -2 127 -62l168 103q-25 87 -107.5 145.5t-185.5 58.5q-151 -2 -246.5 -149.5t-95.5 -380.5z M68 1409l116 -107l133 -123l41 -39l41 39l133 123l117 107h-182l-16 -17l-93 -84l-92 84l-16 17h-182z" />
<glyph unicode="&#x10e;" horiz-adv-x="929" d="M82 0h123h282q193 -2 297.5 169.5t104.5 506.5q1 331 -104 503.5t-296 172.5l-282 -2h-123v-123l-2 -1104v-123zM195 1742l116 -107l133 -123l41 -39l41 39l133 123l117 107h-182l-16 -17l-93 -84l-92 84l-16 17h-182zM328 246v860h161q39 -1 62.5 -10t43 -33.5t29 -73.5 t14.5 -123.5t5 -189.5q1 -191 -13.5 -281.5t-45.5 -119.5t-97 -29h-159z" />
<glyph unicode="&#x10f;" horiz-adv-x="1024" d="M41 512q0 -225 91.5 -378.5t238.5 -153.5q66 -1 131 60v-40h246v123v96v293v279v47v514v123h-246v-123v-358q-60 50 -129 50q-97 -2 -173.5 -73.5t-117.5 -191.5t-41 -267zM287 512q0 164 20.5 225.5t63.5 61.5q44 -1 80.5 -20.5t50.5 -35.5v-231v-199q-82 -88 -129 -88 q-29 0 -47 23t-28.5 87.5t-10.5 176.5zM852 1081l129 -63l31 63q23 46 34.5 103t13 98t1.5 121v72h-143v-72q0 -77 -1 -111t-8.5 -73.5t-23.5 -71.5z" />
<glyph unicode="&#x110;" horiz-adv-x="929" d="M-39 604h72h50l-1 -481v-123h123h282q193 -2 297.5 169.5t104.5 506.5q1 331 -104 503.5t-296 172.5l-282 -2h-123v-123l-1 -479h-50h-72v-144zM328 246v358h155h72v144h-72h-155v358h161q39 -1 62.5 -10t43 -33.5t29 -73.5t14.5 -123.5t5 -189.5q1 -191 -13.5 -281.5 t-45.5 -119.5t-97 -29h-159z" />
<glyph unicode="&#x111;" horiz-adv-x="806" d="M41 512q0 -225 91.5 -378.5t238.5 -153.5q66 -1 131 60v-40h246v123v96v293v279v47v297h62h72v143h-72h-62v74v123h-246v-123v-74h-143h-71v-143h71h143v-141q-60 50 -129 50q-97 -2 -173.5 -73.5t-117.5 -191.5t-41 -267zM287 512q0 164 20.5 225.5t63.5 61.5 q44 -1 80.5 -20.5t50.5 -35.5v-231v-199q-82 -88 -129 -88q-29 0 -47 23t-28.5 87.5t-10.5 176.5z" />
<glyph unicode="&#x112;" horiz-adv-x="854" d="M82 0h123h485h123v246h-123h-362v307h247h123v246h-123h-247v307h362h123v246h-123h-485h-123v-123v-430v-246v-430v-123zM232 1473h62h307h62v123h-62h-307h-62v-123z" />
<glyph unicode="&#x113;" horiz-adv-x="790" d="M41 512q1 -148 41 -268.5t116.5 -192t176.5 -71.5q213 -3 321 165l-141 142q-45 -34 -83.5 -48t-94.5 -14q-39 0 -60.5 40.5t-27.5 144.5h299h123v102v276v41l-25 33q-49 65 -133.5 123.5t-175.5 58.5q-99 -2 -176.5 -73.5t-118.5 -191.5t-41 -267zM161 1140h61h307h62 v123h-62h-307h-61v-123zM289 604q6 110 26.5 152.5t59.5 42.5q28 0 52.5 -16.5t37.5 -34.5v-144h-176z" />
<glyph unicode="&#x114;" horiz-adv-x="854" d="M82 0h123h485h123v246h-123h-362v307h247h123v246h-123h-247v307h362h123v246h-123h-485h-123v-123v-430v-246v-430v-123zM222 1668q0 -76 69.5 -135.5t155.5 -59.5q88 -1 157 58.5t69 136.5h-123q0 -72 -103 -72q-50 -1 -76 18t-26 54h-123z" />
<glyph unicode="&#x115;" horiz-adv-x="790" d="M41 512q1 -148 41 -268.5t116.5 -192t176.5 -71.5q213 -3 321 165l-141 142q-45 -34 -83.5 -48t-94.5 -14q-39 0 -60.5 40.5t-27.5 144.5h299h123v102v276v41l-25 33q-49 65 -133.5 123.5t-175.5 58.5q-99 -2 -176.5 -73.5t-118.5 -191.5t-41 -267zM151 1335 q0 -76 69.5 -135.5t155.5 -59.5q87 -1 156 58.5t69 136.5h-123q0 -72 -102 -72q-50 -1 -76.5 18t-26.5 54h-122zM289 604q6 110 26.5 152.5t59.5 42.5q28 0 52.5 -16.5t37.5 -34.5v-144h-176z" />
<glyph unicode="&#x116;" horiz-adv-x="854" d="M82 0h123h485h123v246h-123h-362v307h247h123v246h-123h-247v307h362h123v246h-123h-485h-123v-123v-430v-246v-430v-123zM366 1473h163v82v2v82h-163v-82v-2v-82z" />
<glyph unicode="&#x117;" horiz-adv-x="790" d="M41 512q1 -148 41 -268.5t116.5 -192t176.5 -71.5q213 -3 321 165l-141 142q-45 -34 -83.5 -48t-94.5 -14q-39 0 -60.5 40.5t-27.5 144.5h299h123v102v276v41l-25 33q-49 65 -133.5 123.5t-175.5 58.5q-99 -2 -176.5 -73.5t-118.5 -191.5t-41 -267zM289 604 q6 110 26.5 152.5t59.5 42.5q28 0 52.5 -16.5t37.5 -34.5v-144h-176zM294 1140h164v82v2v82h-164v-82v-2v-82z" />
<glyph unicode="&#x118;" horiz-adv-x="854" d="M82 0h123h415l-22 -16q-6 -4 -15 -11.5t-33 -31.5t-42 -48.5t-33 -58.5t-15 -66q1 -59 44.5 -110t114.5 -64.5t161 39.5l51 31l-63 104l-54 -32q-40 -25 -69 -17t-44.5 33t-15.5 55q0 21 29.5 63.5t57 73t53.5 56.5h88v246h-123h-362v307h247h123v246h-123h-247v307h362 h123v246h-123h-485h-123v-123v-430v-246v-430v-123z" />
<glyph unicode="&#x119;" horiz-adv-x="790" d="M41 512q1 -148 41 -268.5t116.5 -192t176.5 -71.5h26q-120 -104 -120 -201q1 -59 44.5 -110t114.5 -64.5t161 39.5l51 30l-64 105l-53 -33q-40 -25 -69 -16.5t-44.5 33.5t-15.5 55q0 53 143 196q90 42 147 131l-141 142q-45 -34 -83.5 -48t-94.5 -14q-39 0 -60.5 40.5 t-27.5 144.5h299h123v102v276v41l-25 33q-49 65 -133.5 123.5t-175.5 58.5q-99 -2 -176.5 -73.5t-118.5 -191.5t-41 -267zM289 604q6 110 26.5 152.5t59.5 42.5q28 0 52.5 -16.5t37.5 -34.5v-144h-176z" />
<glyph unicode="&#x11a;" horiz-adv-x="854" d="M82 0h123h485h123v246h-123h-362v307h247h123v246h-123h-247v307h362h123v246h-123h-485h-123v-123v-430v-246v-430v-123zM157 1742l116 -107l134 -123l40 -39l41 39l134 123l116 107h-182l-16 -17l-93 -84l-92 84l-16 17h-182z" />
<glyph unicode="&#x11b;" horiz-adv-x="790" d="M41 512q1 -148 41 -268.5t116.5 -192t176.5 -71.5q213 -3 321 165l-141 142q-45 -34 -83.5 -48t-94.5 -14q-39 0 -60.5 40.5t-27.5 144.5h299h123v102v276v41l-25 33q-49 65 -133.5 123.5t-175.5 58.5q-99 -2 -176.5 -73.5t-118.5 -191.5t-41 -267zM85 1409l117 -107 l133 -123l41 -39l41 39l133 123l117 107h-183l-16 -17l-92 -84l-92 84l-17 17h-182zM289 604q6 110 26.5 152.5t59.5 42.5q28 0 52.5 -16.5t37.5 -34.5v-144h-176z" />
<glyph unicode="&#x11c;" horiz-adv-x="997" d="M41 676q2 -317 120.5 -506.5t319.5 -189.5q133 -1 227 48t173 134l34 35v479v123h-122h-310v-246h187v-258q-67 -70 -189 -70q-102 -2 -148 98t-46 353q1 252 46 351t144 99q53 -1 98 -18t71 -36.5t61 -53.5l174 108q-52 105 -156 175.5t-248 70.5q-197 -2 -316.5 -192.5 t-119.5 -503.5zM187 1498h183l16 16l92 84l92 -84l17 -16h182l-117 106l-133 123l-41 39l-41 -39l-133 -123z" />
<glyph unicode="&#x11d;" horiz-adv-x="788" d="M41 -139q0 -133 95 -222.5t259 -89.5q100 -1 205 51t141 105l23 31v182v37l-21 31q-34 51 -134.5 104t-211.5 53q-22 0 -64 -4l-59 4q-11 0 -16.5 3t-9.5 16.5t-4 40.5q1 39 8.5 51t21.5 12l3 3q18 -3 36 -3q72 -1 163 33.5t140 75.5l43 37v417h89v195h-123 q-59 0 -111 -54q-110 74 -199 74h-2q-122 -3 -197 -122.5t-75 -296.5q0 -152 66 -248q-58 -81 -58 -172v-2q2 -88 55 -167q-63 -71 -63 -175zM112 1179h182l16 16l92 84l93 -84l16 -16h182l-116 107l-134 122l-41 39l-41 -39l-133 -122zM266 -139q0 34 30 56t99 22 q13 0 26.5 -3t24.5 -6.5t22 -9t19.5 -10.5t16 -10t12 -9t8.5 -7l4 -3v-65q-1 0 -14.5 -7t-29.5 -14.5t-40.5 -13.5t-46.5 -6q-71 0 -102 22t-29 64zM276 625q0 80 5 119.5t11.5 47t20.5 7.5q24 0 61.5 -19.5t49.5 -34.5v-120v-119q-72 -35 -109 -35h-2q-37 0 -37 154z" />
<glyph unicode="&#x11e;" horiz-adv-x="997" d="M41 676q2 -317 120.5 -506.5t319.5 -189.5q133 -1 227 48t173 134l34 35v479v123h-122h-310v-246h187v-258q-67 -70 -189 -70q-102 -2 -148 98t-46 353q1 252 46 351t144 99q53 -1 98 -18t71 -36.5t61 -53.5l174 108q-52 105 -156 175.5t-248 70.5q-197 -2 -316.5 -192.5 t-119.5 -503.5zM253 1692q0 -76 69.5 -135t155.5 -59q88 -1 156.5 58t68.5 136h-122q0 -72 -103 -72q-50 -1 -76 18t-26 54h-123z" />
<glyph unicode="&#x11f;" horiz-adv-x="788" d="M41 -139q0 -133 95 -222.5t259 -89.5q100 -1 205 51t141 105l23 31v182v37l-21 31q-34 51 -134.5 104t-211.5 53q-22 0 -64 -4l-59 4q-11 0 -16.5 3t-9.5 16.5t-4 40.5q1 39 8.5 51t21.5 12l3 3q18 -3 36 -3q72 -1 163 33.5t140 75.5l43 37v417h89v195h-123 q-59 0 -111 -54q-110 74 -199 74h-2q-122 -3 -197 -122.5t-75 -296.5q0 -152 66 -248q-58 -81 -58 -172v-2q2 -88 55 -167q-63 -71 -63 -175zM177 1374q0 -76 69.5 -135.5t155.5 -59.5q88 -1 157 58.5t69 136.5h-123q0 -72 -103 -72q-50 -1 -76 18t-26 54h-123zM266 -139 q0 34 30 56t99 22q13 0 26.5 -3t24.5 -6.5t22 -9t19.5 -10.5t16 -10t12 -9t8.5 -7l4 -3v-65q-1 0 -14.5 -7t-29.5 -14.5t-40.5 -13.5t-46.5 -6q-71 0 -102 22t-29 64zM276 625q0 80 5 119.5t11.5 47t20.5 7.5q24 0 61.5 -19.5t49.5 -34.5v-120v-119q-72 -35 -109 -35h-2 q-37 0 -37 154z" />
<glyph unicode="&#x120;" horiz-adv-x="997" d="M41 676q2 -317 120.5 -506.5t319.5 -189.5q133 -1 227 48t173 134l34 35v479v123h-122h-310v-246h187v-258q-67 -70 -189 -70q-102 -2 -148 98t-46 353q1 252 46 351t144 99q53 -1 98 -18t71 -36.5t61 -53.5l174 108q-52 105 -156 175.5t-248 70.5q-197 -2 -316.5 -192.5 t-119.5 -503.5zM396 1498h164v81v2v82h-164v-82v-2v-81z" />
<glyph unicode="&#x121;" horiz-adv-x="788" d="M41 -139q0 -133 95 -222.5t259 -89.5q100 -1 205 51t141 105l23 31v182v37l-21 31q-34 51 -134.5 104t-211.5 53q-22 0 -64 -4l-59 4q-11 0 -16.5 3t-9.5 16.5t-4 40.5q1 39 8.5 51t21.5 12l3 3q18 -3 36 -3q72 -1 163 33.5t140 75.5l43 37v417h89v195h-123 q-59 0 -111 -54q-110 74 -199 74h-2q-122 -3 -197 -122.5t-75 -296.5q0 -152 66 -248q-58 -81 -58 -172v-2q2 -88 55 -167q-63 -71 -63 -175zM266 -139q0 34 30 56t99 22q13 0 26.5 -3t24.5 -6.5t22 -9t19.5 -10.5t16 -10t12 -9t8.5 -7l4 -3v-65q-1 0 -14.5 -7t-29.5 -14.5 t-40.5 -13.5t-46.5 -6q-71 0 -102 22t-29 64zM276 625q0 80 5 119.5t11.5 47t20.5 7.5q24 0 61.5 -19.5t49.5 -34.5v-120v-119q-72 -35 -109 -35h-2q-37 0 -37 154zM321 1179h163v82v2v82h-163v-82v-2v-82z" />
<glyph unicode="&#x122;" horiz-adv-x="997" d="M41 676q2 -294 105 -480.5t281 -212.5l-61 -167q62 4 118.5 -10t61.5 -35q5 -23 -12.5 -41t-58.5 -18l-142 -2l-2 -121h144q82 -2 149.5 42.5t67.5 109.5q2 46 -31 79.5t-72 46.5t-73 13l34 103q184 20 331 179l34 35v479v123h-122h-310v-246h187v-258q-67 -70 -189 -70 q-102 -2 -148 98t-46 353q1 252 46 351t144 99q53 -1 98 -18t71 -36.5t61 -53.5l174 108q-52 105 -156 175.5t-248 70.5q-197 -2 -316.5 -192.5t-119.5 -503.5z" />
<glyph unicode="&#x123;" horiz-adv-x="788" d="M41 -139q0 -133 95 -222.5t259 -89.5q100 -1 205 51t141 105l23 31v182v37l-21 31q-34 51 -134.5 104t-211.5 53q-22 0 -64 -4l-59 4q-11 0 -16.5 3t-9.5 16.5t-4 40.5q1 39 8.5 51t21.5 12l3 3q18 -3 36 -3q72 -1 163 33.5t140 75.5l43 37v417h89v195h-123 q-59 0 -111 -54q-110 74 -199 74h-2q-122 -3 -197 -122.5t-75 -296.5q0 -152 66 -248q-58 -81 -58 -172v-2q2 -88 55 -167q-63 -71 -63 -175zM266 -139q0 34 30 56t99 22q13 0 26.5 -3t24.5 -6.5t22 -9t19.5 -10.5t16 -10t12 -9t8.5 -7l4 -3v-65q-1 0 -14.5 -7t-29.5 -14.5 t-40.5 -13.5t-46.5 -6q-71 0 -102 22t-29 64zM276 625q0 80 5 119.5t11.5 47t20.5 7.5q24 0 61.5 -19.5t49.5 -34.5v-120v-119q-72 -35 -109 -35h-2q-37 0 -37 154z" />
<glyph unicode="&#x124;" horiz-adv-x="917" d="M82 0h246v123v430h262v-430v-123h246v123v430v246v430v123h-246v-123v-430h-262v430v123h-246v-123v-430v-246v-430v-123zM168 1473h182l17 17l92 84l92 -84l16 -17h183l-117 107l-133 123l-41 39l-41 -39l-133 -123z" />
<glyph unicode="&#x125;" horiz-adv-x="843" d="M82 0h246v123v264v123v207q82 82 125 82q37 0 51 -59.5t14 -227.5l2 -391l2 -123l244 4l-2 121v389q0 262 -78 397t-233 135h-2q-60 -1 -123 -59v367v123h-246v-123v-537v-305v-123v-264v-123zM133 1607h182l17 17l92 84l92 -84l16 -17h183l-117 107l-133 123l-41 39 l-41 -39l-133 -123z" />
<glyph unicode="&#x126;" horiz-adv-x="917" d="M0 952h82v-153v-246v-430v-123h246v123v430h262v-430v-123h246v123v430v246v153h86v144h-86v133v123h-246v-123v-133h-262v133v123h-246v-123v-133h-82v-144zM328 799v153h262v-153h-262z" />
<glyph unicode="&#x127;" horiz-adv-x="843" d="M-21 1181h72h31v-366v-305v-123v-264v-123h246v123v264v123v207q82 82 125 82q37 0 51 -59.5t14 -227.5l2 -391l2 -123l244 4l-2 121v389q0 262 -78 397t-233 135h-2q-60 -1 -123 -59v196h174h71v144h-71h-174v27v123h-246v-123v-27h-31h-72v-144z" />
<glyph unicode="&#x128;" horiz-adv-x="409" d="M-90 1535h123q0 65 57 65q23 -1 35.5 -9.5t36.5 -33.5q70 -84 162 -84q70 -1 125 59t55 130h-123q0 -66 -57 -66h-2q-20 -1 -32.5 7.5t-35.5 35.5h-2q-18 20 -26.5 27.5t-30.5 24.5t-48 24.5t-57 7.5q-68 -2 -124 -60t-56 -128zM84 0h246v123v1106v123h-246v-123v-1106 v-123z" />
<glyph unicode="&#x129;" horiz-adv-x="380" d="M-104 1178h122q0 65 58 65q23 -1 35 -9t36 -34q70 -84 162 -84q70 -1 125 59t55 130h-122q0 -66 -58 -66h-2q-14 -1 -25 4.5t-18 12t-24 26.5h-2q-18 20 -26.5 27.5t-30.5 24.5t-48 24.5t-57 7.5q-68 -2 -124 -60t-56 -128zM70 0h245v123v778v123h-245v-123v-778v-123z " />
<glyph unicode="&#x12a;" horiz-adv-x="409" d="M-8 1473h61h307h62v123h-62h-307h-61v-123zM84 0h246v123v1106v123h-246v-123v-1106v-123z" />
<glyph unicode="&#x12b;" horiz-adv-x="380" d="M-23 1116h62h307h62v123h-62h-307h-62v-123zM70 0h245v123v778v123h-245v-123v-778v-123z" />
<glyph unicode="&#x12c;" horiz-adv-x="409" d="M-18 1668q0 -76 69.5 -135.5t155.5 -59.5q87 -1 156 58.5t69 136.5h-123q0 -72 -102 -72q-50 -1 -76.5 18t-26.5 54h-122zM84 0h246v123v1106v123h-246v-123v-1106v-123z" />
<glyph unicode="&#x12d;" horiz-adv-x="380" d="M-33 1311q0 -76 70 -135.5t156 -59.5q87 -1 156 58.5t69 136.5h-123q0 -72 -102 -72q-50 -1 -76.5 18t-26.5 54h-123zM70 0h245v123v778v123h-245v-123v-778v-123z" />
<glyph unicode="&#x12e;" horiz-adv-x="409" d="M15 -237q1 -59 44.5 -110t114 -64.5t160.5 39.5l52 31l-64 104l-53 -32q-40 -25 -69 -17t-44.5 33t-15.5 55q0 23 32.5 68.5t59.5 75t52 54.5h46v123v1106v123h-246v-123v-1106v-123h97l-29 -22q-6 -4 -15 -11.5t-32.5 -31.5t-41.5 -48t-33 -58t-15 -66z" />
<glyph unicode="&#x12f;" horiz-adv-x="380" d="M-9 -230q1 -59 44.5 -110t114 -64.5t160.5 39.5l52 31l-64 104l-53 -33q-40 -25 -69 -16.5t-44.5 33.5t-15.5 55q0 49 138 191h61v123v799v122h-245v-122v-799v-123h78l-20 -15q-6 -4 -15 -11.5t-32.5 -31.5t-41.5 -48t-33 -58t-15 -66zM70 1147h123h2h122v246h-122h-2 h-123v-246z" />
<glyph unicode="&#x130;" horiz-adv-x="409" d="M84 0h246v123v1106v123h-246v-123v-1106v-123zM125 1473h164v82v2v82h-164v-82v-2v-82z" />
<glyph unicode="&#x131;" horiz-adv-x="380" d="M70 0h245v123v778v123h-245v-123v-778v-123z" />
<glyph unicode="&#x132;" horiz-adv-x="819" d="M82 0l246 82v215v913v123h-246v-123v-913v-297zM82 -82v-180l139 16q238 31 377 177t139 364l2 913l2 123h-247l-2 -121v-915v-2q1 -144 -66 -214.5t-262 -135.5z" />
<glyph unicode="&#x133;" horiz-adv-x="817" d="M82 0h246v123v778v123h-246v-123v-778v-123zM82 -272v-179h41q104 6 192.5 28.5t167.5 67t134.5 108.5t87.5 158.5t32 211.5l2 776l2 123h-247l-2 -121v-778q1 -75 -14.5 -132.5t-40.5 -95.5t-68 -66.5t-87 -45.5t-108 -33zM82 1147h123h2h123v246h-123h-2h-123v-246z M492 1147h122h2h123v246h-123h-2h-122v-246z" />
<glyph unicode="&#x134;" horiz-adv-x="530" d="M-27 -35l45 -188l84 10q118 10 198 81t115.5 179t35.5 248l2 913l2 123l-248 2l-2 -123v-915v-2q3 -268 -113 -297zM32 1473h182l16 17l93 84l92 -84l16 -17h182l-116 107l-133 123l-41 39l-41 -39l-134 -123z" />
<glyph unicode="&#x135;" horiz-adv-x="409" d="M-125 -317l115 -218l108 58q43 23 81 60.5t73.5 98t56.5 153t21 206.5l2 858l2 123l-248 2l-2 -123v-860q1 -109 -11.5 -171.5t-31.5 -86t-57 -43.5zM-86 1116h182l17 17l92 84l92 -84l16 -17h183l-117 107l-133 123l-41 38l-41 -38l-133 -123z" />
<glyph unicode="&#x136;" horiz-adv-x="874" d="M82 0h246v123v430h19l233 -483l32 -70h273l-84 176l-240 500l240 500l84 176h-273l-32 -70l-233 -483h-19v430v123h-246v-123v-430v-246v-430v-123zM336 -390h144q82 -2 149.5 42t67.5 109q2 46 -31 79.5t-72 46.5t-73 13l41 123h-123l-68 -186q62 4 118.5 -10t61.5 -35 q5 -23 -12.5 -41.5t-58.5 -18.5l-142 -2z" />
<glyph unicode="&#x137;" horiz-adv-x="776" d="M82 0h246v123v266h8l150 -371h-110l-67 -186q62 4 118.5 -10t61.5 -35q5 -23 -13 -41.5t-59 -18.5l-141 -2l-2 -121h143q82 -2 149.5 42.5t67.5 109.5q2 46 -31 79.5t-72 46.5t-73 13l35 106l1 -1h270l-82 174l-158 338l158 338l82 174h-270l-158 -389h-8v758v123h-246 v-123v-758v-246v-266v-123z" />
<glyph unicode="&#x138;" horiz-adv-x="776" d="M82 0h246v123v266h7l126 -319l33 -70h272l-84 176l-160 336l160 336l84 176h-272l-33 -70l-126 -319h-7v266v123h-246v-123v-266v-246v-266v-123z" />
<glyph unicode="&#x139;" horiz-adv-x="716" d="M82 0h123h368h123v246h-123h-245v983v123h-246v-123v-1106v-123zM252 1473h135l16 35l82 174l41 88h-135l-16 -35l-82 -174z" />
<glyph unicode="&#x13a;" horiz-adv-x="407" d="M68 1652h135l16 35l82 174l41 88h-135l-17 -35l-81 -174zM82 0h246v123v1270v123h-246v-123v-1270v-123z" />
<glyph unicode="&#x13b;" horiz-adv-x="716" d="M82 0h123h131l-59 -163q62 4 118.5 -10t61.5 -35q5 -23 -12.5 -41.5t-58.5 -18.5l-142 -2l-2 -120h144q82 -2 149.5 42t67.5 109q2 46 -31 79.5t-72.5 46.5t-73.5 13l34 100h113h123v246h-123h-245v983v123h-246v-123v-1106v-123z" />
<glyph unicode="&#x13c;" horiz-adv-x="407" d="M56 -396h143q82 -2 149.5 42.5t67.5 109.5q2 46 -31 79.5t-72 46.5t-73 13l35 105h53v123v1270v123h-246v-123v-1270v-123h70l-61 -168q62 4 118.5 -10t61.5 -35q5 -23 -13 -41.5t-59 -18.5l-141 -2z" />
<glyph unicode="&#x13d;" horiz-adv-x="716" d="M82 0h123h368h123v246h-123h-245v983v123h-246v-123v-1106v-123zM426 958l129 -63l31 63q23 46 34.5 103t13 98t1.5 121v72h-143v-72q0 -77 -1 -111t-8.5 -73.5t-23.5 -71.5z" />
<glyph unicode="&#x13e;" horiz-adv-x="479" d="M82 0h246v123v1270v123h-246v-123v-1270v-123zM432 1122l129 -63l31 63q23 46 34.5 103t13 98t1.5 121v72h-143v-72q0 -77 -1 -111t-8.5 -73.5t-23.5 -71.5z" />
<glyph unicode="&#x13f;" horiz-adv-x="716" d="M82 0h123h368h123v246h-123h-245v983v123h-246v-123v-1106v-123zM400 650h164v82v2v82h-164v-82v-2v-82z" />
<glyph unicode="&#x140;" horiz-adv-x="647" d="M82 0h246v123v1270v123h-246v-123v-1270v-123zM410 613h163v82v2v82h-163v-82v-2v-82z" />
<glyph unicode="&#x141;" horiz-adv-x="716" d="M82 0h123h368h123v246h-123h-245v983v123h-246v-123v-1106v-123z" />
<glyph unicode="&#x142;" horiz-adv-x="407" d="M-45 588l90 -111l37 30v-384v-123h246v123v580l127 102l-90 110l-37 -29v507v123h-246v-123v-704z" />
<glyph unicode="&#x143;" horiz-adv-x="929" d="M82 0h246l-41 901l297 -901h86h55h123v1352h-246l53 -901l-309 901h-86h-55h-123v-123v-1229zM328 1473h135l16 35l82 174l41 88h-135l-16 -35l-82 -174z" />
<glyph unicode="&#x144;" horiz-adv-x="843" d="M82 0h246v123v266v123v205q78 82 127 82q36 0 49.5 -60t13.5 -227l2 -391l2 -123l244 4l-2 121v389q-2 261 -80 396.5t-229 135.5h-2q-64 -1 -125 -58v38h-246v-123v-86v-303v-123v-266v-123zM287 1139h135l16 34l82 175l41 88h-135l-16 -35l-82 -174z" />
<glyph unicode="&#x145;" horiz-adv-x="929" d="M82 0h246l-41 901l297 -901h86h55h123v1352h-246l53 -901l-309 901h-86h-55h-123v-123v-1229zM318 -390h143q82 -2 149.5 42t67.5 109q2 46 -31 79.5t-72 46.5t-73 13l41 123h-123l-67 -186q62 4 118.5 -10t61.5 -35q5 -23 -13 -41.5t-59 -18.5l-141 -2z" />
<glyph unicode="&#x146;" horiz-adv-x="843" d="M82 0h246v123v266v123v205q78 82 127 82q36 0 49.5 -60t13.5 -227l2 -391l2 -123l244 4l-2 121v389q-2 261 -80 396.5t-229 135.5h-2q-64 -1 -125 -58v38h-246v-123v-86v-303v-123v-266v-123zM275 -398h143q82 -2 149.5 42.5t67.5 109.5q2 46 -31 79.5t-72 46.5t-73 13 l41 123h-123l-67 -186q62 4 118.5 -10t61.5 -35q5 -23 -13 -41.5t-59 -18.5l-141 -2z" />
<glyph unicode="&#x147;" horiz-adv-x="929" d="M82 0h246l-41 901l297 -901h86h55h123v1352h-246l53 -901l-309 901h-86h-55h-123v-123v-1229zM174 1742l117 -107l133 -123l41 -39l41 39l133 123l117 107h-183l-16 -17l-92 -84l-92 84l-17 17h-182z" />
<glyph unicode="&#x148;" horiz-adv-x="843" d="M82 0h246v123v266v123v205q78 82 127 82q36 0 49.5 -60t13.5 -227l2 -391l2 -123l244 4l-2 121v389q-2 261 -80 396.5t-229 135.5h-2q-64 -1 -125 -58v38h-246v-123v-86v-303v-123v-266v-123zM133 1407l117 -107l133 -122l41 -39l41 39l133 122l117 107h-183l-16 -16 l-92 -84l-92 84l-17 16h-182z" />
<glyph unicode="&#x14a;" d="M82 0h246v123v900q44 55 81 79t80 24q26 0 48.5 -21.5t43 -69.5t32.5 -140t12 -219q2 -382 -57 -457q-29 -37 -76 -14l-82 -162q63 -44 118 -59.5t98.5 -3.5t80 44t63 84t46.5 115.5t32 139t17.5 153.5t4.5 160q1 202 -42.5 361.5t-121 247.5t-174.5 87q-98 0 -204 -90 v70h-246v-123v-1106v-123z" />
<glyph unicode="&#x14b;" horiz-adv-x="843" d="M82 0h246v123v594q82 82 127 82q25 0 37.5 -19.5t19 -81t6.5 -186.5l2 -391q-2 -211 -15 -246q-11 -25 -34 -12l-27 14l-75 -123l41 -41q86 -66 150.5 -76t102.5 24.5t61.5 109t31.5 159t8 193.5l2 387q0 154 -35 273.5t-106.5 190t-169.5 70.5h-2q-62 -1 -125 -59v39 h-246v-123v-778v-123z" />
<glyph unicode="&#x14c;" horiz-adv-x="1009" d="M41 676q0 -318 123.5 -507t343.5 -189q217 -1 339 188.5t122 507.5q1 207 -53.5 364.5t-160 244.5t-247.5 87q-145 -1 -251 -87.5t-161 -243t-55 -365.5zM287 676q0 174 23 272t69.5 138t128.5 40q80 -1 125 -41t67.5 -137.5t22.5 -271.5q1 -174 -21.5 -273t-68 -138.5 t-125.5 -39.5q-121 -2 -171 96.5t-50 354.5zM290 1497h61l307 1h62v122h-62h-307h-61v-123z" />
<glyph unicode="&#x14d;" horiz-adv-x="808" d="M41 512q0 -148 45.5 -269t130 -192t191.5 -71q161 -1 261.5 151.5t100.5 380.5q1 147 -44 268t-129 192.5t-189 71.5q-106 -1 -190.5 -71.5t-130.5 -191.5t-46 -269zM190 1140h62h307h62v123h-62h-307h-62v-123zM287 512q0 112 13 175.5t38.5 87.5t69.5 24q42 -1 66 -25 t37 -87t13 -175q1 -164 -26 -225.5t-90 -61.5q-64 -2 -92.5 60.5t-28.5 226.5z" />
<glyph unicode="&#x14e;" horiz-adv-x="1009" d="M41 676q0 -318 123.5 -507t343.5 -189q217 -1 339 188.5t122 507.5q1 207 -53.5 364.5t-160 244.5t-247.5 87q-145 -1 -251 -87.5t-161 -243t-55 -365.5zM280 1692q0 -76 69.5 -135t155.5 -59q88 -1 156.5 58t68.5 136h-123q0 -72 -102 -72q-50 -1 -76.5 18t-26.5 54 h-122zM287 676q0 174 23 272t69.5 138t128.5 40q80 -1 125 -41t67.5 -137.5t22.5 -271.5q1 -174 -21.5 -273t-68 -138.5t-125.5 -39.5q-121 -2 -171 96.5t-50 354.5z" />
<glyph unicode="&#x14f;" horiz-adv-x="808" d="M41 512q0 -148 45.5 -269t130 -192t191.5 -71q161 -1 261.5 151.5t100.5 380.5q1 147 -44 268t-129 192.5t-189 71.5q-106 -1 -190.5 -71.5t-130.5 -191.5t-46 -269zM180 1335q0 -76 70 -135.5t156 -59.5q87 -1 156 58.5t69 136.5h-123q0 -72 -102 -72q-50 -1 -76.5 18 t-26.5 54h-123zM287 512q0 112 13 175.5t38.5 87.5t69.5 24q42 -1 66 -25t37 -87t13 -175q1 -164 -26 -225.5t-90 -61.5q-64 -2 -92.5 60.5t-28.5 226.5z" />
<glyph unicode="&#x150;" horiz-adv-x="1009" d="M41 676q0 -318 123.5 -507t343.5 -189q217 -1 339 188.5t122 507.5q1 207 -53.5 364.5t-160 244.5t-247.5 87q-145 -1 -251 -87.5t-161 -243t-55 -365.5zM245 1497h135l16 35l82 174l41 88h-135l-16 -34l-82 -174zM287 676q0 174 23 272t69.5 138t128.5 40q80 -1 125 -41 t67.5 -137.5t22.5 -271.5q1 -174 -21.5 -273t-68 -138.5t-125.5 -39.5q-121 -2 -171 96.5t-50 354.5zM491 1497h135l16 35l82 174l41 88h-135l-17 -34l-82 -174z" />
<glyph unicode="&#x151;" horiz-adv-x="808" d="M41 512q0 -148 45.5 -269t130 -192t191.5 -71q161 -1 261.5 151.5t100.5 380.5q1 147 -44 268t-129 192.5t-189 71.5q-106 -1 -190.5 -71.5t-130.5 -191.5t-46 -269zM145 1140h136l16 35l82 174l41 88h-135l-17 -35l-82 -174zM287 512q0 112 13 175.5t38.5 87.5t69.5 24 q42 -1 66 -25t37 -87t13 -175q1 -164 -26 -225.5t-90 -61.5q-64 -2 -92.5 60.5t-28.5 226.5zM391 1140h135l17 35l82 174l41 88h-136l-16 -35l-82 -174z" />
<glyph unicode="&#x152;" horiz-adv-x="1433" d="M41 676q0 -337 116 -506.5t332 -169.5q96 0 177 67v-67h122h482h123v246h-123h-359v307h226h123v246h-123h-226v307h359h123v246h-123h-482h-122v-70q-85 70 -177 70q-215 -2 -331.5 -171t-116.5 -505zM287 676q0 115 6 188.5t18.5 123.5t38 74.5t57 34t82.5 9.5 q74 -1 109 -30.5t51.5 -120t16.5 -279.5v-53q-1 -101 -7 -167t-17.5 -108.5t-34 -64.5t-49 -29.5t-69.5 -7.5q-43 -1 -71 4.5t-52 23t-38 46t-24 78t-13.5 116t-3.5 162.5z" />
<glyph unicode="&#x153;" horiz-adv-x="1265" d="M41 512q0 -227 103.5 -379.5t265.5 -152.5q143 -1 243 119q92 -119 226 -119q104 -1 176 43t133 141l-158 123q-50 -39 -76 -50.5t-73 -11.5q-44 0 -68 40.5t-30 144.5h321h123v102v276v43l-27 33q-51 65 -137.5 122.5t-181.5 57.5q-135 -3 -227 -122q-101 122 -244 122 q-107 -1 -191.5 -71.5t-131 -191.5t-46.5 -269zM287 512q0 163 28.5 225t94.5 62q46 -1 72 -25t39.5 -86.5t13.5 -175.5q1 -165 -27.5 -226t-97.5 -61q-65 -2 -94 60.5t-29 226.5zM783 604q7 109 30 152t66 43q34 -1 61.5 -19t40.5 -35v-141h-198z" />
<glyph unicode="&#x154;" horiz-adv-x="917" d="M82 0h246v123v381h32h123q16 0 26.5 -35t36.5 -159q26 -126 46 -214l22 -96h252l-32 150q-5 22 -19 85t-19.5 86t-18 71t-22 73t-23.5 56.5t-29 54.5q110 101 110 342q2 205 -80 319.5t-250 114.5l-276 -2h-123v-123l-2 -1104v-123zM328 687v419h155q55 -1 63 -5 q18 -9 20 -58q1 -13 1 -125q2 -151 -4 -180q-9 -39 -41 -46q-14 -4 -39 -4h-123v-1h-32zM337 1473h135l16 35l82 174l41 88h-135l-16 -35l-82 -174z" />
<glyph unicode="&#x155;" horiz-adv-x="573" d="M82 0h246v123v266v123q0 59 1 94t8 65t12.5 44t24.5 29t34 21.5t49 20.5l112 48l-92 227l-47 -17q-58 -24 -102 -86v66h-246v-123v-512v-266v-123zM188 1156h136l16 35l82 174l41 88h-135l-17 -35l-82 -174z" />
<glyph unicode="&#x156;" horiz-adv-x="917" d="M82 0h246v123v381h32h123q16 0 26.5 -35t36.5 -159q26 -126 46 -214l22 -96h252l-32 150q-5 22 -19 85t-19.5 86t-18 71t-22 73t-23.5 56.5t-29 54.5q110 101 110 342q2 205 -80 319.5t-250 114.5l-276 -2h-123v-123l-2 -1104v-123zM327 -390h144q82 -2 149.5 42 t67.5 109q2 46 -31 79.5t-72.5 46.5t-73.5 13l41 123h-122l-68 -186q62 4 118.5 -10t61.5 -35q5 -23 -12.5 -41.5t-58.5 -18.5l-142 -2zM328 687v419h155q55 -1 63 -5q18 -9 20 -58q1 -13 1 -125q2 -151 -4 -180q-9 -39 -41 -46q-14 -4 -39 -4h-123v-1h-32z" />
<glyph unicode="&#x157;" horiz-adv-x="573" d="M51 -397h144q82 -2 149.5 42t67.5 109q2 46 -31 80t-72 47t-73 13l35 106h57v123v266v123q0 59 1 94t8 65t12.5 44t24.5 29t34 21.5t49 20.5l112 48l-92 227l-47 -17q-58 -24 -102 -86v66h-246v-123v-512v-266v-123h66l-62 -170q62 4 118.5 -10t61.5 -35q5 -23 -12.5 -41 t-58.5 -18l-142 -2z" />
<glyph unicode="&#x158;" horiz-adv-x="917" d="M82 0h246v123v381h32h123q16 0 26.5 -35t36.5 -159q26 -126 46 -214l22 -96h252l-32 150q-5 22 -19 85t-19.5 86t-18 71t-22 73t-23.5 56.5t-29 54.5q110 101 110 342q2 205 -80 319.5t-250 114.5l-276 -2h-123v-123l-2 -1104v-123zM183 1742l117 -107l133 -123l41 -39 l41 39l133 123l117 107h-182l-17 -17l-92 -84l-92 84l-16 17h-183zM328 687v419h155q55 -1 63 -5q18 -9 20 -58q1 -13 1 -125q2 -151 -4 -180q-9 -39 -41 -46q-14 -4 -39 -4h-123v-1h-32z" />
<glyph unicode="&#x159;" horiz-adv-x="573" d="M35 1425l117 -107l133 -123l41 -39l41 39l133 123l116 107h-182l-16 -17l-92 -84l-93 84l-16 17h-182zM82 0h246v123v266v123q0 59 1 94t8 65t12.5 44t24.5 29t34 21.5t49 20.5l112 48l-92 227l-47 -17q-58 -24 -102 -86v66h-246v-123v-512v-266v-123z" />
<glyph unicode="&#x15a;" horiz-adv-x="778" d="M41 205q34 -49 61.5 -82.5t69.5 -69.5t94.5 -54.5t114.5 -18.5q158 -2 267.5 109.5t109.5 277.5q1 45 -14 90t-36 79t-57 74.5t-62 64t-67 60t-57 51.5q-21 20 -62 57.5t-53.5 50.5t-32 37.5t-25 45t-5.5 47.5q0 51 25.5 76.5t66.5 25.5q10 0 18.5 -2t17.5 -9t16 -13 t18 -20t18 -23.5t22.5 -31.5t26.5 -36l189 117q-18 40 -33 68t-44.5 68.5t-61.5 65.5t-81 43.5t-106 18.5q-78 -1 -143.5 -31.5t-107 -80t-64.5 -110.5t-23 -126q0 -58 13.5 -108.5t31 -85t48 -71t52.5 -56.5t58.5 -51t52.5 -46q25 -24 66.5 -61t61.5 -56.5t43.5 -45.5 t33 -48.5t10.5 -46.5q0 -50 -34 -86.5t-97 -36.5h-2q-37 0 -65 23t-101 102zM262 1498h135l17 34l82 174l41 88h-136l-16 -34l-82 -174z" />
<glyph unicode="&#x15b;" horiz-adv-x="655" d="M27 123q41 -58 112.5 -100.5t153.5 -42.5q79 0 145 28t108 74.5t65 104.5t24 120q-1 51 -19.5 95.5t-56.5 84t-75 68t-95 66.5q-123 75 -123 116q0 62 53 62q20 0 37.5 -13t53.5 -49l176 115q-8 28 -28 59.5t-50.5 62t-75.5 50.5t-94 20h-2q-121 -2 -207.5 -89.5 t-85.5 -219.5q0 -33 6.5 -63t16 -52.5t27.5 -45t31 -36.5t37 -32t36.5 -26t37 -23t31.5 -19q69 -42 96 -70t27 -55v-2q0 -34 -24 -60t-72 -26h-2q-21 0 -40 8t-75 41zM194 1140h135l16 35l82 174l41 88h-135l-17 -35l-82 -174z" />
<glyph unicode="&#x15c;" horiz-adv-x="778" d="M41 205q34 -49 61.5 -82.5t69.5 -69.5t94.5 -54.5t114.5 -18.5q158 -2 267.5 109.5t109.5 277.5q1 45 -14 90t-36 79t-57 74.5t-62 64t-67 60t-57 51.5q-21 20 -62 57.5t-53.5 50.5t-32 37.5t-25 45t-5.5 47.5q0 51 25.5 76.5t66.5 25.5q10 0 18.5 -2t17.5 -9t16 -13 t18 -20t18 -23.5t22.5 -31.5t26.5 -36l189 117q-18 40 -33 68t-44.5 68.5t-61.5 65.5t-81 43.5t-106 18.5q-78 -1 -143.5 -31.5t-107 -80t-64.5 -110.5t-23 -126q0 -58 13.5 -108.5t31 -85t48 -71t52.5 -56.5t58.5 -51t52.5 -46q25 -24 66.5 -61t61.5 -56.5t43.5 -45.5 t33 -48.5t10.5 -46.5q0 -50 -34 -86.5t-97 -36.5h-2q-37 0 -65 23t-101 102zM109 1498h182l16 16l92 84l93 -84l16 -16h182l-117 106l-133 123l-41 39l-41 -39l-133 -123z" />
<glyph unicode="&#x15d;" horiz-adv-x="655" d="M27 123q41 -58 112.5 -100.5t153.5 -42.5q79 0 145 28t108 74.5t65 104.5t24 120q-1 51 -19.5 95.5t-56.5 84t-75 68t-95 66.5q-123 75 -123 116q0 62 53 62q20 0 37.5 -13t53.5 -49l176 115q-8 28 -28 59.5t-50.5 62t-75.5 50.5t-94 20h-2q-121 -2 -207.5 -89.5 t-85.5 -219.5q0 -33 6.5 -63t16 -52.5t27.5 -45t31 -36.5t37 -32t36.5 -26t37 -23t31.5 -19q69 -42 96 -70t27 -55v-2q0 -34 -24 -60t-72 -26h-2q-21 0 -40 8t-75 41zM40 1140h182l17 17l92 84l92 -84l16 -17h183l-117 107l-133 123l-41 39l-41 -39l-133 -123z" />
<glyph unicode="&#x15e;" horiz-adv-x="778" d="M41 205q31 -46 56.5 -77t64 -66t85 -55.5t100.5 -25.5l-60 -165q62 4 118.5 -10t61.5 -35q5 -23 -12.5 -41t-58.5 -18l-142 -2l-2 -121h144q82 -2 149.5 42.5t67.5 109.5q2 46 -31 79.5t-72 46.5t-73 13l36 110q125 30 205 133.5t80 243.5q1 45 -14 90t-36 79t-57 74.5 t-62 64t-67 60t-57 51.5q-21 20 -62 57.5t-53.5 50.5t-32 37.5t-25 45t-5.5 47.5q0 51 25.5 76.5t66.5 25.5q10 0 18.5 -2t17.5 -9t16 -13t18 -20t18 -23.5t22.5 -31.5t26.5 -36l189 117q-18 40 -33 68t-44.5 68.5t-61.5 65.5t-81 43.5t-106 18.5q-78 -1 -143.5 -31.5 t-107 -80t-64.5 -110.5t-23 -126q0 -58 13.5 -108.5t31 -85t48 -71t52.5 -56.5t58.5 -51t52.5 -46q25 -24 66.5 -61t61.5 -56.5t43.5 -45.5t33 -48.5t10.5 -46.5q0 -50 -34 -86.5t-97 -36.5h-2q-37 0 -65 23t-101 102z" />
<glyph unicode="&#x15f;" horiz-adv-x="655" d="M27 123q34 -49 91.5 -88t124.5 -51l-61 -168q62 4 118.5 -10t61.5 -35q5 -23 -12.5 -41.5t-58.5 -18.5l-142 -2l-2 -121h144q82 -2 149.5 42.5t67.5 109.5q2 46 -31 79.5t-72 46.5t-73 13l35 107q124 24 195 115.5t73 205.5q-1 51 -19.5 95.5t-56.5 84t-75 68t-95 66.5 q-123 75 -123 116q0 62 53 62q20 0 37.5 -13t53.5 -49l176 115q-8 28 -28 59.5t-50.5 62t-75.5 50.5t-94 20h-2q-121 -2 -207.5 -89.5t-85.5 -219.5q0 -33 6.5 -63t16 -52.5t27.5 -45t31 -36.5t37 -32t36.5 -26t37 -23t31.5 -19q69 -42 96 -70t27 -55v-2q0 -34 -24 -60 t-72 -26h-2q-21 0 -40 8t-75 41z" />
<glyph unicode="&#x160;" horiz-adv-x="778" d="M41 205q34 -49 61.5 -82.5t69.5 -69.5t94.5 -54.5t114.5 -18.5q158 -2 267.5 109.5t109.5 277.5q1 45 -14 90t-36 79t-57 74.5t-62 64t-67 60t-57 51.5q-21 20 -62 57.5t-53.5 50.5t-32 37.5t-25 45t-5.5 47.5q0 51 25.5 76.5t66.5 25.5q10 0 18.5 -2t17.5 -9t16 -13 t18 -20t18 -23.5t22.5 -31.5t26.5 -36l189 117q-18 40 -33 68t-44.5 68.5t-61.5 65.5t-81 43.5t-106 18.5q-78 -1 -143.5 -31.5t-107 -80t-64.5 -110.5t-23 -126q0 -58 13.5 -108.5t31 -85t48 -71t52.5 -56.5t58.5 -51t52.5 -46q25 -24 66.5 -61t61.5 -56.5t43.5 -45.5 t33 -48.5t10.5 -46.5q0 -50 -34 -86.5t-97 -36.5h-2q-37 0 -65 23t-101 102zM109 1766l116 -107l133 -123l41 -38l41 38l133 123l117 107h-182l-16 -17l-93 -84l-92 84l-16 17h-182z" />
<glyph unicode="&#x161;" horiz-adv-x="655" d="M27 123q41 -58 112.5 -100.5t153.5 -42.5q79 0 145 28t108 74.5t65 104.5t24 120q-1 51 -19.5 95.5t-56.5 84t-75 68t-95 66.5q-123 75 -123 116q0 62 53 62q20 0 37.5 -13t53.5 -49l176 115q-8 28 -28 59.5t-50.5 62t-75.5 50.5t-94 20h-2q-121 -2 -207.5 -89.5 t-85.5 -219.5q0 -33 6.5 -63t16 -52.5t27.5 -45t31 -36.5t37 -32t36.5 -26t37 -23t31.5 -19q69 -42 96 -70t27 -55v-2q0 -34 -24 -60t-72 -26h-2q-21 0 -40 8t-75 41zM40 1409l117 -107l133 -123l41 -39l41 39l133 123l117 107h-183l-16 -17l-92 -84l-92 84l-17 17h-182z " />
<glyph unicode="&#x162;" horiz-adv-x="847" d="M41 1106h123h139v-983v-123h68l-59 -163q62 4 118.5 -10t61.5 -35q5 -23 -13 -41.5t-59 -18.5l-141 -2l-2 -120h143q82 -2 149.5 42t67.5 109q2 46 -31 79.5t-72 46.5t-73 13l34 100h54v123v983h135h123v246h-123h-135h-246h-139h-123v-246z" />
<glyph unicode="&#x163;" horiz-adv-x="493" d="M41 840h63v-328q1 -216 12 -282q18 -110 86 -170q30 -25 74 -48l9 -4l-62 -170q62 4 118.5 -10t61.5 -35q5 -23 -12.5 -41t-58.5 -18l-142 -2l-2 -121h144q82 -2 149.5 42.5t67.5 109.5q2 46 -31 79.5t-72 46.5t-73 13l26 77l93 166l-82 60q-43 33 -52.5 83t-7.5 224 l1 328h100v186h-99v201l2 123l-248 2l-2 -123v-203h-63v-186z" />
<glyph unicode="&#x164;" horiz-adv-x="847" d="M41 1106h123h139v-983v-123h246v123v983h135h123v246h-123h-135h-246h-139h-123v-246zM133 1742l117 -107l133 -123l41 -39l41 39l133 123l117 107h-183l-16 -17l-92 -84l-92 84l-17 17h-182z" />
<glyph unicode="&#x165;" horiz-adv-x="651" d="M41 840h63v-328q1 -216 12 -282q18 -110 86 -170q30 -25 74 -48l111 -53l105 186l-82 60q-43 33 -52.5 83t-7.5 224l1 328h100v186h-99v201l2 123l-248 2l-2 -123v-203h-63v-186zM565 924h144v71v285v72h-144v-72v-285v-71z" />
<glyph unicode="&#x166;" horiz-adv-x="847" d="M41 1106h123h139v-358h-104h-72v-144h72h104v-481v-123h246v123v481h100h72v144h-72h-100v358h135h123v246h-123h-135h-246h-139h-123v-246z" />
<glyph unicode="&#x167;" horiz-adv-x="493" d="M41 840h63v-328q1 -216 12 -282q18 -110 86 -170q30 -25 74 -48l111 -53l105 186l-82 60q-43 33 -52.5 83t-7.5 224l1 328h100v186h-99v201l2 123l-248 2l-2 -123v-203h-63v-186z" />
<glyph unicode="&#x168;" d="M82 537q0 -259 109 -408t286 -149q114 -1 216.5 60.5t154.5 133.5l22 33v330v692v123h-245v-123v-692v-252q-15 -20 -55 -40t-93 -20q-152 0 -149 312l2 690l2 123l-248 2l-2 -123v-692zM179 1537h123q0 65 57 65q23 -1 35.5 -9.5t36.5 -33.5q70 -84 162 -84 q70 -1 125 59t55 130h-123q0 -66 -57 -66h-2q-20 -1 -32.5 7.5t-35.5 35.5h-2q-18 20 -26.5 27.5t-30.5 24.5t-48 24.5t-57 7.5q-68 -2 -124 -60t-56 -128z" />
<glyph unicode="&#x169;" horiz-adv-x="800" d="M82 399q0 -90 19.5 -165.5t58.5 -132.5t101 -89t142 -32q88 -1 171.5 45.5t123.5 103.5l23 33v239v500v123h-246v-123v-500v-161l-7 -3q-6 -3 -23.5 -7.5t-38.5 -4.5q-39 0 -58.5 39.5t-19.5 136.5l2 498l2 123l-248 2l-2 -123v-500v-2zM104 1179h123q0 66 58 66 q23 -1 35 -9t36 -34q70 -84 162 -84q70 -1 125 58.5t55 129.5h-123q0 -65 -57 -65h-2q-14 -1 -25 4.5t-18 12t-24 26.5h-3q-25 26 -37 38t-48 29t-76 17q-68 -2 -124.5 -60.5t-56.5 -128.5z" />
<glyph unicode="&#x16a;" d="M82 537q0 -259 109 -408t286 -149q114 -1 216.5 60.5t154.5 133.5l22 33v330v692v123h-245v-123v-692v-252q-15 -20 -55 -40t-93 -20q-152 0 -149 312l2 690l2 123l-248 2l-2 -123v-692zM261 1475h62h307h61v123h-61h-307h-62v-123z" />
<glyph unicode="&#x16b;" horiz-adv-x="800" d="M82 399q0 -90 19.5 -165.5t58.5 -132.5t101 -89t142 -32q88 -1 171.5 45.5t123.5 103.5l23 33v239v500v123h-246v-123v-500v-161l-7 -3q-6 -3 -23.5 -7.5t-38.5 -4.5q-39 0 -58.5 39.5t-19.5 136.5l2 498l2 123l-248 2l-2 -123v-500v-2zM186 1118h62h307h61v123h-61h-307 h-62v-123z" />
<glyph unicode="&#x16c;" d="M82 537q0 -259 109 -408t286 -149q114 -1 216.5 60.5t154.5 133.5l22 33v330v692v123h-245v-123v-692v-252q-15 -20 -55 -40t-93 -20q-152 0 -149 312l2 690l2 123l-248 2l-2 -123v-692zM251 1670q0 -76 69.5 -135.5t155.5 -59.5q87 -1 156 58.5t69 136.5h-122 q0 -72 -103 -72q-50 -1 -76 18t-26 54h-123z" />
<glyph unicode="&#x16d;" horiz-adv-x="800" d="M82 399q0 -90 19.5 -165.5t58.5 -132.5t101 -89t142 -32q88 -1 171.5 45.5t123.5 103.5l23 33v239v500v123h-246v-123v-500v-161l-7 -3q-6 -3 -23.5 -7.5t-38.5 -4.5q-39 0 -58.5 39.5t-19.5 136.5l2 498l2 123l-248 2l-2 -123v-500v-2zM176 1313q0 -76 69.5 -135.5 t155.5 -59.5q88 -1 157 58.5t69 136.5h-123q0 -72 -103 -72q-50 -1 -76 18t-26 54h-123z" />
<glyph unicode="&#x16e;" d="M82 537q0 -259 109 -408t286 -149q114 -1 216.5 60.5t154.5 133.5l22 33v330v692v123h-245v-123v-692v-252q-15 -20 -55 -40t-93 -20q-152 0 -149 312l2 690l2 123l-248 2l-2 -123v-692zM302 1649q0 -78 46.5 -126t127.5 -48q82 -1 128 47.5t46 126.5q2 75 -46 124.5 t-128 49.5q-79 -1 -126.5 -49t-47.5 -125zM404 1649q0 46 12.5 59t59.5 13q49 -1 60.5 -13.5t11.5 -58.5q2 -47 -10.5 -59t-61.5 -12q-46 -1 -59 12t-13 59z" />
<glyph unicode="&#x16f;" horiz-adv-x="800" d="M82 399q0 -90 19.5 -165.5t58.5 -132.5t101 -89t142 -32q88 -1 171.5 45.5t123.5 103.5l23 33v239v500v123h-246v-123v-500v-161l-7 -3q-6 -3 -23.5 -7.5t-38.5 -4.5q-39 0 -58.5 39.5t-19.5 136.5l2 498l2 123l-248 2l-2 -123v-500v-2zM227 1292q0 -78 46.5 -126 t127.5 -48q82 -1 128 47.5t46 126.5q2 75 -46 124.5t-128 49.5q-79 -1 -126.5 -49t-47.5 -125zM330 1292q0 46 12 59t59 13q49 -1 60.5 -13.5t11.5 -58.5q2 -47 -10.5 -59.5t-61.5 -12.5q-45 -1 -58 12.5t-13 59.5z" />
<glyph unicode="&#x170;" d="M82 537q0 -259 109 -408t286 -149q114 -1 216.5 60.5t154.5 133.5l22 33v330v692v123h-245v-123v-692v-252q-15 -20 -55 -40t-93 -20q-152 0 -149 312l2 690l2 123l-248 2l-2 -123v-692zM216 1475h135l17 35l82 174l40 88h-135l-16 -35l-82 -174zM462 1475h135l16 35 l82 174l41 88h-135l-16 -35l-82 -174z" />
<glyph unicode="&#x171;" horiz-adv-x="800" d="M82 399q0 -90 19.5 -165.5t58.5 -132.5t101 -89t142 -32q88 -1 171.5 45.5t123.5 103.5l23 33v239v500v123h-246v-123v-500v-161l-7 -3q-6 -3 -23.5 -7.5t-38.5 -4.5q-39 0 -58.5 39.5t-19.5 136.5l2 498l2 123l-248 2l-2 -123v-500v-2zM141 1118h135l17 35l82 174l41 88 h-135l-17 -35l-82 -174zM387 1118h135l17 35l82 174l41 88h-136l-16 -35l-82 -174z" />
<glyph unicode="&#x172;" d="M82 537q0 -259 109 -408t286 -149h9h10.5h8.5q-127 -107 -127 -206q1 -59 44.5 -110t114.5 -65t161 39l51 31l-63 105l-54 -33q-40 -25 -69 -17t-44.5 33t-15.5 55q0 25 38 76.5t76 89.5l38 39l-5 1q63 29 115.5 72t82.5 84l22 33v330v692v123h-245v-123v-692v-252 q-15 -20 -55 -40t-93 -20q-152 0 -149 312l2 690l2 123l-248 2l-2 -123v-692z" />
<glyph unicode="&#x173;" horiz-adv-x="800" d="M82 399q0 -90 19.5 -165.5t58.5 -132.5t101 -89t142 -32h17q-114 -102 -114 -196q1 -59 44.5 -110t114.5 -64.5t161 39.5l51 31l-64 104l-53 -32q-40 -25 -69 -17t-44.5 33t-15.5 55q0 25 38 76.5t76 90.5l38 38h-3q77 44 118 101l23 33v239v500v123h-246v-123v-500v-161 l-7 -3q-6 -3 -23.5 -7.5t-38.5 -4.5q-39 0 -58.5 39.5t-19.5 136.5l2 498l2 123l-248 2l-2 -123v-500v-2z" />
<glyph unicode="&#x174;" horiz-adv-x="1230" d="M20 1352l201 -1352h107h69h105l114 952l107 -952h104h76h107l200 1352h-249l-101 -840l-98 840h-293l-100 -840l-99 840h-250zM325 1473h182l16 17l92 84l93 -84l16 -17h182l-116 107l-134 123l-41 39l-41 -39l-133 -123z" />
<glyph unicode="&#x175;" horiz-adv-x="1064" d="M14 1024l29 -147l154 -779l20 -98h100h31h101l83 737l84 -737h101h31h100l20 98l154 779l29 147h-250l-53 -676l-93 676h-100h-23h-22h-100l-95 -676l-51 676h-250zM242 1116h182l16 17l92 84l93 -84l16 -17h182l-116 107l-134 123l-41 38l-40 -38l-134 -123z" />
<glyph unicode="&#x176;" d="M27 1352l63 -166l266 -706v-357v-123h246v123v358l260 705l62 166h-262l-29 -80l-156 -490l-158 490l-30 80h-262zM184 1473h183l16 17l92 84l92 -84l17 -17h182l-117 107l-133 123l-41 39l-41 -39l-133 -123z" />
<glyph unicode="&#x177;" horiz-adv-x="743" d="M16 1024l27 -145l143 -779l15 -82l73 -14q-30 -135 -57.5 -189.5t-64.5 -78.5l-105 -64l127 -209l105 64q179 107 257 539l3 12l161 799l25 120h-1l5 27h-250l-20 -98l-111 -547l-82 645h-250zM82 1164h182l17 17l92 84l92 -84l16 -17h183l-117 107l-133 123l-41 39 l-41 -39l-133 -123z" />
<glyph unicode="&#x178;" d="M27 1352l63 -166l266 -706v-357v-123h246v123v358l260 705l62 166h-262l-29 -80l-156 -490l-158 490l-30 80h-262zM250 1473h164v82v2v82h-164v-82v-2v-82zM537 1473h163v82v2v82h-163v-82v-2v-82z" />
<glyph unicode="&#x179;" horiz-adv-x="876" d="M25 0h57h123h508h123v246h-123h-328l371 938l65 168h-57h-123h-410h-122v-246h122h230l-371 -938zM293 1473h135l16 35l82 174l41 88h-135l-16 -35l-82 -174z" />
<glyph unicode="&#x17a;" horiz-adv-x="761" d="M20 0h62h123h393h123v246h-123h-242l285 608l72 170h-62h-123h-301h-123v-246h123h142l-277 -608zM233 1116h136l16 35l82 174l41 88h-135l-17 -35l-82 -174z" />
<glyph unicode="&#x17b;" horiz-adv-x="876" d="M25 0h57h123h508h123v246h-123h-328l371 938l65 168h-57h-123h-410h-122v-246h122h230l-371 -938zM348 1473h164v82v2v82h-164v-82v-2v-82z" />
<glyph unicode="&#x17c;" horiz-adv-x="761" d="M20 0h62h123h393h123v246h-123h-242l285 608l72 170h-62h-123h-301h-123v-246h123h142l-277 -608zM289 1116h164v82v2v82h-164v-82v-2v-82z" />
<glyph unicode="&#x17d;" horiz-adv-x="876" d="M25 0h57h123h508h123v246h-123h-328l371 938l65 168h-57h-123h-410h-122v-246h122h230l-371 -938zM139 1742l117 -107l133 -123l41 -39l41 39l133 123l117 107h-182l-17 -17l-92 -84l-92 84l-16 17h-183z" />
<glyph unicode="&#x17e;" horiz-adv-x="761" d="M20 0h62h123h393h123v246h-123h-242l285 608l72 170h-62h-123h-301h-123v-246h123h142l-277 -608zM80 1384l117 -106l133 -123l41 -39l41 39l133 123l117 106h-183l-16 -16l-92 -84l-92 84l-17 16h-182z" />
<glyph unicode="&#x17f;" horiz-adv-x="393" d="M66 901l2 -780l2 -123l243 4l-2 121v778q1 199 11.5 261t42.5 71l118 33l-65 237l-119 -33q-49 -15 -82.5 -35t-64 -59.5t-48 -99.5t-28 -153.5t-10.5 -221.5z" />
<glyph unicode="&#x192;" horiz-adv-x="552" d="M-35 -266l84 -232l117 43q42 15 74 52t53.5 85t37.5 120.5t25.5 142t18.5 166.5l76 718h98v195h-80q12 112 28 158.5t42 50.5l98 22l-49 242l-121 -24q-105 -21 -161 -134t-83 -315h-94v-195h73l-73 -694q-21 -225 -36.5 -294t-53.5 -83z" />
<glyph unicode="&#x2c6;" horiz-adv-x="552" d="M-14 1126h182l16 17l92 84l93 -84l16 -17h182l-116 107l-134 123l-41 39l-40 -39l-134 -123z" />
<glyph unicode="&#x2c7;" horiz-adv-x="552" d="M-14 1372l116 -106l134 -123l40 -39l41 39l134 123l116 106h-182l-16 -16l-93 -84l-92 84l-16 16h-182z" />
<glyph unicode="&#x2c9;" horiz-adv-x="563" d="M51 1096h62h307h61v123h-61h-307h-62v-123z" />
<glyph unicode="&#x2ca;" horiz-adv-x="348" d="M27 1096h135l16 34l82 175l41 88h-135l-16 -35l-82 -174z" />
<glyph unicode="&#x2cb;" horiz-adv-x="348" d="M27 1393l41 -88l82 -175l16 -34h135l-41 88l-82 174l-16 35h-135z" />
<glyph unicode="&#x2cd;" horiz-adv-x="604" d="M82 -113v-143h72h307h71v143h-71h-307h-72z" />
<glyph unicode="&#x2d7;" horiz-adv-x="696" d="M51 332h72h450h72v143h-72h-450h-72v-143z" />
<glyph unicode="&#x2d8;" horiz-adv-x="614" d="M82 1331q0 -76 69.5 -135t155.5 -59q88 -1 156.5 58t68.5 136h-122q0 -71 -103 -71q-50 -1 -76 17.5t-26 53.5h-123z" />
<glyph unicode="&#x2d9;" horiz-adv-x="573" d="M205 1239h164v82v2v82h-164v-82v-2v-82z" />
<glyph unicode="&#x2da;" horiz-adv-x="552" d="M113 1188q0 -78 46.5 -126t127.5 -48q82 -1 128 47.5t46 126.5q2 75 -46 124.5t-128 49.5q-79 -1 -126.5 -49t-47.5 -125zM215 1188q0 46 12.5 59t59.5 13q49 -1 60 -13t11 -59q2 -48 -10 -60t-61 -12q-45 -1 -58.5 12.5t-13.5 59.5z" />
<glyph unicode="&#x2db;" horiz-adv-x="481" d="M51 -203q1 -59 44.5 -110t114.5 -64.5t161 39.5l51 31l-64 104l-53 -33q-40 -25 -69 -16.5t-44.5 33.5t-15.5 55q0 25 38 76.5t76 89.5l38 39l-90 8l-50 -37q-6 -4 -15 -11.5t-32.5 -31.5t-41.5 -48t-33 -58t-15 -66z" />
<glyph unicode="&#x2dc;" horiz-adv-x="768" d="M92 1225h123q0 65 57 65q23 -1 35.5 -9.5t36.5 -33.5q70 -84 162 -84q70 -1 125 59t55 130h-123q0 -66 -57 -66h-2q-20 -1 -32.5 7.5t-35.5 35.5h-2q-18 20 -26.5 27.5t-30.5 24.5t-48 24.5t-57 7.5q-68 -2 -124 -60t-56 -128z" />
<glyph unicode="&#x2dd;" horiz-adv-x="634" d="M68 1096h135l16 34l82 175l41 88h-135l-17 -35l-81 -174zM313 1096h136l16 34l82 175l41 88h-135l-17 -35l-82 -174z" />
<glyph unicode="&#x2000;" horiz-adv-x="974" />
<glyph unicode="&#x2001;" horiz-adv-x="1949" />
<glyph unicode="&#x2002;" horiz-adv-x="974" />
<glyph unicode="&#x2003;" horiz-adv-x="1949" />
<glyph unicode="&#x2004;" horiz-adv-x="649" />
<glyph unicode="&#x2005;" horiz-adv-x="487" />
<glyph unicode="&#x2006;" horiz-adv-x="324" />
<glyph unicode="&#x2007;" horiz-adv-x="324" />
<glyph unicode="&#x2008;" horiz-adv-x="243" />
<glyph unicode="&#x2009;" horiz-adv-x="389" />
<glyph unicode="&#x200a;" horiz-adv-x="108" />
<glyph unicode="&#x2013;" horiz-adv-x="1064" d="M0 410h1065v163h-1065v-163z" />
<glyph unicode="&#x2014;" horiz-adv-x="1884" d="M0 410h1884v163h-1884v-163z" />
<glyph unicode="&#x2018;" horiz-adv-x="368" d="M92 911h144v72q0 82 1 113.5t8 71t23 69.5l33 63l-127 66l-33 -63q-23 -45 -34.5 -100.5t-13 -96.5t-1.5 -123v-72z" />
<glyph unicode="&#x2019;" horiz-adv-x="368" d="M70 948l129 -59l30 63q22 48 33 105t12.5 96.5t1.5 116.5v71h-143v-71q0 -73 -1.5 -106t-9 -73.5t-24.5 -76.5z" />
<glyph unicode="&#x201a;" horiz-adv-x="368" d="M66 -233l127 -70l34 63q34 62 41.5 123t7.5 199v72h-143v-72q0 -129 -5 -170t-28 -82z" />
<glyph unicode="&#x201c;" horiz-adv-x="614" d="M92 911h144v72q0 79 1 110t8 71.5t23 72.5l33 66l-129 63l-31 -63q-23 -46 -34.5 -103t-13 -97.5t-1.5 -119.5v-72zM338 911h143v72q0 76 1 109.5t8.5 73t23.5 71.5l33 66l-129 63l-31 -63q-23 -46 -34.5 -103t-13 -97.5t-1.5 -119.5v-72z" />
<glyph unicode="&#x201d;" horiz-adv-x="614" d="M68 950l129 -63l30 63q23 46 34.5 103t13 97.5t1.5 119.5v71h-143v-71q0 -108 -5 -158.5t-28 -95.5zM313 950l129 -63l31 63q23 46 34.5 103t13 97.5t1.5 119.5v71h-143v-71q0 -108 -5 -158.5t-28 -95.5z" />
<glyph unicode="&#x201e;" horiz-adv-x="614" d="M68 -238l129 -63l30 63q23 46 34.5 103t13 97.5t1.5 119.5v72h-143v-72q0 -108 -5 -158.5t-28 -95.5zM313 -238l129 -63l31 63q23 46 34.5 103t13 97.5t1.5 119.5v72h-143v-72q0 -108 -5 -158.5t-28 -95.5z" />
<glyph unicode="&#x2020;" horiz-adv-x="1024" d="M41 819h82h307v-1065v-82h164v82v1065h307h82v164h-82h-307v287v82h-164v-82v-287h-307h-82v-164z" />
<glyph unicode="&#x2021;" horiz-adv-x="1024" d="M41 41h82h307v-287v-82h164v82v287h307h82v164h-82h-307v614h307h82v164h-82h-307v287v82h-164v-82v-287h-307h-82v-164h82h307v-614h-307h-82v-164z" />
<glyph unicode="&#x202f;" horiz-adv-x="389" />
<glyph unicode="&#x2039;" horiz-adv-x="737" d="M96 537l47 -54l328 -372l25 -29h217l-119 135l-281 320l281 319l119 135h-217l-25 -28l-328 -373z" />
<glyph unicode="&#x203a;" horiz-adv-x="737" d="M25 82h217l24 29l328 372l47 54l-47 53l-328 373l-24 28h-217l118 -135l281 -319l-281 -320z" />
<glyph unicode="&#x205f;" horiz-adv-x="487" />
<glyph unicode="&#x25fc;" horiz-adv-x="1024" d="M0 0v1024h1024v-1024h-1024z" />
</font>
</defs>
</svg>
