<?xml version="1.0" standalone="no"?>
<!DOCTYPE svg PUBLIC "-//W3C//DTD SVG 1.1//EN" "http://www.w3.org/Graphics/SVG/1.1/DTD/svg11.dtd" >
<svg xmlns="http://www.w3.org/2000/svg">
<metadata></metadata>
<defs>
<font id="ff4akloe400" horiz-adv-x="1064" >
<font-face units-per-em="2048" ascent="1638" descent="-410" />
<missing-glyph horiz-adv-x="500" />
<glyph unicode="!" horiz-adv-x="491" d="M164 0h164v82v2v82h-164v-82v-2v-82zM164 328h164v82v860v82h-164v-82v-860v-82z" />
<glyph unicode="&#x22;" horiz-adv-x="614" d="M82 891h164v82v297v82h-164v-82v-297v-82zM369 891h163v82v297v82h-163v-82v-297v-82z" />
<glyph unicode="#" horiz-adv-x="1146" d="M41 297h82h92l-29 -207l-12 -92h166l10 72l32 227h279l-28 -207l-12 -92h165l11 72l31 227h196h82v164h-82h-173l59 432h114h82v164h-82h-91l28 203l12 92h-166l-10 -72l-31 -223h-280l28 203l12 92h-166l-10 -72l-31 -223h-196h-82v-164h82h174l-60 -432h-114h-82v-164z M404 461l60 432h279l-59 -432h-280z" />
<glyph unicode="$" horiz-adv-x="1105" d="M82 903q1 -130 70 -221t139 -88h180v-320h-182h-82v-163h82h182v-29v-82h164v82v29h168q80 -3 150.5 86t70.5 233q1 142 -69 233.5t-148 94.5h-172v281l172 -1h82l-2 166h-82h-170v66v82h-164v-82v-66h-182h-2h-2q-69 -3 -136 -89.5t-67 -211.5zM246 903q1 51 8.5 84 t16.5 43t18 10h182v-282h-182h-2h-2q-3 0 -7.5 3.5t-10.5 14t-10.5 26t-7.5 42t-3 59.5zM635 274v320h168q17 0 29 -11.5t20 -49.5t8 -103q1 -64 -6.5 -100.5t-18.5 -46.5t-28 -9h-172z" />
<glyph unicode="%" horiz-adv-x="1433" d="M86 1008q1 -97 51.5 -184t133 -139t173.5 -52q116 -1 214 79l-465 -589l-87 -109h173l20 27l377 477q-43 -83 -43 -170q1 -90 52 -169.5t133 -126t173 -46.5q91 -1 174 46t133 126.5t50 167.5q1 95 -49 183t-133.5 142t-174.5 54q-120 0 -221 -88l471 596l86 108h-172 l-20 -26l-373 -471q39 81 39 162q1 133 -109 239.5t-248 106.5q-139 0 -248.5 -105t-109.5 -239zM250 1008q2 82 53.5 131t140.5 49t141 -49.5t52 -132.5q1 -98 -51.5 -153.5t-141.5 -55.5q-87 -2 -140.5 55.5t-53.5 155.5zM797 348q1 97 54.5 155t139.5 58q87 0 140 -58.5 t53 -156.5q1 -83 -50.5 -129.5t-142.5 -46.5q-89 -1 -141.5 47.5t-52.5 130.5z" />
<glyph unicode="&#x26;" horiz-adv-x="1310" d="M50 468q-5 -85 23.5 -168t84 -151t151.5 -110t217 -41q221 1 383 183q91 -86 187 -165l22 -18h260l-180 145q-84 68 -191 170q16 25 36 59.5t32.5 55t26 41t25 30t22.5 9.5l80 2v164l-84 -2q-30 -1 -60.5 -16t-52 -32t-53.5 -55.5t-48 -60t-51 -71.5q-189 193 -319 362 q60 37 99.5 64.5t80.5 63t61.5 71.5t20.5 73q1 65 -29.5 121t-77 90t-97.5 52.5t-95 17.5q-42 -1 -89 -18.5t-91.5 -50t-73.5 -88.5t-30 -124q-1 -69 91 -214q-184 -114 -241 -230v-2q-35 -72 -40 -157zM204.5 444q6.5 55 33.5 109q34 68 189 165q151 -202 355 -411 q-124 -144 -256 -145q-88 -1 -154.5 22.5t-103.5 63t-53.5 90.5t-10 106zM403 1067q1 66 34 92.5t91 28.5q59 2 95 -26.5t36 -90.5q1 -22 -40.5 -50t-129.5 -75l-9 -4.5t-7.5 -4t-8.5 -4.5q-61 95 -61 134z" />
<glyph unicode="'" horiz-adv-x="327" d="M92 913h144v72v285v71h-144v-71v-285v-72z" />
<glyph unicode="(" horiz-adv-x="573" d="M82 569q0 -250 74.5 -452t189.5 -342l25 -29h213l-111 135q-230 276 -227 688q3 223 58.5 377t172.5 318l90 129h-200l-25 -35q-60 -86 -103 -163.5t-80.5 -174t-56.5 -209.5t-20 -242z" />
<glyph unicode=")" horiz-adv-x="573" d="M4 -254h203l24 35q107 150 184 359t77 429q3 418 -261 789l-24 35h-201l90 -129q114 -160 173 -326t59 -369q1 -196 -65.5 -375.5t-166.5 -318.5z" />
<glyph unicode="*" horiz-adv-x="942" d="M164 1034h197l-103 -180l123 -70l90 159l90 -159l123 70l-103 180h197v144h-173l79 139l-123 69l-90 -158l-90 158l-123 -69l79 -139h-173v-144z" />
<glyph unicode="+" horiz-adv-x="942" d="M82 594h82h225v-215v-82h164v82v215h225h82v164h-82h-225v217v82h-164v-82v-217h-225h-82v-164z" />
<glyph unicode="," horiz-adv-x="368" d="M68 -238l129 -63l30 63q23 46 34.5 103t13 98t1.5 121v72h-143v-72q0 -77 -1 -111t-8.5 -73.5t-23.5 -71.5z" />
<glyph unicode="-" horiz-adv-x="778" d="M82 594h82h450h82v164h-82h-450h-82v-164z" />
<glyph unicode="." horiz-adv-x="409" d="M123 -2h164v82v2v82h-164v-82v-2v-82z" />
<glyph unicode="/" horiz-adv-x="614" d="M12 -2h170l19 57l368 1190l33 107h-170l-18 -58l-369 -1190z" />
<glyph unicode="0" horiz-adv-x="1187" d="M123 717q0 -380 118.5 -559.5t352.5 -177.5q235 0 353 178.5t118 558.5q1 378 -117.5 557.5t-353.5 179.5q-234 -2 -352.5 -180.5t-118.5 -556.5zM287 717q0 174 15.5 284t54 175t94 89.5t143.5 24.5q118 -1 182 -48.5t94.5 -170.5t30.5 -354q1 -140 -10 -237.5 t-32 -163.5t-59.5 -103.5t-87 -53t-118.5 -16.5q-116 -2 -180 45.5t-95.5 172.5t-31.5 356z" />
<glyph unicode="1" horiz-adv-x="778" d="M20 635h191l25 41l215 371v-967v-82h163v82v1270v82h-129l-24 -41l-369 -633z" />
<glyph unicode="2" horiz-adv-x="1146" d="M123 -2h819h82v164h-82h-655q0 38 25 79.5t68 82.5t98 85.5t116.5 90.5t122.5 93.5t116 100.5t98 106t68 113.5t25 120.5q2 183 -119 301.5t-332 118.5q-57 -1 -111 -15t-106 -42.5t-82 -48.5t-77 -54l-66 -47l96 -133l68 49q40 30 54.5 40t49.5 32t56.5 30.5t53.5 16.5 t64 8q159 -1 223 -61t64 -195q0 -53 -40 -112t-105 -116.5t-144 -120t-157.5 -131.5t-143.5 -141t-106 -158.5t-41 -174.5v-82z" />
<glyph unicode="3" horiz-adv-x="1187" d="M139 121l74 -33q86 -36 133 -54t115.5 -34.5t130.5 -17.5h2q205 0 338 130t133 363q1 113 -34.5 207t-98.5 152q-16 15 -36 30t-39.5 26t-39 20.5t-35.5 16.5t-29 11.5t-19 7t-5 2.5l189 367l61 119h-53h-82h-516h-82v-164h82h381l-189 -367l-61 -119h53h82 q152 0 227 -69q42 -41 61 -95.5t19 -144.5q1 -179 -73.5 -254.5t-233.5 -75.5q-47 1 -101.5 15.5t-88.5 27.5t-125 52l-76 30z" />
<glyph unicode="4" horiz-adv-x="1187" d="M39 319h43h82q103 -1 308.5 -2t307.5 -1v-236v-82h164v82v236l39 -1h82v164h-82h-39v545v82h-164v-82v-544l-491 3l362 836l49 115h-178l-22 -50l-412 -950z" />
<glyph unicode="5" horiz-adv-x="1187" d="M139 121l74 -33q13 -5 54.5 -22.5t56 -23.5t49.5 -19t55 -18t50.5 -12t58.5 -9t57 -2q227 0 349 132.5t122 379.5q1 247 -121 372t-350 125q-124 -1 -243 -57l65 336h444h82v164h-82h-512h-67l-13 -66l-102 -532l-8 -43l30 -31l41 -41l58 -59l82 81q96 84 225 84 q122 -1 186 -29t92.5 -98.5t28.5 -205.5q1 -198 -66 -273.5t-241 -75.5q-19 0 -38.5 1.5t-34.5 3.5t-37 9t-34.5 10.5t-39 14.5t-38 16t-45.5 19.5t-48 20.5l-76 30z" />
<glyph unicode="6" horiz-adv-x="1187" d="M123 412h4q21 -211 140.5 -320.5t326.5 -109.5q228 -1 349.5 132t121.5 380q1 244 -121.5 366.5t-349.5 122.5q-143 -2 -244 -49q87 268 281 364l74 37l-74 148l-74 -37q-98 -49 -176 -134.5t-125 -183t-78 -213t-43 -217.5t-12 -202v-1v-1v-82zM287 495v1v42 q6 165 72 223t235 58q123 -1 187 -28.5t92 -96t28 -200.5q1 -198 -66 -273.5t-241 -75.5q-173 -2 -240 73.5t-67 276.5z" />
<glyph unicode="7" d="M82 1270h82h602q-115 -218 -169.5 -323t-117 -232.5t-86.5 -185t-53 -140.5t-42 -143t-30 -152l-18 -96h166l12 68q16 87 27.5 139t42.5 138.5t54 139.5t95.5 199.5t131 258.5t194.5 372l63 121h-53h-819h-82v-164z" />
<glyph unicode="8" horiz-adv-x="1187" d="M123 436q0 -219 123 -336.5t348 -117.5q226 -2 348.5 116t122.5 338q2 106 -27 193.5t-86 140.5q-15 15 -33 27l1 1q2 0 2 1v2q102 89 102 270q1 81 -23.5 148.5t-74.5 121t-135 83.5t-197 30q-111 -1 -195.5 -31t-134.5 -82.5t-75 -120.5t-25 -149q0 -182 100 -272h2 q1 -1 2.5 -2t2.5 -2q-18 -12 -33 -27q-115 -103 -115 -332zM287 436q0 88 13.5 135t47.5 76v2q35 32 91 46.5t155 15.5q99 0 156 -14t92 -46q34 -32 46.5 -78.5t12.5 -136.5q1 -167 -64.5 -229t-242.5 -62q-174 -2 -240.5 61t-66.5 230zM328 1071q0 84 20 128.5t77.5 67.5 t168.5 23q68 -1 114 -9t76.5 -23t47 -42.5t22.5 -61t6 -83.5q1 -60 -8.5 -91t-36.5 -56q-59 -50 -221 -50h-4q-152 -3 -217 48q-26 23 -35.5 55.5t-9.5 93.5z" />
<glyph unicode="9" horiz-adv-x="1187" d="M123 948q1 -243 122.5 -362t348.5 -119q150 -2 253 49q-40 -140 -110 -239.5t-172 -137.5l-76 -28l56 -154l78 27q101 37 180.5 122t127.5 187t79.5 225t43 227.5t11.5 202.5v12v70h-3q-20 204 -141 314t-327 110q-225 -2 -348 -132.5t-123 -373.5zM287 948 q1 193 68 267.5t239 74.5q175 -2 241 -74.5t66 -267.5q0 -130 -28.5 -197t-92.5 -93.5t-186 -26.5q-177 -2 -242 63.5t-65 253.5z" />
<glyph unicode=":" horiz-adv-x="409" d="M127 -18h164v81v3v81h-164v-81v-3v-81zM127 860h164v82v2v82h-164v-82v-2v-82z" />
<glyph unicode=";" horiz-adv-x="368" d="M72 -246l133 -51l26 66q45 120 45 313v72h-143v-72q0 -172 -37 -260zM104 860h164v82v2v82h-164v-82v-2v-82z" />
<glyph unicode="&#x3c;" horiz-adv-x="1105" d="M82 621l53 -21l778 -299l111 -43v174l-53 21l-578 223l578 221l53 18v177l-111 -43l-778 -297l-53 -19v-112z" />
<glyph unicode="=" horiz-adv-x="1105" d="M82 352h82h778h82v164h-82h-778h-82v-164zM82 786h82h778h82v164h-82h-778h-82v-164z" />
<glyph unicode="&#x3e;" horiz-adv-x="1105" d="M82 258l111 43l778 299l53 21v112l-53 19l-778 297l-111 43v-177l53 -18l578 -221l-578 -223l-53 -21v-174z" />
<glyph unicode="?" horiz-adv-x="1024" d="M82 924h164v82q0 112 71 168.5t195 54.5q123 -2 194.5 -59t71.5 -166q0 -14 -2.5 -27.5t-6 -23.5t-13 -23t-15 -20.5t-22 -22.5t-23.5 -21.5t-28.5 -25t-30.5 -25.5q-43 -34 -71.5 -62t-63 -72t-52.5 -97.5t-18 -114.5q-1 -24 -1 -41.5t0.5 -27.5t0.5 -11v-82h164v82 q0 4 -0.5 15.5t-0.5 26t1 32.5v2q0 69 32.5 113.5t110.5 109.5q88 73 118 108q85 96 85 208q1 112 -63.5 202.5t-162.5 138t-204 48.5t-203.5 -44.5t-162 -136.5t-64.5 -206v-82zM432 -6h164v82v4v82h-164v-82v-4v-82z" />
<glyph unicode="@" horiz-adv-x="2068" d="M123 467q1 -169 69.5 -325.5t182 -270.5t268.5 -182t322 -68q143 -1 271 24t223 68.5t164 91t118 101.5l53 61l-121 109l-55 -60q-90 -101 -250 -166t-403 -65q-141 -1 -267 51.5t-216 143t-142.5 217.5t-52.5 270q1 143 53.5 270t142.5 217.5t215.5 143.5t266.5 53 q186 -1 336.5 -79.5t235.5 -216t85 -306.5q1 -114 -63 -219t-150 -164h-2q-154 -112 -201 -74q-22 17 -12 64q74 317 152 675l18 82l-162 35l-16 -80l-9 -39q-92 103 -212 103q-143 0 -271.5 -116t-187.5 -327q-39 -144 -6.5 -253.5t117 -174t190.5 -63.5h2q124 3 228 89 q17 -54 63.5 -89.5t108.5 -47t140 8.5t152 72q105 71 195 219.5t90 298.5q1 121 -41.5 237t-120 210.5t-179 166.5t-226 112t-254.5 40q-166 -1 -321.5 -70t-269.5 -183t-182.5 -270.5t-68.5 -324.5zM660.5 230q-40.5 70 1.5 214q50 173 126 248.5t177 75.5q87 0 128.5 -73 t6.5 -206q-98 -321 -295 -327q-104 -2 -144.5 68z" />
<glyph unicode="A" horiz-adv-x="1187" d="M6 0h174l21 53l88 242h30h545h35l88 -242l21 -53h174l-39 111l-434 1187l-21 54h-57h-37h-37h-57l-21 -54l-434 -1187zM349 459l245 673l245 -673h-490z" />
<glyph unicode="B" horiz-adv-x="1222" d="M164 0h82h518h4q190 0 281 92q92 94 92 290q0 236 -147 324q73 92 73 265v8q1 187 -91 279q-94 94 -286 94l-442 -2h-82v-82l-2 -1186v-82zM328 1188h362q50 -1 81 -3.5t57 -12t39 -22.5t22 -39t11.5 -57.5t2.5 -82.5v-28q1 -32 -1 -54q-2 -31 -11 -57t-22 -39 t-39.5 -21.5t-57.5 -11t-82 -2.5l-361 -2zM329 594h361h13h61q50 -1 81 -3.5t57 -11.5t39 -22t22 -39.5t11.5 -57.5t2.5 -81v-28q1 -33 -1 -55q-2 -32 -11.5 -57.5t-22.5 -38.5t-39 -22t-57.5 -11.5t-81.5 -2.5l-434 -2z" />
<glyph unicode="C" horiz-adv-x="1169" d="M82 676q1 -328 148 -512t397 -184h6q147 0 279 48q135 48 221 107l-91 135q-194 -127 -415 -127h-6q-187 0 -280 126q-95 128 -95 407q1 280 95 406t286 126q123 -1 228 -50t175 -114l111 123q-52 46 -121 88.5t-178 79.5t-215 37q-248 -2 -396.5 -186.5t-148.5 -509.5z " />
<glyph unicode="D" horiz-adv-x="1298" d="M164 0h82h446h6q250 0 384 162q134 164 135 514v8q0 668 -523 668l-446 -2h-82v-82l-2 -1186v-82zM328 164v1024h366q81 -1 137.5 -15t101 -47.5t69.5 -92t38 -146t13 -211.5v-15q0 -145 -18 -240q-19 -99 -64.5 -156.5t-110.5 -79t-168 -21.5h-364z" />
<glyph unicode="E" horiz-adv-x="1189" d="M164 0h82h780h82v164h-82h-698v430h514h82v164h-82h-514v430h698h82v164h-82h-780h-82v-82v-512v-164v-512v-82z" />
<glyph unicode="F" horiz-adv-x="1013" d="M164 0h164v82v512h403h82v164h-82h-403v430h583h82v164h-82h-665h-82v-82v-512v-164v-512v-82z" />
<glyph unicode="G" horiz-adv-x="1366" d="M82 676q1 -328 158 -512t424 -184h11q297 0 531 157l37 25v514v82h-82h-495v-164h413v-346q-70 -46 -177 -75.5t-238 -29.5h-6q-207 0 -308 125q-104 128 -104 408q1 279 103.5 405.5t314.5 126.5q134 -1 248 -50.5t198 -115.5l102 127q-57 46 -130.5 88t-189.5 78.5 t-228 36.5q-266 -2 -424 -185.5t-158 -510.5z" />
<glyph unicode="H" horiz-adv-x="1308" d="M164 0h164v82v512h653v-512v-82h164v82v512v164v512v82h-164v-82v-512h-653v512v82h-164v-82v-512v-164v-512v-82z" />
<glyph unicode="I" horiz-adv-x="491" d="M166 0h164v82v1188v82h-164v-82v-1188v-82z" />
<glyph unicode="J" horiz-adv-x="655" d="M-12 -96l26 -162l82 14q188 31 292 170.5t104 354.5l2 968l2 82l-166 2l-2 -82v-970v-6q0 -169 -58 -251q-60 -83 -202 -108z" />
<glyph unicode="K" horiz-adv-x="1210" d="M164 0h164v82v512h142l495 -565l24 -29h217l-119 135l-473 541l473 541l119 135h-217l-24 -29l-495 -565h-142v512v82h-164v-82v-512v-164v-512v-82z" />
<glyph unicode="L" horiz-adv-x="983" d="M164 0h82h614h82v164h-82h-532v1106v82h-164v-82v-1188v-82z" />
<glyph unicode="M" horiz-adv-x="1638" d="M164 0h164v82v904l379 -935l20 -51h55h37h37h55l21 51l379 935v-904v-82h164v82v1188v82h-82h-56h-55l-20 -52l-443 -1091l-442 1091l-21 52h-55h-55h-82v-82v-1188v-82z" />
<glyph unicode="N" horiz-adv-x="1308" d="M164 0h164v82v982l610 -1023l23 -41h47h55h82v82v1188v82h-164v-82v-983l-610 1024l-23 41h-47h-55h-82v-82v-1188v-82z" />
<glyph unicode="O" horiz-adv-x="1394" d="M82 676q0 -330 162 -513t454 -183h3q289 0 450 182q162 184 162 514q1 328 -161.5 512t-453.5 184q-291 -2 -453.5 -184.5t-162.5 -511.5zM246 676q0 283 107 407.5t345 124.5q238 -2 344.5 -126t106.5 -406v-5q-1 -279 -107 -403q-108 -125 -344 -125h-7 q-230 0 -337 124q-108 126 -108 409z" />
<glyph unicode="P" horiz-adv-x="1226" d="M164 0h164v82v438h401h4q219 0 315 100q98 102 97 316v8q0 206 -97 306q-99 102 -319 102l-481 -2h-82v-82l-2 -1186v-82zM328 682v506h401q60 -1 97 -4t68 -14t46 -26t25.5 -46t13 -67t2.5 -95v-28q0 -40 -2 -67q-3 -36 -13 -67t-25.5 -46.5t-46 -26.5t-68 -14t-97.5 -3 z" />
<glyph unicode="Q" horiz-adv-x="1394" d="M82 676q0 -330 162 -513t454 -183h4q232 0 385 120l89 -80l61 -53l109 121l-60 55l-88 80q115 176 115 457q0 325 -161 508q-163 184 -454 184q-291 -2 -453.5 -184.5t-162.5 -511.5zM246 676q0 283 107 407.5t345 124.5q238 -2 344.5 -126t106.5 -406v-7 q0 -220 -67 -343l-128 114l-61 54l-109 -121l60 -56l125 -112q-102 -62 -271 -62h-7q-231 0 -337 124q-108 126 -108 409z" />
<glyph unicode="R" horiz-adv-x="1226" d="M164 0h164v82v438h282h82q24 0 43.5 -4t36 -10t31.5 -21t26 -27t24.5 -40t22.5 -47.5t23.5 -61.5t24.5 -71t28.5 -86t32.5 -97l19 -55h174l-37 109q-14 42 -45 137t-46 137t-42.5 99t-57.5 93q158 92 158 361v8q0 206 -97 306q-99 102 -319 102l-444 -2h-82v-82l-2 -1186 v-82zM328 682v506h364q60 -1 97 -4t68 -14t46 -26t25.5 -46t13 -67t2.5 -95v-28q0 -40 -2 -67q-3 -37 -13.5 -67.5t-26.5 -46t-46.5 -26.5t-67.5 -14t-96 -3h-82z" />
<glyph unicode="S" horiz-adv-x="1062" d="M37 158q125 -84 230.5 -130.5t221.5 -47.5h3q122 0 217.5 31.5t153.5 87t88 126.5t30 154q0 53 -17 100t-52 84t-71.5 65.5t-92 55t-94.5 43t-97 37.5q-178 71 -221 94q-96 55 -98 115q2 121 59 178t195 57q28 0 54 -5t44.5 -9t43 -17.5t36 -19t37 -26t32 -26t35 -31.5 t33.5 -30l111 123q-5 4 -34.5 31t-40 35.5t-41 32.5t-49 34t-52.5 27.5t-63 24.5t-67.5 13.5t-78.5 6.5q-129 -1 -225.5 -56t-144.5 -144t-48 -199q1 -58 29 -109t58 -82t99.5 -67.5t101.5 -49.5t115 -44q15 -6 23 -9q68 -25 106 -40t84.5 -38.5t70 -44t40 -49t16.5 -61.5 v-7q0 -120 -68 -174q-70 -56 -257 -55q-88 1 -169 37.5t-196 112.5z" />
<glyph unicode="T" horiz-adv-x="1105" d="M41 1188h82h350v-1106v-82h164v82v1106h346h82v164h-82h-346h-164h-350h-82v-164z" />
<glyph unicode="U" horiz-adv-x="1351" d="M164 526q1 -129 41.5 -234t110 -172.5t162 -103.5t198.5 -36h5q149 0 279 57q132 58 205 135l23 25v329v744v82h-164v-82v-744v-264q-42 -44 -135.5 -81.5t-212.5 -37.5h-7q-165 1 -252 91q-89 92 -89 292l2 742l2 82l-166 2l-2 -82v-744z" />
<glyph unicode="V" horiz-adv-x="1187" d="M6 1352l39 -111l432 -1188l21 -53h57h39h37h57l21 53l434 1188l39 111h-174l-21 -54l-394 -1081l-392 1081l-21 54h-174z" />
<glyph unicode="W" horiz-adv-x="1640" d="M20 1352l23 -101l279 -1188l14 -63l2 -2l65 2l70 2l62 2l16 59l269 1064l270 -1064l16 -59l61 -2l70 -2l66 -2l2 2l14 63l278 1188l23 101h-168l-14 -64l-235 -1005l-255 1005l-16 60l-60 2l-47 2h-4h-4l-49 -2l-59 -2l-17 -60l-254 -1005l-235 1005l-15 64h-168z" />
<glyph unicode="X" horiz-adv-x="1187" d="M8 0h199l24 35l363 524l362 -524l25 -35h199l-88 129l-398 575l359 519l88 129h-199l-24 -35l-324 -468l-324 468l-24 35h-199l88 -129l359 -519l-398 -575z" />
<glyph unicode="Y" horiz-adv-x="1187" d="M25 1352l67 -121l424 -762v-387v-82h164v82v387l416 762l65 121h-186l-23 -43l-354 -650l-362 650l-23 43h-188z" />
<glyph unicode="Z" horiz-adv-x="1103" d="M16 0h66h82h817h82v164h-82h-670l658 1063l78 125h-66h-82h-694h-82v-164h82h547l-658 -1063z" />
<glyph unicode="[" horiz-adv-x="614" d="M82 -172v-82h82h287h81v164h-81h-205v1173h205h81v164h-81h-287h-82v-82v-1337z" />
<glyph unicode="\" horiz-adv-x="737" d="M49 1352l37 -109l410 -1190l18 -55h174l-37 108l-409 1190l-19 56h-174z" />
<glyph unicode="]" horiz-adv-x="614" d="M82 -90v-164h82h287h81v82v1337v82h-81h-287h-82v-164h82h205v-1173h-205h-82z" />
<glyph unicode="^" horiz-adv-x="942" d="M29 594h184l23 45l237 453l232 -453l24 -45h184l-61 119l-305 594l-25 45h-98l-23 -45l-309 -594z" />
<glyph unicode="_" d="M-41 -90v-164h82h983h82v164h-82h-983h-82z" />
<glyph unicode="`" horiz-adv-x="450" d="M41 1352l47 -113l123 -295l20 -51h179l-48 113l-122 294l-21 52h-178z" />
<glyph unicode="a" horiz-adv-x="1105" d="M82 510q0 -236 120 -383t312 -147h7q144 0 326 122q11 -38 19 -53l21 -49h180l-53 115q-11 27 -21 68t-10 61l2 696l2 82h-166l-1 -57q-153 79 -306 79q-192 -2 -312 -148t-120 -386zM246 510q0 194 66 282.5t202 88.5q95 -1 178.5 -34.5t126.5 -68.5v-266v-229 q-178 -140 -305 -140h-6q-130 0 -195 87q-67 89 -67 280z" />
<glyph unicode="b" horiz-adv-x="1085" d="M123 0h164v71q75 -44 158 -67.5t153 -23.5h2q180 0 292 147q112 148 112 385v8q0 230 -112 376q-114 148 -294 148q-136 -1 -311 -109v417v82h-164v-82v-531v-577v-31v-131v-82zM287 274v465q58 41 96.5 65.5t101 50t113.5 26.5q122 0 182 -88t60 -281v-6 q0 -188 -58 -275q-60 -88 -184 -88h-9q-78 1 -162 35q-89 36 -140 96z" />
<glyph unicode="c" horiz-adv-x="923" d="M82 514q1 -247 119.5 -390.5t308.5 -143.5h5q115 0 213 45q100 46 165 102l-107 123q-125 -107 -276 -107h-6q-129 -1 -193 85q-65 88 -65 286q1 197 65 282t199 85q161 -2 274 -107l111 119q-63 59 -165 105t-220 46q-190 -2 -309 -143.5t-119 -386.5z" />
<glyph unicode="d" horiz-adv-x="1126" d="M82 512q0 -237 117 -384.5t305 -147.5h3q132 0 292 101v-81h164v82v121v309v307v39v494v82h-164v-82v-384q-148 76 -295 76q-187 -2 -304.5 -148.5t-117.5 -383.5zM246 512q0 192 63.5 280.5t194.5 88.5q92 -1 170.5 -33.5t124.5 -67.5v-268v-231q-173 -138 -295 -138h-6 q-126 -1 -188 87q-64 90 -64 282z" />
<glyph unicode="e" d="M82 512q1 -239 120 -385.5t310 -146.5h13q219 0 413 102l-74 143q-161 -82 -352 -82h-7q-113 0 -177 68q-66 70 -79 219h611h82v82v305v37l-27 25q-74 65 -180.5 115t-222.5 50q-190 -2 -310 -148t-120 -384zM250 594q14 148 79 217.5t183 69.5q83 -1 155 -33.5 t111 -67.5v-186h-528z" />
<glyph unicode="f" horiz-adv-x="532" d="M41 860h82h41l2 -780l2 -82l162 4l-2 80v778h112h82v164h-82h-110q3 64 11 105t20 67t37.5 40.5t50.5 21t73 12.5l82 12l-22 162l-80 -10q-56 -8 -97 -20t-85.5 -40.5t-74 -71t-51.5 -113.5t-28 -165h-43h-82v-164z" />
<glyph unicode="g" horiz-adv-x="1038" d="M82 -123q0 -47 13 -87.5t45.5 -78t83.5 -64t132 -42t185 -15.5h6q128 0 259 40q133 40 181 83l27 25v221v35l-25 22q-46 48 -175.5 98t-272.5 50q-73 0 -117 -5v5h-82q-28 0 -34.5 8.5t-6.5 42.5q2 33 9 43t32 10h82v1q11 -1 35 -1h4q80 0 182 39q105 40 174 88l35 25 v217v151q10 12 26.5 33.5t24 30t10.5 8.5h82v164h-82q-71 0 -155 -92q-70 48 -152 80t-149 32q-169 -2 -273 -111t-104 -296q0 -179 110 -278q-55 -66 -55 -142v-2q2 -71 48 -133q-103 -74 -103 -205zM246 -123q0 53 16.5 76.5t79.5 35.5q57 11 178 11h21q77 0 153 -18 t112.5 -34.5t43.5 -23.5v-112q-5 -5 -45.5 -18t-116.5 -26.5t-147 -13.5h-21q-121 0 -178 11q-63 12 -79.5 35.5t-16.5 76.5zM246 637q0 137 47.5 190.5t165.5 53.5q58 -1 127.5 -33t103.5 -66v-145v-131q-32 -22 -104 -48t-127 -26h-11q-113 0 -156 41q-46 43 -46 164z" />
<glyph unicode="h" d="M123 0h164v82v420v82v190q166 107 284 107q117 -2 162 -65t45 -230l2 -506l2 -82l162 4l-2 80v504v8q0 202 -97 325q-99 125 -274 125q-124 -1 -284 -82v390v82h-164v-82v-488v-280v-82v-420v-82z" />
<glyph unicode="i" horiz-adv-x="409" d="M123 0h164v82v881v81h-164v-81v-881v-82zM123 1188h82h2h82v164h-82h-2h-82v-164z" />
<glyph unicode="j" horiz-adv-x="409" d="M-106 -324l61 -151l76 31q37 15 70 36t68.5 58t60.5 83.5t41 115.5t16 151l2 940l2 82l-166 2l-2 -82v-942v-13q0 -67 -9 -114q-11 -52 -33.5 -84t-47.5 -49t-64 -33zM123 1188h82h2h82v164h-82h-2h-82v-164z" />
<glyph unicode="k" horiz-adv-x="944" d="M123 0h164v82v348h97l333 -401l24 -29h213l-110 135l-314 377l314 377l110 135h-213l-24 -29l-333 -401h-97v799v82h-164v-82v-799v-164v-348v-82z" />
<glyph unicode="l" horiz-adv-x="409" d="M123 0h164v82v1311v82h-164v-82v-1311v-82z" />
<glyph unicode="m" horiz-adv-x="1638" d="M123 0h164v82v453v81v148q5 2 46 21t75.5 33.5t80.5 28t78 13.5q94 -2 132.5 -54.5t39.5 -189.5v-534v-82h164v82v534q0 71 -18 141q198 103 276 103q105 -2 148 -55t43 -189l2 -536l2 -82l162 4l-2 80v534q1 184 -98.5 296t-256.5 112q-118 -2 -347 -118 q-93 118 -247 118q-99 -1 -280 -80v80h-164v-82v-72v-254v-81v-453v-82z" />
<glyph unicode="n" d="M123 0h164v82v422v82v188q159 107 286 107q78 -1 121.5 -28t63.5 -90t20 -177l2 -506l2 -82l162 4l-2 80v504v8q0 204 -98 326q-100 124 -271 124q-126 -1 -286 -82v62h-164v-82v-78v-278v-82v-422v-82z" />
<glyph unicode="o" horiz-adv-x="1105" d="M82 512q0 -240 131 -386t340 -146h4q135 0 241 65q107 66 166.5 187.5t59.5 283.5q0 234 -132 380q-132 148 -339 148q-207 -2 -339 -147.5t-132 -384.5zM246 512q0 190 76.5 279.5t230.5 89.5q156 -2 231.5 -90.5t75.5 -283.5q0 -187 -75 -275q-76 -89 -232 -89h-7 q-150 1 -224 89q-76 90 -76 280z" />
<glyph unicode="p" horiz-adv-x="1105" d="M123 211v-539v-82h164v82v404q81 -46 172 -71t168 -25h2q177 0 285 147q110 148 110 385v8q0 230 -109 376q-111 148 -288 148q-170 -1 -340 -102v82h-164v-82v-125v-573v-33zM287 276v467q57 51 146.5 94t193.5 44q118 0 175.5 -88t57.5 -281v-7q0 -188 -57 -275 q-58 -87 -176 -87h-9q-87 0 -179 35q-97 37 -152 98z" />
<glyph unicode="q" horiz-adv-x="1085" d="M82 512q0 -238 116 -385t302 -147h3q142 0 316 107v-415v-82h164v82v531v309v307v41v82v82h-164v-59q-164 79 -319 79q-185 -2 -301.5 -148.5t-116.5 -383.5zM246 512q0 193 62.5 281t191.5 88q100 -1 185 -34t134 -69v-266v-227q-184 -142 -319 -142h-6q-123 0 -185 87 q-63 90 -63 282z" />
<glyph unicode="r" horiz-adv-x="655" d="M123 0h164v82v348v82q0 50 3 89t12 70.5t18.5 54.5t28.5 41.5t36 31t46.5 24.5t55 20t66.5 19l80 23l-43 157l-78 -20q-150 -41 -225 -95v15v82h-164v-82v-430v-82v-348v-82z" />
<glyph unicode="s" horiz-adv-x="901" d="M53 68q93 -35 129.5 -47.5t101.5 -26.5t128 -14h7q162 0 280 88q120 90 120 229q1 63 -29.5 114t-84.5 85.5t-112.5 57t-129.5 38.5h-2q-133 29 -179 53.5t-46 81.5q2 80 43 117t133 37q53 -1 125 -35t110 -68l111 123q-54 47 -160.5 95t-185.5 48q-141 -2 -240.5 -91.5 t-99.5 -225.5q1 -60 23 -107t53.5 -76t83 -52.5t94 -35t102.5 -24.5q125 -28 176 -56.5t51 -81.5q-1 -76 -59 -113q-60 -38 -184 -38h-8q-43 -1 -89 9q-50 10 -81 21.5t-123 45.5z" />
<glyph unicode="t" horiz-adv-x="573" d="M41 860h82h41v-348q1 -124 19 -214.5t53.5 -149t81.5 -92.5t110 -52l78 -24l47 157l-80 23q-62 19 -89.5 46.5t-41.5 96.5t-14 209l1 348h122h81v164h-81h-122l1 203l2 82l-166 2l-2 -82v-205h-41h-82v-164z" />
<glyph unicode="u" d="M123 389q2 -179 112.5 -294t299.5 -115h6q111 0 213 38q105 39 161 93l27 24v254v553v82h-164v-82v-553v-184q-23 -20 -90.5 -41t-152.5 -21h-4q-130 -1 -187 57t-57 189l2 551l2 82l-166 2l-2 -82v-553z" />
<glyph unicode="v" horiz-adv-x="942" d="M6 1024l39 -111l313 -860l21 -53h57h35h35h57l21 53l313 860l39 111h-174l-21 -53l-270 -745l-270 745l-21 53h-174z" />
<glyph unicode="w" horiz-adv-x="1392" d="M14 1024l29 -104l238 -861l18 -59h61h50h61l16 59l209 729l209 -729l17 -59h61h49h62l18 59l238 861l28 104h-170l-18 -59l-183 -670l-198 690l-16 59h-62h-35h-34h-62l-16 -59l-198 -690l-183 670l-19 59h-170z" />
<glyph unicode="x" horiz-adv-x="983" d="M4 0h203l22 35l263 364l262 -364l22 -35h203l-94 129l-294 409l257 357l94 129h-203l-22 -35l-225 -313l-226 313l-22 35h-203l94 -129l257 -357l-294 -409z" />
<glyph unicode="y" horiz-adv-x="901" d="M14 1024l31 -104l252 -859l12 -47l49 -10l23 -5q-48 -144 -96 -205t-115 -87l-53 -20v-174l110 43q222 84 332 467l4 12l293 880l35 109h-172l-19 -55l-265 -798l-234 794l-17 59h-170z" />
<glyph unicode="z" horiz-adv-x="942" d="M10 0h72h82h655h82v164h-82h-502l496 733l86 127h-72h-82h-544h-82v-164h82h391l-496 -733z" />
<glyph unicode="{" horiz-adv-x="655" d="M53 567q87 -91 120.5 -170.5t33.5 -195.5q1 -73 14.5 -147.5t40.5 -145t75.5 -115.5t111.5 -47l83 -2v164l-79 2q-36 1 -58 83.5t-24 207.5q0 126 -32.5 231.5t-64.5 138.5q29 33 63 141t34 232q2 121 23.5 203t56.5 82h81v164h-81q-64 0 -113 -44.5t-76 -115.5 t-40.5 -144.5t-14.5 -144.5q0 -196 -105 -321z" />
<glyph unicode="|" horiz-adv-x="491" d="M164 -352v-82h164v82v1663v82h-164v-82v-1663z" />
<glyph unicode="}" horiz-adv-x="614" d="M82 -90v-164h82q42 0 75.5 15.5t56.5 40.5t39.5 63t26 75.5t15.5 86t8 87t2 85.5q4 112 37 185t86 130l55 57l-33 33q-137 130 -145 342q-5 443 -221 447l-84 2v-164l80 -2q33 0 46 -75t15 -210v-2q3 -87 29 -178t49.5 -138.5t34.5 -58.5q-8 -9 -22.5 -34.5t-35.5 -71.5 t-37 -115t-18 -143q-2 -155 -13.5 -224t-45.5 -69h-82z" />
<glyph unicode="~" horiz-adv-x="1105" d="M80 594h164l2 80q2 53 27 83t87 31q25 -1 58.5 -21t69 -48.5t74.5 -56.5t88 -48t98 -20q82 -1 147.5 45.5t97 109.5t31.5 123v82h-164v-82q0 -114 -112 -114q-22 -1 -53 19t-65.5 48t-74 57t-90.5 49t-103 21h-2q-69 -1 -124.5 -30t-87.5 -72.5t-48.5 -88t-17.5 -83.5z " />
<glyph unicode="&#xa1;" horiz-adv-x="491" d="M164 -287v-82h164v82v903v82h-164v-82v-903zM164 860h82h2h82v164h-82h-2h-82v-164z" />
<glyph unicode="&#xa8;" horiz-adv-x="563" d="M41 1239h164v82v2v82h-164v-82v-2v-82zM328 1239h164v82v2v82h-164v-82v-2v-82z" />
<glyph unicode="&#xab;" d="M137 537l47 -54l328 -372l25 -29h217l-119 135l-281 320l281 319l119 135h-217l-25 -28l-328 -373zM465 537l47 -54l328 -372l24 -29h217l-118 135l-281 320l281 319l118 135h-217l-24 -28l-328 -373z" />
<glyph unicode="&#xaf;" horiz-adv-x="1024" d="M0 1434h1024v163h-1024v-163z" />
<glyph unicode="&#xb4;" horiz-adv-x="348" d="M-4 956h160l20 39l92 181l54 104h-160l-21 -39l-92 -180z" />
<glyph unicode="&#xb8;" horiz-adv-x="575" d="M143 -373h144q82 -2 149.5 42.5t67.5 109.5q2 46 -31 79.5t-72 46.5t-73 13l41 123h-123l-68 -186q62 4 118.5 -10t61.5 -35q5 -23 -12.5 -41.5t-58.5 -18.5l-142 -2z" />
<glyph unicode="&#xbb;" d="M-16 82h217l24 29l328 372l47 54l-47 53l-328 373l-24 28h-217l118 -135l281 -319l-281 -320zM311 82h217l25 29l328 372l47 54l-47 53l-328 373l-25 28h-217l119 -135l281 -319l-281 -320z" />
<glyph unicode="&#xbf;" d="M82 0q1 -119 65 -215t161 -145.5t204 -49.5q108 -1 205.5 48.5t161 145.5t63.5 216v82h-164v-82q0 -122 -71.5 -184t-194.5 -62q-121 -2 -193.5 62t-72.5 184q1 27 9.5 49t31.5 47t40.5 40.5t59.5 49.5q45 38 72 64.5t62.5 72t53 99t17.5 115.5l2 73l2 82l-166 4l-2 -82 v-75v-2q1 -30 -7 -56.5t-16.5 -44t-32.5 -43t-37.5 -37.5t-49.5 -43q-87 -71 -119 -106q-84 -95 -84 -207zM430 860h82h2h82v164h-82h-2h-82v-164z" />
<glyph unicode="&#xc0;" horiz-adv-x="1187" d="M6 0h174l21 53l88 242h30h545h35l88 -242l21 -53h174l-39 111l-434 1187l-21 54h-57h-37h-37h-57l-21 -54l-434 -1187zM349 459l245 673l245 -673h-490zM457 1770l41 -88l82 -174l16 -35h135l-41 88l-82 174l-16 35h-135z" />
<glyph unicode="&#xc1;" horiz-adv-x="1187" d="M6 0h174l21 53l88 242h30h545h35l88 -242l21 -53h174l-39 111l-434 1187l-21 54h-57h-37h-37h-57l-21 -54l-434 -1187zM349 459l245 673l245 -673h-490zM457 1473h135l16 35l82 174l41 88h-135l-16 -35l-82 -174z" />
<glyph unicode="&#xc2;" horiz-adv-x="1187" d="M6 0h174l21 53l88 242h30h545h35l88 -242l21 -53h174l-39 111l-434 1187l-21 54h-57h-37h-37h-57l-21 -54l-434 -1187zM293 1504h182l17 16l92 84l92 -84l16 -16h182l-116 107l-133 122l-41 39l-41 -39l-133 -122zM349 459l245 673l245 -673h-490z" />
<glyph unicode="&#xc3;" horiz-adv-x="1187" d="M6 0h174l21 53l88 242h30h545h35l88 -242l21 -53h174l-39 111l-434 1187l-21 54h-57h-37h-37h-57l-21 -54l-434 -1187zM297 1535h123q0 65 57 65q23 -1 35.5 -9.5t36.5 -33.5q70 -84 162 -84q70 -1 125 59t55 130h-123q0 -66 -57 -66h-2q-20 -1 -32.5 7.5t-35.5 35.5h-2 q-18 20 -26.5 27.5t-30.5 24.5t-48 24.5t-57 7.5q-68 -2 -124 -60t-56 -128zM349 459l245 673l245 -673h-490z" />
<glyph unicode="&#xc4;" horiz-adv-x="1187" d="M6 0h174l21 53l88 242h30h545h35l88 -242l21 -53h174l-39 111l-434 1187l-21 54h-57h-37h-37h-57l-21 -54l-434 -1187zM349 459l245 673l245 -673h-490zM369 1473h163v82v2v82h-163v-82v-2v-82zM655 1473h164v82v2v82h-164v-82v-2v-82z" />
<glyph unicode="&#xc5;" horiz-adv-x="1187" d="M6 0h174l21 53l88 242h30h545h35l88 -242l21 -53h174l-39 111l-434 1187l-21 54h-57h-37h-37h-57l-21 -54l-434 -1187zM349 459l245 673l245 -673h-490zM420 1647q0 -78 46.5 -126t127.5 -48q82 -1 128 47.5t46 126.5q2 75 -46 125t-128 50q-79 -1 -126.5 -49.5 t-47.5 -125.5zM522 1647q0 46 12.5 59t59.5 13q49 -1 60.5 -13.5t11.5 -58.5q2 -47 -10.5 -59t-61.5 -12q-46 -1 -59 12t-13 59z" />
<glyph unicode="&#xc6;" horiz-adv-x="1677" d="M6 0h174l21 53l90 244h28h529v-215v-82h82h624h82v164h-82h-542v133v164v133h372h82v164h-82h-372v430h542h82v164h-82h-542h-164h-285h-57l-21 -54l-440 -1187zM352 461l269 727h227v-430v-164v-133h-496z" />
<glyph unicode="&#xc7;" horiz-adv-x="1169" d="M82 676q1 -293 119.5 -472.5t325.5 -215.5l-56 -154q62 4 118.5 -10t61.5 -35q5 -23 -12.5 -41t-58.5 -18l-142 -2l-2 -121h144q82 -2 149.5 42t67.5 109q2 46 -31 80t-72.5 47t-73.5 13l28 82q145 3 274.5 51t210.5 104l-91 135q-194 -127 -415 -127q-191 -2 -286 126 t-95 407q1 280 95 406t286 126q123 -1 228 -50t175 -114l111 123q-52 46 -121 88.5t-178 79.5t-215 37q-248 -2 -396.5 -186.5t-148.5 -509.5z" />
<glyph unicode="&#xc8;" horiz-adv-x="1189" d="M164 0h82h780h82v164h-82h-698v430h514h82v164h-82h-514v430h698h82v164h-82h-780h-82v-82v-512v-164v-512v-82zM499 1770l41 -88l82 -174l16 -35h135l-41 88l-82 174l-16 35h-135z" />
<glyph unicode="&#xc9;" horiz-adv-x="1189" d="M164 0h82h780h82v164h-82h-698v430h514h82v164h-82h-514v430h698h82v164h-82h-780h-82v-82v-512v-164v-512v-82zM499 1473h135l16 35l82 174l41 88h-135l-16 -35l-82 -174z" />
<glyph unicode="&#xca;" horiz-adv-x="1189" d="M164 0h82h780h82v164h-82h-698v430h514h82v164h-82h-514v430h698h82v164h-82h-780h-82v-82v-512v-164v-512v-82zM335 1504h182l17 16l92 84l92 -84l16 -16h182l-116 107l-133 122l-41 39l-41 -39l-133 -122z" />
<glyph unicode="&#xcb;" horiz-adv-x="1189" d="M164 0h82h780h82v164h-82h-698v430h514h82v164h-82h-514v430h698h82v164h-82h-780h-82v-82v-512v-164v-512v-82zM411 1473h163v82v2v82h-163v-82v-2v-82zM697 1473h164v82v2v82h-164v-82v-2v-82z" />
<glyph unicode="&#xcc;" horiz-adv-x="491" d="M111 1770l41 -88l81 -174l17 -35h135l-41 88l-82 174l-16 35h-135zM166 0h164v82v1188v82h-164v-82v-1188v-82z" />
<glyph unicode="&#xcd;" horiz-adv-x="491" d="M111 1473h135l16 35l82 174l41 88h-135l-17 -35l-81 -174zM166 0h164v82v1188v82h-164v-82v-1188v-82z" />
<glyph unicode="&#xce;" horiz-adv-x="491" d="M-53 1504h182l16 16l93 84l92 -84l16 -16h182l-116 107l-133 122l-41 39l-41 -39l-134 -122zM166 0h164v82v1188v82h-164v-82v-1188v-82z" />
<glyph unicode="&#xcf;" horiz-adv-x="491" d="M23 1473h163v82v2v82h-163v-82v-2v-82zM166 0h164v82v1188v82h-164v-82v-1188v-82zM309 1473h164v82v2v82h-164v-82v-2v-82z" />
<glyph unicode="&#xd0;" horiz-adv-x="1298" d="M-25 604h72h118l-1 -522v-82h82h446q256 -2 390.5 162t134.5 514q3 676 -523 676l-446 -2h-82v-82q0 -86 -0.5 -260t-0.5 -260h-118h-72v-144zM328 164v440h169h72v144h-72h-169v440h366q81 -1 137.5 -15t101 -47.5t69.5 -92t38 -146t13 -211.5q1 -156 -18 -255 t-64.5 -156.5t-110.5 -79t-168 -21.5h-364z" />
<glyph unicode="&#xd1;" horiz-adv-x="1308" d="M164 0h164v82v982l610 -1023l23 -41h47h55h82v82v1188v82h-164v-82v-983l-610 1024l-23 41h-47h-55h-82v-82v-1188v-82zM357 1535h123q0 65 58 65q23 -1 35 -9t36 -34q70 -84 162 -84q70 -1 125 59t55 130h-123q0 -66 -57 -66h-2q-20 -1 -32.5 7.5t-35.5 35.5h-2 q-25 26 -37 38t-48 29t-76 17q-68 -2 -124.5 -60t-56.5 -128z" />
<glyph unicode="&#xd2;" horiz-adv-x="1394" d="M82 676q0 -330 162 -513t454 -183q291 -1 453 182.5t162 513.5q1 328 -161.5 512t-453.5 184q-291 -2 -453.5 -184.5t-162.5 -511.5zM246 676q0 283 107 407.5t345 124.5q238 -2 344.5 -126t106.5 -406q1 -283 -106.5 -408t-344.5 -125q-236 -2 -344 124t-108 409z M560 1794l41 -88l82 -174l16 -34h136l-41 88l-82 174l-17 34h-135z" />
<glyph unicode="&#xd3;" horiz-adv-x="1394" d="M82 676q0 -330 162 -513t454 -183q291 -1 453 182.5t162 513.5q1 328 -161.5 512t-453.5 184q-291 -2 -453.5 -184.5t-162.5 -511.5zM246 676q0 283 107 407.5t345 124.5q238 -2 344.5 -126t106.5 -406q1 -283 -106.5 -408t-344.5 -125q-236 -2 -344 124t-108 409z M560 1498h135l17 34l82 174l41 88h-136l-16 -34l-82 -174z" />
<glyph unicode="&#xd4;" horiz-adv-x="1394" d="M82 676q0 -330 162 -513t454 -183q291 -1 453 182.5t162 513.5q1 328 -161.5 512t-453.5 184q-291 -2 -453.5 -184.5t-162.5 -511.5zM246 676q0 283 107 407.5t345 124.5q238 -2 344.5 -126t106.5 -406q1 -283 -106.5 -408t-344.5 -125q-236 -2 -344 124t-108 409z M396 1528h183l16 17l92 84l92 -84l17 -17h182l-117 107l-133 123l-41 39l-41 -39l-133 -123z" />
<glyph unicode="&#xd5;" horiz-adv-x="1394" d="M82 676q0 -330 162 -513t454 -183q291 -1 453 182.5t162 513.5q1 328 -161.5 512t-453.5 184q-291 -2 -453.5 -184.5t-162.5 -511.5zM246 676q0 283 107 407.5t345 124.5q238 -2 344.5 -126t106.5 -406q1 -283 -106.5 -408t-344.5 -125q-236 -2 -344 124t-108 409z M400 1559h123q0 66 58 66q16 -1 27.5 -6.5t18.5 -12t25 -25.5q69 -83 162 -83q70 -1 125 58.5t55 129.5h-123q0 -66 -57 -66h-2q-20 -1 -32.5 7.5t-35.5 35.5h-2q-25 26 -37 38t-48 29t-76 17q-68 -2 -124.5 -60t-56.5 -128z" />
<glyph unicode="&#xd6;" horiz-adv-x="1394" d="M82 676q0 -330 162 -513t454 -183q291 -1 453 182.5t162 513.5q1 328 -161.5 512t-453.5 184q-291 -2 -453.5 -184.5t-162.5 -511.5zM246 676q0 283 107 407.5t345 124.5q238 -2 344.5 -126t106.5 -406q1 -283 -106.5 -408t-344.5 -125q-236 -2 -344 124t-108 409z M472 1498h164v81v2v82h-164v-82v-2v-81zM759 1498h164v81v2v82h-164v-82v-2v-81z" />
<glyph unicode="&#xd8;" horiz-adv-x="1394" d="M63 76l107 -94l47 53l74 82q157 -137 407 -137q291 -1 453 182.5t162 513.5q1 272 -115 451l86 96l47 53l-106 94l-47 -53l-74 -82q-157 137 -406 137q-291 -2 -453.5 -184.5t-162.5 -511.5q0 -276 115 -451l-86 -96zM246 676q0 283 107 407.5t345 124.5q201 -2 304 -86 l-698 -777q-58 119 -58 331zM392 230l699 778q58 -122 58 -332q1 -283 -106.5 -408t-344.5 -125q-198 -2 -306 87z" />
<glyph unicode="&#xd9;" horiz-adv-x="1351" d="M164 526q1 -129 41.5 -234t110 -172.5t162 -103.5t198.5 -36q152 -1 284 57t205 135l23 25v329v744v82h-164v-82v-744v-264q-42 -44 -135.5 -81.5t-212.5 -37.5q-170 -2 -259 90.5t-89 292.5l2 742l2 82l-166 2l-2 -82v-744zM539 1772l41 -88l82 -174l16 -35h135l-41 88 l-82 174l-16 35h-135z" />
<glyph unicode="&#xda;" horiz-adv-x="1351" d="M164 526q1 -129 41.5 -234t110 -172.5t162 -103.5t198.5 -36q152 -1 284 57t205 135l23 25v329v744v82h-164v-82v-744v-264q-42 -44 -135.5 -81.5t-212.5 -37.5q-170 -2 -259 90.5t-89 292.5l2 742l2 82l-166 2l-2 -82v-744zM539 1475h135l16 35l82 174l41 88h-135 l-16 -35l-82 -174z" />
<glyph unicode="&#xdb;" horiz-adv-x="1351" d="M164 526q1 -129 41.5 -234t110 -172.5t162 -103.5t198.5 -36q152 -1 284 57t205 135l23 25v329v744v82h-164v-82v-744v-264q-42 -44 -135.5 -81.5t-212.5 -37.5q-170 -2 -259 90.5t-89 292.5l2 742l2 82l-166 2l-2 -82v-744zM375 1506h182l16 16l93 84l92 -84l16 -16h182 l-116 106l-133 123l-41 39l-41 -39l-133 -123z" />
<glyph unicode="&#xdc;" horiz-adv-x="1351" d="M164 526q1 -129 41.5 -234t110 -172.5t162 -103.5t198.5 -36q152 -1 284 57t205 135l23 25v329v744v82h-164v-82v-744v-264q-42 -44 -135.5 -81.5t-212.5 -37.5q-170 -2 -259 90.5t-89 292.5l2 742l2 82l-166 2l-2 -82v-744zM451 1475h163v82v2v82h-163v-82v-2v-82z M737 1475h164v82v2v82h-164v-82v-2v-82z" />
<glyph unicode="&#xdd;" horiz-adv-x="1187" d="M25 1352l67 -121l424 -762v-387v-82h164v82v387l416 762l65 121h-186l-23 -43l-354 -650l-362 650l-23 43h-188zM456 1473h135l16 35l82 174l41 88h-135l-16 -35l-82 -174z" />
<glyph unicode="&#xde;" horiz-adv-x="1226" d="M164 0h164v82v178h401q194 -1 305 111t111 305q2 191 -110.5 303.5t-305.5 112.5l-401 -2v180v82h-164v-82v-1188v-82zM328 422v506h401q143 -2 197.5 -56.5t54.5 -195.5q1 -142 -54 -197t-198 -55z" />
<glyph unicode="&#xdf;" horiz-adv-x="1146" d="M123 1024l2 -944l2 -82l162 4l-2 80v942q3 205 229 205q100 -1 145.5 -57.5t16.5 -108.5q-16 -30 -62 -100t-75 -127t-29 -99q0 -65 21 -118t55 -87t74.5 -61t81.5 -46t75 -36t57 -37t25 -43q7 -67 -13 -111.5t-60 -62.5t-93 -16.5t-114 22.5l-78 27l-54 -156l78 -26 q53 -18 112 -21.5t117.5 6.5t110.5 38.5t90 70.5t57 105.5t11 140.5q-6 54 -31 98t-59.5 73t-75.5 53.5t-80 44t-71 39.5t-52 45.5t-20 55.5q1 15 23 52.5t61 97t61 98.5q20 34 22 78t-11.5 89t-43 89t-68.5 78t-92.5 55t-111.5 21q-86 -1 -160.5 -32t-125 -82.5t-79 -118 t-28.5 -136.5z" />
<glyph unicode="&#xe0;" horiz-adv-x="1105" d="M82 510q0 -236 120 -383t312 -147q146 -3 333 122q11 -38 19 -53l21 -49h180l-53 115q-11 27 -21 68t-10 61l2 696l2 82h-166l-1 -57q-153 79 -306 79q-192 -2 -312 -148t-120 -386zM246 510q0 194 66 282.5t202 88.5q95 -1 178.5 -34.5t126.5 -68.5v-266v-229 q-178 -140 -305 -140q-134 -2 -201 87t-67 280zM437 1437l41 -88l82 -174l17 -35h135l-41 88l-82 174l-17 35h-135z" />
<glyph unicode="&#xe1;" horiz-adv-x="1105" d="M82 510q0 -236 120 -383t312 -147q146 -3 333 122q11 -38 19 -53l21 -49h180l-53 115q-11 27 -21 68t-10 61l2 696l2 82h-166l-1 -57q-153 79 -306 79q-192 -2 -312 -148t-120 -386zM246 510q0 194 66 282.5t202 88.5q95 -1 178.5 -34.5t126.5 -68.5v-266v-229 q-178 -140 -305 -140q-134 -2 -201 87t-67 280zM437 1140h135l17 35l82 174l41 88h-135l-17 -35l-82 -174z" />
<glyph unicode="&#xe2;" horiz-adv-x="1105" d="M82 510q0 -236 120 -383t312 -147q146 -3 333 122q11 -38 19 -53l21 -49h180l-53 115q-11 27 -21 68t-10 61l2 696l2 82h-166l-1 -57q-153 79 -306 79q-192 -2 -312 -148t-120 -386zM246 510q0 194 66 282.5t202 88.5q95 -1 178.5 -34.5t126.5 -68.5v-266v-229 q-178 -140 -305 -140q-134 -2 -201 87t-67 280zM273 1171h183l16 16l92 84l92 -84l17 -16h182l-117 107l-133 122l-41 39l-41 -39l-133 -122z" />
<glyph unicode="&#xe3;" horiz-adv-x="1105" d="M82 510q0 -236 120 -383t312 -147q146 -3 333 122q11 -38 19 -53l21 -49h180l-53 115q-11 27 -21 68t-10 61l2 696l2 82h-166l-1 -57q-153 79 -306 79q-192 -2 -312 -148t-120 -386zM246 510q0 194 66 282.5t202 88.5q95 -1 178.5 -34.5t126.5 -68.5v-266v-229 q-178 -140 -305 -140q-134 -2 -201 87t-67 280zM278 1202h122q0 65 58 65q23 -1 35 -9t36 -34q70 -84 162 -84q70 -1 125 59t55 130h-122q0 -66 -58 -66h-2q-14 -1 -25 4.5t-18 12t-24 26.5h-2q-18 20 -26.5 27.5t-30.5 24.5t-48 24.5t-57 7.5q-68 -2 -124 -60t-56 -128z " />
<glyph unicode="&#xe4;" horiz-adv-x="1105" d="M82 510q0 -236 120 -383t312 -147q146 -3 333 122q11 -38 19 -53l21 -49h180l-53 115q-11 27 -21 68t-10 61l2 696l2 82h-166l-1 -57q-153 79 -306 79q-192 -2 -312 -148t-120 -386zM246 510q0 194 66 282.5t202 88.5q95 -1 178.5 -34.5t126.5 -68.5v-266v-229 q-178 -140 -305 -140q-134 -2 -201 87t-67 280zM349 1140h164v82v2v82h-164v-82v-2v-82zM636 1140h164v82v2v82h-164v-82v-2v-82z" />
<glyph unicode="&#xe5;" horiz-adv-x="1105" d="M82 510q0 -236 120 -383t312 -147q146 -3 333 122q11 -38 19 -53l21 -49h180l-53 115q-11 27 -21 68t-10 61l2 696l2 82h-166l-1 -57q-153 79 -306 79q-192 -2 -312 -148t-120 -386zM246 510q0 194 66 282.5t202 88.5q95 -1 178.5 -34.5t126.5 -68.5v-266v-229 q-178 -140 -305 -140q-134 -2 -201 87t-67 280zM400 1314q0 -78 46.5 -126t127.5 -48q82 -1 128.5 47.5t46.5 126.5q2 75 -46.5 125t-128.5 50q-79 -1 -126.5 -49.5t-47.5 -125.5zM503 1314q0 46 12 59t59 13q49 -1 60.5 -13.5t11.5 -58.5q2 -47 -10.5 -59t-61.5 -12 q-45 -1 -58 12t-13 59z" />
<glyph unicode="&#xe6;" horiz-adv-x="1761" d="M123 193l22 -23q68 -74 171 -132t216 -58q106 1 198.5 47t150.5 141q58 -96 149.5 -141.5t198.5 -46.5q112 0 191 22t171 66l-69 147q-86 -40 -144.5 -56t-148.5 -16q-59 1 -101.5 13.5t-78.5 43t-56.5 88t-27.5 142.5h591h82v82v287v32l-22 23q-68 74 -171 132t-216 58 q-106 -1 -197.5 -46.5t-150.5 -141.5q-59 95 -151 141t-198 47q-77 0 -147 -14.5t-109.5 -30t-105.5 -45.5l70 -147q85 41 143.5 57.5t148.5 16.5q59 -1 101.5 -13.5t78.5 -43t56.5 -88t27.5 -142.5h-591h-82v-82v-287v-32zM287 258v172h509q-6 -86 -26.5 -143.5t-56 -88 t-78.5 -42.5t-103 -13q-74 0 -139 36t-106 79zM966 594q7 85 27.5 142t56 88t78 43.5t101.5 13.5q74 0 139.5 -36t106.5 -79v-172h-509z" />
<glyph unicode="&#xe7;" horiz-adv-x="923" d="M82 514q1 -210 88.5 -347.5t234.5 -174.5l-57 -158q62 4 118.5 -10t61.5 -35q5 -23 -12.5 -41t-58.5 -18l-142 -2l-2 -121h144q82 -2 149.5 42t67.5 109q2 46 -31 80t-72 47t-73 13l27 82q114 2 209.5 47t158.5 100l-107 123q-125 -107 -276 -107q-134 -2 -199 85.5 t-65 285.5q1 197 65 282t199 85q161 -2 274 -107l111 119q-63 59 -165 105t-220 46q-190 -2 -309 -143.5t-119 -386.5z" />
<glyph unicode="&#xe8;" d="M82 512q1 -239 120 -385.5t310 -146.5q226 -3 426 102l-74 143q-161 -82 -352 -82q-118 -2 -184 68t-79 219h611h82v82v305v37l-27 25q-74 65 -180.5 115t-222.5 50q-190 -2 -310 -148t-120 -384zM250 594q14 148 79 217.5t183 69.5q83 -1 155 -33.5t111 -67.5v-186h-528 zM375 1437l41 -88l82 -174l16 -35h135l-41 88l-82 174l-16 35h-135z" />
<glyph unicode="&#xe9;" d="M82 512q1 -239 120 -385.5t310 -146.5q226 -3 426 102l-74 143q-161 -82 -352 -82q-118 -2 -184 68t-79 219h611h82v82v305v37l-27 25q-74 65 -180.5 115t-222.5 50q-190 -2 -310 -148t-120 -384zM250 594q14 148 79 217.5t183 69.5q83 -1 155 -33.5t111 -67.5v-186h-528 zM375 1140h135l16 35l82 174l41 88h-135l-16 -35l-82 -174z" />
<glyph unicode="&#xea;" d="M82 512q1 -239 120 -385.5t310 -146.5q226 -3 426 102l-74 143q-161 -82 -352 -82q-118 -2 -184 68t-79 219h611h82v82v305v37l-27 25q-74 65 -180.5 115t-222.5 50q-190 -2 -310 -148t-120 -384zM211 1171h182l17 16l92 84l92 -84l16 -16h183l-117 107l-133 122l-41 39 l-41 -39l-133 -122zM250 594q14 148 79 217.5t183 69.5q83 -1 155 -33.5t111 -67.5v-186h-528z" />
<glyph unicode="&#xeb;" d="M82 512q1 -239 120 -385.5t310 -146.5q226 -3 426 102l-74 143q-161 -82 -352 -82q-118 -2 -184 68t-79 219h611h82v82v305v37l-27 25q-74 65 -180.5 115t-222.5 50q-190 -2 -310 -148t-120 -384zM250 594q14 148 79 217.5t183 69.5q83 -1 155 -33.5t111 -67.5v-186h-528 zM287 1140h164v82v2v82h-164v-82v-2v-82zM573 1140h164v82v2v82h-164v-82v-2v-82z" />
<glyph unicode="&#xec;" horiz-adv-x="393" d="M59 1453l41 -88l82 -174l17 -35h135l-41 88l-82 174l-16 35h-136zM125 0h143v72v917v72h-143v-72v-917v-72z" />
<glyph unicode="&#xed;" horiz-adv-x="393" d="M59 1156h136l16 35l82 174l41 88h-135l-17 -35l-82 -174zM125 0h143v72v917v72h-143v-72v-917v-72z" />
<glyph unicode="&#xee;" horiz-adv-x="393" d="M-104 1187h182l16 16l92 84l93 -84l16 -16h182l-117 107l-133 122l-41 39l-41 -39l-133 -122zM125 0h143v72v917v72h-143v-72v-917v-72z" />
<glyph unicode="&#xef;" horiz-adv-x="393" d="M-29 1156h164v82v2v82h-164v-82v-2v-82zM125 0h143v72v917v72h-143v-72v-917v-72zM258 1156h164v82v2v82h-164v-82v-2v-82z" />
<glyph unicode="&#xf0;" d="M82 471q1 -221 126.5 -356t323.5 -135q179 -1 301 110.5t145 298.5h5v82q1 455 -205 695l107 48l57 25l-51 113l-55 -27l-151 -68q-28 24 -59.5 45.5t-65 43.5t-48.5 32l-68 47l-94 -135l68 -47q15 -11 47 -32.5t48 -32.5l-128 -58l-57 -24l51 -113l55 27l184 83 q80 -78 125 -180q-97 50 -211 50q-197 -2 -323.5 -137.5t-126.5 -354.5zM246 471q1 170 71 249t215 79q148 -2 217.5 -80t69.5 -248v-14q-1 -163 -72.5 -238.5t-214.5 -75.5q-144 -2 -215 78t-71 250z" />
<glyph unicode="&#xf1;" d="M123 0h164v82v422v82v188q159 107 286 107q78 -1 121.5 -28t63.5 -90t20 -177l2 -506l2 -82l162 4l-2 80v504q2 211 -97.5 334.5t-271.5 123.5q-126 -1 -286 -82v62h-164v-82v-78v-278v-82v-422v-82zM257 1200h123q0 66 57 66q23 -1 35.5 -9.5t36.5 -33.5q70 -84 162 -84 q70 -1 125 58.5t55 129.5h-123q0 -65 -57 -65h-2q-20 -1 -32.5 7.5t-35.5 35.5h-2q-18 20 -26.5 27.5t-30.5 24.5t-48 24.5t-57 7.5q-68 -2 -124 -60.5t-56 -128.5z" />
<glyph unicode="&#xf2;" horiz-adv-x="1105" d="M82 512q0 -240 131 -386t340 -146q138 -1 245 65t166.5 187.5t59.5 279.5q1 237 -131.5 384.5t-339.5 147.5q-207 -2 -339 -147.5t-132 -384.5zM246 512q0 190 76.5 279.5t230.5 89.5q156 -2 231.5 -90.5t75.5 -278.5q1 -191 -75 -280t-232 -89q-154 -2 -230.5 88.5 t-76.5 280.5zM416 1437l41 -88l82 -174l16 -35h135l-41 88l-82 174l-16 35h-135z" />
<glyph unicode="&#xf3;" horiz-adv-x="1105" d="M82 512q0 -240 131 -386t340 -146q138 -1 245 65t166.5 187.5t59.5 279.5q1 237 -131.5 384.5t-339.5 147.5q-207 -2 -339 -147.5t-132 -384.5zM246 512q0 190 76.5 279.5t230.5 89.5q156 -2 231.5 -90.5t75.5 -278.5q1 -191 -75 -280t-232 -89q-154 -2 -230.5 88.5 t-76.5 280.5zM416 1140h135l16 35l82 174l41 88h-135l-16 -35l-82 -174z" />
<glyph unicode="&#xf4;" horiz-adv-x="1105" d="M82 512q0 -240 131 -386t340 -146q138 -1 245 65t166.5 187.5t59.5 279.5q1 237 -131.5 384.5t-339.5 147.5q-207 -2 -339 -147.5t-132 -384.5zM246 512q0 190 76.5 279.5t230.5 89.5q156 -2 231.5 -90.5t75.5 -278.5q1 -191 -75 -280t-232 -89q-154 -2 -230.5 88.5 t-76.5 280.5zM252 1171h182l17 16l92 84l92 -84l16 -16h183l-117 107l-133 122l-41 39l-41 -39l-133 -122z" />
<glyph unicode="&#xf5;" horiz-adv-x="1105" d="M82 512q0 -240 131 -386t340 -146q138 -1 245 65t166.5 187.5t59.5 279.5q1 237 -131.5 384.5t-339.5 147.5q-207 -2 -339 -147.5t-132 -384.5zM246 512q0 190 76.5 279.5t230.5 89.5q156 -2 231.5 -90.5t75.5 -278.5q1 -191 -75 -280t-232 -89q-154 -2 -230.5 88.5 t-76.5 280.5zM256 1202h123q0 65 57 65q23 -1 35.5 -9.5t36.5 -33.5q70 -84 162 -84q70 -1 125 59t55 130h-123q0 -66 -57 -66h-2q-20 -1 -32.5 7.5t-35.5 35.5h-2q-18 20 -26.5 27.5t-30.5 24.5t-48 24.5t-57 7.5q-68 -2 -124 -60t-56 -128z" />
<glyph unicode="&#xf6;" horiz-adv-x="1105" d="M82 512q0 -240 131 -386t340 -146q138 -1 245 65t166.5 187.5t59.5 279.5q1 237 -131.5 384.5t-339.5 147.5q-207 -2 -339 -147.5t-132 -384.5zM246 512q0 190 76.5 279.5t230.5 89.5q156 -2 231.5 -90.5t75.5 -278.5q1 -191 -75 -280t-232 -89q-154 -2 -230.5 88.5 t-76.5 280.5zM328 1140h164v82v2v82h-164v-82v-2v-82zM614 1140h164v82v2v82h-164v-82v-2v-82z" />
<glyph unicode="&#xf8;" horiz-adv-x="1105" d="M63 78l105 -96l49 53l42 46q121 -101 294 -101q138 -1 245 65t166.5 187.5t59.5 279.5q1 186 -84 322l55 61l47 51l-104 96l-49 -53l-43 -47q-122 102 -293 102q-207 -2 -339 -147.5t-132 -384.5q0 -186 84 -322l-55 -61zM246 512q0 190 76.5 279.5t230.5 89.5 q119 -2 190 -53l-467 -516q-30 80 -30 200zM362 195l468 517q30 -80 30 -200q1 -191 -75 -280t-232 -89q-118 -1 -191 52z" />
<glyph unicode="&#xf9;" d="M123 389q2 -179 112.5 -294t299.5 -115q114 -1 219 38t161 93l27 24v254v553v82h-164v-82v-553v-184q-23 -20 -90.5 -41t-152.5 -21q-134 -1 -191 57.5t-57 188.5l2 551l2 82l-166 2l-2 -82v-553zM395 1415l41 -88l82 -174l17 -35h135l-41 88l-82 174l-17 35h-135z" />
<glyph unicode="&#xfa;" d="M123 389q2 -179 112.5 -294t299.5 -115q114 -1 219 38t161 93l27 24v254v553v82h-164v-82v-553v-184q-23 -20 -90.5 -41t-152.5 -21q-134 -1 -191 57.5t-57 188.5l2 551l2 82l-166 2l-2 -82v-553zM395 1118h135l17 35l82 174l41 88h-135l-17 -35l-82 -174z" />
<glyph unicode="&#xfb;" d="M123 389q2 -179 112.5 -294t299.5 -115q114 -1 219 38t161 93l27 24v254v553v82h-164v-82v-553v-184q-23 -20 -90.5 -41t-152.5 -21q-134 -1 -191 57.5t-57 188.5l2 551l2 82l-166 2l-2 -82v-553zM231 1149h183l16 16l92 84l92 -84l17 -16h182l-117 106l-133 123l-41 39 l-41 -39l-133 -123z" />
<glyph unicode="&#xfc;" d="M123 389q2 -179 112.5 -294t299.5 -115q114 -1 219 38t161 93l27 24v254v553v82h-164v-82v-553v-184q-23 -20 -90.5 -41t-152.5 -21q-134 -1 -191 57.5t-57 188.5l2 551l2 82l-166 2l-2 -82v-553zM307 1118h164v82v2v82h-164v-82v-2v-82zM594 1118h164v82v2v82h-164v-82 v-2v-82z" />
<glyph unicode="&#xfd;" horiz-adv-x="901" d="M14 1024l31 -104l252 -859l12 -47l49 -10l23 -5q-48 -144 -96 -205t-115 -87l-53 -20v-174l110 43q222 84 332 467l4 12l293 880l35 109h-172l-19 -55l-265 -798l-234 794l-17 59h-170zM315 1160h136l16 35l82 174l41 88h-135l-17 -35l-82 -174z" />
<glyph unicode="&#xfe;" horiz-adv-x="1085" d="M123 213v-582v-82h164v82v440q75 -44 158 -67.5t153 -23.5q181 -1 293.5 147t112.5 385q1 236 -112.5 384t-293.5 148q-111 -1 -311 -118v465v82h-164v-82v-564v-583v-31zM287 274v459q6 3 50 31t84.5 51.5t92 44.5t84.5 21q122 -2 182 -89.5t60 -279.5q1 -193 -59 -281 t-183 -88q-82 -2 -171 34.5t-140 96.5z" />
<glyph unicode="&#xff;" horiz-adv-x="901" d="M14 1024l31 -104l252 -859l12 -47l49 -10l23 -5q-48 -144 -96 -205t-115 -87l-53 -20v-174l110 43q222 84 332 467l4 12l293 880l35 109h-172l-19 -55l-265 -798l-234 794l-17 59h-170zM227 1160h164v82v2v82h-164v-82v-2v-82zM514 1160h164v82v2v82h-164v-82v-2v-82z " />
<glyph unicode="&#x100;" horiz-adv-x="1187" d="M6 0h174l21 53l88 242h30h545h35l88 -242l21 -53h174l-39 111l-434 1187l-21 54h-57h-37h-37h-57l-21 -54l-434 -1187zM349 459l245 673l245 -673h-490zM379 1473h61h308h61v123h-61h-308h-61v-123z" />
<glyph unicode="&#x101;" horiz-adv-x="1105" d="M82 510q0 -236 120 -383t312 -147q146 -3 333 122q11 -38 19 -53l21 -49h180l-53 115q-11 27 -21 68t-10 61l2 696l2 82h-166l-1 -57q-153 79 -306 79q-192 -2 -312 -148t-120 -386zM246 510q0 194 66 282.5t202 88.5q95 -1 178.5 -34.5t126.5 -68.5v-266v-229 q-178 -140 -305 -140q-134 -2 -201 87t-67 280zM359 1140h62h307h62v123h-62h-307h-62v-123z" />
<glyph unicode="&#x102;" horiz-adv-x="1187" d="M6 0h174l21 53l88 242h30h545h35l88 -242l21 -53h174l-39 111l-434 1187l-21 54h-57h-37h-37h-57l-21 -54l-434 -1187zM349 459l245 673l245 -673h-490zM369 1668q0 -76 69.5 -135.5t155.5 -59.5q87 -1 156 58.5t69 136.5h-123q0 -72 -102 -72q-50 -1 -76 18t-26 54h-123 z" />
<glyph unicode="&#x103;" horiz-adv-x="1105" d="M82 510q0 -236 120 -383t312 -147q146 -3 333 122q11 -38 19 -53l21 -49h180l-53 115q-11 27 -21 68t-10 61l2 696l2 82h-166l-1 -57q-153 79 -306 79q-192 -2 -312 -148t-120 -386zM246 510q0 194 66 282.5t202 88.5q95 -1 178.5 -34.5t126.5 -68.5v-266v-229 q-178 -140 -305 -140q-134 -2 -201 87t-67 280zM349 1335q0 -76 69.5 -135.5t155.5 -59.5q88 -1 157 58.5t69 136.5h-123q0 -72 -103 -72q-50 -1 -76 18t-26 54h-123z" />
<glyph unicode="&#x104;" horiz-adv-x="1187" d="M6 0h174l21 53l88 242h30h545h35l88 -242l21 -53h31l-36 -27q-6 -4 -15 -11.5t-32.5 -31.5t-41.5 -48t-33 -58t-15 -66q1 -59 44.5 -110t114 -65t160.5 39l51 31l-63 105l-54 -33q-40 -25 -69 -17t-44.5 33t-15.5 55q0 53 151 204h41l-39 111l-434 1187l-21 54h-57h-37 h-37h-57l-21 -54l-434 -1187zM349 459l245 673l245 -673h-490z" />
<glyph unicode="&#x105;" horiz-adv-x="1105" d="M82 510q0 -236 120 -383t312 -147q146 -3 333 122q11 -38 19 -53l20 -47h-3l-49 -37q-6 -4 -15 -11.5t-33 -31.5t-42 -48t-33 -58t-15 -66q1 -59 44.5 -110t114.5 -64.5t161 39.5l51 31l-63 104l-54 -33q-40 -25 -69 -16.5t-44.5 33.5t-15.5 55q0 25 38 76.5t76 90.5 l38 38l-68 6h162l-53 115q-11 27 -21 68t-10 61l2 696l2 82h-166l-1 -57q-153 79 -306 79q-192 -2 -312 -148t-120 -386zM246 510q0 194 66 282.5t202 88.5q95 -1 178.5 -34.5t126.5 -68.5v-266v-229q-178 -140 -305 -140q-134 -2 -201 87t-67 280z" />
<glyph unicode="&#x106;" horiz-adv-x="1169" d="M82 676q1 -328 148 -512t397 -184q150 -1 285 47.5t221 107.5l-91 135q-194 -127 -415 -127q-191 -2 -286 126t-95 407q1 280 95 406t286 126q123 -1 228 -50t175 -114l111 123q-52 46 -121 88.5t-178 79.5t-215 37q-248 -2 -396.5 -186.5t-148.5 -509.5zM474 1498h135 l17 34l82 174l41 88h-136l-16 -34l-82 -174z" />
<glyph unicode="&#x107;" horiz-adv-x="923" d="M82 514q1 -247 119.5 -390.5t308.5 -143.5q118 -1 218 45t165 102l-107 123q-125 -107 -276 -107q-134 -2 -199 85.5t-65 285.5q1 197 65 282t199 85q161 -2 274 -107l111 119q-63 59 -165 105t-220 46q-190 -2 -309 -143.5t-119 -386.5zM351 1140h135l17 35l82 174 l41 88h-136l-16 -35l-82 -174z" />
<glyph unicode="&#x108;" horiz-adv-x="1169" d="M82 676q1 -328 148 -512t397 -184q150 -1 285 47.5t221 107.5l-91 135q-194 -127 -415 -127q-191 -2 -286 126t-95 407q1 280 95 406t286 126q123 -1 228 -50t175 -114l111 123q-52 46 -121 88.5t-178 79.5t-215 37q-248 -2 -396.5 -186.5t-148.5 -509.5zM310 1528h183 l16 17l92 84l92 -84l17 -17h182l-117 107l-133 123l-41 39l-41 -39l-133 -123z" />
<glyph unicode="&#x109;" horiz-adv-x="923" d="M82 514q1 -247 119.5 -390.5t308.5 -143.5q118 -1 218 45t165 102l-107 123q-125 -107 -276 -107q-134 -2 -199 85.5t-65 285.5q1 197 65 282t199 85q161 -2 274 -107l111 119q-63 59 -165 105t-220 46q-190 -2 -309 -143.5t-119 -386.5zM187 1171h183l16 16l92 84 l92 -84l17 -16h182l-117 107l-133 122l-41 39l-41 -39l-133 -122z" />
<glyph unicode="&#x10a;" horiz-adv-x="1169" d="M82 676q1 -328 148 -512t397 -184q150 -1 285 47.5t221 107.5l-91 135q-194 -127 -415 -127q-191 -2 -286 126t-95 407q1 280 95 406t286 126q123 -1 228 -50t175 -114l111 123q-52 46 -121 88.5t-178 79.5t-215 37q-248 -2 -396.5 -186.5t-148.5 -509.5zM529 1498h164 v81v2v82h-164v-82v-2v-81z" />
<glyph unicode="&#x10b;" horiz-adv-x="923" d="M82 514q1 -247 119.5 -390.5t308.5 -143.5q118 -1 218 45t165 102l-107 123q-125 -107 -276 -107q-134 -2 -199 85.5t-65 285.5q1 197 65 282t199 85q161 -2 274 -107l111 119q-63 59 -165 105t-220 46q-190 -2 -309 -143.5t-119 -386.5zM407 1140h163v82v2v82h-163v-82 v-2v-82z" />
<glyph unicode="&#x10c;" horiz-adv-x="1169" d="M82 676q1 -328 148 -512t397 -184q150 -1 285 47.5t221 107.5l-91 135q-194 -127 -415 -127q-191 -2 -286 126t-95 407q1 280 95 406t286 126q123 -1 228 -50t175 -114l111 123q-52 46 -121 88.5t-178 79.5t-215 37q-248 -2 -396.5 -186.5t-148.5 -509.5zM310 1774 l117 -107l133 -122l41 -39l41 39l133 122l117 107h-182l-17 -16l-92 -84l-92 84l-16 16h-183z" />
<glyph unicode="&#x10d;" horiz-adv-x="923" d="M82 514q1 -247 119.5 -390.5t308.5 -143.5q118 -1 218 45t165 102l-107 123q-125 -107 -276 -107q-134 -2 -199 85.5t-65 285.5q1 197 65 282t199 85q161 -2 274 -107l111 119q-63 59 -165 105t-220 46q-190 -2 -309 -143.5t-119 -386.5zM187 1417l117 -107l133 -123 l41 -38l41 38l133 123l117 107h-182l-17 -17l-92 -84l-92 84l-16 17h-183z" />
<glyph unicode="&#x10e;" horiz-adv-x="1298" d="M164 0h82h446q256 -2 390.5 162t134.5 514q3 676 -523 676l-446 -2h-82v-82l-2 -1186v-82zM328 164v1024h366q81 -1 137.5 -15t101 -47.5t69.5 -92t38 -146t13 -211.5q1 -156 -18 -255t-64.5 -156.5t-110.5 -79t-168 -21.5h-364zM389 1750l117 -107l133 -123l41 -38 l41 38l133 123l117 107h-183l-16 -17l-92 -84l-92 84l-17 17h-182z" />
<glyph unicode="&#x10f;" horiz-adv-x="1226" d="M82 512q0 -237 117 -384.5t305 -147.5q133 -1 295 101v-81h164v82v121v309v307v39v494v82h-164v-82v-384q-148 76 -295 76q-187 -2 -304.5 -148.5t-117.5 -383.5zM246 512q0 192 63.5 280.5t194.5 88.5q92 -1 170.5 -33.5t124.5 -67.5v-268v-231q-173 -138 -295 -138 q-129 -2 -193.5 87.5t-64.5 281.5zM1067 1040l129 -63l31 63q23 46 34.5 103t13 98t1.5 121v72h-143v-72q0 -77 -1 -111t-8.5 -73.5t-23.5 -71.5z" />
<glyph unicode="&#x110;" horiz-adv-x="1298" d="M-25 604h72h118l-1 -522v-82h82h446q256 -2 390.5 162t134.5 514q3 676 -523 676l-446 -2h-82v-82q0 -86 -0.5 -260t-0.5 -260h-118h-72v-144zM328 164v440h169h72v144h-72h-169v440h366q81 -1 137.5 -15t101 -47.5t69.5 -92t38 -146t13 -211.5q1 -156 -18 -255 t-64.5 -156.5t-110.5 -79t-168 -21.5h-364z" />
<glyph unicode="&#x111;" horiz-adv-x="1126" d="M82 512q0 -237 117 -384.5t305 -147.5q133 -1 295 101v-81h164v82v121v309v307v39v277h41h71v143h-71h-41v74v82h-164v-82v-74h-246h-72v-143h72h246v-167q-148 76 -295 76q-187 -2 -304.5 -148.5t-117.5 -383.5zM246 512q0 192 63.5 280.5t194.5 88.5q92 -1 170.5 -33.5 t124.5 -67.5v-268v-231q-173 -138 -295 -138q-129 -2 -193.5 87.5t-64.5 281.5z" />
<glyph unicode="&#x112;" horiz-adv-x="1189" d="M164 0h82h780h82v164h-82h-698v430h514h82v164h-82h-514v430h698h82v164h-82h-780h-82v-82v-512v-164v-512v-82zM421 1473h61h308h61v123h-61h-308h-61v-123z" />
<glyph unicode="&#x113;" d="M82 512q1 -239 120 -385.5t310 -146.5q226 -3 426 102l-74 143q-161 -82 -352 -82q-118 -2 -184 68t-79 219h611h82v82v305v37l-27 25q-74 65 -180.5 115t-222.5 50q-190 -2 -310 -148t-120 -384zM250 594q14 148 79 217.5t183 69.5q83 -1 155 -33.5t111 -67.5v-186h-528 zM297 1140h61h308h61v123h-61h-308h-61v-123z" />
<glyph unicode="&#x114;" horiz-adv-x="1189" d="M164 0h82h780h82v164h-82h-698v430h514h82v164h-82h-514v430h698h82v164h-82h-780h-82v-82v-512v-164v-512v-82zM411 1668q0 -76 69.5 -135.5t155.5 -59.5q87 -1 156 58.5t69 136.5h-123q0 -72 -102 -72q-50 -1 -76 18t-26 54h-123z" />
<glyph unicode="&#x115;" d="M82 512q1 -239 120 -385.5t310 -146.5q226 -3 426 102l-74 143q-161 -82 -352 -82q-118 -2 -184 68t-79 219h611h82v82v305v37l-27 25q-74 65 -180.5 115t-222.5 50q-190 -2 -310 -148t-120 -384zM250 594q14 148 79 217.5t183 69.5q83 -1 155 -33.5t111 -67.5v-186h-528 zM287 1335q0 -76 69.5 -135.5t155.5 -59.5q87 -1 156 58.5t69 136.5h-123q0 -72 -102 -72q-50 -1 -76 18t-26 54h-123z" />
<glyph unicode="&#x116;" horiz-adv-x="1189" d="M164 0h82h780h82v164h-82h-698v430h514h82v164h-82h-514v430h698h82v164h-82h-780h-82v-82v-512v-164v-512v-82zM554 1473h164v82v2v82h-164v-82v-2v-82z" />
<glyph unicode="&#x117;" d="M82 512q1 -239 120 -385.5t310 -146.5q226 -3 426 102l-74 143q-161 -82 -352 -82q-118 -2 -184 68t-79 219h611h82v82v305v37l-27 25q-74 65 -180.5 115t-222.5 50q-190 -2 -310 -148t-120 -384zM250 594q14 148 79 217.5t183 69.5q83 -1 155 -33.5t111 -67.5v-186h-528 zM430 1140h164v82v2v82h-164v-82v-2v-82z" />
<glyph unicode="&#x118;" horiz-adv-x="1189" d="M164 0h82h612q-43 -36 -82 -89.5t-39 -111.5q1 -59 44.5 -110t114.5 -65t161 39l51 31l-64 105l-53 -33q-40 -25 -69 -17t-44.5 33t-15.5 55q0 45 111 163h53h82v164h-82h-698v430h514h82v164h-82h-514v430h698h82v164h-82h-780h-82v-82v-512v-164v-512v-82z" />
<glyph unicode="&#x119;" d="M82 512q1 -230 111.5 -375.5t290.5 -156.5l-20 -15q-6 -4 -15 -11.5t-32.5 -31.5t-41.5 -48t-33 -58t-15 -66q1 -59 44.5 -110t114 -64.5t160.5 39.5l51 31l-63 104l-53 -33q-40 -25 -69 -16.5t-44.5 33.5t-15.5 55q0 31 46.5 89t92.5 104q182 13 347 100l-74 143 q-161 -82 -352 -82q-118 -2 -184 68t-79 219h611h82v82v305v37l-27 25q-74 65 -180.5 115t-222.5 50q-190 -2 -310 -148t-120 -384zM250 594q14 148 79 217.5t183 69.5q83 -1 155 -33.5t111 -67.5v-186h-528z" />
<glyph unicode="&#x11a;" horiz-adv-x="1189" d="M164 0h82h780h82v164h-82h-698v430h514h82v164h-82h-514v430h698h82v164h-82h-780h-82v-82v-512v-164v-512v-82zM335 1750l117 -107l133 -123l41 -38l41 38l133 123l116 107h-182l-16 -17l-92 -84l-92 84l-17 17h-182z" />
<glyph unicode="&#x11b;" d="M82 512q1 -239 120 -385.5t310 -146.5q226 -3 426 102l-74 143q-161 -82 -352 -82q-118 -2 -184 68t-79 219h611h82v82v305v37l-27 25q-74 65 -180.5 115t-222.5 50q-190 -2 -310 -148t-120 -384zM211 1417l117 -107l133 -123l41 -38l41 38l133 123l117 107h-183l-16 -17 l-92 -84l-92 84l-17 17h-182zM250 594q14 148 79 217.5t183 69.5q83 -1 155 -33.5t111 -67.5v-186h-528z" />
<glyph unicode="&#x11c;" horiz-adv-x="1366" d="M82 676q1 -328 158 -512t424 -184q304 -3 542 157l37 25v514v82h-82h-495v-164h413v-346q-70 -46 -177 -75.5t-238 -29.5q-211 -2 -314.5 125.5t-103.5 407.5q1 279 103.5 405.5t314.5 126.5q134 -1 248 -50.5t198 -115.5l102 127q-57 46 -130.5 88t-189.5 78.5 t-228 36.5q-266 -2 -424 -185.5t-158 -510.5zM361 1528h183l16 17l92 84l92 -84l17 -17h182l-117 107l-133 123l-41 39l-41 -39l-133 -123z" />
<glyph unicode="&#x11d;" horiz-adv-x="1038" d="M82 -123q0 -47 13 -87.5t45.5 -78t83.5 -64t132 -42t185 -15.5q131 -1 264.5 39.5t181.5 83.5l27 25v221v35l-25 22q-46 48 -175.5 98t-272.5 50q-73 0 -117 -5v5h-82q-28 0 -34.5 8.5t-6.5 42.5q2 33 9 43t32 10h82v1q11 -1 35 -1q81 -1 186 39t174 88l35 25v217v151 q10 12 26.5 33.5t24 30t10.5 8.5h82v164h-82q-71 0 -155 -92q-70 48 -152 80t-149 32q-169 -2 -273 -111t-104 -296q0 -179 110 -278q-55 -66 -55 -142v-2q2 -71 48 -133q-103 -74 -103 -205zM246 -123q0 53 16.5 76.5t79 35.5t199.5 11q77 0 153 -18t112.5 -34.5 t43.5 -23.5v-112q-5 -5 -45.5 -18t-116.5 -26.5t-147 -13.5q-137 -1 -199.5 11t-79 35.5t-16.5 76.5zM246 637q0 137 47.5 190.5t165.5 53.5q58 -1 127.5 -33t103.5 -66v-145v-131q-32 -22 -104 -48t-127 -26q-122 -2 -167.5 41t-45.5 164zM247 1206h182l16 16l93 84l92 -84 l16 -16h182l-116 107l-133 122l-41 39l-41 -39l-133 -122z" />
<glyph unicode="&#x11e;" horiz-adv-x="1366" d="M82 676q1 -328 158 -512t424 -184q304 -3 542 157l37 25v514v82h-82h-495v-164h413v-346q-70 -46 -177 -75.5t-238 -29.5q-211 -2 -314.5 125.5t-103.5 407.5q1 279 103.5 405.5t314.5 126.5q134 -1 248 -50.5t198 -115.5l102 127q-57 46 -130.5 88t-189.5 78.5 t-228 36.5q-266 -2 -424 -185.5t-158 -510.5zM437 1692q0 -76 70 -135t156 -59q88 -1 156.5 58t68.5 136h-123q0 -72 -102 -72q-50 -1 -76.5 18t-26.5 54h-123z" />
<glyph unicode="&#x11f;" horiz-adv-x="1038" d="M82 -123q0 -47 13 -87.5t45.5 -78t83.5 -64t132 -42t185 -15.5q131 -1 264.5 39.5t181.5 83.5l27 25v221v35l-25 22q-46 48 -175.5 98t-272.5 50q-73 0 -117 -5v5h-82q-28 0 -34.5 8.5t-6.5 42.5q2 33 9 43t32 10h82v1q11 -1 35 -1q81 -1 186 39t174 88l35 25v217v151 q10 12 26.5 33.5t24 30t10.5 8.5h82v164h-82q-71 0 -155 -92q-70 48 -152 80t-149 32q-169 -2 -273 -111t-104 -296q0 -179 110 -278q-55 -66 -55 -142v-2q2 -71 48 -133q-103 -74 -103 -205zM246 -123q0 53 16.5 76.5t79 35.5t199.5 11q77 0 153 -18t112.5 -34.5 t43.5 -23.5v-112q-5 -5 -45.5 -18t-116.5 -26.5t-147 -13.5q-137 -1 -199.5 11t-79 35.5t-16.5 76.5zM246 637q0 137 47.5 190.5t165.5 53.5q58 -1 127.5 -33t103.5 -66v-145v-131q-32 -22 -104 -48t-127 -26q-122 -2 -167.5 41t-45.5 164zM323 1370q0 -76 69.5 -135.5 t155.5 -59.5q87 -1 156 58.5t69 136.5h-123q0 -72 -102 -72q-50 -1 -76.5 18t-26.5 54h-122z" />
<glyph unicode="&#x120;" horiz-adv-x="1366" d="M82 676q1 -328 158 -512t424 -184q304 -3 542 157l37 25v514v82h-82h-495v-164h413v-346q-70 -46 -177 -75.5t-238 -29.5q-211 -2 -314.5 125.5t-103.5 407.5q1 279 103.5 405.5t314.5 126.5q134 -1 248 -50.5t198 -115.5l102 127q-57 46 -130.5 88t-189.5 78.5 t-228 36.5q-266 -2 -424 -185.5t-158 -510.5zM581 1498h163v81v2v82h-163v-82v-2v-81z" />
<glyph unicode="&#x121;" horiz-adv-x="1038" d="M82 -123q0 -47 13 -87.5t45.5 -78t83.5 -64t132 -42t185 -15.5q131 -1 264.5 39.5t181.5 83.5l27 25v221v35l-25 22q-46 48 -175.5 98t-272.5 50q-73 0 -117 -5v5h-82q-28 0 -34.5 8.5t-6.5 42.5q2 33 9 43t32 10h82v1q11 -1 35 -1q81 -1 186 39t174 88l35 25v217v151 q10 12 26.5 33.5t24 30t10.5 8.5h82v164h-82q-71 0 -155 -92q-70 48 -152 80t-149 32q-169 -2 -273 -111t-104 -296q0 -179 110 -278q-55 -66 -55 -142v-2q2 -71 48 -133q-103 -74 -103 -205zM246 -123q0 53 16.5 76.5t79 35.5t199.5 11q77 0 153 -18t112.5 -34.5 t43.5 -23.5v-112q-5 -5 -45.5 -18t-116.5 -26.5t-147 -13.5q-137 -1 -199.5 11t-79 35.5t-16.5 76.5zM246 637q0 137 47.5 190.5t165.5 53.5q58 -1 127.5 -33t103.5 -66v-145v-131q-32 -22 -104 -48t-127 -26q-122 -2 -167.5 41t-45.5 164zM466 1175h164v82v2v82h-164v-82 v-2v-82z" />
<glyph unicode="&#x122;" horiz-adv-x="1366" d="M82 676q1 -300 133.5 -480.5t361.5 -210.5l-55 -151q62 4 118.5 -10t61.5 -35q5 -23 -12.5 -41t-58.5 -18l-142 -2l-2 -121h144q82 -2 149.5 42t67.5 109q2 46 -31 80t-72 47t-73 13l27 82q283 7 507 157l37 25v514v82h-82h-495v-164h413v-346q-70 -46 -177 -75.5 t-238 -29.5q-211 -2 -314.5 125.5t-103.5 407.5q1 279 103.5 405.5t314.5 126.5q134 -1 248 -50.5t198 -115.5l102 127q-57 46 -130.5 88t-189.5 78.5t-228 36.5q-266 -2 -424 -185.5t-158 -510.5z" />
<glyph unicode="&#x123;" horiz-adv-x="1038" d="M82 -123q0 -47 13 -87.5t45.5 -78t83.5 -64t132 -42t185 -15.5q131 -1 264.5 39.5t181.5 83.5l27 25v221v35l-25 22q-46 48 -175.5 98t-272.5 50q-73 0 -117 -5v5h-82q-28 0 -34.5 8.5t-6.5 42.5q2 33 9 43t32 10h82v1q11 -1 35 -1q81 -1 186 39t174 88l35 25v217v151 q10 12 26.5 33.5t24 30t10.5 8.5h82v164h-82q-71 0 -155 -92q-70 48 -152 80t-149 32q-169 -2 -273 -111t-104 -296q0 -179 110 -278q-55 -66 -55 -142v-2q2 -71 48 -133q-103 -74 -103 -205zM246 -123q0 53 16.5 76.5t79 35.5t199.5 11q77 0 153 -18t112.5 -34.5 t43.5 -23.5v-112q-5 -5 -45.5 -18t-116.5 -26.5t-147 -13.5q-137 -1 -199.5 11t-79 35.5t-16.5 76.5zM246 637q0 137 47.5 190.5t165.5 53.5q58 -1 127.5 -33t103.5 -66v-145v-131q-32 -22 -104 -48t-127 -26q-122 -2 -167.5 41t-45.5 164z" />
<glyph unicode="&#x124;" horiz-adv-x="1308" d="M164 0h164v82v512h653v-512v-82h164v82v512v164v512v82h-164v-82v-512h-653v512v82h-164v-82v-512v-164v-512v-82zM353 1504h183l16 16l92 84l92 -84l17 -16h182l-117 107l-133 122l-41 39l-41 -39l-133 -122z" />
<glyph unicode="&#x125;" d="M123 0h164v82v420v82v190q166 107 284 107q117 -2 162 -65t45 -230l2 -506l2 -82l162 4l-2 80v504q2 208 -97 333t-274 125q-124 -1 -284 -82v390v82h-164v-82v-488v-280v-82v-420v-82zM232 1594h183l16 16l92 84l92 -84l17 -16h182l-117 106l-133 123l-41 39l-41 -39 l-133 -123z" />
<glyph unicode="&#x126;" horiz-adv-x="1308" d="M41 952h123v-194v-164v-512v-82h164v82v512h653v-512v-82h164v82v512v164v194h123v144h-123v174v82h-164v-82v-174h-653v174v82h-164v-82v-174h-123v-144zM328 758v194h653v-194h-653z" />
<glyph unicode="&#x127;" d="M-31 1147h72h82v-283v-280v-82v-420v-82h164v82v420v82v190q166 107 284 107q117 -2 162 -65t45 -230l2 -506l2 -82l162 4l-2 80v504q2 208 -97 333t-274 125q-124 -1 -284 -82v185h204h72v143h-72h-204v62v82h-164v-82v-62h-82h-72v-143z" />
<glyph unicode="&#x128;" horiz-adv-x="491" d="M-49 1535h123q0 65 57 65q23 -1 35.5 -9.5t36.5 -33.5q70 -84 162 -84q70 -1 125 59t55 130h-123q0 -66 -57 -66h-3q-14 -1 -25 4.5t-18 12t-24 26.5h-2q-18 20 -26.5 27.5t-30.5 24.5t-48 24.5t-57 7.5q-68 -2 -124 -60t-56 -128zM166 0h164v82v1188v82h-164v-82v-1188 v-82z" />
<glyph unicode="&#x129;" horiz-adv-x="393" d="M-100 1218h123q0 65 57 65q23 -1 35.5 -9.5t36.5 -33.5q70 -84 161 -84q70 -1 125.5 59t55.5 130h-123q0 -66 -58 -66h-2q-14 -1 -25 4.5t-18 12t-24 26.5h-2q-18 20 -26.5 27.5t-30.5 24.5t-48 24.5t-57 7.5q-68 -2 -124 -60t-56 -128zM125 0h143v72v917v72h-143v-72 v-917v-72z" />
<glyph unicode="&#x12a;" horiz-adv-x="491" d="M33 1473h61h307h62v123h-62h-307h-61v-123zM166 0h164v82v1188v82h-164v-82v-1188v-82z" />
<glyph unicode="&#x12b;" horiz-adv-x="393" d="M-18 1156h61h307h62v123h-62h-307h-61v-123zM125 0h143v72v917v72h-143v-72v-917v-72z" />
<glyph unicode="&#x12c;" horiz-adv-x="491" d="M23 1668q0 -76 69.5 -135.5t155.5 -59.5q87 -1 156 58.5t69 136.5h-123q0 -72 -102 -72q-50 -1 -76.5 18t-26.5 54h-122zM166 0h164v82v1188v82h-164v-82v-1188v-82z" />
<glyph unicode="&#x12d;" horiz-adv-x="393" d="M-29 1351q0 -76 70 -135.5t156 -59.5q87 -1 156 58.5t69 136.5h-123q0 -72 -102 -72q-50 -1 -76.5 18t-26.5 54h-123zM125 0h143v72v917v72h-143v-72v-917v-72z" />
<glyph unicode="&#x12e;" horiz-adv-x="491" d="M62 -201q1 -59 44.5 -110t114.5 -65t161 39l51 31l-63 105l-54 -33q-40 -25 -69 -17t-44.5 33t-15.5 55q0 45 111 163h32v33l9 9l-9 1v39v1188v82h-164v-82v-1188v-82h17q-43 -36 -82 -89.5t-39 -111.5z" />
<glyph unicode="&#x12f;" horiz-adv-x="409" d="M19 -201q1 -59 44.5 -110t114.5 -65t161 39l51 31l-63 105l-54 -33q-40 -25 -69 -17t-44.5 33t-15.5 55q0 45 111 163h32v33l9 9l-9 1v39v881v81h-164v-81v-881v-82h17q-43 -36 -82 -89.5t-39 -111.5zM123 1188h82h2h82v164h-82h-2h-82v-164z" />
<glyph unicode="&#x130;" horiz-adv-x="491" d="M166 0h164v82v1188v82h-164v-82v-1188v-82zM166 1473h164v82v2v82h-164v-82v-2v-82z" />
<glyph unicode="&#x131;" horiz-adv-x="393" d="M125 0h143v72v917v72h-143v-72v-917v-72z" />
<glyph unicode="&#x132;" horiz-adv-x="980" d="M164 -90v-166l90 10q268 31 415.5 168.5t147.5 358.5l2 968l2 82h-166l-2 -80v-970q2 -168 -94.5 -253t-320.5 -110zM164 201h164v82v968v82h-164v-82v-968v-82z" />
<glyph unicode="&#x133;" horiz-adv-x="819" d="M123 0h164v82v860v82h-164v-82v-860v-82zM123 -303v-170l100 24q50 12 94.5 27t93 39t89 53.5t78 71t63 90t40.5 113t15 137.5l2 858l2 82h-165l-3 -80v-860q1 -74 -17 -131t-46.5 -95t-75.5 -67t-94.5 -45.5t-112.5 -32.5zM123 1188h82h2h82v164h-82h-2h-82v-164z M532 1188h82h2h82v164h-82h-2h-82v-164z" />
<glyph unicode="&#x134;" horiz-adv-x="655" d="M-12 -96l26 -162l82 14q188 31 292 170.5t104 354.5l2 968l2 82l-166 2l-2 -82v-970q1 -174 -58.5 -257t-201.5 -108zM109 1507h182l16 17l92 84l93 -84l16 -17h182l-117 107l-133 123l-41 38l-41 -38l-133 -123z" />
<glyph unicode="&#x135;" horiz-adv-x="409" d="M-106 -324l61 -151l76 31q37 15 70 36t68.5 58t60.5 83.5t41 115.5t16 151l2 940l2 82l-166 2l-2 -82v-942q1 -75 -9.5 -127t-33 -84t-47.5 -49t-64 -33zM-35 1102h152l18 24l94 131l95 -131l18 -24h152l-72 98l-143 199l-19 24h-61l-19 -24l-143 -199z" />
<glyph unicode="&#x136;" horiz-adv-x="1210" d="M164 0h164v82v512h142l495 -565l24 -29h217l-119 135l-473 541l473 541l119 135h-217l-24 -29l-495 -565h-142v512v82h-164v-82v-512v-164v-512v-82zM510 -373h143q82 -2 149.5 42.5t67.5 109.5q2 46 -31 79.5t-72 46.5t-73 13l41 123h-123l-67 -186q62 4 118.5 -10 t61.5 -35q5 -23 -13 -41.5t-59 -18.5l-141 -2z" />
<glyph unicode="&#x137;" horiz-adv-x="944" d="M123 0h164v82v348h97l333 -401l24 -29h213l-110 135l-314 377l314 377l110 135h-213l-24 -29l-333 -401h-97v799v82h-164v-82v-799v-164v-348v-82zM363 -373h144q82 -2 149.5 42.5t67.5 109.5q2 46 -31 79.5t-72 46.5t-73 13l41 123h-123l-68 -186q62 4 119 -10.5 t62 -34.5q5 -23 -13 -41.5t-59 -18.5l-141 -2z" />
<glyph unicode="&#x138;" horiz-adv-x="944" d="M123 0h164v82v348h95l335 -401l24 -29h213l-110 135l-316 377l316 377l110 135h-213l-24 -29l-335 -401h-95v348v82h-164v-82v-348v-164v-348v-82z" />
<glyph unicode="&#x139;" horiz-adv-x="983" d="M164 0h82h614h82v164h-82h-532v1106v82h-164v-82v-1188v-82zM416 1473h135l16 35l82 174l41 88h-135l-16 -35l-82 -174z" />
<glyph unicode="&#x13a;" horiz-adv-x="409" d="M68 1607h135l16 35l82 174l41 88h-135l-17 -35l-81 -174zM123 0h164v82v1311v82h-164v-82v-1311v-82z" />
<glyph unicode="&#x13b;" horiz-adv-x="983" d="M164 0h82h219l-52 -145q62 4 118.5 -10t61.5 -35q5 -23 -13 -41.5t-59 -18.5l-141 -2l-2 -121h143q82 -2 149.5 42.5t67.5 109.5q2 46 -31 79.5t-72 46.5t-73 13l27 82h271h82v164h-82h-532v1106v82h-164v-82v-1188v-82z" />
<glyph unicode="&#x13c;" horiz-adv-x="409" d="M30 -373h143q82 -2 149.5 42.5t67.5 109.5q2 46 -31 79.5t-72 46.5t-73 13l27 82h46v82v1311v82h-164v-82v-1311v-66l-59 -161q62 4 119 -10.5t62 -34.5q5 -23 -13 -41.5t-59 -18.5l-141 -2z" />
<glyph unicode="&#x13d;" horiz-adv-x="983" d="M164 0h82h614h82v164h-82h-532v1106v82h-164v-82v-1188v-82zM655 958l129 -63l31 63q23 46 34.5 103t13 98t1.5 121v72h-143v-72q0 -77 -1 -111t-8.5 -73.5t-23.5 -71.5z" />
<glyph unicode="&#x13e;" horiz-adv-x="487" d="M123 0h164v82v1311v82h-164v-82v-1311v-82zM391 1081l129 -63l31 63q23 46 34.5 103t13 98t1.5 121v72h-143v-72q0 -77 -1 -111t-8.5 -73.5t-23.5 -71.5z" />
<glyph unicode="&#x13f;" horiz-adv-x="983" d="M164 0h82h614h82v164h-82h-532v1106v82h-164v-82v-1188v-82zM471 593h164v82v2v82h-164v-82v-2v-82z" />
<glyph unicode="&#x140;" horiz-adv-x="573" d="M123 0h164v82v1311v82h-164v-82v-1311v-82zM369 613h163v82v2v82h-163v-82v-2v-82z" />
<glyph unicode="&#x141;" horiz-adv-x="983" d="M164 0h82h614h82v164h-82h-532v1106v82h-164v-82v-1188v-82z" />
<glyph unicode="&#x142;" horiz-adv-x="409" d="M-45 588l90 -111l78 62v-457v-82h164v82v589l168 134l-90 110l-78 -62v540v82h-164v-82v-671z" />
<glyph unicode="&#x143;" horiz-adv-x="1308" d="M164 0h164v82v982l610 -1023l23 -41h47h55h82v82v1188v82h-164v-82v-983l-610 1024l-23 41h-47h-55h-82v-82v-1188v-82zM517 1473h135l17 35l82 174l41 88h-136l-16 -35l-82 -174z" />
<glyph unicode="&#x144;" d="M123 0h164v82v422v82v188q159 107 286 107q78 -1 121.5 -28t63.5 -90t20 -177l2 -506l2 -82l162 4l-2 80v504q2 211 -97.5 334.5t-271.5 123.5q-126 -1 -286 -82v62h-164v-82v-78v-278v-82v-422v-82zM417 1139h135l16 34l82 175l41 88h-135l-16 -35l-82 -174z" />
<glyph unicode="&#x145;" horiz-adv-x="1308" d="M164 0h164v82v982l610 -1023l23 -41h47h55h82v82v1188v82h-164v-82v-983l-610 1024l-23 41h-47h-55h-82v-82v-1188v-82zM479 -373h144q82 -2 149.5 42.5t67.5 109.5q2 46 -31 79.5t-72 46.5t-73 13l40 123h-122l-68 -186q62 4 118.5 -10t61.5 -35q5 -23 -12.5 -41.5 t-58.5 -18.5l-142 -2z" />
<glyph unicode="&#x146;" d="M123 0h164v82v422v82v188q159 107 286 107q78 -1 121.5 -28t63.5 -90t20 -177l2 -506l2 -82l162 4l-2 80v504q2 211 -97.5 334.5t-271.5 123.5q-126 -1 -286 -82v62h-164v-82v-78v-278v-82v-422v-82zM379 -375h143q82 -2 149.5 42.5t67.5 109.5q2 46 -31 79.5t-72 46.5 t-73 13l41 123h-123l-67 -186q62 4 118.5 -10.5t61.5 -35.5q5 -23 -13 -41t-59 -18l-141 -2z" />
<glyph unicode="&#x147;" horiz-adv-x="1308" d="M164 0h164v82v982l610 -1023l23 -41h47h55h82v82v1188v82h-164v-82v-983l-610 1024l-23 41h-47h-55h-82v-82v-1188v-82zM353 1750l117 -107l133 -123l41 -38l41 38l133 123l117 107h-182l-17 -17l-92 -84l-92 84l-16 17h-183z" />
<glyph unicode="&#x148;" d="M123 0h164v82v422v82v188q159 107 286 107q78 -1 121.5 -28t63.5 -90t20 -177l2 -506l2 -82l162 4l-2 80v504q2 211 -97.5 334.5t-271.5 123.5q-126 -1 -286 -82v62h-164v-82v-78v-278v-82v-422v-82zM253 1415l117 -106l133 -123l41 -39l41 39l133 123l117 106h-183 l-16 -16l-92 -84l-92 84l-17 16h-182z" />
<glyph unicode="&#x14a;" horiz-adv-x="1310" d="M164 0h164v82v982q88 70 175.5 107t190.5 37q166 2 248 -124.5t82 -407.5q2 -302 -73 -440t-226 -78l-61 -152q133 -48 231.5 -13.5t163.5 137.5t97 243t32 303q1 323 -133.5 510.5t-360.5 185.5q-185 0 -366 -110v8v82h-164v-82v-1188v-82z" />
<glyph unicode="&#x14b;" d="M123 0h164v82v422v82v188q159 107 286 107q78 -1 121.5 -28t63.5 -90t20 -177l2 -506q0 -123 -2 -191t-8.5 -106t-16 -45.5t-26.5 -1.5l-76 31l-61 -152l76 -31q41 -17 75.5 -18.5t61 11t48 36t36.5 60t26 79.5t17 97t9 110.5t3 122.5l2 502q0 212 -99.5 336t-271.5 124 q-126 -1 -286 -82v62h-164v-82v-78v-278v-82v-422v-82z" />
<glyph unicode="&#x14c;" horiz-adv-x="1394" d="M82 676q0 -330 162 -513t454 -183q291 -1 453 182.5t162 513.5q1 328 -161.5 512t-453.5 184q-291 -2 -453.5 -184.5t-162.5 -511.5zM246 676q0 283 107 407.5t345 124.5q238 -2 344.5 -126t106.5 -406q1 -283 -106.5 -408t-344.5 -125q-236 -2 -344 124t-108 409z M482 1498h62h307h61v122h-61h-307h-62v-122z" />
<glyph unicode="&#x14d;" horiz-adv-x="1105" d="M82 512q0 -240 131 -386t340 -146q138 -1 245 65t166.5 187.5t59.5 279.5q1 237 -131.5 384.5t-339.5 147.5q-207 -2 -339 -147.5t-132 -384.5zM246 512q0 190 76.5 279.5t230.5 89.5q156 -2 231.5 -90.5t75.5 -278.5q1 -191 -75 -280t-232 -89q-154 -2 -230.5 88.5 t-76.5 280.5zM338 1140h61h308h61v123h-61h-308h-61v-123z" />
<glyph unicode="&#x14e;" horiz-adv-x="1394" d="M82 676q0 -330 162 -513t454 -183q291 -1 453 182.5t162 513.5q1 328 -161.5 512t-453.5 184q-291 -2 -453.5 -184.5t-162.5 -511.5zM246 676q0 283 107 407.5t345 124.5q238 -2 344.5 -126t106.5 -406q1 -283 -106.5 -408t-344.5 -125q-236 -2 -344 124t-108 409z M472 1692q0 -76 69.5 -135t155.5 -59q88 -1 157 58t69 136h-123q0 -72 -103 -72q-50 -1 -76 18t-26 54h-123z" />
<glyph unicode="&#x14f;" horiz-adv-x="1105" d="M82 512q0 -240 131 -386t340 -146q138 -1 245 65t166.5 187.5t59.5 279.5q1 237 -131.5 384.5t-339.5 147.5q-207 -2 -339 -147.5t-132 -384.5zM246 512q0 190 76.5 279.5t230.5 89.5q156 -2 231.5 -90.5t75.5 -278.5q1 -191 -75 -280t-232 -89q-154 -2 -230.5 88.5 t-76.5 280.5zM328 1335q0 -76 69.5 -135.5t155.5 -59.5q87 -1 156 58.5t69 136.5h-123q0 -72 -102 -72q-50 -1 -76 18t-26 54h-123z" />
<glyph unicode="&#x150;" horiz-adv-x="1394" d="M82 676q0 -330 162 -513t454 -183q291 -1 453 182.5t162 513.5q1 328 -161.5 512t-453.5 184q-291 -2 -453.5 -184.5t-162.5 -511.5zM246 676q0 283 107 407.5t345 124.5q238 -2 344.5 -126t106.5 -406q1 -283 -106.5 -408t-344.5 -125q-236 -2 -344 124t-108 409z M437 1498h135l17 34l82 174l41 88h-135l-17 -34l-82 -174zM683 1498h135l17 34l81 174l41 88h-135l-16 -34l-82 -174z" />
<glyph unicode="&#x151;" horiz-adv-x="1105" d="M82 512q0 -240 131 -386t340 -146q138 -1 245 65t166.5 187.5t59.5 279.5q1 237 -131.5 384.5t-339.5 147.5q-207 -2 -339 -147.5t-132 -384.5zM246 512q0 190 76.5 279.5t230.5 89.5q156 -2 231.5 -90.5t75.5 -278.5q1 -191 -75 -280t-232 -89q-154 -2 -230.5 88.5 t-76.5 280.5zM293 1140h135l16 35l82 174l41 88h-135l-16 -35l-82 -174zM539 1140h135l16 35l82 174l41 88h-135l-16 -35l-82 -174z" />
<glyph unicode="&#x152;" horiz-adv-x="1966" d="M82 676q0 -353 146 -514.5t431 -161.5q242 -2 371 129v-47v-82h82h731h82v164h-82h-649v430h448h82v164h-82h-448v430h649h82v164h-82h-731h-82v-82v-50q-132 132 -371 132q-140 -1 -245.5 -39.5t-180.5 -118.5t-113 -210t-38 -308zM246 676q0 155 21 253t72.5 156.5 t126.5 80.5t193 22q143 -1 220 -43t114 -152t37 -317v-25q-1 -148 -20.5 -242t-66 -149t-113 -75.5t-171.5 -20.5q-117 -1 -192 21t-126.5 80.5t-73 157t-21.5 253.5z" />
<glyph unicode="&#x153;" horiz-adv-x="1761" d="M82 512q0 -238 127.5 -385t329.5 -147q120 -1 216.5 52.5t157.5 151.5q56 -97 144.5 -150.5t199.5 -53.5q117 -1 201 25t178 77l-77 143q-82 -44 -145 -63t-157 -19q-116 -2 -179.5 67.5t-76.5 219.5h596h82v82v305v37l-26 25q-69 64 -175 114.5t-221 50.5 q-111 -1 -199.5 -54.5t-144.5 -150.5q-61 98 -157.5 151.5t-216.5 53.5q-201 -2 -329 -148.5t-128 -383.5zM246 512q0 191 72.5 280t220.5 89q151 -2 223 -90t72 -279q1 -192 -72 -280.5t-223 -88.5q-147 -2 -220 88t-73 281zM1001 594q14 148 77 217.5t179 69.5 q82 -1 150.5 -33t108.5 -68v-186h-515z" />
<glyph unicode="&#x154;" horiz-adv-x="1226" d="M164 0h164v82v438h282h82q24 0 43.5 -4t36 -10t31.5 -21t26 -27t24.5 -40t22.5 -47.5t23.5 -61.5t24.5 -71t28.5 -86t32.5 -97l19 -55h174l-37 109q-14 42 -45 137t-46 137t-42.5 99t-57.5 93q158 92 158 361q2 212 -97 314t-319 102l-444 -2h-82v-82l-2 -1186v-82z M328 682v506h364q60 -1 97 -4t68 -14t46 -26t25.5 -46t13 -67t2.5 -95q1 -58 -2 -95t-13.5 -67.5t-26.5 -46t-46.5 -26.5t-67.5 -14t-96 -3h-82zM534 1473h135l16 35l82 174l41 88h-135l-17 -35l-82 -174z" />
<glyph unicode="&#x155;" horiz-adv-x="655" d="M123 0h164v82v348v82q0 50 3 89t12 70.5t18.5 54.5t28.5 41.5t36 31t46.5 24.5t55 20t66.5 19l80 23l-43 157l-78 -20q-150 -41 -225 -95v15v82h-164v-82v-430v-82v-348v-82zM241 1136h135l16 35l82 174l41 88h-135l-16 -35l-82 -174z" />
<glyph unicode="&#x156;" horiz-adv-x="1226" d="M164 0h164v82v438h282h82q24 0 43.5 -4t36 -10t31.5 -21t26 -27t24.5 -40t22.5 -47.5t23.5 -61.5t24.5 -71t28.5 -86t32.5 -97l19 -55h174l-37 109q-14 42 -45 137t-46 137t-42.5 99t-57.5 93q158 92 158 361q2 212 -97 314t-319 102l-444 -2h-82v-82l-2 -1186v-82z M328 682v506h364q60 -1 97 -4t68 -14t46 -26t25.5 -46t13 -67t2.5 -95q1 -58 -2 -95t-13.5 -67.5t-26.5 -46t-46.5 -26.5t-67.5 -14t-96 -3h-82zM496 -373h143q82 -2 149.5 42.5t67.5 109.5q2 46 -31 79.5t-72 46.5t-73 13l41 123h-123l-68 -186q62 4 119 -10.5t62 -34.5 q5 -23 -13 -41.5t-59 -18.5l-141 -2z" />
<glyph unicode="&#x157;" horiz-adv-x="655" d="M71 -372h143q82 -2 149.5 42t67.5 109q2 46 -31 79.5t-72 46.5t-73 13l27 82h5v14l9 27h-9v41v348v82q0 50 3 89t12 70.5t18.5 54.5t28.5 41.5t36 31t46.5 24.5t55 20t66.5 19l80 23l-43 157l-78 -20q-150 -41 -225 -95v15v82h-164v-82v-430v-82v-348v-82h35l-53 -145 q62 4 119 -10.5t62 -34.5q5 -23 -13 -41.5t-59 -18.5l-141 -2z" />
<glyph unicode="&#x158;" horiz-adv-x="1226" d="M164 0h164v82v438h282h82q24 0 43.5 -4t36 -10t31.5 -21t26 -27t24.5 -40t22.5 -47.5t23.5 -61.5t24.5 -71t28.5 -86t32.5 -97l19 -55h174l-37 109q-14 42 -45 137t-46 137t-42.5 99t-57.5 93q158 92 158 361q2 212 -97 314t-319 102l-444 -2h-82v-82l-2 -1186v-82z M328 682v506h364q60 -1 97 -4t68 -14t46 -26t25.5 -46t13 -67t2.5 -95q1 -58 -2 -95t-13.5 -67.5t-26.5 -46t-46.5 -26.5t-67.5 -14t-96 -3h-82zM380 1742l117 -107l133 -123l41 -39l41 39l133 123l117 107h-183l-16 -17l-92 -84l-92 84l-17 17h-182z" />
<glyph unicode="&#x159;" horiz-adv-x="655" d="M77 1413l117 -107l133 -123l41 -39l41 39l133 123l116 107h-182l-16 -17l-92 -84l-93 84l-16 17h-182zM123 0h164v82v348v82q0 50 3 89t12 70.5t18.5 54.5t28.5 41.5t36 31t46.5 24.5t55 20t66.5 19l80 23l-43 157l-78 -20q-150 -41 -225 -95v15v82h-164v-82v-430v-82 v-348v-82z" />
<glyph unicode="&#x15a;" horiz-adv-x="1062" d="M37 158q125 -84 230.5 -130.5t221.5 -47.5h3q122 0 217.5 31.5t153.5 87t88 126.5t30 154q0 53 -17 100t-52 84t-71.5 65.5t-92 55t-94.5 43t-97 37.5q-178 71 -221 94q-96 55 -98 115q2 121 59 178t195 57q28 0 54 -5t44.5 -9t43 -17.5t36 -19t37 -26t32 -26t35 -31.5 t33.5 -30l111 123q-5 4 -34.5 31t-40 35.5t-41 32.5t-49 34t-52.5 27.5t-63 24.5t-67.5 13.5t-78.5 6.5q-129 -1 -225.5 -56t-144.5 -144t-48 -199q1 -58 29 -109t58 -82t99.5 -67.5t101.5 -49.5t115 -44q15 -6 23 -9q68 -25 106 -40t84.5 -38.5t70 -44t40 -49t16.5 -61.5 q2 -125 -68 -180.5t-257 -55.5q-88 1 -169 37.5t-196 112.5zM372 1497h135l16 35l82 174l41 88h-135l-16 -34l-82 -174z" />
<glyph unicode="&#x15b;" horiz-adv-x="901" d="M53 68q93 -35 129.5 -47.5t101.5 -26.5t128 -14q167 -2 287 88t120 229q1 63 -29.5 114t-84.5 85.5t-112.5 57t-129.5 38.5h-2q-133 29 -179 53.5t-46 81.5q2 80 43 117t133 37q53 -1 125 -35t110 -68l111 123q-54 47 -160.5 95t-185.5 48q-141 -2 -240.5 -91.5 t-99.5 -225.5q1 -60 23 -107t53.5 -76t83 -52.5t94 -35t102.5 -24.5q125 -28 176 -56.5t51 -78.5q1 -78 -58.5 -116t-184.5 -38q-47 -1 -97 9.5t-81 21.5t-123 45zM299 1140h135l17 35l81 174l41 88h-135l-16 -35l-82 -174z" />
<glyph unicode="&#x15c;" horiz-adv-x="1062" d="M37 158q125 -84 230.5 -130.5t221.5 -47.5h3q122 0 217.5 31.5t153.5 87t88 126.5t30 154q0 53 -17 100t-52 84t-71.5 65.5t-92 55t-94.5 43t-97 37.5q-178 71 -221 94q-96 55 -98 115q2 121 59 178t195 57q28 0 54 -5t44.5 -9t43 -17.5t36 -19t37 -26t32 -26t35 -31.5 t33.5 -30l111 123q-5 4 -34.5 31t-40 35.5t-41 32.5t-49 34t-52.5 27.5t-63 24.5t-67.5 13.5t-78.5 6.5q-129 -1 -225.5 -56t-144.5 -144t-48 -199q1 -58 29 -109t58 -82t99.5 -67.5t101.5 -49.5t115 -44q15 -6 23 -9q68 -25 106 -40t84.5 -38.5t70 -44t40 -49t16.5 -61.5 q2 -125 -68 -180.5t-257 -55.5q-88 1 -169 37.5t-196 112.5zM218 1497h182l17 17l92 84l92 -84l16 -17h183l-117 107l-133 123l-41 39l-41 -39l-133 -123z" />
<glyph unicode="&#x15d;" horiz-adv-x="901" d="M53 68q93 -35 129.5 -47.5t101.5 -26.5t128 -14q167 -2 287 88t120 229q1 63 -29.5 114t-84.5 85.5t-112.5 57t-129.5 38.5h-2q-133 29 -179 53.5t-46 81.5q2 80 43 117t133 37q53 -1 125 -35t110 -68l111 123q-54 47 -160.5 95t-185.5 48q-141 -2 -240.5 -91.5 t-99.5 -225.5q1 -60 23 -107t53.5 -76t83 -52.5t94 -35t102.5 -24.5q125 -28 176 -56.5t51 -78.5q1 -78 -58.5 -116t-184.5 -38q-47 -1 -97 9.5t-81 21.5t-123 45zM135 1171h182l17 16l92 84l92 -84l17 -16h182l-117 107l-133 122l-41 39l-41 -39l-133 -122z" />
<glyph unicode="&#x15e;" horiz-adv-x="1062" d="M37 158q108 -73 198.5 -117t187.5 -57l-54 -150q62 4 118.5 -10t61.5 -35q5 -23 -13 -41t-59 -18l-141 -2l-2 -121h143q82 -2 149.5 42t67.5 109q2 46 -31 80t-72 47t-73 13l28 83q214 14 324.5 124.5t110.5 273.5q0 53 -17 100t-52 84t-71.5 65.5t-92 55t-94.5 43 t-97 37.5q-178 71 -221 94q-96 55 -98 115q2 121 59 178t195 57q28 0 54 -5t44.5 -9t43 -17.5t36 -19t37 -26t32 -26t35 -31.5t33.5 -30l111 123q-5 4 -34.5 31t-40 35.5t-41 32.5t-49 34t-52.5 27.5t-63 24.5t-67.5 13.5t-78.5 6.5q-129 -1 -225.5 -56t-144.5 -144 t-48 -199q1 -58 29 -109t58 -82t99.5 -67.5t101.5 -49.5t115 -44q15 -6 23 -9q68 -25 106 -40t84.5 -38.5t70 -44t40 -49t16.5 -61.5q2 -125 -68 -180.5t-257 -55.5q-88 1 -169 37.5t-196 112.5z" />
<glyph unicode="&#x15f;" horiz-adv-x="901" d="M53 68q80 -30 110 -41t84.5 -25.5t102.5 -19.5l-54 -148q62 4 118.5 -10t61.5 -35q5 -23 -13 -41t-59 -18l-141 -2l-2 -121h143q82 -2 150 42t68 109q2 46 -31 80t-72.5 47t-73.5 13l29 85q147 15 246 101.5t99 212.5q1 63 -29.5 114t-84.5 85.5t-112.5 57t-129.5 38.5 h-2q-133 29 -179 53.5t-46 81.5q2 80 43 117t133 37q53 -1 125 -35t110 -68l111 123q-54 47 -160.5 95t-185.5 48q-141 -2 -240.5 -91.5t-99.5 -225.5q1 -60 23 -107t53.5 -76t83 -52.5t94 -35t102.5 -24.5q125 -28 176 -56.5t51 -78.5q1 -78 -58.5 -116t-184.5 -38 q-47 -1 -97 9.5t-81 21.5t-123 45z" />
<glyph unicode="&#x160;" horiz-adv-x="1062" d="M37 158q125 -84 230.5 -130.5t221.5 -47.5h3q122 0 217.5 31.5t153.5 87t88 126.5t30 154q0 53 -17 100t-52 84t-71.5 65.5t-92 55t-94.5 43t-97 37.5q-178 71 -221 94q-96 55 -98 115q2 121 59 178t195 57q28 0 54 -5t44.5 -9t43 -17.5t36 -19t37 -26t32 -26t35 -31.5 t33.5 -30l111 123q-5 4 -34.5 31t-40 35.5t-41 32.5t-49 34t-52.5 27.5t-63 24.5t-67.5 13.5t-78.5 6.5q-129 -1 -225.5 -56t-144.5 -144t-48 -199q1 -58 29 -109t58 -82t99.5 -67.5t101.5 -49.5t115 -44q15 -6 23 -9q68 -25 106 -40t84.5 -38.5t70 -44t40 -49t16.5 -61.5 q2 -125 -68 -180.5t-257 -55.5q-88 1 -169 37.5t-196 112.5zM208 1774l117 -107l133 -122l41 -39l41 39l133 122l117 107h-183l-16 -16l-92 -84l-92 84l-17 16h-182z" />
<glyph unicode="&#x161;" horiz-adv-x="901" d="M53 68q93 -35 129.5 -47.5t101.5 -26.5t128 -14q167 -2 287 88t120 229q1 63 -29.5 114t-84.5 85.5t-112.5 57t-129.5 38.5h-2q-133 29 -179 53.5t-46 81.5q2 80 43 117t133 37q53 -1 125 -35t110 -68l111 123q-54 47 -160.5 95t-185.5 48q-141 -2 -240.5 -91.5 t-99.5 -225.5q1 -60 23 -107t53.5 -76t83 -52.5t94 -35t102.5 -24.5q125 -28 176 -56.5t51 -78.5q1 -78 -58.5 -116t-184.5 -38q-47 -1 -97 9.5t-81 21.5t-123 45zM135 1417l117 -107l133 -123l41 -38l41 38l133 123l117 107h-182l-17 -17l-92 -84l-92 84l-17 17h-182z" />
<glyph unicode="&#x162;" horiz-adv-x="1105" d="M41 1188h82h350v-1106v-61l-60 -166q62 4 118.5 -10t61.5 -35q5 -23 -13 -41.5t-59 -18.5l-141 -2l-2 -121h143q82 -2 149.5 42.5t67.5 109.5q2 46 -31 79.5t-72 46.5t-73 13l27 82h48v82v1106h346h82v164h-82h-346h-164h-350h-82v-164z" />
<glyph unicode="&#x163;" horiz-adv-x="573" d="M41 860h82h41v-348q1 -219 56.5 -333t162.5 -159l-52 -143q62 4 118.5 -10t61.5 -35q5 -23 -13 -41t-59 -18l-141 -2l-2 -121h143q82 -2 150 42t68 109q2 46 -31 80t-72.5 47t-73.5 13l15 42l11 -3l47 157l-80 23q-62 19 -89.5 46.5t-41.5 96.5t-14 209l1 348h122h81v164 h-81h-122l1 203l2 82l-166 2l-2 -82v-205h-41h-82v-164z" />
<glyph unicode="&#x164;" horiz-adv-x="1105" d="M41 1188h82h350v-1106v-82h164v82v1106h346h82v164h-82h-346h-164h-350h-82v-164zM252 1750l117 -107l133 -123l41 -38l41 38l133 123l117 107h-183l-16 -17l-92 -84l-92 84l-17 17h-182z" />
<glyph unicode="&#x165;" horiz-adv-x="778" d="M41 860h82h41v-348q1 -124 19 -214.5t53.5 -149t81.5 -92.5t110 -52l78 -24l47 157l-80 23q-62 19 -89.5 46.5t-41.5 96.5t-14 209l1 348h122h81v164h-81h-122l1 203l2 82l-166 2l-2 -82v-205h-41h-82v-164zM625 883h143v71v285v72h-143v-72v-285v-71z" />
<glyph unicode="&#x166;" horiz-adv-x="1105" d="M41 1188h82h350v-440h-145h-72v-144h72h145v-522v-82h164v82v522h141h72v144h-72h-141v440h346h82v164h-82h-346h-164h-350h-82v-164z" />
<glyph unicode="&#x167;" horiz-adv-x="573" d="M41 860h82h41v-348q1 -124 19 -214.5t53.5 -149t81.5 -92.5t110 -52l78 -24l47 157l-80 23q-62 19 -89.5 46.5t-41.5 96.5t-14 209l1 348h122h81v164h-81h-122l1 203l2 82l-166 2l-2 -82v-205h-41h-82v-164z" />
<glyph unicode="&#x168;" horiz-adv-x="1351" d="M164 526q1 -129 41.5 -234t110 -172.5t162 -103.5t198.5 -36q152 -1 284 57t205 135l23 25v329v744v82h-164v-82v-744v-264q-42 -44 -135.5 -81.5t-212.5 -37.5q-170 -2 -259 90.5t-89 292.5l2 742l2 82l-166 2l-2 -82v-744zM379 1537h123q0 65 57 65q23 -1 35.5 -9.5 t36.5 -33.5q70 -84 162 -84q70 -1 125 59t55 130h-123q0 -66 -57 -66h-2q-20 -1 -32.5 7.5t-35.5 35.5h-2q-18 20 -26.5 27.5t-30.5 24.5t-48 24.5t-57 7.5q-68 -2 -124 -60t-56 -128z" />
<glyph unicode="&#x169;" d="M123 389q2 -179 112.5 -294t299.5 -115q114 -1 219 38t161 93l27 24v254v553v82h-164v-82v-553v-184q-23 -20 -90.5 -41t-152.5 -21q-134 -1 -191 57.5t-57 188.5l2 551l2 82l-166 2l-2 -82v-553zM236 1179h122q0 66 58 66q23 -1 35 -9t36 -34q70 -84 162 -84 q70 -1 125 58.5t55 129.5h-122q0 -65 -58 -65h-2q-14 -1 -25 4.5t-18 12t-24 26.5h-2q-18 20 -26.5 27.5t-30.5 24.5t-48 24.5t-57 7.5q-68 -2 -124 -60.5t-56 -128.5z" />
<glyph unicode="&#x16a;" horiz-adv-x="1351" d="M164 526q1 -129 41.5 -234t110 -172.5t162 -103.5t198.5 -36q152 -1 284 57t205 135l23 25v329v744v82h-164v-82v-744v-264q-42 -44 -135.5 -81.5t-212.5 -37.5q-170 -2 -259 90.5t-89 292.5l2 742l2 82l-166 2l-2 -82v-744zM461 1475h61h307h62v123h-62h-307h-61v-123z " />
<glyph unicode="&#x16b;" d="M123 389q2 -179 112.5 -294t299.5 -115q114 -1 219 38t161 93l27 24v254v553v82h-164v-82v-553v-184q-23 -20 -90.5 -41t-152.5 -21q-134 -1 -191 57.5t-57 188.5l2 551l2 82l-166 2l-2 -82v-553zM317 1118h62h307h62v123h-62h-307h-62v-123z" />
<glyph unicode="&#x16c;" horiz-adv-x="1351" d="M164 526q1 -129 41.5 -234t110 -172.5t162 -103.5t198.5 -36q152 -1 284 57t205 135l23 25v329v744v82h-164v-82v-744v-264q-42 -44 -135.5 -81.5t-212.5 -37.5q-170 -2 -259 90.5t-89 292.5l2 742l2 82l-166 2l-2 -82v-744zM451 1670q0 -76 69.5 -135.5t155.5 -59.5 q87 -1 156 58.5t69 136.5h-123q0 -72 -102 -72q-50 -1 -76.5 18t-26.5 54h-122z" />
<glyph unicode="&#x16d;" d="M123 389q2 -179 112.5 -294t299.5 -115q114 -1 219 38t161 93l27 24v254v553v82h-164v-82v-553v-184q-23 -20 -90.5 -41t-152.5 -21q-134 -1 -191 57.5t-57 188.5l2 551l2 82l-166 2l-2 -82v-553zM307 1313q0 -76 69.5 -135.5t155.5 -59.5q88 -1 157 58.5t69 136.5h-123 q0 -72 -103 -72q-50 -1 -76 18t-26 54h-123z" />
<glyph unicode="&#x16e;" horiz-adv-x="1351" d="M164 526q1 -129 41.5 -234t110 -172.5t162 -103.5t198.5 -36q152 -1 284 57t205 135l23 25v329v744v82h-164v-82v-744v-264q-42 -44 -135.5 -81.5t-212.5 -37.5q-170 -2 -259 90.5t-89 292.5l2 742l2 82l-166 2l-2 -82v-744zM502 1649q0 -78 46.5 -126t127.5 -48 q82 -1 128 47.5t46 126.5q2 75 -46 124.5t-128 49.5q-79 -1 -126.5 -49t-47.5 -125zM604 1649q0 46 12.5 59t59.5 13q49 -1 60 -13t11 -59q2 -47 -10 -59t-61 -12q-46 -1 -59 12t-13 59z" />
<glyph unicode="&#x16f;" d="M123 389q2 -179 112.5 -294t299.5 -115q114 -1 219 38t161 93l27 24v254v553v82h-164v-82v-553v-184q-23 -20 -90.5 -41t-152.5 -21q-134 -1 -191 57.5t-57 188.5l2 551l2 82l-166 2l-2 -82v-553zM358 1292q0 -78 46.5 -126t127.5 -48q82 -1 128.5 47.5t46.5 126.5 q2 75 -46.5 124.5t-128.5 49.5q-79 -1 -126.5 -49t-47.5 -125zM461 1292q0 46 12 59t59 13q49 -1 60.5 -13.5t11.5 -58.5q2 -47 -10.5 -59.5t-61.5 -12.5q-45 -1 -58 12.5t-13 59.5z" />
<glyph unicode="&#x170;" horiz-adv-x="1351" d="M164 526q1 -129 41.5 -234t110 -172.5t162 -103.5t198.5 -36q152 -1 284 57t205 135l23 25v329v744v82h-164v-82v-744v-264q-42 -44 -135.5 -81.5t-212.5 -37.5q-170 -2 -259 90.5t-89 292.5l2 742l2 82l-166 2l-2 -82v-744zM416 1475h135l16 35l82 174l41 88h-135 l-16 -35l-82 -174zM662 1475h135l16 35l82 174l41 88h-135l-17 -35l-82 -174z" />
<glyph unicode="&#x171;" d="M123 389q2 -179 112.5 -294t299.5 -115q114 -1 219 38t161 93l27 24v254v553v82h-164v-82v-553v-184q-23 -20 -90.5 -41t-152.5 -21q-134 -1 -191 57.5t-57 188.5l2 551l2 82l-166 2l-2 -82v-553zM272 1118h136l16 35l82 174l41 88h-135l-17 -35l-82 -174zM518 1118h135 l17 35l82 174l41 88h-136l-16 -35l-82 -174z" />
<glyph unicode="&#x172;" horiz-adv-x="1351" d="M164 526q1 -129 41.5 -234t110 -172.5t162 -103.5t198.5 -36h15q-98 -93 -98 -181q1 -59 44.5 -110t114 -65t160.5 39l52 31l-64 105l-53 -33q-40 -25 -69 -17t-44.5 33t-15.5 55q0 45 105 157q108 22 198 72t144 106l23 25v329v744v82h-164v-82v-744v-264 q-42 -44 -135.5 -81.5t-212.5 -37.5q-170 -2 -259 90.5t-89 292.5l2 742l2 82l-166 2l-2 -82v-744z" />
<glyph unicode="&#x173;" d="M123 389q2 -179 112.5 -294t299.5 -115q45 0 81 4q-64 -76 -64 -145q1 -59 44.5 -110t114 -64.5t160.5 39.5l52 31l-64 104l-53 -32q-40 -25 -69 -17t-44.5 33t-15.5 55q0 40 95 146q90 35 143 87l27 24v254v553v82h-164v-82v-553v-184q-23 -20 -90.5 -41t-152.5 -21 q-134 -1 -191 57.5t-57 188.5l2 551l2 82l-166 2l-2 -82v-553z" />
<glyph unicode="&#x174;" horiz-adv-x="1640" d="M20 1352l23 -101l279 -1188l14 -63l2 -2l65 2l70 2l62 2l16 59l269 1064l270 -1064l16 -59l61 -2l70 -2l66 -2l2 2l14 63l278 1188l23 101h-168l-14 -64l-235 -1005l-255 1005l-16 60l-60 2l-47 2h-4h-4l-49 -2l-59 -2l-17 -60l-254 -1005l-235 1005l-15 64h-168z M519 1504h182l17 17l92 84l92 -84l17 -17h182l-117 107l-133 123l-41 39l-41 -39l-133 -123z" />
<glyph unicode="&#x175;" horiz-adv-x="1392" d="M14 1024l29 -104l238 -861l18 -59h61h50h61l16 59l209 729l209 -729l17 -59h61h49h62l18 59l238 861l28 104h-170l-18 -59l-183 -670l-198 690l-16 59h-62h-35h-34h-62l-16 -59l-198 -690l-183 670l-19 59h-170zM395 1169h183l16 17l92 84l92 -84l17 -17h182l-117 107 l-133 123l-41 38l-41 -38l-133 -123z" />
<glyph unicode="&#x176;" horiz-adv-x="1187" d="M25 1352l67 -121l424 -762v-387v-82h164v82v387l416 762l65 121h-186l-23 -43l-354 -650l-362 650l-23 43h-188zM292 1504h182l16 16l93 84l92 -84l16 -16h182l-116 107l-133 122l-41 39l-41 -39l-133 -122z" />
<glyph unicode="&#x177;" horiz-adv-x="901" d="M14 1024l31 -104l252 -859l12 -47l49 -10l23 -5q-48 -144 -96 -205t-115 -87l-53 -20v-174l110 43q222 84 332 467l4 12l293 880l35 109h-172l-19 -55l-265 -798l-234 794l-17 59h-170zM152 1191h182l16 16l92 84l93 -84l16 -16h182l-117 106l-133 123l-41 39l-41 -39 l-133 -123z" />
<glyph unicode="&#x178;" horiz-adv-x="1187" d="M25 1352l67 -121l424 -762v-387v-82h164v82v387l416 762l65 121h-186l-23 -43l-354 -650l-362 650l-23 43h-188zM368 1473h163v82v2v82h-163v-82v-2v-82zM654 1473h164v82v2v82h-164v-82v-2v-82z" />
<glyph unicode="&#x179;" horiz-adv-x="1103" d="M16 0h66h82h817h82v164h-82h-670l658 1063l78 125h-66h-82h-694h-82v-164h82h547l-658 -1063zM402 1473h136l16 35l82 174l41 88h-135l-17 -35l-82 -174z" />
<glyph unicode="&#x17a;" horiz-adv-x="942" d="M10 0h72h82h655h82v164h-82h-502l496 733l86 127h-72h-82h-544h-82v-164h82h391l-496 -733zM318 1116h136l16 35l82 174l41 88h-135l-17 -35l-82 -174z" />
<glyph unicode="&#x17b;" horiz-adv-x="1103" d="M16 0h66h82h817h82v164h-82h-670l658 1063l78 125h-66h-82h-694h-82v-164h82h547l-658 -1063zM458 1473h164v82v2v82h-164v-82v-2v-82z" />
<glyph unicode="&#x17c;" horiz-adv-x="942" d="M10 0h72h82h655h82v164h-82h-502l496 733l86 127h-72h-82h-544h-82v-164h82h391l-496 -733zM374 1116h164v82v2v82h-164v-82v-2v-82z" />
<glyph unicode="&#x17d;" horiz-adv-x="1103" d="M16 0h66h82h817h82v164h-82h-670l658 1063l78 125h-66h-82h-694h-82v-164h82h547l-658 -1063zM239 1750l116 -107l133 -123l41 -38l41 38l133 123l117 107h-182l-16 -17l-93 -84l-92 84l-16 17h-182z" />
<glyph unicode="&#x17e;" horiz-adv-x="942" d="M10 0h72h82h655h82v164h-82h-502l496 733l86 127h-72h-82h-544h-82v-164h82h391l-496 -733zM155 1393l116 -107l133 -123l41 -39l41 39l134 123l116 107h-182l-16 -17l-93 -84l-92 84l-16 17h-182z" />
<glyph unicode="&#x17f;" horiz-adv-x="491" d="M123 942l2 -862l2 -82l162 4l-2 80v860q1 74 4 123.5t13.5 85.5t22 56t37 33.5t49.5 18.5t68 11l82 12l-22 162l-80 -10q-60 -8 -104 -22t-91 -47.5t-76 -84.5t-48 -137t-19 -201z" />
<glyph unicode="&#x192;" horiz-adv-x="716" d="M-14 -276l32 -160l80 16q52 11 92.5 40.5t68.5 70t50.5 102.5t37 126t28.5 151l127 790h86h82v164h-82h-58q27 138 63.5 188t111.5 58l81 8l-16 164l-82 -8q-134 -14 -209.5 -115.5t-113.5 -294.5h-70h-82v-164h82h43l-123 -766q-34 -201 -62 -271.5t-87 -82.5z" />
<glyph unicode="&#x2c6;" horiz-adv-x="552" d="M-14 1126h182l16 17l92 84l93 -84l16 -17h182l-116 107l-134 123l-41 39l-40 -39l-134 -123z" />
<glyph unicode="&#x2c7;" horiz-adv-x="552" d="M-14 1372l116 -106l134 -123l40 -39l41 39l134 123l116 106h-182l-16 -16l-93 -84l-92 84l-16 16h-182z" />
<glyph unicode="&#x2c9;" horiz-adv-x="563" d="M51 1096h62h307h61v123h-61h-307h-62v-123z" />
<glyph unicode="&#x2ca;" horiz-adv-x="348" d="M27 1096h135l16 34l82 175l41 88h-135l-16 -35l-82 -174z" />
<glyph unicode="&#x2cb;" horiz-adv-x="348" d="M27 1393l41 -88l82 -175l16 -34h135l-41 88l-82 174l-16 35h-135z" />
<glyph unicode="&#x2cd;" horiz-adv-x="604" d="M82 -113v-143h72h307h71v143h-71h-307h-72z" />
<glyph unicode="&#x2d7;" horiz-adv-x="696" d="M51 332h72h450h72v143h-72h-450h-72v-143z" />
<glyph unicode="&#x2d8;" horiz-adv-x="614" d="M82 1331q0 -76 69.5 -135t155.5 -59q88 -1 156.5 58t68.5 136h-122q0 -71 -103 -71q-50 -1 -76 17.5t-26 53.5h-123z" />
<glyph unicode="&#x2d9;" horiz-adv-x="573" d="M205 1239h164v82v2v82h-164v-82v-2v-82z" />
<glyph unicode="&#x2da;" horiz-adv-x="552" d="M113 1188q0 -78 46.5 -126t127.5 -48q82 -1 128 47.5t46 126.5q2 75 -46 124.5t-128 49.5q-79 -1 -126.5 -49t-47.5 -125zM215 1188q0 46 12.5 59t59.5 13q49 -1 60 -13t11 -59q2 -48 -10 -60t-61 -12q-45 -1 -58.5 12.5t-13.5 59.5z" />
<glyph unicode="&#x2db;" horiz-adv-x="481" d="M51 -203q1 -59 44.5 -110t114.5 -64.5t161 39.5l51 31l-64 104l-53 -33q-40 -25 -69 -16.5t-44.5 33.5t-15.5 55q0 25 38 76.5t76 89.5l38 39l-90 8l-50 -37q-6 -4 -15 -11.5t-32.5 -31.5t-41.5 -48t-33 -58t-15 -66z" />
<glyph unicode="&#x2dc;" horiz-adv-x="768" d="M92 1225h123q0 65 57 65q23 -1 35.5 -9.5t36.5 -33.5q70 -84 162 -84q70 -1 125 59t55 130h-123q0 -66 -57 -66h-2q-20 -1 -32.5 7.5t-35.5 35.5h-2q-18 20 -26.5 27.5t-30.5 24.5t-48 24.5t-57 7.5q-68 -2 -124 -60t-56 -128z" />
<glyph unicode="&#x2dd;" horiz-adv-x="634" d="M68 1096h135l16 34l82 175l41 88h-135l-17 -35l-81 -174zM313 1096h136l16 34l82 175l41 88h-135l-17 -35l-82 -174z" />
<glyph unicode="&#x2000;" horiz-adv-x="952" />
<glyph unicode="&#x2001;" horiz-adv-x="1904" />
<glyph unicode="&#x2002;" horiz-adv-x="952" />
<glyph unicode="&#x2003;" horiz-adv-x="1904" />
<glyph unicode="&#x2004;" horiz-adv-x="634" />
<glyph unicode="&#x2005;" horiz-adv-x="476" />
<glyph unicode="&#x2006;" horiz-adv-x="317" />
<glyph unicode="&#x2007;" horiz-adv-x="317" />
<glyph unicode="&#x2008;" horiz-adv-x="238" />
<glyph unicode="&#x2009;" horiz-adv-x="380" />
<glyph unicode="&#x200a;" horiz-adv-x="105" />
<glyph unicode="&#x2013;" d="M0 410h1065v163h-1065v-163z" />
<glyph unicode="&#x2014;" horiz-adv-x="1884" d="M0 410h1884v163h-1884v-163z" />
<glyph unicode="&#x2018;" horiz-adv-x="327" d="M92 911h144v72q0 82 1 113.5t8 71t23 69.5l33 63l-127 66l-33 -63q-23 -45 -34.5 -100.5t-13 -96.5t-1.5 -123v-72z" />
<glyph unicode="&#x2019;" horiz-adv-x="327" d="M70 948l129 -59l30 63q22 48 33 105t12.5 96.5t1.5 116.5v71h-143v-71q0 -73 -1.5 -106t-9 -73.5t-24.5 -76.5z" />
<glyph unicode="&#x201a;" horiz-adv-x="368" d="M66 -233l127 -70l34 63q34 62 41.5 123t7.5 199v72h-143v-72q0 -129 -5 -170t-28 -82z" />
<glyph unicode="&#x201c;" horiz-adv-x="573" d="M92 911h144v72q0 79 1 110t8 71.5t23 72.5l33 66l-129 63l-31 -63q-23 -46 -34.5 -103t-13 -97.5t-1.5 -119.5v-72zM338 911h143v72q0 76 1 109.5t8.5 73t23.5 71.5l33 66l-129 63l-31 -63q-23 -46 -34.5 -103t-13 -97.5t-1.5 -119.5v-72z" />
<glyph unicode="&#x201d;" horiz-adv-x="573" d="M68 950l129 -63l30 63q23 46 34.5 103t13 97.5t1.5 119.5v71h-143v-71q0 -108 -5 -158.5t-28 -95.5zM313 950l129 -63l31 63q23 46 34.5 103t13 97.5t1.5 119.5v71h-143v-71q0 -108 -5 -158.5t-28 -95.5z" />
<glyph unicode="&#x201e;" horiz-adv-x="614" d="M68 -238l129 -63l30 63q23 46 34.5 103t13 97.5t1.5 119.5v72h-143v-72q0 -108 -5 -158.5t-28 -95.5zM313 -238l129 -63l31 63q23 46 34.5 103t13 97.5t1.5 119.5v72h-143v-72q0 -108 -5 -158.5t-28 -95.5z" />
<glyph unicode="&#x2020;" horiz-adv-x="1024" d="M41 819h82h307v-1065v-82h164v82v1065h307h82v164h-82h-307v287v82h-164v-82v-287h-307h-82v-164z" />
<glyph unicode="&#x2021;" horiz-adv-x="1024" d="M41 41h82h307v-287v-82h164v82v287h307h82v164h-82h-307v614h307h82v164h-82h-307v287v82h-164v-82v-287h-307h-82v-164h82h307v-614h-307h-82v-164z" />
<glyph unicode="&#x202f;" horiz-adv-x="380" />
<glyph unicode="&#x2039;" horiz-adv-x="737" d="M96 537l47 -54l328 -372l25 -29h217l-119 135l-281 320l281 319l119 135h-217l-25 -28l-328 -373z" />
<glyph unicode="&#x203a;" horiz-adv-x="737" d="M25 82h217l24 29l328 372l47 54l-47 53l-328 373l-24 28h-217l118 -135l281 -319l-281 -320z" />
<glyph unicode="&#x205f;" horiz-adv-x="476" />
<glyph unicode="&#x25fc;" horiz-adv-x="1024" d="M0 0v1024h1024v-1024h-1024z" />
</font>
</defs>
</svg>
