<?xml version="1.0" encoding="UTF-8" standalone="no"?>
<!-- Created with Inkscape (http://www.inkscape.org/) -->

<svg
   xmlns:dc="http://purl.org/dc/elements/1.1/"
   xmlns:cc="http://creativecommons.org/ns#"
   xmlns:rdf="http://www.w3.org/1999/02/22-rdf-syntax-ns#"
   xmlns:svg="http://www.w3.org/2000/svg"
   xmlns="http://www.w3.org/2000/svg"
   xmlns:sodipodi="http://sodipodi.sourceforge.net/DTD/sodipodi-0.dtd"
   xmlns:inkscape="http://www.inkscape.org/namespaces/inkscape"
   width="816"
   height="256"
   id="svg2280"
   sodipodi:version="0.32"
   inkscape:version="0.48.1 r9760"
   sodipodi:docname="racket-logo.svg"
   inkscape:output_extension="org.inkscape.output.svg.inkscape"
   version="1.1">
  <defs
     id="defs2282">
    <inkscape:perspective
       sodipodi:type="inkscape:persp3d"
       inkscape:vp_x="0 : 526.18109 : 1"
       inkscape:vp_y="0 : 1000 : 0"
       inkscape:vp_z="744.09448 : 526.18109 : 1"
       inkscape:persp3d-origin="372.04724 : 350.78739 : 1"
       id="perspective14" />
  </defs>
  <sodipodi:namedview
     id="base"
     pagecolor="#ffffff"
     bordercolor="#666666"
     borderopacity="1.0"
     gridtolerance="10000"
     guidetolerance="10"
     objecttolerance="10"
     inkscape:pageopacity="0.0"
     inkscape:pageshadow="2"
     inkscape:zoom="2.8"
     inkscape:cx="403.49255"
     inkscape:cy="86.536064"
     inkscape:document-units="px"
     inkscape:current-layer="layer1"
     inkscape:window-width="1920"
     inkscape:window-height="1000"
     inkscape:window-x="0"
     inkscape:window-y="24"
     showgrid="true"
     inkscape:window-maximized="1">
    <inkscape:grid
       type="xygrid"
       id="grid3762"
       empspacing="4"
       visible="true"
       enabled="true"
       snapvisiblegridlinesonly="false"
       spacingx="4px"
       spacingy="4px" />
  </sodipodi:namedview>
  <metadata
     id="metadata2285">
    <rdf:RDF>
      <cc:Work
         rdf:about="">
        <dc:format>image/svg+xml</dc:format>
        <dc:type
           rdf:resource="http://purl.org/dc/dcmitype/StillImage" />
        <dc:title />
      </cc:Work>
    </rdf:RDF>
  </metadata>
  <g
     inkscape:label="Layer 1"
     inkscape:groupmode="layer"
     id="layer1"
     transform="translate(0,-796.3622)">
    <rect
       style="fill:#ffffff;fill-opacity:1;fill-rule:nonzero;stroke:none;stroke-width:0.50000000000000000;stroke-linecap:round;stroke-linejoin:miter;stroke-miterlimit:4;stroke-opacity:1;stroke-dasharray:none"
       id="rect3766"
       width="816"
       height="256"
       x="0"
       y="0"
       transform="translate(0,796.3622)" />
    <rect
       style="fill:#a00013;fill-opacity:1;fill-rule:nonzero;stroke:none"
       id="rect3785"
       width="816"
       height="207.99986"
       x="0"
       y="820.3623" />
    <path
       sodipodi:type="arc"
       style="fill:#001760;fill-opacity:1;fill-rule:nonzero;stroke:#ffffff;stroke-width:0.44354862;stroke-miterlimit:4;stroke-opacity:1;stroke-dasharray:none"
       id="path3783"
       sodipodi:cx="12.25"
       sodipodi:cy="1.75"
       sodipodi:rx="13.75"
       sodipodi:ry="13.75"
       d="m 26,1.75 a 13.75,13.75 0 1 1 -27.5,0 13.75,13.75 0 1 1 27.5,0 z"
       transform="matrix(9.0181816,0,0,9.0181728,65.52727,908.58086)" />
    <path
       style="fill:#ffffff;fill-opacity:1;stroke:#001760;stroke-width:4;stroke-miterlimit:6.14433336;stroke-opacity:1;stroke-dasharray:none"
       d="m 87.05987,834.30249 c 4.34431,4.6528 3.68894,6.1224 5.58503,5.7696 7.256,-1.7576 17.45,-5.4672 22.81282,1.9032 9.90889,13.6184 16.29798,30.0304 16.47061,46.58157 0.158,15.1504 -14.22339,41.3696 -24.95827,60.164 -10.37099,18.1576 -19.46987,37.0704 -31.08684,54.49684 2.7781,3.676 6.79253,2.24 10.57072,1.672 3.22665,-0.488 6.4525,-0.9656 9.67875,-1.4504 10.40473,-24.66804 10.14189,-24.30164 20.68809,-48.91684 3.13285,-7.312 16.22366,-40.928 22.62271,-45.9872 6.26652,3.832 18.36528,37.2968 21.19377,44.0992 10.67928,25.6824 10.46372,27.5808 19.97275,53.71924 2.48889,0.864 4.41173,2.648 7.40422,0.9608 5.34294,-3.016 13.44007,-6.2272 18.61058,-11.52164 -1.47535,-7.1528 -5.83318,-14.0184 -9.10315,-20.724 -17.92833,-36.7664 -35.95339,-75.3848 -47.41088,-114.77437 -4.21976,-12.3984 -9.41585,-27.3368 -22.8453,-32.232 -13.5823,-3.3024 -28.70895,2.2816 -40.20561,6.24 z"
       id="path4218"
       sodipodi:nodetypes="ccssscscscscscsccc"
       inkscape:connector-curvature="0" />
    <path
       style="fill:#ffffff;fill-opacity:1;stroke:#001760;stroke-width:4;stroke-linecap:butt;stroke-linejoin:miter;stroke-miterlimit:6.14433336;stroke-opacity:1;stroke-dasharray:none"
       d="m 198.66056,983.05046 c 0.7388,-24.3952 3.15254,-55.0304 1.51722,-76.724 -0.55816,-7.4048 -2.87298,-9.4192 -18.11705,-7.4064 -1.65572,0.472 -1.04693,-1.2904 -4.96741,-6.068 12.42648,-3.8736 27.08982,-7.01197 34.87572,-4.6616 7.60613,2.296 6.70563,6.8592 9.3837,12.2984 23.25801,-15.98397 48.95796,-16.93357 77.88887,-9.0632 2.22744,4.4464 0.6144,6.3368 -1.25055,10.9736 -0.79128,1.9672 -2.60947,4.3112 -4.25705,7.8496 -16.84962,-9.3488 -46.96447,-9.788 -70.03883,6.7728 -1.11532,8.0608 0.5928,29.5744 1.22297,40.336 0.93575,15.9808 1.12643,34.4032 1.62419,46.22004 -4.30045,4.3672 -3.7136,3.7848 -7.96337,3.7632 -10.28591,-0.08 -20.51715,-0.088 -20.51715,-0.088 0,0 0.2904,-14.02244 0.59872,-24.20244 z"
       id="path3780"
       inkscape:connector-curvature="0"
       sodipodi:nodetypes="ssccsccsccscscs" />
    <rect
       style="fill:#ffffff;fill-opacity:1;stroke:#001760;stroke-width:4;stroke-linecap:round;stroke-linejoin:miter;stroke-miterlimit:6.14433336;stroke-opacity:1;stroke-dasharray:none"
       id="rect3784"
       width="17.150349"
       height="16.404684"
       x="260"
       y="987.95801" />
    <g
       transform="matrix(8.0627896,0,0,7.9376994,48,-7366.5349)"
       style="font-size:31.82614517px;font-style:normal;font-variant:normal;font-weight:bold;font-stretch:normal;line-height:125%;letter-spacing:0px;word-spacing:0px;fill:#001760;fill-opacity:1;stroke:#ffffff;stroke-width:0.5;stroke-miterlimit:4;stroke-opacity:1;stroke-dasharray:none;font-family:Arial;-inkscape-font-specification:Arial Bold"
       id="text3764">
      <path
         d="m 1.5009012,1060.1179 c -1.54365685,-2.0373 -2.8490248,-4.4215 -3.9161077,-7.1523 -1.06709,-2.7311 -1.6006333,-5.5595 -1.6006314,-8.4856 -1.9e-6,-2.5792 0.3988605,-5.0501 1.1965885,-7.4126 0.9324026,-2.7417 2.3724513,-5.4727 4.3201506,-8.1928 l 2.0046742,0 c -1.2535771,2.2542 -2.0823821,3.8635 -2.4864176,4.828 -0.63197083,1.4955 -1.12925385,3.056 -1.49185059,4.6816 -0.44548817,2.0265 -0.66822951,4.0639 -0.66822471,6.1121 -4.8e-6,5.2127 1.54882459,10.4199 4.6464929,15.6216 l -2.0046742,0"
         style="font-weight:normal;fill:#001760;fill-opacity:1;stroke:#ffffff;stroke-width:0.5;stroke-miterlimit:4;stroke-dasharray:none;-inkscape-font-specification:Arial"
         id="path3790"
         inkscape:connector-curvature="0" />
    </g>
    <g
       style="font-size:26.2868824px;font-style:normal;font-variant:normal;font-weight:normal;font-stretch:normal;line-height:125%;letter-spacing:0px;word-spacing:0px;fill:#001760;fill-opacity:1;stroke:#ffffff;stroke-width:0.5;stroke-miterlimit:4;stroke-opacity:1;font-family:DejaVu Sans Mono;-inkscape-font-specification:DejaVu Sans Mono"
       id="text3777"
       transform="matrix(8,0,0,8,0,-7366.5351)">
      <path
         d="m 45.117589,1039.1359 -0.782959,0 c -1.377672,0 -2.417338,0.2438 -3.119,0.7316 -0.693116,0.4792 -1.039671,1.1979 -1.039667,2.1563 -4e-6,0.8643 0.260982,1.536 0.782959,2.0152 0.521967,0.4792 1.245027,0.7188 2.169181,0.7188 1.300645,0 2.323197,-0.4493 3.067659,-1.3478 0.744442,-0.907 1.120946,-2.1563 1.129514,-3.7479 l 0,-0.5262 -2.207687,0 m 4.582235,-0.9755 0,8.2018 -2.374548,0 0,-2.1307 c -0.504869,0.8557 -1.14236,1.4889 -1.912473,1.8996 -0.761575,0.4022 -1.690001,0.6033 -2.78528,0.6033 -1.46324,0 -2.631259,-0.4107 -3.504062,-1.2322 -0.872809,-0.83 -1.309212,-1.9381 -1.30921,-3.3244 -2e-6,-1.6001 0.534806,-2.8152 1.604424,-3.6452 1.078168,-0.83 2.65692,-1.245 4.73626,-1.245 l 3.170341,0 0,-0.3723 c -0.0086,-1.1466 -0.299503,-1.9766 -0.872806,-2.49 -0.573324,-0.522 -1.488915,-0.783 -2.746774,-0.783 -0.804358,0 -1.617266,0.1155 -2.438725,0.3466 -0.821469,0.231 -1.621541,0.569 -2.400218,1.014 l 0,-2.3618 c 0.872803,-0.3337 1.707103,-0.5818 2.502902,-0.7444 0.804345,-0.1711 1.583024,-0.2567 2.336041,-0.2567 1.189404,0 2.203399,0.1754 3.041988,0.5262 0.847124,0.3509 1.531678,0.8771 2.053662,1.5788 0.325151,0.4279 0.556187,0.9584 0.693112,1.5916 0.136897,0.6246 0.205366,2.8238 0.205366,2.8238 z"
         style="fill:#001760;fill-opacity:1"
         id="path3793"
         inkscape:connector-curvature="0"
         sodipodi:nodetypes="cscssscccccccccscscscccsccccscccc" />
      <path
         d="m 61.252985,1045.6306 c -0.633226,0.3679 -1.28783,0.6417 -1.963815,0.8214 -0.667452,0.1883 -1.352005,0.2824 -2.053663,0.2824 -2.224809,0 -3.966142,-0.6674 -5.224004,-2.0023 -1.249315,-1.3349 -1.87397,-3.1832 -1.873968,-5.5449 -2e-6,-2.3617 0.624653,-4.21 1.873968,-5.5449 1.257862,-1.3349 2.999195,-2.0023 5.224004,-2.0023 0.693101,0 1.369098,0.09 2.027992,0.2695 0.658871,0.1797 1.322032,0.4578 1.989486,0.8343 l 0,2.4773 c -0.624669,-0.5562 -1.253603,-0.9584 -1.886803,-1.2066 -0.624667,-0.2481 -1.334891,-0.3722 -2.130675,-0.3722 -1.480357,0 -2.618427,0.4792 -3.414214,1.4376 -0.7958,0.9584 -1.193697,2.3275 -1.193692,4.1073 -5e-6,1.7713 0.397892,3.1404 1.193692,4.1073 0.804344,0.9584 1.942414,1.4376 3.414214,1.4376 0.821455,0 1.55735,-0.1241 2.207687,-0.3722 0.650315,-0.2567 1.253577,-0.6504 1.809791,-1.1809 z"
         style="fill:#001760;fill-opacity:1"
         id="path3795"
         inkscape:connector-curvature="0"
         sodipodi:nodetypes="ccscscsccccssscsccc" />
      <path
         d="m 61.655562,1031.9865 2.438724,0 0,5.9685 6.199495,-5.9685 2.875127,0 -5.660407,5.4166 6.546049,8.9591 -2.887963,0 -5.313852,-7.4189 -1.758449,1.6558 0,5.7631 -2.438724,0 z"
         style="fill:#001760;fill-opacity:1"
         id="path3797"
         inkscape:connector-curvature="0"
         sodipodi:nodetypes="ccccccccccccc" />
      <path
         d="m 84.248282,1039.7391 -10.229807,0.077 c -4e-6,1.566 0.40645,2.7768 1.219362,3.6324 0.821459,0.8557 1.976643,1.2836 3.465556,1.2836 0.753,0 1.540237,-0.1198 2.361712,-0.3594 0.821453,-0.2396 1.698537,-0.6033 2.631255,-1.091 l 0,2.3489 c -0.89849,0.3679 -1.767017,0.6417 -2.605584,0.8214 -0.830032,0.1883 -1.634383,0.2824 -2.413054,0.2824 -2.233364,0 -3.978976,-0.6674 -5.23684,-2.0023 -1.25787,-1.3434 -1.886804,-3.1917 -1.886802,-5.5449 -2e-6,-2.2932 0.616096,-4.1244 1.848296,-5.4935 1.232193,-1.3691 2.875122,-2.0537 4.928791,-2.0537 1.831172,0 3.273013,0.6204 4.325527,1.8611 1.061045,1.2408 1.591574,2.9351 1.591588,5.0828 z m -2.361712,-1.8483 c -0.03424,-1.3862 -0.363681,-2.4387 -0.988325,-3.1575 -0.616109,-0.7273 -1.506029,-1.091 -2.669762,-1.091 -1.138078,0 -2.075061,0.3765 -2.81095,1.1295 -0.735901,0.753 -1.172304,1.797 -1.30921,3.1319 z"
         style="fill:#001760;fill-opacity:1"
         id="path3799"
         inkscape:connector-curvature="0"
         sodipodi:nodetypes="cccsscccscssscccccsscc" />
      <path
         d="m 92.874976,1044.3599 1.14235,0 0,2.0023 -1.424728,0 c -1.540257,0 -2.661213,-0.4107 -3.362873,-1.2322 -0.701675,-0.8386 -1.052509,-2.1649 -1.052502,-3.979 l 0,-6.8027 -4.620741,0 0,-2.3361 11.731548,0 0,2.3361 -4.697754,0 0,6.9439 c -9e-6,1.2408 0.145459,2.0579 0.436404,2.4516 0.308039,0.4107 0.924138,0.6161 1.848296,0.6161 z"
         style="fill:#001760;fill-opacity:1"
         id="path3801"
         inkscape:connector-curvature="0"
         sodipodi:nodetypes="sccscsccccccscs" />
    </g>
    <rect
       style="fill:#001760;fill-opacity:1;fill-rule:nonzero;stroke:#ffffff;stroke-width:4;stroke-miterlimit:4;stroke-opacity:1;stroke-dasharray:none"
       id="rect3787"
       width="16"
       height="248.00015"
       x="776"
       y="800.3623" />
  </g>
</svg>