<?xml version="1.0" standalone="no"?>
<!DOCTYPE svg PUBLIC "-//W3C//DTD SVG 1.1//EN" "http://www.w3.org/Graphics/SVG/1.1/DTD/svg11.dtd" >
<svg xmlns="http://www.w3.org/2000/svg">
<metadata></metadata>
<defs>
<font id="octopus_narrow_300light" horiz-adv-x="397" >
<font-face units-per-em="1024" ascent="819" descent="-205" />
<missing-glyph horiz-adv-x="500" />
<glyph horiz-adv-x="0" />
<glyph unicode="&#xd;" horiz-adv-x="1024" />
<glyph unicode="!" horiz-adv-x="225" d="M77 -2h61v31v1v30h-61v-30v-1v-31zM77 165h61v31v493v31h-61v-31v-493v-31z" />
<glyph unicode="&#x22;" horiz-adv-x="296" d="M41 494h61v30v165v31h-61v-31v-165v-30zM164 494h61v30v165v31h-61v-31v-165v-30z" />
<glyph unicode="#" horiz-adv-x="642" d="M10 165h31h71l-17 -131l-4 -35h63l3 27l17 139h184l-16 -131l-4 -35h62l3 27l18 139h119h30v61h-30h-112l34 269h78h30v61h-30h-71l16 129l4 35h-62l-3 -27l-17 -137h-184l16 129l4 35h-63l-3 -27l-17 -137h-119h-31v-61h31h111l-33 -269h-78h-31v-61zM182 226l33 269 h184l-33 -269h-184z" />
<glyph unicode="$" horiz-adv-x="624" d="M60.5 559q-15.5 -77 1 -153.5t54.5 -76.5h125v-197h-125h-31v-61h31h125v-41v-31h61v31v41h116q26 0 44 32.5t22.5 79t0 93.5t-22 80t-43.5 34h-1h-116v184h116h31v62h-31h-116v53v31h-61v-31v-53h-125q-40 0 -55.5 -77zM100 482q-1 92 16 92h125v-184h-125q-15 0 -16 92 zM302 132v197h116q9 0 15 -20.5t7.5 -49.5t0 -58t-7.5 -49t-15 -20h-116z" />
<glyph unicode="%" horiz-adv-x="756" d="M53 -1h79l9 11l537 657l41 50h-79l-9 -11l-537 -657zM87 546q0 -86 50.5 -135.5t116.5 -49.5t114 50t47 136q1 80 -47 124.5t-114 45.5t-116.5 -45t-50.5 -126zM148 546q0 58 28.5 84t77.5 25t74.5 -25.5t24.5 -81.5v-1q3 -124 -99 -124q-48 0 -77 29.5t-29 93.5z M355 166q2 -82 49.5 -125t113.5 -42q65 1 113 46.5t48 125.5q0 85 -47.5 135t-114.5 51q-66 1 -114.5 -50.5t-47.5 -139.5v-1zM417 168q-1 67 26 98t74 30q100 -2 100 -125q0 -109 -99 -111q-48 -1 -73.5 23.5t-27.5 84.5z" />
<glyph unicode="&#x26;" horiz-adv-x="687" d="M24 242.5q-3 -44.5 11 -87.5t41.5 -78t76 -56.5t109.5 -21.5q113 0 197 107q71 -71 105 -100l9 -7h95l-63 54q-54 47 -110 104q10 15 22.5 37t20 35t16.5 26.5t16.5 19.5t14.5 6h30v61h-30q-32 -1 -60 -31t-68 -91q-6 -9 -9 -14q-111 119 -189 227q35 22 55 36t43.5 33.5 t34 38t10.5 37.5q0 66 -46.5 104.5t-94.5 37.5t-92.5 -38t-45.5 -104q0 -39 52 -123q-102 -67 -131 -130q-17 -38 -20 -82.5zM81.5 217q-0.5 42 17.5 81q19 42 111 104q78 -113 202 -247q-73 -95 -150 -95q-60 0 -102.5 22.5t-60 57.5t-18 77zM184 575q3 81 79 83 q33 1 55.5 -19t22.5 -61q0 -9 -7.5 -19t-28.5 -24.5t-33.5 -22t-46.5 -27.5q-41 65 -41 90z" />
<glyph unicode="'" horiz-adv-x="215" d="M51 495h62v30v164v31h-62v-31v-164v-30z" />
<glyph unicode="(" horiz-adv-x="317" d="M41 274q0 -123 43 -224t110 -168l8 -9h87l-52 52q-135 137 -135 349q0 113 33.5 191.5t103.5 161.5l42 50h-80l-10 -11q-74 -87 -112 -177.5t-38 -214.5z" />
<glyph unicode=")" horiz-adv-x="317" d="M6 -127h80l9 11q62 74 106.5 177t44.5 213q0 212 -151 392l-9 11h-80l42 -50q136 -160 136 -353q0 -99 -39 -190.5t-97 -160.5z" />
<glyph unicode="*" horiz-adv-x="571" d="M41 494h31h145l-72 -120l-15 -26l52 -32l17 27l71 121l72 -121l16 -27l53 32l-16 26l-71 120h145h31v61h-31h-144l70 119l16 25l-53 32l-16 -26l-72 -121l-71 121l-17 26l-52 -32l15 -25l71 -119h-144h-31v-61z" />
<glyph unicode="+" horiz-adv-x="519" d="M41 329h31h142v-133v-31h61v31v133h142h30v61h-30h-142v135v31h-61v-31v-135h-142h-31v-61z" />
<glyph unicode="," horiz-adv-x="204" d="M22 -90h68l9 16q25 51 34 178l2 33h-61l-2 -28q-8 -116 -28 -154z" />
<glyph unicode="-" d="M31 329h30h234h31v61h-31h-234h-30v-61z" />
<glyph unicode="." horiz-adv-x="225" d="M77 -2h61v31v1v30h-61v-30v-1v-31z" />
<glyph unicode="/" horiz-adv-x="363" d="M31 -1h64l6 23l190 659l11 39h-64l-7 -23l-189 -659z" />
<glyph unicode="0" horiz-adv-x="483" d="M31 358q0 -87 9 -189t25 -123q20 -23 66.5 -39.5t90.5 -16.5q43 0 90 17t63 39q18 20 27.5 121.5t9.5 190.5q0 85 -10 188.5t-26 123.5q-15 22 -63 39.5t-91 17.5q-45 0 -92.5 -17.5t-63.5 -40.5q-14 -20 -24.5 -126.5t-10.5 -184.5zM92 358q0 71 8 168t17 108 q7 11 38.5 21.5t66.5 10.5q34 0 65.5 -10.5t39.5 -22.5q9 -11 16 -105t7 -170q0 -80 -6 -171.5t-16 -101.5q-10 -13 -41 -23.5t-65 -10.5t-66 11t-44 23q-8 10 -14 104t-6 169z" />
<glyph unicode="1" horiz-adv-x="402" d="M50 513l51 -33l17 26l95 149h6v-625v-31h62v31v656v31h-31h-53h-17l-9 -15l-104 -163z" />
<glyph unicode="2" horiz-adv-x="468" d="M41 -1h326h30v61h-30h-264q4 34 27 71.5t45.5 62.5t66.5 69q48 49 75.5 80.5t53.5 84t26 101.5q0 40 -10 86.5t-27 67.5q-19 21 -59.5 32.5t-81.5 11.5t-81.5 -11.5t-60.5 -32.5q-17 -21 -26.5 -68t-9.5 -86v-30h61v30q0 33 6.5 67.5t15.5 45.5q21 24 95 24q75 0 94 -24 q10 -11 16.5 -45t6.5 -68q0 -29 -9.5 -56.5t-33.5 -59.5t-40.5 -50t-53.5 -57q-37 -37 -57.5 -60t-48 -59t-40 -71.5t-12.5 -72.5v-44z" />
<glyph unicode="3" horiz-adv-x="492" d="M35 151q15 -84 42 -114q18 -23 61 -35t83 -12q43 0 86 13.5t68 42.5q46 52 46 181q0 122 -46 174q-39 44 -116 51l127 120l9 10v1v13l-3 91l-1 30h-30h-277v-62h248l2 -48l-146 -137l-9 -9l-6 -6l9 -20l12 -25l7 -19h20q83 0 107 -30v-1q31 -35 31 -133q0 -105 -31 -142 q-29 -34 -107 -34q-77 0 -96 25h-1q-20 24 -28 85z" />
<glyph unicode="4" horiz-adv-x="486" d="M19 285l1 -121h271v-134v-31h61v31v134h32h31v61h-31h-32v190v30h-61v-30v-190h-209l-1 47l166 403l17 42h-66l-9 -20z" />
<glyph unicode="5" horiz-adv-x="486" d="M28 138q17 -79 47 -109q16 -21 61 -31.5t83 -7.5q41 0 84 13.5t67 42.5q45 54 45 181q0 117 -45 184q-46 69 -152 69q-60 0 -111 -31l28 206h220v62h-273l-49 -362l77 -7q29 71 108 71q72 0 100 -43q35 -52 35 -149q0 -105 -30 -142q-26 -34 -106 -34q-31 -2 -59.5 3.5 t-35.5 15.5q-21 21 -35 83z" />
<glyph unicode="6" horiz-adv-x="488" d="M41 238q-2 -37 7.5 -93t25.5 -84q19 -31 65.5 -51t89.5 -20q42 0 89 20t66 51q17 28 26 80t7 98q0 111 -45 172q-49 71 -220 71h-8q36 96 109 185l42 50h-80l-9 -11q-165 -195 -165 -468zM102 236q0 96 23 185h27q84 0 118.5 -10t52.5 -35q32 -45 32 -139q2 -39 -5 -81 t-19 -64q-10 -18 -39.5 -29.5t-62.5 -11.5q-34 0 -63 11.5t-39 29.5q-12 21 -19.5 66.5t-5.5 77.5z" />
<glyph unicode="7" horiz-adv-x="479" d="M51 655h31h264v-42q-81 -129 -132 -260t-91 -317l-8 -37h62l5 25q40 183 90.5 309.5t135.5 261.5v122h-326h-31v-62z" />
<glyph unicode="8" horiz-adv-x="493" d="M41 238q-2 -39 7.5 -94t26.5 -83q17 -31 63.5 -51t93.5 -20q45 0 92.5 20t63.5 51q34 55 34 177q0 134 -46 185q-15 18 -36 30q32 38 32 119q0 80 -37 114q-37 31 -103 31q-71 0 -104 -31q-38 -35 -36 -114q-2 -81 31 -119q-23 -13 -36 -29q-46 -52 -46 -186zM102 236 q0 111 32 147q30 36 98 36q67 0 97 -37q31 -34 31 -144q0 -103 -25 -146q-9 -18 -38 -29.5t-65 -11.5q-37 0 -66 11t-38 30q-13 21 -20.5 65.5t-5.5 78.5zM154 572q-1 53 15 69q16 14 63 14q44 0 62 -14q16 -16 16 -69q0 -61 -17 -78q-16 -14 -61 -14q-48 0 -62 13 q-18 19 -16 79z" />
<glyph unicode="9" horiz-adv-x="490" d="M51 485q0 -128 36 -178q40 -66 149 -66h62q-16 -38 -48 -106.5t-42 -92.5l-20 -43h67l8 18q8 18 38.5 82t44.5 97t34.5 88.5t29.5 104.5t9 96q0 119 -36 172q-24 34 -64.5 52t-82.5 18q-43 0 -85.5 -18.5t-63.5 -51.5q-36 -50 -36 -172zM113 485q0 103 25 138 q26 43 98 43q68 0 96 -43q25 -35 25 -138q0 -81 -35 -183h-9h-77q-76 0 -98 38q-25 37 -25 145z" />
<glyph unicode=":" horiz-adv-x="225" d="M87 23h61v30v1v31h-61v-31v-1v-30zM87 429h61v31v1v31h-61v-31v-1v-31z" />
<glyph unicode=";" horiz-adv-x="204" d="M20 -90h70l9 16q25 50 34 178l2 33h-61l-2 -28q-9 -117 -28 -154zM56 427h62v31v1v30h-62v-30v-1v-31z" />
<glyph unicode="&#x3c;" horiz-adv-x="579" d="M41 339l19 -8l406 -165l42 -18v67l-20 8l-334 136l334 137l20 8v66l-42 -17l-406 -165l-19 -8v-41z" />
<glyph unicode="=" horiz-adv-x="579" d="M41 196h31h405h31v61h-31h-405h-31v-61zM41 436h31h405h31v62h-31h-405h-31v-62z" />
<glyph unicode="&#x3e;" horiz-adv-x="579" d="M41 148l42 18l405 165l20 8v41l-20 8l-405 165l-42 17v-66l19 -8l335 -137l-335 -136l-19 -8v-67z" />
<glyph unicode="?" horiz-adv-x="548" d="M41 525h61q0 65 44 99.5t113 33.5t113 -36t44 -98q0 -22 -13 -42.5t-24.5 -30.5t-45.5 -37q-32 -26 -50 -44.5t-36.5 -55.5t-18.5 -78v-81h62v81q0 28 13 53t26.5 39t42.5 39q23 18 30 24t26 24t26.5 31t15 34.5t7.5 43.5q0 85 -66 140t-152 56t-152 -53.5t-66 -141.5z M229 -3h62v31v2v30h-62v-30v-2v-31z" />
<glyph unicode="A" horiz-adv-x="560" d="M-9 0h63l6 23l39 140h10h275h6l38 -140l6 -23h64l-11 39l-184 678h-118l-184 -678zM115 224l117 431h24l117 -431h-258z" />
<glyph unicode="B" horiz-adv-x="551" d="M51 0h261q39 0 74 17.5t54 40.5q18 21 29 60t11 77q0 39 -11 77t-29 59q-20 23 -48 38q17 14 19 17q18 21 28.5 59.5t10.5 76.5t-10.5 76.5t-28.5 59.5q-21 24 -58 41.5t-77 17.5h-225v-328v-61v-328zM113 61v267h163h36q51 0 81 -36q26 -29 26 -97q0 -69 -26 -98 q-30 -36 -81 -36h-199zM113 389v266h163q59 0 88 -35q24 -29 24 -98q0 -68 -24 -97q-30 -36 -88 -36h-163z" />
<glyph unicode="C" horiz-adv-x="561" d="M31 358q8 -215 73 -290q66 -78 177 -78h13q74 0 122 27q26 14 52 52t41 85l-59 18q-23 -77 -65 -101q-37 -20 -92 -20h-1h-11q-82 0 -129 55q-52 60 -60 252q2 80 17 150.5t43 100.5q48 57 129 57h11q54 0 102 -31q35 -20 53 -90l60 16q-7 29 -28 68t-52 59 q-66 39 -133 39h-14q-110 0 -176 -77q-34 -40 -52.5 -122t-20.5 -169v-1z" />
<glyph unicode="D" horiz-adv-x="581" d="M51 0h232q111 4 171 85q56 72 56 260v13v13q0 189 -56 261q-60 81 -171 85h-232v-717zM113 61v594h168q81 -3 123 -60q45 -59 45 -223v-14v-14q0 -163 -45 -222q-43 -58 -123 -61h-168z" />
<glyph unicode="E" horiz-adv-x="517" d="M51 0h364h30v61h-30h-302v267h213h30v61h-30h-213v266h302h30v62h-30h-364v-328v-61v-328z" />
<glyph unicode="F" horiz-adv-x="443" d="M51 0h62v31v297h228h31v61h-31h-228v266l290 -1h31v62h-31l-352 1v-328v-61v-297v-31z" />
<glyph unicode="G" horiz-adv-x="561" d="M31 358q2 -209 61 -284l1 -1q68 -83 180 -83q63 0 110 18q48 20 98 73l8 8v269v31h-30h-186v-61h155v-214q-28 -33 -68 -48q-38 -15 -87 -15q-83 0 -133 61q-46 60 -48 246v12q0 71 12 135q12 69 36 100q50 61 133 61q22 -1 58.5 -12.5t54.5 -25.5q14 -13 27 -41t15 -47 l61 10q-5 27 -22.5 65.5t-39.5 58.5v1q-26 20 -74.5 35.5t-78.5 16.5h-1q-112 0 -180 -83q-32 -40 -47 -120q-15 -76 -15 -156v-10z" />
<glyph unicode="H" horiz-adv-x="542" d="M51 0h62v31v297h297v-297v-31h61v31v297v61v297v31h-61v-31v-297h-297v297v31h-62v-31v-297v-61v-297v-31z" />
<glyph unicode="I" horiz-adv-x="194" d="M51 0h62v31v655v31h-62v-31v-655v-31z" />
<glyph unicode="J" horiz-adv-x="259" d="M0 -61v-62h31q79 0 117 58q39 53 39 148v603v31h-61v-31v-603q0 -74 -29 -113q-20 -31 -66 -31h-31z" />
<glyph unicode="K" horiz-adv-x="504" d="M51 0h62v31v282l266 -303l9 -10h82l-44 51l-252 285v45l252 285l44 51h-82l-9 -10l-266 -304v283v31h-62v-31v-655v-31z" />
<glyph unicode="L" horiz-adv-x="460" d="M51 0h328h31v61h-31h-266v625v31h-62v-31v-686z" />
<glyph unicode="M" horiz-adv-x="735" d="M51 0h62v31v624h31l145 -655h68h69l144 655h32v-624v-31h62v31v686h-143l-144 -656h-20h-19l-144 656h-143v-686v-31z" />
<glyph unicode="N" horiz-adv-x="555" d="M51 0h62v31v624h33l197 -655h140v686v31h-61v-31v-625h-34l-197 656h-140v-686v-31z" />
<glyph unicode="O" horiz-adv-x="590" d="M31 358q2 -210 63 -285q64 -83 181 -83t181 83q63 78 63 285q0 208 -63 286q-64 83 -181 83t-181 -83q-32 -40 -48 -120q-15 -76 -15 -156v-10zM92 358v11q0 73 12 136q13 68 39 100q46 61 132 61t132 -61q51 -61 51 -247q0 -185 -51 -246q-46 -61 -132 -61t-132 61 q-49 58 -51 246z" />
<glyph unicode="P" horiz-adv-x="541" d="M51 0h62v31v297h148q51 0 102 11.5t71 34.5q17 21 26.5 64t9.5 84q0 39 -9.5 83.5t-26.5 65.5q-19 23 -69 34.5t-104 11.5h-210v-328v-61v-297v-31zM113 389v266h148q105 0 126 -23q22 -27 22 -110q0 -82 -22 -109q-9 -10 -46.5 -17t-79.5 -7h-148z" />
<glyph unicode="Q" horiz-adv-x="590" d="M31 358q2 -210 63 -285q47 -61 130 -78v-56l22 -8l152 -49l40 -12v64l-21 8l-150 48h8q117 0 181 83q63 78 63 285q0 208 -63 286q-64 83 -181 83t-181 -83q-33 -40 -48 -120q-15 -76 -15 -156v-10zM92 358v11q0 73 12 136q13 68 39 100q46 61 132 61t132 -61 q51 -61 51 -247q0 -185 -51 -246q-46 -61 -132 -61t-132 61q-49 58 -51 246z" />
<glyph unicode="R" horiz-adv-x="541" d="M51 0h62v31v297h130l170 -312l8 -16h69l-24 45l-155 285q93 9 123 44q17 21 26.5 64t9.5 84q0 39 -9.5 83.5t-26.5 65.5q-19 23 -69 34.5t-104 11.5h-210v-328v-61v-297v-31zM113 389v266h148q105 0 126 -23q22 -27 22 -110q0 -82 -22 -109q-9 -10 -46.5 -17t-79.5 -7 h-51h-97z" />
<glyph unicode="S" horiz-adv-x="530" d="M28 196q21 -108 60 -150q24 -25 74.5 -40.5t92.5 -15.5q102 0 154 49v1q50 50 50 149q0 56 -35.5 98.5t-86.5 68.5t-102 49.5t-86.5 54t-35.5 67.5q0 79 30 106h1q33 33 111 33q61 0 97 -39q26 -29 33 -117l61 4q-8 110 -49 154q-24 27 -63.5 43t-78.5 16 q-41 0 -85 -12.5t-69 -36.5q-50 -49 -50 -151q0 -47 25.5 -84.5t64 -60.5t83.5 -46.5t83.5 -41.5t64 -45.5t25.5 -59.5q0 -75 -31 -106q-33 -32 -111 -32q-34 0 -70 10.5t-52 26.5v1q-29 29 -44 117z" />
<glyph unicode="T" horiz-adv-x="486" d="M20 655h31h156v-624v-31h61v31v624h157h31v62h-31h-157h-61h-156h-31v-62z" />
<glyph unicode="U" horiz-adv-x="562" d="M51 284q3 -70 19.5 -136.5t44.5 -99.5q54 -58 156 -58t156 58q55 65 63 235v403v31h-61v-31v-401q-7 -149 -47 -196q-37 -38 -111 -38t-111 38q-39 47 -47 197v400v31h-62v-31v-402z" />
<glyph unicode="V" horiz-adv-x="522" d="M13 717l9 -37l148 -680h132l148 680l8 37h-63l-5 -25l-137 -631h-34l-138 631l-5 25h-63z" />
<glyph unicode="W" horiz-adv-x="800" d="M27 717l4 -34l75 -683h141l114 655h19h18l116 -655h139l76 683l4 34h-62l-3 -28l-70 -628h-33l-115 656h-70h-70l-114 -656h-34l-70 628l-3 28h-62z" />
<glyph unicode="X" horiz-adv-x="542" d="M31 0h69l9 16l152 287l153 -287l8 -16h70l-25 45l-172 322l163 305l24 45h-69l-9 -17l-143 -269l-143 269l-8 17h-70l25 -45l162 -305l-172 -322z" />
<glyph unicode="Y" horiz-adv-x="524" d="M7 717l16 -41l154 -430h29v-215v-31h61v31v215h28l156 430l15 41h-66l-7 -21l-141 -389h-32l-140 389l-7 21h-66z" />
<glyph unicode="Z" horiz-adv-x="544" d="M41 0h401h31v61h-31h-340v22l356 532v102h-354h-30v-62h30h292v-21l-355 -533v-101z" />
<glyph unicode="[" horiz-adv-x="379" d="M63 -158v-30h31h184h30v61h-30h-153v750h153h30v61h-30h-184h-31v-31v-811z" />
<glyph unicode="\" horiz-adv-x="390" d="M30 720l12 -40l216 -660l7 -21h65l-13 40l-216 659l-7 22h-64z" />
<glyph unicode="]" horiz-adv-x="379" d="M63 -127v-61h31h184h30v30v811v31h-30h-184h-31v-61h31h153v-750h-153h-31z" />
<glyph unicode="^" horiz-adv-x="481" d="M24 329h67l8 17l128 270l124 -270l8 -17h68l-20 44l-152 329l-8 18h-39l-8 -18l-156 -329z" />
<glyph unicode="_" horiz-adv-x="483" d="M1 -124v-61h31h492h31v61h-31h-492h-31z" />
<glyph unicode="`" horiz-adv-x="296" d="M10 720l37 -49l123 -164l9 -12h77l-37 49l-123 164l-9 12h-77z" />
<glyph unicode="a" horiz-adv-x="496" d="M31 276q2 -160 50 -221q53 -65 147 -65q82 0 136 53v-12v-31h61v31v245v246v31h-61v-31v-12q-54 53 -136 53q-94 0 -147 -65q-25 -33 -38 -96q-12 -58 -12 -117v-9zM92 276v13q0 125 38 170q33 43 98 43t98 -43q38 -45 38 -183q0 -137 -38 -182q-33 -43 -98 -43t-98 43 q-36 44 -38 182z" />
<glyph unicode="b" horiz-adv-x="506" d="M41 0h61v31v12q54 -53 137 -53q93 0 146 65q25 32 37.5 94t12.5 127t-12.5 127.5t-37.5 94.5q-53 65 -146 65q-83 0 -137 -53v176v31h-61v-31v-396v-14v-245v-31zM102 276v17q2 124 38 166q33 43 99 43q64 0 97 -43q38 -45 38 -183q0 -137 -38 -182q-33 -43 -97 -43 q-66 0 -99 43q-36 44 -38 182z" />
<glyph unicode="c" horiz-adv-x="459" d="M32 276q2 -162 53 -221q54 -65 151 -65h13q55 0 87 15h2q48 28 79 107l-58 22q-22 -59 -50 -74q-21 -9 -57 -9h-14q-68 0 -106 43q-37 45 -39 182v12q0 125 39 171q38 43 105 43h1h9q45 0 68 -19q11 -9 24 -30.5t16 -34.5l60 16q-5 19 -23.5 50t-37.5 46q-21 16 -57 25 q-32 8 -56 8h-5q-97 0 -151 -65q-27 -32 -41 -95q-13 -59 -12 -118v-9z" />
<glyph unicode="d" horiz-adv-x="497" d="M32 276q0 -162 51 -221q52 -65 146 -65q82 0 136 53v-12v-31h61v31v245v410v31h-61v-31v-176q-54 53 -136 53q-94 0 -146 -65q-27 -32 -39 -94q-12 -58 -12 -118v-10zM93 276v13q0 125 37 170q34 43 99 43t98 -43q38 -45 38 -183q0 -137 -38 -182q-33 -43 -98 -43t-99 43 q-37 45 -37 182z" />
<glyph unicode="e" horiz-adv-x="484" d="M32 276q2 -160 50 -220q49 -66 141 -66h10q19 0 45 5q34 7 55 15l1 1q43 19 77 94l-58 25q-14 -34 -22.5 -45t-21.5 -18q-46 -17 -71 -17q-5 0 -9 1h-2q-65 0 -96 42q-32 40 -37 153h288h31v30q0 161 -47 221q-50 66 -141 66q-94 0 -143 -66q-25 -32 -38 -95 q-12 -58 -12 -117v-9zM94 307q4 113 37 152v1q31 42 94 42q58 0 91 -42q17 -23 26 -68.5t9 -84.5h-257z" />
<glyph unicode="f" horiz-adv-x="299" d="M20 492h31h17v-461v-31h61v31v461h68h30v61h-30h-68q2 109 13 129q16 27 55 27h30v61h-30q-28 0 -60.5 -15.5t-47.5 -43.5q-19 -33 -21 -158h-17h-31v-61z" />
<glyph unicode="g" horiz-adv-x="497" d="M32 276q2 -160 50 -221q53 -65 147 -65q82 0 136 53v-12q0 -83 -34 -125q-29 -39 -102 -39h-30v-62h30q103 0 151 64q23 30 34.5 77t11.5 85v245v246v31h-61v-31v-12q-54 53 -136 53q-94 0 -147 -65q-25 -33 -38 -96q-12 -58 -12 -117v-9zM93 276v13q0 125 38 170 q33 43 98 43t98 -43q38 -45 38 -183q0 -137 -38 -182q-33 -43 -98 -43t-98 43q-36 44 -38 182z" />
<glyph unicode="h" horiz-adv-x="485" d="M41 0h61v31v304v31q0 78 39 109q32 27 87 27q57 0 88 -27q36 -27 36 -108v-336v-31h62v31v336q0 106 -57 155q-46 41 -129 41q-78 0 -126 -39v165v31h-61v-31v-323v-31v-304v-31z" />
<glyph unicode="i" horiz-adv-x="204" d="M61 0h62v31v491v31h-62v-31v-491v-31zM61 607h31h1h31v62h-31h-1h-31v-62z" />
<glyph unicode="j" horiz-adv-x="232" d="M0 -117v-61h31q78 0 108 51q22 40 22 158v491v31h-62v-31v-491q0 -103 -13 -127q-12 -21 -55 -21h-31zM99 604h31h1h31v62h-31h-1h-31v-62z" />
<glyph unicode="k" horiz-adv-x="417" d="M41 0h61v31v210l190 -230l9 -11h80l-42 50l-175 213v38l175 201l44 51h-82l-9 -10l-190 -219v362v31h-61v-31v-655v-31z" />
<glyph unicode="l" horiz-adv-x="184" d="M41 0h61v31v686v31h-61v-31v-686v-31z" />
<glyph unicode="m" horiz-adv-x="733" d="M41 0h61v31v317v31q0 62 27 96q23 27 83 27q66 0 87 -21q23 -23 23 -102v-31v-317v-31h61v31v317v31q0 57 30 96q24 27 77 27q62 0 87 -23q23 -17 23 -100v-348v-31h62v31v348q0 44 -12 86.5t-33 60.5q-18 18 -55 27.5t-72 9.5q-83 0 -124 -49q-3 -3 -9 -11q-9 16 -15 21 q-17 19 -55.5 29t-74.5 10q-65 0 -110 -31v21h-61v-31v-143v-31v-317v-31z" />
<glyph unicode="n" horiz-adv-x="485" d="M41 0h61v31v305v31q0 77 39 108q32 27 87 27q57 0 88 -27q36 -27 36 -108v-336v-31h62v31v336q0 106 -57 155q-46 41 -129 41q-78 0 -126 -39v29h-61v-31v-155v-31v-305v-31z" />
<glyph unicode="o" horiz-adv-x="497" d="M32 276q2 -160 50 -221q53 -65 147 -65t147 65q25 32 37.5 94t12.5 127t-12.5 127.5t-37.5 94.5q-53 65 -147 65t-147 -65q-25 -33 -38 -96q-12 -58 -12 -117v-9zM93 276v13q0 125 38 170q33 43 98 43t98 -43q38 -45 38 -183q0 -137 -38 -182q-33 -43 -98 -43t-98 43 q-36 44 -38 182z" />
<glyph unicode="p" horiz-adv-x="506" d="M41 -147v-31h61v31v190q54 -53 137 -53q93 0 146 65q25 32 37.5 94t12.5 127t-12.5 127.5t-37.5 94.5q-53 65 -146 65q-83 0 -137 -53v12v31h-61v-31v-232v-14v-423zM102 276v17q2 124 38 166q33 43 99 43q64 0 97 -43q38 -45 38 -183q0 -137 -38 -182q-33 -43 -97 -43 q-66 0 -99 43q-36 44 -38 182z" />
<glyph unicode="q" horiz-adv-x="497" d="M32 276q2 -160 50 -221q53 -65 146 -65q83 0 137 53v-190v-31h61v31v423v246v31h-61v-31v-12q-54 53 -137 53q-93 0 -146 -65q-25 -33 -38 -96q-12 -58 -12 -117v-9zM93 276v13q0 125 38 170q33 43 97 43q66 0 99 -43q38 -45 38 -183q0 -137 -38 -182q-33 -43 -99 -43 q-64 0 -97 43q-36 44 -38 182z" />
<glyph unicode="r" horiz-adv-x="362" d="M41 0h61v31v215h1l-1 32v16q2 87 46.5 142.5t111.5 55.5h31v61h-31q-92 0 -158 -84v53v31h-61v-31v-233v-14v-244v-31z" />
<glyph unicode="s" horiz-adv-x="447" d="M19 131q16 -67 58 -103q20 -17 56.5 -27.5t70.5 -10.5q86 0 126 39q44 39 46 118v1q0 48 -29 82t-70.5 52.5t-83.5 34.5t-71 37t-29 50q1 48 24 71q27 27 87 27q47 0 74 -27h1q12 -10 16.5 -26t7.5 -51l62 6q-7 82 -46 116q-45 43 -115 43q-35 0 -71.5 -11.5t-58.5 -33.5 q-40 -40 -42 -112v-2q0 -48 29 -82t70.5 -52.5t83 -34.5t70.5 -37t29 -50q-1 -53 -25 -73v-1q-24 -23 -85 -23t-86 23v1q-27 21 -39 70z" />
<glyph unicode="t" horiz-adv-x="287" d="M20 492h31h26v-338q0 -89 20 -117q22 -37 88 -37h31v61h-31q-30 0 -37 11q-10 13 -10 82v338h47h31v61h-31h-47v113v30h-61v-30v-113h-26h-31v-61z" />
<glyph unicode="u" horiz-adv-x="485" d="M41 204q0 -49 14.5 -98t39.5 -72q43 -44 133 -44q81 0 124 38v-28h62v31v173v1v29v288v31h-62v-31v-288v-29q0 -95 -37 -126q-27 -28 -87 -28q-63 0 -90 28q-36 30 -36 125v318v31h-61v-31v-318z" />
<glyph unicode="v" horiz-adv-x="468" d="M24 553l8 -38l114 -515h137l113 516l8 37h-62l-5 -25l-104 -467h-37l-105 468l-5 24h-62z" />
<glyph unicode="w" horiz-adv-x="714" d="M27 553l4 -35l61 -518h133l93 492h19h18l95 -492h132l61 518l4 35h-62l-3 -27l-56 -465h-25l-94 492h-70h-70l-93 -492h-27l-55 465l-3 27h-62z" />
<glyph unicode="x" horiz-adv-x="466" d="M30 0h70l9 16l114 208l115 -208l8 -16h71l-26 45l-133 242l122 221l26 45h-71l-8 -16l-104 -188l-103 188l-8 16h-71l26 -45l122 -221l-134 -242z" />
<glyph unicode="y" horiz-adv-x="450" d="M35 553l7 -36l95 -517h74q-13 -66 -32.5 -92t-54.5 -26h-31v-61h31q123 0 155 205l99 490l8 37h-62l-6 -25l-96 -467h-34l-87 466l-4 26h-62z" />
<glyph unicode="z" horiz-adv-x="444" d="M31 0h311h31v61h-31h-250v18l261 372v102h-272h-31v-61h31h211v-23l-261 -372v-97z" />
<glyph unicode="{" horiz-adv-x="415" d="M29 229q64 -37 94.5 -79.5t32.5 -103.5q0 -54 15 -104.5t52 -89.5t89 -40l32 -1v61l-30 1q-49 1 -73 50.5t-24 122.5q-2 71 -34 128t-64 74q30 18 63 76.5t35 126.5q0 73 23.5 122.5t72.5 49.5h31v61h-31q-54 0 -91 -39t-51.5 -89t-14.5 -103q-4 -112 -113 -181l-14 -8 v-35z" />
<glyph unicode="|" horiz-adv-x="351" d="M74 -186v-31h61v31v875v31h-61v-31v-875z" />
<glyph unicode="}" horiz-adv-x="415" d="M29 -127v-61h30q41 0 70.5 15t46 37t26 55t12 61.5t2.5 64.5q5 103 114 176l14 9v34q-54 33 -89.5 82t-38.5 107q0 41 -6 76.5t-21.5 72.5t-48.5 59.5t-81 22.5h-30v-61h30q56 -1 76 -46t20 -125v-1q4 -67 40.5 -129t59.5 -76q-25 -15 -60.5 -70t-39.5 -128v-1 q0 -88 -18.5 -131t-77.5 -43h-30z" />
<glyph unicode="~" horiz-adv-x="579" d="M40 329h61l1 29q1 34 18 56.5t54 22.5q23 0 56 -27t71.5 -54t74.5 -27q59 0 95.5 45t36.5 95v31h-62v-31q0 -35 -17.5 -57t-52.5 -22q-19 0 -51 27t-72 54.5t-79 27.5q-62 0 -97 -45.5t-36 -93.5z" />
<glyph unicode="&#xad;" d="M31 329h30h234h31v61h-31h-234h-30v-61z" />
<glyph unicode="&#x2000;" horiz-adv-x="385" />
<glyph unicode="&#x2001;" horiz-adv-x="770" />
<glyph unicode="&#x2002;" horiz-adv-x="385" />
<glyph unicode="&#x2003;" horiz-adv-x="770" />
<glyph unicode="&#x2004;" horiz-adv-x="256" />
<glyph unicode="&#x2005;" horiz-adv-x="192" />
<glyph unicode="&#x2006;" horiz-adv-x="128" />
<glyph unicode="&#x2007;" horiz-adv-x="128" />
<glyph unicode="&#x2008;" horiz-adv-x="96" />
<glyph unicode="&#x2009;" horiz-adv-x="154" />
<glyph unicode="&#x200a;" horiz-adv-x="42" />
<glyph unicode="&#x2010;" d="M31 329h30h234h31v61h-31h-234h-30v-61z" />
<glyph unicode="&#x2011;" d="M31 329h30h234h31v61h-31h-234h-30v-61z" />
<glyph unicode="&#x2012;" d="M31 329h30h234h31v61h-31h-234h-30v-61z" />
<glyph unicode="&#x2013;" horiz-adv-x="614" d="M31 329h52h406h54v61h-54h-406h-52v-61z" />
<glyph unicode="&#x2014;" horiz-adv-x="1126" d="M31 329h104h812h108v61h-108h-812h-104v-61z" />
<glyph unicode="&#x202f;" horiz-adv-x="154" />
<glyph unicode="&#x205f;" horiz-adv-x="192" />
<glyph unicode="&#x25fc;" horiz-adv-x="552" d="M0 0v553h553v-553h-553z" />
</font>
</defs>
</svg>
