<?xml version="1.0" standalone="no"?>
<!DOCTYPE svg PUBLIC "-//W3C//DTD SVG 1.1//EN" "http://www.w3.org/Graphics/SVG/1.1/DTD/svg11.dtd" >
<svg xmlns="http://www.w3.org/2000/svg">
<metadata></metadata>
<defs>
<font id="octopus_rounded_100light" horiz-adv-x="604" >
<font-face units-per-em="1024" ascent="819" descent="-205" />
<missing-glyph horiz-adv-x="500" />
<glyph horiz-adv-x="0" />
<glyph unicode="&#xd;" horiz-adv-x="1024" />
<glyph unicode="!" horiz-adv-x="224" d="M77 8q0 -10 10 -10t10 10v1q0 10 -10 10t-10 -10v-1zM77 185q0 -10 10 -10t10 10v525q0 10 -10 10t-10 -10v-525z" />
<glyph unicode="&#x22;" horiz-adv-x="283" d="M41 535q0 -10 10 -10t10 10v175q0 10 -10 10t-10 -10v-175zM151 535q0 -10 10 -10t10 10v175q0 10 -10 10t-10 -10v-175z" />
<glyph unicode="#" horiz-adv-x="683" d="M10 185.5q0 -10.5 10 -10.5h105l-20 -165q-1 -10 9.5 -11t11.5 9l19 167h247l-19 -165q-1 -10 9 -11t11 9l20 167h147q10 0 10 10.5t-10 10.5h-145l39 329h106q10 0 10 10.5t-10 10.5h-104l19 163q1 10 -9 11t-11 -9l-20 -165h-246l19 163q1 10 -9.5 11t-11.5 -9 l-19 -165h-148q-10 0 -10 -10.5t10 -10.5h146l-39 -329h-107q-10 0 -10 -10.5zM148 196l38 329h247l-39 -329h-246z" />
<glyph unicode="$" horiz-adv-x="665" d="M61.5 560.5q-11.5 -70.5 1 -141t40.5 -70.5h158v-254h-158q-10 0 -10 -10t10 -10h158v-66q0 -10 10.5 -10t10.5 10v66h148q21 0 35 30t17 73.5t-0.5 87t-17.5 74t-34 30.5h-148v240h148q10 0 10 10.5t-10 10.5h-148v79q0 10 -10.5 10t-10.5 -10v-79h-158 q-30 0 -41.5 -70.5zM75 550q8 60 28 60h158v-240h-158q-19 0 -27.5 60t-0.5 120zM282 95v254h148q14 0 24 -26.5t12.5 -64t0.5 -74.5t-12 -63t-25 -26h-148z" />
<glyph unicode="%" horiz-adv-x="797" d="M87 555q0 -79 46.5 -121.5t111.5 -42.5q63 0 106.5 43t42.5 122q1 78 -42 119t-107 42q-65 1 -111.5 -41t-46.5 -121zM87.5 5q2.5 -5 7.5 -6t10 4l578 697q6 8 -1.5 14.5t-14.5 -1.5l-578 -698q-4 -5 -1.5 -10zM108 555q0 71 38.5 106.5t98.5 34.5q59 -1 94.5 -35 t34.5 -105q1 -72 -35 -108t-94 -36q-60 0 -98.5 36t-38.5 107zM376 158q3 -81 45 -120.5t106 -38.5t108 43t44 120q0 79 -43.5 122t-109.5 44q-64 1 -107.5 -44t-42.5 -126zM396 158q-1 74 35 112t95 37t95.5 -37.5t36.5 -107.5q0 -70 -36 -106t-95 -37q-58 -1 -93 32.5 t-38 106.5z" />
<glyph unicode="&#x26;" horiz-adv-x="728" d="M20.5 231.5q-3.5 -42.5 10.5 -84t41 -75t75 -53.5t109 -20q115 0 209 127q60 -61 134 -125q5 -4 10 -1.5t6 7.5t-4 10q-68 58 -134 126q13 18 29.5 44.5t27.5 43t23.5 33.5t24.5 25.5t23 8.5q10 0 10 10t-10 10q-14 0 -27.5 -8.5t-28.5 -26.5t-26.5 -34t-30 -44.5 t-30.5 -45.5q-144 149 -240 287q105 65 132 90q32 30 31 55q0 61 -41 95.5t-88 33.5q-46 -1 -85.5 -34t-41.5 -96q0 -39 65 -138q-123 -78 -152 -140q-18 -38 -21.5 -80.5zM39.5 228.5q3.5 39.5 20.5 75.5q26 57 145 132q100 -145 245 -294q-91 -123 -194 -123 q-57 0 -101 18t-69.5 48t-37.5 67t-8.5 76.5zM150 590q2 55 33.5 81.5t72.5 27.5q43 1 76 -27t33 -81q0 -8 -3.5 -16.5t-13 -18t-18.5 -17t-26 -19t-28 -18.5t-33 -20t-33 -20q-60 90 -60 128z" />
<glyph unicode="'" horiz-adv-x="210" d="M51 536q0 -10 10.5 -10t10.5 10v174q0 10 -10.5 10t-10.5 -10v-174z" />
<glyph unicode="(" horiz-adv-x="285" d="M41 274q0 -237 114 -397q4 -5 9.5 -4t7.5 5.5t-1 10.5q-110 156 -110 385q0 123 27.5 210t83.5 178q5 8 -4 13.5t-14 -3.5q-56 -92 -84.5 -182t-28.5 -216z" />
<glyph unicode=")" horiz-adv-x="285" d="M42 -122q3 -5 8 -5t9 5q47 75 80.5 180t33.5 216q0 212 -113 398q-5 9 -14 3.5t-4 -13.5q111 -179 111 -388q0 -108 -32 -209t-78 -177q-4 -5 -1 -10z" />
<glyph unicode="*" horiz-adv-x="612" d="M41 534.5q0 -10.5 10 -10.5h201l-99 -160q-3 -5 0 -10.5t8.5 -5.5t9.5 5l99 161l100 -161q4 -6 10 -5t8.5 5.5t-0.5 10.5l-99 160h200q10 0 10 10.5t-10 10.5h-200l99 160q3 5 0 10t-8.5 5t-9.5 -5l-100 -161l-99 161q-4 6 -10 5.5t-8.5 -5t0.5 -10.5l98 -160h-200 q-10 0 -10 -10.5z" />
<glyph unicode="+" horiz-adv-x="560" d="M41 359.5q0 -10.5 10 -10.5h183v-164q0 -10 10.5 -10t10.5 10v164h182q10 0 10 10.5t-10 10.5h-182v166q0 10 -10.5 10t-10.5 -10v-166h-183q-10 0 -10 -10.5z" />
<glyph unicode="," horiz-adv-x="231" d="M42 -83.5q2 -5.5 7 -6.5t9 3q45 50 61 182q1 6 -4 9t-10.5 1t-6.5 -8q-15 -127 -54 -170q-4 -5 -2 -10.5z" />
<glyph unicode="-" horiz-adv-x="438" d="M31 359.5q0 -10.5 10 -10.5h274q10 0 10 10.5t-10 10.5h-274q-10 0 -10 -10.5z" />
<glyph unicode="." horiz-adv-x="227" d="M77 8q0 -10 10 -10t10 10v1q0 10 -10 10t-10 -10v-1z" />
<glyph unicode="/" horiz-adv-x="404" d="M42 12q-2 -6 1.5 -10t9 -3t7.5 7l231 701q2 6 -2 10t-9.5 3t-7.5 -7z" />
<glyph unicode="0" d="M31 358q0 -93 10.5 -196.5t30.5 -120.5q23 -21 78.5 -36t110.5 -15t110.5 15t77.5 36q21 17 32 121t11 196q0 84 -12.5 191.5t-30.5 126.5q-19 20 -75.5 35.5t-112.5 15.5t-112 -15.5t-75 -35.5q-18 -19 -30.5 -126.5t-12.5 -191.5zM51 358q0 78 12 184t25 120 q15 18 67 31.5t106 13.5t106 -13.5t67 -31.5q13 -14 25 -120t12 -184q0 -87 -10 -187.5t-26 -114.5l-1 -1q-19 -18 -69.5 -31.5t-103.5 -13.5t-104 13.5t-71 31.5q-16 15 -25.5 114.5t-9.5 188.5z" />
<glyph unicode="1" horiz-adv-x="409" d="M62 538q-3 -5 0.5 -10.5t9 -5.5t9.5 5l104 169h38v-687q0 -10 10.5 -10t10.5 10v698q0 10 -11 10h-54q-6 0 -9 -5z" />
<glyph unicode="2" horiz-adv-x="583" d="M41 9q0 -10 10 -10h410q10 0 10 10t-10 10h-400v4q0 23 6.5 44.5t24 44.5t30.5 38.5t44 42t44.5 37.5t51.5 41q50 38 78 62t63 61t51.5 73t16.5 73q0 41 -12 85.5t-33 63.5q-21 18 -70 28t-100 10t-100 -10t-70 -28q-21 -19 -33 -63.5t-12 -85.5q0 -10 10 -10t10 10 q0 39 10 79t27 54q38 34 158 34t158 -34q17 -14 27 -54t10 -79q0 -34 -15 -66.5t-49 -67t-60.5 -57.5t-76.5 -61q-53 -42 -78 -63t-62 -58.5t-53 -72t-16 -71.5v-14z" />
<glyph unicode="3" horiz-adv-x="614" d="M35 145q16 -80 52 -113q20 -20 72 -31t102 -11q129 0 184 51q57 50 57 178q0 121 -57 171q-50 46 -178 46l-8 16l199 202q3 3 3 8l1 45q0 10 -10 10h-371q-10 0 -10 -10.5t10 -10.5h360l-1 -30l-200 -205q-5 -5 -2 -12l14 -28q3 -5 9 -5q126 0 170 -40v-1q50 -42 50 -156 q0 -121 -50 -163v-1q-49 -45 -170 -45q-48 0 -95.5 9.5t-64.5 26.5q-32 30 -46 104q-1 6 -6.5 7.5t-10 -2.5t-3.5 -10z" />
<glyph unicode="4" d="M19 274l1 -90q0 -10 11 -10h355v-165q0 -10 10.5 -10t10.5 10v165h74q10 0 10 10.5t-10 10.5h-74v223q0 10 -10.5 10t-10.5 -10v-223h-345l-1 77l225 429q3 6 -0.5 11t-9 5t-8.5 -5l-227 -432q-1 -2 -1 -6z" />
<glyph unicode="5" d="M27 134q20 -79 57 -110q20 -19 72 -28t100 -6q126 0 180 51q56 51 56 178q0 115 -56 182q-55 64 -180 64q-68 0 -122 -20.5t-69 -47.5l-12 4l64 295h325q10 0 10 10.5t-10 10.5h-333q-9 0 -11 -8l-67 -313q-2 -9 7 -12l29 -9q7 -1 12 5q15 27 63 45.5t114 18.5 q118 0 164 -55q51 -59 51 -170q0 -120 -49 -164q-48 -45 -166 -45h-1q-44 -2 -92 6t-65 22v1q-32 27 -51 101q-3 9 -12.5 6.5t-7.5 -12.5z" />
<glyph unicode="6" d="M41 229q-3 -38 9.5 -93.5t32.5 -82.5q22 -28 75.5 -45.5t107.5 -17.5t108 17.5t76 45.5q21 28 33 80t9 97q0 111 -57 172q-33 35 -101.5 49t-228.5 10q51 129 168 238q5 4 3 10t-7 7.5t-10 -2.5q-218 -200 -218 -485zM61 228v1q0 111 36 211q161 5 227 -7.5t97 -44.5 q50 -54 50 -158v-1q3 -43 -8 -90.5t-30 -72.5q-19 -24 -67.5 -40t-99.5 -16t-99.5 16t-67.5 40t-30 75t-8 87z" />
<glyph unicode="7" horiz-adv-x="593" d="M51 706.5q0 -10.5 10 -10.5h400v-72q-113 -137 -183 -275t-127 -337q-2 -10 7.5 -13t12.5 7q56 197 124.5 332.5t183.5 274.5q2 4 2 7v87q0 10 -10 10h-410q-10 0 -10 -10.5z" />
<glyph unicode="8" horiz-adv-x="614" d="M41 229q-2 -40 9.5 -94.5t32.5 -81.5q21 -28 75.5 -45.5t112.5 -17.5q59 0 113.5 17.5t75.5 45.5q20 27 31 77.5t11 99.5q0 52 -14 105t-44 79q-31 27 -88 39q22 7 35 17q41 32 41 117q0 73 -41 104h-1q-38 26 -119 26t-119 -26q-41 -30 -41 -104q0 -86 41 -117 q9 -8 29 -15q-52 -13 -83 -40q-57 -51 -57 -186zM61 228v1q0 126 51 169q1 0 1 1q50 45 157 45q43 -5 63.5 -8t50 -13t46.5 -25l1 -1q50 -41 50 -167q0 -116 -38 -164q-19 -24 -68 -40t-104 -16t-104 16t-68 40t-29.5 74t-8.5 88zM131 587q0 65 33 88q32 21 107 21t108 -21 q33 -24 33 -88q0 -76 -33 -101q-28 -21 -108 -21q-79 0 -107 21q-33 24 -33 101z" />
<glyph unicode="9" d="M51 493q0 -129 43 -178q49 -59 177 -59h133q-15 -29 -34.5 -63.5t-34.5 -59t-38.5 -62.5t-34.5 -57q-3 -5 0.5 -10t9 -5t9.5 5q10 17 53 87t60.5 103t46 92t40 108.5t11.5 98.5q0 120 -43 171v1q-55 62 -178 62q-54 0 -102.5 -15.5t-74.5 -46.5q-43 -50 -43 -172zM72 493 q0 114 39 157v1q49 56 160 56t161 -56q39 -47 39 -158q0 -98 -57 -217h-143q-118 0 -160 52v1q-39 43 -39 164z" />
<glyph unicode=":" horiz-adv-x="231" d="M90 34q0 -10 10.5 -10t10.5 10v1q0 10 -10.5 10t-10.5 -10v-1zM90 466q0 -10 10.5 -10t10.5 10v1q0 10 -10.5 10t-10.5 -10v-1z" />
<glyph unicode=";" horiz-adv-x="231" d="M42 -83.5q2 -5.5 6.5 -6.5t9.5 3q45 48 61 182q1 6 -4 9t-10.5 1t-6.5 -8q-16 -129 -54 -170q-4 -5 -2 -10.5zM99 469q0 -10 10 -10h1q10 0 10 10t-10 10h-1q-10 0 -10 -10z" />
<glyph unicode="&#x3c;" horiz-adv-x="620" d="M42 359.5q0 -7.5 5 -9.5l447 -175q6 -2 10.5 1.5t4 9.5t-6.5 8l-423 165l423 166q6 2 6.5 8t-4 9.5t-10.5 1.5l-447 -175q-5 -2 -5 -9.5z" />
<glyph unicode="=" horiz-adv-x="620" d="M41 218q0 -10 10 -10h447q10 0 10 10t-10 10h-447q-10 0 -10 -10zM41 473q0 -10 10 -10h447q10 0 10 10t-10 10h-447q-10 0 -10 -10z" />
<glyph unicode="&#x3e;" horiz-adv-x="620" d="M40.5 186q-0.5 -6 4 -9.5t10.5 -1.5l447 175q5 2 5 9.5t-5 9.5l-447 175q-6 2 -10.5 -1.5t-4 -9.5t6.5 -8l423 -166l-423 -165q-6 -2 -6.5 -8z" />
<glyph unicode="?" horiz-adv-x="519" d="M41 536q0 -10 10 -10t10 10q0 77 47 120.5t115 42.5t115.5 -45t47.5 -119q0 -22 -5.5 -39.5t-21 -36.5t-24.5 -28t-33 -32q-28 -27 -43 -45t-30.5 -53t-15.5 -74v-85q0 -10 10 -10t10 10v85q0 36 13.5 67t28 48t41.5 43q31 28 45.5 42.5t30 44.5t15.5 63 q0 83 -54.5 133.5t-129.5 51.5q-74 1 -128 -49.5t-54 -134.5zM214 7q0 -10 10 -10t10 10v2q0 10 -10 10t-10 -10v-2z" />
<glyph unicode="A" horiz-adv-x="737" d="M22 13q-1 -2 -1 -4q1 -3 3 -6q3 -3 6 -3h2q6 1 8 7l241 689h84l240 -689q1 -6 7 -7h3q4 0 7 3t3 6q0 2 -1 4l-243 697q-2 7 -9 7h-99q-7 0 -9 -7zM119 183.5q0 -10.5 10 -10.5h385q10 0 10 10.5t-10 10.5h-385q-10 0 -10 -10.5z" />
<glyph unicode="B" horiz-adv-x="709" d="M72 10q0 -10 10 -10h315q47 0 88 15.5t64 37.5q22 19 35 56t13 75q0 39 -13 75.5t-35 55.5q-36 36 -102 49q45 15 69 36q23 20 36.5 57t13.5 75t-13.5 75.5t-36.5 57.5q-60 52 -168 52h-266q-10 0 -10 -10v-697zM92 20v328h256h49q89 0 138 -47q42 -39 42 -117 q0 -77 -42 -116q-50 -48 -138 -48h-305zM92 369v327h256q101 0 154 -47v-1q20 -17 32 -49t12 -67t-12 -66.5t-32 -48.5v-1q-53 -47 -154 -47h-256z" />
<glyph unicode="C" horiz-adv-x="706" d="M31 358q3 -89 28 -174t65 -121q82 -73 221 -73h11q92 0 149 26q30 13 59 49t49 83q1 2 1 4t-2 6q-4 4 -9.5 4.5t-7.5 -5.5q-42 -99 -98 -122q-58 -25 -141 -25h-11q-130 0 -207 68q-38 33 -61 113.5t-26 166.5q1 84 25 166t62 115q77 68 207 68h11q81 0 154 -36 q49 -25 83 -112q2 -6 7.5 -6.5t9 4t1.5 10.5q-36 93 -93 122q-75 38 -162 38h-11q-136 0 -221 -72v-1q-41 -37 -66.5 -123.5t-26.5 -172.5z" />
<glyph unicode="D" horiz-adv-x="747" d="M72 10q0 -10 10 -10h271q137 3 211 79q36 36 54 116q17 72 17 147v16v16q-1 75 -17 148q-18 81 -54 116q-74 76 -211 79h-271q-10 0 -10 -10v-697zM92 20v676h261q130 -3 197 -72q34 -32 50 -108q15 -67 14 -140v-18v-18q0 -72 -14 -139q-16 -75 -50 -108 q-68 -70 -197 -73h-261z" />
<glyph unicode="E" horiz-adv-x="655" d="M72 10q0 -10 10 -10h450q10 0 10 10t-10 10h-440v328h320q10 0 10 10.5t-10 10.5h-320v327h440q10 0 10 10.5t-10 10.5h-450q-10 0 -10 -10v-697z" />
<glyph unicode="F" horiz-adv-x="573" d="M72 10q0 -10 10 -10t10 10v338h359q10 0 10 10.5t-10 10.5h-359v327l421 -1q10 0 10 10.5t-10 10.5l-431 1q-10 0 -10 -10v-697z" />
<glyph unicode="G" horiz-adv-x="706" d="M31 358q1 -87 22 -170.5t58 -120.5q80 -77 220 -77q80 0 137 17q60 20 122 70q4 3 4 8v273q0 11 -10 11h-253q-10 0 -10 -10.5t10 -10.5h242v-258q-56 -46 -111 -62q-57 -18 -131 -18q-132 0 -206 71q-35 34 -54 113t-20 164v8q0 79 19 156q20 80 55 114q74 71 206 71 q38 -1 92 -12.5t79 -29.5q25 -17 45.5 -52.5t25.5 -59.5q1 -6 7 -7.5t10 2.5q4 2 4 7q0 19 -29 68q-24 40 -51 58q-28 19 -85.5 32t-97.5 14q-140 0 -220 -77q-38 -37 -59 -122q-21 -81 -21 -162v-8z" />
<glyph unicode="H" horiz-adv-x="696" d="M72 10q0 -10 10 -10t10 10v338h471v-338q0 -10 10.5 -10t10.5 10v697q0 10 -10.5 10t-10.5 -10v-338h-471v338q0 10 -10 10t-10 -10v-697z" />
<glyph unicode="I" horiz-adv-x="259" d="M93 10q0 -10 10.5 -10t10.5 10v697q0 10 -10.5 10t-10.5 -10v-697z" />
<glyph unicode="J" horiz-adv-x="335" d="M0 -112.5q0 -10.5 10 -10.5q103 0 156 50q57 51 57 145v635q0 10 -10 10t-10 -10v-635q0 -82 -51 -130q-47 -44 -142 -44q-10 0 -10 -10.5z" />
<glyph unicode="K" d="M72 10q0 -10 10 -10t10 10v313q0 -6 4 -9l379 -312q3 -2 6 -2h4q6 3 6 10q0 4 -4 8l-374 310v61l374 309q4 3 4 8q0 7 -6 10q-5 2 -10 -1l-379 -313q-4 -3 -4 -8v313q0 10 -10 10t-10 -10v-697z" />
<glyph unicode="L" horiz-adv-x="583" d="M72 10q0 -10 10 -10h399q10 0 10 10t-10 10h-389v687q0 10 -10 10t-10 -10v-697z" />
<glyph unicode="M" horiz-adv-x="931" d="M72 10q0 -10 10 -10t10 10v686h34l285 -690q1 -6 9 -6h25h26q7 0 9 6l285 690h34v-686q0 -10 10 -10t10 10v697q0 10 -10 10h-51q-8 0 -9 -6l-285 -691h-19h-18l-285 691q-2 6 -9 6h-51q-10 0 -10 -10v-697z" />
<glyph unicode="N" horiz-adv-x="716" d="M72 10q0 -10 10 -10t10 10v686h27l422 -691q3 -5 9 -5h44q10 0 10 10v697q0 10 -10 10t-10 -10v-687h-28l-422 692q-3 5 -9 5h-43q-10 0 -10 -10v-697z" />
<glyph unicode="O" horiz-adv-x="747" d="M31 358q1 -87 22 -170.5t59 -120.5q82 -77 221 -77t221 77q38 37 59.5 120t21.5 171t-21.5 171.5t-59.5 120.5q-82 77 -221 77t-221 -77q-38 -37 -60 -122q-21 -81 -21 -163v-7zM51 358v8q0 80 19 156q20 80 56 114q76 71 207 71t207 -71q35 -34 54.5 -113t19.5 -165 t-19.5 -164.5t-54.5 -112.5q-76 -71 -207 -71t-207 71q-35 34 -54.5 113t-20.5 164z" />
<glyph unicode="P" horiz-adv-x="695" d="M72 10q0 -10 10 -10t10 10v338h236q68 0 129.5 10t82.5 30t32 61t11 83q0 40 -11 83t-32 62t-81.5 29.5t-130.5 10.5h-246q-10 0 -10 -10v-697zM92 369v327h236q163 0 197 -33q18 -17 27.5 -55t9.5 -76q0 -96 -37 -130q-17 -16 -74.5 -24.5t-122.5 -8.5h-236z" />
<glyph unicode="Q" horiz-adv-x="747" d="M31 358q1 -87 22 -170.5t59 -120.5q82 -77 221 -77t221 77q38 37 59.5 120t21.5 171t-21.5 171.5t-59.5 120.5q-82 77 -221 77t-221 -77q-38 -37 -60 -122q-21 -81 -21 -163v-7zM51 358v8q0 79 19 156q20 80 56 114q76 71 207 71t207 -71q35 -34 54.5 -113t19.5 -165 t-19.5 -164.5t-54.5 -112.5q-76 -71 -207 -71t-207 71q-35 34 -54.5 113t-20.5 164zM323 -34l223 -82q2 -1 4 -1q3 0 6 3t3 7v3q-1 5 -7 7l-223 82q-2 1 -4 1q-3 0 -6 -3t-3 -7q0 -8 7 -10z" />
<glyph unicode="R" horiz-adv-x="695" d="M72 10q0 -10 10 -10t10 10v338h230l242 -344q2 -4 7 -4h2q6 1 8.5 5.5t-0.5 10.5l-234 332q154 4 193 40q21 20 32 61t11 83q0 40 -11 83t-32 62t-81.5 29.5t-130.5 10.5h-246q-10 0 -10 -10v-697zM92 369v327h236q163 0 197 -33q18 -17 27.5 -55t9.5 -76q0 -96 -37 -130 q-16 -15 -73.5 -24t-120.5 -9h-5h-234z" />
<glyph unicode="S" horiz-adv-x="655" d="M106 43q31 -23 87 -38t104 -15q51 0 105 14.5t85 38.5q56 43 56 136q0 52 -48.5 93t-117.5 68t-138.5 53t-118 62.5t-48.5 82.5q0 83 47 119q29 22 79.5 36t98.5 14q45 0 94.5 -17t72.5 -38q35 -29 46 -131q0 -6 5.5 -8t10 1t4.5 9q-11 109 -52 146q-26 22 -79.5 40 t-101.5 18q-50 0 -104.5 -15t-86.5 -38q-55 -41 -55 -136q0 -44 35 -80t87 -59t113.5 -47.5t113.5 -45.5t87 -54t35 -73q0 -83 -47 -120q-28 -22 -78 -35.5t-100 -13.5q-47 0 -98.5 13.5t-79.5 35.5q-49 37 -71 134q-1 6 -7 7.5t-10 -2.5q-3 -3 -3 -8q0 -87 78 -147z" />
<glyph unicode="T" d="M21 706.5q0 -10.5 10 -10.5h241v-686q0 -10 10.5 -10t10.5 10v686h229q10 0 10 10.5t-10 10.5h-491q-10 0 -10 -10.5z" />
<glyph unicode="U" horiz-adv-x="706" d="M51 280q4 -72 26 -140.5t57 -95.5q63 -54 189 -54q125 0 188 54q35 27 57 95t26 141v1v426q0 10 -10.5 10t-10.5 -10v-426q-4 -70 -23.5 -133t-50.5 -88q-59 -50 -176 -50q-118 0 -177 50q-31 25 -50.5 88.5t-23.5 132.5v426q0 10 -10.5 10t-10.5 -10v-426v-1z" />
<glyph unicode="V" horiz-adv-x="655" d="M20 703l226 -696q4 -7 10 -7h51q7 0 10 7l226 696q1 2 1 4q0 7 -8 9q-3 1 -5 1q-6 0 -9 -7l-222 -690h-37l-222 690q-3 7 -9 7q-2 -1 -5 -1q-8 -3 -8 -9q0 -2 1 -4z" />
<glyph unicode="W" horiz-adv-x="993" d="M31 705l153 -697q2 -8 11 -8h51q6 0 10 7l182 689h18h17l172 -688q2 -8 10 -8h52q8 0 10 8l164 697q1 6 -3.5 9.5t-10.5 2t-7 -7.5l-162 -689h-34l-172 689q-2 8 -11 8h-25h-26q-6 0 -10 -7l-182 -690h-35l-152 689q-1 6 -7 7.5t-10 -2t-3 -9.5z" />
<glyph unicode="X" horiz-adv-x="675" d="M52 6q2 -6 8 -6l1 -1q5 0 9 5l237 345l238 -345q3 -5 9 -4q6 2 8 6q1 2 1 3q0 3 -2 7l-241 351l229 333q4 5 1 10q-2 6 -8 7h-2q-4 0 -8 -4l-225 -328l-225 328q-2 4 -7 4h-2q-6 -1 -8 -6t1 -11l229 -333l-242 -351q-2 -3 -2 -6q0 -2 1 -4z" />
<glyph unicode="Y" horiz-adv-x="665" d="M22 701l225 -435q3 -5 9 -5h22q-2 -2 -2 -5v-246q0 -10 10.5 -10t10.5 10v246q0 4 -1 5h21q7 0 10 5l225 435q1 3 1 5q0 3 -1 6q-4 5 -9.5 5t-8.5 -5l-223 -430h-49l-222 430q-3 5 -8.5 5t-9.5 -5q-1 -3 -1 -6q0 -2 1 -5z" />
<glyph unicode="Z" horiz-adv-x="686" d="M41 10q0 -10 10 -10h512q10 0 10 10t-10 10h-502v28l487 611q2 4 2 7v41q0 10 -10 10h-445q-10 0 -10 -10.5t10 -10.5h434v-27l-486 -612q-2 -4 -2 -6v-41z" />
<glyph unicode="[" horiz-adv-x="333" d="M63 -178q0 -10 11 -10h137q10 0 10 10t-10 10h-127v832h127q10 0 10 10t-10 10h-137q-11 0 -11 -10v-852z" />
<glyph unicode="\" horiz-adv-x="431" d="M42 707l257 -701q2 -6 7.5 -7t9 3t1.5 10l-257 701q-2 6 -7.5 7t-9 -3t-1.5 -10z" />
<glyph unicode="]" horiz-adv-x="333" d="M64 -178q0 -10 10 -10h137q10 0 10 10v852q0 10 -10 10h-137q-10 0 -10 -10t10 -10h127v-832h-127q-10 0 -10 -10z" />
<glyph unicode="^" horiz-adv-x="522" d="M42 364q-3 -5 0.5 -10t8.5 -4.5t9 5.5l167 332l163 -332q3 -6 9 -6t9.5 4.5t0.5 10.5l-172 350q-2 5 -9 5t-10 -5z" />
<glyph unicode="_" horiz-adv-x="524" d="M1 -175q0 -10 10 -10h534q10 0 10 10t-10 10h-534q-10 0 -10 -10z" />
<glyph unicode="`" horiz-adv-x="337" d="M41.5 712.5q-1.5 -5.5 2.5 -10.5l164 -174q4 -5 9.5 -3t7 7.5t-2.5 10.5l-164 174q-4 5 -9.5 3t-7 -7.5z" />
<glyph unicode="a" horiz-adv-x="614" d="M31 276q0 -178 58 -231q59 -55 177 -55q113 0 175 54v1q26 24 40 75v-110q0 -10 10.5 -10t10.5 10v266v267q0 10 -10.5 10t-10.5 -10v-110q-14 49 -40 75q-60 55 -175 55q-119 0 -177 -55q-31 -29 -45 -96q-14 -63 -13 -127v-9zM51 276v10q0 62 12 120q13 62 40 88 q52 49 163 49q107 0 161 -49q28 -26 41 -88t13 -130t-13 -129.5t-41 -87.5q-56 -49 -161 -49q-110 0 -163 49q-52 49 -52 217z" />
<glyph unicode="b" horiz-adv-x="645" d="M61 10q0 -10 10.5 -10t10.5 10v103q15 -48 38 -68q59 -55 177 -55q113 0 175 54v1q30 28 45 94.5t15 136.5t-15 136.5t-45 95.5q-60 55 -175 55q-119 0 -177 -55q-24 -24 -38 -71v270q0 10 -10.5 10t-10.5 -10v-416v-15v-266zM82 276v16q2 153 52 202q52 49 163 49 q107 0 161 -49q28 -26 41 -88t13 -130t-13 -129.5t-41 -87.5q-56 -49 -161 -49q-110 0 -163 49q-52 49 -52 217z" />
<glyph unicode="c" horiz-adv-x="574" d="M32 276q0 -176 61 -231v-1q63 -54 191 -54h15q62 0 102 15q24 10 49 38.5t42 65.5q1 3 1 5q0 3 -2 5q-4 4 -10 4t-8 -6q-15 -34 -37 -59t-43 -34q-39 -14 -95 -14h-14q-119 0 -176 50q-56 48 -56 216v9q0 63 13 121q14 62 43 88q56 49 176 49h6q24 -1 58 -7q38 -8 59 -19 q19 -12 37 -38.5t26 -46.5q2 -6 7.5 -6.5t9 4t1.5 10.5q-8 21 -28.5 51t-42.5 43q-23 14 -63 22q-36 7 -63 7h-7q-129 0 -191 -55q-32 -30 -47 -96q-14 -62 -14 -127v-9z" />
<glyph unicode="d" horiz-adv-x="615" d="M32 276q0 -178 58 -231q59 -55 177 -55q113 0 175 54v1q26 24 40 75v-110q0 -10 10.5 -10t10.5 10v266v431q0 10 -10.5 10t-10.5 -10v-274q-14 49 -40 75q-60 55 -175 55q-119 0 -177 -55q-30 -29 -44 -96q-14 -63 -14 -127v-9zM52 276v10q0 62 12 120q13 62 40 88 q52 49 163 49q107 0 161 -49q28 -26 41 -88t13 -130t-13 -129.5t-41 -87.5q-56 -49 -161 -49q-110 0 -163 49q-52 49 -52 217z" />
<glyph unicode="e" horiz-adv-x="605" d="M32 276q0 -178 58 -231q58 -55 177 -55h12q23 0 55 5q42 7 67 16q27 9 47.5 28t43.5 63q1 3 1 5q0 3 -2 6q-4 5 -9 5t-9 -5q-22 -42 -38 -58t-40 -25q-71 -21 -114 -21q-7 0 -13 1h-1q-111 0 -163 49q-50 47 -52 207h430q11 0 11 10q0 70 -14.5 136.5t-44.5 95.5 q-56 55 -167 55q-121 0 -177 -55q-30 -29 -44 -96q-14 -63 -14 -127v-9zM52 287q0 64 13 123t39 84q50 49 163 49q103 0 153 -49q27 -26 39.5 -86t12.5 -121h-420z" />
<glyph unicode="f" horiz-adv-x="384" d="M21 542.5q0 -10.5 10 -10.5h66v-522q0 -10 10.5 -10t10.5 10v522h143q10 0 10 10.5t-10 10.5h-143q0 130 23 158q32 39 120 39q10 0 10 10t-10 10q-38 0 -77 -12t-59 -35q-28 -33 -28 -170h-66q-10 0 -10 -10.5z" />
<glyph unicode="g" horiz-adv-x="615" d="M32 276q0 -178 58 -231q59 -55 177 -55q113 0 175 54v1q26 24 40 75v-110q0 -34 -12.5 -72t-37.5 -63q-49 -48 -165 -48q-10 0 -10 -10.5t10 -10.5q123 0 179 55q28 27 42.5 70.5t14.5 78.5v266v267q0 10 -10.5 10t-10.5 -10v-110q-14 49 -40 75q-60 55 -175 55 q-119 0 -177 -55q-30 -29 -44 -96q-14 -63 -14 -127v-9zM52 276v10q0 61 12 120q13 62 40 88q52 49 163 49q107 0 161 -49q28 -26 41 -88t13 -130t-13 -129.5t-41 -87.5q-56 -49 -161 -49q-110 0 -163 49q-52 49 -52 217z" />
<glyph unicode="h" horiz-adv-x="620" d="M61 10q0 -10 10.5 -10t10.5 10v326q0 47 14.5 98t38.5 71q47 38 150 38q99 0 146 -38q25 -20 40.5 -72t15.5 -97v-326q0 -10 10.5 -10t10.5 10v326q0 48 -18 105.5t-47 79.5q-54 42 -158 42q-108 0 -162 -42q-25 -21 -41 -67v256q0 10 -10.5 10t-10.5 -10v-374v-326z" />
<glyph unicode="i" horiz-adv-x="245" d="M78 10q0 -10 10 -10t10 10v533q0 10 -10 10t-10 -10v-533zM78 624.5q0 -10.5 10 -10.5h1q10 0 10 10.5t-10 10.5h-1q-10 0 -10 -10.5z" />
<glyph unicode="j" horiz-adv-x="293" d="M0 -175q0 -10 10 -10q103 0 140 41q20 22 25.5 56.5t5.5 97.5v533q0 10 -10 10t-10 -10v-533q0 -59 -4.5 -90t-21.5 -50q-31 -35 -125 -35q-10 0 -10 -10zM161 621.5q0 -10.5 10 -10.5h1q10 0 10 10.5t-10 10.5h-1q-10 0 -10 -10.5z" />
<glyph unicode="k" horiz-adv-x="523" d="M61 10q0 -10 10.5 -10t10.5 10v240q0 -5 4 -8l308 -240q3 -2 6 -2h4q7 3 7 10q0 4 -4 8l-305 237v55l305 225q4 3 4 8q0 7 -6 9q-5 2 -11 -1l-308 -227q-4 -3 -4 -9v392q0 10 -10.5 10t-10.5 -10v-697z" />
<glyph unicode="l" horiz-adv-x="256" d="M61 10q0 -10 10.5 -10t10.5 10v727q0 10 -10.5 10t-10.5 -10v-727z" />
<glyph unicode="m" horiz-adv-x="931" d="M61 10q0 -10 10.5 -10t10.5 10v339q0 98 42 148q39 46 132 46q100 0 138 -35q36 -36 36 -159v-339q0 -10 10.5 -10t10.5 10v339q0 87 48 148q39 46 126 46q96 0 134 -35q40 -36 40 -159v-339q0 -10 10 -10t10 10v339q0 55 -12 104t-34 69q-21 19 -63.5 30t-84.5 11 q-98 0 -143 -54q-26 -34 -39 -75q-12 66 -34 88q-21 19 -65 30t-88 11q-100 0 -148 -53v-1q-15 -16 -26 -42v76q0 10 -10.5 10t-10.5 -10v-194v-339z" />
<glyph unicode="n" horiz-adv-x="620" d="M61 10q0 -10 10.5 -10t10.5 10v326q0 47 14.5 98t38.5 71q47 38 150 38q99 0 146 -38q25 -20 40.5 -72t15.5 -97v-326q0 -10 10.5 -10t10.5 10v326q0 48 -18 105t-47 80q-54 42 -158 42q-108 0 -162 -42q-25 -20 -41 -68v90q0 10 -10.5 10t-10.5 -10v-207v-326z" />
<glyph unicode="o" horiz-adv-x="615" d="M32 276q0 -178 58 -231q59 -55 177 -55q113 0 175 54v1q30 28 45.5 95t15.5 136t-15.5 136t-45.5 96q-60 55 -175 55q-119 0 -177 -55q-30 -29 -44 -96q-14 -63 -14 -127v-9zM52 276v10q0 62 12 120q13 62 40 88q52 49 163 49q107 0 161 -49q28 -26 41 -88t13 -130 t-13 -129.5t-41 -87.5q-56 -49 -161 -49q-110 0 -163 49q-52 49 -52 217z" />
<glyph unicode="p" horiz-adv-x="645" d="M61 -167q0 -10 10.5 -10t10.5 10v280q15 -48 38 -68q59 -55 177 -55q113 0 175 54v1q30 28 45 94.5t15 136.5t-15 136.5t-45 95.5q-60 55 -175 55q-119 0 -177 -55q-24 -24 -38 -71v106q0 10 -10.5 10t-10.5 -10v-252v-15v-443zM82 276v16q2 153 52 202q52 49 163 49 q107 0 161 -49q28 -26 41 -88t13 -130t-13 -129.5t-41 -87.5q-56 -49 -161 -49q-110 0 -163 49q-52 49 -52 217z" />
<glyph unicode="q" horiz-adv-x="615" d="M32 276q0 -178 58 -231q59 -55 177 -55q113 0 175 54v1q26 24 40 75v-287q0 -10 10.5 -10t10.5 10v443v267q0 10 -10.5 10t-10.5 -10v-110q-14 49 -40 75q-60 55 -175 55q-119 0 -177 -55q-30 -29 -44 -96q-14 -63 -14 -127v-9zM52 276v10q0 61 12 120q13 62 40 88 q52 49 163 49q107 0 161 -49q28 -26 41 -88t13 -130t-13 -129.5t-41 -87.5q-56 -49 -161 -49q-110 0 -163 49q-52 49 -52 217z" />
<glyph unicode="r" horiz-adv-x="479" d="M82 10q0 -10 10 -10t10 10v266v16q3 104 74.5 172t179.5 68q10 0 10 10.5t-10 10.5q-86 0 -154.5 -45.5t-99.5 -119.5v155q0 10 -10 10t-10 -10v-251v-16v-266z" />
<glyph unicode="s" horiz-adv-x="553" d="M18 125q23 -75 68 -102q47 -33 151 -33q103 0 155 39q47 33 49 109q0 45 -40 77t-97.5 51t-114.5 37t-97 46t-40 66q2 63 42 91q49 37 143 37q34 0 73.5 -12t58.5 -26q30 -21 41 -95q1 -6 6.5 -8t10 1.5t3.5 10.5q-12 78 -49 107q-21 16 -64 29t-80 13q-40 0 -84.5 -11 t-70.5 -30q-48 -35 -50 -107q0 -45 40 -77t97 -51t114.5 -37t97.5 -46t40 -66q-2 -65 -41 -93q-45 -35 -143 -35q-92 0 -141 29q-38 24 -57 92q-3 10 -13 7t-8 -13z" />
<glyph unicode="t" horiz-adv-x="367" d="M21 542.5q0 -10.5 10 -10.5h79v-389q0 -89 27 -114q27 -29 108 -29q10 0 10 10t-10 10q-70 0 -93 23q-22 22 -22 100v389h115q10 0 10 10.5t-10 10.5h-115v133q0 10 -10 10t-10 -10v-133h-79q-10 0 -10 -10.5z" />
<glyph unicode="u" horiz-adv-x="600" d="M41 228q9 -152 64 -197q47 -41 159 -41q108 0 158 41q26 21 45 79v-100q0 -10 10 -10t10 10v219v1v313q0 10 -10 10t-10 -10v-313q-8 -142 -57 -183q-47 -37 -146 -37q-103 0 -145 37h-1q-49 38 -57 182v314q0 10 -10 10t-10 -10v-314v-1z" />
<glyph unicode="v" horiz-adv-x="573" d="M32 540l184 -533q2 -7 9 -7h41q7 0 9 7l185 533q1 2 1 4q0 4 -3 6q-3 3 -7 3h-3q-6 -1 -7 -7l-182 -526h-27l-182 526q-2 6 -8 7h-2q-4 0 -6 -3t-3 -6q0 -2 1 -4z" />
<glyph unicode="w" horiz-adv-x="860" d="M31 540l145 -535q4 -7 11 -7l40 2q8 0 10 7l141 525h11h11l143 -525q3 -7 10 -7l39 -1q6 0 10 7l146 534q2 10 -8 12q-2 1 -4 1q-7 0 -9 -7l-143 -527l-23 1l-142 526q-3 7 -10 7h-20h-19q-8 0 -11 -7l-141 -526l-23 -2l-144 528q-2 7 -9 7q-2 -1 -4 -1q-10 -2 -7 -12z " />
<glyph unicode="x" horiz-adv-x="573" d="M52 6q2 -6 8 -6l1 -1q5 0 9 5l186 266l186 -266q3 -5 9 -4q7 2 9 6q1 2 1 4q0 3 -2 6l-191 272l174 249q4 5 1 11t-8 6h-1q-4 0 -8 -5l-170 -243l-171 243q-3 5 -9 4t-8 -5.5t1 -10.5l174 -249l-190 -272q-2 -3 -2 -6q0 -2 1 -4z" />
<glyph unicode="y" horiz-adv-x="551" d="M42 540l175 -533q2 -7 9 -7h33q-21 -85 -57 -121.5t-99 -36.5q-10 0 -10 -10t10 -10q72 0 114.5 44.5t65.5 140.5l156 533l1 1v1q0 11 -12 11q-6 0 -9 -7l-155 -526h-31l-173 526q-2 6 -8 7h-2q-4 0 -6 -3q-3 -3 -3 -6q0 -2 1 -4z" />
<glyph unicode="z" horiz-adv-x="548" d="M31 10q0 -10 10 -10h385q10 0 10 10t-10 10h-375v41l358 433q2 2 2 6v43q0 10 -11 10h-333q-10 0 -10 -10.5t10 -10.5h323v-28l-357 -432q-2 -2 -2 -6v-56z" />
<glyph unicode="{" horiz-adv-x="337" d="M32 239q82 -69 85 -203q0 -86 25 -154.5t73 -69.5q6 0 9 5t0.5 10t-9.5 5q-37 1 -57.5 62t-20.5 142q-3 142 -83 211q34 33 58 89.5t25 125.5q0 80 20 141t58 61q10 0 10 10t-10 10q-49 0 -73.5 -68t-24.5 -154q-3 -129 -85 -208q-8 -8 0 -15z" />
<glyph unicode="|" horiz-adv-x="392" d="M74 -207q0 -10 10 -10t10 10v917q0 10 -10 10t-10 -10v-917z" />
<glyph unicode="}" horiz-adv-x="337" d="M29 -178q0 -10 10 -10q31 0 52 18.5t30 54t12 69.5t3 82q5 125 86 204q7 7 0 14q-32 30 -57.5 86.5t-28.5 121.5q0 221 -97 222q-10 0 -10 -10t10 -10q77 -1 77 -202q3 -68 29 -128t55 -87q-79 -79 -84 -211q0 -47 -2.5 -78.5t-9.5 -63t-23.5 -47t-41.5 -15.5 q-10 0 -10 -10z" />
<glyph unicode="~" horiz-adv-x="620" d="M41 359q0 -6 5 -9t10 -0.5t5 9.5q1 41 26.5 73.5t76.5 32.5q31 0 70 -29t79 -58t73 -29q56 0 89 39.5t33 87.5q0 10 -10.5 10t-10.5 -10q0 -42 -26.5 -74t-74.5 -32q-22 0 -51 18t-53 39.5t-56.5 39.5t-61.5 18q-59 0 -90.5 -40.5t-32.5 -85.5z" />
<glyph unicode="&#xad;" horiz-adv-x="438" d="M31 359.5q0 -10.5 10 -10.5h274q10 0 10 10.5t-10 10.5h-274q-10 0 -10 -10.5z" />
<glyph unicode="&#x2000;" horiz-adv-x="385" />
<glyph unicode="&#x2001;" horiz-adv-x="770" />
<glyph unicode="&#x2002;" horiz-adv-x="385" />
<glyph unicode="&#x2003;" horiz-adv-x="770" />
<glyph unicode="&#x2004;" horiz-adv-x="256" />
<glyph unicode="&#x2005;" horiz-adv-x="192" />
<glyph unicode="&#x2006;" horiz-adv-x="128" />
<glyph unicode="&#x2007;" horiz-adv-x="128" />
<glyph unicode="&#x2008;" horiz-adv-x="96" />
<glyph unicode="&#x2009;" horiz-adv-x="154" />
<glyph unicode="&#x200a;" horiz-adv-x="42" />
<glyph unicode="&#x2010;" horiz-adv-x="438" d="M31 359.5q0 -10.5 10 -10.5h274q10 0 10 10.5t-10 10.5h-274q-10 0 -10 -10.5z" />
<glyph unicode="&#x2011;" horiz-adv-x="438" d="M31 359.5q0 -10.5 10 -10.5h274q10 0 10 10.5t-10 10.5h-274q-10 0 -10 -10.5z" />
<glyph unicode="&#x2012;" horiz-adv-x="438" d="M31 359.5q0 -10.5 10 -10.5h274q10 0 10 10.5t-10 10.5h-274q-10 0 -10 -10.5z" />
<glyph unicode="&#x2013;" horiz-adv-x="656" d="M31 359.5q0 -10.5 17 -10.5h478q17 0 17 10.5t-17 10.5h-478q-17 0 -17 -10.5z" />
<glyph unicode="&#x2014;" horiz-adv-x="1168" d="M31 359.5q0 -10.5 35 -10.5h954q35 0 35 10.5t-35 10.5h-954q-35 0 -35 -10.5z" />
<glyph unicode="&#x202f;" horiz-adv-x="154" />
<glyph unicode="&#x205f;" horiz-adv-x="192" />
<glyph unicode="&#x25fc;" horiz-adv-x="552" d="M0 0v553h553v-553h-553z" />
</font>
</defs>
</svg>
