<?xml version="1.0" standalone="no"?>
<!DOCTYPE svg PUBLIC "-//W3C//DTD SVG 1.1//EN" "http://www.w3.org/Graphics/SVG/1.1/DTD/svg11.dtd" >
<svg xmlns="http://www.w3.org/2000/svg">
<metadata></metadata>
<defs>
<font id="octopus_wide_100bold" horiz-adv-x="438" >
<font-face units-per-em="1024" ascent="819" descent="-205" />
<missing-glyph horiz-adv-x="500" />
<glyph horiz-adv-x="0" />
<glyph unicode="&#xd;" horiz-adv-x="1024" />
<glyph unicode="!" horiz-adv-x="224" d="M77 -2h20v10v1v10h-20v-10v-1v-10zM77 175h20v10v525v10h-20v-10v-525v-10z" />
<glyph unicode="&#x22;" horiz-adv-x="283" d="M41 524h20v11v175v10h-20v-10v-175v-11zM151 524h20v11v175v10h-20v-10v-175v-11z" />
<glyph unicode="#" horiz-adv-x="683" d="M10 175h10h105l-20 -165l-1 -11h21l1 9l19 167h247l-19 -165l-1 -11h20l1 9l20 167h147h10v21h-10h-145l39 329h106h10v21h-10h-104l19 163l1 11h-20l-1 -9l-20 -165h-246l19 163l1 11h-21l-1 -9l-19 -165h-148h-10v-21h10h146l-39 -329h-107h-10v-21zM148 196l38 329 h247l-39 -329h-246z" />
<glyph unicode="$" horiz-adv-x="665" d="M61.5 560.5q-11.5 -70.5 1 -141t40.5 -70.5h158v-254h-158h-10v-20h10h158v-66v-10h21v10v66h148q21 0 35 30t17 73.5t-0.5 87t-17.5 74t-34 30.5h-148v240h148h10v21h-10h-148v79v10h-21v-10v-79h-158q-30 0 -41.5 -70.5zM75 550q8 60 28 60h158v-240h-158 q-19 0 -27.5 60t-0.5 120zM282 95v254h148q14 0 24 -26.5t12.5 -64t0.5 -74.5t-12 -63t-25 -26h-148z" />
<glyph unicode="%" horiz-adv-x="797" d="M76 -1h26l3 4l578 697l13 17h-26l-3 -4l-578 -698zM87 555q0 -79 46.5 -121.5t111.5 -42.5q63 0 106.5 43t42.5 122q1 78 -42 119t-107 42q-65 1 -111.5 -41t-46.5 -121zM108 555q0 71 38.5 106.5t98.5 34.5q59 -1 94.5 -35t34.5 -105q1 -72 -35 -108t-94 -36 q-60 0 -98.5 36t-38.5 107zM376 158q3 -81 45 -120.5t106 -38.5t108 43t44 120q0 79 -43.5 122t-109.5 44q-64 1 -107.5 -44t-42.5 -126zM396 158q-1 74 35 112t95 37t95.5 -37.5t36.5 -107.5q0 -70 -36 -106t-95 -37q-58 -1 -93 32.5t-38 106.5z" />
<glyph unicode="&#x26;" horiz-adv-x="728" d="M20.5 231.5q-3.5 -42.5 10.5 -84t41 -75t75 -53.5t109 -20q115 0 209 127q60 -61 134 -125l2 -2h32l-22 18q-68 58 -134 126q13 18 29.5 44.5t27.5 43t23.5 33.5t24.5 25.5t23 8.5h10v20h-10q-14 0 -27.5 -8.5t-28.5 -26.5t-26.5 -34t-30 -44.5t-30.5 -45.5 q-144 149 -240 287q105 65 132 90q32 30 31 55q0 61 -41 95.5t-88 33.5q-46 -1 -85.5 -34t-41.5 -96q0 -39 65 -138q-123 -78 -152 -140q-18 -38 -21.5 -80.5zM39.5 228.5q3.5 39.5 20.5 75.5q26 57 145 132q100 -145 245 -294q-91 -123 -194 -123q-57 0 -101 18t-69.5 48 t-37.5 67t-8.5 76.5zM150 590q2 55 33.5 81.5t72.5 27.5q43 1 76 -27t33 -81q0 -8 -3.5 -16.5t-13 -18t-18.5 -17t-26 -19t-28 -18.5t-33 -20t-33 -20q-60 90 -60 128z" />
<glyph unicode="'" horiz-adv-x="210" d="M51 525h21v11v174v10h-21v-10v-174v-11z" />
<glyph unicode="(" horiz-adv-x="285" d="M41 274q0 -237 114 -397l3 -4h24l-11 16q-110 156 -110 385q0 123 27.5 210t83.5 178l9 15h-24l-3 -5q-56 -92 -84.5 -182t-28.5 -216z" />
<glyph unicode=")" horiz-adv-x="285" d="M33 -127h24l2 5q47 75 80.5 180t33.5 216q0 212 -113 398l-3 5h-24l9 -15q111 -179 111 -388q0 -108 -32 -209t-78 -177z" />
<glyph unicode="*" horiz-adv-x="612" d="M41 524h10h201l-99 -160l-6 -9l18 -11l6 9l99 161l100 -161l6 -9l17 11l-5 9l-99 160h200h11v21h-11h-200l99 160l5 8l-17 11l-6 -9l-100 -161l-99 161l-6 9l-18 -11l6 -8l98 -160h-200h-10v-21z" />
<glyph unicode="+" horiz-adv-x="560" d="M41 349h10h183v-164v-10h21v10v164h182h10v21h-10h-182v166v10h-21v-10v-166h-183h-10v-21z" />
<glyph unicode="," horiz-adv-x="231" d="M29 -90h26l3 3q45 50 61 182l1 11h-21l-1 -9q-15 -127 -54 -170z" />
<glyph unicode="-" d="M31 349h10h274h11v21h-11h-274h-10v-21z" />
<glyph unicode="." horiz-adv-x="227" d="M77 -2h20v10v1v10h-20v-10v-1v-10z" />
<glyph unicode="/" horiz-adv-x="404" d="M37 -1h21l2 7l231 701l5 13h-22l-2 -7l-230 -701z" />
<glyph unicode="0" horiz-adv-x="687" d="M31 358q0 -93 12.5 -196.5t36.5 -121.5q27 -20 92.5 -35t130.5 -15t129.5 15t90.5 35q25 18 38 121.5t13 196.5q0 84 -14.5 192t-35.5 126q-22 20 -88.5 35.5t-132.5 15.5q-67 0 -133.5 -15.5t-88.5 -35.5q-21 -18 -35.5 -126t-14.5 -192zM51 358q0 79 13.5 184t30.5 120 q19 18 81.5 31.5t126.5 13.5t126 -13.5t81 -31.5q17 -15 30.5 -120t13.5 -184q0 -88 -11.5 -188t-31.5 -114q-23 -18 -84 -32t-124 -14q-64 0 -125.5 14t-85.5 32q-19 14 -30 113.5t-11 188.5z" />
<glyph unicode="1" horiz-adv-x="448" d="M57 530l17 -12l6 8l124 170h49v-687v-10h20v10v698v10h-10h-64h-5l-4 -4l-127 -174z" />
<glyph unicode="2" horiz-adv-x="661" d="M41 -1h498h10v20h-10h-478v4q0 27 15 55t32.5 48.5t56.5 50.5t61.5 45l73.5 49q46 30 73.5 49t65.5 49t58.5 54.5t36 55.5t15.5 61q0 42 -14 86.5t-39 62.5q-51 38 -201 38t-201 -38q-25 -18 -39 -62.5t-14 -86.5v-11h20v11q0 39 11.5 78.5t33.5 54.5q22 16 76 25t113 9 q140 0 188 -34q22 -15 33.5 -54.5t11.5 -78.5q0 -27 -14 -55.5t-33.5 -51t-55 -51t-62.5 -46.5t-73 -48q-51 -33 -74.5 -49.5t-64 -48t-59.5 -54t-35 -53t-16 -60.5v-24z" />
<glyph unicode="3" horiz-adv-x="701" d="M35 145q19 -80 63 -114q24 -20 84.5 -30.5t122.5 -10.5q153 0 216 50q36 26 52 76t16 103q0 122 -68 172q-57 45 -210 45l-10 16l236 201l3 3v6l2 45v10h-11h-441v-21h431l-2 -29l-238 -205l-3 -3l-4 -3l6 -7l17 -28l2 -5h6q151 0 204 -41q59 -44 59 -156 q0 -119 -59 -163q-60 -46 -204 -46q-58 0 -115.5 10t-78.5 27q-37 28 -56 103z" />
<glyph unicode="4" horiz-adv-x="687" d="M19 278l1 -104h434v-165v-10h20v10v165h90h10v21h-10h-90v223v10h-20v-10v-223h-413l-1 76l266 430l10 16h-24l-2 -5z" />
<glyph unicode="5" horiz-adv-x="687" d="M27 134q27 -80 68 -111q23 -18 84 -27t119 -6q149 0 211 50q34 26 49.5 76t15.5 103q0 118 -66 183q-63 63 -210 63q-83 0 -147.5 -20.5t-84.5 -47.5l-3 1l68 298h387v21h-403l-76 -331l35 -13q22 32 81.5 51.5t142.5 19.5q140 0 196 -56q60 -59 60 -169q0 -119 -57 -163 q-58 -46 -199 -46q-55 -2 -112 5.5t-78 23.5q-41 29 -61 101z" />
<glyph unicode="6" horiz-adv-x="685" d="M41 229q0 -41 13.5 -96t36.5 -81q25 -27 88.5 -44.5t127.5 -17.5t127 17.5t88 44.5q24 27 37.5 79t12.5 98q-2 139 -64 189q-43 35 -140 49t-254 -4q62 128 199 235l24 19h-33l-3 -2q-260 -204 -260 -486zM61 229q0 108 43 211q161 20 256 7.5t136 -46.5q54 -45 56 -172 q1 -44 -11 -91t-33 -71q-23 -25 -81.5 -41t-119.5 -16q-62 0 -120.5 16t-81.5 41q-21 23 -32.5 73t-11.5 89z" />
<glyph unicode="7" horiz-adv-x="671" d="M51 696h10h478v-72q-135 -138 -219 -276.5t-150 -335.5l-5 -13h21l2 7q66 195 149.5 331.5t221.5 277.5v102h-498h-10v-21z" />
<glyph unicode="8" horiz-adv-x="697" d="M41 229q0 -123 50 -177q25 -28 89 -45t133 -17t133 17t89 45q52 56 50 177q-2 135 -69 182q-38 28 -97 40q24 7 35 15q48 33 48 121q0 74 -49 105q-46 25 -140 25q-95 0 -140 -25q-49 -31 -49 -105q0 -89 48 -121q10 -7 34 -15q-61 -13 -96 -39q-69 -49 -69 -183zM61 229 q0 122 61 166q60 45 191 45q130 0 191 -46q58 -41 60 -165q2 -112 -44 -162q-22 -25 -81.5 -41t-125.5 -16q-67 0 -126.5 16t-81.5 41q-44 48 -44 162zM144 587q0 65 39 87t130 22q89 0 129 -22q39 -23 39 -87q0 -77 -40 -105q-34 -21 -128 -21q-96 0 -129 21 q-40 27 -40 105z" />
<glyph unicode="9" horiz-adv-x="684" d="M51 493q0 -130 52 -179q55 -58 208 -58h160q-22 -37 -51 -78.5t-64.5 -89.5t-52.5 -73l-11 -16h24l3 4q15 22 53.5 74t59 81t51 79t47 86.5t29 82.5t12.5 87q0 121 -52 172q-31 31 -88 46.5t-120 15.5q-64 0 -120.5 -15.5t-87.5 -46.5q-52 -49 -52 -172zM72 493 q0 112 46 157q57 57 193 57t194 -57q46 -47 46 -157q0 -96 -68 -217h-6h-166q-143 0 -193 53q-46 45 -46 164z" />
<glyph unicode=":" horiz-adv-x="231" d="M90 24h21v10v1v10h-21v-10v-1v-10zM90 456h21v10v1v10h-21v-10v-1v-10z" />
<glyph unicode=";" horiz-adv-x="231" d="M28 -90h27l3 3q45 48 61 182l1 11h-21l-1 -9q-16 -129 -54 -170zM98 459h11h1h10v20h-10h-1h-11v-20z" />
<glyph unicode="&#x3c;" horiz-adv-x="620" d="M41 352l6 -2l447 -175l14 -6v22l-6 3l-423 165l423 166l6 2v23l-14 -6l-447 -175l-6 -2v-15z" />
<glyph unicode="=" horiz-adv-x="620" d="M41 208h10h447h10v20h-10h-447h-10v-20zM41 463h10h447h10v20h-10h-447h-10v-20z" />
<glyph unicode="&#x3e;" horiz-adv-x="620" d="M41 169l14 6l447 175l6 2v15l-6 2l-447 175l-14 6v-23l6 -2l423 -166l-423 -165l-6 -3v-22z" />
<glyph unicode="?" horiz-adv-x="519" d="M41 536h20q0 77 47 120.5t115 42.5t115.5 -45t47.5 -119q0 -22 -5.5 -39.5t-21 -36.5t-24.5 -28t-33 -32q-28 -27 -43 -45t-30.5 -53t-15.5 -74v-85h20v85q0 36 13.5 67t28 48t41.5 43q31 28 45.5 42.5t30 44.5t15.5 63q0 83 -54.5 133.5t-129.5 51.5q-74 1 -128 -49.5 t-54 -134.5zM214 -3h20v10v2v10h-20v-10v-2v-10z" />
<glyph unicode="A" horiz-adv-x="846" d="M15 0h23l2 6l286 690h103l286 -690l2 -6h22l-6 14l-290 703h-132l-289 -703zM119 173h10h495h10v21h-10h-495h-10v-21z" />
<glyph unicode="B" horiz-adv-x="804" d="M72 0h385q114 0 178 52q26 20 41.5 57t15.5 75t-15.5 75t-41.5 57q-45 35 -118 48q57 16 83 36q27 19 44.5 56.5t17.5 75.5t-17.5 76t-44.5 57q-29 22 -83.5 37t-118.5 15h-326v-348v-21v-348zM92 20v328h306h59q106 0 166 -48q23 -17 36 -49t13 -67t-13 -66.5t-36 -48.5 q-61 -49 -166 -49h-365zM92 369v327h306q125 0 190 -48q53 -39 53 -116q0 -76 -53 -115q-65 -48 -190 -48h-306z" />
<glyph unicode="C" horiz-adv-x="807" d="M31 358q0 -93 32.5 -177t83.5 -123q90 -68 269 -68q106 0 173 26q35 12 69 47.5t57 84.5l-19 9q-22 -45 -52.5 -77.5t-61.5 -44.5h-1q-67 -25 -165 -25q-173 0 -256 65q-47 37 -78 115.5t-31 167.5q0 90 31 169t80 116q78 64 254 64q91 0 177 -36q62 -27 101 -112l19 8 q-43 92 -112 122q-87 38 -185 38q-180 0 -266 -68q-52 -40 -85.5 -124t-33.5 -177z" />
<glyph unicode="D" horiz-adv-x="848" d="M72 0h332q162 3 243 76q43 37 67 117q22 74 22 152v13v13q0 79 -22 153q-24 80 -67 117q-81 73 -243 76h-332v-717zM92 20v676h312q155 -3 229 -69q41 -35 63 -111q21 -69 20 -145v-13v-13q0 -75 -20 -144q-22 -75 -63 -111q-75 -67 -229 -70h-312z" />
<glyph unicode="E" horiz-adv-x="738" d="M72 0h543h11v20h-11h-523v328h380h10v21h-10h-380v327h523h11v21h-11h-543v-348v-21v-348z" />
<glyph unicode="F" horiz-adv-x="645" d="M72 0h20v10v338h430h10v21h-10h-430v327l493 -1h10v21h-10l-513 1v-348v-21v-338v-10z" />
<glyph unicode="G" horiz-adv-x="807" d="M31 358q1 -85 28 -170.5t71 -122.5q88 -75 255 -75q95 0 162 17q72 20 144 70l4 3v278v11h-10h-300v-21h290v-258q-67 -45 -134 -62q-68 -18 -156 -18q-159 0 -243 71q-40 35 -65 115t-26 162v6q0 83 25 158q25 79 67 115q83 70 242 70q45 -1 110 -13t95 -30 q30 -16 55 -52t30 -60l20 6q-7 26 -35 65.5t-60 58.5q-33 19 -100.5 31.5t-114.5 13.5q-167 0 -254 -74q-46 -39 -73 -123q-27 -81 -27 -166v-6z" />
<glyph unicode="H" horiz-adv-x="788" d="M72 0h20v10v338h563v-338v-10h21v10v338v21v338v10h-21v-10v-338h-563v338v10h-20v-10v-338v-21v-338v-10z" />
<glyph unicode="I" horiz-adv-x="259" d="M93 0h21v10v697v10h-21v-10v-697v-10z" />
<glyph unicode="J" horiz-adv-x="370" d="M0 -102v-21h10q118 0 180 49q33 26 50.5 66t17.5 80v635v10h-20v-10v-635q0 -82 -60 -129q-55 -45 -168 -45h-10z" />
<glyph unicode="K" horiz-adv-x="678" d="M72 0h20v10v307l458 -315l3 -2h36l-27 18l-449 310v61l449 309l27 19h-36l-3 -2l-458 -316v308v10h-20v-10v-697v-10z" />
<glyph unicode="L" horiz-adv-x="655" d="M72 0h481h10v20h-10h-461v687v10h-20v-10v-707z" />
<glyph unicode="M" horiz-adv-x="1065" d="M72 0h20v10v686h44l340 -696h37h36l340 696h44v-686v-10h20v10v707h-76l-340 -697h-24h-25l-340 697h-76v-707v-10z" />
<glyph unicode="N" horiz-adv-x="812" d="M72 0h20v10v686h35l505 -696h67v707v10h-20v-10v-687h-37l-505 697h-65v-707v-10z" />
<glyph unicode="O" horiz-adv-x="857" d="M31 358q1 -89 28 -172t72 -121q88 -75 257 -75t255 73q46 39 73.5 122.5t27.5 172.5t-27.5 172.5t-73.5 122.5q-87 74 -255 74q-169 0 -256 -74q-46 -39 -74 -123q-27 -81 -27 -166v-6zM51 358v6q0 82 25 158q26 79 68 115q83 70 244 70q160 0 243 -70 q42 -36 67.5 -114.5t25.5 -164.5t-25.5 -164t-67.5 -114q-83 -70 -243 -70q-161 0 -245 71q-41 35 -66 113t-26 164z" />
<glyph unicode="P" horiz-adv-x="787" d="M72 0h20v10v338h282q80 0 153 10t97 29q25 20 38 61t13 84q0 41 -13 84t-38 62q-24 19 -95 29t-155 10h-302v-348v-21v-338v-10zM92 369v327h282q193 0 237 -34q21 -17 32 -54.5t11 -75.5q0 -95 -43 -129q-21 -16 -90.5 -25t-146.5 -9h-282z" />
<glyph unicode="Q" horiz-adv-x="857" d="M31 358q1 -84 28.5 -170t71.5 -123q88 -75 257 -75t255 73q46 39 73.5 122.5t27.5 172.5t-27.5 172.5t-73.5 122.5q-87 74 -255 74q-169 0 -256 -74q-46 -39 -74 -123q-27 -81 -27 -166v-6zM51 358v6q0 82 25 158q26 79 68 115q83 70 244 70q160 0 243 -70 q42 -36 67.5 -114.5t25.5 -164.5t-25.5 -164t-67.5 -114q-83 -70 -243 -70q-161 0 -245 71q-40 35 -65.5 115t-26.5 162zM343 -11v-21l7 -3l278 -82l13 -3v21l-7 3l-278 82z" />
<glyph unicode="R" horiz-adv-x="787" d="M72 0h20v10v338h277l287 -344l3 -4h27l-13 16l-278 332q186 4 229 39q25 20 38 61t13 84q0 41 -13 84t-38 62q-24 19 -95 29t-155 10h-302v-348v-21v-338v-10zM92 369v327h282q193 0 237 -34q21 -17 32 -54.5t11 -75.5q0 -95 -43 -129q-21 -16 -90.5 -25t-146.5 -9h-22 h-260z" />
<glyph unicode="S" horiz-adv-x="744" d="M28 187q27 -103 93 -144q36 -24 96.5 -38.5t124.5 -14.5q65 0 126 14.5t98 38.5q66 43 66 136q0 52 -57.5 93t-140 68t-165 53t-140 62.5t-57.5 82.5q0 83 55 119q80 50 215 50q59 0 115.5 -18t83.5 -42q47 -39 58 -126l21 2q-11 92 -65 141q-30 25 -90.5 44t-122.5 19 q-142 0 -225 -53q-66 -42 -66 -136q0 -44 41.5 -80t103.5 -59t135 -47.5t135 -45.5t103.5 -54t41.5 -73q0 -83 -55 -120q-77 -49 -214 -49q-136 0 -211 49q-60 40 -83 135z" />
<glyph unicode="T" horiz-adv-x="687" d="M20 696h11h287v-686v-10h21v10v686h266h10v21h-10h-266h-21h-287h-11v-21z" />
<glyph unicode="U" horiz-adv-x="803" d="M51 281q6 -71 34 -139.5t67 -98.5q72 -53 220 -53q145 0 218 53q40 31 68 97.5t33 139.5v427v10h-20v-10v-427q-5 -70 -30.5 -131.5t-62.5 -89.5q-66 -49 -206 -49q-144 0 -208 49q-36 26 -61 89.5t-31 132.5v426v10h-21v-10v-426z" />
<glyph unicode="V" horiz-adv-x="749" d="M15 717l7 -15l269 -702h76l269 702l6 15h-22l-3 -6l-265 -691h-47l-265 691l-2 6h-23z" />
<glyph unicode="W" horiz-adv-x="1150" d="M28 717l3 -14l185 -703h76l219 696h24h23l207 -696h77l196 703l3 14h-21l-2 -7l-193 -690h-46l-207 697h-37h-38l-219 -697h-46l-181 690l-2 7h-21z" />
<glyph unicode="X" horiz-adv-x="768" d="M40 0h27l3 4l283 347l284 -347l3 -4h27l-14 16l-287 351l273 333l13 17h-26l-3 -4l-270 -330l-269 330l-3 4h-27l14 -17l272 -333l-287 -351z" />
<glyph unicode="Y" horiz-adv-x="760" d="M12 717l10 -16l270 -440h33v-5v-246v-10h20v10v246v5h32l270 440l9 16h-24l-3 -5l-264 -430h-61l-264 430l-3 5h-25z" />
<glyph unicode="Z" horiz-adv-x="781" d="M41 0h617h11v20h-11h-597v27l579 615v55h-537h-10v-21h10h517v-26l-579 -615v-55z" />
<glyph unicode="[" horiz-adv-x="333" d="M63 -178v-10h11h137h10v20h-10h-127v832h127h10v20h-10h-137h-11v-10v-852z" />
<glyph unicode="\" horiz-adv-x="431" d="M37 720l5 -13l257 -701l2 -7h22l-6 13l-257 701l-2 7h-21z" />
<glyph unicode="]" horiz-adv-x="333" d="M63 -168v-20h11h137h10v10v852v10h-10h-137h-11v-20h11h127v-832h-127h-11z" />
<glyph unicode="^" horiz-adv-x="522" d="M35 349h22l3 6l167 332l163 -332l3 -6h23l-7 15l-172 350l-4 6h-12l-3 -6l-176 -350z" />
<glyph unicode="_" horiz-adv-x="524" d="M1 -165v-20h10h534h10v20h-10h-534h-10z" />
<glyph unicode="`" horiz-adv-x="337" d="M28 720l16 -18l164 -174l3 -3h28l-17 18l-164 174l-3 3h-27z" />
<glyph unicode="a" horiz-adv-x="697" d="M31 276q1 -66 22 -132.5t56 -95.5q68 -58 199 -58t198 57q37 31 58 98v-135v-10h21v10v266v267v10h-21v-10v-135q-21 67 -58 98q-67 57 -198 57t-198 -57q-36 -30 -58 -96q-21 -63 -21 -128v-6zM51 276v6q1 62 19 119q20 60 52 88q64 54 186 54t186 -54q32 -28 51 -87.5 t19 -125.5t-19 -125.5t-51 -87.5q-63 -53 -186 -53q-122 0 -187 55q-31 27 -50 87.5t-20 123.5z" />
<glyph unicode="b" horiz-adv-x="728" d="M61 0h21v10v138q22 -70 57 -100q68 -58 200 -58q131 0 198 57q36 30 57 95t21 134t-21 134.5t-57 95.5q-67 57 -198 57q-132 0 -199 -57q-35 -29 -58 -97v298v10h-21v-10v-422v-9v-266v-10zM82 276v10q1 63 20.5 119t50.5 84q64 54 186 54q121 0 185 -54 q32 -28 51.5 -87.5t19.5 -125.5t-19.5 -125.5t-51.5 -87.5q-63 -53 -185 -53t-187 55q-31 27 -50 87.5t-20 123.5z" />
<glyph unicode="c" horiz-adv-x="652" d="M32 276q0 -72 25.5 -137t64.5 -96q69 -53 208 -53h16q72 0 119 17q27 8 55 35.5t49 65.5l-18 10q-40 -75 -92 -91v-1q-49 -16 -114 -16h-15q-134 0 -196 49q-36 28 -59 88t-23 129q0 68 23.5 128.5t59.5 89.5q59 49 195 49h9q60 0 128 -26q45 -18 81 -86l18 10 q-40 75 -91 95q-66 27 -135 27h-10q-141 0 -207 -53q-39 -32 -65 -97.5t-26 -136.5z" />
<glyph unicode="d" horiz-adv-x="698" d="M32 276q1 -67 22 -133t56 -95q68 -58 199 -58t198 57q37 31 58 98v-135v-10h21v10v266v431v10h-21v-10v-299q-21 67 -58 98q-67 57 -198 57t-198 -57q-36 -30 -58 -96q-21 -63 -21 -128v-6zM52 276v6q0 63 18 120q20 60 53 87q64 54 186 54t186 -54q32 -28 51 -87.5 t19 -125.5t-19 -125.5t-51 -87.5q-63 -53 -186 -53q-122 0 -187 55q-31 26 -50 86.5t-20 124.5z" />
<glyph unicode="e" horiz-adv-x="688" d="M32 276q1 -67 22 -133t56 -95q70 -58 199 -58q84 0 160 20q63 19 105 92l-18 11q-39 -67 -93 -82q-76 -21 -154 -21q-120 0 -187 55q-30 25 -49 82t-21 119h513h10v10v12q1 61 -17 120q-20 65 -54 95q-67 58 -195 60q-130 0 -197 -57q-37 -30 -59 -96q-21 -63 -21 -128 v-6zM52 287q1 63 20.5 119.5t51.5 82.5q64 54 185 54q118 -2 180 -56v-1q31 -27 49 -84q17 -51 17 -104v-11h-503z" />
<glyph unicode="f" horiz-adv-x="424" d="M20 532h11h80v-522v-10h20v10v522h171h10v21h-10h-171q0 129 28 157q39 40 143 40h10v20h-10q-44 0 -90 -11.5t-68 -34.5q-21 -21 -27 -62.5t-6 -108.5h-80h-11v-21z" />
<glyph unicode="g" horiz-adv-x="698" d="M32 276q1 -66 22 -132.5t56 -95.5q68 -58 199 -58t198 57q37 31 58 98v-135q0 -33 -14.5 -71t-44.5 -63q-58 -49 -197 -49h-10v-21h10q143 0 209 54q34 27 51 71t17 79v266v267v10h-21v-10v-135q-21 67 -58 98q-67 57 -198 57t-198 -57q-36 -31 -58 -96q-21 -63 -21 -128 v-6zM52 276v6q0 62 18 119q20 60 53 88q64 54 186 54t186 -54q32 -28 51 -87.5t19 -125.5t-19 -125.5t-51 -87.5q-63 -53 -186 -53q-122 0 -187 55q-31 27 -50 87.5t-20 123.5z" />
<glyph unicode="h" horiz-adv-x="700" d="M61 0h21v10v316v10v6q1 50 23.5 96t54.5 69q53 36 165 36q111 0 164 -36q33 -24 56 -71.5t22 -99.5v-326v-10h21v10v326q1 55 -25 108.5t-61 78.5q-56 40 -177 40q-122 0 -178 -40q-40 -29 -65 -89v276v10h-21v-10v-369v-5v-10v-316v-10z" />
<glyph unicode="i" horiz-adv-x="245" d="M78 0h20v10v533v10h-20v-10v-533v-10zM78 614h10h1h10v21h-10h-1h-10v-21z" />
<glyph unicode="j" horiz-adv-x="323" d="M0 -165v-20h10q121 0 164 41q24 22 30.5 57t6.5 97v533v10h-21v-10v-533q0 -61 -5 -91t-25 -49q-38 -35 -150 -35h-10zM190 611h11h1h10v21h-10h-1h-11v-21z" />
<glyph unicode="k" horiz-adv-x="585" d="M61 0h21v10v235l376 -243l2 -2h38l-30 18l-366 237v54l366 225l31 19h-39l-2 -1l-376 -230v385v10h-21v-10v-697v-10z" />
<glyph unicode="l" horiz-adv-x="256" d="M61 0h21v10v727v11h-21v-11v-727v-10z" />
<glyph unicode="m" horiz-adv-x="1072" d="M61 0h21v10v329v10q0 95 46 146q42 48 163 48t164 -48q45 -50 46 -146v-10v-329v-10h20v10v329v10v9q0 45 9 75q10 33 36 62q43 48 164 48t163 -48q46 -51 46 -146v-339v-10h20v10v339q0 103 -52 160q-48 54 -177 54t-178 -54q-30 -33 -42 -74q-13 43 -41 74 q-49 54 -178 54t-177 -54q-21 -24 -32 -49v83v10h-21v-10v-194v-10v-329v-10z" />
<glyph unicode="n" horiz-adv-x="700" d="M61 0h21v10v316v10v6q1 50 23.5 96t54.5 69q53 36 165 36t163 -36q33 -24 56.5 -71.5t22.5 -99.5v-326v-10h21v10v326q1 55 -25 108.5t-62 78.5q-55 40 -176 40q-122 0 -178 -40q-40 -29 -65 -89v109v10h-21v-10v-202v-5v-10v-316v-10z" />
<glyph unicode="o" horiz-adv-x="698" d="M32 276q1 -66 22 -132.5t56 -95.5q68 -58 199 -58t198 57q36 30 57.5 95t21.5 134t-21.5 134.5t-57.5 95.5q-67 57 -198 57t-198 -57q-36 -30 -58 -96q-21 -63 -21 -128v-6zM52 276v6q0 62 18 119q20 60 53 88q64 54 186 54t186 -54q32 -28 51 -87.5t19 -125.5 t-19 -125.5t-51 -87.5q-63 -53 -186 -53q-122 0 -187 55q-31 27 -50 87.5t-20 123.5z" />
<glyph unicode="p" horiz-adv-x="728" d="M61 -167v-10h21v10v315q22 -70 57 -100q68 -58 200 -58q131 0 198 57q36 30 57 95t21 134t-21 134.5t-57 95.5q-67 57 -198 57q-132 0 -199 -57q-35 -29 -58 -97v134v10h-21v-10v-258v-9v-443zM82 276v10q1 63 20.5 119t50.5 84q64 54 186 54q121 0 185 -54 q32 -28 51.5 -87.5t19.5 -125.5t-19.5 -125.5t-51.5 -87.5q-63 -53 -185 -53t-187 55q-31 27 -50 87.5t-20 123.5z" />
<glyph unicode="q" horiz-adv-x="698" d="M32 276q1 -66 22 -132.5t56 -95.5q68 -58 199 -58t198 57q37 31 58 98v-312v-10h21v10v443v267v10h-21v-10v-135q-21 67 -58 98q-67 57 -198 57t-198 -57q-36 -31 -58 -96q-21 -63 -21 -128v-6zM52 276v6q0 62 18 119q20 60 53 88q64 54 186 54t186 -54q32 -28 51 -87.5 t19 -125.5t-19 -125.5t-51 -87.5q-63 -53 -186 -53q-122 0 -187 55q-31 27 -50 87.5t-20 123.5z" />
<glyph unicode="r" horiz-adv-x="508" d="M60 0h21v10v256v10v17q4 103 90 171t215 68h10v21h-10q-105 0 -187.5 -47.5t-117.5 -125.5v163v10h-21v-10v-251v-16v-10v-256v-10z" />
<glyph unicode="s" horiz-adv-x="628" d="M19 125q25 -74 79 -103q57 -32 176 -32q124 0 184 38q56 34 58 110q0 45 -48 77t-116 51t-136 37t-116 46t-48 66q1 33 11.5 54.5t36.5 37.5q60 36 174 36q111 0 159 -38q40 -31 51 -95l21 4q-12 71 -60 107q-24 18 -71.5 30t-99.5 12q-123 0 -184 -38q-56 -34 -58 -110 q0 -45 48 -77t116 -51t136 -37t116 -46t48 -66q-2 -64 -49 -92q-59 -36 -173 -36q-110 0 -165 30q-48 25 -71 91z" />
<glyph unicode="t" horiz-adv-x="406" d="M20 532h11h95v-389q0 -89 33 -115q31 -28 125 -28h10v20h-10q-84 0 -113 24q-25 19 -25 99v389h138h10v21h-10h-138v133v10h-20v-10v-133h-95h-11v-21z" />
<glyph unicode="u" horiz-adv-x="679" d="M41 229q5 -60 25 -116t52 -80q58 -43 186 -43q118 0 175 43q42 30 68 103v-126v-10h20v10v219v1v10v303v10h-20v-10v-303v-10q-5 -57 -27 -108t-53 -73q-53 -39 -163 -39q-119 0 -174 39q-28 21 -46 72.5t-23 107.5v314v10h-20v-10v-314z" />
<glyph unicode="v" horiz-adv-x="651" d="M26 553l6 -14l221 -539h63l222 539l6 14h-23l-2 -6l-217 -527h-35l-217 527l-2 6h-22z" />
<glyph unicode="w" horiz-adv-x="987" d="M27 553l4 -13l175 -542l61 2l170 532h16h15l171 -532l60 -1l175 541l5 13h-22l-3 -7l-169 -527l-32 1l-171 533h-29h-30l-170 -533l-33 -2l-169 528l-3 7h-21z" />
<glyph unicode="x" horiz-adv-x="648" d="M40 0h27l3 4l223 268l224 -268l3 -4h27l-13 16l-228 272l208 249l13 16h-26l-3 -4l-205 -245l-205 245l-3 4h-27l14 -16l208 -249l-227 -272z" />
<glyph unicode="y" horiz-adv-x="623" d="M36 553l6 -14l210 -539h48q-26 -85 -71.5 -121.5t-125.5 -36.5h-10v-20h10q89 0 141.5 44.5t80.5 140.5l185 533l5 13h-21l-2 -7l-185 -526h-41l-206 527l-2 6h-22z" />
<glyph unicode="z" horiz-adv-x="623" d="M31 0h470h10v20h-10h-450v41l429 435v57h-408h-11v-21h11h388v-28l-429 -434v-70z" />
<glyph unicode="{" horiz-adv-x="337" d="M29 242q85 -72 88 -206q0 -86 25 -154.5t73 -69.5h10v20h-10q-37 1 -57.5 62t-20.5 142q-3 142 -83 211q34 33 58 89.5t25 125.5q0 80 20 141t58 61h10v20h-10q-49 0 -73.5 -68t-24.5 -154q-3 -129 -85 -208l-3 -3v-9z" />
<glyph unicode="|" horiz-adv-x="392" d="M74 -207v-10h20v10v917v10h-20v-10v-917z" />
<glyph unicode="}" horiz-adv-x="337" d="M29 -168v-20h10q31 0 52 18.5t30 54t12 69.5t3 82q5 125 86 204l3 3v8q-35 32 -60.5 89t-28.5 122q0 221 -97 222h-10v-20h10q77 -1 77 -202q3 -68 29 -128t55 -87q-79 -79 -84 -211q0 -47 -2.5 -78.5t-9.5 -63t-23.5 -47t-41.5 -15.5h-10z" />
<glyph unicode="~" horiz-adv-x="620" d="M41 349h20v10q1 41 26.5 73.5t76.5 32.5q31 0 70 -29t79 -58t73 -29q56 0 89 39.5t33 87.5v10h-21v-10q0 -42 -26.5 -74t-74.5 -32q-22 0 -51 18t-53 39.5t-56.5 39.5t-61.5 18q-59 0 -90.5 -40.5t-32.5 -85.5v-10z" />
<glyph unicode="&#xad;" d="M31 349h10h274h11v21h-11h-274h-10v-21z" />
<glyph unicode="&#x2000;" horiz-adv-x="385" />
<glyph unicode="&#x2001;" horiz-adv-x="770" />
<glyph unicode="&#x2002;" horiz-adv-x="385" />
<glyph unicode="&#x2003;" horiz-adv-x="770" />
<glyph unicode="&#x2004;" horiz-adv-x="256" />
<glyph unicode="&#x2005;" horiz-adv-x="192" />
<glyph unicode="&#x2006;" horiz-adv-x="128" />
<glyph unicode="&#x2007;" horiz-adv-x="128" />
<glyph unicode="&#x2008;" horiz-adv-x="96" />
<glyph unicode="&#x2009;" horiz-adv-x="154" />
<glyph unicode="&#x200a;" horiz-adv-x="42" />
<glyph unicode="&#x2010;" d="M31 349h10h274h11v21h-11h-274h-10v-21z" />
<glyph unicode="&#x2011;" d="M31 349h10h274h11v21h-11h-274h-10v-21z" />
<glyph unicode="&#x2012;" d="M31 349h10h274h11v21h-11h-274h-10v-21z" />
<glyph unicode="&#x2013;" horiz-adv-x="655" d="M31 349h17h476h19v21h-19h-476h-17v-21z" />
<glyph unicode="&#x2014;" horiz-adv-x="1167" d="M31 349h35h951h38v21h-38h-951h-35v-21z" />
<glyph unicode="&#x202f;" horiz-adv-x="154" />
<glyph unicode="&#x205f;" horiz-adv-x="192" />
<glyph unicode="&#x25fc;" horiz-adv-x="552" d="M0 0v553h553v-553h-553z" />
</font>
</defs>
</svg>
