<?xml version="1.0" standalone="no"?>
<!DOCTYPE svg PUBLIC "-//W3C//DTD SVG 1.1//EN" "http://www.w3.org/Graphics/SVG/1.1/DTD/svg11.dtd" >
<svg xmlns="http://www.w3.org/2000/svg">
<metadata></metadata>
<defs>
<font id="octopus_wide_300bold" horiz-adv-x="417" >
<font-face units-per-em="1024" ascent="819" descent="-205" />
<missing-glyph horiz-adv-x="500" />
<glyph horiz-adv-x="0" />
<glyph unicode="&#xd;" horiz-adv-x="1024" />
<glyph unicode="!" horiz-adv-x="245" d="M77 -2h61v31v1v30h-61v-30v-1v-31zM77 165h61v31v493v31h-61v-31v-493v-31z" />
<glyph unicode="&#x22;" horiz-adv-x="317" d="M41 494h61v30v165v31h-61v-31v-165v-30zM164 494h61v30v165v31h-61v-31v-165v-30z" />
<glyph unicode="#" horiz-adv-x="662" d="M10 165h31h71l-17 -131l-4 -35h63l3 27l17 139h184l-16 -131l-4 -35h62l3 27l18 139h119h30v61h-30h-112l34 269h78h30v61h-30h-71l16 129l4 35h-62l-3 -27l-17 -137h-184l16 129l4 35h-63l-3 -27l-17 -137h-119h-31v-61h31h111l-33 -269h-78h-31v-61zM182 226l33 269 h184l-33 -269h-184z" />
<glyph unicode="$" horiz-adv-x="645" d="M60.5 559q-15.5 -77 1 -153.5t54.5 -76.5h125v-197h-125h-31v-61h31h125v-41v-31h61v31v41h116q26 0 44 32.5t22.5 79t0 93.5t-22 80t-43.5 34h-1h-116v184h116h31v62h-31h-116v53v31h-61v-31v-53h-125q-40 0 -55.5 -77zM100 482q-1 92 16 92h125v-184h-125q-15 0 -16 92 zM302 132v197h116q9 0 15 -20.5t7.5 -49.5t0 -58t-7.5 -49t-15 -20h-116z" />
<glyph unicode="%" horiz-adv-x="777" d="M53 -1h79l9 11l537 657l41 50h-79l-9 -11l-537 -657zM87 546q0 -86 50.5 -135.5t116.5 -49.5t114 50t47 136q1 80 -47 124.5t-114 45.5t-116.5 -45t-50.5 -126zM148 546q0 58 28.5 84t77.5 25t74.5 -25.5t24.5 -81.5v-1q3 -124 -99 -124q-48 0 -77 29.5t-29 93.5z M355 166q2 -82 49.5 -125t113.5 -42q65 1 113 46.5t48 125.5q0 85 -47.5 135t-114.5 51q-66 1 -114.5 -50.5t-47.5 -139.5v-1zM417 168q-1 67 26 98t74 30q100 -2 100 -125q0 -109 -99 -111q-48 -1 -73.5 23.5t-27.5 84.5z" />
<glyph unicode="&#x26;" horiz-adv-x="707" d="M24 242.5q-3 -44.5 11 -87.5t41.5 -78t76 -56.5t109.5 -21.5q113 0 197 107q71 -71 105 -100l9 -7h95l-63 54q-54 47 -110 104q10 15 22.5 37t20 35t16.5 26.5t16.5 19.5t14.5 6h30v61h-30q-32 -1 -60 -31t-68 -91q-6 -9 -9 -14q-111 119 -189 227q35 22 55 36t43.5 33.5 t34 38t10.5 37.5q0 66 -46.5 104.5t-94.5 37.5t-92.5 -38t-45.5 -104q0 -39 52 -123q-102 -67 -131 -130q-17 -38 -20 -82.5zM81.5 217q-0.5 42 17.5 81q19 42 111 104q78 -113 202 -247q-73 -95 -150 -95q-60 0 -102.5 22.5t-60 57.5t-18 77zM184 575q3 81 79 83 q33 1 55.5 -19t22.5 -61q0 -9 -7.5 -19t-28.5 -24.5t-33.5 -22t-46.5 -27.5q-41 65 -41 90z" />
<glyph unicode="'" horiz-adv-x="235" d="M51 495h62v30v164v31h-62v-31v-164v-30z" />
<glyph unicode="(" horiz-adv-x="337" d="M41 274q0 -123 43 -224t110 -168l8 -9h87l-52 52q-135 137 -135 349q0 113 33.5 191.5t103.5 161.5l42 50h-80l-10 -11q-74 -87 -112 -177.5t-38 -214.5z" />
<glyph unicode=")" horiz-adv-x="337" d="M6 -127h80l9 11q62 74 106.5 177t44.5 213q0 212 -151 392l-9 11h-80l42 -50q136 -160 136 -353q0 -99 -39 -190.5t-97 -160.5z" />
<glyph unicode="*" horiz-adv-x="591" d="M41 494h31h145l-72 -120l-15 -26l52 -32l17 27l71 121l72 -121l16 -27l53 32l-16 26l-71 120h145h31v61h-31h-144l70 119l16 25l-53 32l-16 -26l-72 -121l-71 121l-17 26l-52 -32l15 -25l71 -119h-144h-31v-61z" />
<glyph unicode="+" horiz-adv-x="539" d="M41 329h31h142v-133v-31h61v31v133h142h30v61h-30h-142v135v31h-61v-31v-135h-142h-31v-61z" />
<glyph unicode="," horiz-adv-x="225" d="M22 -90h68l9 16q25 51 34 178l2 33h-61l-2 -28q-8 -116 -28 -154z" />
<glyph unicode="-" d="M31 329h30h234h31v61h-31h-234h-30v-61z" />
<glyph unicode="." horiz-adv-x="245" d="M77 -2h61v31v1v30h-61v-30v-1v-31z" />
<glyph unicode="/" horiz-adv-x="384" d="M31 -1h64l6 23l190 659l11 39h-64l-7 -23l-189 -659z" />
<glyph unicode="0" horiz-adv-x="664" d="M31 358q0 -92 13.5 -194t40.5 -123t90.5 -36t126.5 -15q62 0 125 15t90 36t41 123.5t14 193.5q0 84 -15 189.5t-38 126.5q-22 21 -88 37t-129 16q-64 0 -130 -16t-88 -37q-23 -21 -38 -126.5t-15 -189.5zM92 358q0 69 11 165t22 106q15 13 68.5 25t108.5 12t108 -12 t68 -25q11 -10 22 -106t11 -165q0 -76 -9.5 -167t-21.5 -101q-20 -15 -72 -27t-106 -12q-55 0 -107.5 12t-72.5 27q-12 10 -21 100.5t-9 167.5z" />
<glyph unicode="1" horiz-adv-x="524" d="M49 521l44 -42l22 22l145 154h34v-625v-31h61v31v656v31h-30h-78h-14l-9 -9l-154 -164z" />
<glyph unicode="2" horiz-adv-x="638" d="M41 -1h475h31v61h-31h-412q5 25 21.5 49t51 52t59 45.5t75.5 52.5q44 30 68.5 47t61.5 47.5t56.5 54.5t34.5 56.5t15 64.5q0 41 -15 89t-42 69q-25 20 -81.5 30t-114.5 10q-59 0 -115.5 -10t-81.5 -30q-27 -21 -41.5 -68.5t-14.5 -89.5v-30h61v30q0 33 9 65.5t23 43.5 q40 28 160 28t160 -28q14 -11 22.5 -43.5t8.5 -65.5q0 -28 -15 -55t-49.5 -57t-62.5 -50.5t-82 -56.5l-57 -39t-52.5 -38.5t-51 -44t-37.5 -43.5t-28.5 -50.5t-8.5 -51.5v-44z" />
<glyph unicode="3" horiz-adv-x="679" d="M36 147q20 -80 63 -114q26 -21 86 -32t119 -11q149 0 213 51q37 29 54 81.5t17 104.5q0 49 -17 100t-54 79q-54 42 -170 46l183 138l12 9l1 14l3 72l1 32h-1h-31h-416v-62h384l-1 -25l-211 -158l-12 -9l-9 -7l13 -24l15 -25l8 -16h18q133 0 175 -35h1q46 -34 46 -129 q0 -101 -46 -137q-50 -39 -176 -39q-50 0 -99.5 8t-66.5 21q-25 19 -43 84z" />
<glyph unicode="4" horiz-adv-x="665" d="M19 287l1 -123h400v-134v-31h61v31v134h62h30v61h-30h-62v190v30h-61v-30v-190h-338l-1 45l243 400l27 47h-71l-10 -15z" />
<glyph unicode="5" horiz-adv-x="665" d="M28 136q25 -79 70 -111q24 -19 85 -28.5t115 -6.5q144 0 208 52q35 29 51 81t16 104q0 119 -65 188q-64 65 -211 65q-106 0 -182 -37l46 212h340v62h-389l-80 -361l73 -8q47 71 192 71q120 0 166 -47q49 -50 49 -145q0 -102 -45 -138q-47 -38 -171 -38q-46 -2 -95 4.5 t-66 18.5q-30 21 -48 81z" />
<glyph unicode="6" horiz-adv-x="664" d="M41 239q-4 -39 10.5 -97t40.5 -86q27 -30 90 -48t125 -18t124.5 18.5t89.5 47.5q26 29 40.5 83t10.5 100q0 113 -68 177q-36 33 -130 47.5t-217 2.5q54 104 170 197l67 54h-98l-8 -7q-247 -200 -247 -471zM102 234q0 88 27 166l8 1q132 15 214.5 5.5t111.5 -35.5 q48 -47 48 -134q4 -39 -6 -79t-29 -61q-19 -20 -67.5 -33t-101.5 -13q-54 0 -102.5 13t-67.5 33q-18 21 -28.5 63.5t-6.5 73.5z" />
<glyph unicode="7" horiz-adv-x="649" d="M51 655h31h414v-39q-121 -127 -198 -258.5t-138 -318.5l-13 -40h65l7 21q60 184 134.5 310.5t203.5 261.5v125h-475h-31v-62z" />
<glyph unicode="8" horiz-adv-x="675" d="M41 237q0 -52 12.5 -102.5t37.5 -78.5q27 -30 90.5 -48t130.5 -18q66 0 130.5 18t91.5 48q25 28 37.5 78.5t12.5 102.5q0 56 -17 109.5t-55 80.5q-21 17 -48 27q41 37 45 118q-4 84 -55 118q-46 27 -141 27q-98 0 -142 -27q-52 -33 -54 -118q2 -82 42 -118 q-26 -11 -46 -26q-38 -28 -55 -81.5t-17 -109.5zM102 237q0 107 48 142q51 40 163 40q110 0 162 -41q47 -33 47 -141q0 -100 -36 -140q-17 -20 -66.5 -33t-107.5 -13q-59 0 -108 13t-66 33q-36 40 -36 140zM178 572q1 50 26 65q30 18 109 18q76 0 108 -18q23 -14 26 -65 q-3 -58 -26 -75q-31 -17 -108 -17q-81 0 -108 17q-25 16 -27 75z" />
<glyph unicode="9" horiz-adv-x="661" d="M51 485q0 -129 52 -183q57 -61 207 -61h108q-13 -21 -133 -194l-33 -48h75l9 13q13 19 49 69.5t54.5 77.5t47.5 76t43.5 84t26.5 80t12 86q0 123 -53 177q-33 32 -89.5 48.5t-116.5 16.5t-117.5 -16.5t-88.5 -48.5q-53 -53 -53 -177zM113 485q0 99 34 133q47 48 163 48 q114 0 163 -48q35 -36 35 -133q0 -80 -54 -183h-29h-115q-123 0 -162 43q-35 35 -35 140z" />
<glyph unicode=":" horiz-adv-x="245" d="M87 23h61v30v1v31h-61v-31v-1v-30zM87 429h61v31v1v31h-61v-31v-1v-31z" />
<glyph unicode=";" horiz-adv-x="225" d="M20 -90h70l9 16q25 50 34 178l2 33h-61l-2 -28q-9 -117 -28 -154zM56 427h62v31v1v30h-62v-30v-1v-31z" />
<glyph unicode="&#x3c;" horiz-adv-x="600" d="M41 339l19 -8l406 -165l42 -18v67l-20 8l-334 136l334 137l20 8v66l-42 -17l-406 -165l-19 -8v-41z" />
<glyph unicode="=" horiz-adv-x="600" d="M41 196h31h405h31v61h-31h-405h-31v-61zM41 436h31h405h31v62h-31h-405h-31v-62z" />
<glyph unicode="&#x3e;" horiz-adv-x="600" d="M41 148l42 18l405 165l20 8v41l-20 8l-405 165l-42 17v-66l19 -8l335 -137l-335 -136l-19 -8v-67z" />
<glyph unicode="?" horiz-adv-x="569" d="M41 525h61q0 65 44 99.5t113 33.5t113 -36t44 -98q0 -22 -13 -42.5t-24.5 -30.5t-45.5 -37q-32 -26 -50 -44.5t-36.5 -55.5t-18.5 -78v-81h62v81q0 28 13 53t26.5 39t42.5 39q23 18 30 24t26 24t26.5 31t15 34.5t7.5 43.5q0 85 -66 140t-152 56t-152 -53.5t-66 -141.5z M229 -3h62v31v2v30h-62v-30v-2v-31z" />
<glyph unicode="A" horiz-adv-x="827" d="M5 0h67l8 19l59 144h11h454h13l59 -144l8 -19h67l-18 42l-279 675h-152l-279 -675zM165 224l178 431h70l178 -431h-426z" />
<glyph unicode="B" horiz-adv-x="784" d="M72 0h380q55 0 103.5 15.5t76.5 37.5q26 21 43 62t17 80q0 40 -16.5 80t-43.5 61q-22 17 -59 31q19 10 23 14q29 21 47.5 61t18.5 80t-18.5 80.5t-47.5 61.5q-29 22 -83.5 37.5t-115.5 15.5h-325v-328v-61v-328zM133 61v267h264h55q93 0 141 -41q38 -29 38 -92 q0 -65 -38 -93q-48 -41 -141 -41h-319zM133 389v266h264q105 0 162 -41q41 -29 41 -92t-41 -92q-57 -41 -162 -41h-264z" />
<glyph unicode="C" horiz-adv-x="789" d="M31 358q4 -90 32 -173t80 -123q95 -72 251 -72h20q101 0 170 25q36 14 72.5 51t58.5 84l-56 26q-39 -80 -98 -103q-57 -22 -147 -22h-21q-134 0 -213 61q-40 31 -62 98.5t-26 147.5q2 79 25 147.5t64 99.5q78 61 211 61h21h1q86 0 163 -33q46 -18 80 -93l56 26 q-43 94 -114 124q-89 37 -185 37h-20q-155 0 -250 -73q-52 -39 -81 -123t-32 -172v-1z" />
<glyph unicode="D" horiz-adv-x="830" d="M72 0h334q155 3 247 80q46 40 67 118q18 68 18 139v21v21q0 72 -18 140q-21 78 -67 118q-92 77 -247 80h-334v-717zM133 61v594h273q136 -3 206 -65q65 -58 65 -210v-22v-22q0 -151 -65 -209q-71 -63 -206 -66h-273z" />
<glyph unicode="E" horiz-adv-x="716" d="M72 0h522h31v61h-31h-461v267h330h31v61h-31h-330v266h461h31v62h-31h-522v-328v-61v-328z" />
<glyph unicode="F" horiz-adv-x="619" d="M72 0h61v31v297h364h30v61h-30h-364v266l426 -1h31v62h-31l-487 1v-328v-61v-297v-31z" />
<glyph unicode="G" horiz-adv-x="789" d="M31 358q1 -87 24.5 -168t72.5 -121q95 -79 257 -79q93 0 157 17q69 19 142 69l13 9v273v31h-30h-282v-61h251v-210q-49 -35 -111 -51t-140 -16q-142 0 -218 65q-73 61 -75 242v8q0 72 18 136q19 68 57 99q76 65 218 65q38 -1 98 -13.5t88 -27.5q23 -14 42 -41.5t24 -46.5 l59 16q-7 26 -34 65.5t-59 59.5h-1q-35 19 -104 33.5t-112 15.5h-1q-162 0 -257 -79q-49 -41 -74 -123q-23 -79 -23 -160v-7z" />
<glyph unicode="H" horiz-adv-x="768" d="M72 0h61v31v297h481v-297v-31h62v31v297v61v297v31h-62v-31v-297h-481v297v31h-61v-31v-297v-61v-297v-31z" />
<glyph unicode="I" horiz-adv-x="238" d="M73 0h61v31v655v31h-61v-31v-655v-31z" />
<glyph unicode="J" horiz-adv-x="348" d="M0 -61v-62h31q109 0 162 53q31 26 47 68.5t16 84.5v603v31h-61v-31v-603q0 -71 -43 -108q-36 -36 -121 -36h-31z" />
<glyph unicode="K" horiz-adv-x="655" d="M72 0h61v31v279l380 -303l9 -7h99l-69 54l-357 285v39l357 285l69 54h-99l-9 -7l-380 -303v279v31h-61v-31v-655v-31z" />
<glyph unicode="L" horiz-adv-x="631" d="M72 0h457h31v61h-31h-396v625v31h-61v-31v-686z" />
<glyph unicode="M" horiz-adv-x="1054" d="M72 0h61v31v624h22l307 -655h55h55l308 655h21v-624v-31h62v31v686h-122l-307 -656h-17h-16l-307 656h-122v-686v-31z" />
<glyph unicode="N" horiz-adv-x="788" d="M72 0h61v31v624h17l429 -655h117v686v31h-61v-31v-625h-24l-429 656h-110v-686v-31z" />
<glyph unicode="O" horiz-adv-x="837" d="M31 358q1 -87 24.5 -168t72.5 -121q96 -79 260 -79t260 79q49 41 73 121.5t24 167.5t-24 168.5t-73 121.5q-96 79 -260 79t-260 -79q-50 -41 -74 -123q-24 -79 -23 -160v-7zM92 358v8q0 72 18 136q19 68 57 99q77 65 221 65t221 -65q38 -31 56.5 -97.5t18.5 -145.5 t-18.5 -145t-56.5 -97q-77 -65 -221 -65t-221 65q-73 61 -75 242z" />
<glyph unicode="P" horiz-adv-x="766" d="M72 0h61v31v297h241q77 0 148.5 10.5t97.5 30.5q27 21 41 65.5t14 87.5q0 41 -14 87t-41 67q-26 20 -96 30.5t-150 10.5h-302v-328v-61v-297v-31zM133 389v266h241q170 0 209 -28q30 -24 30 -105q0 -80 -30 -104q-18 -13 -79.5 -21t-129.5 -8h-241z" />
<glyph unicode="Q" horiz-adv-x="837" d="M31 358q1 -87 24.5 -168t72.5 -121q79 -66 206 -77v-55l21 -8l258 -79l40 -12v65l-21 7l-258 79l-4 1h18q164 0 260 79q49 41 73 121.5t24 167.5t-24 168.5t-73 121.5q-96 79 -260 79t-260 -79q-49 -41 -74 -123q-23 -79 -23 -160v-7zM92 358v8q0 72 18 136q19 68 57 99 q77 65 221 65t221 -65q38 -31 56.5 -97.5t18.5 -145.5t-18.5 -145t-56.5 -97q-77 -65 -221 -65t-221 65q-73 61 -75 242z" />
<glyph unicode="R" horiz-adv-x="766" d="M72 0h61v31v297h227l261 -317l9 -11h80l-42 50l-231 280q141 7 183 39q27 21 41 65.5t14 87.5q0 41 -14 87t-41 67q-26 20 -96 30.5t-150 10.5h-302v-328v-61v-297v-31zM133 389v266h241q170 0 209 -28q30 -24 30 -105q0 -80 -30 -104q-18 -13 -79.5 -21t-129.5 -8h-66 h-175z" />
<glyph unicode="S" horiz-adv-x="722" d="M29 194q26 -106 86 -151h1q33 -24 100 -38.5t125 -14.5q146 0 214 46q76 49 76 153q0 56 -53.5 98.5t-129.5 68.5t-152 49.5t-129.5 54t-53.5 67.5q0 72 47 103q59 36 181 36q103 0 167 -44q24 -17 34 -42.5t15 -70.5l61 6q-12 114 -75 158q-78 54 -202 54 q-143 0 -214 -46q-38 -24 -57 -66.5t-19 -87.5q0 -55 53.5 -97.5t129.5 -68.5t152 -49.5t129.5 -54t53.5 -68.5q0 -70 -47 -102q-56 -36 -181 -36q-52 0 -108 11t-82 30q-41 30 -63 116z" />
<glyph unicode="T" horiz-adv-x="665" d="M20 655h31h243v-624v-31h61v31v624h229h30v62h-30h-229h-61h-243h-31v-62z" />
<glyph unicode="U" horiz-adv-x="784" d="M51 284q6 -72 32 -140t69 -100q74 -55 192 -55q14 0 28 1q14 -1 28 -1q118 0 192 55q44 32 69.5 99.5t30.5 139.5v403v31h-61v-31v-401q-11 -144 -76 -192q-58 -43 -157 -43q-12 0 -26 1q-13 -1 -26 -1q-100 0 -158 43q-62 46 -75 193v400v31h-62v-31v-402z" />
<glyph unicode="V" horiz-adv-x="729" d="M7 717l16 -41l242 -676h125l245 676l15 41h-65l-7 -21l-231 -635h-39l-228 635l-7 21h-66z" />
<glyph unicode="W" horiz-adv-x="1126" d="M23 717l9 -38l170 -679h114l198 655h18h18l185 -655h118l180 678l10 39h-63l-6 -23l-168 -633h-24l-185 656h-65h-63l-198 -656h-22l-158 632l-6 24h-62z" />
<glyph unicode="X" horiz-adv-x="747" d="M17 0h79l9 11l248 307l248 -307l9 -11h79l-41 50l-255 317l242 300l41 50h-79l-9 -11l-235 -291l-234 291l-9 11h-79l41 -50l242 -300l-256 -317z" />
<glyph unicode="Y" horiz-adv-x="741" d="M-2 717l27 -46l243 -425h36v-215v-31h62v31v215h35l244 425l27 46h-71l-9 -16l-225 -394h-64l-225 394l-9 16h-71z" />
<glyph unicode="Z" horiz-adv-x="761" d="M41 0h598h31v61h-31h-537v18l541 532v106h-522h-31v-62h31h461v-17l-541 -533v-105z" />
<glyph unicode="[" horiz-adv-x="400" d="M63 -158v-30h31h184h30v61h-30h-153v750h153h30v61h-30h-184h-31v-31v-811z" />
<glyph unicode="\" horiz-adv-x="410" d="M30 720l12 -40l216 -660l7 -21h65l-13 40l-216 659l-7 22h-64z" />
<glyph unicode="]" horiz-adv-x="400" d="M63 -127v-61h31h184h30v30v811v31h-30h-184h-31v-61h31h153v-750h-153h-31z" />
<glyph unicode="^" horiz-adv-x="501" d="M24 329h67l8 17l128 270l124 -270l8 -17h68l-20 44l-152 329l-8 18h-39l-8 -18l-156 -329z" />
<glyph unicode="_" horiz-adv-x="503" d="M1 -124v-61h31h492h31v61h-31h-492h-31z" />
<glyph unicode="`" horiz-adv-x="317" d="M10 720l37 -49l123 -164l9 -12h77l-37 49l-123 164l-9 12h-77z" />
<glyph unicode="a" horiz-adv-x="675" d="M31 276q1 -67 20 -130t57 -95q71 -61 199 -61q129 0 200 61l15 15v-35v-31h62v31v245v246v31h-62v-31v-35l-15 15q-71 61 -200 61q-128 0 -199 -61q-38 -31 -58 -96q-19 -62 -19 -124v-6zM92 276v9q0 125 54 170q54 47 161 47t161 -47q54 -44 54 -179q0 -134 -54 -178 q-54 -47 -161 -47t-161 47q-52 43 -54 178z" />
<glyph unicode="b" horiz-adv-x="706" d="M61 0h62v31v35q2 -3 4.5 -5.5t5.5 -5t5 -4.5q71 -61 200 -61t200 61q38 32 57 95t19 130t-19 130.5t-57 95.5q-71 61 -200 61t-200 -61l-4.5 -4.5l-5.5 -5.5l-5 -5v199v31h-62v-31v-399v-11v-245v-31zM123 276v13q2 122 54 166q54 47 161 47t161 -47q54 -44 54 -179 q0 -134 -54 -178q-54 -47 -161 -47t-161 47q-52 43 -54 178z" />
<glyph unicode="c" horiz-adv-x="629" d="M32 276q1 -67 21 -130.5t60 -95.5q75 -60 212 -60h24q67 0 107 14h1q28 11 58 39.5t50 65.5l-55 28q-29 -58 -74 -76q-35 -10 -91 -10h-19h-1q-115 0 -173 47v1q-57 44 -59 177v7q0 53 14 99q15 49 44 72h1q58 48 173 48h7q25 0 58 -6q38 -6 57 -16q18 -10 36 -31t23 -35 l57 24q-9 21 -34.5 51.5t-50.5 44.5q-26 14 -74 22q-42 7 -71 7h-8q-137 0 -212 -60q-41 -32 -61 -97q-20 -62 -20 -124v-6z" />
<glyph unicode="d" horiz-adv-x="676" d="M32 275q1 -66 20 -129t56 -95q72 -61 200 -61q129 0 200 61l15 15v-35v-31h62v31v245v410v31h-62v-31v-199l-15 15q-71 61 -200 61q-128 0 -200 -61q-38 -32 -58 -97q-18 -59 -18 -118v-12zM93 278v14q0 48 12 91q14 49 41 72q55 47 162 47t161 -47q54 -44 54 -179 q0 -134 -54 -178q-54 -47 -161 -47t-162 47q-51 43 -53 180z" />
<glyph unicode="e" horiz-adv-x="665" d="M32 276q1 -67 20 -130t57 -95q71 -61 198 -61q8 -1 18 -1q53 0 135 20q61 18 108 92l-51 33q-23 -34 -37 -46t-37 -19q-68 -19 -113 -19q-10 0 -19 1h-2q-109 0 -161 47h-1q-46 37 -53 148h449h30v30q0 67 -18 130.5t-54 94.5q-68 62 -193 62q-128 0 -199 -61 q-38 -31 -58 -96q-19 -62 -19 -124v-6zM94 307q5 108 53 148q54 47 161 47q101 0 152 -46q26 -22 39 -66t13 -83h-418z" />
<glyph unicode="f" horiz-adv-x="402" d="M20 492h31h45v-461v-31h62v31v461h122h30v61h-30h-122q0 103 18 123q26 33 104 33h30v61h-30q-40 0 -84 -13.5t-67 -39.5q-31 -38 -33 -164h-45h-31v-61z" />
<glyph unicode="g" horiz-adv-x="676" d="M32 276q1 -67 20 -130t57 -95q71 -61 199 -61q129 0 200 61l15 15v-35q0 -79 -47 -121q-48 -43 -168 -43h-30v-62h30q144 0 209 60q34 30 51 78.5t17 87.5v245v246v31h-62v-31v-35l-15 15q-71 61 -200 61q-128 0 -199 -61q-38 -31 -58 -96q-19 -62 -19 -124v-6zM93 276v9 q0 125 54 170q54 47 161 47t161 -47q54 -44 54 -179q0 -134 -54 -178q-54 -47 -161 -47t-161 47q-52 43 -54 178z" />
<glyph unicode="h" horiz-adv-x="677" d="M58 301h3v-270v-31h62v31v298q9 101 60 138q48 35 141 35q97 0 145 -35q43 -31 55 -137v-299v-31h62v31v303q-14 136 -82 182q-63 47 -180 47q-113 0 -176 -47q-11 -7 -25 -23v196v31h-62v-31v-354z" />
<glyph unicode="i" horiz-adv-x="225" d="M57 0h62v31v491v31h-62v-31v-491v-31zM57 607h31h1h31v62h-31h-1h-31v-62z" />
<glyph unicode="j" horiz-adv-x="297" d="M0 -117v-61h31q105 0 142 47q22 25 27.5 62.5t5.5 99.5v491v31h-62v-31v-491q0 -102 -18 -123q-20 -25 -95 -25h-31zM144 604h31h1h31v62h-31h-1h-31v-62z" />
<glyph unicode="k" horiz-adv-x="563" d="M61 0h62v31v206l299 -231l8 -6h100l-71 55l-275 212v30l275 201l76 55h-105l-8 -6l-299 -219v358v31h-62v-31v-655v-31z" />
<glyph unicode="l" horiz-adv-x="235" d="M61 0h62v31v686v31h-62v-31v-686v-31z" />
<glyph unicode="m" horiz-adv-x="1053" d="M61 0h62v31v282v31q0 82 41 120q39 38 138 38q107 0 145 -30q32 -24 34 -127v-2v-312v-31h62v31v282h1l-1 32q-1 70 47 120q40 37 131 37q103 0 142 -30q37 -25 37 -128v-313v-31h62v31v313q0 54 -16.5 105t-45.5 72q-26 20 -77.5 31t-101.5 11q-116 0 -174 -55 q-17 -17 -28 -35q-13 31 -33 48q-25 20 -79 31t-105 11q-122 0 -179 -52v11v31h-62v-31v-178v-31v-282v-31z" />
<glyph unicode="n" horiz-adv-x="677" d="M58 301h3v-270v-31h62v31v298q9 101 60 138q48 35 141 35q97 0 144 -35q44 -31 56 -137v-299v-31h62v31v303q-14 136 -83 182q-62 47 -179 47q-113 0 -176 -47q-11 -7 -25 -23v29v31h-62v-31v-187z" />
<glyph unicode="o" horiz-adv-x="676" d="M32 276q1 -67 20 -130t57 -95q71 -61 199 -61q129 0 200 61q38 32 57.5 95t19.5 130t-19.5 130.5t-57.5 95.5q-71 61 -200 61q-128 0 -199 -61q-38 -31 -58 -96q-19 -62 -19 -124v-6zM93 276v9q0 125 54 170q54 47 161 47t161 -47q54 -44 54 -179q0 -134 -54 -178 q-54 -47 -161 -47t-161 47q-52 43 -54 178z" />
<glyph unicode="p" horiz-adv-x="706" d="M61 -147v-31h62v31v213q2 -3 4.5 -5.5t5.5 -5t5 -4.5q71 -61 200 -61t200 61q38 32 57 95t19 130t-19 130.5t-57 95.5q-71 61 -200 61t-200 -61l-4.5 -4.5l-5.5 -5.5l-5 -5v35v31h-62v-31v-235v-11v-423zM123 276v13q2 122 54 166q54 47 161 47t161 -47q54 -44 54 -179 q0 -134 -54 -178q-54 -47 -161 -47t-161 47q-52 43 -54 178z" />
<glyph unicode="q" horiz-adv-x="676" d="M32 276q1 -67 20 -130t57 -95q71 -61 199 -61q129 0 200 61l15 15v-213v-31h62v31v423v246v31h-62v-31v-35l-15 15q-71 61 -200 61q-128 0 -199 -61q-38 -31 -58 -96q-19 -62 -19 -124v-6zM93 276v9q0 125 54 170q54 47 161 47t161 -47q54 -44 54 -179q0 -134 -54 -178 q-54 -47 -161 -47t-161 47q-52 43 -54 178z" />
<glyph unicode="r" horiz-adv-x="484" d="M61 0h62v31v215h1l-1 32v14q3 87 69 143.5t169 56.5h31v61h-31q-71 0 -133.5 -28.5t-104.5 -78.5v76v31h-62v-31v-233v-14v-244v-31z" />
<glyph unicode="s" horiz-adv-x="605" d="M20 128q22 -66 82 -103q56 -35 170 -35q117 0 173 35q66 39 68 122v1q0 40 -31 71t-78 48t-101 33.5t-101 28.5t-78 31t-31 44q1 27 7.5 40t27.5 27q48 31 144 31q77 0 131 -31q18 -11 25 -26.5t12 -48.5l62 11q-15 86 -68 117q-67 39 -162 39q-118 0 -179 -41 q-59 -40 -61 -116v-2q0 -40 31 -71t78 -48t101 -33.5t101 -28.5t78 -31t31 -44q-1 -27 -8.5 -42.5t-29.5 -27.5h-1q-42 -27 -141 -27q-90 0 -139 27q-37 21 -55 70z" />
<glyph unicode="t" horiz-adv-x="382" d="M20 492h31h57v-338q2 -93 33 -121q32 -33 119 -33h31v61h-31q-62 0 -76 15q-13 12 -15 78v338h91h31v61h-31h-91v113v30h-61v-30v-113h-57h-31v-61z" />
<glyph unicode="u" horiz-adv-x="657" d="M41 231q13 -146 79 -194q59 -47 183 -47q122 0 181 47q12 8 20 18v-24v-31h61v31v201v31v259v31h-61v-31v-259v-29q-9 -112 -57 -148q-45 -35 -144 -35q-101 0 -146 35q-44 33 -55 147v289v31h-61v-31v-291z" />
<glyph unicode="v" horiz-adv-x="624" d="M16 553l17 -42l197 -511h109l191 511l16 42h-66l-7 -19l-177 -473h-23l-183 473l-7 19h-67z" />
<glyph unicode="w" horiz-adv-x="973" d="M20 553l12 -39l148 -514h114l148 492h15h12l149 -492h111l152 514l11 39h-64l-7 -23l-137 -469h-20l-150 492h-57h-60l-148 -492h-22l-136 469l-6 23h-65z" />
<glyph unicode="x" horiz-adv-x="624" d="M17 0h79l9 11l187 228l186 -228l9 -11h79l-41 50l-194 237l177 216l41 50h-79l-9 -11l-169 -207l-170 207l-9 11h-79l41 -50l177 -216l-194 -237z" />
<glyph unicode="y" horiz-adv-x="601" d="M29 553l14 -41l178 -512h68q-23 -65 -60.5 -91.5t-104.5 -26.5h-31v-61h31q181 0 236 202l148 490l11 40h-63l-7 -22l-141 -470h-44l-164 471l-7 21h-64z" />
<glyph unicode="z" horiz-adv-x="599" d="M31 0h445h31v61h-31h-384v14l388 371v107h-392h-31v-61h31h331v-19l-388 -372v-101z" />
<glyph unicode="{" horiz-adv-x="436" d="M29 229q64 -37 94.5 -79.5t32.5 -103.5q0 -54 15 -104.5t52 -89.5t89 -40l32 -1v61l-30 1q-49 1 -73 50.5t-24 122.5q-2 71 -34 128t-64 74q30 18 63 76.5t35 126.5q0 73 23.5 122.5t72.5 49.5h31v61h-31q-54 0 -91 -39t-51.5 -89t-14.5 -103q-4 -112 -113 -181l-14 -8 v-35z" />
<glyph unicode="|" horiz-adv-x="371" d="M74 -186v-31h61v31v875v31h-61v-31v-875z" />
<glyph unicode="}" horiz-adv-x="436" d="M29 -127v-61h30q41 0 70.5 15t46 37t26 55t12 61.5t2.5 64.5q5 103 114 176l14 9v34q-54 33 -89.5 82t-38.5 107q0 41 -6 76.5t-21.5 72.5t-48.5 59.5t-81 22.5h-30v-61h30q56 -1 76 -46t20 -125v-1q4 -67 40.5 -129t59.5 -76q-25 -15 -60.5 -70t-39.5 -128v-1 q0 -88 -18.5 -131t-77.5 -43h-30z" />
<glyph unicode="~" horiz-adv-x="600" d="M40 329h61l1 29q1 34 18 56.5t54 22.5q23 0 56 -27t71.5 -54t74.5 -27q59 0 95.5 45t36.5 95v31h-62v-31q0 -35 -17.5 -57t-52.5 -22q-19 0 -51 27t-72 54.5t-79 27.5q-62 0 -97 -45.5t-36 -93.5z" />
<glyph unicode="&#xad;" d="M31 329h30h234h31v61h-31h-234h-30v-61z" />
<glyph unicode="&#x2000;" horiz-adv-x="385" />
<glyph unicode="&#x2001;" horiz-adv-x="770" />
<glyph unicode="&#x2002;" horiz-adv-x="385" />
<glyph unicode="&#x2003;" horiz-adv-x="770" />
<glyph unicode="&#x2004;" horiz-adv-x="256" />
<glyph unicode="&#x2005;" horiz-adv-x="192" />
<glyph unicode="&#x2006;" horiz-adv-x="128" />
<glyph unicode="&#x2007;" horiz-adv-x="128" />
<glyph unicode="&#x2008;" horiz-adv-x="96" />
<glyph unicode="&#x2009;" horiz-adv-x="154" />
<glyph unicode="&#x200a;" horiz-adv-x="42" />
<glyph unicode="&#x2010;" d="M31 329h30h234h31v61h-31h-234h-30v-61z" />
<glyph unicode="&#x2011;" d="M31 329h30h234h31v61h-31h-234h-30v-61z" />
<glyph unicode="&#x2012;" d="M31 329h30h234h31v61h-31h-234h-30v-61z" />
<glyph unicode="&#x2013;" horiz-adv-x="634" d="M31 329h52h406h54v61h-54h-406h-52v-61z" />
<glyph unicode="&#x2014;" horiz-adv-x="1146" d="M31 329h104h812h108v61h-108h-812h-104v-61z" />
<glyph unicode="&#x202f;" horiz-adv-x="154" />
<glyph unicode="&#x205f;" horiz-adv-x="192" />
<glyph unicode="&#x25fc;" horiz-adv-x="552" d="M0 0v553h553v-553h-553z" />
</font>
</defs>
</svg>
