<?xml version="1.0" standalone="no"?>
<!DOCTYPE svg PUBLIC "-//W3C//DTD SVG 1.1//EN" "http://www.w3.org/Graphics/SVG/1.1/DTD/svg11.dtd" >
<svg xmlns="http://www.w3.org/2000/svg">
<metadata></metadata>
<defs>
<font id="octopus_rounded_700regular" horiz-adv-x="542" >
<font-face units-per-em="1024" ascent="819" descent="-205" />
<missing-glyph horiz-adv-x="500" />
<glyph horiz-adv-x="0" />
<glyph unicode="&#xd;" horiz-adv-x="1024" />
<glyph unicode="!" horiz-adv-x="293" d="M77 70q0 -34 22.5 -53t49 -19t49 19t22.5 53v1q0 34 -22.5 53t-49 19t-49 -19t-22.5 -53v-1zM77 216q0 -34 22.5 -53t49 -19t49 19t22.5 53v432q0 34 -22.5 53t-49 19t-49 -19t-22.5 -53v-432z" />
<glyph unicode="&#x22;" horiz-adv-x="424" d="M41 504q0 -34 22.5 -53t49 -19t49 19t22.5 53v144q0 34 -22.5 53t-49 19t-49 -19t-22.5 -53v-144zM230 504q0 -34 22.5 -53t49.5 -19t49.5 19t22.5 53v144q0 34 -22.5 53t-49.5 19t-49.5 -19t-22.5 -53v-144z" />
<glyph unicode="#" horiz-adv-x="621" d="M10 216q0 -27 19 -49.5t53 -22.5h3l-9 -63q-6 -45 26.5 -68.5t70.5 -10t44 57.5l12 84h62l-9 -63q-6 -45 26.5 -68.5t70.5 -10t44 57.5l12 84h64q34 0 53 22.5t19 49.5t-19 49.5t-53 22.5h-44l21 145h23q34 0 53 22.5t19 49.5t-19 49.5t-53 22.5h-3l9 61q6 45 -26.5 68 t-70.5 9.5t-44 -57.5l-12 -81h-62l9 61q6 45 -26.5 68t-70.5 9.5t-44 -57.5l-12 -81h-64q-34 0 -53 -22.5t-19 -49.5t19 -49.5t53 -22.5h44l-21 -145h-23q-34 0 -53 -22.5t-19 -49.5zM249 288l21 145h62l-21 -145h-62z" />
<glyph unicode="$" horiz-adv-x="604" d="M52 519.5q-5 -52.5 0.5 -105t29.5 -89.5t59 -37h59v-83h-59q-34 0 -53 -22.5t-19 -49.5t19 -49.5t53 -22.5h59q3 -29 25 -35t46 3.5t47.5 20.5t24.5 11h50q39 -1 65 37t32 92t-0.5 108.5t-32 93t-62.5 39.5h-1h-51v72h51q34 0 53 22.5t19 49t-19 49t-53 22.5h-51v2 q0 34 -22.5 53t-49 19t-49 -19t-22.5 -53v-2h-59q-36 0 -60 -37t-29 -89.5zM141 431q15 0 14.5 36t-14.5 36h59v-72h-59zM343 205v83h50q-4 0 -6 -21t0.5 -41.5t7.5 -20.5h-1h-51z" />
<glyph unicode="%" horiz-adv-x="736" d="M85.5 70q-0.5 -23 14 -40t33.5 -26.5t42 -4t40 27.5l102 128q11 -73 66 -115t116 -41q67 1 123.5 54t56.5 135q0 89 -46.5 151t-111.5 74l149 188q16 22 16.5 45t-14 40t-33.5 26.5t-42 4t-40 -27.5l-103 -130q-9 70 -64 113.5t-115 44.5q-68 1 -128 -52t-60 -137 q0 -90 50 -151t116 -72l-151 -190q-16 -22 -16.5 -45zM230 528q0 32 7 39t36 6q30 -1 35 -6.5t4 -35.5v-3q1 -55 -6 -68.5t-32 -13.5q-27 0 -35.5 14.5t-8.5 67.5zM458 186q-1 56 6.5 71t31.5 15q25 -1 32.5 -15.5t7.5 -68.5q0 -33 -5.5 -39t-33.5 -7t-32.5 4.5t-6.5 39.5z " />
<glyph unicode="&#x26;" horiz-adv-x="666" d="M28 261.5q-2 -46.5 13.5 -92.5t44 -84.5t77 -62t109.5 -23.5q100 0 171 69q36 -36 53 -51q21 -18 44.5 -19t41 11.5t28 31t6.5 42t-24 41.5q-29 25 -69 67q6 13 11 27.5t7.5 21t3.5 6.5q27 0 45.5 15t22.5 36t-0.5 42t-23.5 35.5t-46 14.5q-60 -1 -121 -88 q-41 47 -89 110q104 74 103 141q0 74 -56.5 121.5t-109.5 46.5q-51 -1 -104.5 -46.5t-55.5 -121.5v-1q0 -34 31 -93q-68 -52 -94 -112q-17 -38 -19 -84.5zM164 216.5q-1 32.5 14 71.5v1q9 18 41 44q51 -73 119 -152q-34 -39 -66 -39q-51 0 -79 21t-29 53.5zM253 548v9 q1 17 6 19q2 0 13 1h2q14 1 16.5 -2.5t2.5 -23.5v-1q0 -3 -35 -21q-5 13 -5 19z" />
<glyph unicode="'" horiz-adv-x="273" d="M51 505q0 -34 22.5 -53t49.5 -19t49.5 19t22.5 53v143q0 34 -22.5 53t-49.5 19t-49.5 -19t-22.5 -53v-143z" />
<glyph unicode="(" horiz-adv-x="296" d="M41 274q0 -214 69 -360q19 -41 59 -42.5t64.5 30.5t5.5 73q-55 116 -55 299q0 99 13.5 165.5t43.5 139.5q9 25 3.5 47.5t-24 34.5t-39.5 16t-42 -8t-31 -37q-67 -166 -67 -358z" />
<glyph unicode=")" horiz-adv-x="296" d="M42.5 -76.5q5.5 -22.5 24 -34.5t39.5 -16t42 8t31 37q67 163 67 356t-67 358q-10 25 -31 37t-42 8t-39.5 -16t-24 -34.5t3.5 -47.5q56 -138 56 -305q0 -163 -56 -303q-9 -25 -3.5 -47.5z" />
<glyph unicode="*" horiz-adv-x="550" d="M41 503.5q0 -26.5 19 -49t53 -22.5h37l-21 -40q-12 -24 -8.5 -47t21 -37t37.5 -20t42 3.5t35 33.5l14 26l15 -26q13 -24 35 -33.5t42 -3.5t37.5 20t21 37t-8.5 47l-22 40h38q34 0 53 22.5t19 49t-19 49t-53 22.5h-37l21 39q12 24 8.5 47t-21 37.5t-37.5 20.5t-42 -3.5 t-35 -33.5l-15 -27l-14 27q-13 24 -35 33.5t-42 3.5t-37.5 -20.5t-21 -37.5t8.5 -47l21 -39h-37q-34 0 -53 -22.5t-19 -49z" />
<glyph unicode="+" horiz-adv-x="498" d="M41 359.5q0 -26.5 19 -49t53 -22.5h60v-72q0 -34 22.5 -53t49 -19t49 19t22.5 53v72h60q34 0 53 22.5t19 49t-19 49t-53 22.5h-60v74q0 34 -22.5 53t-49 19t-49 -19t-22.5 -53v-74h-60q-34 0 -53 -22.5t-19 -49z" />
<glyph unicode="," horiz-adv-x="248" d="M43 -1q-7 -26 2.5 -47.5t29 -31t41 -10.5t40.5 13t26 41q13 53 16 161q1 45 -34 64.5t-72 2t-38 -62.5q-3 -102 -11 -130z" />
<glyph unicode="-" horiz-adv-x="376" d="M30 359.5q0 -26.5 19 -49t53 -22.5h152q34 0 53 22.5t19 49t-19 49t-53 22.5h-152q-34 0 -53 -22.5t-19 -49z" />
<glyph unicode="." horiz-adv-x="278" d="M77 70q0 -34 22.5 -53t49 -19t49 19t22.5 53v1q0 34 -22.5 53t-49 19t-49 -19t-22.5 -53v-1z" />
<glyph unicode="/" horiz-adv-x="343" d="M42 84q-8 -44 24 -69t70.5 -13.5t46.5 55.5l108 578q8 44 -24 69t-70.5 13.5t-46.5 -55.5z" />
<glyph unicode="0" d="M31 358q0 -88 11 -184.5t37 -122.5q23 -25 78 -43t104 -18q50 0 104 18t77 43q25 25 37.5 124t12.5 183q0 78 -12.5 178t-33.5 124q-21 27 -78 47t-107 20t-107 -20t-78 -47q-21 -24 -33 -123.5t-12 -178.5zM174 358q0 35 2.5 86.5t5.5 87.5t4 37q0 1 1 1q2 2 11 5.5 t26.5 6t36.5 2.5t36.5 -2.5t26.5 -6t11 -5.5l1 -1q1 -1 4 -37t5.5 -87.5t2.5 -86.5q0 -16 -0.5 -35.5l-1 -39t-1.5 -38.5t-1.5 -35.5t-1 -29.5t-0.5 -20l-1 -8q-1 0 -2 -1q-18 -18 -78 -18q-61 0 -79 18q-1 1 -2 1l-2 34q-1 34 -2.5 86.5t-1.5 85.5z" />
<glyph unicode="1" horiz-adv-x="430" d="M63.5 482q10.5 -25 32 -40.5t50.5 -11t47 31.5v-391q0 -34 22.5 -53t49 -19t49 19t22.5 53v574q0 30 -21 51t-51 21h-44q-41 0 -61 -35l-87 -143q-19 -32 -8.5 -57z" />
<glyph unicode="2" horiz-adv-x="522" d="M41 71q0 -30 21 -51t51 -21h286q34 0 53 22.5t19 49t-19 49t-53 22.5h-192q24 33 97 99q39 37 58.5 56.5t50 57t44.5 75.5t14 79q0 42 -12.5 92.5t-37.5 74.5q-24 24 -72.5 37.5t-92.5 13.5t-92.5 -13.5t-72.5 -37.5q-25 -24 -37.5 -74.5t-12.5 -92.5q0 -34 22.5 -53 t49 -19t49 19t22.5 53q0 55 7 66q11 9 65 9t65 -9q7 -11 7 -66q0 -35 -28 -69.5t-92 -92.5q-38 -35 -58 -55.5t-50.5 -57.5t-44.5 -74.5t-14 -77.5v-11z" />
<glyph unicode="3" horiz-adv-x="552" d="M36 157q16 -80 55 -117q24 -25 75 -37.5t95 -12.5q48 0 99.5 15t81.5 46q31 31 45.5 86.5t14.5 105.5q0 47 -14.5 100.5t-45.5 84.5q-19 20 -50 34l58 49q25 21 25 55l-1 80q0 29 -21.5 50t-50.5 21h-263q-34 0 -53 -22.5t-19 -49.5t19 -49.5t53 -22.5h164l-98 -83 q-19 -15 -24.5 -38t4.5 -45l11 -23q19 -42 65 -42q65 0 79 -14h1q17 -18 17 -85q0 -73 -17 -91h-1q-19 -19 -79 -19t-70 7q-8 9 -14 45q-7 33 -32.5 47.5t-52 9.5t-44.5 -28.5t-12 -56.5zM297 382l3 3z" />
<glyph unicode="4" d="M19 288l1 -74q1 -29 22 -50t50 -21h195v-72q0 -34 22.5 -53t49 -19t49 19t22.5 53v73q23 3 31.5 17.5t4 34t-12 38.5t-15.5 34.5t-8 17.5v122q0 34 -22.5 53t-49 19t-49 -19t-22.5 -53v-121h-118l153 328q19 41 -6 72.5t-66 30t-60 -42.5l-164 -357q-7 -18 -7 -30z" />
<glyph unicode="5" d="M29 143q18 -75 60 -112q24 -22 75.5 -32.5t93.5 -8.5q46 0 96.5 15.5t79.5 46.5q30 31 44 86t14 105q0 115 -54 188q-30 41 -81 59.5t-101 18.5q-26 0 -57 -7l11 71h182q34 0 53 22.5t19 49.5t-19 49.5t-53 22.5h-244q-27 0 -46.5 -17.5t-23.5 -43.5l-40 -262 q-4 -25 7.5 -46t33.5 -31l22 -10q28 -12 57 -1t40 39q8 21 58 21q31 0 44.5 -4t23.5 -17q24 -33 24 -102q0 -74 -17 -91l-1 -1q-17 -18 -74 -18h-3q-61 -3 -67 3q-2 2 -3 2q-7 6 -15 40q-7 27 -26 41.5t-40.5 13.5t-41 -10.5t-29 -31t-2.5 -48.5zM93 469l4 -2q-2 -1 -3.5 0 t-0.5 2z" />
<glyph unicode="6" d="M41 254q-2 -37 9 -95t31 -87q24 -36 80 -59t105 -23t105.5 23t80.5 59q20 30 31 84t9 98q0 109 -54 179h-1q-52 65 -186 76q25 42 67 87q19 20 21 44t-10.5 41.5t-31 28.5t-41.5 7.5t-42 -23.5q-173 -186 -173 -440zM184 245v6q0 57 12 117q73 0 95.5 -5t34.5 -20 q22 -26 22 -91v-4q5 -65 -17 -98q-11 -17 -65 -17q-53 0 -64 17q-8 13 -14 43t-4 52z" />
<glyph unicode="7" horiz-adv-x="532" d="M51 645q0 -27 19 -49.5t53 -22.5h200q-132 -199 -200 -486q-7 -26 3 -47.5t29.5 -30.5t41 -10t40 14t25.5 41q38 157 83.5 262.5t122.5 215.5q13 17 13 41v72q0 30 -20.5 51t-50.5 21h-287q-34 0 -53 -22.5t-19 -49.5z" />
<glyph unicode="8" horiz-adv-x="552" d="M41 253q-2 -39 9.5 -95.5t30.5 -85.5q24 -36 80.5 -59t109.5 -23t110 23t81 59q19 30 29.5 82t10.5 98q0 49 -14.5 106.5t-45.5 88.5q0 1 -2.5 4t-4.5 4q17 44 17 91q0 90 -53 134l-3 3q-45 34 -125 34q-83 0 -127 -35v-1q-53 -42 -53 -135q0 -53 16 -92l-7 -7 q-59 -59 -59 -194zM184 247v4q0 77 18 96h1q19 19 63 19q61 -7 74 -20l1 -1q17 -16 17 -93t-17 -102q-11 -17 -70 -17q-58 0 -69 17q-8 13 -13.5 43t-4.5 54zM234 546v23q4 4 37 4t37 -4v-23q0 -33 -2 -35t-35 -2q-32 0 -33 1l-1 1q-3 3 -3 35z" />
<glyph unicode="9" d="M51 470q0 -127 42 -183q26 -38 74 -56t97 -20q-9 -18 -28 -54t-28 -54q-12 -25 -8 -47.5t21.5 -36.5t37.5 -19.5t42 4.5t34 34q7 15 37.5 72.5t45 88t35.5 82t30 98t9 91.5q0 119 -42 177l-1 2q-28 37 -79.5 57.5t-98.5 20.5t-99 -21t-79 -58q-42 -56 -42 -178zM195 470 q0 73 14 94h1q14 20 61 20q48 0 62 -20q15 -21 15 -94q0 -53 -21 -116h-56q-49 0 -60 16q-1 0 -1 0.5t-1 0.5q-14 21 -14 99z" />
<glyph unicode=":" horiz-adv-x="278" d="M83 91q0 -34 22.5 -53t49 -19t49 19t22.5 53v1q0 34 -22.5 53t-49 19t-49 -19t-22.5 -53v-1zM83 447q0 -34 22.5 -53t49 -19t49 19t22.5 53v2q0 34 -22.5 53t-49 19t-49 -19t-22.5 -53v-2z" />
<glyph unicode=";" horiz-adv-x="248" d="M43 0q-12 -43 18 -70.5t69.5 -18.5t51.5 52q12 53 16 162q1 45 -34 64.5t-72 2t-38 -62.5q-3 -103 -11 -129zM48 434q0 -34 22.5 -53t49 -19t49 19t22.5 53v1q0 34 -22.5 53t-49 19t-49 -19t-22.5 -53v-1z" />
<glyph unicode="&#x3c;" horiz-adv-x="559" d="M44 359.5q0 -47.5 39 -65.5l324 -144q26 -10 48.5 -5t35.5 23t17.5 38.5t-6.5 42t-36 32.5l-177 78l177 79q25 11 36 32.5t6.5 42t-17.5 38.5t-35.5 23t-48.5 -5l-324 -144q-39 -18 -39 -65.5z" />
<glyph unicode="=" horiz-adv-x="559" d="M41 242.5q0 -26.5 19 -49t53 -22.5h323q34 0 53 22.5t19 49t-19 49t-53 22.5h-323q-34 0 -53 -22.5t-19 -49zM41 453.5q0 -26.5 19 -49t53 -22.5h323q34 0 53 22.5t19 49t-19 49t-53 22.5h-323q-34 0 -53 -22.5t-19 -49z" />
<glyph unicode="&#x3e;" horiz-adv-x="559" d="M40.5 206.5q4.5 -20.5 17.5 -38.5t35.5 -23t48.5 5l324 144q39 18 39 65.5t-39 65.5l-324 144q-26 10 -48.5 5t-35.5 -23t-17.5 -38.5t6.5 -42t36 -32.5l177 -79l-177 -78q-25 -11 -36 -32.5t-6.5 -42z" />
<glyph unicode="?" horiz-adv-x="528" d="M41 505q0 -34 22.5 -53t49 -19t49 19t22.5 53q0 41 17 57t57 15q41 -1 58.5 -17t17.5 -56q0 -14 -9 -25t-41 -40l-1 -1q-27 -25 -43 -43.5t-34.5 -59t-18.5 -84.5v-71q0 -35 25 -55q-24 -21 -24 -54v-2q0 -34 22.5 -53t49.5 -19t49.5 19t22.5 53v2q0 35 -25 55 q24 21 24 54v71q0 24 10 39t39 43q29 26 44 41t34 52.5t19 77.5q0 90 -68.5 152.5t-148.5 63.5q-81 1 -150 -61.5t-69 -153.5z" />
<glyph unicode="A" horiz-adv-x="675" d="M24 92q-4 -13 -4 -25q0 -26 20 -46q22 -22 52 -22q8 -1 16 1q40 8 53 51l27 91h2h263h4l27 -91q13 -43 53 -51q8 -2 16 -1q30 0 53 22q20 19 20 46q0 12 -4 25l-175 574q-7 23 -25.5 37t-42.5 14h-113q-24 0 -42.5 -14t-25.5 -37zM232 286l87 287h7l87 -287h-181z" />
<glyph unicode="B" horiz-adv-x="648" d="M72 72q0 -30 20.5 -51t50.5 -21h240q47 0 96.5 13.5t73.5 37.5q44 43 44 164t-44 164l-3 3q16 47 17 107q0 7 -1 13v14q0 107 -43 150q-23 25 -75.5 38t-102.5 13h-202q-30 0 -50.5 -21t-20.5 -51v-573zM215 143v144h130h38q60 0 70 -8v-3q0 -3 0.5 -9t0.5 -13.5v-17.5 v-21v-20.5v-17.5t-0.5 -13t-0.5 -9v-3q-11 -9 -70 -9h-168zM215 430v143h130q68 0 75 -7q1 -1 2 -1v-3q0 -3 0.5 -8.5t0.5 -13v-17v-19.5v-4q1 -14 1 -24q0 -32 -5 -40l-1 -1q-3 2 -9 0.5t-26 -3.5t-38 -2h-130z" />
<glyph unicode="C" horiz-adv-x="655" d="M41 355q3 -81 26.5 -166t62.5 -123q38 -38 102 -58q58 -18 114 -18h11q29 0 76.5 9t74.5 21q56 26 98 106q9 18 9 35q0 19 -13 37q-24 32 -63 33l-1 -1q-40 0 -61 -41q-11 -23 -15 -28t-13 -9v-1q-40 -18 -93 -18h-2h-12q-76 0 -112 35q-38 37 -46 191q2 61 13.5 122.5 t24.5 70.5q42 32 119 32h13h2q20 0 52 -7.5t44 -15.5q0 -1 1 -1t2 -1q8 -5 23 -45q12 -32 40 -42q14 -5 28 -5q13 1 25 5q25 10 39 35q8 14 8 30q0 13 -5 28q-31 83 -78 114q-27 20 -85.5 34t-92.5 14h-13q-52 0 -106 -14q-61 -16 -100 -44q-44 -32 -69.5 -127.5 t-27.5 -181.5v-5z" />
<glyph unicode="D" horiz-adv-x="655" d="M41 72q0 -30 21 -51t51 -21h210q56 0 115 21.5t93 59.5q35 38 54 118.5t19 158.5q0 82 -20.5 173t-59.5 123q-35 28 -91.5 45.5t-109.5 17.5h-210q-30 0 -51 -21t-21 -51v-573zM184 143v430h139q72 0 111 -31q10 -7 18.5 -65t8.5 -119q0 -60 -9.5 -111.5t-24.5 -69.5 q-33 -34 -104 -34h-139z" />
<glyph unicode="E" horiz-adv-x="593" d="M72 72q0 -30 20.5 -51t50.5 -21h328q34 0 53 22.5t19 49t-19 49t-53 22.5h-256v144h168q34 0 53 22.5t19 49t-19 49t-53 22.5h-168v143h256q34 0 53 22.5t19 49.5t-19 49.5t-53 22.5h-328q-30 0 -50.5 -21t-20.5 -51v-573z" />
<glyph unicode="F" horiz-adv-x="512" d="M72 72q0 -34 22.5 -53t49 -19t49 19t22.5 53v215h174q34 0 53 22.5t19 49t-19 49t-53 22.5h-174v143l237 -1q46 0 64 36q9 18 9 36q1 18 -9 36q-18 36 -64 36l-309 1q-30 0 -50.5 -21t-20.5 -51v-573z" />
<glyph unicode="G" horiz-adv-x="655" d="M41 357q1 -80 20.5 -163.5t56.5 -121.5q37 -39 98 -60.5t121 -21.5q74 0 127 18q57 19 116 70q24 21 24 54v226q0 30 -21 51t-51 21h-195q-34 0 -53 -22.5t-19 -49t19 -49t53 -22.5h124v-122q-10 -10 -44 -22q-31 -10 -80 -10q-79 0 -115 37q-17 18 -27 71.5t-11 117.5 v11q0 55 9 110q10 61 21 70q43 34 122 34q23 -1 53.5 -8t43.5 -15l3 -3q14 -10 16 -17q1 -1 1 -3q6 -26 25 -41q17 -15 38 -15h2q21 1 40.5 10t29.5 30q6 14 6 29q0 9 -2 19q-5 26 -26 56.5t-50 51.5h-1q-29 21 -84.5 34.5t-91.5 14.5h-2q-57 0 -116 -18t-95 -46 q-41 -32 -64 -127q-21 -92 -21 -172v-7z" />
<glyph unicode="H" horiz-adv-x="634" d="M72 72q0 -34 22.5 -53t49 -19t49 19t22.5 53v215h225v-215q0 -34 22.5 -53t49.5 -19t49.5 19t22.5 53v573q0 34 -22.5 53t-49.5 19t-49.5 -19t-22.5 -53v-215h-225v215q0 34 -22.5 53t-49 19t-49 -19t-22.5 -53v-573z" />
<glyph unicode="I" horiz-adv-x="244" d="M46 72q0 -34 22.5 -53t49 -19t49 19t22.5 53v573q0 34 -22.5 53t-49 19t-49 -19t-22.5 -53v-573z" />
<glyph unicode="J" horiz-adv-x="348" d="M20 -51.5q0 -26.5 19 -49t53 -22.5q40 0 83.5 17t69.5 49q25 29 38.5 75t13.5 87v540q0 34 -22.5 53t-49 19t-49 -19t-22.5 -53v-540q0 -47 -19 -69l-1 -1v-1q-8 -9 -15.5 -11.5t-26.5 -2.5q-34 0 -53 -22.5t-19 -49z" />
<glyph unicode="K" horiz-adv-x="634" d="M72 72q0 -34 22.5 -53t49 -19t49 19t22.5 53v257q0 -27 17 -47l226 -257q22 -26 52 -26t49 19t25 46q1 6 2 11q0 22 -20 44l-208 236v6l208 237q20 22 20 44q0 6 -2 11q-6 27 -25 46t-49 19t-52 -26l-226 -257q-17 -20 -17 -47v257q0 34 -22.5 53t-49 19t-49 -19 t-22.5 -53v-573z" />
<glyph unicode="L" horiz-adv-x="522" d="M72 72q0 -30 20.5 -51t50.5 -21h277q34 0 53 22.5t19 49t-19 49t-53 22.5h-205v502q0 34 -22.5 53t-49 19t-49 -19t-22.5 -53v-573z" />
<glyph unicode="M" horiz-adv-x="930" d="M72 72q0 -34 22.5 -53t49 -19t49 19t22.5 53v501h5l130 -519q6 -25 25 -39.5t45 -14.5h56h56q26 0 45 14.5t25 39.5l130 519h4v-501q0 -34 22.5 -53t49.5 -19t49.5 19t22.5 53v573q0 30 -21 51t-51 21h-132q-15 0 -65 -143.5t-93 -287.5l-42 -143l-130 520 q-6 25 -25 39.5t-45 14.5h-133q-30 0 -50.5 -21t-20.5 -51v-573z" />
<glyph unicode="N" horiz-adv-x="716" d="M72 72q0 -34 22.5 -53t49 -19t49 19t22.5 53v501h2l184 -525q7 -22 25.5 -35t42.5 -13h125q30 0 51 21t21 51v573q0 34 -22.5 53t-49.5 19t-49.5 -19t-22.5 -53v-502h-2l-184 526q-7 22 -25.5 35t-42.5 13h-125q-30 0 -50.5 -21t-20.5 -51v-573z" />
<glyph unicode="O" horiz-adv-x="696" d="M41 357q1 -79 21.5 -163t57.5 -123h1q37 -38 99 -59.5t123 -21.5t123 21.5t99 59.5h1q38 39 58.5 123t20.5 164q0 85 -22.5 179t-64.5 127q-37 28 -97 45.5t-118 17.5t-118 -17.5t-97 -45.5q-42 -32 -65 -128q-22 -92 -22 -172v-7zM184 359v11q0 56 9 110q10 60 21 69 q48 35 129 35t129 -35q11 -8 20.5 -68t9.5 -123q0 -64 -10 -116.5t-28 -70.5q-38 -38 -121 -38t-121 38q-36 36 -38 188z" />
<glyph unicode="P" horiz-adv-x="633" d="M72 72q0 -34 22.5 -53t49 -19t49 19t22.5 53v215h113q124 0 185 42q36 25 53 76.5t17 96.5q0 44 -17 96t-53 77q-61 42 -185 42h-185q-30 0 -50.5 -21t-20.5 -51v-573zM215 430v143h113q80 0 105 -17q6 -4 6 -54q0 -51 -6 -55q-25 -17 -105 -17h-113z" />
<glyph unicode="Q" horiz-adv-x="696" d="M41 357q1 -79 21.5 -163t57.5 -123h1q62 -62 169 -77q-7 -13 -7 -28q0 -13 5 -26q12 -30 45 -41l164 -58q15 -5 29 -5q24 0 43 18q24 22 24 54q0 6 -1 13q-6 40 -48 55l-89 31q68 22 110 64h1q38 39 58.5 123.5t20.5 163.5q0 84 -22.5 178.5t-64.5 127.5q-37 28 -97 45.5 t-118 17.5t-118 -17.5t-97 -45.5q-42 -32 -65 -128q-22 -91 -22 -172v-7zM184 359v11q0 54 9 110q10 60 21 69q48 35 129 35t129 -35q11 -8 20.5 -68.5t9.5 -122.5q0 -63 -10.5 -116.5t-27.5 -70.5q-38 -38 -121 -38t-121 38q-36 36 -38 188z" />
<glyph unicode="R" horiz-adv-x="633" d="M72 72q0 -34 22.5 -53t49 -19t49 19t22.5 53v215h73l163 -254q15 -23 37 -31q11 -4 22 -4q10 0 20 4q20 8 35.5 23.5t17.5 38.5v6q0 20 -12 41l-122 191q42 12 64 27q36 25 53 76.5t17 96.5q0 44 -17 96t-53 77q-61 42 -185 42h-185q-30 0 -50.5 -21t-20.5 -51v-573z M215 430v143h113q80 0 105 -17q6 -4 6 -54q0 -51 -6 -55q-23 -16 -92 -17q-11 2 -22 0h-104z" />
<glyph unicode="S" horiz-adv-x="614" d="M57 180q3 -27 21.5 -71t51.5 -67q30 -20 87 -36t100 -16q45 0 96 11t80 31q37 24 53.5 76.5t16.5 101.5q0 52 -26 93.5t-64.5 65t-83.5 44t-83.5 33t-64.5 28.5t-26 33q0 54 6 58l1 1q26 18 95 18q43 0 83 -27l1 -1h1q2 -20 4 -43q3 -27 19 -45q15 -18 37 -20q6 -1 13 0 q15 0 29 4q20 6 34 26q11 17 11 40v7q-10 111 -66 149q-28 21 -75.5 37t-90.5 16q-44 0 -95 -11t-80 -31q-37 -24 -53.5 -76.5t-16.5 -101.5q0 -61 36 -107t87 -70.5t102 -43.5t87 -37t36 -39q0 -54 -6 -58l-1 -1q-26 -18 -96 -18q-27 0 -58.5 8.5t-46.5 19.5h-1 q-10 8 -10 29q-2 34 -26 52q-22 16 -45 15h-6q-27 -3 -48 -23q-19 -19 -19 -48v-6z" />
<glyph unicode="T" d="M20 645q0 -27 19 -49.5t53 -22.5h112v-501q0 -34 22.5 -53t49 -19t49 19t22.5 53v501h114q34 0 53 22.5t19 49.5t-19 49.5t-53 22.5h-369q-34 0 -53 -22.5t-19 -49.5z" />
<glyph unicode="U" horiz-adv-x="645" d="M51 288q5 -69 26 -138t56 -100q32 -30 87 -46q49 -14 92 -14h11h11q43 0 91 14q54 16 87 46q35 31 57 102t25 137v4v352q0 34 -22.5 53t-49 19t-49 -19t-22.5 -53v-350q-3 -49 -13 -88.5t-22 -50.5l-1 -1q-24 -23 -73 -22h-15h-9q-8 -1 -15 0q-48 0 -73 22l-1 1 q-12 11 -21.5 51t-12.5 88v350q0 34 -22.5 53t-49.5 19t-49.5 -19t-22.5 -53v-352v-5z" />
<glyph unicode="V" horiz-adv-x="634" d="M23 627l153 -574q7 -24 26 -38.5t44 -14.5h112q25 0 44 14.5t26 38.5l154 574q3 12 3 23q0 28 -21 48q-23 21 -51 20q-9 0 -19 -2q-40 -9 -52 -52l-139 -521h-2l-139 521q-12 43 -52 52q-10 2 -18 2q-28 0 -51 -20q-21 -20 -21 -48q0 -11 3 -23z" />
<glyph unicode="W" horiz-adv-x="1024" d="M32 633l102 -574q4 -26 24.5 -42.5t46.5 -16.5h123q26 0 45 15.5t24 40.5l105 471l104 -471q5 -25 24.5 -40.5t45.5 -15.5h123q26 0 46 16.5t24 42.5l103 574q2 9 2 17q0 32 -26 52q-22 16 -46 16q-12 0 -26 -4q-38 -12 -46 -57l-92 -514h-5l-115 517q-5 25 -24 41 t-45 16h-47h-47q-26 0 -45.5 -16t-24.5 -41l-115 -517h-5l-92 514q-8 45 -46 57q-13 4 -25 4q-24 0 -46 -16q-26 -20 -26 -52q0 -8 2 -17z" />
<glyph unicode="X" horiz-adv-x="614" d="M50 63q2 -23 18 -38t36 -23q10 -4 20 -3q10 0 22 4q22 8 37 31l124 197l124 -197q15 -23 37 -31q12 -4 22 -4q10 -1 20 3q20 8 36 23t18 38v6q0 20 -12 41l-161 256l152 241q12 21 12 41v6q-2 23 -18 38q-16 14 -36 22q-10 4 -20 4q-11 0 -23 -4q-22 -8 -36 -31 l-115 -183l-114 183q-15 23 -37 31q-12 4 -22 4t-20 -4q-20 -8 -36 -22.5t-18 -37.5v-6q0 -20 12 -41l151 -241l-161 -256q-12 -21 -12 -41v-6z" />
<glyph unicode="Y" horiz-adv-x="604" d="M27 617l143 -335q14 -35 49 -43q-4 -14 -4 -24v-143q0 -34 22.5 -53t49 -19t49 19t22.5 53v143q0 13 -3 24q34 8 48 43l144 335q7 17 7 32q0 22 -14 40q-24 29 -61 29h-5q-41 -3 -58 -45l-125 -292h-8l-125 292q-17 42 -58 45h-5q-37 0 -61 -29q-14 -18 -14 -40 q0 -15 7 -32z" />
<glyph unicode="Z" horiz-adv-x="624" d="M41 72q0 -30 21 -51t51 -21h389q34 0 53 22.5t19 49t-19 49t-53 22.5h-318v1l351 348q21 21 21 51v102q0 30 -21 51t-51 21h-338q-34 0 -53 -22.5t-19 -49.5t19 -49.5t53 -22.5h267v-1l-351 -347q-21 -21 -21 -51v-102z" />
<glyph unicode="[" horiz-adv-x="359" d="M63 -117q0 -30 21 -50.5t51 -20.5h102q34 0 53 22.5t19 49t-19 49t-53 22.5h-30v586h30q34 0 53 22.5t19 49t-19 49t-53 22.5h-102q-30 0 -51 -21t-21 -51v-729z" />
<glyph unicode="\" horiz-adv-x="369" d="M43 632l134 -578q6 -27 24.5 -41.5t40 -14t41 9.5t29.5 30.5t4 48.5l-134 578q-6 27 -24.5 41.5t-40 14t-41 -9.5t-29.5 -30.5t-4 -48.5z" />
<glyph unicode="]" horiz-adv-x="359" d="M63 -116.5q0 -26.5 19 -49t53 -22.5h102q30 0 50.5 20.5t20.5 50.5v729q0 30 -20.5 51t-50.5 21h-102q-34 0 -53 -22.5t-19 -49t19 -49t53 -22.5h30v-586h-30q-34 0 -53 -22.5t-19 -49z" />
<glyph unicode="^" horiz-adv-x="460" d="M46 386q-17 -42 9.5 -72.5t66.5 -26.5t57 46l47 118l45 -117q16 -42 56 -46.5t67 25.5t10 72l-110 289q-17 42 -66.5 42.5t-66.5 -41.5z" />
<glyph unicode="_" horiz-adv-x="462" d="M1 -113.5q0 -26.5 19 -49t53 -22.5h410q34 0 53 22.5t19 49t-19 49t-53 22.5h-410q-34 0 -53 -22.5t-19 -49z" />
<glyph unicode="`" horiz-adv-x="276" d="M44 629l41 -144q12 -43 51.5 -51.5t69 19.5t16.5 71l-41 144q-12 43 -51.5 51.5t-69 -19.5t-16.5 -71z" />
<glyph unicode="a" horiz-adv-x="541" d="M19 275q0 -59 16 -124t46 -96q29 -31 78 -48t96 -17q60 0 117 26q19 -17 43 -17q15 1 31 7q44 16 44 66v204v205q0 33 -20 53t-46 20h-1q-26 0 -49 -15q-58 24 -119 24q-44 0 -90.5 -14t-75.5 -36q-1 0 -1 -1q-34 -26 -52 -100q-17 -70 -17 -130v-7zM163 276v2 q0 26 2 54.5t5 46t5 19.5q28 22 80 22t80 -22q2 -2 5 -20t5 -46.5t2 -55.5q0 -100 -20 -120q-23 -23 -72 -23t-72 23q-20 20 -20 120z" />
<glyph unicode="b" horiz-adv-x="583" d="M61 72q0 -50 44 -66q17 -6 32 -7q24 0 43 17q57 -26 117 -26q47 0 96 17t78 48q30 31 45.5 96t15.5 125q0 64 -17 137t-51 99l-1 1q-29 22 -75.5 36t-90.5 14q-42 0 -92 -15v107q0 34 -22.5 53t-49.5 19t-49.5 -19t-22.5 -53v-369v-11v-203zM205 276v2v17q2 95 12 103 q28 22 80 22t80 -22q2 -2 5 -20t5 -46.5t2 -55.5q0 -100 -20 -120q-23 -23 -72 -23t-72 23q-20 20 -20 120z" />
<glyph unicode="c" horiz-adv-x="522" d="M41 274q2 -61 19 -126t48 -95q29 -30 79 -47q47 -16 89 -16h5h10q54 0 106 19h2q57 24 87 80q10 20 10 39v8q-2 23 -19.5 37.5t-37.5 20.5q-8 3 -17 3q-12 0 -26 -5q-22 -9 -35 -33q-2 -3 -4 -6.5t-2.5 -4l-2 -2t-3 -2.5t-4.5 -2q-25 -9 -51 -9h-9h-5h-4q-45 0 -68 21 q-20 22 -24 124q0 39 6 79t10 43q31 20 76 20h4h8h8q24 0 47 -10q5 -3 5.5 -4t5.5 -12q18 -42 58 -44h5q37 0 61 29q15 18 14 40q0 15 -7 33q-24 58 -74 84q-1 0 -1 1l-2 1q-23 11 -64 19q-33 6 -54 6h-10h-6q-39 -1 -82 -13q-47 -14 -76 -34l-1 -1q-35 -27 -54.5 -101.5 t-19.5 -137.5v-2z" />
<glyph unicode="d" d="M20 275q0 -60 15.5 -124.5t46.5 -95.5q29 -31 78 -48t96 -17q60 0 117 26q19 -17 43 -17q15 1 32 7q44 16 44 66v204v379q0 34 -22.5 53t-49.5 19t-49.5 -19t-22.5 -53v-107q-50 15 -92 15q-44 0 -90.5 -14t-75.5 -36q-35 -27 -53 -101q-17 -71 -17 -130v-7zM164 276v2 v14q0 32 4 64q4 38 8 42q28 22 80 22t80 -22q2 -2 5 -20t5 -46.5t2 -55.5q0 -100 -20 -120q-23 -23 -72 -23t-72 23h-1q-19 21 -19 120z" />
<glyph unicode="e" horiz-adv-x="553" d="M42 275q0 -60 15 -124.5t45 -95.5q29 -30 78 -47.5t93 -17.5q7 -1 15 -1q42 0 104 18q1 1 3 1q33 12 66 37q21 17 26 41q2 8 2 15q0 15 -7 27q-10 18 -27 32q-16 13 -39 14h-2q-24 0 -45 -18q-9 -8 -22 -13q-33 -10 -56 -10h-8h-7q-48 0 -71 23q-10 12 -15 49h241 q29 0 50 20t22 49v15q1 57 -13 121q-16 72 -50 98q-27 23 -72 38t-88 17h-4q-43 0 -90 -14.5t-76 -37.5q-34 -25 -52 -99q-17 -70 -16 -130v-7zM188 348q5 47 10 50q28 22 76 22q51 -3 75 -22l2 -2q1 -1 3 -10.5t4 -22t3 -15.5h-173z" />
<glyph unicode="f" horiz-adv-x="378" d="M26 512q-6 -15 -6 -30q0 -16 7 -32q14 -32 48 -39v-339q0 -34 22.5 -53t49 -19t49 19t22.5 53v338h38q34 0 53 22.5t19 49t-19 49t-53 22.5h-37q2 64 8 75q5 9 29 9q34 0 53 22.5t19 49t-19 49t-53 22.5q-38 0 -84.5 -21.5t-69.5 -59.5q-23 -39 -27 -148q-35 -7 -49 -39z " />
<glyph unicode="g" d="M20 275q0 -59 16 -124t46 -96q29 -31 78 -48t96 -17q41 0 85 14q-7 -36 -19 -53l-1 -1q-10 -17 -22.5 -21.5t-42.5 -4.5q-34 0 -53 -22.5t-19 -49t19 -49t53 -22.5q52 0 103.5 22.5t80.5 67.5q26 39 39 97.5t13 103.5v204v205q0 33 -21 53q-20 20 -46 20h-1 q-26 -1 -49 -15q-58 24 -119 24q-44 0 -90.5 -14t-75.5 -36q-1 0 -1 -1q-34 -27 -52 -100q-17 -70 -17 -130v-7zM164 276v2q0 26 2 54.5t5 46t5 19.5q28 22 80 22t80 -22q2 -2 5 -20t5 -46.5t2 -55.5q0 -100 -20 -120q-23 -23 -72 -23t-72 23q-20 20 -20 120z" />
<glyph unicode="h" horiz-adv-x="559" d="M61 72q0 -34 22.5 -53t49.5 -19t49.5 19t22.5 53v252q0 25 9 56t14 34q10 6 78 6q35 0 51 -11l3 -3q-1 1 0.5 -9.5t3 -32t1.5 -40.5v-252q0 -34 22.5 -53t49 -19t49 19t22.5 53v252q0 52 -16 113t-46 84q-23 19 -63 30.5t-77 11.5q-12 0 -47 -4t-54 -4v103q0 34 -22.5 53 t-49.5 19t-49.5 -19t-22.5 -53v-334v-252z" />
<glyph unicode="i" horiz-adv-x="241" d="M40 72q0 -34 22.5 -53t49 -19t49 19t22.5 53v409q0 34 -22.5 53t-49 19t-49 -19t-22.5 -53v-409zM40 660.5q0 -26.5 19 -49t53 -22.5h1q34 0 53 22.5t19 49t-19 49t-53 22.5h-1q-34 0 -53 -22.5t-19 -49z" />
<glyph unicode="j" horiz-adv-x="294" d="M20 -131q0 -27 19 -49.5t53 -22.5q35 0 74.5 21t57.5 65q20 50 20 189v409q0 34 -22.5 53t-49.5 19t-49.5 -19t-22.5 -53v-409q0 -109 -7 -131h-1q-34 0 -53 -22.5t-19 -49.5zM100 657.5q0 -26.5 19 -49t53 -22.5h1q34 0 53 22.5t19 49t-19 49t-53 22.5h-1 q-34 0 -53 -22.5t-19 -49z" />
<glyph unicode="k" d="M61 72q0 -34 22.5 -53t49.5 -19t49.5 19t22.5 53v184q0 -24 15 -44l144 -184q17 -22 40 -28q8 -2 16 -2q14 0 26 6q18 10 32 26t15 39q0 24 -17 47l-128 165l127 155q18 22 18 47q1 23 -13 39t-33 26q-12 6 -26 6q-8 0 -16 -2q-23 -6 -40 -26l-144 -175q-16 -19 -16 -45 v349q0 34 -22.5 53t-49.5 19t-49.5 -19t-22.5 -53v-583z" />
<glyph unicode="l" horiz-adv-x="266" d="M61 72q0 -34 22.5 -53t49.5 -19t49.5 19t22.5 53v614q0 34 -22.5 53t-49.5 19t-49.5 -19t-22.5 -53v-614z" />
<glyph unicode="m" horiz-adv-x="870" d="M61 72q0 -34 22.5 -53t49.5 -19t49.5 19t22.5 53v262q0 30 3.5 43t14.5 24q20 19 79 19q48 0 58 -8q9 -12 9 -78v-262q0 -34 22.5 -53t49 -19t49 19t22.5 53v262q0 39 28 67q20 19 78 19q40 0 50 -8q8 -11 8 -78v-262q0 -34 22.5 -53t49 -19t49 19t22.5 53v262 q0 50 -13 102t-38 76q-24 24 -68 37.5t-82 13.5q-101 0 -163 -46q-25 22 -70.5 34t-82.5 12q-69 0 -124 -24q-19 15 -42 15q-14 0 -32 -7q-42 -17 -43 -66v-147v-262z" />
<glyph unicode="n" horiz-adv-x="559" d="M61 72q0 -34 22.5 -53t49.5 -19t49.5 19t22.5 53v252q0 24 11 52.5t18 32.5l2 1q19 10 70 10q35 0 51 -11l3 -3q-1 1 0.5 -9.5t3 -32t1.5 -40.5v-252q0 -34 22.5 -53t49 -19t49 19t22.5 53v252q0 52 -16 113t-46 84q-23 19 -63 30.5t-77 11.5q-80 0 -130 -23 q-19 14 -40 14q-16 0 -34 -8q-42 -18 -41 -65v-157v-252z" />
<glyph unicode="o" horiz-adv-x="564" d="M42 275q0 -59 15.5 -124t45.5 -96q29 -31 78.5 -48t96.5 -17t96 17t78 48q30 31 45.5 96t15.5 125q0 64 -17.5 137t-51.5 99l-1 1q-30 22 -75.5 36t-89.5 14t-90.5 -14t-75.5 -36q-1 0 -1 -1q-34 -26 -52 -100q-17 -70 -17 -130v-7zM185 276v2q0 26 2 54.5t5.5 46 t5.5 19.5q28 22 80 22q51 0 79 -22q2 -2 5 -20t5.5 -46.5t2.5 -55.5q0 -99 -21 -120q-23 -23 -71 -23q-49 0 -72 23q-21 21 -21 120z" />
<glyph unicode="p" horiz-adv-x="604" d="M82 -131q0 -34 22.5 -53t49 -19t49 19t22.5 53v137q44 -16 92 -16q47 0 96.5 17t78.5 48q30 31 45.5 96t15.5 125q0 64 -17.5 137t-51.5 99l-1 1q-29 22 -75.5 36t-90.5 14q-61 0 -119 -24q-23 14 -49 15h-1q-26 0 -46 -20t-20 -53v-195v-11v-406zM225 276v2v17 q1 36 5.5 68t7.5 35q28 22 79 22q52 0 80 -22q2 -2 5 -20t5.5 -46.5t2.5 -55.5q0 -99 -21 -120q-23 -23 -72 -23q-48 0 -71 23q-21 21 -21 120z" />
<glyph unicode="q" d="M20 275q0 -59 16 -124t46 -96q29 -31 78 -48t96 -17q48 0 92 16v-137q0 -34 22.5 -53t49.5 -19t49.5 19t22.5 53v407v205q0 33 -21 53q-20 20 -46 20h-1q-26 -1 -49 -15q-58 24 -119 24q-44 0 -90.5 -14t-75.5 -36q-1 0 -1 -1q-34 -27 -52 -100q-17 -70 -17 -130v-7z M164 276v2q0 26 2 54.5t5 46t5 19.5q28 22 80 22t80 -22q2 -2 5 -20t5 -46.5t2 -55.5q0 -100 -20 -120q-23 -23 -72 -23t-72 23q-20 20 -20 120z" />
<glyph unicode="r" horiz-adv-x="417" d="M82 72q0 -34 22.5 -53t49 -19t49 19t22.5 53v201v5v18q3 114 70 114q34 0 53 22.5t19 49t-19 49t-53 22.5q-45 0 -86 -25q-19 22 -49 25h-8q-26 -1 -46 -17q-24 -20 -24 -55v-197v-9v-203z" />
<glyph unicode="s" horiz-adv-x="501" d="M37 110q5 -15 26.5 -43t44.5 -41q24 -14 66 -26q39 -11 68 -10h5q33 0 74.5 10t65.5 24q0 1 1 1q32 21 47.5 64t15.5 80q0 54 -27.5 92.5t-66.5 56t-78.5 28.5t-67 19.5t-27.5 18.5q-1 27 -3 27q16 9 65 9h2h3q22 0 44 -14l1 -1q-4 1 -2 -8q4 -27 22 -43q16 -15 38 -16h5 q19 0 37 7q20 8 32 29q9 16 8 34q0 7 -1 14q-1 5 -4 16t-10 29t-21 35t-31 27q-57 34 -120 34h-4q-34 0 -75 -8.5t-65 -22.5q0 -1 -1 -1q-32 -21 -47.5 -65t-15.5 -82q0 -54 27.5 -92.5t66.5 -56t78 -28.5t66.5 -19.5t27.5 -18.5q0 -25 2 -25q1 0 2 1q-22 -12 -65 -12h-2h-9 q-33 0 -51 13h-1l-1 1q-3 2 -8 7l-2 1q-14 43 -54 49q-7 1 -13 1q-31 0 -55 -24q-18 -19 -18 -43q0 -13 5 -28z" />
<glyph unicode="t" horiz-adv-x="359" d="M48 527q-2 -9 -3 -18q-1 -13 5 -27q8 -24 19.5 -47t11.5 -25v-236q0 -90 34 -129q36 -45 122 -45q34 0 53 22.5t19 49t-19 49t-53 22.5h-13v31v236h13q34 0 53 22.5t19 49t-19 49t-53 22.5h-13v82q0 34 -22.5 53t-49 19t-49 -19t-22.5 -53v-83q-27 -3 -33 -25z" />
<glyph unicode="u" horiz-adv-x="538" d="M41 239q0 -51 13 -107.5t40 -83.5q26 -26 69 -42t80 -16q14 -2 29 -2q51 0 102 25q23 -12 48 -12t45 19.5t20 51.5v158v9v242q0 34 -22.5 53t-49 19t-49 -19t-22.5 -53v-238q-9 -83 -27 -99q-15 -12 -43 -12q-9 0 -19 1h-8q-36 0 -48 13q-15 17 -15 93v242q0 34 -22.5 53 t-49 19t-49 -19t-22.5 -53v-242z" />
<glyph unicode="v" horiz-adv-x="532" d="M33 466l92 -410q5 -25 24.5 -40.5t45.5 -15.5h121q26 0 45.5 15t24.5 40l93 410q2 10 2 19q0 15 -6 29q-10 22 -29 31q-20 10 -42 10h-1q-21 0 -39 -15t-24 -41l-81 -355h-7l-80 354q-6 26 -24.5 41t-40 15t-41.5 -9q-19 -8 -29 -30q-6 -13 -6 -29q0 -9 2 -19z" />
<glyph unicode="w" horiz-adv-x="860" d="M32 471l61 -410q4 -27 24 -44t47 -17h123q26 0 45.5 16t24.5 42l63 330l62 -330q5 -26 25 -42t46 -16h123q27 0 46.5 17t23.5 44l62 410q1 7 1 13q0 18 -9 34q-12 20 -32 28q-18 7 -36 7h-6q-22 -1 -38.5 -17.5t-20.5 -43.5l-53 -349h-2l-66 352q-5 26 -25 42t-46 16h-55 h-55q-26 0 -46 -16t-25 -42l-67 -352h-2l-52 349q-4 27 -21 44q-16 16 -38 17h-6q-19 -1 -36 -7q-20 -8 -32 -28q-9 -15 -9 -34q0 -6 1 -13z" />
<glyph unicode="x" horiz-adv-x="512" d="M50 63q2 -23 18 -38t36 -23q10 -4 20 -3q10 0 22 4q22 8 37 31l73 116l73 -116q15 -23 37 -31q12 -4 22 -4q10 -1 20 3q20 8 36 23t18 38v6q0 20 -12 41l-110 175l98 158q12 21 12 41v6q-2 23 -18 38q-16 14 -36 22q-10 4 -20 4t-22 -4q-22 -8 -37 -31l-61 -99l-62 99 q-14 23 -36 31q-12 4 -23 4q-10 0 -20 -4q-20 -8 -36 -22.5t-18 -37.5v-6q0 -20 12 -41l99 -158l-110 -175q-12 -21 -12 -41v-6z" />
<glyph unicode="y" horiz-adv-x="532" d="M43 465l96 -410q5 -25 24.5 -40t45.5 -15h28q-12 -36 -27 -48t-45 -12q-34 0 -53 -22.5t-19 -49.5t19 -49.5t53 -22.5q92 0 150.5 69t82.5 192l82 410q2 12 2 17q0 31 -22 50t-52 19q-25 0 -44 -14.5t-25 -42.5l-71 -353h-3l-83 355q-6 27 -24 42q-18 14 -39 14h-1 q-22 -1 -41.5 -10t-29.5 -30q-6 -14 -6 -30q0 -9 2 -19z" />
<glyph unicode="z" horiz-adv-x="487" d="M31 72q0 -30 20.5 -51t50.5 -21h263q34 0 53 22.5t19 49t-19 49t-53 22.5h-170l201 193q23 21 23 52v93q0 30 -21 51t-51 21h-227q-34 0 -53 -22.5t-19 -49t19 -49t53 -22.5h146l-213 -204q-22 -21 -22 -52v-82z" />
<glyph unicode="{" horiz-adv-x="395" d="M29 244.5q1 -34.5 28 -55.5q30 -23 43.5 -49t14.5 -74q0 -38 8.5 -79t26 -81t49 -66.5t71.5 -27.5q45 -1 64.5 34t2 71.5t-62.5 37.5q-4 0 -7.5 11.5t-6 38t-2.5 62.5v2q-1 41 -11.5 82.5t-21.5 69.5l-11 28q-2 0 8 23t22.5 69t13.5 88v2q0 110 14 110q34 0 53 22.5 t19 49t-19 49t-53 22.5q-42 0 -74.5 -26.5t-49.5 -67t-25 -81t-8 -77.5q-3 -80 -61 -131q-26 -22 -25 -56.5zM214 249q0 2 1 1z" />
<glyph unicode="|" horiz-adv-x="330" d="M74 -145q0 -34 22.5 -53t49 -19t49 19t22.5 53v793q0 34 -22.5 53t-49 19t-49 -19t-22.5 -53v-793z" />
<glyph unicode="}" horiz-adv-x="395" d="M28 -116.5q0 -26.5 19 -49t53 -22.5q157 0 157 253q2 47 17 74.5t44 51.5q26 22 25.5 56t-26.5 55q-56 47 -60 131q0 30 -3 59t-13 65t-26 62.5t-45.5 45t-68.5 19.5q-27 0 -46 -14.5t-23.5 -35.5t-0.5 -42t22.5 -36t45.5 -15q15 0 15 -110v-3q2 -37 12.5 -76t23.5 -71 t13 -33q1 1 1 -1v-2l-1 -1q0 -1 -7 -15.5t-12.5 -28.5t-12.5 -34.5t-11.5 -45.5t-5.5 -50v-3q0 -67 -3 -89.5t-11 -22.5q-34 0 -53 -22.5t-19 -49zM160 246q1 0 1.5 1t1.5 1l1 -1v-2l-1 -1q0 -1 -3 2z" />
<glyph unicode="~" horiz-adv-x="559" d="M41 361q-1 -45 34.5 -64.5t71.5 -2t37 62.5q1 20 2 23t9 3q4 0 24 -23.5t56.5 -47.5t79.5 -24q66 0 109.5 56.5t43.5 111.5q0 34 -22.5 53t-49 19t-49 -19t-22.5 -53q0 -20 -1 -22.5t-9 -2.5q-2 0 -15 15t-30 32.5t-48.5 32.5t-66.5 15q-49 0 -86 -31t-52 -67.5 t-16 -66.5z" />
<glyph unicode="&#xad;" horiz-adv-x="376" d="M30 359.5q0 -26.5 19 -49t53 -22.5h152q34 0 53 22.5t19 49t-19 49t-53 22.5h-152q-34 0 -53 -22.5t-19 -49z" />
<glyph unicode="&#x2000;" horiz-adv-x="390" />
<glyph unicode="&#x2001;" horiz-adv-x="780" />
<glyph unicode="&#x2002;" horiz-adv-x="390" />
<glyph unicode="&#x2003;" horiz-adv-x="780" />
<glyph unicode="&#x2004;" horiz-adv-x="260" />
<glyph unicode="&#x2005;" horiz-adv-x="195" />
<glyph unicode="&#x2006;" horiz-adv-x="130" />
<glyph unicode="&#x2007;" horiz-adv-x="130" />
<glyph unicode="&#x2008;" horiz-adv-x="97" />
<glyph unicode="&#x2009;" horiz-adv-x="156" />
<glyph unicode="&#x200a;" horiz-adv-x="43" />
<glyph unicode="&#x2010;" horiz-adv-x="376" d="M30 359.5q0 -26.5 19 -49t53 -22.5h152q34 0 53 22.5t19 49t-19 49t-53 22.5h-152q-34 0 -53 -22.5t-19 -49z" />
<glyph unicode="&#x2011;" horiz-adv-x="376" d="M30 359.5q0 -26.5 19 -49t53 -22.5h152q34 0 53 22.5t19 49t-19 49t-53 22.5h-152q-34 0 -53 -22.5t-19 -49z" />
<glyph unicode="&#x2012;" horiz-adv-x="376" d="M30 359.5q0 -26.5 19 -49t53 -22.5h152q34 0 53 22.5t19 49t-19 49t-53 22.5h-152q-34 0 -53 -22.5t-19 -49z" />
<glyph unicode="&#x2013;" horiz-adv-x="592" d="M30 359.5q0 -26.5 33 -49t92 -22.5h262q59 0 92 22.5t33 49t-33 49t-92 22.5h-262q-59 0 -92 -22.5t-33 -49z" />
<glyph unicode="&#x2014;" horiz-adv-x="1104" d="M30 359.5q0 -26.5 65.5 -49t183.5 -22.5h526q118 0 183.5 22.5t65.5 49t-65.5 49t-183.5 22.5h-526q-118 0 -183.5 -22.5t-65.5 -49z" />
<glyph unicode="&#x202f;" horiz-adv-x="156" />
<glyph unicode="&#x205f;" horiz-adv-x="195" />
<glyph unicode="&#x25fc;" horiz-adv-x="552" d="M0 0v553h553v-553h-553z" />
</font>
</defs>
</svg>
