<?xml version="1.0" standalone="no"?>
<!DOCTYPE svg PUBLIC "-//W3C//DTD SVG 1.1//EN" "http://www.w3.org/Graphics/SVG/1.1/DTD/svg11.dtd" >
<svg xmlns="http://www.w3.org/2000/svg">
<metadata></metadata>
<defs>
<font id="octopus_narrow_100regular" horiz-adv-x="349" >
<font-face units-per-em="1024" ascent="819" descent="-205" />
<missing-glyph horiz-adv-x="500" />
<glyph horiz-adv-x="0" />
<glyph unicode="&#xd;" horiz-adv-x="1024" />
<glyph unicode="!" horiz-adv-x="278" d="M77 -1h20v10v1v10h-20v-10v-1v-10zM77 93h20v10v608v10h-20v-10v-608v-10z" />
<glyph unicode="&#x22;" horiz-adv-x="254" d="M41 525h20v11v175v10h-20v-10v-175v-11zM142 525h21v11v175v10h-21v-10v-175v-11z" />
<glyph unicode="#" horiz-adv-x="530" d="M10 176h10h72l-19 -165l-1 -11h20l1 9l20 167h180l-20 -165l-1 -11h21l1 9l19 167h115h10v21h-10h-112l38 329h74h10v21h-10h-71l19 163l1 11h-21l-1 -9l-19 -165h-180l19 163l1 11h-20l-1 -9l-20 -165h-115h-10v-21h10h113l-39 -329h-74h-10v-21zM115 197l39 329h180 l-39 -329h-180z" />
<glyph unicode="$" horiz-adv-x="513" d="M36.5 560.5q-11.5 -70.5 1 -140.5t40.5 -70h118v-254h-118h-10v-20h10h118v-66v-10h20v10v66h110q21 0 35 30t17 73.5t-0.5 87t-17.5 74t-34 30.5h-110v239h110h10v21h-10h-110v80v10h-20v-10v-80h-118q-30 0 -41.5 -70.5zM50 550q8 60 28 60h118v-239h-118 q-19 0 -27.5 59.5t-0.5 119.5zM216 96v254h110q14 0 24 -26.5t12.5 -64t0.5 -74.5t-12 -63t-25 -26h-110z" />
<glyph unicode="%" horiz-adv-x="634" d="M79 0h24l2 5l436 697l10 16h-25l-2 -5l-435 -698zM87 555q0 -78 35.5 -121t86.5 -43q48 0 82 43t33 122q1 78 -32.5 119.5t-82.5 42.5q-51 1 -86.5 -42t-35.5 -121zM108 555q0 72 28.5 107.5t72.5 34.5q42 -1 68.5 -35.5t25.5 -105.5q1 -72 -25.5 -108t-68.5 -36 q-44 0 -72.5 35.5t-28.5 107.5zM305 160q1 -81 34 -121t82 -39t82.5 43.5t33.5 120.5t-33.5 121.5t-83.5 44.5q-49 1 -82.5 -44t-32.5 -126zM326 160q-1 74 25.5 112t68.5 37q44 -1 70 -37t26 -108q0 -71 -26.5 -107t-68.5 -37t-68 33t-27 107z" />
<glyph unicode="&#x26;" horiz-adv-x="572" d="M26 232.5q-2 -42.5 8 -84t31 -75t57.5 -53.5t83.5 -20q88 0 159 124q58 -77 98 -121l3 -3h27l-16 17q-46 52 -101 126q11 21 33.5 69.5t35 67.5t25.5 20h10v21h-10q-11 -1 -21.5 -9t-22 -26.5t-19.5 -33t-22.5 -44.5t-22.5 -45q-108 149 -179 284q78 63 98 87 q26 31 25 59q0 60 -32 94.5t-68 33.5t-66.5 -34t-31.5 -95q0 -43 49 -139q-94 -78 -115 -140q-14 -38 -16 -80.5zM44.5 231q2.5 40 15.5 76q19 55 107 127q71 -137 184 -291q-68 -123 -145 -123q-42 0 -75 18t-52 48t-28 67.5t-6.5 77.5zM128 592q1 55 24 81t54 27 t55.5 -26.5t24.5 -80.5q1 -25 -23.5 -50t-75.5 -66q-3 -2 -5 -3.5t-4.5 -3.5t-4.5 -4q-45 90 -45 126z" />
<glyph unicode="'" horiz-adv-x="186" d="M51 526h21v11v174v10h-21v-10v-174v-11z" />
<glyph unicode="(" horiz-adv-x="238" d="M41 275q0 -235 86 -396l3 -5h24l-9 15q-84 153 -84 386q0 124 20.5 211t63.5 178l8 14h-23l-3 -6q-43 -92 -64.5 -181.5t-21.5 -215.5z" />
<glyph unicode=")" horiz-adv-x="238" d="M35 -126h22l3 6q36 75 61 180t25 215q0 212 -86 397l-3 6h-22l7 -14q84 -178 84 -389q0 -209 -84 -387z" />
<glyph unicode="*" horiz-adv-x="440" d="M41 525h10h129l-65 -161l-4 -11l19 -7l3 9l62 153l61 -153l3 -9l20 7l-5 11l-65 161h129h10v21h-10h-128l64 161l5 10l-20 7l-3 -9l-61 -153l-62 153l-3 9l-19 -7l4 -10l64 -161h-128h-10v-21z" />
<glyph unicode="+" horiz-adv-x="445" d="M41 350h10h135v-164v-10h21v10v164h136h10v21h-10h-136v166v10h-21v-10v-166h-135h-10v-21z" />
<glyph unicode="," horiz-adv-x="200" d="M31 -89h25l3 4q40 55 50 181l1 12h-21l-1 -10q-10 -124 -45 -171z" />
<glyph unicode="-" d="M31 350h10h206h10v21h-10h-206h-10v-21z" />
<glyph unicode="." horiz-adv-x="234" d="M77 -1h20v10v1v10h-20v-10v-1v-10z" />
<glyph unicode="/" horiz-adv-x="327" d="M38 0h21l2 8l175 701l3 12h-22l-2 -8l-174 -701z" />
<glyph unicode="0" horiz-adv-x="475" d="M31 358q0 -93 7.5 -196t22.5 -120q18 -21 61 -36.5t85 -15.5t84 15.5t60 36.5q15 18 23.5 122t8.5 194q0 81 -10 189.5t-22 127.5q-14 20 -57.5 36t-86.5 16t-87 -16t-58 -36q-12 -19 -21.5 -127t-9.5 -190zM51 358q0 78 9 184.5t19 120.5q11 17 49.5 30.5t78.5 13.5 t78.5 -13.5t49.5 -30.5q10 -14 18.5 -120t8.5 -185q0 -85 -7.5 -187t-19.5 -117q-14 -18 -51.5 -31t-76.5 -13t-77 13t-52 31q-12 15 -19.5 117t-7.5 187z" />
<glyph unicode="1" horiz-adv-x="399" d="M57 468l18 -11l6 9l137 230h13v-687v-10h21v10v698v10h-10h-30h-6l-3 -5l-141 -236z" />
<glyph unicode="2" horiz-adv-x="463" d="M41 -1h320h11v20h-11h-300v4q0 34 11 65.5t38 66.5t45.5 55t58.5 62q38 39 59 62.5t47.5 60t39 72.5t12.5 73q0 40 -9 84.5t-24 63.5q-17 18 -55 28.5t-77 10.5q-40 0 -77.5 -10.5t-54.5 -28.5q-16 -19 -25 -63t-9 -85v-11h20v11q0 38 7.5 79t20.5 55q29 33 118 33 q37 0 70.5 -8.5t45.5 -24.5q13 -14 20.5 -54.5t7.5 -79.5q0 -45 -24.5 -93t-50.5 -78.5t-76 -81.5q-40 -41 -59.5 -63t-47.5 -59t-40 -71.5t-12 -70.5v-24z" />
<glyph unicode="3" horiz-adv-x="480" d="M35 145q12 -77 38 -112q15 -20 54.5 -31.5t77.5 -11.5q96 0 142 51v1q41 50 41 177q0 120 -41 170q-41 47 -136 47l-6 14l150 209l2 4v3l2 41l1 10h-1h-10h-299v-21h288l-1 -27l-153 -212l-4 -5l3 -6l13 -24l3 -6h6q93 0 126 -39q37 -47 37 -158q0 -118 -37 -165 q-37 -44 -126 -44q-35 0 -69.5 9.5t-46.5 25.5q-23 30 -34 105z" />
<glyph unicode="4" horiz-adv-x="473" d="M20 174h277v-165v-10h20v10v165h54h10v21h-10h-54v224v10h-20v-10v-224h-256v38l169 470l5 14h-21l-3 -7l-171 -472v-64z" />
<glyph unicode="5" horiz-adv-x="473" d="M27 135q13 -74 42 -110q16 -19 56 -28.5t76 -6.5q98 0 139 52q41 50 41 177q0 117 -42 181q-42 67 -138 65q-43 0 -78.5 -16t-51.5 -39q12 129 26 286h274v21h-292q-3 -40 -32 -333l28 -12q29 72 126 72q85 2 122 -54q37 -62 37 -171q0 -120 -36 -165q-36 -44 -123 -44 q-34 -2 -69.5 5.5t-46.5 21.5q-26 34 -38 102z" />
<glyph unicode="6" horiz-adv-x="480" d="M41 229q-2 -36 7.5 -91.5t24.5 -83.5q17 -28 58.5 -46t83.5 -18t83 18t58 46q16 29 25 79.5t7 95.5q2 132 -40 182q-46 55 -134 56q-90 -2 -133 -53q37 159 142 286l14 17h-27l-3 -4q-149 -183 -164 -426q-2 -19 -2 -58zM61 218v10v1q0 18 2 52q7 85 34 120q37 44 117 45 q80 -1 118 -48q38 -46 36 -169q2 -42 -7 -89.5t-23 -74.5q-13 -24 -49 -39.5t-74 -15.5q-39 0 -75 15.5t-49 39.5q-13 23 -22 70t-8 83z" />
<glyph unicode="7" horiz-adv-x="474" d="M51 696h10h300v-72q-87 -140 -140 -278.5t-94 -334.5l-2 -12h20l2 8q41 194 94 330.5t141 279.5v100h-321h-10v-21z" />
<glyph unicode="8" horiz-adv-x="485" d="M41 228q-2 -38 7.5 -92t23.5 -82q17 -28 59 -46t86 -18t86 18t59 46q31 60 31 175q0 133 -42 182q-28 31 -66 44q13 6 24 17q32 32 32 115q0 72 -32 103q-29 27 -92 27q-64 0 -92 -27q-32 -29 -32 -103q0 -84 32 -115q8 -9 22 -16q-39 -12 -64 -42q-42 -50 -42 -186z M61 228q0 127 38 173q21 24 48 33.5t70 9.5q79 0 118 -46q38 -45 38 -169q0 -108 -29 -164q-13 -24 -49.5 -39.5t-77.5 -15.5t-77.5 15.5t-49.5 39.5q-13 25 -22 76t-7 87zM114 587q0 67 25 89q21 20 78 20q55 0 78 -20q26 -25 26 -89q0 -75 -26 -101q-21 -21 -78 -21 q-58 0 -78 21q-25 24 -25 101z" />
<glyph unicode="9" horiz-adv-x="481" d="M51 493q0 -129 33 -177q37 -60 136 -60q73 0 113 41q-12 -35 -28.5 -76t-29 -68t-34.5 -74t-30 -66l-6 -14h21l3 6q5 12 40 86t47 104t34 90.5t30.5 109.5t8.5 98v10q-2 113 -33 161q-22 30 -59 46.5t-77 16.5t-78 -16.5t-58 -46.5q-33 -50 -33 -171zM72 493 q0 116 28 158q38 56 120 56t120 -56q29 -45 29 -158q0 -20 -4 -56q-8 -73 -36 -112q-35 -49 -109 -49q-87 0 -120 51q-28 43 -28 166z" />
<glyph unicode=":" horiz-adv-x="234" d="M101 26h21v10v1v10h-21v-10v-1v-10zM101 457h21v10v1v10h-21v-10v-1v-10z" />
<glyph unicode=";" horiz-adv-x="200" d="M31 -89h25l3 4q40 53 50 181l1 12h-21l-1 -10q-10 -126 -45 -171zM65 460h20v10v1v10h-20v-10v-1v-10z" />
<glyph unicode="&#x3c;" horiz-adv-x="489" d="M41 354l5 -3l336 -175l15 -7v22l-5 4l-318 165l318 166l5 3v23l-15 -7l-336 -175l-5 -3v-13z" />
<glyph unicode="=" horiz-adv-x="489" d="M41 209h10h336h10v20h-10h-336h-10v-20zM41 464h10h336h10v20h-10h-336h-10v-20z" />
<glyph unicode="&#x3e;" horiz-adv-x="489" d="M41 169l15 7l336 175l5 3v13l-5 3l-336 175l-15 7v-23l5 -3l319 -166l-319 -165l-5 -4v-22z" />
<glyph unicode="?" horiz-adv-x="470" d="M41 537h20q0 76 43 120t105 43q63 -1 105.5 -45t42.5 -119q0 -29 -12 -54.5t-25 -40.5t-39 -41q-25 -26 -39.5 -45t-28.5 -53.5t-14 -73.5v-85h20v85q1 51 20 85t56 73q28 27 41.5 42.5t27.5 45t14 62.5q0 83 -50 133.5t-119 51.5t-118.5 -49.5t-49.5 -134.5zM200 -2h20 v10v2v10h-20v-10v-2v-10z" />
<glyph unicode="A" horiz-adv-x="574" d="M17 0h22l2 8l41 165h6h322h10v2l42 -167l2 -8h21l-3 12l-177 705h-108l-177 -705zM87 194l126 502h76l126 -502h-5h-322h-1z" />
<glyph unicode="B" horiz-adv-x="565" d="M72 0h249q95 0 128 40q24 29 24 144q0 116 -24 145q-21 25 -79 35q46 17 56 37q16 32 16 113v18v16q0 100 -24 129q-14 19 -53 29.5t-81 10.5h-212v-348v-21v-348zM92 20v328h192h37q84 0 111 -32q21 -28 21 -132t-21 -132q-27 -32 -111 -32h-229zM92 369v327h192 q92 0 117 -31q21 -29 21 -117v-16v-19q0 -73 -14 -101q-7 -16 -47 -29.5t-77 -13.5h-192z" />
<glyph unicode="C" horiz-adv-x="564" d="M41 358q3 -90 21 -176.5t47 -121.5q61 -70 172 -70h9q25 0 64 10t61 22q23 14 39 41t38 87l-19 6q-22 -59 -35.5 -82t-33.5 -34q-20 -12 -55 -21t-59 -9h-9q-99 0 -156 63q-27 32 -44 114t-20 171q2 90 19.5 181.5t43.5 113.5q61 54 156 54h10q26 0 67.5 -12.5 t61.5 -29.5q9 -8 18 -24t14.5 -29.5t12 -31.5t7.5 -21l18 8q0 1 -10 29t-21.5 50.5t-25.5 34.5h-1q-22 18 -68 32t-73 14h-10q-103 0 -170 -57q-29 -26 -48 -123t-21 -189z" />
<glyph unicode="D" horiz-adv-x="564" d="M41 0h216q47 0 90.5 19t70.5 55q26 34 40 116t14 168q0 91 -14.5 181.5t-40.5 116.5q-27 28 -71 44.5t-89 16.5h-216v-717zM61 20v676h196q89 0 145 -54q22 -23 36 -110.5t14 -173.5q0 -82 -13.5 -161t-37.5 -111q-48 -66 -144 -66h-196z" />
<glyph unicode="E" horiz-adv-x="524" d="M72 0h350h10v20h-10h-330v328h239h10v21h-10h-239v327h330h10v21h-10h-350v-348v-21v-348z" />
<glyph unicode="F" horiz-adv-x="462" d="M72 0h20v10v338h268h11v21h-11h-268v327l331 -1h10v21h-10l-351 1v-348v-21v-338v-10z" />
<glyph unicode="G" horiz-adv-x="564" d="M41 358q1 -89 16 -173t42 -119q29 -37 74.5 -56.5t96.5 -19.5q63 0 106 18q48 20 93 70l3 3v277v11h-10h-192v-21h182v-259q-40 -43 -84 -62q-45 -17 -98 -17q-102 0 -154 68q-25 33 -39.5 114t-15.5 166v11q0 81 14 166q15 91 40 115q59 57 155 57q28 -1 68 -13t59 -29 q18 -16 34 -52t21 -60l20 4q-5 27 -22 66t-38 57v1q-22 19 -67 32t-75 14q-106 0 -170 -62q-27 -27 -44 -123q-15 -90 -15 -174v-10z" />
<glyph unicode="H" horiz-adv-x="557" d="M72 0h20v10v338h352v-338v-10h21v10v338v21v338v10h-21v-10v-338h-352v338v10h-20v-10v-338v-21v-338v-10z" />
<glyph unicode="I" horiz-adv-x="225" d="M92 0h21v10v697v10h-21v-10v-697v-10z" />
<glyph unicode="J" horiz-adv-x="307" d="M20 -102v-21h11q88 0 135 50q49 53 49 144v636v10h-20v-10v-636q0 -82 -43 -129q-41 -44 -121 -44h-11z" />
<glyph unicode="K" horiz-adv-x="531" d="M72 0h20v10v308l330 -315l3 -3h30l-19 17l-323 310v63l323 309l19 18h-30l-3 -3l-330 -316v309v10h-20v-10v-697v-10z" />
<glyph unicode="L" horiz-adv-x="471" d="M72 0h317h10v20h-10h-297v687v10h-20v-10v-707z" />
<glyph unicode="M" horiz-adv-x="710" d="M72 0h20v10v686h28l193 -696h32h32l193 696h28v-686v-10h20v10v707h-64l-194 -697h-15h-15l-194 697h-64v-707v-10z" />
<glyph unicode="N" horiz-adv-x="547" d="M72 0h20v10v686h16l300 -696h48v707v10h-21v-10v-687h-13l-300 697h-50v-707v-10z" />
<glyph unicode="O" horiz-adv-x="594" d="M41 358q1 -90 15.5 -173.5t42.5 -118.5q61 -76 173 -76q111 0 172 76q28 35 43.5 119t15.5 173q0 94 -16 187.5t-44 119.5q-65 62 -171 62q-107 0 -172 -62q-28 -25 -44 -121q-15 -90 -15 -175v-11zM61 358v11q0 83 14 167q15 90 40 114q60 57 157 57t157 -57 q24 -24 38.5 -113.5t14.5 -178.5q0 -86 -14 -166.5t-40 -113.5q-53 -68 -156 -68t-156 68q-25 32 -39.5 113t-15.5 167z" />
<glyph unicode="P" horiz-adv-x="556" d="M72 0h20v10v338h176q105 0 154 38q42 37 42 146q0 110 -42 147q-49 38 -154 38h-196v-348v-21v-338v-10zM92 369v327h176q102 0 142 -33q33 -28 33 -131q0 -102 -33 -130q-40 -33 -142 -33h-176z" />
<glyph unicode="Q" horiz-adv-x="594" d="M41 358q1 -90 15.5 -173.5t42.5 -118.5q61 -76 173 -76h7v-21l6 -2l189 -78l14 -6v23l-6 2l-189 78l-10 4q105 5 161 76q28 35 43.5 120t15.5 172q0 92 -16 186.5t-44 120.5q-65 62 -171 62q-107 0 -172 -62q-28 -26 -44 -121q-15 -90 -15 -175v-11zM61 358v11 q0 82 14 167q15 90 40 114q60 57 157 57t157 -57q24 -24 38.5 -114t14.5 -178q0 -85 -14.5 -166t-39.5 -114q-53 -68 -156 -68t-156 68q-25 32 -39.5 113t-15.5 167z" />
<glyph unicode="R" horiz-adv-x="556" d="M72 0h20v10v338h170l182 -343l3 -5h24l-8 15l-178 334q93 3 137 37q42 37 42 146q0 110 -42 147q-49 38 -154 38h-196v-348v-21v-338v-10zM92 369v327h176q102 0 142 -33q33 -28 33 -131q0 -102 -33 -130q-40 -33 -142 -33h-17h-159z" />
<glyph unicode="S" horiz-adv-x="540" d="M48 188q20 -121 56 -149q24 -19 71.5 -34t84.5 -15q95 0 144 38q23 19 34 62t11 89q0 52 -37 93t-89.5 68t-104.5 53t-89 62.5t-37 82.5q0 108 36 135q41 34 132 34q65 0 122 -45q12 -9 19.5 -34t9.5 -46t5 -61l20 2q-3 42 -5 63.5t-11.5 50t-25.5 41.5q-61 49 -134 49 q-95 0 -144 -38q-44 -36 -44 -151q0 -44 26.5 -80t66 -59t85.5 -47.5t85.5 -45.5t66 -54t26.5 -73q0 -108 -36 -135q-41 -34 -132 -34q-34 0 -77 13.5t-66 31.5q-29 24 -48 138z" />
<glyph unicode="T" horiz-adv-x="473" d="M20 696h11h180v-686v-10h20v10v686h181h10v21h-10h-181h-20h-180h-11v-21z" />
<glyph unicode="U" horiz-adv-x="558" d="M51 281q4 -74 20 -143t41 -96q46 -53 127 -53q10 0 20 1q8 -1 15 -1q34 -1 67 11q40 14 65 42q25 27 41 96t19 143v426v10h-21v-10v-426q-3 -71 -17.5 -135.5t-36.5 -89.5q-42 -47 -113 -47q-9 0 -19 1q-10 -1 -19 -1q-71 0 -114 47q-44 48 -54 225v426v10h-21v-10v-426z " />
<glyph unicode="V" horiz-adv-x="510" d="M17 717l3 -12l173 -705h54l172 705l3 12h-22l-2 -8l-168 -689h-21l-168 689l-2 8h-22z" />
<glyph unicode="W" horiz-adv-x="762" d="M29 717l2 -12l113 -705h60l132 696h15h15l132 -696h65l108 705l2 12h-22l-1 -8l-105 -689h-31l-132 697h-31h-32l-132 -697h-24l-112 689l-1 8h-21z" />
<glyph unicode="X" horiz-adv-x="536" d="M45 0h23l3 5l177 340l177 -340l3 -5h24l-9 15l-184 353l174 333l7 16h-22l-3 -5l-167 -321l-168 321l-3 5h-24l8 -16l175 -333l-184 -353z" />
<glyph unicode="Y" horiz-adv-x="520" d="M16 717l4 -14l150 -463h44v-11v-219v-10h20v10v219v11h45l149 463l4 14h-21l-3 -7l-144 -450h-80l-143 450l-3 7h-22z" />
<glyph unicode="Z" horiz-adv-x="540" d="M41 0h397h11v20h-11h-377v28l370 625v44h-346h-10v-21h10h326v-17l-370 -625v-54z" />
<glyph unicode="[" horiz-adv-x="281" d="M63 -177v-10h11h105h10v20h-10h-95v832h95h10v20h-10h-105h-11v-10v-852z" />
<glyph unicode="\" d="M38 721l3 -13l196 -701l2 -7h21l-3 13l-196 701l-2 7h-21z" />
<glyph unicode="]" horiz-adv-x="281" d="M63 -167v-20h11h105h10v10v852v10h-10h-105h-11v-20h11h95v-832h-95h-11z" />
<glyph unicode="^" horiz-adv-x="416" d="M37 350h21l2 6l124 326l121 -325l2 -7h22l-5 14l-130 350l-3 7h-14l-2 -6l-133 -350z" />
<glyph unicode="_" horiz-adv-x="409" d="M1 -164v-20h10h440h10v20h-10h-440h-10z" />
<glyph unicode="`" horiz-adv-x="231" d="M36 721l6 -14l78 -175l3 -6h21l-6 15l-78 174l-3 6h-21z" />
<glyph unicode="a" horiz-adv-x="472" d="M19 276q0 -67 12 -133t34 -93q47 -60 135 -60t135 60q11 14 24 55v-95v-10h21v10v266v267v10h-21v-10v-84q-12 42 -25 55q-51 49 -134 49t-134 -49q-22 -22 -35 -96q-12 -69 -12 -132v-10zM40 276v11q0 61 10 125q11 70 30 88q45 43 120 43q74 0 119 -43q18 -18 29 -87.5 t11 -136.5q0 -65 -11 -127t-30 -87q-39 -52 -118 -52q-80 0 -119 52q-19 25 -30 87t-11 127z" />
<glyph unicode="b" horiz-adv-x="514" d="M61 0h21v10v95q13 -41 24 -55q46 -60 136 -60q88 0 135 60q22 27 33.5 92.5t11.5 133.5q0 72 -12 144.5t-34 93.5q-51 49 -134 49t-134 -49q-15 -15 -26 -56v249v10h-21v-10v-416v-15v-266v-10zM82 276v17q1 66 11.5 128t28.5 79q45 43 120 43q74 0 119 -43 q18 -18 29 -87.5t11 -136.5q0 -65 -11 -127t-30 -87q-39 -52 -118 -52q-80 0 -119 52q-19 25 -30 87t-11 127z" />
<glyph unicode="c" horiz-adv-x="463" d="M41 276q2 -70 15 -136t35 -93q49 -57 137 -57h6h9q50 0 92 20q40 20 66 100l-18 6q-25 -72 -56 -87q-44 -19 -85 -19h-8h-6q-77 0 -120 51q-21 23 -33 85t-14 130q0 68 12.5 138t32.5 87q48 42 121 42h7h2h8q14 0 38 -5q30 -7 47 -18q29 -21 51 -87l18 6q-24 75 -57 98 q-20 12 -54 20q-27 6 -45 6h-9h-7q-80 0 -133 -46h-1q-23 -22 -37 -96.5t-14 -144.5z" />
<glyph unicode="d" horiz-adv-x="473" d="M20 276q0 -68 11.5 -133.5t33.5 -92.5q48 -60 136 -60q89 0 135 60q11 14 24 55v-95v-10h21v10v266v431v10h-21v-10v-248q-12 42 -25 55q-51 49 -134 49t-135 -49q-22 -20 -34 -94q-12 -68 -12 -134v-10zM41 276v11q0 61 10 125q11 70 29 88q46 43 121 43t120 -43 q18 -18 28.5 -87t10.5 -137q0 -65 -11 -127t-30 -87q-39 -52 -118 -52q-80 0 -120 52q-19 25 -29.5 86.5t-10.5 127.5z" />
<glyph unicode="e" horiz-adv-x="486" d="M42 276q0 -69 11 -134t33 -92q48 -60 135 -60h9q16 0 42 5q32 7 53 16t35.5 28t32.5 64l-18 9q-17 -43 -29 -59t-30 -23q-18 -10 -48 -16q-23 -5 -37 -4h-8q-81 0 -121 52q-18 23 -28 81.5t-11 122.5h321h10v10v22q0 58 -8 119q-10 72 -32 93q-50 50 -132 53 q-86 0 -135 -51q-22 -22 -34 -94q-11 -67 -11 -131v-11zM62 287q0 65 10.5 129t28.5 82q47 45 121 45q74 -3 118 -47q16 -18 26 -84q8 -55 8 -104v-21h-312z" />
<glyph unicode="f" d="M20 532h11h61v-522v-10h21v10v522h134h10v21h-10h-134q0 130 22 158q31 39 112 39h10v20h-10q-36 0 -73 -12t-55 -35q-27 -33 -27 -170h-61h-11v-21z" />
<glyph unicode="g" horiz-adv-x="473" d="M20 276q0 -67 12 -133t34 -93q46 -60 135 -60t135 60q11 14 24 55v-95q0 -94 -37 -149q-37 -51 -122 -51h-11v-21h11q96 0 138 59q42 60 42 162v266v267v10h-21v-10v-84q-12 42 -25 55q-51 49 -134 49t-134 -49q-22 -21 -35 -96q-12 -69 -12 -132v-10zM41 276v11 q0 62 10 125q11 70 30 88q45 43 120 43t120 -43q18 -18 28.5 -87t10.5 -137q0 -65 -11 -127t-30 -87q-39 -52 -118 -52q-80 0 -119 52q-19 25 -30 87t-11 127z" />
<glyph unicode="h" horiz-adv-x="496" d="M61 0h21v10v316v10q0 49 19.5 112t39.5 76q29 19 114 19q58 0 96 -33q15 -12 24 -66t9 -108v-326v-10h20v10v326q0 57 -10 114.5t-28 73.5q-42 39 -111 39q-94 0 -126 -22q-24 -16 -47 -89v258v10h-21v-10v-374v-10v-316v-10z" />
<glyph unicode="i" horiz-adv-x="192" d="M66 0h20v10v533v10h-20v-10v-533v-10zM66 650h10h1h10v21h-10h-1h-10v-21z" />
<glyph unicode="j" horiz-adv-x="245" d="M20 -174v-21h11q73 0 101 44q22 37 22 161v533v10h-21v-10v-533q0 -118 -19 -150q-19 -34 -83 -34h-11zM133 647h10h1h11v21h-11h-1h-10v-21z" />
<glyph unicode="k" horiz-adv-x="445" d="M61 0h21v10v236l254 -243l3 -3h30l-19 17l-248 237v57l248 225l20 17h-31l-3 -3l-254 -231v388v10h-21v-10v-697v-10z" />
<glyph unicode="l" horiz-adv-x="194" d="M61 0h21v10v727v11h-21v-11v-727v-10z" />
<glyph unicode="m" horiz-adv-x="730" d="M61 0h21v10v329v10q0 101 34 148q33 46 108 46q68 0 90 -34q26 -39 26 -160v-10v-329v-10h20v10v329v10q0 88 42 148q34 46 109 46q58 0 82 -34q24 -38 24 -160v-339v-10h21v10v339q0 129 -29 172q-29 42 -98 42q-85 0 -125 -54q-20 -28 -32 -65q-8 57 -23 77 q-13 20 -44.5 31t-62.5 11q-87 0 -125 -54q-8 -11 -17 -33v67v10h-21v-10v-194v-10v-329v-10z" />
<glyph unicode="n" horiz-adv-x="496" d="M61 0h21v10v316v10q0 46 23.5 107.5t44.5 75.5q37 24 105 24q58 0 96 -33q15 -12 24 -66t9 -108v-326v-10h20v10v326q0 57 -10 114.5t-28 73.5q-42 39 -111 39q-80 0 -118 -27q-26 -18 -55 -98v105v10h-21v-10v-207v-10v-316v-10z" />
<glyph unicode="o" horiz-adv-x="494" d="M42 276q0 -68 11.5 -133.5t33.5 -92.5q47 -60 135 -60t135 60q22 27 33.5 92.5t11.5 133.5q0 72 -12 144.5t-34 93.5q-51 49 -134 49t-134 -49q-22 -21 -34 -95q-12 -69 -12 -133v-10zM62 276v11q0 61 10 125q11 70 30 88q45 43 120 43t120 -43q18 -18 29 -87.5 t11 -136.5q0 -65 -11 -127t-30 -87q-39 -52 -119 -52t-119 52q-19 25 -30 87t-11 127z" />
<glyph unicode="p" horiz-adv-x="534" d="M82 -184v-11h20v11v289q12 -39 25 -55q47 -60 135 -60t135 60q22 27 33.5 92.5t11.5 133.5q0 72 -12 144.5t-34 93.5q-51 49 -134 49t-134 -49q-15 -15 -26 -56v85v10h-20v-10v-252v-15v-460zM102 276v17q1 66 11.5 128t28.5 79q45 43 120 43t120 -43q18 -18 29 -87.5 t11 -136.5q0 -65 -11 -127t-30 -87q-39 -52 -119 -52t-119 52q-19 25 -30 87t-11 127z" />
<glyph unicode="q" horiz-adv-x="473" d="M20 276q0 -67 12 -133t34 -93q46 -60 135 -60t135 60q11 14 24 55v-289v-11h21v11v460v267v10h-21v-10v-84q-12 42 -25 55q-51 49 -134 49t-134 -49q-22 -21 -35 -96q-12 -69 -12 -132v-10zM41 276v11q0 62 10 125q11 70 30 88q45 43 120 43t120 -43q18 -18 28.5 -87 t10.5 -137q0 -65 -11 -127t-30 -87q-39 -52 -118 -52q-80 0 -119 52q-19 25 -30 87t-11 127z" />
<glyph unicode="r" horiz-adv-x="394" d="M82 0h20v10v256v10v16q2 104 56 172t134 68h10v21h-10q-63 0 -114 -41.5t-76 -109.5v141v10h-20v-10v-252v-15v-10v-256v-10z" />
<glyph unicode="s" horiz-adv-x="448" d="M28 126q11 -72 55 -102q18 -13 54 -24q33 -10 58 -10h4q31 0 66 9.5t54 22.5q37 29 37 116q0 44 -30.5 76.5t-73.5 51.5t-86.5 37.5t-74 46t-30.5 65.5q0 81 30 103q36 25 108 25h3q42 0 88 -30q27 -16 35 -102l20 2q-8 95 -43 116q-51 34 -100 34h-3q-78 0 -120 -28 q-38 -27 -38 -120q0 -44 30.5 -76.5t73.5 -51.5t86.5 -37.5t74 -46t30.5 -65.5q0 -80 -29 -100q-39 -28 -108 -28h-5q-24 0 -52 8q-32 10 -47 22q-37 27 -47 90z" />
<glyph unicode="t" horiz-adv-x="334" d="M20 532h11h73v-389q0 -85 27 -114q25 -29 101 -29h11v20h-11q-66 0 -87 23q-20 23 -20 100v389h107h11v21h-11h-107v133v10h-21v-10v-133h-73h-11v-21z" />
<glyph unicode="u" horiz-adv-x="476" d="M41 229q0 -142 38 -188q42 -51 115 -51q14 -2 27 -2q63 0 103 41q23 22 40 84v-103v-10h20v10v219v11v303v10h-20v-10v-303v-11q-5 -58 -20 -112.5t-35 -73.5q-33 -35 -87 -35q-12 0 -26 2q-67 0 -101 43t-34 176v314v10h-20v-10v-314z" />
<glyph unicode="v" horiz-adv-x="454" d="M28 553l3 -13l141 -540h49l141 540l4 13h-22l-2 -7l-137 -526h-17l-137 526l-2 7h-21z" />
<glyph unicode="w" horiz-adv-x="653" d="M29 553l2 -12l96 -542l47 1l113 534l9 -2l9 2l112 -534l52 -1l92 542l2 12h-20l-2 -8l-88 -526l-20 1l-111 534l-26 -1l-26 1l-112 -534l-15 -1l-92 526l-2 8h-20z" />
<glyph unicode="x" horiz-adv-x="458" d="M44 0h24l3 5l138 260l138 -260l3 -5h24l-8 15l-145 273l132 250l8 15h-23l-3 -5l-126 -238l-127 238l-3 5h-24l8 -15l134 -250l-145 -273z" />
<glyph unicode="y" horiz-adv-x="440" d="M39 553l2 -12l121 -541h48q-15 -95 -39.5 -135t-67.5 -40h-10v-21h10q53 0 83.5 49.5t45.5 154.5l116 533l2 12h-20l-2 -8l-114 -525h-36l-117 525l-2 8h-20z" />
<glyph unicode="z" horiz-adv-x="434" d="M31 0h301h10v20h-10h-281v18l272 471v44h-263h-10v-21h10h242v-17l-271 -471v-44z" />
<glyph unicode="{" horiz-adv-x="278" d="M26 248q68 -76 71 -211q0 -85 20 -154t59 -70h10v20h-10q-28 1 -43 62t-15 142q-3 143 -66 211q63 79 66 215q0 80 15 141t43 61h10v20h-10q-39 0 -59 -68.5t-20 -153.5q-3 -130 -66 -209z" />
<glyph unicode="|" horiz-adv-x="244" d="M74 -206v-10h20v10v917v10h-20v-10v-917z" />
<glyph unicode="}" horiz-adv-x="278" d="M29 -167v-20h10q25 0 41.5 18.5t24 54t10 69.5t2.5 82q4 128 67 205l5 6q-29 34 -49.5 91t-22.5 124q0 221 -78 222h-10v-20h10q57 -1 57 -202q2 -68 22.5 -128t44.5 -87q-63 -77 -67 -211q0 -99 -11 -151.5t-46 -52.5h-10z" />
<glyph unicode="~" horiz-adv-x="489" d="M41 350h20v10q1 40 20 72.5t55 33.5q22 0 51 -29t59.5 -58t56.5 -29q43 0 68.5 40t25.5 87v10h-20v-10q0 -42 -19.5 -74t-54.5 -32q-16 0 -37 18t-39 39.5t-43 39.5t-48 18q-46 -1 -70 -40.5t-25 -85.5v-10z" />
<glyph unicode="&#xad;" d="M31 350h10h206h10v21h-10h-206h-10v-21z" />
<glyph unicode="&#x2000;" horiz-adv-x="385" />
<glyph unicode="&#x2001;" horiz-adv-x="770" />
<glyph unicode="&#x2002;" horiz-adv-x="385" />
<glyph unicode="&#x2003;" horiz-adv-x="770" />
<glyph unicode="&#x2004;" horiz-adv-x="256" />
<glyph unicode="&#x2005;" horiz-adv-x="192" />
<glyph unicode="&#x2006;" horiz-adv-x="128" />
<glyph unicode="&#x2007;" horiz-adv-x="128" />
<glyph unicode="&#x2008;" horiz-adv-x="96" />
<glyph unicode="&#x2009;" horiz-adv-x="154" />
<glyph unicode="&#x200a;" horiz-adv-x="42" />
<glyph unicode="&#x2010;" d="M31 350h10h206h10v21h-10h-206h-10v-21z" />
<glyph unicode="&#x2011;" d="M31 350h10h206h10v21h-10h-206h-10v-21z" />
<glyph unicode="&#x2012;" d="M31 350h10h206h10v21h-10h-206h-10v-21z" />
<glyph unicode="&#x2013;" horiz-adv-x="635" d="M31 350h23h466h23v21h-23h-466h-23v-21z" />
<glyph unicode="&#x2014;" horiz-adv-x="1147" d="M31 350h45h934h45v21h-45h-934h-45v-21z" />
<glyph unicode="&#x202f;" horiz-adv-x="154" />
<glyph unicode="&#x205f;" horiz-adv-x="192" />
<glyph unicode="&#x25fc;" horiz-adv-x="552" d="M0 0v553h553v-553h-553z" />
</font>
</defs>
</svg>
