<?xml version="1.0" standalone="no"?>
<!DOCTYPE svg PUBLIC "-//W3C//DTD SVG 1.1//EN" "http://www.w3.org/Graphics/SVG/1.1/DTD/svg11.dtd" >
<svg xmlns="http://www.w3.org/2000/svg">
<metadata></metadata>
<defs>
<font id="octopus_300light" horiz-adv-x="583" >
<font-face units-per-em="1024" ascent="819" descent="-205" />
<missing-glyph horiz-adv-x="500" />
<glyph horiz-adv-x="0" />
<glyph unicode="&#xd;" horiz-adv-x="1024" />
<glyph unicode="!" horiz-adv-x="245" d="M77 -2h61v31v1v30h-61v-30v-1v-31zM77 165h61v31v493v31h-61v-31v-493v-31z" />
<glyph unicode="&#x22;" horiz-adv-x="317" d="M41 494h61v30v165v31h-61v-31v-165v-30zM164 494h61v30v165v31h-61v-31v-165v-30z" />
<glyph unicode="#" horiz-adv-x="662" d="M10 165h31h71l-17 -131l-4 -35h63l3 27l17 139h184l-16 -131l-4 -35h62l3 27l18 139h119h30v61h-30h-112l34 269h78h30v61h-30h-71l16 129l4 35h-62l-3 -27l-17 -137h-184l16 129l4 35h-63l-3 -27l-17 -137h-119h-31v-61h31h111l-33 -269h-78h-31v-61zM182 226l33 269 h184l-33 -269h-184z" />
<glyph unicode="$" horiz-adv-x="645" d="M60.5 559q-15.5 -77 1 -153.5t54.5 -76.5h125v-197h-125h-31v-61h31h125v-41v-31h61v31v41h116q26 0 44 32.5t22.5 79t0 93.5t-22 80t-43.5 34h-1h-116v184h116h31v62h-31h-116v53v31h-61v-31v-53h-125q-40 0 -55.5 -77zM100 482q-1 92 16 92h125v-184h-125q-15 0 -16 92 zM302 132v197h116q9 0 15 -20.5t7.5 -49.5t0 -58t-7.5 -49t-15 -20h-116z" />
<glyph unicode="%" horiz-adv-x="777" d="M53 -1h79l9 11l537 657l41 50h-79l-9 -11l-537 -657zM87 546q0 -86 50.5 -135.5t116.5 -49.5t114 50t47 136q1 80 -47 124.5t-114 45.5t-116.5 -45t-50.5 -126zM148 546q0 58 28.5 84t77.5 25t74.5 -25.5t24.5 -81.5v-1q3 -124 -99 -124q-48 0 -77 29.5t-29 93.5z M355 166q2 -82 49.5 -125t113.5 -42q65 1 113 46.5t48 125.5q0 85 -47.5 135t-114.5 51q-66 1 -114.5 -50.5t-47.5 -139.5v-1zM417 168q-1 67 26 98t74 30q100 -2 100 -125q0 -109 -99 -111q-48 -1 -73.5 23.5t-27.5 84.5z" />
<glyph unicode="&#x26;" horiz-adv-x="707" d="M24 242.5q-3 -44.5 11 -87.5t41.5 -78t76 -56.5t109.5 -21.5q113 0 197 107q71 -71 105 -100l9 -7h95l-63 54q-54 47 -110 104q10 15 22.5 37t20 35t16.5 26.5t16.5 19.5t14.5 6h30v61h-30q-32 -1 -60 -31t-68 -91q-6 -9 -9 -14q-111 119 -189 227q35 22 55 36t43.5 33.5 t34 38t10.5 37.5q0 66 -46.5 104.5t-94.5 37.5t-92.5 -38t-45.5 -104q0 -39 52 -123q-102 -67 -131 -130q-17 -38 -20 -82.5zM81.5 217q-0.5 42 17.5 81q19 42 111 104q78 -113 202 -247q-73 -95 -150 -95q-60 0 -102.5 22.5t-60 57.5t-18 77zM184 575q3 81 79 83 q33 1 55.5 -19t22.5 -61q0 -9 -7.5 -19t-28.5 -24.5t-33.5 -22t-46.5 -27.5q-41 65 -41 90z" />
<glyph unicode="'" horiz-adv-x="235" d="M51 495h62v30v164v31h-62v-31v-164v-30z" />
<glyph unicode="(" horiz-adv-x="337" d="M41 274q0 -123 43 -224t110 -168l8 -9h87l-52 52q-135 137 -135 349q0 113 33.5 191.5t103.5 161.5l42 50h-80l-10 -11q-74 -87 -112 -177.5t-38 -214.5z" />
<glyph unicode=")" horiz-adv-x="337" d="M6 -127h80l9 11q62 74 106.5 177t44.5 213q0 212 -151 392l-9 11h-80l42 -50q136 -160 136 -353q0 -99 -39 -190.5t-97 -160.5z" />
<glyph unicode="*" horiz-adv-x="591" d="M41 494h31h145l-72 -120l-15 -26l52 -32l17 27l71 121l72 -121l16 -27l53 32l-16 26l-71 120h145h31v61h-31h-144l70 119l16 25l-53 32l-16 -26l-72 -121l-71 121l-17 26l-52 -32l15 -25l71 -119h-144h-31v-61z" />
<glyph unicode="+" horiz-adv-x="539" d="M41 329h31h142v-133v-31h61v31v133h142h30v61h-30h-142v135v31h-61v-31v-135h-142h-31v-61z" />
<glyph unicode="," horiz-adv-x="225" d="M22 -90h68l9 16q25 51 34 178l2 33h-61l-2 -28q-8 -116 -28 -154z" />
<glyph unicode="-" horiz-adv-x="417" d="M31 329h30h234h31v61h-31h-234h-30v-61z" />
<glyph unicode="." horiz-adv-x="245" d="M77 -2h61v31v1v30h-61v-30v-1v-31z" />
<glyph unicode="/" horiz-adv-x="384" d="M31 -1h64l6 23l190 659l11 39h-64l-7 -23l-189 -659z" />
<glyph unicode="0" d="M31 358q0 -92 11 -193t34 -122t77.5 -37t107.5 -16t107 16t77 37t35 123.5t12 191.5q0 82 -13 188t-32 126q-19 22 -76 38.5t-110 16.5t-110 -16.5t-76 -38.5q-19 -20 -31.5 -125.5t-12.5 -188.5zM92 358q0 70 9.5 166t18.5 107q12 13 54.5 24t86.5 11t86.5 -11t54.5 -24 q9 -11 18.5 -107t9.5 -166q0 -76 -8 -168t-18 -102q-15 -14 -57.5 -25.5t-85.5 -11.5q-44 0 -86.5 11.5t-57.5 25.5q-10 10 -17.5 101.5t-7.5 168.5z" />
<glyph unicode="1" horiz-adv-x="471" d="M49 517l48 -38l20 25l119 151h18v-625v-31h61v31v656v31h-30h-65h-15l-9 -12l-128 -164z" />
<glyph unicode="2" horiz-adv-x="563" d="M41 -1h399h31v61h-31h-336q5 33 33 70t56 62t82 69q38 31 57 47t50.5 47.5t47 55t28.5 55.5t13 63q0 42 -12 88.5t-35 67.5q-22 20 -70.5 31t-97.5 11t-97.5 -11t-70.5 -31q-23 -21 -35 -67.5t-12 -88.5v-30h61v30q0 32 8 66t19 45q29 26 127 26t127 -26q11 -11 19 -45 t8 -66q0 -38 -27.5 -79t-56.5 -67t-89 -75q-47 -39 -71.5 -60.5t-59 -58.5t-50 -72.5t-15.5 -73.5v-44z" />
<glyph unicode="3" horiz-adv-x="593" d="M36 150q17 -81 52 -115q22 -22 73.5 -33.5t99.5 -11.5q126 0 183 53q30 29 44 81t14 103q0 48 -14 98t-45 78q-44 42 -138 49l152 118l12 10v1v15l-2 91l-1 30h-30h-345v-62h316l1 -46l-178 -137l-12 -9l-8 -6l11 -23l12 -25l9 -18h19q106 0 140 -33h1q38 -35 38 -131 q0 -103 -39 -139q-38 -37 -140 -37q-41 0 -79.5 7.5t-50.5 19.5q-22 21 -36 84z" />
<glyph unicode="4" d="M19 286l1 -122h333v-134v-31h62v31v134h46h31v61h-31h-46v190v30h-62v-30v-190h-271l-1 46l203 401l22 45h-68l-10 -17z" />
<glyph unicode="5" d="M26 370l79 -26q41 75 151 75q97 0 133 -45q41 -51 41 -147q0 -102 -38 -139q-37 -37 -137 -37q-38 -2 -77 4t-51 17q-24 20 -40 81l-59 -15q18 -78 58 -111q21 -21 73 -30.5t98 -6.5q122 0 178 53q29 29 43 81t14 103q0 117 -56 186q-55 67 -180 67q-86 0 -152 -38 l42 213h280v62h-329z" />
<glyph unicode="6" d="M41 238q-3 -37 9 -94.5t33 -85.5q23 -30 76.5 -49t106.5 -19t107 19t77 49q21 29 33 82t9 99q0 111 -57 175q-32 35 -92 51.5t-174 16.5h-15q46 96 134 183l54 52h-88l-9 -9q-204 -200 -204 -470zM102 236q0 111 36 208v-23h31q105 0 151 -11t70 -37q40 -47 40 -136 q3 -39 -6 -79.5t-24 -62.5q-14 -19 -52.5 -31.5t-81.5 -12.5t-81.5 12.5t-52.5 31.5q-15 21 -24 65t-6 76z" />
<glyph unicode="7" horiz-adv-x="573" d="M51 655h31h338v-41q-100 -127 -163.5 -258t-115.5 -318l-10 -39h64l6 23q50 184 112 310.5t168 261.5v123h-399h-31v-62z" />
<glyph unicode="8" horiz-adv-x="593" d="M41 238q-2 -40 9.5 -96t32.5 -84q22 -30 77 -49t111 -19t111.5 19t77.5 49q21 28 31.5 80t10.5 100q0 51 -14.5 105.5t-45.5 81.5q-15 15 -41 27q36 37 38 120q-2 82 -46 116q-42 29 -122 29q-82 0 -121 -29q-46 -34 -46 -116q0 -78 37 -118q-21 -10 -41 -28 q-59 -53 -59 -188zM102 236q0 110 39 145q41 38 128 38q38 -5 55 -7.5t40 -10.5t37 -21q39 -34 39 -142q0 -100 -29 -143q-13 -19 -53.5 -31.5t-86.5 -12.5t-86 12.5t-53 31.5q-15 20 -23.5 64t-6.5 77zM166 572q0 53 20 67q22 16 85 16t85 -16q20 -15 22 -67 q-2 -59 -23 -76q-21 -16 -84 -16t-84 16t-21 76z" />
<glyph unicode="9" d="M51 485q0 -128 43 -181q49 -63 177 -63h86q-15 -30 -34 -63t-42.5 -72.5t-35.5 -60.5l-27 -46h71l9 15q11 20 40.5 69.5t45.5 77.5t39.5 76t36 83.5t22.5 80t10 84.5q0 120 -45 174q-28 33 -77 50.5t-99 17.5t-100 -17.5t-76 -50.5q-44 -52 -44 -174zM113 485 q0 102 29 136q35 45 129 45q91 0 129 -45q30 -37 30 -136q0 -80 -44 -183h-19h-96q-98 0 -128 41q-30 35 -30 142z" />
<glyph unicode=":" horiz-adv-x="245" d="M87 23h61v30v1v31h-61v-31v-1v-30zM87 429h61v31v1v31h-61v-31v-1v-31z" />
<glyph unicode=";" horiz-adv-x="225" d="M20 -90h70l9 16q25 50 34 178l2 33h-61l-2 -28q-9 -117 -28 -154zM56 427h62v31v1v30h-62v-30v-1v-31z" />
<glyph unicode="&#x3c;" horiz-adv-x="600" d="M41 339l19 -8l406 -165l42 -18v67l-20 8l-334 136l334 137l20 8v66l-42 -17l-406 -165l-19 -8v-41z" />
<glyph unicode="=" horiz-adv-x="600" d="M41 196h31h405h31v61h-31h-405h-31v-61zM41 436h31h405h31v62h-31h-405h-31v-62z" />
<glyph unicode="&#x3e;" horiz-adv-x="600" d="M41 148l42 18l405 165l20 8v41l-20 8l-405 165l-42 17v-66l19 -8l335 -137l-335 -136l-19 -8v-67z" />
<glyph unicode="?" horiz-adv-x="569" d="M41 525h61q0 65 44 99.5t113 33.5t113 -36t44 -98q0 -22 -13 -42.5t-24.5 -30.5t-45.5 -37q-32 -26 -50 -44.5t-36.5 -55.5t-18.5 -78v-81h62v81q0 28 13 53t26.5 39t42.5 39q23 18 30 24t26 24t26.5 31t15 34.5t7.5 43.5q0 85 -66 140t-152 56t-152 -53.5t-66 -141.5z M229 -3h62v31v2v30h-62v-30v-2v-31z" />
<glyph unicode="A" horiz-adv-x="716" d="M8 0h65l7 20l49 143h21h344h22l49 -143l7 -20h65l-14 41l-233 676h-135l-232 -676zM150 224l148 431h49l148 -431h-1h-344z" />
<glyph unicode="B" horiz-adv-x="689" d="M72 0h320q47 0 89 16.5t66 38.5q22 21 36 61.5t14 78.5q0 39 -14 78.5t-36 60.5q-22 20 -54 34q13 8 20 15q24 21 38.5 60.5t14.5 78.5q0 40 -14.5 79.5t-38.5 60.5q-23 23 -69 39t-97 16h-275v-328v-61v-328zM133 61v267h214h45q73 0 112 -39q32 -30 32 -94 q0 -65 -32 -95q-39 -39 -112 -39h-259zM133 389v266h214q78 0 125 -39q33 -30 33 -94t-33 -94q-47 -39 -125 -39h-214z" />
<glyph unicode="C" horiz-adv-x="686" d="M31 358q4 -91 27 -172t67 -121q79 -75 212 -75h17q88 0 146 26h1q31 14 61 51.5t50 84.5l-57 22q-34 -81 -81 -102t-121 -21h-1h-17q-107 0 -168 59h-1q-64 60 -74 248q2 80 21 149t53 100q63 59 169 59h17q69 0 134 -32q40 -19 67 -92l57 22q-36 95 -97 125 q-75 38 -159 38h-17q-133 0 -212 -75q-43 -39 -67 -122t-27 -171v-1z" />
<glyph unicode="D" horiz-adv-x="727" d="M72 0h281q135 3 211 82q38 40 56 117q16 69 15 142v17v17q1 73 -15 143q-18 78 -56 117q-76 79 -211 82h-281v-717zM133 61v594h220q112 -3 166 -63q54 -55 54 -212v-22v-22q0 -156 -54 -211q-55 -61 -166 -64h-220z" />
<glyph unicode="E" horiz-adv-x="634" d="M72 0h440h31v61h-31h-379v267h269h31v61h-31h-269v266h379h31v62h-31h-440v-328v-61v-328z" />
<glyph unicode="F" horiz-adv-x="552" d="M72 0h61v31v297h297h31v61h-31h-297v266l360 -1h30v62h-30l-421 1v-328v-61v-297v-31z" />
<glyph unicode="G" horiz-adv-x="686" d="M31 358q1 -86 20.5 -166.5t59.5 -120.5q80 -81 219 -81q78 0 132 17q60 19 121 71l11 9v271v31h-31h-233v-61h202v-212q-43 -35 -89 -49q-51 -16 -113 -16q-112 0 -176 63q-60 61 -62 244v9q0 72 15 137q16 68 47 99q64 63 176 63q30 -1 78.5 -13t70.5 -27 q19 -13 35 -40.5t20 -47.5l59 14q-6 27 -28.5 65.5t-49.5 58.5l-1 1q-29 19 -88 34t-95 16h-1q-139 0 -219 -81q-40 -41 -61 -122q-19 -78 -19 -158v-8z" />
<glyph unicode="H" horiz-adv-x="675" d="M72 0h61v31v297h389v-297v-31h62v31v297v61v297v31h-62v-31v-297h-389v297v31h-61v-31v-297v-61v-297v-31z" />
<glyph unicode="I" horiz-adv-x="235" d="M72 0h61v31v655v31h-61v-31v-655v-31z" />
<glyph unicode="J" horiz-adv-x="315" d="M0 -61v-62h31q93 0 140 55q52 53 52 151v603v31h-61v-31v-603q0 -73 -36 -110q-29 -34 -95 -34h-31z" />
<glyph unicode="K" d="M72 0h61v31v280l306 -302l10 -9h87l-54 52l-287 286v41l287 286l54 52h-87l-10 -9l-306 -302v280v31h-61v-31v-655v-31z" />
<glyph unicode="L" horiz-adv-x="563" d="M72 0h389h31v61h-31h-328v625v31h-61v-31v-686z" />
<glyph unicode="M" horiz-adv-x="911" d="M72 0h61v31v624h20l239 -655h53h58l235 655h20v-624v-31h61v31v686h-124l-235 -656h-15h-10l-239 656h-124v-686v-31z" />
<glyph unicode="N" horiz-adv-x="696" d="M72 0h61v31v624h22l332 -655h117v686v31h-61v-31v-625h-19l-333 656h-119v-686v-31z" />
<glyph unicode="O" horiz-adv-x="727" d="M31 358q1 -87 21 -167t60 -120q80 -81 221 -81t221 81q41 40 61 120t20 167t-20 167.5t-61 120.5q-80 81 -221 81t-221 -81q-42 -40 -62 -122q-20 -78 -19 -158v-8zM92 358v9q0 72 16 136q16 68 47 100q64 63 178 63t178 -63q62 -63 62 -245q0 -181 -62 -244 q-64 -63 -178 -63t-178 63q-61 61 -63 244z" />
<glyph unicode="P" horiz-adv-x="674" d="M72 0h61v31v297h195q65 0 125.5 11t84.5 32q22 22 33.5 65t11.5 86q0 41 -11.5 86t-33.5 66q-24 21 -84 32t-126 11h-256v-328v-61v-297v-31zM133 389v266h195q141 0 167 -26q12 -11 19 -42.5t7 -64.5q0 -82 -26 -106q-12 -12 -62 -19.5t-105 -7.5h-195z" />
<glyph unicode="Q" horiz-adv-x="727" d="M31 358q1 -87 21 -167t60 -120q70 -72 194 -80v-53l20 -8l202 -78l42 -17v67l-19 7l-203 79l-5 2q135 3 211 81q41 40 61 120t20 167t-20 167.5t-61 120.5q-80 81 -221 81t-221 -81q-41 -40 -62 -122q-19 -77 -19 -158v-8zM92 358v9q0 72 16 136q16 68 47 100 q64 63 178 63t178 -63q62 -63 62 -245q0 -181 -62 -244q-64 -63 -178 -63t-178 63q-61 61 -63 244z" />
<glyph unicode="R" horiz-adv-x="674" d="M72 0h61v31v297h178l215 -315l10 -13h74l-32 48l-193 282q117 9 153 41q22 22 33.5 65t11.5 86q0 41 -11.5 86t-33.5 66q-24 21 -84 32t-126 11h-256v-328v-61v-297v-31zM133 389v266h195q141 0 167 -26q12 -11 19 -42.5t7 -64.5q0 -82 -26 -106q-12 -12 -62 -19.5 t-105 -7.5h-59h-136z" />
<glyph unicode="S" horiz-adv-x="634" d="M29 195q23 -109 73 -151q28 -25 86.5 -39.5t108.5 -14.5q121 0 183 47q63 52 63 152q0 56 -44.5 98.5t-107.5 68.5t-126 49.5t-107.5 54t-44.5 67.5q0 74 39 104q45 35 145 35q81 0 132 -42q20 -17 28 -42.5t12 -72.5l61 6q-10 112 -62 156q-66 56 -171 56 q-119 0 -182 -47q-64 -49 -64 -153q0 -55 44.5 -97.5t107.5 -68.5t126 -49.5t107.5 -54t44.5 -68.5q0 -73 -40 -103q-41 -35 -144 -35q-43 0 -89 11t-67 29q-34 30 -53 116z" />
<glyph unicode="T" d="M20 655h31h198v-624v-31h61v31v624h192h30v62h-30h-192h-61h-198h-31v-62z" />
<glyph unicode="U" horiz-adv-x="686" d="M51 284q5 -72 26 -139t57 -100q65 -56 166 -56q11 0 23 1q12 -1 23 -1q100 0 165 56q36 33 57.5 99.5t25.5 138.5v403v31h-62v-31v-401q-9 -147 -62 -193q-48 -42 -126 -42q-10 0 -21 1q-11 -1 -21 -1q-79 0 -127 42q-51 44 -62 194v400v31h-62v-31v-402z" />
<glyph unicode="V" horiz-adv-x="634" d="M10 717l12 -40l201 -677h117l202 677l11 40h-64l-7 -22l-187 -634h-27l-187 634l-7 22h-64z" />
<glyph unicode="W" horiz-adv-x="972" d="M25 717l7 -37l127 -680h122l157 655h19h14l150 -655h121l138 680l8 37h-64l-4 -25l-129 -631h-21l-150 656h-63h-68l-158 -656h-21l-119 631l-4 25h-62z" />
<glyph unicode="X" horiz-adv-x="655" d="M25 0h73l10 13l199 298l200 -298l9 -13h74l-32 48l-214 319l203 302l32 48h-74l-9 -14l-189 -281l-188 281l-9 14h-74l32 -48l202 -302l-214 -319z" />
<glyph unicode="Y" horiz-adv-x="645" d="M3 717l21 -44l202 -427h30v-215v-31h61v31v215h30l203 427l20 44h-67l-8 -18l-187 -392h-43l-186 392l-8 18h-68z" />
<glyph unicode="Z" horiz-adv-x="665" d="M41 0h502h30v61h-30h-441v20l450 532v104h-439h-31v-62h31h377v-19l-449 -533v-103z" />
<glyph unicode="[" horiz-adv-x="400" d="M63 -158v-30h31h184h30v61h-30h-153v750h153h30v61h-30h-184h-31v-31v-811z" />
<glyph unicode="\" horiz-adv-x="410" d="M30 720l12 -40l216 -660l7 -21h65l-13 40l-216 659l-7 22h-64z" />
<glyph unicode="]" horiz-adv-x="400" d="M63 -127v-61h31h184h30v30v811v31h-30h-184h-31v-61h31h153v-750h-153h-31z" />
<glyph unicode="^" horiz-adv-x="501" d="M24 329h67l8 17l128 270l124 -270l8 -17h68l-20 44l-152 329l-8 18h-39l-8 -18l-156 -329z" />
<glyph unicode="_" horiz-adv-x="503" d="M1 -124v-61h31h492h31v61h-31h-492h-31z" />
<glyph unicode="`" horiz-adv-x="317" d="M10 720l37 -49l123 -164l9 -12h77l-37 49l-123 164l-9 12h-77z" />
<glyph unicode="a" horiz-adv-x="593" d="M31 276q2 -162 63 -223q60 -63 172 -63t172 63l2 2v-24v-31h62v31v245v246v31h-62v-31v-24l-2 2q-60 63 -172 63t-172 -63q-32 -31 -48 -95q-15 -60 -15 -121v-8zM92 276v11q0 124 45 170q45 45 129 45t129 -45q45 -46 45 -181q0 -134 -45 -180q-45 -45 -129 -45t-129 45 q-43 43 -45 180z" />
<glyph unicode="b" horiz-adv-x="624" d="M61 0h62v31v24l2 -2q60 -63 172 -63t172 63q32 31 47.5 93.5t15.5 129.5q0 68 -15.5 130.5t-47.5 93.5q-60 63 -172 63t-172 -63l-2 -2v188v31h-62v-31v-397v-13v-245v-31zM123 276v15q2 121 45 166q45 45 129 45t129 -45q45 -46 45 -181q0 -134 -45 -180 q-45 -45 -129 -45t-129 45q-43 43 -45 180z" />
<glyph unicode="c" horiz-adv-x="553" d="M32 276q1 -67 17 -129.5t49 -94.5q66 -62 181 -62h16q61 0 100 14h1q25 11 50.5 40.5t42.5 66.5l-55 24q-26 -58 -62 -74q-26 -10 -74 -10h-17q-93 0 -140 46q-46 43 -48 179v9q-1 53 11 99q12 50 37 72q47 46 139 46h1h6q21 0 47 -5q30 -6 46 -16h1q32 -21 49 -65l57 20 q-7 22 -28.5 52t-44.5 44q-22 16 -64 24q-37 7 -64 7h-7q-115 0 -181 -62q-34 -32 -50 -96q-16 -60 -16 -122v-7z" />
<glyph unicode="d" horiz-adv-x="594" d="M32 276q2 -162 63 -223q60 -63 172 -63t172 63l2 2v-24v-31h62v31v245v410v31h-62v-31v-188l-2 2q-60 63 -172 63t-172 -63q-32 -31 -48 -95q-15 -60 -15 -121v-8zM93 276v11q0 124 45 170q45 45 129 45t129 -45q45 -46 45 -181q0 -134 -45 -180q-45 -45 -129 -45 t-129 45q-43 43 -45 180z" />
<glyph unicode="e" horiz-adv-x="584" d="M32 276q2 -162 63 -223q60 -63 170 -63q9 -1 18 -1q46 0 112 20l1 1q52 18 93 93l-55 29q-18 -35 -28.5 -46t-29.5 -18q-60 -18 -94 -18q-7 0 -12 1h-1q-86 0 -131 45q-37 37 -44 150h368h31v30q0 66 -15 129t-45 95q-62 63 -166 63q-112 0 -172 -63q-32 -31 -48 -95 q-15 -60 -15 -121v-8zM94 307q5 110 44 150q45 45 129 45q80 0 121 -45q21 -22 32 -66.5t11 -83.5h-337z" />
<glyph unicode="f" horiz-adv-x="363" d="M20 492h31h32v-461v-31h61v31v461h97h30v61h-30h-97q0 103 16 125q21 31 81 31h30v61h-30q-34 0 -72.5 -14.5t-57.5 -40.5q-28 -39 -28 -162h-32h-31v-61z" />
<glyph unicode="g" horiz-adv-x="594" d="M32 276q2 -162 63 -223q60 -63 172 -63t172 63l2 2v-24q0 -80 -40 -123q-38 -41 -134 -41h-30v-62h30q122 0 179 62q29 30 43 78t14 86v245v246v31h-62v-31v-24l-2 2q-60 63 -172 63t-172 -63q-32 -31 -48 -95q-15 -60 -15 -121v-8zM93 276v11q0 124 45 170q45 45 129 45 t129 -45q45 -46 45 -181q0 -134 -45 -180q-45 -45 -129 -45t-129 45q-43 43 -45 180z" />
<glyph unicode="h" horiz-adv-x="600" d="M58 301h3v-270v-31h62v31v299q9 104 50 138q38 34 112 34q76 0 115 -34q35 -30 46 -137v-300v-31h62v31v302q-12 135 -69 182q-53 48 -154 48q-96 0 -151 -48l-11 -11v185v31h-62v-31v-355z" />
<glyph unicode="i" horiz-adv-x="225" d="M61 0h62v31v491v31h-62v-31v-491v-31zM61 607h31h1h31v62h-31h-1h-31v-62z" />
<glyph unicode="j" horiz-adv-x="273" d="M0 -117v-61h31q92 0 124 49q12 17 18 45.5t7 50t1 64.5v491v31h-61v-31v-491q0 -100 -17 -125q-15 -23 -72 -23h-31zM120 604h31h1h30v62h-30h-1h-31v-62z" />
<glyph unicode="k" horiz-adv-x="502" d="M61 0h62v31v208l235 -230l10 -9h88l-55 52l-217 213v34l216 201l58 53h-90l-9 -8l-236 -219v360v31h-62v-31v-655v-31z" />
<glyph unicode="l" horiz-adv-x="225" d="M61 0h62v31v686v31h-62v-31v-686v-31z" />
<glyph unicode="m" horiz-adv-x="911" d="M61 0h62v31v282v31q0 83 34 122q32 36 109 36q36 0 70 -8t46 -20q12 -11 20 -48.5t8 -81.5v-31v-282v-31h61v31v282v31q0 74 40 123q31 35 103 35q82 0 113 -28q31 -26 31 -130v-313v-31h61v31v313q0 54 -13.5 104t-37.5 71q-22 21 -66.5 32.5t-87.5 11.5 q-100 0 -150 -57q-4 -4 -16 -24q-9 23 -23 37q-22 21 -68.5 32.5t-90.5 11.5q-91 0 -143 -45v4v31h-62v-31v-178v-31v-282v-31z" />
<glyph unicode="n" horiz-adv-x="600" d="M58 301h3v-270v-31h62v31v299q9 104 50 138q38 34 112 34q76 0 115 -34q35 -30 46 -137v-300v-31h62v31v302q-12 135 -69 182q-53 48 -154 48q-96 0 -151 -48l-11 -11v18v31h-62v-31v-188z" />
<glyph unicode="o" horiz-adv-x="594" d="M32 276q2 -162 63 -223q60 -63 172 -63t172 63q32 31 48 93.5t16 129.5t-16 130t-48 94q-60 63 -172 63t-172 -63q-32 -31 -48 -95q-15 -60 -15 -121v-8zM93 276v11q0 124 45 170q45 45 129 45t129 -45q45 -46 45 -181q0 -134 -45 -180q-45 -45 -129 -45t-129 45 q-43 43 -45 180z" />
<glyph unicode="p" horiz-adv-x="624" d="M61 -147v-31h62v31v202l2 -2q60 -63 172 -63t172 63q32 31 47.5 93.5t15.5 129.5q0 68 -15.5 130.5t-47.5 93.5q-60 63 -172 63t-172 -63l-2 -2v24v31h-62v-31v-233v-13v-423zM123 276v15q2 121 45 166q45 45 129 45t129 -45q45 -46 45 -181q0 -134 -45 -180 q-45 -45 -129 -45t-129 45q-43 43 -45 180z" />
<glyph unicode="q" horiz-adv-x="594" d="M32 276q2 -162 63 -223q60 -63 172 -63t172 63l2 2v-202v-31h62v31v423v246v31h-62v-31v-24l-2 2q-60 63 -172 63t-172 -63q-32 -31 -48 -95q-15 -60 -15 -121v-8zM93 276v11q0 124 45 170q45 45 129 45t129 -45q45 -46 45 -181q0 -134 -45 -180q-45 -45 -129 -45 t-129 45q-43 43 -45 180z" />
<glyph unicode="r" horiz-adv-x="438" d="M61 0h62v31v215h1l-1 32v13q2 89 55.5 145t136.5 56h31v61h-31q-114 0 -192 -96v65v31h-62v-31v-235v-12v-244v-31z" />
<glyph unicode="s" horiz-adv-x="533" d="M19 129q21 -67 70 -103q52 -36 148 -36q101 0 148 37q54 39 56 120v1q0 48 -36 82t-87 52.5t-102 34.5t-87 37t-36 50q1 28 6.5 41.5t22.5 27.5q38 29 115 29q59 0 101 -29q23 -17 31 -76l61 9q-12 85 -55 116q-56 41 -138 41q-101 0 -154 -43q-49 -39 -51 -114v-2 q0 -48 36 -82t87 -52.5t102 -34.5t87 -37t36 -50q-1 -51 -31 -72h-1q-35 -25 -111 -25t-113 26q-32 21 -45 70z" />
<glyph unicode="t" horiz-adv-x="347" d="M20 492h31h42v-338q0 -89 27 -119q28 -35 104 -35h31v61h-31q-46 0 -57 13q-12 13 -12 80v338h69h31v61h-31h-69v113v30h-62v-30v-113h-42h-31v-61z" />
<glyph unicode="u" horiz-adv-x="579" d="M41 231q11 -145 65 -192q52 -49 158 -49q104 0 156 49l6 6v-14v-31h61v31v201v31v259v31h-61v-31v-259v-29q-7 -114 -47 -150q-35 -33 -115 -33q-82 0 -117 33t-45 149v289v31h-61v-31v-291z" />
<glyph unicode="v" horiz-adv-x="552" d="M20 553l12 -40l156 -513h116l156 513l11 40h-63l-8 -22l-141 -470h-26l-142 470l-7 22h-64z" />
<glyph unicode="w" horiz-adv-x="839" d="M24 553l8 -37l107 -516h121l118 492h11h12l117 -492h120l108 516l9 37h-63l-5 -25l-98 -467h-22l-116 492h-62h-60l-118 -492h-23l-97 467l-5 25h-62z" />
<glyph unicode="x" horiz-adv-x="552" d="M24 0h74l10 13l148 219l148 -219l10 -13h74l-32 48l-163 239l148 218l33 48h-75l-9 -13l-134 -198l-135 198l-9 13h-75l33 -48l148 -218l-162 -239z" />
<glyph unicode="y" horiz-adv-x="532" d="M31 553l11 -39l148 -514h58q-18 -65 -46 -91.5t-78 -26.5h-31v-61h31q149 0 192 203l123 491l10 38h-63l-6 -24l-117 -468h-25l-137 469l-6 23h-64z" />
<glyph unicode="z" horiz-adv-x="528" d="M31 0h375h30v61h-30h-314v16l322 372v104h-330h-31v-61h31h268v-21l-321 -372v-99z" />
<glyph unicode="{" horiz-adv-x="436" d="M29 229q64 -37 94.5 -79.5t32.5 -103.5q0 -54 15 -104.5t52 -89.5t89 -40l32 -1v61l-30 1q-49 1 -73 50.5t-24 122.5q-2 71 -34 128t-64 74q30 18 63 76.5t35 126.5q0 73 23.5 122.5t72.5 49.5h31v61h-31q-54 0 -91 -39t-51.5 -89t-14.5 -103q-4 -112 -113 -181l-14 -8 v-35z" />
<glyph unicode="|" horiz-adv-x="371" d="M74 -186v-31h61v31v875v31h-61v-31v-875z" />
<glyph unicode="}" horiz-adv-x="436" d="M29 -127v-61h30q41 0 70.5 15t46 37t26 55t12 61.5t2.5 64.5q5 103 114 176l14 9v34q-54 33 -89.5 82t-38.5 107q0 41 -6 76.5t-21.5 72.5t-48.5 59.5t-81 22.5h-30v-61h30q56 -1 76 -46t20 -125v-1q4 -67 40.5 -129t59.5 -76q-25 -15 -60.5 -70t-39.5 -128v-1 q0 -88 -18.5 -131t-77.5 -43h-30z" />
<glyph unicode="~" horiz-adv-x="600" d="M40 329h61l1 29q1 34 18 56.5t54 22.5q23 0 56 -27t71.5 -54t74.5 -27q59 0 95.5 45t36.5 95v31h-62v-31q0 -35 -17.5 -57t-52.5 -22q-19 0 -51 27t-72 54.5t-79 27.5q-62 0 -97 -45.5t-36 -93.5z" />
<glyph unicode="&#xad;" horiz-adv-x="417" d="M31 329h30h234h31v61h-31h-234h-30v-61z" />
<glyph unicode="&#x2000;" horiz-adv-x="385" />
<glyph unicode="&#x2001;" horiz-adv-x="770" />
<glyph unicode="&#x2002;" horiz-adv-x="385" />
<glyph unicode="&#x2003;" horiz-adv-x="770" />
<glyph unicode="&#x2004;" horiz-adv-x="256" />
<glyph unicode="&#x2005;" horiz-adv-x="192" />
<glyph unicode="&#x2006;" horiz-adv-x="128" />
<glyph unicode="&#x2007;" horiz-adv-x="128" />
<glyph unicode="&#x2008;" horiz-adv-x="96" />
<glyph unicode="&#x2009;" horiz-adv-x="154" />
<glyph unicode="&#x200a;" horiz-adv-x="42" />
<glyph unicode="&#x2010;" horiz-adv-x="417" d="M31 329h30h234h31v61h-31h-234h-30v-61z" />
<glyph unicode="&#x2011;" horiz-adv-x="417" d="M31 329h30h234h31v61h-31h-234h-30v-61z" />
<glyph unicode="&#x2012;" horiz-adv-x="417" d="M31 329h30h234h31v61h-31h-234h-30v-61z" />
<glyph unicode="&#x2013;" horiz-adv-x="634" d="M31 329h52h406h54v61h-54h-406h-52v-61z" />
<glyph unicode="&#x2014;" horiz-adv-x="1146" d="M31 329h104h812h108v61h-108h-812h-104v-61z" />
<glyph unicode="&#x202f;" horiz-adv-x="154" />
<glyph unicode="&#x205f;" horiz-adv-x="192" />
<glyph unicode="&#x25fc;" horiz-adv-x="552" d="M0 0v553h553v-553h-553z" />
</font>
</defs>
</svg>
